0
SECTION
2
HEADER
9
$INSUNITS
70
4
9
$ACADVER
1
AC1014
9
$HANDSEED
5
FFFF
0
ENDSEC
0
SECTION
2
TABLES
0
TABLE
2
VPORT
5
8
100
AcDbSymbolTable
0
ENDTAB
0
TABLE
2
LTYPE
5
5
100
AcDbSymbolTable
0
LTYPE
5
14
100
AcDbSymbolTableRecord
100
AcDbLinetypeTableRecord
2
BYBLOCK
70
0
0
LTYPE
5
15
100
AcDbSymbolTableRecord
100
AcDbLinetypeTableRecord
2
BYLAYER
70
0
0
LTYPE
5
16
100
AcDbSymbolTableRecord
100
AcDbLinetypeTableRecord
2
DASHED
70
0
3
Dashed __ __ __ __ __ __ __ __ __ __ __ __ __ _
72
65
73
2
40
0.75
49
0.5
74
0
49
-0.25
74
0
0
ENDTAB
0
TABLE
2
LAYER
5
2
100
AcDbSymbolTable
70
2
0
LAYER
5
50
100
AcDbSymbolTableRecord
100
AcDbLayerTableRecord
2
0
70
0
62
7
6
CONTINUOUS
0
ENDTAB
0
TABLE
2
STYLE
5
3
100
AcDbSymbolTable
70
1
0
STYLE
5
11
100
AcDbSymbolTableRecord
100
AcDbTextStyleTableRecord
2
STANDARD
70
0
0
ENDTAB
0
TABLE
2
VIEW
5
6
100
AcDbSymbolTable
70
0
0
ENDTAB
0
TABLE
2
UCS
5
7
100
AcDbSymbolTable
70
0
0
ENDTAB
0
TABLE
2
APPID
5
9
100
AcDbSymbolTable
70
2
0
APPID
5
12
100
AcDbSymbolTableRecord
100
AcDbRegAppTableRecord
2
ACAD
70
0
0
ENDTAB
0
TABLE
2
DIMSTYLE
5
A
100
AcDbSymbolTable
70
1
0
ENDTAB
0
TABLE
2
BLOCK_RECORD
5
1
100
AcDbSymbolTable
70
1
0
BLOCK_RECORD
5
1F
100
AcDbSymbolTableRecord
100
AcDbBlockTableRecord
2
*MODEL_SPACE
0
BLOCK_RECORD
5
1B
100
AcDbSymbolTableRecord
100
AcDbBlockTableRecord
2
*PAPER_SPACE
0
ENDTAB
0
ENDSEC
0
SECTION
2
BLOCKS
0
BLOCK
5
20
100
AcDbEntity
100
AcDbBlockBegin
2
*MODEL_SPACE
0
ENDBLK
5
21
100
AcDbEntity
100
AcDbBlockEnd
0
BLOCK
5
1C
100
AcDbEntity
100
AcDbBlockBegin
2
*PAPER_SPACE
0
ENDBLK
5
1D
100
AcDbEntity
100
AcDbBlockEnd
0
ENDSEC
0
SECTION
2
ENTITIES
0
SPLINE
5
100
100
AcDbEntity
8
0
100
AcDbSpline
70
0
71
3
72
26
73
22
74
0
42
0.000000001
43
0.0000000001
44
0.0000000001
40
-0.12274800027235373
40
-0.12274800027235373
40
-0.12274800027235373
40
-0.12274800027235373
40
-0.1153275419149951
40
-0.1153275419149951
40
-0.1153275419149951
40
-0.10342601529651177
40
-0.10342601529651177
40
-0.10342601529651177
40
-0.091596536853810612
40
-0.091596536853810612
40
-0.091596536853810612
40
-0.079773659673153044
40
-0.079773659673153044
40
-0.079773659673153044
40
-0.067629751072853822
40
-0.067629751072853822
40
-0.067629751072853822
40
-0.065128141646215165
40
-0.065128141646215165
40
-0.065128141646215165
40
0
40
0
40
0
40
0
10
352.28445979762574
20
125.00000000000001
30
0
10
358.18963986508385
20
125.00000000000001
30
0
10
364.0948199325419
20
125.00000000000001
30
0
10
369.99999999999994
20
125.00000000000001
30
0
10
376.51145116419116
20
125.00000000000001
30
0
10
383.41537268046545
20
123.80304681707696
30
0
10
389.98592267060025
20
121.2402468281017
30
0
10
396.51669657520841
20
118.69296124076743
30
0
10
402.69293584644691
20
114.79793684515995
30
0
10
407.85730109898611
20
109.89767854776404
30
0
10
413.01878445538028
20
105.00015476560981
30
0
10
417.15281940399825
20
99.118080897644177
30
0
10
419.98899050476018
20
92.936887938754893
30
0
10
422.90217331941477
20
86.587854519345768
30
0
10
424.44693097331077
20
79.949031313214817
30
0
10
424.87114554866253
20
73.762630220668683
30
0
10
424.95853250252935
20
72.48824980498442
30
0
10
425
20
71.232339309490001
30
0
10
425
20
70.000000000000114
30
0
10
425
20
23.333333333333421
30
0
10
425
20
-26.708615363012484
30
0
10
425
20
-69.999999999999943
30
0
0
ARC
5
101
100
AcDbEntity
8
0
100
AcDbCircle
10
350.00000000000006
20
126.0155015672231
30
0
40
2.4999999999999876
210
0
220
0
230
1
100
AcDbArc
50
203.9663865039868
51
336.03361349601539
0
LINE
5
102
100
AcDbEntity
8
0
100
AcDbLine
10
-347.71554020237437
20
125.00000000000001
30
0
11
347.71554020237454
21
124.99999999999999
31
0
0
ARC
5
103
100
AcDbEntity
8
0
100
AcDbCircle
10
-349.99999999999994
20
126.01550156722338
30
0
40
2.5000000000000382
210
0
220
0
230
1
100
AcDbArc
50
203.96638650399328
51
336.03361349600834
0
SPLINE
5
104
100
AcDbEntity
8
0
100
AcDbSpline
70
0
71
3
72
53
73
49
74
0
42
0.000000001
43
0.0000000001
44
0.0000000001
40
-1
40
-1
40
-1
40
-1
40
-0.98035800941868634
40
-0.98035800941868634
40
-0.98035800941868634
40
-0.96075595802152103
40
-0.96075595802152103
40
-0.96075595802152103
40
-0.94114667240421046
40
-0.94114667240421046
40
-0.94114667240421046
40
-0.93698327644837587
40
-0.93698327644837587
40
-0.93698327644837587
40
-0.60363352018953054
40
-0.60363352018953054
40
-0.60363352018953054
40
-0.58399152960821699
40
-0.58399152960821699
40
-0.58399152960821699
40
-0.56438947821105157
40
-0.56438947821105157
40
-0.56438947821105157
40
-0.54478019259374111
40
-0.54478019259374111
40
-0.54478019259374111
40
-0.54061679663790652
40
-0.54061679663790652
40
-0.54061679663790652
40
-0.47548865499169135
40
-0.47548865499169135
40
-0.47548865499169135
40
-0.46293880492449635
40
-0.46293880492449635
40
-0.46293880492449635
40
-0.45108104984037833
40
-0.45108104984037833
40
-0.45108104984037833
40
-0.43931483328842996
40
-0.43931483328842996
40
-0.43931483328842996
40
-0.42741597213257004
40
-0.42741597213257004
40
-0.42741597213257004
40
-0.4252892547229114
40
-0.4252892547229114
40
-0.4252892547229114
40
-0.41786879636555263
40
-0.41786879636555263
40
-0.41786879636555263
40
-0.41786879636555263
10
425
20
-70
30
0
10
425
20
-78.976168390673564
30
0
10
422.75974119564438
20
-87.943837603655055
30
0
10
418.53841953978838
20
-95.865456280133259
30
0
10
414.32568133896785
20
-103.7709674757651
30
0
10
408.14801531294927
20
-110.61986211320647
30
0
10
400.71736855435063
20
-115.62283714430959
30
0
10
393.28397948407326
20
-120.62765854455144
30
0
10
384.61064365570473
20
-123.77576221946512
30
0
10
375.69763482447394
20
-124.70408538132176
30
0
10
373.80524640979831
20
-124.90118470320473
30
0
10
371.9026250431142
20
-125
30
0
10
370
20
-125
30
0
10
148.41878868216799
20
-125
30
0
10
-148.41878868216756
20
-125
30
0
10
-370.00000000000006
20
-125
30
0
10
-378.97616839067354
20
-125
30
0
10
-387.94383760365497
20
-122.75974119564445
30
0
10
-395.86545628013317
20
-118.53841953978845
30
0
10
-403.77096747576508
20
-114.32568133896793
30
0
10
-410.61986211320658
20
-108.14801531294916
30
0
10
-415.6228371443097
20
-100.71736855435047
30
0
10
-420.62765854455154
20
-93.283979484073157
30
0
10
-423.77576221946515
20
-84.610643655704635
30
0
10
-424.70408538132176
20
-75.69763482447388
30
0
10
-424.90118470320476
20
-73.805246409798244
30
0
10
-425
20
-71.902625043114128
30
0
10
-425
20
-69.999999999999915
30
0
10
-425
20
-26.708615363012285
30
0
10
-425
20
23.333333333333492
30
0
10
-425
20
70.000000000000171
30
0
10
-425
20
76.182289449872258
30
0
10
-423.91707474689679
20
82.982401191315702
30
0
10
-421.37879418311843
20
89.627009662420789
30
0
10
-418.98049387682727
20
95.905183461976804
30
0
10
-415.28060131188334
20
102.01944991082797
30
0
10
-410.4637441668911
20
107.25164973523169
30
0
10
-405.68407180346975
20
112.44345844946771
30
0
10
-399.81864356436563
20
116.74582288509214
30
0
10
-393.46693566226264
20
119.74236555113991
30
0
10
-387.04362277353403
20
122.77268927274511
30
0
10
-380.14800551491032
20
124.4617843671445
30
0
10
-373.52326894989523
20
124.88703467948244
30
0
10
-372.33921087890229
20
124.96304088132526
30
0
10
-371.16354960140336
20
125.00000000000003
30
0
10
-370
20
125.00000000000003
30
0
10
-364.09481993254184
20
125.00000000000003
30
0
10
-358.18963986508368
20
125.00000000000003
30
0
10
-352.28445979762535
20
125.00000000000001
30
0
0
ENDSEC
0
SECTION
2
OBJECTS
0
DICTIONARY
5
C
100
AcDbDictionary
3
ACAD_GROUP
350
D
3
ACAD_MLINESTYLE
350
17
0
DICTIONARY
5
D
100
AcDbDictionary
0
DICTIONARY
5
1A
330
C
100
AcDbDictionary
0
DICTIONARY
5
17
100
AcDbDictionary
0
ENDSEC
0
EOF
