0
SECTION
2
HEADER
9
$INSUNITS
70
4
9
$ACADVER
1
AC1014
9
$HANDSEED
5
FFFF
0
ENDSEC
0
SECTION
2
TABLES
0
TABLE
2
VPORT
5
8
100
AcDbSymbolTable
0
ENDTAB
0
TABLE
2
LTYPE
5
5
100
AcDbSymbolTable
0
LTYPE
5
14
100
AcDbSymbolTableRecord
100
AcDbLinetypeTableRecord
2
BYBLOCK
70
0
0
LTYPE
5
15
100
AcDbSymbolTableRecord
100
AcDbLinetypeTableRecord
2
BYLAYER
70
0
0
LTYPE
5
16
100
AcDbSymbolTableRecord
100
AcDbLinetypeTableRecord
2
DASHED
70
0
3
Dashed __ __ __ __ __ __ __ __ __ __ __ __ __ _
72
65
73
2
40
0.75
49
0.5
74
0
49
-0.25
74
0
0
ENDTAB
0
TABLE
2
LAYER
5
2
100
AcDbSymbolTable
70
2
0
LAYER
5
50
100
AcDbSymbolTableRecord
100
AcDbLayerTableRecord
2
0
70
0
62
7
6
CONTINUOUS
0
ENDTAB
0
TABLE
2
STYLE
5
3
100
AcDbSymbolTable
70
1
0
STYLE
5
11
100
AcDbSymbolTableRecord
100
AcDbTextStyleTableRecord
2
STANDARD
70
0
0
ENDTAB
0
TABLE
2
VIEW
5
6
100
AcDbSymbolTable
70
0
0
ENDTAB
0
TABLE
2
UCS
5
7
100
AcDbSymbolTable
70
0
0
ENDTAB
0
TABLE
2
APPID
5
9
100
AcDbSymbolTable
70
2
0
APPID
5
12
100
AcDbSymbolTableRecord
100
AcDbRegAppTableRecord
2
ACAD
70
0
0
ENDTAB
0
TABLE
2
DIMSTYLE
5
A
100
AcDbSymbolTable
70
1
0
ENDTAB
0
TABLE
2
BLOCK_RECORD
5
1
100
AcDbSymbolTable
70
1
0
BLOCK_RECORD
5
1F
100
AcDbSymbolTableRecord
100
AcDbBlockTableRecord
2
*MODEL_SPACE
0
BLOCK_RECORD
5
1B
100
AcDbSymbolTableRecord
100
AcDbBlockTableRecord
2
*PAPER_SPACE
0
ENDTAB
0
ENDSEC
0
SECTION
2
BLOCKS
0
BLOCK
5
20
100
AcDbEntity
100
AcDbBlockBegin
2
*MODEL_SPACE
0
ENDBLK
5
21
100
AcDbEntity
100
AcDbBlockEnd
0
BLOCK
5
1C
100
AcDbEntity
100
AcDbBlockBegin
2
*PAPER_SPACE
0
ENDBLK
5
1D
100
AcDbEntity
100
AcDbBlockEnd
0
ENDSEC
0
SECTION
2
ENTITIES
0
CIRCLE
5
100
100
AcDbEntity
8
0
100
AcDbCircle
10
350.00000000000006
20
126.01550156722308
30
0
40
1.4500000000000313
210
0
220
-0
230
1
0
CIRCLE
5
101
100
AcDbEntity
8
0
100
AcDbCircle
10
434
20
-70.000000000000014
30
0
40
1.4500000000000313
210
0
220
-0
230
1
0
LINE
5
102
100
AcDbEntity
8
0
100
AcDbLine
10
370
20
-105.23204878630298
30
0
11
369.99999999999994
21
-150
31
0
0
SPLINE
5
103
100
AcDbEntity
8
0
100
AcDbSpline
70
0
71
3
72
21
73
17
74
0
42
0.000000001
43
0.0000000001
44
0.0000000001
40
-12.06789500832121
40
-12.06789500832121
40
-12.06789500832121
40
-12.06789500832121
40
-11.308781008576613
40
-11.308781008576613
40
-9.6461656335962473
40
-9.6461656335962473
40
-6.4052591415406317
40
-6.4052591415406317
40
-3.192188274977438
40
-3.192188274977438
40
0
40
0
40
0
40
2.4839072958277484
40
2.4839072958277484
40
3.7120471358101668
40
3.7120471358101668
40
3.7120471358101668
40
3.7120471358101668
10
369.99999999999994
20
-150
30
0
10
373.25239375208048
20
-150
30
0
10
374.58845780188682
20
-149.90110371371975
30
0
10
381.87654095860381
20
-149.27168974203215
30
0
10
386.89007784553655
20
-148.36327576852187
30
0
10
401.49169124261226
20
-144.20891760152784
30
0
10
410.66018285691621
20
-139.63045772401816
30
0
10
426.85348900155128
20
-127.0945507316361
30
0
10
433.74272085678007
20
-119.2816689550817
30
0
10
444.16024060891334
20
-101.24320588915029
30
0
10
447.60593194594384
20
-91.208437785821346
30
0
10
448.96886878609729
20
-80.655459128809568
30
0
10
450.02939794960139
20
-72.44396957340372
30
0
10
449.80171327631359
20
-64.11854735365111
30
0
10
447.55425594927658
20
-51.950104899131311
30
0
10
446.80860566358552
20
-49.176705529651585
30
0
10
445.75193303649172
20
-45.908015061336513
30
0
0
SPLINE
5
104
100
AcDbEntity
8
0
100
AcDbSpline
70
0
71
3
72
10
73
6
74
0
42
0.000000001
43
0.0000000001
44
0.0000000001
40
-348.70468105864035
40
-348.70468105864035
40
-348.70468105864035
40
-348.70468105864035
40
-348.29724962186373
40
-348.29724962186373
40
-347.41150770670635
40
-347.41150770670635
40
-347.41150770670635
40
-347.41150770670635
10
445.75193303649172
20
-45.908015061336513
30
0
10
445.40138529539286
20
-44.823637525059603
30
0
10
445.03166118257241
20
-43.679922417698513
30
0
10
443.73467639747889
20
-39.667637822493845
30
0
10
442.85290006434047
20
-36.939596919380854
30
0
10
441.97476349506871
20
-34.222398845255427
30
0
0
SPLINE
5
105
100
AcDbEntity
8
0
100
AcDbSpline
70
0
71
3
72
12
73
8
74
0
42
0.000000001
43
0.0000000001
44
0.0000000001
40
-347.41150770670635
40
-347.41150770670635
40
-347.41150770670635
40
-347.41150770670635
40
-344.30079051786845
40
-344.30079051786845
40
-336.85546576251585
40
-336.85546576251585
40
-331.85317422202473
40
-331.85317422202473
40
-331.85317422202473
40
-331.85317422202473
10
441.97476349506871
20
-34.222398845255427
30
0
10
438.89075620870761
20
-24.679625030427744
30
0
10
435.85157198842637
20
-15.270610148562447
30
0
10
425.25926754395061
20
17.568327069030353
30
0
10
416.865671429901
20
43.666472434043058
30
0
10
404.07225518650296
20
83.916959751846235
30
0
10
402.00959046296657
20
90.510038895136816
30
0
10
400.88516202002916
20
94.091984938663472
30
0
0
SPLINE
5
106
100
AcDbEntity
8
0
100
AcDbSpline
70
0
71
3
72
16
73
12
74
0
42
0.000000001
43
0.0000000001
44
0.0000000001
40
-331.85317422202473
40
-331.85317422202473
40
-331.85317422202473
40
-331.85317422202473
40
-328.55850261507629
40
-328.55850261507629
40
-309.10128553265417
40
-309.10128553265417
40
-290.08780954671738
40
-290.08780954671738
40
-271.23498179687817
40
-271.23498179687817
40
-269.7639318993148
40
-269.7639318993148
40
-269.7639318993148
40
-269.7639318993148
10
400.88516202002916
20
94.091984938663472
30
0
10
400.144576943169
20
96.451170890082409
30
0
10
399.75601817129444
20
97.486666269333782
30
0
10
395.48297595152121
20
108.52588685887248
30
0
10
390.04788737302107
20
117.31427252182364
30
0
10
376.04698400103564
20
132.30179901223298
30
0
10
367.69188411764952
20
138.40436138911801
30
0
10
348.90088026117087
20
147.05853051044892
30
0
10
338.67873476192335
20
149.54601257769644
30
0
10
327.30566507687024
20
149.97460766920724
30
0
10
326.6090643954073
20
150.00000000000003
30
0
10
325.13322898353738
20
150.00000000000003
30
0
0
LINE
5
107
100
AcDbEntity
8
0
100
AcDbLine
10
325.13322898353744
20
150.00000000000003
30
0
11
280.00000000000006
21
150.00000000000003
31
0
0
LINE
5
108
100
AcDbEntity
8
0
100
AcDbLine
10
280.00000000000006
20
150.00000000000003
30
0
11
280
21
124.99999999999997
31
0
0
ARC
5
109
100
AcDbEntity
8
0
100
AcDbCircle
10
279.99999999999994
20
69.999999999999986
30
0
40
55.000000000000007
210
0
220
-0
230
1
100
AcDbArc
50
25.833407430901875
51
89.999999999999943
0
LINE
5
110
100
AcDbEntity
8
0
100
AcDbLine
10
329.50356665787325
20
93.966578565775649
30
0
11
401.50226969137395
21
-54.748540912688206
31
0
0
ARC
5
111
100
AcDbEntity
8
0
100
AcDbCircle
10
370
20
-69.999999999999972
30
0
40
35.00000000000005
210
0
220
0
230
1
100
AcDbArc
50
-85.726261957174003
51
25.833407430901815
0
LINE
5
112
100
AcDbEntity
8
0
100
AcDbLine
10
372.60825780463233
20
-104.90267885456036
30
0
11
370
21
-105.23204878630298
31
0
0
CIRCLE
5
113
100
AcDbEntity
8
0
100
AcDbCircle
10
392.95617714411992
20
-122.65248499466878
30
0
40
5.0625000000000142
210
0
220
-0
230
1
0
CIRCLE
5
114
100
AcDbEntity
8
0
100
AcDbCircle
10
299.27063152121895
20
136.09806958286748
30
0
40
5.0625000000000142
210
0
220
-0
230
1
0
ENDSEC
0
SECTION
2
OBJECTS
0
DICTIONARY
5
C
100
AcDbDictionary
3
ACAD_GROUP
350
D
3
ACAD_MLINESTYLE
350
17
0
DICTIONARY
5
D
100
AcDbDictionary
0
DICTIONARY
5
1A
330
C
100
AcDbDictionary
0
DICTIONARY
5
17
100
AcDbDictionary
0
ENDSEC
0
EOF
