0
SECTION
2
HEADER
9
$INSUNITS
70
4
9
$ACADVER
1
AC1014
9
$HANDSEED
5
FFFF
0
ENDSEC
0
SECTION
2
TABLES
0
TABLE
2
VPORT
5
8
100
AcDbSymbolTable
0
ENDTAB
0
TABLE
2
LTYPE
5
5
100
AcDbSymbolTable
0
LTYPE
5
14
100
AcDbSymbolTableRecord
100
AcDbLinetypeTableRecord
2
BYBLOCK
70
0
0
LTYPE
5
15
100
AcDbSymbolTableRecord
100
AcDbLinetypeTableRecord
2
BYLAYER
70
0
0
LTYPE
5
16
100
AcDbSymbolTableRecord
100
AcDbLinetypeTableRecord
2
DASHED
70
0
3
Dashed __ __ __ __ __ __ __ __ __ __ __ __ __ _
72
65
73
2
40
0.75
49
0.5
74
0
49
-0.25
74
0
0
ENDTAB
0
TABLE
2
LAYER
5
2
100
AcDbSymbolTable
70
2
0
LAYER
5
50
100
AcDbSymbolTableRecord
100
AcDbLayerTableRecord
2
0
70
0
62
7
6
CONTINUOUS
0
ENDTAB
0
TABLE
2
STYLE
5
3
100
AcDbSymbolTable
70
1
0
STYLE
5
11
100
AcDbSymbolTableRecord
100
AcDbTextStyleTableRecord
2
STANDARD
70
0
0
ENDTAB
0
TABLE
2
VIEW
5
6
100
AcDbSymbolTable
70
0
0
ENDTAB
0
TABLE
2
UCS
5
7
100
AcDbSymbolTable
70
0
0
ENDTAB
0
TABLE
2
APPID
5
9
100
AcDbSymbolTable
70
2
0
APPID
5
12
100
AcDbSymbolTableRecord
100
AcDbRegAppTableRecord
2
ACAD
70
0
0
ENDTAB
0
TABLE
2
DIMSTYLE
5
A
100
AcDbSymbolTable
70
1
0
ENDTAB
0
TABLE
2
BLOCK_RECORD
5
1
100
AcDbSymbolTable
70
1
0
BLOCK_RECORD
5
1F
100
AcDbSymbolTableRecord
100
AcDbBlockTableRecord
2
*MODEL_SPACE
0
BLOCK_RECORD
5
1B
100
AcDbSymbolTableRecord
100
AcDbBlockTableRecord
2
*PAPER_SPACE
0
ENDTAB
0
ENDSEC
0
SECTION
2
BLOCKS
0
BLOCK
5
20
100
AcDbEntity
100
AcDbBlockBegin
2
*MODEL_SPACE
0
ENDBLK
5
21
100
AcDbEntity
100
AcDbBlockEnd
0
BLOCK
5
1C
100
AcDbEntity
100
AcDbBlockBegin
2
*PAPER_SPACE
0
ENDBLK
5
1D
100
AcDbEntity
100
AcDbBlockEnd
0
ENDSEC
0
SECTION
2
ENTITIES
0
CIRCLE
5
100
100
AcDbEntity
8
0
100
AcDbCircle
10
70.000000000000114
20
134.00000000000003
30
0
40
1.4499999999999957
210
0
220
-0
230
1
0
CIRCLE
5
101
100
AcDbEntity
8
0
100
AcDbCircle
10
-349.99999999999994
20
126.01550156722337
30
0
40
1.4500000000000313
210
0
220
-0
230
1
0
CIRCLE
5
102
100
AcDbEntity
8
0
100
AcDbCircle
10
-280
20
-133.9999999999998
30
0
40
1.4499999999999957
210
0
220
-0
230
1
0
CIRCLE
5
103
100
AcDbEntity
8
0
100
AcDbCircle
10
-140
20
-133.99999999999991
30
0
40
1.4499999999999957
210
0
220
-0
230
1
0
CIRCLE
5
104
100
AcDbEntity
8
0
100
AcDbCircle
10
210.00000000000011
20
134.00000000000003
30
0
40
1.4499999999999957
210
0
220
-0
230
1
0
CIRCLE
5
105
100
AcDbEntity
8
0
100
AcDbCircle
10
-69.999999999999886
20
134.00000000000009
30
0
40
1.4499999999999957
210
0
220
-0
230
1
0
CIRCLE
5
106
100
AcDbEntity
8
0
100
AcDbCircle
10
140
20
-134.00000000000003
30
0
40
1.4499999999999957
210
0
220
-0
230
1
0
CIRCLE
5
107
100
AcDbEntity
8
0
100
AcDbCircle
10
0
20
-134.00000000000003
30
0
40
1.45
210
0
220
-0
230
1
0
CIRCLE
5
108
100
AcDbEntity
8
0
100
AcDbCircle
10
280
20
-134.00000000000003
30
0
40
1.4499999999999957
210
0
220
-0
230
1
0
CIRCLE
5
109
100
AcDbEntity
8
0
100
AcDbCircle
10
-209.99999999999989
20
134.0000000000002
30
0
40
1.4499999999999957
210
0
220
-0
230
1
0
LINE
5
110
100
AcDbEntity
8
0
100
AcDbLine
10
369.99999999999994
20
-150
30
0
11
370
21
-105.23204878630298
31
0
0
LINE
5
111
100
AcDbEntity
8
0
100
AcDbLine
10
370
20
-105.23204878630298
30
0
11
216.89065795863254
21
-124.56664579115281
31
0
0
ARC
5
112
100
AcDbEntity
8
0
100
AcDbCircle
10
210.00000000000031
20
-70.000000000005187
30
0
40
54.999999999994813
210
0
220
0
230
1
100
AcDbArc
50
269.99999999999972
51
277.19719657035074
0
LINE
5
113
100
AcDbEntity
8
0
100
AcDbLine
10
210
20
-125
30
0
11
-210
21
-125
31
0
0
ARC
5
114
100
AcDbEntity
8
0
100
AcDbCircle
10
-209.99999999999972
20
-69.99999999999531
30
0
40
55.00000000000469
210
0
220
0
230
1
100
AcDbArc
50
262.80280299823465
51
269.99999999999972
0
LINE
5
115
100
AcDbEntity
8
0
100
AcDbLine
10
-216.89065836949845
20
-124.56664573926879
30
0
11
-372.6082346972467
21
-104.90268058136226
31
0
0
ARC
5
116
100
AcDbEntity
8
0
100
AcDbCircle
10
-370
20
-70.000000000000014
30
0
40
34.999999999999972
210
0
220
0
230
1
100
AcDbArc
50
154.16659256909801
51
265.72629988995493
0
LINE
5
117
100
AcDbEntity
8
0
100
AcDbLine
10
-401.50226969137384
20
-54.748540912688199
30
0
11
-329.50356665787325
21
93.966578565775691
31
0
0
ARC
5
118
100
AcDbEntity
8
0
100
AcDbCircle
10
-280
20
69.999999999999943
30
0
40
55.000000000000028
210
0
220
-0
230
1
100
AcDbArc
50
89.999999999999943
51
154.16659256909804
0
LINE
5
119
100
AcDbEntity
8
0
100
AcDbLine
10
-279.99999999999994
20
124.99999999999997
30
0
11
280.00000000000006
21
124.99999999999997
31
0
0
LINE
5
120
100
AcDbEntity
8
0
100
AcDbLine
10
280.00000000000006
20
124.99999999999997
30
0
11
280
21
150.00000000000003
31
0
0
LINE
5
121
100
AcDbEntity
8
0
100
AcDbLine
10
280
20
150.00000000000003
30
0
11
-325.13322898353738
21
150.00000000000003
31
0
0
SPLINE
5
122
100
AcDbEntity
8
0
100
AcDbSpline
70
0
71
3
72
16
73
12
74
0
42
0.000000001
43
0.0000000001
44
0.0000000001
40
-177.06990858611303
40
-177.06990858611303
40
-177.06990858611303
40
-177.06990858611303
40
-175.865450207886
40
-175.865450207886
40
-143.9184257713699
40
-143.9184257713699
40
-112.27952785215493
40
-112.27952785215493
40
-80.51979389465626
40
-80.51979389465626
40
-75.851915780454036
40
-75.851915780454036
40
-75.851915780454036
40
-75.851915780454036
10
-325.13322898353738
20
150.00000000000003
30
0
10
-326.02415250322616
20
150.00000000000003
30
0
10
-326.37399122106478
20
149.9912403873515
30
0
10
-336.86385058336549
20
149.77737673314041
30
0
10
-346.96449313185531
20
147.64299636027013
30
0
10
-365.90519734440471
20
139.47912185940913
30
0
10
-374.55865918061113
20
133.56969161505845
30
0
10
-389.24877060794978
20
118.45122814409109
30
0
10
-395.11216229734464
20
109.39396412020034
30
0
10
-399.6289507649592
20
97.827021174744786
30
0
10
-400.06260162817046
20
96.712309032816165
30
0
10
-400.88516202002899
20
94.091984938663472
30
0
0
SPLINE
5
123
100
AcDbEntity
8
0
100
AcDbSpline
70
0
71
3
72
10
73
6
74
0
42
0.000000001
43
0.0000000001
44
0.0000000001
40
-75.851915780454036
40
-75.851915780454036
40
-75.851915780454036
40
-75.851915780454036
40
-65.32115390526323
40
-65.32115390526323
40
-59.908486603572463
40
-59.908486603572463
40
-59.908486603572463
40
-59.908486603572463
10
-400.88516202002899
20
94.091984938663472
30
0
10
-402.74086334784886
20
88.180517587493597
30
0
10
-406.92804469522571
20
74.718401192387432
30
0
10
-427.44096507628177
20
10.778775656091689
30
0
10
-434.65891588336069
20
-11.585137470736488
30
0
10
-441.97476349506871
20
-34.222398845255626
30
0
0
SPLINE
5
124
100
AcDbEntity
8
0
100
AcDbSpline
70
0
71
3
72
10
73
6
74
0
42
0.000000001
43
0.0000000001
44
0.0000000001
40
-59.908486603572463
40
-59.908486603572463
40
-59.908486603572463
40
-59.908486603572463
40
-59.459118388757908
40
-59.459118388757908
40
-58.815117515265818
40
-58.815117515265818
40
-58.815117515265818
40
-58.815117515265818
10
-441.97476349506871
20
-34.222398845255626
30
0
10
-442.58213675447848
20
-36.101780149364323
30
0
10
-443.19018376633807
20
-37.983045855319666
30
0
10
-444.67105460236144
20
-42.564453440993603
30
0
10
-445.27710608500433
20
-44.439194642760533
30
0
10
-445.75193303649172
20
-45.908015061336549
30
0
0
SPLINE
5
125
100
AcDbEntity
8
0
100
AcDbSpline
70
0
71
3
72
20
73
16
74
0
42
0.000000001
43
0.0000000001
44
0.0000000001
40
-58.815117515265818
40
-58.815117515265818
40
-58.815117515265818
40
-58.815117515265818
40
-57.783582865529901
40
-57.783582865529901
40
-55.30405914436345
40
-55.30405914436345
40
-50.466657322174711
40
-50.466657322174711
40
-45.669287240164884
40
-45.669287240164884
40
-40.898464694726528
40
-40.898464694726528
40
-36.244715621327501
40
-36.244715621327501
40
-35.647612244815242
40
-35.647612244815242
40
-35.647612244815242
40
-35.647612244815242
10
-445.75193303649172
20
-45.908015061336549
30
0
10
-446.51249171466822
20
-48.26071242304188
30
0
10
-446.87421576638872
20
-49.591887746580774
30
0
10
-448.55643784455378
20
-56.51591826821555
30
0
10
-449.29464361102441
20
-61.56707948948231
30
0
10
-450.00896126078231
20
-76.769492196142707
30
0
10
-448.57909108786777
20
-86.945569568295852
30
0
10
-441.80957529109327
20
-106.33640814066575
30
0
10
-436.56394162127401
20
-115.37337427341359
30
0
10
-422.69426230045156
20
-131.01467157643839
30
0
10
-414.22324789900671
20
-137.47661754313648
30
0
10
-395.20675651107859
20
-146.63140628878713
30
0
10
-384.89995935271395
20
-149.32182584231637
30
0
10
-372.86425325526841
20
-149.9604113373438
30
0
10
-372.12293287011795
20
-150
30
0
10
-370
20
-150
30
0
0
LINE
5
126
100
AcDbEntity
8
0
100
AcDbLine
10
-370
20
-150.00000000000003
30
0
11
369.99999999999994
21
-150
31
0
0
CIRCLE
5
127
100
AcDbEntity
8
0
100
AcDbCircle
10
-262.83736377897935
20
137.58514173561201
30
0
40
5.0625000000000142
210
0
220
-0
230
1
0
CIRCLE
5
128
100
AcDbEntity
8
0
100
AcDbCircle
10
344.62633217992482
20
-130.83138183476331
30
0
40
5.0625000000000142
210
0
220
-0
230
1
0
CIRCLE
5
129
100
AcDbEntity
8
0
100
AcDbCircle
10
-344.62633217992482
20
-130.83138183476314
30
0
40
5.0625000000000142
210
0
220
-0
230
1
0
CIRCLE
5
130
100
AcDbEntity
8
0
100
AcDbCircle
10
-299.27063152121883
20
136.09806958286759
30
0
40
5.0625000000000142
210
0
220
-0
230
1
0
CIRCLE
5
131
100
AcDbEntity
8
0
100
AcDbCircle
10
262.83736377897952
20
137.58514173561184
30
0
40
5.0625000000000142
210
0
220
-0
230
1
0
CIRCLE
5
132
100
AcDbEntity
8
0
100
AcDbCircle
10
-392.95617714411992
20
-122.65248499466861
30
0
40
5.0625000000000142
210
0
220
-0
230
1
0
ENDSEC
0
SECTION
2
OBJECTS
0
DICTIONARY
5
C
100
AcDbDictionary
3
ACAD_GROUP
350
D
3
ACAD_MLINESTYLE
350
17
0
DICTIONARY
5
D
100
AcDbDictionary
0
DICTIONARY
5
1A
330
C
100
AcDbDictionary
0
DICTIONARY
5
17
100
AcDbDictionary
0
ENDSEC
0
EOF
