0
SECTION
2
HEADER
9
$INSUNITS
70
4
9
$ACADVER
1
AC1014
9
$HANDSEED
5
FFFF
0
ENDSEC
0
SECTION
2
TABLES
0
TABLE
2
VPORT
5
8
100
AcDbSymbolTable
0
ENDTAB
0
TABLE
2
LTYPE
5
5
100
AcDbSymbolTable
0
LTYPE
5
14
100
AcDbSymbolTableRecord
100
AcDbLinetypeTableRecord
2
BYBLOCK
70
0
0
LTYPE
5
15
100
AcDbSymbolTableRecord
100
AcDbLinetypeTableRecord
2
BYLAYER
70
0
0
LTYPE
5
16
100
AcDbSymbolTableRecord
100
AcDbLinetypeTableRecord
2
DASHED
70
0
3
Dashed __ __ __ __ __ __ __ __ __ __ __ __ __ _
72
65
73
2
40
0.75
49
0.5
74
0
49
-0.25
74
0
0
ENDTAB
0
TABLE
2
LAYER
5
2
100
AcDbSymbolTable
70
2
0
LAYER
5
50
100
AcDbSymbolTableRecord
100
AcDbLayerTableRecord
2
0
70
0
62
7
6
CONTINUOUS
0
ENDTAB
0
TABLE
2
STYLE
5
3
100
AcDbSymbolTable
70
1
0
STYLE
5
11
100
AcDbSymbolTableRecord
100
AcDbTextStyleTableRecord
2
STANDARD
70
0
0
ENDTAB
0
TABLE
2
VIEW
5
6
100
AcDbSymbolTable
70
0
0
ENDTAB
0
TABLE
2
UCS
5
7
100
AcDbSymbolTable
70
0
0
ENDTAB
0
TABLE
2
APPID
5
9
100
AcDbSymbolTable
70
2
0
APPID
5
12
100
AcDbSymbolTableRecord
100
AcDbRegAppTableRecord
2
ACAD
70
0
0
ENDTAB
0
TABLE
2
DIMSTYLE
5
A
100
AcDbSymbolTable
70
1
0
ENDTAB
0
TABLE
2
BLOCK_RECORD
5
1
100
AcDbSymbolTable
70
1
0
BLOCK_RECORD
5
1F
100
AcDbSymbolTableRecord
100
AcDbBlockTableRecord
2
*MODEL_SPACE
0
BLOCK_RECORD
5
1B
100
AcDbSymbolTableRecord
100
AcDbBlockTableRecord
2
*PAPER_SPACE
0
ENDTAB
0
ENDSEC
0
SECTION
2
BLOCKS
0
BLOCK
5
20
100
AcDbEntity
100
AcDbBlockBegin
2
*MODEL_SPACE
0
ENDBLK
5
21
100
AcDbEntity
100
AcDbBlockEnd
0
BLOCK
5
1C
100
AcDbEntity
100
AcDbBlockBegin
2
*PAPER_SPACE
0
ENDBLK
5
1D
100
AcDbEntity
100
AcDbBlockEnd
0
ENDSEC
0
SECTION
2
ENTITIES
0
CIRCLE
5
100
100
AcDbEntity
8
0
100
AcDbCircle
10
350.00000000000006
20
126.01550156722308
30
0
40
1.4500000000000313
210
0
220
-0
230
1
0
CIRCLE
5
101
100
AcDbEntity
8
0
100
AcDbCircle
10
434
20
-70.000000000000014
30
0
40
1.4500000000000313
210
0
220
-0
230
1
0
LINE
5
102
100
AcDbEntity
8
0
100
AcDbLine
10
370
20
-105.23204878630298
30
0
11
369.99999999999994
21
-150
31
0
0
SPLINE
5
103
100
AcDbEntity
8
0
100
AcDbSpline
70
0
71
3
72
19
73
15
74
0
42
0.000000001
43
0.0000000001
44
0.0000000001
40
-11.465492563707633
40
-11.465492563707633
40
-11.465492563707633
40
-11.465492563707633
40
-9.5654846088089798
40
-9.5654846088089798
40
-6.3402153579070966
40
-6.3402153579070966
40
-3.1596548977401819
40
-3.1596548977401819
40
0
40
0
40
0
40
1.9274861527873099
40
1.9274861527873099
40
2.5131800809659239
40
2.5131800809659239
40
2.5131800809659239
40
2.5131800809659239
10
369.99999999999994
20
-150
30
0
10
373.18230589699192
20
-150
30
0
10
377.4758408325913
20
-149.87307428138644
30
0
10
393.33601883960335
20
-147.17726572929485
30
0
10
403.00318847262616
20
-143.57372004534722
30
0
10
420.44619412455586
20
-132.78092819086535
30
0
10
428.07639526247317
20
-125.74438304388833
30
0
10
440.23023447185972
20
-108.97287397762662
30
0
10
444.64910441238499
20
-99.42480243940544
30
0
10
447.08346304249937
20
-89.177813777032242
30
0
10
448.56849628262302
20
-82.926837200881792
30
0
10
449.2896835514108
20
-76.519998890322142
30
0
10
449.2216794460453
20
-68.142531220309507
30
0
10
449.21000856579019
20
-67.077771223904094
30
0
10
448.96832659457652
20
-64.149089372039057
30
0
0
SPLINE
5
104
100
AcDbEntity
8
0
100
AcDbSpline
70
0
71
3
72
14
73
10
74
0
42
0.000000001
43
0.0000000001
44
0.0000000001
40
-444.7160113281729
40
-444.7160113281729
40
-444.7160113281729
40
-444.7160113281729
40
-444.21819594963171
40
-444.21819594963171
40
-443.25372524317299
40
-443.25372524317299
40
-441.38425380606316
40
-441.38425380606316
40
-441.23112243189593
40
-441.23112243189593
40
-441.23112243189593
40
-441.23112243189593
10
448.96832659457652
20
-64.149089372039057
30
0
10
448.76290701244
20
-61.659832108869551
30
0
10
448.44568262591838
20
-57.819698863231046
30
0
10
446.78206121334568
20
-37.607421837056492
30
0
10
445.70325588061513
20
-24.420300130822383
30
0
10
442.51809860206515
20
15.2322546398114
30
0
10
440.32656622751972
20
43.427970625043613
30
0
10
438.30109345819011
20
72.514923429855202
30
0
10
438.17890798899924
20
74.290034845493651
30
0
10
438.07211077629279
20
75.850910627960815
30
0
0
SPLINE
5
105
100
AcDbEntity
8
0
100
AcDbSpline
70
0
71
3
72
16
73
12
74
0
42
0.000000001
43
0.0000000001
44
0.0000000001
40
-441.23112243189593
40
-441.23112243189593
40
-441.23112243189593
40
-441.23112243189593
40
-440.88726558482347
40
-440.88726558482347
40
-440.36634875020059
40
-440.36634875020059
40
-439.48322189473714
40
-439.48322189473714
40
-438.59423746620894
40
-438.59423746620894
40
-437.26953594883122
40
-437.26953594883122
40
-437.26953594883122
40
-437.26953594883122
10
438.07211077629279
20
75.850910627960815
30
0
10
437.83229739358728
20
79.355860728159001
30
0
10
437.53867609608574
20
81.771207611607721
30
0
10
435.75602550658851
20
91.13344145817679
30
0
10
434.07253720304698
20
96.702323892576345
30
0
10
427.83732670381187
20
111.2402009003752
30
0
10
422.19553597622519
20
119.66560322162054
30
0
10
407.77261735652451
20
134.10295837233744
30
0
10
399.1163326989477
20
139.94828811481213
30
0
10
375.04365754046495
20
149.93950814603346
30
0
10
362.52805848981109
20
150.00000000000003
30
0
10
359.10378418171604
20
150.00000000000003
30
0
0
LINE
5
106
100
AcDbEntity
8
0
100
AcDbLine
10
359.10378418171609
20
150.00000000000003
30
0
11
279.99999999999994
21
150.00000000000003
31
0
0
LINE
5
107
100
AcDbEntity
8
0
100
AcDbLine
10
279.99999999999994
20
150.00000000000003
30
0
11
280
21
124.99999999999997
31
0
0
ARC
5
108
100
AcDbEntity
8
0
100
AcDbCircle
10
279.99999999999994
20
69.999999999999986
30
0
40
55.000000000000007
210
0
220
-0
230
1
100
AcDbArc
50
25.833407430901875
51
89.999999999999943
0
LINE
5
109
100
AcDbEntity
8
0
100
AcDbLine
10
329.50356665787325
20
93.966578565775649
30
0
11
401.50226969137395
21
-54.748540912688206
31
0
0
ARC
5
110
100
AcDbEntity
8
0
100
AcDbCircle
10
370
20
-69.999999999999972
30
0
40
35.00000000000005
210
0
220
0
230
1
100
AcDbArc
50
-85.726261957174003
51
25.833407430901815
0
LINE
5
111
100
AcDbEntity
8
0
100
AcDbLine
10
372.60825780463233
20
-104.90267885456036
30
0
11
370
21
-105.23204878630298
31
0
0
CIRCLE
5
112
100
AcDbEntity
8
0
100
AcDbCircle
10
299.27063152121895
20
136.09806958286748
30
0
40
5.0625000000000142
210
0
220
-0
230
1
0
CIRCLE
5
113
100
AcDbEntity
8
0
100
AcDbCircle
10
392.95617714411992
20
-122.65248499466878
30
0
40
5.0625000000000142
210
0
220
-0
230
1
0
ENDSEC
0
SECTION
2
OBJECTS
0
DICTIONARY
5
C
100
AcDbDictionary
3
ACAD_GROUP
350
D
3
ACAD_MLINESTYLE
350
17
0
DICTIONARY
5
D
100
AcDbDictionary
0
DICTIONARY
5
1A
330
C
100
AcDbDictionary
0
DICTIONARY
5
17
100
AcDbDictionary
0
ENDSEC
0
EOF
