0
SECTION
2
HEADER
9
$INSUNITS
70
4
9
$ACADVER
1
AC1014
9
$HANDSEED
5
FFFF
0
ENDSEC
0
SECTION
2
TABLES
0
TABLE
2
VPORT
5
8
100
AcDbSymbolTable
0
ENDTAB
0
TABLE
2
LTYPE
5
5
100
AcDbSymbolTable
0
LTYPE
5
14
100
AcDbSymbolTableRecord
100
AcDbLinetypeTableRecord
2
BYBLOCK
70
0
0
LTYPE
5
15
100
AcDbSymbolTableRecord
100
AcDbLinetypeTableRecord
2
BYLAYER
70
0
0
LTYPE
5
16
100
AcDbSymbolTableRecord
100
AcDbLinetypeTableRecord
2
DASHED
70
0
3
Dashed __ __ __ __ __ __ __ __ __ __ __ __ __ _
72
65
73
2
40
0.75
49
0.5
74
0
49
-0.25
74
0
0
ENDTAB
0
TABLE
2
LAYER
5
2
100
AcDbSymbolTable
70
2
0
LAYER
5
50
100
AcDbSymbolTableRecord
100
AcDbLayerTableRecord
2
0
70
0
62
7
6
CONTINUOUS
0
ENDTAB
0
TABLE
2
STYLE
5
3
100
AcDbSymbolTable
70
1
0
STYLE
5
11
100
AcDbSymbolTableRecord
100
AcDbTextStyleTableRecord
2
STANDARD
70
0
0
ENDTAB
0
TABLE
2
VIEW
5
6
100
AcDbSymbolTable
70
0
0
ENDTAB
0
TABLE
2
UCS
5
7
100
AcDbSymbolTable
70
0
0
ENDTAB
0
TABLE
2
APPID
5
9
100
AcDbSymbolTable
70
2
0
APPID
5
12
100
AcDbSymbolTableRecord
100
AcDbRegAppTableRecord
2
ACAD
70
0
0
ENDTAB
0
TABLE
2
DIMSTYLE
5
A
100
AcDbSymbolTable
70
1
0
ENDTAB
0
TABLE
2
BLOCK_RECORD
5
1
100
AcDbSymbolTable
70
1
0
BLOCK_RECORD
5
1F
100
AcDbSymbolTableRecord
100
AcDbBlockTableRecord
2
*MODEL_SPACE
0
BLOCK_RECORD
5
1B
100
AcDbSymbolTableRecord
100
AcDbBlockTableRecord
2
*PAPER_SPACE
0
ENDTAB
0
ENDSEC
0
SECTION
2
BLOCKS
0
BLOCK
5
20
100
AcDbEntity
100
AcDbBlockBegin
2
*MODEL_SPACE
0
ENDBLK
5
21
100
AcDbEntity
100
AcDbBlockEnd
0
BLOCK
5
1C
100
AcDbEntity
100
AcDbBlockBegin
2
*PAPER_SPACE
0
ENDBLK
5
1D
100
AcDbEntity
100
AcDbBlockEnd
0
ENDSEC
0
SECTION
2
ENTITIES
0
LINE
5
100
100
AcDbEntity
8
0
100
AcDbLine
10
18.679724525151169
20
-139.96048102527584
30
0
11
18.679724525151165
21
-150
31
0
0
LINE
5
101
100
AcDbEntity
8
0
100
AcDbLine
10
18.679724525151165
20
-150
30
0
11
370
21
-150
31
0
0
LINE
5
102
100
AcDbEntity
8
0
100
AcDbLine
10
370
20
-150
30
0
11
370
21
-105.23204878630298
31
0
0
LINE
5
103
100
AcDbEntity
8
0
100
AcDbLine
10
370
20
-105.23204878630298
30
0
11
216.89065795863254
21
-124.56664579115281
31
0
0
ARC
5
104
100
AcDbEntity
8
0
100
AcDbCircle
10
210.00000000000031
20
-70.000000000005187
30
0
40
54.999999999994813
210
0
220
0
230
1
100
AcDbArc
50
269.99999999999972
51
277.19719657035074
0
LINE
5
105
100
AcDbEntity
8
0
100
AcDbLine
10
210
20
-125
30
0
11
-210
21
-125
31
0
0
ARC
5
106
100
AcDbEntity
8
0
100
AcDbCircle
10
-209.99999999999972
20
-69.99999999999531
30
0
40
55.00000000000469
210
0
220
0
230
1
100
AcDbArc
50
262.80280299823465
51
269.99999999999972
0
LINE
5
107
100
AcDbEntity
8
0
100
AcDbLine
10
-216.89065836949845
20
-124.56664573926879
30
0
11
-372.6082346972467
21
-104.90268058136226
31
0
0
ARC
5
108
100
AcDbEntity
8
0
100
AcDbCircle
10
-370
20
-70.000000000000014
30
0
40
34.999999999999972
210
0
220
0
230
1
100
AcDbArc
50
154.16659256909801
51
265.72629988995493
0
LINE
5
109
100
AcDbEntity
8
0
100
AcDbLine
10
-401.50226969137384
20
-54.748540912688199
30
0
11
-329.50356665787325
21
93.966578565775691
31
0
0
ARC
5
110
100
AcDbEntity
8
0
100
AcDbCircle
10
-280
20
69.999999999999943
30
0
40
55.000000000000028
210
0
220
-0
230
1
100
AcDbArc
50
89.999999999999943
51
154.16659256909804
0
LINE
5
111
100
AcDbEntity
8
0
100
AcDbLine
10
-279.99999999999994
20
124.99999999999997
30
0
11
280.00000000000006
21
124.99999999999997
31
0
0
LINE
5
112
100
AcDbEntity
8
0
100
AcDbLine
10
280.00000000000006
20
124.99999999999997
30
0
11
279.99999999999994
21
150.00000000000003
31
0
0
LINE
5
113
100
AcDbEntity
8
0
100
AcDbLine
10
279.99999999999994
20
150.00000000000003
30
0
11
-359.10378418171649
21
150.00000000000003
31
0
0
SPLINE
5
114
100
AcDbEntity
8
0
100
AcDbSpline
70
0
71
3
72
18
73
14
74
0
42
0.000000001
43
0.0000000001
44
0.0000000001
40
-350.03125501533481
40
-350.03125501533481
40
-350.03125501533481
40
-350.03125501533481
40
-349.93949845342968
40
-349.93949845342968
40
-348.24110004176299
40
-348.24110004176299
40
-344.78867302186478
40
-344.78867302186478
40
-341.28958242295965
40
-341.28958242295965
40
-337.8430003168404
40
-337.8430003168404
40
-336.47850949405404
40
-336.47850949405404
40
-336.47850949405404
40
-336.47850949405404
10
-359.10378418171649
20
150.00000000000003
30
0
10
-359.36468545705395
20
150.00000000000003
30
0
10
-359.62583052445774
20
149.99871576033215
30
0
10
-364.72514693358562
20
149.94846042870606
30
0
10
-369.5973622713509
20
149.45877695328184
30
0
10
-384.28756042190565
20
146.5632112238805
30
0
10
-393.77430496295983
20
142.74705585433946
30
0
10
-411.03646886285708
20
131.47047872369944
30
0
10
-418.60557729585111
20
124.07737256178143
30
0
10
-430.39148449857089
20
106.66474134616521
30
0
10
-434.52852323220384
20
96.874319468386091
30
0
10
-437.4832850606482
20
82.299193255035362
30
0
10
-437.82399114961686
20
79.477259168512745
30
0
10
-438.07211077629267
20
75.850910627961127
30
0
0
SPLINE
5
115
100
AcDbEntity
8
0
100
AcDbSpline
70
0
71
3
72
14
73
10
74
0
42
0.000000001
43
0.0000000001
44
0.0000000001
40
-336.47850949405404
40
-336.47850949405404
40
-336.47850949405404
40
-336.47850949405404
40
-335.99013658958694
40
-335.99013658958694
40
-332.48552171022135
40
-332.48552171022135
40
-325.51652204592966
40
-325.51652204592966
40
-319.55753481246524
40
-319.55753481246524
40
-319.55753481246524
40
-319.55753481246524
10
-438.07211077629267
20
75.850910627961127
30
0
10
-438.16091672552403
20
74.552982976280248
30
0
10
-438.25722060913813
20
73.153381171562771
30
0
10
-439.16419402433928
20
60.079101534337049
30
0
10
-440.02247401430026
20
48.320503678821808
30
0
10
-442.65840666888545
20
13.366080646116076
30
0
10
-444.58239275864918
20
-10.659772740636688
30
0
10
-448.1913832468029
20
-54.821948650803932
30
0
10
-448.7250172106377
20
-61.200686669298705
30
0
10
-448.96832659457652
20
-64.149089372038773
30
0
0
SPLINE
5
116
100
AcDbEntity
8
0
100
AcDbSpline
70
0
71
3
72
18
73
14
74
0
42
0.000000001
43
0.0000000001
44
0.0000000001
40
-319.55753481246524
40
-319.55753481246524
40
-319.55753481246524
40
-319.55753481246524
40
-317.52371974875655
40
-317.52371974875655
40
-284.77295281345795
40
-284.77295281345795
40
-252.60245117723588
40
-252.60245117723588
40
-220.76056799596648
40
-220.76056799596648
40
-189.07979832722555
40
-189.07979832722555
40
-183.81691422198969
40
-183.81691422198969
40
-183.81691422198969
40
-183.81691422198969
10
-448.96832659457652
20
-64.149089372038773
30
0
10
-449.05136860671865
20
-65.155385508576387
30
0
10
-449.08762782876045
20
-65.763130370633988
30
0
10
-449.6715841165734
20
-76.497073111114119
30
0
10
-448.30948425083221
20
-86.716580451172277
30
0
10
-441.69501818866678
20
-106.08252001544982
30
0
10
-436.57351018167424
20
-115.05613261695423
30
0
10
-423.05414073172665
20
-130.57756452940012
30
0
10
-414.82277594935306
20
-136.99329675740381
30
0
10
-396.17435773662402
20
-146.29559188087302
30
0
10
-385.95494833129976
20
-149.10443435153095
30
0
10
-373.61694801536055
20
-149.93747804535036
30
0
10
-372.65726156297364
20
-150
30
0
10
-370
20
-150
30
0
0
LINE
5
117
100
AcDbEntity
8
0
100
AcDbLine
10
-370
20
-150
30
0
11
-18.694759951119977
21
-150
31
0
0
LINE
5
118
100
AcDbEntity
8
0
100
AcDbLine
10
-18.694759951119977
20
-150
30
0
11
-18.694759951120123
21
-133.11221233028988
31
0
0
LINE
5
119
100
AcDbEntity
8
0
100
AcDbLine
10
-18.694759951120123
20
-133.11221233028988
30
0
11
-6.4442341947436539
21
-133.11221233028988
31
0
0
LINE
5
120
100
AcDbEntity
8
0
100
AcDbLine
10
-6.4442341947436539
20
-133.11221233028988
30
0
11
-6.4442341947436566
21
-139.96048102527584
31
0
0
LINE
5
121
100
AcDbEntity
8
0
100
AcDbLine
10
-6.4442341947436566
20
-139.96048102527584
30
0
11
18.679724525151169
21
-139.96048102527584
31
0
0
CIRCLE
5
122
100
AcDbEntity
8
0
100
AcDbCircle
10
70.000000000000114
20
134.00000000000003
30
0
40
1.4499999999999957
210
0
220
-0
230
1
0
CIRCLE
5
123
100
AcDbEntity
8
0
100
AcDbCircle
10
-349.99999999999994
20
126.01550156722337
30
0
40
1.4500000000000313
210
0
220
-0
230
1
0
CIRCLE
5
124
100
AcDbEntity
8
0
100
AcDbCircle
10
-280
20
-133.9999999999998
30
0
40
1.4499999999999957
210
0
220
-0
230
1
0
CIRCLE
5
125
100
AcDbEntity
8
0
100
AcDbCircle
10
-140
20
-133.99999999999991
30
0
40
1.4499999999999957
210
0
220
-0
230
1
0
CIRCLE
5
126
100
AcDbEntity
8
0
100
AcDbCircle
10
210.00000000000011
20
134.00000000000003
30
0
40
1.4499999999999957
210
0
220
-0
230
1
0
CIRCLE
5
127
100
AcDbEntity
8
0
100
AcDbCircle
10
-69.999999999999886
20
134.00000000000009
30
0
40
1.4499999999999957
210
0
220
-0
230
1
0
CIRCLE
5
128
100
AcDbEntity
8
0
100
AcDbCircle
10
140
20
-134.00000000000003
30
0
40
1.4499999999999957
210
0
220
-0
230
1
0
CIRCLE
5
129
100
AcDbEntity
8
0
100
AcDbCircle
10
0
20
-134.00000000000003
30
0
40
1.45
210
0
220
-0
230
1
0
CIRCLE
5
130
100
AcDbEntity
8
0
100
AcDbCircle
10
280
20
-134.00000000000003
30
0
40
1.4499999999999957
210
0
220
-0
230
1
0
CIRCLE
5
131
100
AcDbEntity
8
0
100
AcDbCircle
10
-209.99999999999989
20
134.0000000000002
30
0
40
1.4499999999999957
210
0
220
-0
230
1
0
CIRCLE
5
132
100
AcDbEntity
8
0
100
AcDbCircle
10
-392.95617714411992
20
-122.65248499466861
30
0
40
5.0625000000000142
210
0
220
-0
230
1
0
CIRCLE
5
133
100
AcDbEntity
8
0
100
AcDbCircle
10
262.83736377897952
20
137.58514173561184
30
0
40
5.0625000000000142
210
0
220
-0
230
1
0
CIRCLE
5
134
100
AcDbEntity
8
0
100
AcDbCircle
10
-299.27063152121883
20
136.09806958286759
30
0
40
5.0625000000000142
210
0
220
-0
230
1
0
CIRCLE
5
135
100
AcDbEntity
8
0
100
AcDbCircle
10
-344.62633217992482
20
-130.83138183476314
30
0
40
5.0625000000000142
210
0
220
-0
230
1
0
CIRCLE
5
136
100
AcDbEntity
8
0
100
AcDbCircle
10
344.62633217992482
20
-130.83138183476331
30
0
40
5.0625000000000142
210
0
220
-0
230
1
0
CIRCLE
5
137
100
AcDbEntity
8
0
100
AcDbCircle
10
-262.83736377897935
20
137.58514173561201
30
0
40
5.0625000000000142
210
0
220
-0
230
1
0
ENDSEC
0
SECTION
2
OBJECTS
0
DICTIONARY
5
C
100
AcDbDictionary
3
ACAD_GROUP
350
D
3
ACAD_MLINESTYLE
350
17
0
DICTIONARY
5
D
100
AcDbDictionary
0
DICTIONARY
5
1A
330
C
100
AcDbDictionary
0
DICTIONARY
5
17
100
AcDbDictionary
0
ENDSEC
0
EOF
