0
SECTION
2
HEADER
9
$INSUNITS
70
4
9
$ACADVER
1
AC1014
9
$HANDSEED
5
FFFF
0
ENDSEC
0
SECTION
2
TABLES
0
TABLE
2
VPORT
5
8
100
AcDbSymbolTable
0
ENDTAB
0
TABLE
2
LTYPE
5
5
100
AcDbSymbolTable
0
LTYPE
5
14
100
AcDbSymbolTableRecord
100
AcDbLinetypeTableRecord
2
BYBLOCK
70
0
0
LTYPE
5
15
100
AcDbSymbolTableRecord
100
AcDbLinetypeTableRecord
2
BYLAYER
70
0
0
LTYPE
5
16
100
AcDbSymbolTableRecord
100
AcDbLinetypeTableRecord
2
DASHED
70
0
3
Dashed __ __ __ __ __ __ __ __ __ __ __ __ __ _
72
65
73
2
40
0.75
49
0.5
74
0
49
-0.25
74
0
0
ENDTAB
0
TABLE
2
LAYER
5
2
100
AcDbSymbolTable
70
2
0
LAYER
5
50
100
AcDbSymbolTableRecord
100
AcDbLayerTableRecord
2
0
70
0
62
7
6
CONTINUOUS
0
ENDTAB
0
TABLE
2
STYLE
5
3
100
AcDbSymbolTable
70
1
0
STYLE
5
11
100
AcDbSymbolTableRecord
100
AcDbTextStyleTableRecord
2
STANDARD
70
0
0
ENDTAB
0
TABLE
2
VIEW
5
6
100
AcDbSymbolTable
70
0
0
ENDTAB
0
TABLE
2
UCS
5
7
100
AcDbSymbolTable
70
0
0
ENDTAB
0
TABLE
2
APPID
5
9
100
AcDbSymbolTable
70
2
0
APPID
5
12
100
AcDbSymbolTableRecord
100
AcDbRegAppTableRecord
2
ACAD
70
0
0
ENDTAB
0
TABLE
2
DIMSTYLE
5
A
100
AcDbSymbolTable
70
1
0
ENDTAB
0
TABLE
2
BLOCK_RECORD
5
1
100
AcDbSymbolTable
70
1
0
BLOCK_RECORD
5
1F
100
AcDbSymbolTableRecord
100
AcDbBlockTableRecord
2
*MODEL_SPACE
0
BLOCK_RECORD
5
1B
100
AcDbSymbolTableRecord
100
AcDbBlockTableRecord
2
*PAPER_SPACE
0
ENDTAB
0
ENDSEC
0
SECTION
2
BLOCKS
0
BLOCK
5
20
100
AcDbEntity
100
AcDbBlockBegin
2
*MODEL_SPACE
0
ENDBLK
5
21
100
AcDbEntity
100
AcDbBlockEnd
0
BLOCK
5
1C
100
AcDbEntity
100
AcDbBlockBegin
2
*PAPER_SPACE
0
ENDBLK
5
1D
100
AcDbEntity
100
AcDbBlockEnd
0
ENDSEC
0
SECTION
2
ENTITIES
0
LWPOLYLINE
5
100
100
AcDbEntity
8
0
100
AcDbPolyline
90
6
70
1
43
0.0
10
-23.979157616563743
20
124.99999999999997
10
23.979157616563693
20
124.99999999999997
42
-0.64828668764183295
10
24.999999999999993
20
15.456439426821422
10
25.000000000000004
20
19.000000000000004
10
-24.999999999999996
20
19.000000000000004
10
-24.999999999999993
20
15.456439426821371
42
-0.64828668764183328
0
LWPOLYLINE
5
101
100
AcDbEntity
8
0
100
AcDbPolyline
90
2
70
1
43
0.0
10
-163.97915761656392
20
124.99999999999986
42
4.7958315233126738
10
-116.02084238343633
20
124.99999999999993
0
LWPOLYLINE
5
102
100
AcDbEntity
8
0
100
AcDbPolyline
90
4
70
1
43
0.0
10
-339.95262783893673
20
72.383781702662688
42
1.8950746445887441
10
-256.02084238343656
20
124.99999999999997
10
-279.99999999999994
20
124.99999999999997
42
0.28753221471808255
10
-329.50356665787325
20
93.966578565775691
0
LWPOLYLINE
5
103
100
AcDbEntity
8
0
100
AcDbPolyline
90
4
70
1
43
0.0
10
-338.9092166721623
20
-109.15818167460603
42
0.8401764958035447
10
-385.94266919096157
20
-22.609797435888058
10
-401.50226969137384
20
-54.748540912688185
42
0.52924766933888223
10
-372.6082346972467
20
-104.90268058136226
0
LWPOLYLINE
5
104
100
AcDbEntity
8
0
100
AcDbPolyline
90
4
70
1
43
0.0
10
-186.02084238344679
20
-124.99999999999999
42
4.1406084791570104
10
-240.68088016565639
20
-121.56242422792135
10
-216.89065836949845
20
-124.56664573926879
42
0.031414023582169083
10
-210
20
-125
0
LWPOLYLINE
5
105
100
AcDbEntity
8
0
100
AcDbPolyline
90
5
70
1
43
0.0
10
-25.000000000000018
20
-30.313730334031121
42
1.2463519479801246
10
-93.979157616563626
20
-124.99999999999997
10
-46.020842383436374
20
-124.99999999999999
42
0.47142604608713401
10
-20.563171622766887
20
-36
10
-25.000000000000007
20
-36
0
LWPOLYLINE
5
106
100
AcDbEntity
8
0
100
AcDbPolyline
90
5
70
1
43
0.0
10
20.563171622766873
20
-35.999999999999964
42
0.47142604608713379
10
46.020842383436303
20
-125
10
93.979157616563612
20
-125
42
1.2463519479801255
10
24.999999999999982
20
-30.313730334031149
10
24.999999999999996
20
-36
0
LWPOLYLINE
5
107
100
AcDbEntity
8
0
100
AcDbPolyline
90
4
70
1
43
0.0
10
240.68087977743033
20
-121.56242445893545
42
4.1406085133090462
10
186.02084238342474
20
-124.99999999999999
10
210
20
-125
42
0.031414021697913012
10
216.89065795863254
20
-124.56664579115281
0
LWPOLYLINE
5
108
100
AcDbEntity
8
0
100
AcDbPolyline
90
4
70
1
43
0.0
10
385.9426691909614
20
-22.609797435887948
42
0.84017650685024448
10
338.90921768645296
20
-109.15818247993174
10
372.60825780463233
20
-104.90267885456036
42
0.52924745746522128
10
401.50226969137395
20
-54.748540912688206
0
LWPOLYLINE
5
109
100
AcDbEntity
8
0
100
AcDbPolyline
90
4
70
1
43
0.0
10
256.02084238343627
20
124.99999999999997
42
1.8950746445887381
10
339.95262783893673
20
72.383781702662716
10
329.50356665787325
20
93.966578565775649
42
0.28753221471808293
10
280
20
124.99999999999997
0
CIRCLE
5
110
100
AcDbEntity
8
0
100
AcDbCircle
10
-20.5
20
-31.999999999999993
30
0
40
1.6000000000000014
210
0
220
-0
230
1
0
CIRCLE
5
111
100
AcDbEntity
8
0
100
AcDbCircle
10
20.5
20
15
30
0
40
1.6000000000000014
210
0
220
-0
230
1
0
CIRCLE
5
112
100
AcDbEntity
8
0
100
AcDbCircle
10
-20.5
20
15
30
0
40
1.6000000000000014
210
0
220
-0
230
1
0
CIRCLE
5
113
100
AcDbEntity
8
0
100
AcDbCircle
10
20.5
20
-31.999999999999993
30
0
40
1.6000000000000014
210
0
220
-0
230
1
0
CIRCLE
5
114
100
AcDbEntity
8
0
100
AcDbCircle
10
-186
20
-8.5000000000000213
30
0
40
1.6000000000000014
210
0
220
-0
230
1
0
LWPOLYLINE
5
115
100
AcDbEntity
8
0
100
AcDbPolyline
90
2
70
1
43
0.0
10
116.02084238343645
20
125.00000000000001
42
4.7958315233127164
10
163.97915761656364
20
124.99999999999994
0
CIRCLE
5
116
100
AcDbEntity
8
0
100
AcDbCircle
10
262.83736377897952
20
137.58514173561184
30
0
40
5.0625000000000142
210
0
220
-0
230
1
0
CIRCLE
5
117
100
AcDbEntity
8
0
100
AcDbCircle
10
392.95617714411992
20
-122.65248499466878
30
0
40
5.0625000000000142
210
0
220
-0
230
1
0
CIRCLE
5
118
100
AcDbEntity
8
0
100
AcDbCircle
10
-344.62633217992482
20
-130.83138183476314
30
0
40
5.0625000000000142
210
0
220
-0
230
1
0
CIRCLE
5
119
100
AcDbEntity
8
0
100
AcDbCircle
10
299.27063152121895
20
136.09806958286748
30
0
40
5.0625000000000142
210
0
220
-0
230
1
0
CIRCLE
5
120
100
AcDbEntity
8
0
100
AcDbCircle
10
344.62633217992482
20
-130.83138183476331
30
0
40
5.0625000000000142
210
0
220
-0
230
1
0
CIRCLE
5
121
100
AcDbEntity
8
0
100
AcDbCircle
10
-262.83736377897935
20
137.58514173561201
30
0
40
5.0625000000000142
210
0
220
-0
230
1
0
CIRCLE
5
122
100
AcDbEntity
8
0
100
AcDbCircle
10
434
20
-70.000000000000014
30
0
40
1.4500000000000313
210
0
220
-0
230
1
0
CIRCLE
5
123
100
AcDbEntity
8
0
100
AcDbCircle
10
-209.99999999999989
20
134.0000000000002
30
0
40
1.4499999999999957
210
0
220
-0
230
1
0
CIRCLE
5
124
100
AcDbEntity
8
0
100
AcDbCircle
10
280
20
-134.00000000000003
30
0
40
1.4499999999999957
210
0
220
-0
230
1
0
CIRCLE
5
125
100
AcDbEntity
8
0
100
AcDbCircle
10
0
20
-134.00000000000003
30
0
40
1.45
210
0
220
-0
230
1
0
CIRCLE
5
126
100
AcDbEntity
8
0
100
AcDbCircle
10
140
20
-134.00000000000003
30
0
40
1.4499999999999957
210
0
220
-0
230
1
0
CIRCLE
5
127
100
AcDbEntity
8
0
100
AcDbCircle
10
-69.999999999999886
20
134.00000000000009
30
0
40
1.4499999999999957
210
0
220
-0
230
1
0
CIRCLE
5
128
100
AcDbEntity
8
0
100
AcDbCircle
10
350.00000000000006
20
126.01550156722308
30
0
40
1.4500000000000313
210
0
220
-0
230
1
0
CIRCLE
5
129
100
AcDbEntity
8
0
100
AcDbCircle
10
210.00000000000011
20
134.00000000000003
30
0
40
1.4499999999999957
210
0
220
-0
230
1
0
CIRCLE
5
130
100
AcDbEntity
8
0
100
AcDbCircle
10
-140
20
-133.99999999999991
30
0
40
1.4499999999999957
210
0
220
-0
230
1
0
CIRCLE
5
131
100
AcDbEntity
8
0
100
AcDbCircle
10
-280
20
-133.9999999999998
30
0
40
1.4499999999999957
210
0
220
-0
230
1
0
CIRCLE
5
132
100
AcDbEntity
8
0
100
AcDbCircle
10
70.000000000000114
20
134.00000000000003
30
0
40
1.4499999999999957
210
0
220
-0
230
1
0
CIRCLE
5
133
100
AcDbEntity
8
0
100
AcDbCircle
10
-349.99999999999994
20
126.01550156722337
30
0
40
1.4500000000000313
210
0
220
-0
230
1
0
LINE
5
134
100
AcDbEntity
8
0
100
AcDbLine
10
-370
20
-150
30
0
11
370
21
-150
31
0
0
SPLINE
5
135
100
AcDbEntity
8
0
100
AcDbSpline
70
0
71
3
72
21
73
17
74
0
42
0.000000001
43
0.0000000001
44
0.0000000001
40
-13.210477871915909
40
-13.210477871915909
40
-13.210477871915909
40
-13.210477871915909
40
-12.315621627068049
40
-12.315621627068049
40
-10.352086573249522
40
-10.352086573249522
40
-6.7062088841874168
40
-6.7062088841874168
40
-3.262931201511901
40
-3.262931201511901
40
0
40
0
40
0
40
1.7049192323815987
40
1.7049192323815987
40
4.0031133034707409
40
4.0031133034707409
40
4.0031133034707409
40
4.0031133034707409
10
369.99999999999994
20
-150
30
0
10
372.98885198317737
20
-150
30
0
10
374.36464699265912
20
-149.9119226746385
30
0
10
381.47439157973008
20
-149.32292588316162
30
0
10
386.48618227356997
20
-148.45632232168438
30
0
10
400.97592297261491
20
-144.38661171546448
30
0
10
410.17597924582208
20
-139.93335153707181
30
0
10
426.38246722276625
20
-127.46735258716122
30
0
10
433.34184848455072
20
-119.76566223163765
30
0
10
443.79169195332349
20
-101.78980705882374
30
0
10
447.34580668295672
20
-91.827526590138319
30
0
10
448.7661478574114
20
-81.044228387653945
30
0
10
449.50829252284268
20
-75.40983055376681
30
0
10
449.65015400323557
20
-69.660444882350987
30
0
10
448.49305632999068
20
-56.118427263795134
30
0
10
446.76091349008402
20
-50.021312836812932
30
0
10
446.07357239230021
20
-47.732122492406745
30
0
0
SPLINE
5
136
100
AcDbEntity
8
0
100
AcDbSpline
70
0
71
3
72
10
73
6
74
0
42
0.000000001
43
0.0000000001
44
0.0000000001
40
-687.30967955038716
40
-687.30967955038716
40
-687.30967955038716
40
-687.30967955038716
40
-687.26380972080221
40
-687.26380972080221
40
-683.93692469862469
40
-683.93692469862469
40
-683.93692469862469
40
-683.93692469862469
10
446.07357239230021
20
-47.732122492406745
30
0
10
446.05985369925395
20
-47.68643236888483
30
0
10
446.04658723678006
20
-47.642248343790726
30
0
10
445.10481881330867
20
-44.505679946418667
30
0
10
444.14922995901998
20
-41.322842908252667
30
0
10
443.1433826907122
20
-37.971698926576366
30
0
0
SPLINE
5
137
100
AcDbEntity
8
0
100
AcDbSpline
70
0
71
3
72
14
73
10
74
0
42
0.000000001
43
0.0000000001
44
0.0000000001
40
-683.93692469862469
40
-683.93692469862469
40
-683.93692469862469
40
-683.93692469862469
40
-683.64658206129718
40
-683.64658206129718
40
-669.96225146387292
40
-669.96225146387292
40
-647.6651391354726
40
-647.6651391354726
40
-646.97137017869136
40
-646.97137017869136
40
-646.97137017869136
40
-646.97137017869136
10
443.1433826907122
20
-37.971698926576366
30
0
10
443.0556007725869
20
-37.67923917061303
30
0
10
442.96743613167325
20
-37.385497513894364
30
0
10
438.7047504391229
20
-23.182983645168616
30
0
10
434.39356107515459
20
-8.8048302107692038
30
0
10
422.51930616775445
20
30.977504384054377
30
0
10
413.32429702439117
20
61.937630297478904
30
0
10
405.08110841257229
20
90.605196283504483
30
0
10
404.84191449282105
20
91.438035255762458
30
0
10
404.6038568956555
20
92.267877507593198
30
0
0
SPLINE
5
138
100
AcDbEntity
8
0
100
AcDbSpline
70
0
71
3
72
14
73
10
74
0
42
0.000000001
43
0.0000000001
44
0.0000000001
40
-646.97137017869136
40
-646.97137017869136
40
-646.97137017869136
40
-646.97137017869136
40
-644.52120365060784
40
-644.52120365060784
40
-639.02242066569431
40
-639.02242066569431
40
-633.9327809674329
40
-633.9327809674329
40
-626.97137893434729
40
-626.97137893434729
40
-626.97137893434729
40
-626.97137893434729
10
404.6038568956555
20
92.267877507593198
30
0
10
403.76311481483754
20
95.198610699315168
30
0
10
402.82941897282996
20
98.061009966777547
30
0
10
397.25226719747008
20
111.00233534080954
30
0
10
391.65657409300923
20
119.56146590504221
30
0
10
377.2096174580941
20
133.96053951972678
30
0
10
368.7533150945585
20
139.82178260626478
30
0
10
345.46786920459277
20
149.53870533527248
30
0
10
333.95948426214687
20
150
30
0
10
328.53028450335546
20
150.00000000000003
30
0
0
LINE
5
139
100
AcDbEntity
8
0
100
AcDbLine
10
328.53028450335535
20
150
30
0
11
-279.99999999999716
21
150.00000000000003
31
0
0
LINE
5
140
100
AcDbEntity
8
0
100
AcDbLine
10
-279.99999999999716
20
150.00000000000003
30
0
11
-328.53028450335523
21
150.00000000000003
31
0
0
SPLINE
5
141
100
AcDbEntity
8
0
100
AcDbSpline
70
0
71
3
72
16
73
12
74
0
42
0.000000001
43
0.0000000001
44
0.0000000001
40
-351.84886840654389
40
-351.84886840654389
40
-351.84886840654389
40
-351.84886840654389
40
-344.84133504674196
40
-344.84133504674196
40
-274.72156517673614
40
-274.72156517673614
40
-208.26994143814204
40
-208.26994143814204
40
-145.21732356451383
40
-145.21732356451383
40
-135.16737584039501
40
-135.16737584039501
40
-135.16737584039501
40
-135.16737584039501
10
-328.53028450335523
20
150.00000000000003
30
0
10
-330.25850643822167
20
150.00000000000003
30
0
10
-330.89918070918571
20
149.97069763110306
30
0
10
-341.66347255552012
20
149.51634113796518
30
0
10
-351.65662828558663
20
147.28275699701231
30
0
10
-370.35748616390742
20
138.75533611931439
30
0
10
-378.9203050393852
20
132.75591385591778
30
0
10
-393.21813404718159
20
117.37085347068336
30
0
10
-398.92389514124272
20
108.32588728756213
30
0
10
-403.34176804394576
20
96.334399180827162
30
0
10
-403.81303778537313
20
95.024584788020093
30
0
10
-404.60385689565533
20
92.267877507593255
30
0
0
SPLINE
5
142
100
AcDbEntity
8
0
100
AcDbSpline
70
0
71
3
72
10
73
6
74
0
42
0.000000001
43
0.0000000001
44
0.0000000001
40
-135.16737584039501
40
-135.16737584039501
40
-135.16737584039501
40
-135.16737584039501
40
-112.35187113565851
40
-112.35187113565851
40
-100.30595495394968
40
-100.30595495394968
40
-100.30595495394968
40
-100.30595495394968
10
-404.60385689565533
20
92.267877507593255
30
0
10
-406.39918336167636
20
86.009569538964058
30
0
10
-410.248207764418
20
72.412997983067527
30
0
10
-429.06429210631126
20
8.9859274668580564
30
0
10
-435.95526448136263
20
-14.023312490765271
30
0
10
-443.14338269071214
20
-37.971698926576266
30
0
0
SPLINE
5
143
100
AcDbEntity
8
0
100
AcDbSpline
70
0
71
3
72
10
73
6
74
0
42
0.000000001
43
0.0000000001
44
0.0000000001
40
-100.30595495394968
40
-100.30595495394968
40
-100.30595495394968
40
-100.30595495394968
40
-99.76078087576424
40
-99.76078087576424
40
-98.192018936007443
40
-98.192018936007443
40
-98.192018936007443
40
-98.192018936007443
10
-443.14338269071214
20
-37.971698926576266
30
0
10
-443.46870254679919
20
-39.055555007112261
30
0
10
-443.7946281056561
20
-40.141335610366809
30
0
10
-445.060728746542
20
-44.358905526584564
30
0
10
-445.64614184826951
20
-46.308564556682995
30
0
10
-446.07357239230021
20
-47.732122492406774
30
0
0
SPLINE
5
144
100
AcDbEntity
8
0
100
AcDbSpline
70
0
71
3
72
20
73
16
74
0
42
0.000000001
43
0.0000000001
44
0.0000000001
40
-98.192018936007443
40
-98.192018936007443
40
-98.192018936007443
40
-98.192018936007443
40
-96.078655568244159
40
-96.078655568244159
40
-89.908006431749669
40
-89.908006431749669
40
-78.45071619434529
40
-78.45071619434529
40
-67.624564008493877
40
-67.624564008493877
40
-57.357507653348961
40
-57.357507653348961
40
-47.790389142602436
40
-47.790389142602436
40
-46.728648390612705
40
-46.728648390612705
40
-46.728648390612705
40
-46.728648390612705
10
-446.07357239230021
20
-47.732122492406774
30
0
10
-446.64938700835188
20
-49.649873756638613
30
0
10
-446.90127866113011
20
-50.623934212301421
30
0
10
-448.42302014208116
20
-57.034283785959047
30
0
10
-449.15653291708213
20
-62.074067021924222
30
0
10
-449.78609200795995
20
-77.132265492515884
30
0
10
-448.40379437638376
20
-87.272013043338461
30
0
10
-441.55944286014284
20
-106.57304393416405
30
0
10
-436.37824636767277
20
-115.58992820617573
30
0
10
-422.47978227921817
20
-131.11683902280137
30
0
10
-414.077233220003
20
-137.58927121098327
30
0
10
-395.0561057761177
20
-146.64317829734264
30
0
10
-384.78798027027233
20
-149.37547991154241
30
0
10
-372.6654136398331
20
-149.96471758801866
30
0
10
-372.07637183580323
20
-150
30
0
10
-370
20
-150
30
0
0
CIRCLE
5
145
100
AcDbEntity
8
0
100
AcDbCircle
10
-392.95617714411992
20
-122.65248499466861
30
0
40
5.0625000000000142
210
0
220
-0
230
1
0
CIRCLE
5
146
100
AcDbEntity
8
0
100
AcDbCircle
10
-299.27063152121883
20
136.09806958286759
30
0
40
5.0625000000000142
210
0
220
-0
230
1
0
ENDSEC
0
SECTION
2
OBJECTS
0
DICTIONARY
5
C
100
AcDbDictionary
3
ACAD_GROUP
350
D
3
ACAD_MLINESTYLE
350
17
0
DICTIONARY
5
D
100
AcDbDictionary
0
DICTIONARY
5
1A
330
C
100
AcDbDictionary
0
DICTIONARY
5
17
100
AcDbDictionary
0
ENDSEC
0
EOF
