0
SECTION
2
HEADER
9
$INSUNITS
70
4
9
$ACADVER
1
AC1014
9
$HANDSEED
5
FFFF
0
ENDSEC
0
SECTION
2
TABLES
0
TABLE
2
VPORT
5
8
100
AcDbSymbolTable
0
ENDTAB
0
TABLE
2
LTYPE
5
5
100
AcDbSymbolTable
0
LTYPE
5
14
100
AcDbSymbolTableRecord
100
AcDbLinetypeTableRecord
2
BYBLOCK
70
0
0
LTYPE
5
15
100
AcDbSymbolTableRecord
100
AcDbLinetypeTableRecord
2
BYLAYER
70
0
0
LTYPE
5
16
100
AcDbSymbolTableRecord
100
AcDbLinetypeTableRecord
2
DASHED
70
0
3
Dashed __ __ __ __ __ __ __ __ __ __ __ __ __ _
72
65
73
2
40
0.75
49
0.5
74
0
49
-0.25
74
0
0
ENDTAB
0
TABLE
2
LAYER
5
2
100
AcDbSymbolTable
70
2
0
LAYER
5
50
100
AcDbSymbolTableRecord
100
AcDbLayerTableRecord
2
0
70
0
62
7
6
CONTINUOUS
0
ENDTAB
0
TABLE
2
STYLE
5
3
100
AcDbSymbolTable
70
1
0
STYLE
5
11
100
AcDbSymbolTableRecord
100
AcDbTextStyleTableRecord
2
STANDARD
70
0
0
ENDTAB
0
TABLE
2
VIEW
5
6
100
AcDbSymbolTable
70
0
0
ENDTAB
0
TABLE
2
UCS
5
7
100
AcDbSymbolTable
70
0
0
ENDTAB
0
TABLE
2
APPID
5
9
100
AcDbSymbolTable
70
2
0
APPID
5
12
100
AcDbSymbolTableRecord
100
AcDbRegAppTableRecord
2
ACAD
70
0
0
ENDTAB
0
TABLE
2
DIMSTYLE
5
A
100
AcDbSymbolTable
70
1
0
ENDTAB
0
TABLE
2
BLOCK_RECORD
5
1
100
AcDbSymbolTable
70
1
0
BLOCK_RECORD
5
1F
100
AcDbSymbolTableRecord
100
AcDbBlockTableRecord
2
*MODEL_SPACE
0
BLOCK_RECORD
5
1B
100
AcDbSymbolTableRecord
100
AcDbBlockTableRecord
2
*PAPER_SPACE
0
ENDTAB
0
ENDSEC
0
SECTION
2
BLOCKS
0
BLOCK
5
20
100
AcDbEntity
100
AcDbBlockBegin
2
*MODEL_SPACE
0
ENDBLK
5
21
100
AcDbEntity
100
AcDbBlockEnd
0
BLOCK
5
1C
100
AcDbEntity
100
AcDbBlockBegin
2
*PAPER_SPACE
0
ENDBLK
5
1D
100
AcDbEntity
100
AcDbBlockEnd
0
ENDSEC
0
SECTION
2
ENTITIES
0
CIRCLE
5
100
100
AcDbEntity
8
0
100
AcDbCircle
10
-349.99999999999994
20
126.01550156722337
30
0
40
1.4500000000000313
210
0
220
-0
230
1
0
LINE
5
101
100
AcDbEntity
8
0
100
AcDbLine
10
-279.99999999999994
20
124.99999999999997
30
0
11
-279.99999999999989
21
150.00000000000003
31
0
0
LINE
5
102
100
AcDbEntity
8
0
100
AcDbLine
10
-279.99999999999989
20
150.00000000000003
30
0
11
-362.50083970153412
21
150.00000000000003
31
0
0
SPLINE
5
103
100
AcDbEntity
8
0
100
AcDbSpline
70
0
71
3
72
18
73
14
74
0
42
0.000000001
43
0.0000000001
44
0.0000000001
40
-198.11692342433741
40
-198.11692342433741
40
-198.11692342433741
40
-198.11692342433741
40
-197.44294031876396
40
-197.44294031876396
40
-193.52754086777523
40
-193.52754086777523
40
-186.6600693157865
40
-186.6600693157865
40
-180.4794471198299
40
-180.4794471198299
40
-175.09549571330442
40
-175.09549571330442
40
-173.3024076891428
40
-173.3024076891428
40
-173.3024076891428
40
-173.3024076891428
10
-362.50083970153412
20
150.00000000000003
30
0
10
-363.76857849229293
20
150.00000000000003
30
0
10
-364.52083055071631
20
149.97851660830551
30
0
10
-370.04591693064151
20
149.78189374059315
30
0
10
-375.05436267459436
20
149.19054667211378
30
0
10
-389.59956691709516
20
145.84124543902348
30
0
10
-399.05962119839813
20
141.93076975559157
30
0
10
-416.05790319004836
20
130.02496196647118
30
0
10
-423.56685159902975
20
122.5553410396185
30
0
10
-434.83406707098641
20
104.67029876637937
30
0
10
-438.86874882032026
20
94.872949330601728
30
0
10
-441.37892208947005
20
80.001801159874873
30
0
10
-441.6267487139458
20
77.546421163216223
30
0
10
-441.79080565191907
20
74.026803196891166
30
0
0
SPLINE
5
104
100
AcDbEntity
8
0
100
AcDbSpline
70
0
71
3
72
14
73
10
74
0
42
0.000000001
43
0.0000000001
44
0.0000000001
40
-173.3024076891428
40
-173.3024076891428
40
-173.3024076891428
40
-173.3024076891428
40
-172.5673726428528
40
-172.5673726428528
40
-168.47003646313081
40
-168.47003646313081
40
-161.24677688477493
40
-161.24677688477493
40
-156.00139340990802
40
-156.00139340990802
40
-156.00139340990802
40
-156.00139340990802
10
-441.79080565191907
20
74.026803196891166
30
0
10
-441.85805700677315
20
72.58401705368972
30
0
10
-441.93405568180566
20
70.963521568484111
30
0
10
-442.54466276076175
20
58.08519811412377
30
0
10
-443.13066157558006
20
46.317408340372246
30
0
10
-444.91574561536027
20
11.880019446509165
30
0
10
-446.2236511084256
20
-11.891450420458373
30
0
10
-448.68432589912629
20
-55.438282700294714
30
0
10
-449.09329947743265
20
-62.528148712932804
30
0
10
-449.28996595038507
20
-65.973196803109005
30
0
0
SPLINE
5
105
100
AcDbEntity
8
0
100
AcDbSpline
70
0
71
3
72
18
73
14
74
0
42
0.000000001
43
0.0000000001
44
0.0000000001
40
-156.00139340990802
40
-156.00139340990802
40
-156.00139340990802
40
-156.00139340990802
40
-153.69816469773738
40
-153.69816469773738
40
-124.21167121820706
40
-124.21167121820706
40
-98.359771017497636
40
-98.359771017497636
40
-75.552553246339841
40
-75.552553246339841
40
-55.357335151832643
40
-55.357335151832643
40
-54.237490837048227
40
-54.237490837048227
40
-54.237490837048227
40
-54.237490837048227
10
-449.28996595038507
20
-65.973196803109005
30
0
10
-449.3763214798513
20
-67.485904828007747
30
0
10
-449.39239229515397
20
-68.297450301856571
30
0
10
-449.58582741228332
20
-78.659539841881156
30
0
10
-448.06671181078792
20
-88.87067108225196
30
0
10
-440.68523254168201
20
-108.10580310977036
30
0
10
-435.41823852086105
20
-117.00100001211362
30
0
10
-421.24755054561194
20
-132.0767200747288
30
0
10
-412.9296281925092
20
-138.350851233962
30
0
10
-393.90391703588375
20
-146.96556073094231
30
0
10
-383.69945753097625
20
-149.6098625816372
30
0
10
-371.88060286431596
20
-149.9802733181146
30
0
10
-371.44411238770857
20
-150
30
0
10
-369.99999999999977
20
-150
30
0
0
LINE
5
106
100
AcDbEntity
8
0
100
AcDbLine
10
-369.99999999999977
20
-150
30
0
11
-370
21
-105.23204761506405
31
0
0
LINE
5
107
100
AcDbEntity
8
0
100
AcDbLine
10
-370
20
-105.23204761506405
30
0
11
-372.6082346972467
21
-104.90268058136226
31
0
0
ARC
5
108
100
AcDbEntity
8
0
100
AcDbCircle
10
-370
20
-70.000000000000014
30
0
40
34.999999999999972
210
0
220
0
230
1
100
AcDbArc
50
154.16659256909801
51
265.72629988995493
0
LINE
5
109
100
AcDbEntity
8
0
100
AcDbLine
10
-401.50226969137384
20
-54.748540912688199
30
0
11
-329.50356665787325
21
93.966578565775691
31
0
0
ARC
5
110
100
AcDbEntity
8
0
100
AcDbCircle
10
-280
20
69.999999999999943
30
0
40
55.000000000000028
210
0
220
-0
230
1
100
AcDbArc
50
89.999999999999943
51
154.16659256909804
0
CIRCLE
5
111
100
AcDbEntity
8
0
100
AcDbCircle
10
-392.95617714411992
20
-122.65248499466861
30
0
40
5.0625000000000142
210
0
220
-0
230
1
0
CIRCLE
5
112
100
AcDbEntity
8
0
100
AcDbCircle
10
-299.27063152121883
20
136.09806958286759
30
0
40
5.0625000000000142
210
0
220
-0
230
1
0
ENDSEC
0
SECTION
2
OBJECTS
0
DICTIONARY
5
C
100
AcDbDictionary
3
ACAD_GROUP
350
D
3
ACAD_MLINESTYLE
350
17
0
DICTIONARY
5
D
100
AcDbDictionary
0
DICTIONARY
5
1A
330
C
100
AcDbDictionary
0
DICTIONARY
5
17
100
AcDbDictionary
0
ENDSEC
0
EOF
