0
SECTION
2
HEADER
9
$INSUNITS
70
4
9
$ACADVER
1
AC1014
9
$HANDSEED
5
FFFF
0
ENDSEC
0
SECTION
2
TABLES
0
TABLE
2
VPORT
5
8
100
AcDbSymbolTable
0
ENDTAB
0
TABLE
2
LTYPE
5
5
100
AcDbSymbolTable
0
LTYPE
5
14
100
AcDbSymbolTableRecord
100
AcDbLinetypeTableRecord
2
BYBLOCK
70
0
0
LTYPE
5
15
100
AcDbSymbolTableRecord
100
AcDbLinetypeTableRecord
2
BYLAYER
70
0
0
LTYPE
5
16
100
AcDbSymbolTableRecord
100
AcDbLinetypeTableRecord
2
DASHED
70
0
3
Dashed __ __ __ __ __ __ __ __ __ __ __ __ __ _
72
65
73
2
40
0.75
49
0.5
74
0
49
-0.25
74
0
0
ENDTAB
0
TABLE
2
LAYER
5
2
100
AcDbSymbolTable
70
2
0
LAYER
5
50
100
AcDbSymbolTableRecord
100
AcDbLayerTableRecord
2
0
70
0
62
7
6
CONTINUOUS
0
ENDTAB
0
TABLE
2
STYLE
5
3
100
AcDbSymbolTable
70
1
0
STYLE
5
11
100
AcDbSymbolTableRecord
100
AcDbTextStyleTableRecord
2
STANDARD
70
0
0
ENDTAB
0
TABLE
2
VIEW
5
6
100
AcDbSymbolTable
70
0
0
ENDTAB
0
TABLE
2
UCS
5
7
100
AcDbSymbolTable
70
0
0
ENDTAB
0
TABLE
2
APPID
5
9
100
AcDbSymbolTable
70
2
0
APPID
5
12
100
AcDbSymbolTableRecord
100
AcDbRegAppTableRecord
2
ACAD
70
0
0
ENDTAB
0
TABLE
2
DIMSTYLE
5
A
100
AcDbSymbolTable
70
1
0
ENDTAB
0
TABLE
2
BLOCK_RECORD
5
1
100
AcDbSymbolTable
70
1
0
BLOCK_RECORD
5
1F
100
AcDbSymbolTableRecord
100
AcDbBlockTableRecord
2
*MODEL_SPACE
0
BLOCK_RECORD
5
1B
100
AcDbSymbolTableRecord
100
AcDbBlockTableRecord
2
*PAPER_SPACE
0
ENDTAB
0
ENDSEC
0
SECTION
2
BLOCKS
0
BLOCK
5
20
100
AcDbEntity
100
AcDbBlockBegin
2
*MODEL_SPACE
0
ENDBLK
5
21
100
AcDbEntity
100
AcDbBlockEnd
0
BLOCK
5
1C
100
AcDbEntity
100
AcDbBlockBegin
2
*PAPER_SPACE
0
ENDBLK
5
1D
100
AcDbEntity
100
AcDbBlockEnd
0
ENDSEC
0
SECTION
2
ENTITIES
0
LINE
5
100
100
AcDbEntity
8
0
100
AcDbLine
10
29.999999999999986
20
-125
30
0
11
29.999999999999986
21
-150
31
0
0
LINE
5
101
100
AcDbEntity
8
0
100
AcDbLine
10
29.999999999999986
20
-150
30
0
11
370
21
-150
31
0
0
SPLINE
5
102
100
AcDbEntity
8
0
100
AcDbSpline
70
0
71
3
72
19
73
15
74
0
42
0.000000001
43
0.0000000001
44
0.0000000001
40
-12.201529042501152
40
-12.201529042501152
40
-12.201529042501152
40
-12.201529042501152
40
-11.402280463688221
40
-11.402280463688221
40
-7.1066586496854773
40
-7.1066586496854773
40
-3.3334401655612615
40
-3.3334401655612615
40
0
40
0
40
0
40
1.5694309975717715
40
1.5694309975717715
40
3.1619935150248466
40
3.1619935150248466
40
3.1619935150248466
40
3.1619935150248466
10
369.99999999999994
20
-150
30
0
10
372.32005379884004
20
-150
30
0
10
373.49949222215798
20
-149.94333278080128
30
0
10
384.871981806424
20
-149.18904378154284
30
0
10
394.91556590791271
20
-146.80218203033232
30
0
10
413.45818198731826
20
-137.79250509403818
30
0
10
421.88077043938569
20
-131.76712972246125
30
0
10
435.70423425493885
20
-116.30776171793656
30
0
10
441.24622777221464
20
-107.44785246786378
30
0
10
444.9256057451459
20
-96.963250354242973
30
0
10
446.65790917814576
20
-92.026950694713094
30
0
10
448.03833798289565
20
-86.562589407415373
30
0
10
449.57048466939142
20
-74.347538283380061
30
0
10
449.50641115430824
20
-69.764713095735914
30
0
10
449.28996595038819
20
-65.973196803164157
30
0
0
SPLINE
5
103
100
AcDbEntity
8
0
100
AcDbSpline
70
0
71
3
72
14
73
10
74
0
42
0.000000001
43
0.0000000001
44
0.0000000001
40
-357.05960841848776
40
-357.05960841848776
40
-357.05960841848776
40
-357.05960841848776
40
-356.73276072059537
40
-356.73276072059537
40
-351.68045876313397
40
-351.68045876313397
40
-342.75294393171464
40
-342.75294393171464
40
-336.10875068166939
40
-336.10875068166939
40
-336.10875068166939
40
-336.10875068166939
10
449.28996595038819
20
-65.973196803164157
30
0
10
449.24554407316464
20
-65.195049409785554
30
0
10
449.20300345197342
20
-64.449773112005403
30
0
10
448.52788324083173
20
-52.620553731358569
30
0
10
447.89998491889099
20
-41.603737678365661
30
0
10
445.95038708536998
20
-6.9166682263380697
30
0
10
444.60453307925974
20
17.469859055390017
30
0
10
442.31482676482557
20
62.522324414586365
30
0
10
441.96012582599707
20
70.39426967464027
30
0
10
441.79080565191919
20
74.026803196890953
30
0
0
SPLINE
5
104
100
AcDbEntity
8
0
100
AcDbSpline
70
0
71
3
72
20
73
16
74
0
42
0.000000001
43
0.0000000001
44
0.0000000001
40
-336.10875068166939
40
-336.10875068166939
40
-336.10875068166939
40
-336.10875068166939
40
-335.27411840939601
40
-335.27411840939601
40
-329.43783405076414
40
-329.43783405076414
40
-319.30490195381253
40
-319.30490195381253
40
-301.71000306336322
40
-301.71000306336322
40
-285.94750067936423
40
-285.94750067936423
40
-272.02955225685406
40
-272.02955225685406
40
-269.83370301208441
40
-269.83370301208441
40
-269.83370301208441
40
-269.83370301208441
10
441.79080565191919
20
74.026803196890953
30
0
10
441.769535939207
20
74.483115888844125
30
0
10
441.74767298206189
20
74.872364132919785
30
0
10
441.58301102521466
20
77.561090179807664
30
0
10
441.32854611823359
20
80.063442445513999
30
0
10
440.18524984700855
20
87.384447850315382
30
0
10
439.012197474662
20
92.271249429574453
30
0
10
434.03624546722506
20
106.19134793237924
30
0
10
429.14676237321407
20
115.0213387689969
30
0
10
415.65149171144765
20
130.36008595091394
30
0
10
407.5708918743149
20
136.90487236185692
30
0
10
388.83983255814212
20
146.14827137793714
30
0
10
378.71919507891988
20
149.13891581054676
30
0
10
365.71267572846466
20
149.9550262318279
30
0
10
364.85499701078305
20
150.00000000000003
30
0
10
362.50083970153406
20
150.00000000000003
30
0
0
LINE
5
105
100
AcDbEntity
8
0
100
AcDbLine
10
362.50083970153406
20
150.00000000000003
30
0
11
-279.99999999999977
21
150.00000000000003
31
0
0
LINE
5
106
100
AcDbEntity
8
0
100
AcDbLine
10
-279.99999999999977
20
150.00000000000003
30
0
11
-279.99999999999994
21
124.99999999999997
31
0
0
LINE
5
107
100
AcDbEntity
8
0
100
AcDbLine
10
-279.99999999999994
20
124.99999999999997
30
0
11
280.00000000000006
21
124.99999999999997
31
0
0
ARC
5
108
100
AcDbEntity
8
0
100
AcDbCircle
10
279.99999999999994
20
69.999999999999986
30
0
40
55.000000000000007
210
0
220
-0
230
1
100
AcDbArc
50
25.833407430901875
51
89.999999999999901
0
LINE
5
109
100
AcDbEntity
8
0
100
AcDbLine
10
329.50356665787325
20
93.966578565775649
30
0
11
401.50226969137395
21
-54.748540912688206
31
0
0
ARC
5
110
100
AcDbEntity
8
0
100
AcDbCircle
10
370
20
-69.999999999999972
30
0
40
35.00000000000005
210
0
220
0
230
1
100
AcDbArc
50
-85.726261957174003
51
25.833407430901815
0
LINE
5
111
100
AcDbEntity
8
0
100
AcDbLine
10
372.60825780463233
20
-104.90267885456036
30
0
11
216.89065795863254
21
-124.56664579115281
31
0
0
ARC
5
112
100
AcDbEntity
8
0
100
AcDbCircle
10
210.00000000000031
20
-70.000000000005187
30
0
40
54.999999999994813
210
0
220
0
230
1
100
AcDbArc
50
269.99999999999972
51
277.19719657035074
0
LINE
5
113
100
AcDbEntity
8
0
100
AcDbLine
10
210
20
-125
30
0
11
29.999999999999986
21
-125
31
0
0
CIRCLE
5
114
100
AcDbEntity
8
0
100
AcDbCircle
10
70.000000000000114
20
134.00000000000003
30
0
40
1.4499999999999957
210
0
220
-0
230
1
0
CIRCLE
5
115
100
AcDbEntity
8
0
100
AcDbCircle
10
210.00000000000011
20
134.00000000000003
30
0
40
1.4499999999999957
210
0
220
-0
230
1
0
CIRCLE
5
116
100
AcDbEntity
8
0
100
AcDbCircle
10
350.00000000000006
20
126.01550156722308
30
0
40
1.4500000000000313
210
0
220
-0
230
1
0
CIRCLE
5
117
100
AcDbEntity
8
0
100
AcDbCircle
10
-69.999999999999886
20
134.00000000000009
30
0
40
1.4499999999999957
210
0
220
-0
230
1
0
CIRCLE
5
118
100
AcDbEntity
8
0
100
AcDbCircle
10
140
20
-134.00000000000003
30
0
40
1.4499999999999957
210
0
220
-0
230
1
0
CIRCLE
5
119
100
AcDbEntity
8
0
100
AcDbCircle
10
280
20
-134.00000000000003
30
0
40
1.4499999999999957
210
0
220
-0
230
1
0
CIRCLE
5
120
100
AcDbEntity
8
0
100
AcDbCircle
10
-209.99999999999989
20
134.0000000000002
30
0
40
1.4499999999999957
210
0
220
-0
230
1
0
CIRCLE
5
121
100
AcDbEntity
8
0
100
AcDbCircle
10
434
20
-70.000000000000014
30
0
40
1.4500000000000313
210
0
220
-0
230
1
0
CIRCLE
5
122
100
AcDbEntity
8
0
100
AcDbCircle
10
-262.83736377897935
20
137.58514173561201
30
0
40
5.0625000000000142
210
0
220
-0
230
1
0
CIRCLE
5
123
100
AcDbEntity
8
0
100
AcDbCircle
10
344.62633217992482
20
-130.83138183476331
30
0
40
5.0625000000000142
210
0
220
-0
230
1
0
CIRCLE
5
124
100
AcDbEntity
8
0
100
AcDbCircle
10
299.27063152121895
20
136.09806958286748
30
0
40
5.0625000000000142
210
0
220
-0
230
1
0
CIRCLE
5
125
100
AcDbEntity
8
0
100
AcDbCircle
10
392.95617714411992
20
-122.65248499466878
30
0
40
5.0625000000000142
210
0
220
-0
230
1
0
CIRCLE
5
126
100
AcDbEntity
8
0
100
AcDbCircle
10
262.83736377897952
20
137.58514173561184
30
0
40
5.0625000000000142
210
0
220
-0
230
1
0
ENDSEC
0
SECTION
2
OBJECTS
0
DICTIONARY
5
C
100
AcDbDictionary
3
ACAD_GROUP
350
D
3
ACAD_MLINESTYLE
350
17
0
DICTIONARY
5
D
100
AcDbDictionary
0
DICTIONARY
5
1A
330
C
100
AcDbDictionary
0
DICTIONARY
5
17
100
AcDbDictionary
0
ENDSEC
0
EOF
