0
SECTION
2
HEADER
9
$INSUNITS
70
4
9
$ACADVER
1
AC1014
9
$HANDSEED
5
FFFF
0
ENDSEC
0
SECTION
2
TABLES
0
TABLE
2
VPORT
5
8
100
AcDbSymbolTable
0
ENDTAB
0
TABLE
2
LTYPE
5
5
100
AcDbSymbolTable
0
LTYPE
5
14
100
AcDbSymbolTableRecord
100
AcDbLinetypeTableRecord
2
BYBLOCK
70
0
0
LTYPE
5
15
100
AcDbSymbolTableRecord
100
AcDbLinetypeTableRecord
2
BYLAYER
70
0
0
LTYPE
5
16
100
AcDbSymbolTableRecord
100
AcDbLinetypeTableRecord
2
DASHED
70
0
3
Dashed __ __ __ __ __ __ __ __ __ __ __ __ __ _
72
65
73
2
40
0.75
49
0.5
74
0
49
-0.25
74
0
0
ENDTAB
0
TABLE
2
LAYER
5
2
100
AcDbSymbolTable
70
2
0
LAYER
5
50
100
AcDbSymbolTableRecord
100
AcDbLayerTableRecord
2
0
70
0
62
7
6
CONTINUOUS
0
ENDTAB
0
TABLE
2
STYLE
5
3
100
AcDbSymbolTable
70
1
0
STYLE
5
11
100
AcDbSymbolTableRecord
100
AcDbTextStyleTableRecord
2
STANDARD
70
0
0
ENDTAB
0
TABLE
2
VIEW
5
6
100
AcDbSymbolTable
70
0
0
ENDTAB
0
TABLE
2
UCS
5
7
100
AcDbSymbolTable
70
0
0
ENDTAB
0
TABLE
2
APPID
5
9
100
AcDbSymbolTable
70
2
0
APPID
5
12
100
AcDbSymbolTableRecord
100
AcDbRegAppTableRecord
2
ACAD
70
0
0
ENDTAB
0
TABLE
2
DIMSTYLE
5
A
100
AcDbSymbolTable
70
1
0
ENDTAB
0
TABLE
2
BLOCK_RECORD
5
1
100
AcDbSymbolTable
70
1
0
BLOCK_RECORD
5
1F
100
AcDbSymbolTableRecord
100
AcDbBlockTableRecord
2
*MODEL_SPACE
0
BLOCK_RECORD
5
1B
100
AcDbSymbolTableRecord
100
AcDbBlockTableRecord
2
*PAPER_SPACE
0
ENDTAB
0
ENDSEC
0
SECTION
2
BLOCKS
0
BLOCK
5
20
100
AcDbEntity
100
AcDbBlockBegin
2
*MODEL_SPACE
0
ENDBLK
5
21
100
AcDbEntity
100
AcDbBlockEnd
0
BLOCK
5
1C
100
AcDbEntity
100
AcDbBlockBegin
2
*PAPER_SPACE
0
ENDBLK
5
1D
100
AcDbEntity
100
AcDbBlockEnd
0
ENDSEC
0
SECTION
2
ENTITIES
0
CIRCLE
5
100
100
AcDbEntity
8
0
100
AcDbCircle
10
350.00000000000006
20
126.01550156722308
30
0
40
1.4500000000000313
210
0
220
-0
230
1
0
CIRCLE
5
101
100
AcDbEntity
8
0
100
AcDbCircle
10
434
20
-70.000000000000014
30
0
40
1.4500000000000313
210
0
220
-0
230
1
0
LINE
5
102
100
AcDbEntity
8
0
100
AcDbLine
10
370
20
-105.23204878630298
30
0
11
369.99999999999994
21
-150
31
0
0
SPLINE
5
103
100
AcDbEntity
8
0
100
AcDbSpline
70
0
71
3
72
19
73
15
74
0
42
0.000000001
43
0.0000000001
44
0.0000000001
40
-10.728427454371994
40
-10.728427454371994
40
-10.728427454371994
40
-10.728427454371994
40
-9.2258951351715091
40
-9.2258951351715091
40
-6.1874217837093379
40
-6.1874217837093379
40
-3.1160687579401918
40
-3.1160687579401918
40
0
40
0
40
0
40
1.6073528197513269
40
1.6073528197513269
40
2.25633452476211
40
2.25633452476211
40
2.25633452476211
40
2.25633452476211
10
369.99999999999966
20
-150
30
0
10
373.53082934990232
20
-150
30
0
10
377.24014348055584
20
-149.83661529742642
30
0
10
392.55695352351916
20
-147.44760945367415
30
0
10
402.35259831229661
20
-143.87353607828967
30
0
10
420.07258046520747
20
-133.18981839261636
30
0
10
427.80203406947868
20
-126.14791652757305
30
0
10
440.19296623173454
20
-109.45615130016854
30
0
10
444.68502500209252
20
-99.937575001497152
30
0
10
447.22500004820711
20
-89.866024357854499
30
0
10
448.53518809911805
20
-84.670845244724674
30
0
10
449.3188507382639
20
-79.357168190376285
30
0
10
449.66563533307527
20
-71.843949057882469
30
0
10
449.70023999449313
20
-70.621124552043966
30
0
10
449.6116053061935
20
-67.797304234179222
30
0
0
SPLINE
5
104
100
AcDbEntity
8
0
100
AcDbSpline
70
0
71
3
72
14
73
10
74
0
42
0.000000001
43
0.0000000001
44
0.0000000001
40
-945.57213712274745
40
-945.57213712274745
40
-945.57213712274745
40
-945.57213712274745
40
-945.09336900156211
40
-945.09336900156211
40
-943.96886606334135
40
-943.96886606334135
40
-941.63547658072753
40
-941.63547658072753
40
-939.89112989208138
40
-939.89112989208138
40
-939.89112989208138
40
-939.89112989208138
10
449.6116053061935
20
-67.797304234179222
30
0
10
449.54621754123593
20
-65.714109688461434
30
0
10
449.45339875475156
20
-62.758463309372402
30
0
10
448.94491748390976
20
-46.526102101909537
30
0
10
448.60185253577021
20
-35.514733665634566
30
0
10
447.54873667629823
20
-1.1981962190888318
30
0
10
446.84804239824217
20
22.369101917914506
30
0
10
445.7493974572958
20
62.440289189698177
30
0
10
445.59243163730997
20
68.917138742446667
30
0
10
445.50950052754553
20
72.202695765820579
30
0
0
SPLINE
5
105
100
AcDbEntity
8
0
100
AcDbSpline
70
0
71
3
72
18
73
14
74
0
42
0.000000001
43
0.0000000001
44
0.0000000001
40
-939.89112989208138
40
-939.89112989208138
40
-939.89112989208138
40
-939.89112989208138
40
-938.84695305358377
40
-938.84695305358377
40
-934.74830686375356
40
-934.74830686375356
40
-926.488951148605
40
-926.488951148605
40
-917.90380846987307
40
-917.90380846987307
40
-909.0775895003494
40
-909.0775895003494
40
-905.02877497871725
40
-905.02877497871725
40
-905.02877497871725
40
-905.02877497871725
10
445.50950052754553
20
72.202695765820579
30
0
10
445.45985744651659
20
74.169450750767339
30
0
10
445.40103830720159
20
74.991668966249762
30
0
10
444.92165913662052
20
81.302359458824199
30
0
10
444.06952350909847
20
86.261538953316375
30
0
10
440.14350906399926
20
100.81790224320515
30
0
10
435.71910039423642
20
109.91529088694001
30
0
10
423.56123753364494
20
126.25904183919573
30
0
10
415.82438014243161
20
133.25748489271004
30
0
10
397.94855419232624
20
144.03535168920601
30
0
10
387.93003722599877
20
147.61050667577902
30
0
10
372.79111751405827
20
149.84732027024708
30
0
10
369.38663125252549
20
150.00000000000003
30
0
10
365.89789522135209
20
150.00000000000003
30
0
0
LINE
5
106
100
AcDbEntity
8
0
100
AcDbLine
10
365.89789522135209
20
150
30
0
11
280
21
150.00000000000003
31
0
0
LINE
5
107
100
AcDbEntity
8
0
100
AcDbLine
10
280
20
150.00000000000003
30
0
11
280
21
124.99999999999997
31
0
0
ARC
5
108
100
AcDbEntity
8
0
100
AcDbCircle
10
279.99999999999994
20
69.999999999999986
30
0
40
55.000000000000007
210
0
220
-0
230
1
100
AcDbArc
50
25.833407430901875
51
89.999999999999943
0
LINE
5
109
100
AcDbEntity
8
0
100
AcDbLine
10
329.50356665787325
20
93.966578565775649
30
0
11
401.50226969137395
21
-54.748540912688206
31
0
0
ARC
5
110
100
AcDbEntity
8
0
100
AcDbCircle
10
370
20
-69.999999999999972
30
0
40
35.00000000000005
210
0
220
0
230
1
100
AcDbArc
50
-85.726261957174003
51
25.833407430901815
0
LINE
5
111
100
AcDbEntity
8
0
100
AcDbLine
10
372.60825780463233
20
-104.90267885456036
30
0
11
370
21
-105.23204878630298
31
0
0
CIRCLE
5
112
100
AcDbEntity
8
0
100
AcDbCircle
10
299.27063152121895
20
136.09806958286748
30
0
40
5.0625000000000142
210
0
220
-0
230
1
0
CIRCLE
5
113
100
AcDbEntity
8
0
100
AcDbCircle
10
392.95617714411992
20
-122.65248499466878
30
0
40
5.0625000000000142
210
0
220
-0
230
1
0
ENDSEC
0
SECTION
2
OBJECTS
0
DICTIONARY
5
C
100
AcDbDictionary
3
ACAD_GROUP
350
D
3
ACAD_MLINESTYLE
350
17
0
DICTIONARY
5
D
100
AcDbDictionary
0
DICTIONARY
5
1A
330
C
100
AcDbDictionary
0
DICTIONARY
5
17
100
AcDbDictionary
0
ENDSEC
0
EOF
