0
SECTION
2
HEADER
9
$INSUNITS
70
4
9
$ACADVER
1
AC1014
9
$HANDSEED
5
FFFF
0
ENDSEC
0
SECTION
2
TABLES
0
TABLE
2
VPORT
5
8
100
AcDbSymbolTable
0
ENDTAB
0
TABLE
2
LTYPE
5
5
100
AcDbSymbolTable
0
LTYPE
5
14
100
AcDbSymbolTableRecord
100
AcDbLinetypeTableRecord
2
BYBLOCK
70
0
0
LTYPE
5
15
100
AcDbSymbolTableRecord
100
AcDbLinetypeTableRecord
2
BYLAYER
70
0
0
LTYPE
5
16
100
AcDbSymbolTableRecord
100
AcDbLinetypeTableRecord
2
DASHED
70
0
3
Dashed __ __ __ __ __ __ __ __ __ __ __ __ __ _
72
65
73
2
40
0.75
49
0.5
74
0
49
-0.25
74
0
0
ENDTAB
0
TABLE
2
LAYER
5
2
100
AcDbSymbolTable
70
2
0
LAYER
5
50
100
AcDbSymbolTableRecord
100
AcDbLayerTableRecord
2
0
70
0
62
7
6
CONTINUOUS
0
ENDTAB
0
TABLE
2
STYLE
5
3
100
AcDbSymbolTable
70
1
0
STYLE
5
11
100
AcDbSymbolTableRecord
100
AcDbTextStyleTableRecord
2
STANDARD
70
0
0
ENDTAB
0
TABLE
2
VIEW
5
6
100
AcDbSymbolTable
70
0
0
ENDTAB
0
TABLE
2
UCS
5
7
100
AcDbSymbolTable
70
0
0
ENDTAB
0
TABLE
2
APPID
5
9
100
AcDbSymbolTable
70
2
0
APPID
5
12
100
AcDbSymbolTableRecord
100
AcDbRegAppTableRecord
2
ACAD
70
0
0
ENDTAB
0
TABLE
2
DIMSTYLE
5
A
100
AcDbSymbolTable
70
1
0
ENDTAB
0
TABLE
2
BLOCK_RECORD
5
1
100
AcDbSymbolTable
70
1
0
BLOCK_RECORD
5
1F
100
AcDbSymbolTableRecord
100
AcDbBlockTableRecord
2
*MODEL_SPACE
0
BLOCK_RECORD
5
1B
100
AcDbSymbolTableRecord
100
AcDbBlockTableRecord
2
*PAPER_SPACE
0
ENDTAB
0
ENDSEC
0
SECTION
2
BLOCKS
0
BLOCK
5
20
100
AcDbEntity
100
AcDbBlockBegin
2
*MODEL_SPACE
0
ENDBLK
5
21
100
AcDbEntity
100
AcDbBlockEnd
0
BLOCK
5
1C
100
AcDbEntity
100
AcDbBlockBegin
2
*PAPER_SPACE
0
ENDBLK
5
1D
100
AcDbEntity
100
AcDbBlockEnd
0
ENDSEC
0
SECTION
2
ENTITIES
0
LINE
5
100
100
AcDbEntity
8
0
100
AcDbLine
10
-30.000000000000014
20
-150
30
0
11
-30.000000000000018
21
-125
31
0
0
LINE
5
101
100
AcDbEntity
8
0
100
AcDbLine
10
-30.000000000000018
20
-125
30
0
11
-210
21
-125
31
0
0
ARC
5
102
100
AcDbEntity
8
0
100
AcDbCircle
10
-209.99999999999972
20
-69.99999999999531
30
0
40
55.00000000000469
210
0
220
0
230
1
100
AcDbArc
50
262.80280299823465
51
269.99999999999972
0
LINE
5
103
100
AcDbEntity
8
0
100
AcDbLine
10
-216.89065836949845
20
-124.56664573926879
30
0
11
-372.6082346972467
21
-104.90268058136226
31
0
0
ARC
5
104
100
AcDbEntity
8
0
100
AcDbCircle
10
-370
20
-70.000000000000014
30
0
40
34.999999999999972
210
0
220
0
230
1
100
AcDbArc
50
154.16659256909801
51
265.72629988995493
0
LINE
5
105
100
AcDbEntity
8
0
100
AcDbLine
10
-401.50226969137384
20
-54.748540912688199
30
0
11
-329.50356665787325
21
93.966578565775691
31
0
0
ARC
5
106
100
AcDbEntity
8
0
100
AcDbCircle
10
-280
20
69.999999999999943
30
0
40
55.000000000000028
210
0
220
-0
230
1
100
AcDbArc
50
89.999999999999943
51
154.16659256909804
0
LINE
5
107
100
AcDbEntity
8
0
100
AcDbLine
10
-279.99999999999994
20
124.99999999999997
30
0
11
280.00000000000006
21
124.99999999999997
31
0
0
LINE
5
108
100
AcDbEntity
8
0
100
AcDbLine
10
280.00000000000006
20
124.99999999999997
30
0
11
280
21
150.00000000000003
31
0
0
LINE
5
109
100
AcDbEntity
8
0
100
AcDbLine
10
280
20
150.00000000000003
30
0
11
-365.89789522135192
21
150.00000000000003
31
0
0
SPLINE
5
110
100
AcDbEntity
8
0
100
AcDbSpline
70
0
71
3
72
18
73
14
74
0
42
0.000000001
43
0.0000000001
44
0.0000000001
40
-625.31867338105349
40
-625.31867338105349
40
-625.31867338105349
40
-625.31867338105349
40
-618.00521643169111
40
-618.00521643169111
40
-598.74696191118733
40
-598.74696191118733
40
-559.53929552993077
40
-559.53929552993077
40
-518.67999286431109
40
-518.67999286431109
40
-477.65173637702503
40
-477.65173637702503
40
-464.47659059727511
40
-464.47659059727511
40
-464.47659059727511
40
-464.47659059727511
10
-365.89789522135192
20
150.00000000000003
30
0
10
-368.54937737523755
20
150.00000000000003
30
0
10
-369.62108779732671
20
149.93658681743167
30
0
10
-376.63562505153868
20
149.43811299627836
30
0
10
-381.65223563298844
20
148.59173341023359
30
0
10
-396.47764130024967
20
144.6167640746082
30
0
10
-405.76545754305562
20
140.06016956835131
30
0
10
-422.39755992561982
20
127.48457727327242
30
0
10
-429.47373069354421
20
119.45758933309554
30
0
10
-440.08043814772975
20
101.15238394349387
30
0
10
-443.48697690664699
20
91.05710951924614
30
0
10
-445.29215034361812
20
77.279103234360662
30
0
10
-445.44934556041136
20
74.585909680595861
30
0
10
-445.50950052754553
20
72.20269576582082
30
0
0
SPLINE
5
111
100
AcDbEntity
8
0
100
AcDbSpline
70
0
71
3
72
14
73
10
74
0
42
0.000000001
43
0.0000000001
44
0.0000000001
40
-464.47659059727511
40
-464.47659059727511
40
-464.47659059727511
40
-464.47659059727511
40
-461.08251384391855
40
-461.08251384391855
40
-329.08419235720646
40
-329.08419235720646
40
-191.69063293896957
40
-191.69063293896957
40
-189.97272218139369
40
-189.97272218139369
40
-189.97272218139369
40
-189.97272218139369
10
-445.50950052754553
20
72.20269576582082
30
0
10
-445.52499717395551
20
71.588751064059252
30
0
10
-445.54002344726001
20
70.995536300577115
30
0
10
-446.12630999379144
20
47.920319482029932
30
0
10
-446.78610808516117
20
24.70761213702627
30
0
10
-448.13891948282361
20
-20.753811185498307
30
0
10
-448.76435653622167
20
-40.801559872043555
30
0
10
-449.58772768556582
20
-67.036561150355965
30
0
10
-449.59909629238581
20
-67.398778464818434
30
0
10
-449.6116053061935
20
-67.797304234179208
30
0
0
SPLINE
5
112
100
AcDbEntity
8
0
100
AcDbSpline
70
0
71
3
72
16
73
12
74
0
42
0.000000001
43
0.0000000001
44
0.0000000001
40
-189.97272218139369
40
-189.97272218139369
40
-189.97272218139369
40
-189.97272218139369
40
-167.98169020640435
40
-167.98169020640435
40
-151.60863866010499
40
-151.60863866010499
40
-135.03524251430417
40
-135.03524251430417
40
-118.21789359835954
40
-118.21789359835954
40
-115.73912906746793
40
-115.73912906746793
40
-115.73912906746793
40
-115.73912906746793
10
-449.6116053061935
20
-67.797304234179208
30
0
10
-449.77173360238567
20
-72.898845684001998
30
0
10
-449.70450652439558
20
-83.963034882739564
30
0
10
-441.55572337021084
20
-106.87019795205045
30
0
10
-436.21821021649453
20
-115.83078650898997
30
0
10
-422.40311601850681
20
-131.26396865590362
30
0
10
-414.02560479747785
20
-137.5521918941939
30
0
10
-395.27625032250961
20
-146.61841672391247
30
0
10
-385.06350447701885
20
-149.25428562173013
30
0
10
-373.14376636883492
20
-149.95287552418324
30
0
10
-372.26771323838557
20
-150
30
0
10
-370
20
-150
30
0
0
LINE
5
113
100
AcDbEntity
8
0
100
AcDbLine
10
-370
20
-150
30
0
11
-30.000000000000014
21
-150
31
0
0
CIRCLE
5
114
100
AcDbEntity
8
0
100
AcDbCircle
10
70.000000000000114
20
134.00000000000003
30
0
40
1.4499999999999957
210
0
220
-0
230
1
0
CIRCLE
5
115
100
AcDbEntity
8
0
100
AcDbCircle
10
-349.99999999999994
20
126.01550156722337
30
0
40
1.4500000000000313
210
0
220
-0
230
1
0
CIRCLE
5
116
100
AcDbEntity
8
0
100
AcDbCircle
10
-280
20
-133.9999999999998
30
0
40
1.4499999999999957
210
0
220
-0
230
1
0
CIRCLE
5
117
100
AcDbEntity
8
0
100
AcDbCircle
10
-140
20
-133.99999999999991
30
0
40
1.4499999999999957
210
0
220
-0
230
1
0
CIRCLE
5
118
100
AcDbEntity
8
0
100
AcDbCircle
10
210.00000000000011
20
134.00000000000003
30
0
40
1.4499999999999957
210
0
220
-0
230
1
0
CIRCLE
5
119
100
AcDbEntity
8
0
100
AcDbCircle
10
-69.999999999999886
20
134.00000000000009
30
0
40
1.4499999999999957
210
0
220
-0
230
1
0
CIRCLE
5
120
100
AcDbEntity
8
0
100
AcDbCircle
10
-209.99999999999989
20
134.0000000000002
30
0
40
1.4499999999999957
210
0
220
-0
230
1
0
CIRCLE
5
121
100
AcDbEntity
8
0
100
AcDbCircle
10
-392.95617714411992
20
-122.65248499466861
30
0
40
5.0625000000000142
210
0
220
-0
230
1
0
CIRCLE
5
122
100
AcDbEntity
8
0
100
AcDbCircle
10
262.83736377897952
20
137.58514173561184
30
0
40
5.0625000000000142
210
0
220
-0
230
1
0
CIRCLE
5
123
100
AcDbEntity
8
0
100
AcDbCircle
10
-299.27063152121883
20
136.09806958286759
30
0
40
5.0625000000000142
210
0
220
-0
230
1
0
CIRCLE
5
124
100
AcDbEntity
8
0
100
AcDbCircle
10
-344.62633217992482
20
-130.83138183476314
30
0
40
5.0625000000000142
210
0
220
-0
230
1
0
CIRCLE
5
125
100
AcDbEntity
8
0
100
AcDbCircle
10
-262.83736377897935
20
137.58514173561201
30
0
40
5.0625000000000142
210
0
220
-0
230
1
0
ENDSEC
0
SECTION
2
OBJECTS
0
DICTIONARY
5
C
100
AcDbDictionary
3
ACAD_GROUP
350
D
3
ACAD_MLINESTYLE
350
17
0
DICTIONARY
5
D
100
AcDbDictionary
0
DICTIONARY
5
1A
330
C
100
AcDbDictionary
0
DICTIONARY
5
17
100
AcDbDictionary
0
ENDSEC
0
EOF
