0
SECTION
2
HEADER
9
$INSUNITS
70
4
9
$ACADVER
1
AC1014
9
$HANDSEED
5
FFFF
0
ENDSEC
0
SECTION
2
TABLES
0
TABLE
2
VPORT
5
8
100
AcDbSymbolTable
0
ENDTAB
0
TABLE
2
LTYPE
5
5
100
AcDbSymbolTable
0
LTYPE
5
14
100
AcDbSymbolTableRecord
100
AcDbLinetypeTableRecord
2
BYBLOCK
70
0
0
LTYPE
5
15
100
AcDbSymbolTableRecord
100
AcDbLinetypeTableRecord
2
BYLAYER
70
0
0
LTYPE
5
16
100
AcDbSymbolTableRecord
100
AcDbLinetypeTableRecord
2
DASHED
70
0
3
Dashed __ __ __ __ __ __ __ __ __ __ __ __ __ _
72
65
73
2
40
0.75
49
0.5
74
0
49
-0.25
74
0
0
ENDTAB
0
TABLE
2
LAYER
5
2
100
AcDbSymbolTable
70
2
0
LAYER
5
50
100
AcDbSymbolTableRecord
100
AcDbLayerTableRecord
2
0
70
0
62
7
6
CONTINUOUS
0
ENDTAB
0
TABLE
2
STYLE
5
3
100
AcDbSymbolTable
70
1
0
STYLE
5
11
100
AcDbSymbolTableRecord
100
AcDbTextStyleTableRecord
2
STANDARD
70
0
0
ENDTAB
0
TABLE
2
VIEW
5
6
100
AcDbSymbolTable
70
0
0
ENDTAB
0
TABLE
2
UCS
5
7
100
AcDbSymbolTable
70
0
0
ENDTAB
0
TABLE
2
APPID
5
9
100
AcDbSymbolTable
70
2
0
APPID
5
12
100
AcDbSymbolTableRecord
100
AcDbRegAppTableRecord
2
ACAD
70
0
0
ENDTAB
0
TABLE
2
DIMSTYLE
5
A
100
AcDbSymbolTable
70
1
0
ENDTAB
0
TABLE
2
BLOCK_RECORD
5
1
100
AcDbSymbolTable
70
1
0
BLOCK_RECORD
5
1F
100
AcDbSymbolTableRecord
100
AcDbBlockTableRecord
2
*MODEL_SPACE
0
BLOCK_RECORD
5
1B
100
AcDbSymbolTableRecord
100
AcDbBlockTableRecord
2
*PAPER_SPACE
0
ENDTAB
0
ENDSEC
0
SECTION
2
BLOCKS
0
BLOCK
5
20
100
AcDbEntity
100
AcDbBlockBegin
2
*MODEL_SPACE
0
ENDBLK
5
21
100
AcDbEntity
100
AcDbBlockEnd
0
BLOCK
5
1C
100
AcDbEntity
100
AcDbBlockBegin
2
*PAPER_SPACE
0
ENDBLK
5
1D
100
AcDbEntity
100
AcDbBlockEnd
0
ENDSEC
0
SECTION
2
ENTITIES
0
CIRCLE
5
100
100
AcDbEntity
8
0
100
AcDbCircle
10
-23.499999999999737
20
-145.00000000000014
30
0
40
1.6000000000000014
210
0
220
-0
230
1
0
CIRCLE
5
101
100
AcDbEntity
8
0
100
AcDbCircle
10
23.500000000000114
20
-145.00000000000014
30
0
40
1.6000000000000014
210
0
220
-0
230
1
0
CIRCLE
5
102
100
AcDbEntity
8
0
100
AcDbCircle
10
-23.499999999999744
20
-113.00000000000013
30
0
40
1.6000000000000014
210
0
220
-0
230
1
0
CIRCLE
5
103
100
AcDbEntity
8
0
100
AcDbCircle
10
23.500000000000107
20
-113.00000000000013
30
0
40
1.6000000000000014
210
0
220
-0
230
1
0
CIRCLE
5
104
100
AcDbEntity
8
0
100
AcDbCircle
10
-140
20
-133.99999999999991
30
0
40
2.5
210
0
220
-0
230
1
0
CIRCLE
5
105
100
AcDbEntity
8
0
100
AcDbCircle
10
434
20
-70.000000000000014
30
0
40
2.5
210
0
220
-0
230
1
0
CIRCLE
5
106
100
AcDbEntity
8
0
100
AcDbCircle
10
-209.99999999999989
20
134.0000000000002
30
0
40
2.5
210
0
220
-0
230
1
0
CIRCLE
5
107
100
AcDbEntity
8
0
100
AcDbCircle
10
-69.999999999999886
20
134.00000000000009
30
0
40
2.5
210
0
220
-0
230
1
0
CIRCLE
5
108
100
AcDbEntity
8
0
100
AcDbCircle
10
-349.99999999999994
20
126.01550156722337
30
0
40
2.5
210
0
220
-0
230
1
0
CIRCLE
5
109
100
AcDbEntity
8
0
100
AcDbCircle
10
140
20
-134.00000000000003
30
0
40
2.5
210
0
220
-0
230
1
0
CIRCLE
5
110
100
AcDbEntity
8
0
100
AcDbCircle
10
-280
20
-133.9999999999998
30
0
40
2.5
210
0
220
-0
230
1
0
CIRCLE
5
111
100
AcDbEntity
8
0
100
AcDbCircle
10
350.00000000000006
20
126.01550156722308
30
0
40
2.5
210
0
220
-0
230
1
0
CIRCLE
5
112
100
AcDbEntity
8
0
100
AcDbCircle
10
210.00000000000011
20
134.00000000000003
30
0
40
2.5
210
0
220
-0
230
1
0
CIRCLE
5
113
100
AcDbEntity
8
0
100
AcDbCircle
10
70.000000000000114
20
134.00000000000003
30
0
40
2.5
210
0
220
-0
230
1
0
CIRCLE
5
114
100
AcDbEntity
8
0
100
AcDbCircle
10
-434
20
-69.999999999999673
30
0
40
2.5
210
0
220
-0
230
1
0
CIRCLE
5
115
100
AcDbEntity
8
0
100
AcDbCircle
10
280
20
-134.00000000000003
30
0
40
2.5
210
0
220
-0
230
1
0
SPLINE
5
116
100
AcDbEntity
8
0
100
AcDbSpline
70
2
71
3
72
101
73
97
74
0
42
0.000000001
43
0.0000000001
44
0.0000000001
40
0
40
0
40
0
40
0
40
0.065128141646215165
40
0.065128141646215165
40
0.065128141646215165
40
0.071635819662507719
40
0.071635819662507719
40
0.071635819662507719
40
0.077299864628664505
40
0.077299864628664505
40
0.077299864628664505
40
0.087040444651067625
40
0.087040444651067625
40
0.087040444651067625
40
0.094286028766714589
40
0.094286028766714589
40
0.094286028766714589
40
0.099675696430875274
40
0.099675696430875274
40
0.099675696430875274
40
0.10759720800896834
40
0.10759720800896834
40
0.10759720800896834
40
0.1153275419149951
40
0.1153275419149951
40
0.1153275419149951
40
0.4252892547229114
40
0.4252892547229114
40
0.4252892547229114
40
0.43179693273920394
40
0.43179693273920394
40
0.43179693273920394
40
0.43746097770536074
40
0.43746097770536074
40
0.43746097770536074
40
0.44720155772776388
40
0.44720155772776388
40
0.44720155772776388
40
0.45444714184341084
40
0.45444714184341084
40
0.45444714184341084
40
0.4598368095075715
40
0.4598368095075715
40
0.4598368095075715
40
0.46775832108566456
40
0.46775832108566456
40
0.46775832108566456
40
0.47548865499169135
40
0.47548865499169135
40
0.47548865499169135
40
0.54061679663790652
40
0.54061679663790652
40
0.54061679663790652
40
0.54878606846824618
40
0.54878606846824618
40
0.54878606846824618
40
0.55589630392733891
40
0.55589630392733891
40
0.55589630392733891
40
0.5620847928567908
40
0.5620847928567908
40
0.5620847928567908
40
0.57272727044926353
40
0.57272727044926353
40
0.57272727044926353
40
0.58064373604143527
40
0.58064373604143527
40
0.58064373604143527
40
0.59227903115674729
40
0.59227903115674729
40
0.59227903115674729
40
0.60363352018953054
40
0.60363352018953054
40
0.60363352018953054
40
0.93698327644837587
40
0.93698327644837587
40
0.93698327644837587
40
0.94515254827871553
40
0.94515254827871553
40
0.94515254827871553
40
0.95226278373780826
40
0.95226278373780826
40
0.95226278373780826
40
0.95845127266726016
40
0.95845127266726016
40
0.95845127266726016
40
0.96909375025973299
40
0.96909375025973299
40
0.96909375025973299
40
0.97701021585190473
40
0.97701021585190473
40
0.97701021585190473
40
0.98864551096721676
40
0.98864551096721676
40
0.98864551096721676
40
1
40
1
40
1
40
1
10
450
20
-70
30
0
10
450
20
-26.708615363012484
30
0
10
450
20
23.333333333333421
30
0
10
450
20
70.000000000000085
30
0
10
450
20
74.662986430812381
30
0
10
449.5886011053459
20
79.560683602797809
30
0
10
448.66560486379285
20
84.550691097456863
30
0
10
447.86226268818712
20
88.893811141264763
30
0
10
446.67152488359505
20
93.305674606998949
30
0
10
445.06093422050304
20
97.67410619957424
30
0
10
442.2911667961763
20
105.18659202094753
30
0
10
438.25997570345606
20
112.5656589852691
30
0
10
433.06627922764778
20
119.22036595130486
30
0
10
429.20291948931009
20
124.17050639227401
30
0
10
424.70463903543339
20
128.71772687954027
30
0
10
419.72756963328294
20
132.6671270952084
30
0
10
416.0253491371983
20
135.60491020495772
30
0
10
412.06059060359513
20
138.21280639403597
30
0
10
407.92313758034049
20
140.44029838141353
30
0
10
401.84207951335259
20
143.71417437296199
30
0
10
395.3889264543983
20
146.15893348374277
30
0
10
388.88623623440549
20
147.73872960692262
30
0
10
382.54048186764868
20
149.28039894808728
30
0
10
376.15177816494253
20
150.00000000000003
30
0
10
370
20
150.00000000000003
30
0
10
123.33333333333331
20
150.00000000000003
30
0
10
-123.33333333333329
20
150.00000000000003
30
0
10
-369.99999999999977
20
150.00000000000003
30
0
10
-375.17879201749537
20
150.00000000000003
30
0
10
-380.52467943628301
20
149.49218171293063
30
0
10
-385.87291675314219
20
148.40950525126289
30
0
10
-390.52782693408966
20
147.46718325141399
30
0
10
-395.18323135173176
20
146.09000396687313
30
0
10
-399.72057143699379
20
144.2744076614452
30
0
10
-407.52353282826624
20
141.1520876221324
30
0
10
-414.96656862610519
20
136.71530692625063
30
0
10
-421.50125124619183
20
131.21781701495595
30
0
10
-426.36211091614939
20
127.12847885587385
30
0
10
-430.72082671097399
20
122.46121321447129
30
0
10
-434.43182336902345
20
117.41877410206811
30
0
10
-437.19226867894747
20
113.66792798685582
30
0
10
-439.59591058777818
20
109.71151138125812
30
0
10
-441.61816210653649
20
105.64882685982626
30
0
10
-444.59038410942219
20
99.677660457737218
30
0
10
-446.73238631338927
20
93.479678144955912
30
0
10
-448.09114079059049
20
87.371635790108414
30
0
10
-449.417103102395
20
81.411004861321473
30
0
10
-450
20
75.539063552192715
30
0
10
-450
20
70.000000000000171
30
0
10
-450
20
23.333333333333499
30
0
10
-450
20
-26.708615363012296
30
0
10
-450
20
-69.999999999999858
30
0
10
-450
20
-75.430203903751135
30
0
10
-449.44521401637019
20
-80.860252498420635
30
0
10
-448.34707339761428
20
-86.178259796060757
30
0
10
-447.3912919609445
20
-90.806858873761257
30
0
10
-446.02428237916621
20
-95.350462250412008
30
0
10
-444.26741424230363
20
-99.738042668643629
30
0
10
-442.73830046287503
20
-103.55683221527995
30
0
10
-440.91407833876497
20
-107.25741316725365
30
0
10
-438.81637494155211
20
-110.79591327453912
30
0
10
-435.20890926536026
20
-116.88114805996891
30
0
10
-430.7898902535299
20
-122.48459901687829
30
0
10
-425.71318625392166
20
-127.41115638476404
30
0
10
-421.93685201357857
20
-131.07580322586358
30
0
10
-417.79787002782149
20
-134.36655931124679
30
0
10
-413.37635737203175
20
-137.21972642858486
30
0
10
-406.87780015515023
20
-141.41319395989836
30
0
10
-399.76766563470574
20
-144.65723339702333
30
0
10
-392.34126891918675
20
-146.81710553698687
30
0
10
-385.09410077916345
20
-148.9248513468165
30
0
10
-377.54745244758942
20
-150
30
0
10
-370
20
-150
30
0
10
-148.41878868216756
20
-150
30
0
10
148.41878868216796
20
-150
30
0
10
369.99999999999994
20
-150
30
0
10
375.43020390375125
20
-150
30
0
10
380.86025249842066
20
-149.44521401637019
30
0
10
386.17825979606084
20
-148.34707339761428
30
0
10
390.80685887376126
20
-147.3912919609445
30
0
10
395.35046225041214
20
-146.02428237916621
30
0
10
399.73804266864369
20
-144.26741424230363
30
0
10
403.55683221528005
20
-142.738300462875
30
0
10
407.25741316725367
20
-140.91407833876491
30
0
10
410.79591327453909
20
-138.81637494155211
30
0
10
416.88114805996895
20
-135.20890926536018
30
0
10
422.48459901687841
20
-130.78989025352979
30
0
10
427.41115638476413
20
-125.71318625392152
30
0
10
431.07580322586364
20
-121.9368520135784
30
0
10
434.36655931124687
20
-117.79787002782136
30
0
10
437.21972642858498
20
-113.37635737203158
30
0
10
441.41319395989842
20
-106.87780015515014
30
0
10
444.65723339702345
20
-99.767665634705679
30
0
10
446.8171055369869
20
-92.34126891918666
30
0
10
448.92485134681647
20
-85.094100779163355
30
0
10
450
20
-77.547452447589393
30
0
10
450
20
-70
30
0
0
ENDSEC
0
SECTION
2
OBJECTS
0
DICTIONARY
5
C
100
AcDbDictionary
3
ACAD_GROUP
350
D
3
ACAD_MLINESTYLE
350
17
0
DICTIONARY
5
D
100
AcDbDictionary
0
DICTIONARY
5
1A
330
C
100
AcDbDictionary
0
DICTIONARY
5
17
100
AcDbDictionary
0
ENDSEC
0
EOF
