0
SECTION
2
HEADER
9
$INSUNITS
70
4
9
$ACADVER
1
AC1014
9
$HANDSEED
5
FFFF
0
ENDSEC
0
SECTION
2
TABLES
0
TABLE
2
VPORT
5
8
100
AcDbSymbolTable
0
ENDTAB
0
TABLE
2
LTYPE
5
5
100
AcDbSymbolTable
0
LTYPE
5
14
100
AcDbSymbolTableRecord
100
AcDbLinetypeTableRecord
2
BYBLOCK
70
0
0
LTYPE
5
15
100
AcDbSymbolTableRecord
100
AcDbLinetypeTableRecord
2
BYLAYER
70
0
0
LTYPE
5
16
100
AcDbSymbolTableRecord
100
AcDbLinetypeTableRecord
2
DASHED
70
0
3
Dashed __ __ __ __ __ __ __ __ __ __ __ __ __ _
72
65
73
2
40
0.75
49
0.5
74
0
49
-0.25
74
0
0
ENDTAB
0
TABLE
2
LAYER
5
2
100
AcDbSymbolTable
70
2
0
LAYER
5
50
100
AcDbSymbolTableRecord
100
AcDbLayerTableRecord
2
0
70
0
62
7
6
CONTINUOUS
0
ENDTAB
0
TABLE
2
STYLE
5
3
100
AcDbSymbolTable
70
1
0
STYLE
5
11
100
AcDbSymbolTableRecord
100
AcDbTextStyleTableRecord
2
STANDARD
70
0
0
ENDTAB
0
TABLE
2
VIEW
5
6
100
AcDbSymbolTable
70
0
0
ENDTAB
0
TABLE
2
UCS
5
7
100
AcDbSymbolTable
70
0
0
ENDTAB
0
TABLE
2
APPID
5
9
100
AcDbSymbolTable
70
2
0
APPID
5
12
100
AcDbSymbolTableRecord
100
AcDbRegAppTableRecord
2
ACAD
70
0
0
ENDTAB
0
TABLE
2
DIMSTYLE
5
A
100
AcDbSymbolTable
70
1
0
ENDTAB
0
TABLE
2
BLOCK_RECORD
5
1
100
AcDbSymbolTable
70
1
0
BLOCK_RECORD
5
1F
100
AcDbSymbolTableRecord
100
AcDbBlockTableRecord
2
*MODEL_SPACE
0
BLOCK_RECORD
5
1B
100
AcDbSymbolTableRecord
100
AcDbBlockTableRecord
2
*PAPER_SPACE
0
ENDTAB
0
ENDSEC
0
SECTION
2
BLOCKS
0
BLOCK
5
20
100
AcDbEntity
100
AcDbBlockBegin
2
*MODEL_SPACE
0
ENDBLK
5
21
100
AcDbEntity
100
AcDbBlockEnd
0
BLOCK
5
1C
100
AcDbEntity
100
AcDbBlockBegin
2
*PAPER_SPACE
0
ENDBLK
5
1D
100
AcDbEntity
100
AcDbBlockEnd
0
ENDSEC
0
SECTION
2
ENTITIES
0
CIRCLE
5
100
100
AcDbEntity
8
0
100
AcDbCircle
10
350.00000000000006
20
126.01550156722308
30
0
40
1.4500000000000313
210
0
220
-0
230
1
0
CIRCLE
5
101
100
AcDbEntity
8
0
100
AcDbCircle
10
434
20
-70.000000000000014
30
0
40
1.4500000000000313
210
0
220
-0
230
1
0
LINE
5
102
100
AcDbEntity
8
0
100
AcDbLine
10
370
20
-105.23204878630298
30
0
11
369.99999999999994
21
-150
31
0
0
SPLINE
5
103
100
AcDbEntity
8
0
100
AcDbSpline
70
0
71
3
72
23
73
19
74
0
42
0.000000001
43
0.0000000001
44
0.0000000001
40
-12.085905421880755
40
-12.085905421880755
40
-12.085905421880755
40
-12.085905421880755
40
-11.896760758802721
40
-11.896760758802721
40
-10.047814979344219
40
-10.047814979344219
40
-6.56340158836817
40
-6.56340158836817
40
-3.2202110931194787
40
-3.2202110931194787
40
0
40
0
40
0
40
1.6459525076075892
40
1.6459525076075892
40
3.2020562739108982
40
3.2020562739108982
40
3.6260446370200157
40
3.6260446370200157
40
3.6260446370200157
40
3.6260446370200157
10
369.99999999999994
20
-150.00000000000003
30
0
10
371.03110220694469
20
-150.00000000000003
30
0
10
371.50164950876331
20
-149.98747315943712
30
0
10
376.94196818071009
20
-149.85066681508857
30
0
10
381.99176434826586
20
-149.26635171550654
30
0
10
396.69464180737015
20
-146.03823446803477
30
0
10
406.10006383790187
20
-142.10763548104399
30
0
10
422.94129464966005
20
-130.65239026477573
30
0
10
430.28940476410287
20
-123.37647905328033
30
0
10
441.72860245188139
20
-106.12934006341945
30
0
10
445.81810373550036
20
-96.424668083045972
30
0
10
447.8540830704452
20
-85.885486996610723
30
0
10
448.89473698873957
20
-80.498575693058783
30
0
10
449.37263090001204
20
-75.018801134234167
30
0
10
449.19668532523383
20
-64.346419368465291
30
0
10
448.60223049272417
20
-59.037976353669073
30
0
10
447.0994781010109
20
-52.224460114309224
30
0
10
446.9238422083896
20
-51.464552254857672
30
0
10
446.39521174810864
20
-49.556229923476977
30
0
0
SPLINE
5
104
100
AcDbEntity
8
0
100
AcDbSpline
70
0
71
3
72
10
73
6
74
0
42
0.000000001
43
0.0000000001
44
0.0000000001
40
-93.140586271258471
40
-93.140586271258471
40
-93.140586271258471
40
-93.140586271258471
40
-92.856700999097924
40
-92.856700999097924
40
-92.793681397645642
40
-92.793681397645642
40
-92.793681397645642
40
-92.793681397645642
10
446.39521174810864
20
-49.556229923476977
30
0
10
446.04126240622406
20
-48.278495316702788
30
0
10
445.54357048551469
20
-46.481923165748
30
0
10
444.5726089136906
20
-42.975986532134343
30
0
10
444.39629735225191
20
-42.339329627350963
30
0
10
444.22004242333958
20
-41.702838457481874
30
0
0
SPLINE
5
105
100
AcDbEntity
8
0
100
AcDbSpline
70
0
71
3
72
12
73
8
74
0
42
0.000000001
43
0.0000000001
44
0.0000000001
40
-92.793681397645642
40
-92.793681397645642
40
-92.793681397645642
40
-92.793681397645642
40
-91.500590621120082
40
-91.500590621120082
40
-89.115921623263745
40
-89.115921623263745
40
-88.655716745427313
40
-88.655716745427313
40
-88.655716745427313
40
-88.655716745427313
10
444.22004242333958
20
-41.702838457481874
30
0
10
440.60349110214048
20
-28.642761241333574
30
0
10
437.01041040788192
20
-15.65256567509727
30
0
10
426.39196680211887
20
22.926874975422784
30
0
10
418.28629852217608
20
52.586772117594762
30
0
10
409.79512626046562
20
84.794587865616634
30
0
10
408.94804134233141
20
88.042016008582124
30
0
10
408.32255177128189
20
90.443770076522981
30
0
0
SPLINE
5
106
100
AcDbEntity
8
0
100
AcDbSpline
70
0
71
3
72
16
73
12
74
0
42
0.000000001
43
0.0000000001
44
0.0000000001
40
-88.655716745427313
40
-88.655716745427313
40
-88.655716745427313
40
-88.655716745427313
40
-88.038935822596386
40
-88.038935822596386
40
-86.009295250364133
40
-86.009295250364133
40
-84.076845422902693
40
-84.076845422902693
40
-82.198024686897085
40
-82.198024686897085
40
-81.957454855273284
40
-81.957454855273284
40
-81.957454855273284
40
-81.957454855273284
10
408.32255177128189
20
90.443770076522981
30
0
10
407.48425115033507
20
93.662675746106103
30
0
10
406.94263383322522
20
95.335805642287212
30
0
10
402.51001020199573
20
107.35901749507732
30
0
10
397.38109319654251
20
116.14042605061869
30
0
10
383.85927317437745
20
131.23922242958014
30
0
10
375.76222080024002
20
137.50117752533475
30
0
10
357.23878999429138
20
146.52428464526071
30
0
10
347.07695718562263
20
149.27576513870315
30
0
10
334.98328335754741
20
149.953022315266
30
0
10
333.83842135666976
20
150.00000000000003
30
0
10
331.92734002317309
20
150.00000000000003
30
0
0
LINE
5
107
100
AcDbEntity
8
0
100
AcDbLine
10
331.92734002317309
20
150.00000000000003
30
0
11
280
21
150.00000000000003
31
0
0
LINE
5
108
100
AcDbEntity
8
0
100
AcDbLine
10
280
20
150.00000000000003
30
0
11
280
21
124.99999999999997
31
0
0
ARC
5
109
100
AcDbEntity
8
0
100
AcDbCircle
10
279.99999999999994
20
69.999999999999986
30
0
40
55.000000000000007
210
0
220
-0
230
1
100
AcDbArc
50
25.833407430901875
51
89.999999999999943
0
LINE
5
110
100
AcDbEntity
8
0
100
AcDbLine
10
329.50356665787325
20
93.966578565775649
30
0
11
401.50226969137395
21
-54.748540912688206
31
0
0
ARC
5
111
100
AcDbEntity
8
0
100
AcDbCircle
10
370
20
-69.999999999999972
30
0
40
35.00000000000005
210
0
220
0
230
1
100
AcDbArc
50
-85.726261957174003
51
25.833407430901815
0
LINE
5
112
100
AcDbEntity
8
0
100
AcDbLine
10
372.60825780463233
20
-104.90267885456036
30
0
11
370
21
-105.23204878630298
31
0
0
CIRCLE
5
113
100
AcDbEntity
8
0
100
AcDbCircle
10
392.95617714411992
20
-122.65248499466878
30
0
40
5.0625000000000142
210
0
220
-0
230
1
0
CIRCLE
5
114
100
AcDbEntity
8
0
100
AcDbCircle
10
299.27063152121895
20
136.09806958286748
30
0
40
5.0625000000000142
210
0
220
-0
230
1
0
ENDSEC
0
SECTION
2
OBJECTS
0
DICTIONARY
5
C
100
AcDbDictionary
3
ACAD_GROUP
350
D
3
ACAD_MLINESTYLE
350
17
0
DICTIONARY
5
D
100
AcDbDictionary
0
DICTIONARY
5
1A
330
C
100
AcDbDictionary
0
DICTIONARY
5
17
100
AcDbDictionary
0
ENDSEC
0
EOF
