0
SECTION
2
HEADER
9
$INSUNITS
70
4
9
$ACADVER
1
AC1014
9
$HANDSEED
5
FFFF
0
ENDSEC
0
SECTION
2
TABLES
0
TABLE
2
VPORT
5
8
100
AcDbSymbolTable
0
ENDTAB
0
TABLE
2
LTYPE
5
5
100
AcDbSymbolTable
0
LTYPE
5
14
100
AcDbSymbolTableRecord
100
AcDbLinetypeTableRecord
2
BYBLOCK
70
0
0
LTYPE
5
15
100
AcDbSymbolTableRecord
100
AcDbLinetypeTableRecord
2
BYLAYER
70
0
0
LTYPE
5
16
100
AcDbSymbolTableRecord
100
AcDbLinetypeTableRecord
2
DASHED
70
0
3
Dashed __ __ __ __ __ __ __ __ __ __ __ __ __ _
72
65
73
2
40
0.75
49
0.5
74
0
49
-0.25
74
0
0
ENDTAB
0
TABLE
2
LAYER
5
2
100
AcDbSymbolTable
70
2
0
LAYER
5
50
100
AcDbSymbolTableRecord
100
AcDbLayerTableRecord
2
0
70
0
62
7
6
CONTINUOUS
0
ENDTAB
0
TABLE
2
STYLE
5
3
100
AcDbSymbolTable
70
1
0
STYLE
5
11
100
AcDbSymbolTableRecord
100
AcDbTextStyleTableRecord
2
STANDARD
70
0
0
ENDTAB
0
TABLE
2
VIEW
5
6
100
AcDbSymbolTable
70
0
0
ENDTAB
0
TABLE
2
UCS
5
7
100
AcDbSymbolTable
70
0
0
ENDTAB
0
TABLE
2
APPID
5
9
100
AcDbSymbolTable
70
2
0
APPID
5
12
100
AcDbSymbolTableRecord
100
AcDbRegAppTableRecord
2
ACAD
70
0
0
ENDTAB
0
TABLE
2
DIMSTYLE
5
A
100
AcDbSymbolTable
70
1
0
ENDTAB
0
TABLE
2
BLOCK_RECORD
5
1
100
AcDbSymbolTable
70
1
0
BLOCK_RECORD
5
1F
100
AcDbSymbolTableRecord
100
AcDbBlockTableRecord
2
*MODEL_SPACE
0
BLOCK_RECORD
5
1B
100
AcDbSymbolTableRecord
100
AcDbBlockTableRecord
2
*PAPER_SPACE
0
ENDTAB
0
ENDSEC
0
SECTION
2
BLOCKS
0
BLOCK
5
20
100
AcDbEntity
100
AcDbBlockBegin
2
*MODEL_SPACE
0
ENDBLK
5
21
100
AcDbEntity
100
AcDbBlockEnd
0
BLOCK
5
1C
100
AcDbEntity
100
AcDbBlockBegin
2
*PAPER_SPACE
0
ENDBLK
5
1D
100
AcDbEntity
100
AcDbBlockEnd
0
ENDSEC
0
SECTION
2
ENTITIES
0
CIRCLE
5
100
100
AcDbEntity
8
0
100
AcDbCircle
10
70.000000000000114
20
134.00000000000003
30
0
40
1.4499999999999957
210
0
220
-0
230
1
0
CIRCLE
5
101
100
AcDbEntity
8
0
100
AcDbCircle
10
-349.99999999999994
20
126.01550156722337
30
0
40
1.4500000000000313
210
0
220
-0
230
1
0
CIRCLE
5
102
100
AcDbEntity
8
0
100
AcDbCircle
10
-280
20
-133.9999999999998
30
0
40
1.4499999999999957
210
0
220
-0
230
1
0
CIRCLE
5
103
100
AcDbEntity
8
0
100
AcDbCircle
10
-140
20
-133.99999999999991
30
0
40
1.4499999999999957
210
0
220
-0
230
1
0
CIRCLE
5
104
100
AcDbEntity
8
0
100
AcDbCircle
10
210.00000000000011
20
134.00000000000003
30
0
40
1.4499999999999957
210
0
220
-0
230
1
0
CIRCLE
5
105
100
AcDbEntity
8
0
100
AcDbCircle
10
-69.999999999999886
20
134.00000000000009
30
0
40
1.4499999999999957
210
0
220
-0
230
1
0
CIRCLE
5
106
100
AcDbEntity
8
0
100
AcDbCircle
10
140
20
-134.00000000000003
30
0
40
1.4499999999999957
210
0
220
-0
230
1
0
CIRCLE
5
107
100
AcDbEntity
8
0
100
AcDbCircle
10
0
20
-134.00000000000003
30
0
40
1.45
210
0
220
-0
230
1
0
CIRCLE
5
108
100
AcDbEntity
8
0
100
AcDbCircle
10
280
20
-134.00000000000003
30
0
40
1.4499999999999957
210
0
220
-0
230
1
0
CIRCLE
5
109
100
AcDbEntity
8
0
100
AcDbCircle
10
-209.99999999999989
20
134.0000000000002
30
0
40
1.4499999999999957
210
0
220
-0
230
1
0
LINE
5
110
100
AcDbEntity
8
0
100
AcDbLine
10
369.99999999999994
20
-150
30
0
11
370
21
-105.23204878630298
31
0
0
LINE
5
111
100
AcDbEntity
8
0
100
AcDbLine
10
370
20
-105.23204878630298
30
0
11
216.89065795863254
21
-124.56664579115281
31
0
0
ARC
5
112
100
AcDbEntity
8
0
100
AcDbCircle
10
210.00000000000031
20
-70.000000000005187
30
0
40
54.999999999994813
210
0
220
0
230
1
100
AcDbArc
50
269.99999999999972
51
277.19719657035074
0
LINE
5
113
100
AcDbEntity
8
0
100
AcDbLine
10
210
20
-125
30
0
11
-210
21
-125
31
0
0
ARC
5
114
100
AcDbEntity
8
0
100
AcDbCircle
10
-209.99999999999972
20
-69.99999999999531
30
0
40
55.00000000000469
210
0
220
0
230
1
100
AcDbArc
50
262.80280299823465
51
269.99999999999972
0
LINE
5
115
100
AcDbEntity
8
0
100
AcDbLine
10
-216.89065836949845
20
-124.56664573926879
30
0
11
-372.6082346972467
21
-104.90268058136226
31
0
0
ARC
5
116
100
AcDbEntity
8
0
100
AcDbCircle
10
-370
20
-70.000000000000014
30
0
40
34.999999999999972
210
0
220
0
230
1
100
AcDbArc
50
154.16659256909801
51
265.72629988995493
0
LINE
5
117
100
AcDbEntity
8
0
100
AcDbLine
10
-401.50226969137384
20
-54.748540912688199
30
0
11
-329.50356665787325
21
93.966578565775691
31
0
0
ARC
5
118
100
AcDbEntity
8
0
100
AcDbCircle
10
-280
20
69.999999999999943
30
0
40
55.000000000000028
210
0
220
-0
230
1
100
AcDbArc
50
89.999999999999943
51
154.16659256909804
0
LINE
5
119
100
AcDbEntity
8
0
100
AcDbLine
10
-279.99999999999994
20
124.99999999999997
30
0
11
280.00000000000006
21
124.99999999999997
31
0
0
LINE
5
120
100
AcDbEntity
8
0
100
AcDbLine
10
280.00000000000006
20
124.99999999999997
30
0
11
280
21
150.00000000000003
31
0
0
LINE
5
121
100
AcDbEntity
8
0
100
AcDbLine
10
280
20
150.00000000000003
30
0
11
-331.92734002317309
21
150.00000000000003
31
0
0
SPLINE
5
122
100
AcDbEntity
8
0
100
AcDbSpline
70
0
71
3
72
16
73
12
74
0
42
0.000000001
43
0.0000000001
44
0.0000000001
40
-66.611203352069992
40
-66.611203352069992
40
-66.611203352069992
40
-66.611203352069992
40
-66.217091702036427
40
-66.217091702036427
40
-64.398500652070211
40
-64.398500652070211
40
-62.632335039289771
40
-62.632335039289771
40
-60.924819864259405
40
-60.924819864259405
40
-60.620184065225978
40
-60.620184065225978
40
-60.620184065225978
40
-60.620184065225978
10
-331.92734002317303
20
150.00000000000003
30
0
10
-334.5806297929106
20
150.00000000000003
30
0
10
-335.84700630983423
20
149.93182745110505
30
0
10
-347.79066787231415
20
149.01687576968305
30
0
10
-357.65199917603007
20
146.41835841598817
30
0
10
-376.01472770182937
20
137.27935632912258
30
0
10
-384.35099045201702
20
130.94555449021132
30
0
10
-398.10233123060692
20
115.05442696346286
30
0
10
-403.44913670124083
20
105.78302684355172
30
0
10
-407.47172862122602
20
93.552388224501698
30
0
10
-407.75265522446171
20
92.632058119973166
30
0
10
-408.32255177128172
20
90.443770076522895
30
0
0
SPLINE
5
123
100
AcDbEntity
8
0
100
AcDbSpline
70
0
71
3
72
14
73
10
74
0
42
0.000000001
43
0.0000000001
44
0.0000000001
40
-60.620184065225978
40
-60.620184065225978
40
-60.620184065225978
40
-60.620184065225978
40
-60.424749816367836
40
-60.424749816367836
40
-59.727239739787713
40
-59.727239739787713
40
-58.321127596089219
40
-58.321127596089219
40
-57.760028748663224
40
-57.760028748663224
40
-57.760028748663224
40
-57.760028748663224
10
-408.32255177128172
20
90.443770076522895
30
0
10
-408.68815983149011
20
89.039908706933716
30
0
10
-409.18899707223363
20
87.118474479733678
30
0
10
-412.81118306140201
20
73.313942388631276
30
0
10
-415.86080073264338
20
61.886305487477323
30
0
10
-425.09884966594859
20
27.619696692331509
30
0
10
-431.97578587230305
20
2.5868407338481125
30
0
10
-441.26117228949556
20
-31.019678873461153
30
0
10
-443.02278638258969
20
-37.379311718613614
30
0
10
-444.22004242333946
20
-41.702838457481654
30
0
0
SPLINE
5
124
100
AcDbEntity
8
0
100
AcDbSpline
70
0
71
3
72
8
73
4
74
0
42
0.000000001
43
0.0000000001
44
0.0000000001
40
-57.760028748663224
40
-57.760028748663224
40
-57.760028748663224
40
-57.760028748663224
40
-57.223776666788346
40
-57.223776666788346
40
-57.223776666788346
40
-57.223776666788346
10
-444.22004242333946
20
-41.702838457481654
30
0
10
-445.36428117438061
20
-45.834909349082409
30
0
10
-445.99375839602828
20
-48.107008861989939
30
0
10
-446.39521174810864
20
-49.556229923476991
30
0
0
SPLINE
5
125
100
AcDbEntity
8
0
100
AcDbSpline
70
0
71
3
72
20
73
16
74
0
42
0.000000001
43
0.0000000001
44
0.0000000001
40
-57.223776666788346
40
-57.223776666788346
40
-57.223776666788346
40
-57.223776666788346
40
-56.802214371933943
40
-56.802214371933943
40
-53.593088616298388
40
-53.593088616298388
40
-47.546466252631873
40
-47.546466252631873
40
-41.74094142908951
40
-41.74094142908951
40
-36.142151610350012
40
-36.142151610350012
40
-30.823217842397789
40
-30.823217842397789
40
-30.153502140497761
40
-30.153502140497761
40
-30.153502140497761
40
-30.153502140497761
10
-446.39521174810864
20
-49.556229923476991
30
0
10
-446.71080510820957
20
-50.695501876129974
30
0
10
-446.86775334989318
20
-51.331100089248487
30
0
10
-448.19352659071774
20
-56.768138755362685
30
0
10
-448.9503111446179
20
-61.804127087428014
30
0
10
-449.67425857198032
20
-76.866728863570458
30
0
10
-448.32997817332011
20
-86.986529757448864
30
0
10
-441.63816903535383
20
-106.26661854700764
30
0
10
-436.50732637782721
20
-115.27269744065671
30
0
10
-422.77416363165935
20
-130.83673733831938
30
0
10
-414.42619514193325
20
-137.32073944022903
30
0
10
-395.52916565798853
20
-146.49367607013008
30
0
10
-385.28171008320544
20
-149.26672191984943
30
0
10
-373.120319524097
20
-149.9506242022326
30
0
10
-372.42470657269189
20
-150.00000000000003
30
0
10
-370
20
-150.00000000000003
30
0
0
LINE
5
126
100
AcDbEntity
8
0
100
AcDbLine
10
-370
20
-150.00000000000003
30
0
11
369.99999999999994
21
-150
31
0
0
CIRCLE
5
127
100
AcDbEntity
8
0
100
AcDbCircle
10
-262.83736377897935
20
137.58514173561201
30
0
40
5.0625000000000142
210
0
220
-0
230
1
0
CIRCLE
5
128
100
AcDbEntity
8
0
100
AcDbCircle
10
344.62633217992482
20
-130.83138183476331
30
0
40
5.0625000000000142
210
0
220
-0
230
1
0
CIRCLE
5
129
100
AcDbEntity
8
0
100
AcDbCircle
10
-344.62633217992482
20
-130.83138183476314
30
0
40
5.0625000000000142
210
0
220
-0
230
1
0
CIRCLE
5
130
100
AcDbEntity
8
0
100
AcDbCircle
10
-299.27063152121883
20
136.09806958286759
30
0
40
5.0625000000000142
210
0
220
-0
230
1
0
CIRCLE
5
131
100
AcDbEntity
8
0
100
AcDbCircle
10
262.83736377897952
20
137.58514173561184
30
0
40
5.0625000000000142
210
0
220
-0
230
1
0
CIRCLE
5
132
100
AcDbEntity
8
0
100
AcDbCircle
10
-392.95617714411992
20
-122.65248499466861
30
0
40
5.0625000000000142
210
0
220
-0
230
1
0
ENDSEC
0
SECTION
2
OBJECTS
0
DICTIONARY
5
C
100
AcDbDictionary
3
ACAD_GROUP
350
D
3
ACAD_MLINESTYLE
350
17
0
DICTIONARY
5
D
100
AcDbDictionary
0
DICTIONARY
5
1A
330
C
100
AcDbDictionary
0
DICTIONARY
5
17
100
AcDbDictionary
0
ENDSEC
0
EOF
