0
SECTION
2
HEADER
9
$INSUNITS
70
4
9
$ACADVER
1
AC1014
9
$HANDSEED
5
FFFF
0
ENDSEC
0
SECTION
2
TABLES
0
TABLE
2
VPORT
5
8
100
AcDbSymbolTable
0
ENDTAB
0
TABLE
2
LTYPE
5
5
100
AcDbSymbolTable
0
LTYPE
5
14
100
AcDbSymbolTableRecord
100
AcDbLinetypeTableRecord
2
BYBLOCK
70
0
0
LTYPE
5
15
100
AcDbSymbolTableRecord
100
AcDbLinetypeTableRecord
2
BYLAYER
70
0
0
LTYPE
5
16
100
AcDbSymbolTableRecord
100
AcDbLinetypeTableRecord
2
DASHED
70
0
3
Dashed __ __ __ __ __ __ __ __ __ __ __ __ __ _
72
65
73
2
40
0.75
49
0.5
74
0
49
-0.25
74
0
0
ENDTAB
0
TABLE
2
LAYER
5
2
100
AcDbSymbolTable
70
2
0
LAYER
5
50
100
AcDbSymbolTableRecord
100
AcDbLayerTableRecord
2
0
70
0
62
7
6
CONTINUOUS
0
ENDTAB
0
TABLE
2
STYLE
5
3
100
AcDbSymbolTable
70
1
0
STYLE
5
11
100
AcDbSymbolTableRecord
100
AcDbTextStyleTableRecord
2
STANDARD
70
0
0
ENDTAB
0
TABLE
2
VIEW
5
6
100
AcDbSymbolTable
70
0
0
ENDTAB
0
TABLE
2
UCS
5
7
100
AcDbSymbolTable
70
0
0
ENDTAB
0
TABLE
2
APPID
5
9
100
AcDbSymbolTable
70
2
0
APPID
5
12
100
AcDbSymbolTableRecord
100
AcDbRegAppTableRecord
2
ACAD
70
0
0
ENDTAB
0
TABLE
2
DIMSTYLE
5
A
100
AcDbSymbolTable
70
1
0
ENDTAB
0
TABLE
2
BLOCK_RECORD
5
1
100
AcDbSymbolTable
70
1
0
BLOCK_RECORD
5
1F
100
AcDbSymbolTableRecord
100
AcDbBlockTableRecord
2
*MODEL_SPACE
0
BLOCK_RECORD
5
1B
100
AcDbSymbolTableRecord
100
AcDbBlockTableRecord
2
*PAPER_SPACE
0
ENDTAB
0
ENDSEC
0
SECTION
2
BLOCKS
0
BLOCK
5
20
100
AcDbEntity
100
AcDbBlockBegin
2
*MODEL_SPACE
0
ENDBLK
5
21
100
AcDbEntity
100
AcDbBlockEnd
0
BLOCK
5
1C
100
AcDbEntity
100
AcDbBlockBegin
2
*PAPER_SPACE
0
ENDBLK
5
1D
100
AcDbEntity
100
AcDbBlockEnd
0
ENDSEC
0
SECTION
2
ENTITIES
0
CIRCLE
5
100
100
AcDbEntity
8
0
100
AcDbCircle
10
70.000000000000114
20
134.00000000000003
30
0
40
1.4499999999999957
210
0
220
-0
230
1
0
CIRCLE
5
101
100
AcDbEntity
8
0
100
AcDbCircle
10
-280
20
-133.9999999999998
30
0
40
1.4499999999999957
210
0
220
-0
230
1
0
CIRCLE
5
102
100
AcDbEntity
8
0
100
AcDbCircle
10
-140
20
-133.99999999999991
30
0
40
1.4499999999999957
210
0
220
-0
230
1
0
CIRCLE
5
103
100
AcDbEntity
8
0
100
AcDbCircle
10
210.00000000000011
20
134.00000000000003
30
0
40
1.4499999999999957
210
0
220
-0
230
1
0
CIRCLE
5
104
100
AcDbEntity
8
0
100
AcDbCircle
10
350.00000000000006
20
126.01550156722308
30
0
40
1.4500000000000313
210
0
220
-0
230
1
0
CIRCLE
5
105
100
AcDbEntity
8
0
100
AcDbCircle
10
-69.999999999999886
20
134.00000000000009
30
0
40
1.4499999999999957
210
0
220
-0
230
1
0
CIRCLE
5
106
100
AcDbEntity
8
0
100
AcDbCircle
10
140
20
-134.00000000000003
30
0
40
1.4499999999999957
210
0
220
-0
230
1
0
CIRCLE
5
107
100
AcDbEntity
8
0
100
AcDbCircle
10
0
20
-134.00000000000003
30
0
40
1.45
210
0
220
-0
230
1
0
CIRCLE
5
108
100
AcDbEntity
8
0
100
AcDbCircle
10
280
20
-134.00000000000003
30
0
40
1.4499999999999957
210
0
220
-0
230
1
0
CIRCLE
5
109
100
AcDbEntity
8
0
100
AcDbCircle
10
-209.99999999999989
20
134.0000000000002
30
0
40
1.4499999999999957
210
0
220
-0
230
1
0
CIRCLE
5
110
100
AcDbEntity
8
0
100
AcDbCircle
10
434
20
-70.000000000000014
30
0
40
1.4500000000000313
210
0
220
-0
230
1
0
LINE
5
111
100
AcDbEntity
8
0
100
AcDbLine
10
-280
20
150.00000000000003
30
0
11
-279.99999999999994
21
124.99999999999997
31
0
0
LINE
5
112
100
AcDbEntity
8
0
100
AcDbLine
10
-279.99999999999994
20
124.99999999999997
30
0
11
280.00000000000006
21
124.99999999999997
31
0
0
ARC
5
113
100
AcDbEntity
8
0
100
AcDbCircle
10
279.99999999999994
20
69.999999999999986
30
0
40
55.000000000000007
210
0
220
-0
230
1
100
AcDbArc
50
25.833407430901875
51
89.999999999999901
0
LINE
5
114
100
AcDbEntity
8
0
100
AcDbLine
10
329.50356665787325
20
93.966578565775649
30
0
11
401.50226969137395
21
-54.748540912688206
31
0
0
ARC
5
115
100
AcDbEntity
8
0
100
AcDbCircle
10
370
20
-69.999999999999972
30
0
40
35.00000000000005
210
0
220
0
230
1
100
AcDbArc
50
-85.726261957174003
51
25.833407430901815
0
LINE
5
116
100
AcDbEntity
8
0
100
AcDbLine
10
372.60825780463233
20
-104.90267885456036
30
0
11
216.89065795863254
21
-124.56664579115281
31
0
0
ARC
5
117
100
AcDbEntity
8
0
100
AcDbCircle
10
210.00000000000031
20
-70.000000000005187
30
0
40
54.999999999994813
210
0
220
0
230
1
100
AcDbArc
50
269.99999999999972
51
277.19719657035074
0
LINE
5
118
100
AcDbEntity
8
0
100
AcDbLine
10
210
20
-125
30
0
11
-210
21
-125
31
0
0
ARC
5
119
100
AcDbEntity
8
0
100
AcDbCircle
10
-209.99999999999972
20
-69.99999999999531
30
0
40
55.00000000000469
210
0
220
0
230
1
100
AcDbArc
50
262.80280299823465
51
269.99999999999972
0
LINE
5
120
100
AcDbEntity
8
0
100
AcDbLine
10
-216.89065836949845
20
-124.56664573926879
30
0
11
-370
21
-105.23204761506405
31
0
0
LINE
5
121
100
AcDbEntity
8
0
100
AcDbLine
10
-370
20
-105.23204761506405
30
0
11
-370
21
-150
31
0
0
LINE
5
122
100
AcDbEntity
8
0
100
AcDbLine
10
-370
20
-150
30
0
11
369.99999999999994
21
-150
31
0
0
SPLINE
5
123
100
AcDbEntity
8
0
100
AcDbSpline
70
0
71
3
72
21
73
17
74
0
42
0.000000001
43
0.0000000001
44
0.0000000001
40
-8.2893106057836494
40
-8.2893106057836494
40
-8.2893106057836494
40
-8.2893106057836494
40
-8.2032627336782351
40
-8.2032627336782351
40
-7.3344218091952778
40
-7.3344218091952778
40
-5.3038161693788108
40
-5.3038161693788108
40
-2.8882776767740506
40
-2.8882776767740506
40
0
40
0
40
0
40
2.9659151514025694
40
2.9659151514025694
40
3.9216666585635949
40
3.9216666585635949
40
3.9216666585635949
40
3.9216666585635949
10
370
20
-150
30
0
10
371.25017231286478
20
-150
30
0
10
371.61897883467014
20
-149.98543584198401
30
0
10
377.66278159295689
20
-149.82148247263029
30
0
10
382.67157212242819
20
-149.12627108536316
30
0
10
397.93809668894824
20
-145.73947396454886
30
0
10
407.11456217469663
20
-141.43091680982639
30
0
10
423.97161294216198
20
-129.89920624207028
30
0
10
430.94553084527558
20
-122.35348460124905
30
0
10
442.36384279883765
20
-105.0242385360211
30
0
10
445.98584534930728
20
-95.202832559843031
30
0
10
447.77975662436319
20
-85.743846621416381
30
0
10
449.62188858894029
20
-76.030601272022608
30
0
10
449.50483004270427
20
-66.90653224532025
30
0
10
447.77594571210665
20
-55.923384100993133
30
0
10
447.46753963552231
20
-54.341144715345209
30
0
10
446.71685110391718
20
-51.380337354547208
30
0
0
SPLINE
5
124
100
AcDbEntity
8
0
100
AcDbSpline
70
0
71
3
72
8
73
4
74
0
42
0.000000001
43
0.0000000001
44
0.0000000001
40
-109.34076176817609
40
-109.34076176817609
40
-109.34076176817609
40
-109.34076176817609
40
-108.85233223893729
40
-108.85233223893729
40
-108.85233223893729
40
-108.85233223893729
10
446.71685110391718
20
-51.380337354547208
30
0
10
446.33321744668558
20
-49.867239300747663
30
0
10
445.8568570456024
20
-47.988405737211281
30
0
10
445.20483627791515
20
-45.415976469080036
30
0
0
SPLINE
5
125
100
AcDbEntity
8
0
100
AcDbSpline
70
0
71
3
72
14
73
10
74
0
42
0.000000001
43
0.0000000001
44
0.0000000001
40
-108.85233223893729
40
-108.85233223893729
40
-108.85233223893729
40
-108.85233223893729
40
-108.66894484313003
40
-108.66894484313003
40
-106.11028067295925
40
-106.11028067295925
40
-100.18744372413656
40
-100.18744372413656
40
-99.943534680010046
40
-99.943534680010046
40
-99.943534680010046
40
-99.943534680010046
10
445.20483627791515
20
-45.415976469080036
30
0
10
444.9600263648357
20
-44.450123513555091
30
0
10
444.6904562456059
20
-43.386491680781816
30
0
10
440.22421988296543
20
-25.761253866039908
30
0
10
436.66274690998137
20
-11.662883296379402
30
0
10
425.96715081804041
20
30.941208488872597
30
0
10
418.38519686588631
20
61.685411199750462
30
0
10
412.47443374718978
20
86.774865099454075
30
0
10
412.25468529423347
20
87.709762639475102
30
0
10
412.04124664690823
20
88.619662645452721
30
0
0
SPLINE
5
126
100
AcDbEntity
8
0
100
AcDbSpline
70
0
71
3
72
16
73
12
74
0
42
0.000000001
43
0.0000000001
44
0.0000000001
40
-99.943534680010046
40
-99.943534680010046
40
-99.943534680010046
40
-99.943534680010046
40
-99.077751404023289
40
-99.077751404023289
40
-96.795895952167513
40
-96.795895952167513
40
-94.006784164939518
40
-94.006784164939518
40
-90.599793034434555
40
-90.599793034434555
40
-90.169046215580764
40
-90.169046215580764
40
-90.169046215580764
40
-90.169046215580764
10
412.04124664690823
20
88.619662645452721
30
0
10
411.28362155774761
20
91.849457632419487
30
0
10
410.47008774741823
20
94.732270961544586
30
0
10
405.12071035524696
20
109.01264374928239
30
0
10
399.62867377844566
20
117.40794110395697
30
0
10
386.0291199273683
20
132.46599643140718
30
0
10
377.69748211426105
20
138.24538144008895
30
0
10
359.24173792859176
20
147.13222617161918
30
0
10
348.97995244492381
20
149.41837641635632
30
0
10
338.02836673333701
20
149.96340551256972
30
0
10
336.93072423016906
20
150.00000000000003
30
0
10
335.32439554299111
20
150.00000000000003
30
0
0
LINE
5
127
100
AcDbEntity
8
0
100
AcDbLine
10
335.32439554299111
20
150.00000000000003
30
0
11
-280
21
150.00000000000003
31
0
0
CIRCLE
5
128
100
AcDbEntity
8
0
100
AcDbCircle
10
-262.83736377897935
20
137.58514173561201
30
0
40
5.0625000000000142
210
0
220
-0
230
1
0
CIRCLE
5
129
100
AcDbEntity
8
0
100
AcDbCircle
10
344.62633217992482
20
-130.83138183476331
30
0
40
5.0625000000000142
210
0
220
-0
230
1
0
CIRCLE
5
130
100
AcDbEntity
8
0
100
AcDbCircle
10
299.27063152121895
20
136.09806958286748
30
0
40
5.0625000000000142
210
0
220
-0
230
1
0
CIRCLE
5
131
100
AcDbEntity
8
0
100
AcDbCircle
10
-344.62633217992482
20
-130.83138183476314
30
0
40
5.0625000000000142
210
0
220
-0
230
1
0
CIRCLE
5
132
100
AcDbEntity
8
0
100
AcDbCircle
10
392.95617714411992
20
-122.65248499466878
30
0
40
5.0625000000000142
210
0
220
-0
230
1
0
CIRCLE
5
133
100
AcDbEntity
8
0
100
AcDbCircle
10
262.83736377897952
20
137.58514173561184
30
0
40
5.0625000000000142
210
0
220
-0
230
1
0
ENDSEC
0
SECTION
2
OBJECTS
0
DICTIONARY
5
C
100
AcDbDictionary
3
ACAD_GROUP
350
D
3
ACAD_MLINESTYLE
350
17
0
DICTIONARY
5
D
100
AcDbDictionary
0
DICTIONARY
5
1A
330
C
100
AcDbDictionary
0
DICTIONARY
5
17
100
AcDbDictionary
0
ENDSEC
0
EOF
