0
SECTION
2
HEADER
9
$INSUNITS
70
4
9
$ACADVER
1
AC1014
9
$HANDSEED
5
FFFF
0
ENDSEC
0
SECTION
2
TABLES
0
TABLE
2
VPORT
5
8
100
AcDbSymbolTable
0
ENDTAB
0
TABLE
2
LTYPE
5
5
100
AcDbSymbolTable
0
LTYPE
5
14
100
AcDbSymbolTableRecord
100
AcDbLinetypeTableRecord
2
BYBLOCK
70
0
0
LTYPE
5
15
100
AcDbSymbolTableRecord
100
AcDbLinetypeTableRecord
2
BYLAYER
70
0
0
LTYPE
5
16
100
AcDbSymbolTableRecord
100
AcDbLinetypeTableRecord
2
DASHED
70
0
3
Dashed __ __ __ __ __ __ __ __ __ __ __ __ __ _
72
65
73
2
40
0.75
49
0.5
74
0
49
-0.25
74
0
0
ENDTAB
0
TABLE
2
LAYER
5
2
100
AcDbSymbolTable
70
2
0
LAYER
5
50
100
AcDbSymbolTableRecord
100
AcDbLayerTableRecord
2
0
70
0
62
7
6
CONTINUOUS
0
ENDTAB
0
TABLE
2
STYLE
5
3
100
AcDbSymbolTable
70
1
0
STYLE
5
11
100
AcDbSymbolTableRecord
100
AcDbTextStyleTableRecord
2
STANDARD
70
0
0
ENDTAB
0
TABLE
2
VIEW
5
6
100
AcDbSymbolTable
70
0
0
ENDTAB
0
TABLE
2
UCS
5
7
100
AcDbSymbolTable
70
0
0
ENDTAB
0
TABLE
2
APPID
5
9
100
AcDbSymbolTable
70
2
0
APPID
5
12
100
AcDbSymbolTableRecord
100
AcDbRegAppTableRecord
2
ACAD
70
0
0
ENDTAB
0
TABLE
2
DIMSTYLE
5
A
100
AcDbSymbolTable
70
1
0
ENDTAB
0
TABLE
2
BLOCK_RECORD
5
1
100
AcDbSymbolTable
70
1
0
BLOCK_RECORD
5
1F
100
AcDbSymbolTableRecord
100
AcDbBlockTableRecord
2
*MODEL_SPACE
0
BLOCK_RECORD
5
1B
100
AcDbSymbolTableRecord
100
AcDbBlockTableRecord
2
*PAPER_SPACE
0
ENDTAB
0
ENDSEC
0
SECTION
2
BLOCKS
0
BLOCK
5
20
100
AcDbEntity
100
AcDbBlockBegin
2
*MODEL_SPACE
0
ENDBLK
5
21
100
AcDbEntity
100
AcDbBlockEnd
0
BLOCK
5
1C
100
AcDbEntity
100
AcDbBlockBegin
2
*PAPER_SPACE
0
ENDBLK
5
1D
100
AcDbEntity
100
AcDbBlockEnd
0
ENDSEC
0
SECTION
2
ENTITIES
0
CIRCLE
5
100
100
AcDbEntity
8
0
100
AcDbCircle
10
-349.99999999999994
20
126.01550156722337
30
0
40
1.4500000000000313
210
0
220
-0
230
1
0
LINE
5
101
100
AcDbEntity
8
0
100
AcDbLine
10
-279.99999999999994
20
124.99999999999997
30
0
11
-280
21
150.00000000000003
31
0
0
LINE
5
102
100
AcDbEntity
8
0
100
AcDbLine
10
-280
20
150.00000000000003
30
0
11
-335.32439554299106
21
150.00000000000003
31
0
0
SPLINE
5
103
100
AcDbEntity
8
0
100
AcDbSpline
70
0
71
3
72
18
73
14
74
0
42
0.000000001
43
0.0000000001
44
0.0000000001
40
-37.125753740747562
40
-37.125753740747562
40
-37.125753740747562
40
-37.125753740747562
40
-37.051541978859852
40
-37.051541978859852
40
-35.737794361521438
40
-35.737794361521438
40
-31.347445668956087
40
-31.347445668956087
40
-25.999617465499053
40
-25.999617465499053
40
-19.708470205942138
40
-19.708470205942138
40
-19.507304404667053
40
-19.507304404667053
40
-19.507304404667053
40
-19.507304404667053
10
-335.32439554299106
20
150.00000000000003
30
0
10
-335.55298847745212
20
150.00000000000003
30
0
10
-335.77996583298045
20
149.99901088881447
30
0
10
-339.99536506144295
20
149.96277255247043
30
0
10
-343.59299966753269
20
149.63688679189832
30
0
10
-357.8467740252961
20
147.5284183381562
30
0
10
-367.26265333336187
20
143.82479851550565
30
0
10
-384.87979843932072
20
133.42544446031292
30
0
10
-392.4709038819779
20
126.18003069248545
30
0
10
-405.10762005131647
20
109.18144923568425
30
0
10
-409.37371996464401
20
99.363289997736004
30
0
10
-411.85280221708058
20
89.408283317938114
30
0
10
-411.94150813642699
20
89.044853080363211
30
0
10
-412.04124664690812
20
88.619662645452806
30
0
0
SPLINE
5
104
100
AcDbEntity
8
0
100
AcDbSpline
70
0
71
3
72
10
73
6
74
0
42
0.000000001
43
0.0000000001
44
0.0000000001
40
-19.507304404667053
40
-19.507304404667053
40
-19.507304404667053
40
-19.507304404667053
40
-16.759271292653413
40
-16.759271292653413
40
-15.275106771993631
40
-15.275106771993631
40
-15.275106771993631
40
-15.275106771993631
10
-412.04124664690812
20
88.619662645452806
30
0
10
-413.40372837893005
20
82.811332468856222
30
0
10
-417.37441112349063
20
65.607109025423284
30
0
10
-434.38599830615453
20
-2.7116667649465032
30
0
10
-439.71470801081517
20
-23.755674619834398
30
0
10
-445.20483627791521
20
-45.415976469080434
30
0
0
SPLINE
5
105
100
AcDbEntity
8
0
100
AcDbSpline
70
0
71
3
72
10
73
6
74
0
42
0.000000001
43
0.0000000001
44
0.0000000001
40
-15.275106771993631
40
-15.275106771993631
40
-15.275106771993631
40
-15.275106771993631
40
-15.166414907308885
40
-15.166414907308885
40
-15.141768859214995
40
-15.141768859214995
40
-15.141768859214995
40
-15.141768859214995
10
-445.20483627791521
20
-45.415976469080434
30
0
10
-445.60690240360606
20
-47.002255190109537
30
0
10
-446.00987099943808
20
-48.591829954118502
30
0
10
-446.50571585688681
20
-50.547585134974319
30
0
10
-446.60679170186546
20
-50.946249615091403
30
0
10
-446.71685110391718
20
-51.380337354547208
30
0
0
SPLINE
5
106
100
AcDbEntity
8
0
100
AcDbSpline
70
0
71
3
72
18
73
14
74
0
42
0.000000001
43
0.0000000001
44
0.0000000001
40
-15.141768859214995
40
-15.141768859214995
40
-15.141768859214995
40
-15.141768859214995
40
-14.951711920759504
40
-14.951711920759504
40
-14.659539652941199
40
-14.659539652941199
40
-14.311791818141488
40
-14.311791818141488
40
-13.895704627965959
40
-13.895704627965959
40
-13.40421481434789
40
-13.40421481434789
40
-13.336527277612792
40
-13.336527277612792
40
-13.336527277612792
40
-13.336527277612792
10
-446.71685110391718
20
-51.380337354547208
30
0
10
-447.56556944295937
20
-54.727786262694387
30
0
10
-448.75793910636128
20
-60.229956777032889
30
0
10
-449.583980335972
20
-78.292560220153717
30
0
10
-447.81952490557967
20
-88.274755229856623
30
0
10
-441.07914001518731
20
-107.56565920459281
30
0
10
-435.60614558414898
20
-116.27034543901581
30
0
10
-421.83209646224554
20
-131.82423359060959
30
0
10
-413.27750295863922
20
-137.88600371683771
30
0
10
-394.34634182182253
20
-147.04245671752429
30
0
10
-384.05022507840556
20
-149.34992878965969
30
0
10
-373.02888085634726
20
-149.95369134994451
30
0
10
-372.02779807248561
20
-150
30
0
10
-369.99999999999977
20
-150
30
0
0
LINE
5
107
100
AcDbEntity
8
0
100
AcDbLine
10
-369.99999999999977
20
-150
30
0
11
-370
21
-105.23204761506405
31
0
0
LINE
5
108
100
AcDbEntity
8
0
100
AcDbLine
10
-370
20
-105.23204761506405
30
0
11
-372.6082346972467
21
-104.90268058136226
31
0
0
ARC
5
109
100
AcDbEntity
8
0
100
AcDbCircle
10
-370
20
-70.000000000000014
30
0
40
34.999999999999972
210
0
220
0
230
1
100
AcDbArc
50
154.16659256909801
51
265.72629988995493
0
LINE
5
110
100
AcDbEntity
8
0
100
AcDbLine
10
-401.50226969137384
20
-54.748540912688199
30
0
11
-329.50356665787325
21
93.966578565775691
31
0
0
ARC
5
111
100
AcDbEntity
8
0
100
AcDbCircle
10
-280
20
69.999999999999943
30
0
40
55.000000000000028
210
0
220
-0
230
1
100
AcDbArc
50
89.999999999999943
51
154.16659256909804
0
CIRCLE
5
112
100
AcDbEntity
8
0
100
AcDbCircle
10
-392.95617714411992
20
-122.65248499466861
30
0
40
5.0625000000000142
210
0
220
-0
230
1
0
CIRCLE
5
113
100
AcDbEntity
8
0
100
AcDbCircle
10
-299.27063152121883
20
136.09806958286759
30
0
40
5.0625000000000142
210
0
220
-0
230
1
0
ENDSEC
0
SECTION
2
OBJECTS
0
DICTIONARY
5
C
100
AcDbDictionary
3
ACAD_GROUP
350
D
3
ACAD_MLINESTYLE
350
17
0
DICTIONARY
5
D
100
AcDbDictionary
0
DICTIONARY
5
1A
330
C
100
AcDbDictionary
0
DICTIONARY
5
17
100
AcDbDictionary
0
ENDSEC
0
EOF
