0
SECTION
2
HEADER
9
$INSUNITS
70
4
9
$ACADVER
1
AC1014
9
$HANDSEED
5
FFFF
0
ENDSEC
0
SECTION
2
TABLES
0
TABLE
2
VPORT
5
8
100
AcDbSymbolTable
0
ENDTAB
0
TABLE
2
LTYPE
5
5
100
AcDbSymbolTable
0
LTYPE
5
14
100
AcDbSymbolTableRecord
100
AcDbLinetypeTableRecord
2
BYBLOCK
70
0
0
LTYPE
5
15
100
AcDbSymbolTableRecord
100
AcDbLinetypeTableRecord
2
BYLAYER
70
0
0
LTYPE
5
16
100
AcDbSymbolTableRecord
100
AcDbLinetypeTableRecord
2
DASHED
70
0
3
Dashed __ __ __ __ __ __ __ __ __ __ __ __ __ _
72
65
73
2
40
0.75
49
0.5
74
0
49
-0.25
74
0
0
ENDTAB
0
TABLE
2
LAYER
5
2
100
AcDbSymbolTable
70
2
0
LAYER
5
50
100
AcDbSymbolTableRecord
100
AcDbLayerTableRecord
2
0
70
0
62
7
6
CONTINUOUS
0
ENDTAB
0
TABLE
2
STYLE
5
3
100
AcDbSymbolTable
70
1
0
STYLE
5
11
100
AcDbSymbolTableRecord
100
AcDbTextStyleTableRecord
2
STANDARD
70
0
0
ENDTAB
0
TABLE
2
VIEW
5
6
100
AcDbSymbolTable
70
0
0
ENDTAB
0
TABLE
2
UCS
5
7
100
AcDbSymbolTable
70
0
0
ENDTAB
0
TABLE
2
APPID
5
9
100
AcDbSymbolTable
70
2
0
APPID
5
12
100
AcDbSymbolTableRecord
100
AcDbRegAppTableRecord
2
ACAD
70
0
0
ENDTAB
0
TABLE
2
DIMSTYLE
5
A
100
AcDbSymbolTable
70
1
0
ENDTAB
0
TABLE
2
BLOCK_RECORD
5
1
100
AcDbSymbolTable
70
1
0
BLOCK_RECORD
5
1F
100
AcDbSymbolTableRecord
100
AcDbBlockTableRecord
2
*MODEL_SPACE
0
BLOCK_RECORD
5
1B
100
AcDbSymbolTableRecord
100
AcDbBlockTableRecord
2
*PAPER_SPACE
0
ENDTAB
0
ENDSEC
0
SECTION
2
BLOCKS
0
BLOCK
5
20
100
AcDbEntity
100
AcDbBlockBegin
2
*MODEL_SPACE
0
ENDBLK
5
21
100
AcDbEntity
100
AcDbBlockEnd
0
BLOCK
5
1C
100
AcDbEntity
100
AcDbBlockBegin
2
*PAPER_SPACE
0
ENDBLK
5
1D
100
AcDbEntity
100
AcDbBlockEnd
0
ENDSEC
0
SECTION
2
ENTITIES
0
CIRCLE
5
100
100
AcDbEntity
8
0
100
AcDbCircle
10
350.00000000000006
20
126.01550156722308
30
0
40
1.4500000000000313
210
0
220
-0
230
1
0
CIRCLE
5
101
100
AcDbEntity
8
0
100
AcDbCircle
10
434
20
-70.000000000000014
30
0
40
1.4500000000000313
210
0
220
-0
230
1
0
LINE
5
102
100
AcDbEntity
8
0
100
AcDbLine
10
370
20
-105.23204878630298
30
0
11
369.99999999999994
21
-150
31
0
0
SPLINE
5
103
100
AcDbEntity
8
0
100
AcDbSpline
70
0
71
3
72
21
73
17
74
0
42
0.000000001
43
0.0000000001
44
0.0000000001
40
-10.456081620565879
40
-10.456081620565879
40
-10.456081620565879
40
-10.456081620565879
40
-10.327579979023023
40
-10.327579979023023
40
-8.9210185470887495
40
-8.9210185470887495
40
-6.0576170959915441
40
-6.0576170959915441
40
-3.0915954826898155
40
-3.0915954826898155
40
0
40
0
40
0
40
3.0583822207613309
40
3.0583822207613309
40
3.2540724033535753
40
3.2540724033535753
40
3.2540724033535753
40
3.2540724033535753
10
369.99999999999994
20
-150
30
0
10
371.03951026130949
20
-150
30
0
10
371.4378722008546
20
-149.98842298315625
30
0
10
377.04406111017715
20
-149.85434332774051
30
0
10
382.0972198018261
20
-149.23695232958005
30
0
10
396.9907365468577
20
-145.97999077015766
30
0
10
406.34055339187728
20
-141.91583353578335
30
0
10
423.15784553316604
20
-130.47503670530534
30
0
10
430.38102013947884
20
-123.09983504803709
30
0
10
441.78632784561546
20
-105.8767546270319
30
0
10
445.71113518528728
20
-96.117614688681172
30
0
10
447.65231392314917
20
-85.996774314988755
30
0
10
449.572638419817
20
-75.984662953274139
30
0
10
449.53686192709483
20
-65.702831818371209
30
0
10
447.44382869454944
20
-55.056215362665704
30
0
10
447.33272902742783
20
-54.484646702310386
30
0
10
447.03849045972686
20
-53.204444785622783
30
0
0
SPLINE
5
104
100
AcDbEntity
8
0
100
AcDbSpline
70
0
71
3
72
8
73
4
74
0
42
0.000000001
43
0.0000000001
44
0.0000000001
40
-85.059526647026118
40
-85.059526647026118
40
-85.059526647026118
40
-85.059526647026118
40
-84.920383580316894
40
-84.920383580316894
40
-84.920383580316894
40
-84.920383580316894
10
447.03849045972686
20
-53.204444785622783
30
0
10
446.82927579135821
20
-52.294173159651081
30
0
10
446.53720461469993
20
-51.023416987184888
30
0
10
446.09781154727966
20
-49.111234135259352
30
0
0
SPLINE
5
105
100
AcDbEntity
8
0
100
AcDbSpline
70
0
71
3
72
14
73
10
74
0
42
0.000000001
43
0.0000000001
44
0.0000000001
40
-84.920383580316894
40
-84.920383580316894
40
-84.920383580316894
40
-84.920383580316894
40
-84.856572616993446
40
-84.856572616993446
40
-84.111365745337253
40
-84.111365745337253
40
-82.651876836124131
40
-82.651876836124131
40
-82.26280070219849
40
-82.26280070219849
40
-82.26280070219849
40
-82.26280070219849
10
446.09781154727966
20
-49.111234135259352
30
0
10
445.8963060351989
20
-48.234307726220685
30
0
10
445.66381870579687
20
-47.222480074520774
30
0
10
442.24495282515028
20
-32.3402318745987
30
0
10
439.2434514565997
20
-19.247101475257221
30
0
10
430.40187389734899
20
19.605293533652908
30
0
10
424.03654015928106
20
47.960612836176836
30
0
10
417.1537189241235
20
80.14055672406927
30
0
10
416.33120180182169
20
84.065935963399738
30
0
10
415.75994152253458
20
86.795555214382489
30
0
0
SPLINE
5
106
100
AcDbEntity
8
0
100
AcDbSpline
70
0
71
3
72
16
73
12
74
0
42
0.000000001
43
0.0000000001
44
0.0000000001
40
-82.26280070219849
40
-82.26280070219849
40
-82.26280070219849
40
-82.26280070219849
40
-81.785399935743996
40
-81.785399935743996
40
-80.109522375727721
40
-80.109522375727721
40
-78.377036859729472
40
-78.377036859729472
40
-76.547605315810884
40
-76.547605315810884
40
-75.927039484189734
40
-75.927039484189734
40
-75.927039484189734
40
-75.927039484189734
10
415.75994152253458
20
86.795555214382489
30
0
10
415.05899877278273
20
90.144828554281432
30
0
10
414.63635881080904
20
91.672543878538164
30
0
10
410.76588101253117
20
104.09126460260977
30
0
10
406.02733754437236
20
112.97697788230364
30
0
10
393.45089543357665
20
128.6676285952349
30
0
10
385.65579916556766
20
135.21627358829551
30
0
10
367.72704016868312
20
145.22412851556041
30
0
10
357.694391365858
20
148.3771650425133
30
0
10
343.97357453705115
20
149.90314986551306
30
0
10
341.64204387233241
20
150.00000000000003
30
0
10
338.72145106280891
20
150.00000000000003
30
0
0
LINE
5
107
100
AcDbEntity
8
0
100
AcDbLine
10
338.72145106280891
20
150.00000000000003
30
0
11
280.00000000000006
21
150.00000000000003
31
0
0
LINE
5
108
100
AcDbEntity
8
0
100
AcDbLine
10
280.00000000000006
20
150.00000000000003
30
0
11
280
21
124.99999999999997
31
0
0
ARC
5
109
100
AcDbEntity
8
0
100
AcDbCircle
10
279.99999999999994
20
69.999999999999986
30
0
40
55.000000000000007
210
0
220
-0
230
1
100
AcDbArc
50
25.833407430901875
51
89.999999999999943
0
LINE
5
110
100
AcDbEntity
8
0
100
AcDbLine
10
329.50356665787325
20
93.966578565775649
30
0
11
401.50226969137395
21
-54.748540912688206
31
0
0
ARC
5
111
100
AcDbEntity
8
0
100
AcDbCircle
10
370
20
-69.999999999999972
30
0
40
35.00000000000005
210
0
220
0
230
1
100
AcDbArc
50
-85.726261957174003
51
25.833407430901815
0
LINE
5
112
100
AcDbEntity
8
0
100
AcDbLine
10
372.60825780463233
20
-104.90267885456036
30
0
11
370
21
-105.23204878630298
31
0
0
CIRCLE
5
113
100
AcDbEntity
8
0
100
AcDbCircle
10
392.95617714411992
20
-122.65248499466878
30
0
40
5.0625000000000142
210
0
220
-0
230
1
0
CIRCLE
5
114
100
AcDbEntity
8
0
100
AcDbCircle
10
299.27063152121895
20
136.09806958286748
30
0
40
5.0625000000000142
210
0
220
-0
230
1
0
ENDSEC
0
SECTION
2
OBJECTS
0
DICTIONARY
5
C
100
AcDbDictionary
3
ACAD_GROUP
350
D
3
ACAD_MLINESTYLE
350
17
0
DICTIONARY
5
D
100
AcDbDictionary
0
DICTIONARY
5
1A
330
C
100
AcDbDictionary
0
DICTIONARY
5
17
100
AcDbDictionary
0
ENDSEC
0
EOF
