0
SECTION
2
HEADER
9
$INSUNITS
70
4
9
$ACADVER
1
AC1014
9
$HANDSEED
5
FFFF
0
ENDSEC
0
SECTION
2
TABLES
0
TABLE
2
VPORT
5
8
100
AcDbSymbolTable
0
ENDTAB
0
TABLE
2
LTYPE
5
5
100
AcDbSymbolTable
0
LTYPE
5
14
100
AcDbSymbolTableRecord
100
AcDbLinetypeTableRecord
2
BYBLOCK
70
0
0
LTYPE
5
15
100
AcDbSymbolTableRecord
100
AcDbLinetypeTableRecord
2
BYLAYER
70
0
0
LTYPE
5
16
100
AcDbSymbolTableRecord
100
AcDbLinetypeTableRecord
2
DASHED
70
0
3
Dashed __ __ __ __ __ __ __ __ __ __ __ __ __ _
72
65
73
2
40
0.75
49
0.5
74
0
49
-0.25
74
0
0
ENDTAB
0
TABLE
2
LAYER
5
2
100
AcDbSymbolTable
70
2
0
LAYER
5
50
100
AcDbSymbolTableRecord
100
AcDbLayerTableRecord
2
0
70
0
62
7
6
CONTINUOUS
0
ENDTAB
0
TABLE
2
STYLE
5
3
100
AcDbSymbolTable
70
1
0
STYLE
5
11
100
AcDbSymbolTableRecord
100
AcDbTextStyleTableRecord
2
STANDARD
70
0
0
ENDTAB
0
TABLE
2
VIEW
5
6
100
AcDbSymbolTable
70
0
0
ENDTAB
0
TABLE
2
UCS
5
7
100
AcDbSymbolTable
70
0
0
ENDTAB
0
TABLE
2
APPID
5
9
100
AcDbSymbolTable
70
2
0
APPID
5
12
100
AcDbSymbolTableRecord
100
AcDbRegAppTableRecord
2
ACAD
70
0
0
ENDTAB
0
TABLE
2
DIMSTYLE
5
A
100
AcDbSymbolTable
70
1
0
ENDTAB
0
TABLE
2
BLOCK_RECORD
5
1
100
AcDbSymbolTable
70
1
0
BLOCK_RECORD
5
1F
100
AcDbSymbolTableRecord
100
AcDbBlockTableRecord
2
*MODEL_SPACE
0
BLOCK_RECORD
5
1B
100
AcDbSymbolTableRecord
100
AcDbBlockTableRecord
2
*PAPER_SPACE
0
ENDTAB
0
ENDSEC
0
SECTION
2
BLOCKS
0
BLOCK
5
20
100
AcDbEntity
100
AcDbBlockBegin
2
*MODEL_SPACE
0
ENDBLK
5
21
100
AcDbEntity
100
AcDbBlockEnd
0
BLOCK
5
1C
100
AcDbEntity
100
AcDbBlockBegin
2
*PAPER_SPACE
0
ENDBLK
5
1D
100
AcDbEntity
100
AcDbBlockEnd
0
ENDSEC
0
SECTION
2
ENTITIES
0
CIRCLE
5
100
100
AcDbEntity
8
0
100
AcDbCircle
10
70.000000000000114
20
134.00000000000003
30
0
40
1.4499999999999957
210
0
220
-0
230
1
0
CIRCLE
5
101
100
AcDbEntity
8
0
100
AcDbCircle
10
-349.99999999999994
20
126.01550156722337
30
0
40
1.4500000000000313
210
0
220
-0
230
1
0
CIRCLE
5
102
100
AcDbEntity
8
0
100
AcDbCircle
10
-280
20
-133.9999999999998
30
0
40
1.4499999999999957
210
0
220
-0
230
1
0
CIRCLE
5
103
100
AcDbEntity
8
0
100
AcDbCircle
10
-140
20
-133.99999999999991
30
0
40
1.4499999999999957
210
0
220
-0
230
1
0
CIRCLE
5
104
100
AcDbEntity
8
0
100
AcDbCircle
10
210.00000000000011
20
134.00000000000003
30
0
40
1.4499999999999957
210
0
220
-0
230
1
0
CIRCLE
5
105
100
AcDbEntity
8
0
100
AcDbCircle
10
-69.999999999999886
20
134.00000000000009
30
0
40
1.4499999999999957
210
0
220
-0
230
1
0
CIRCLE
5
106
100
AcDbEntity
8
0
100
AcDbCircle
10
140
20
-134.00000000000003
30
0
40
1.4499999999999957
210
0
220
-0
230
1
0
CIRCLE
5
107
100
AcDbEntity
8
0
100
AcDbCircle
10
0
20
-134.00000000000003
30
0
40
1.45
210
0
220
-0
230
1
0
CIRCLE
5
108
100
AcDbEntity
8
0
100
AcDbCircle
10
280
20
-134.00000000000003
30
0
40
1.4499999999999957
210
0
220
-0
230
1
0
CIRCLE
5
109
100
AcDbEntity
8
0
100
AcDbCircle
10
-209.99999999999989
20
134.0000000000002
30
0
40
1.4499999999999957
210
0
220
-0
230
1
0
LINE
5
110
100
AcDbEntity
8
0
100
AcDbLine
10
369.99999999999994
20
-150
30
0
11
370
21
-105.23204878630298
31
0
0
LINE
5
111
100
AcDbEntity
8
0
100
AcDbLine
10
370
20
-105.23204878630298
30
0
11
216.89065795863254
21
-124.56664579115281
31
0
0
ARC
5
112
100
AcDbEntity
8
0
100
AcDbCircle
10
210.00000000000031
20
-70.000000000005187
30
0
40
54.999999999994813
210
0
220
0
230
1
100
AcDbArc
50
269.99999999999972
51
277.19719657035074
0
LINE
5
113
100
AcDbEntity
8
0
100
AcDbLine
10
210
20
-125
30
0
11
-210
21
-125
31
0
0
ARC
5
114
100
AcDbEntity
8
0
100
AcDbCircle
10
-209.99999999999972
20
-69.99999999999531
30
0
40
55.00000000000469
210
0
220
0
230
1
100
AcDbArc
50
262.80280299823465
51
269.99999999999972
0
LINE
5
115
100
AcDbEntity
8
0
100
AcDbLine
10
-216.89065836949845
20
-124.56664573926879
30
0
11
-372.6082346972467
21
-104.90268058136226
31
0
0
ARC
5
116
100
AcDbEntity
8
0
100
AcDbCircle
10
-370
20
-70.000000000000014
30
0
40
34.999999999999972
210
0
220
0
230
1
100
AcDbArc
50
154.16659256909801
51
265.72629988995493
0
LINE
5
117
100
AcDbEntity
8
0
100
AcDbLine
10
-401.50226969137384
20
-54.748540912688199
30
0
11
-329.50356665787325
21
93.966578565775691
31
0
0
ARC
5
118
100
AcDbEntity
8
0
100
AcDbCircle
10
-280
20
69.999999999999943
30
0
40
55.000000000000028
210
0
220
-0
230
1
100
AcDbArc
50
89.999999999999943
51
154.16659256909804
0
LINE
5
119
100
AcDbEntity
8
0
100
AcDbLine
10
-279.99999999999994
20
124.99999999999997
30
0
11
280.00000000000006
21
124.99999999999997
31
0
0
LINE
5
120
100
AcDbEntity
8
0
100
AcDbLine
10
280.00000000000006
20
124.99999999999997
30
0
11
280
21
150.00000000000003
31
0
0
LINE
5
121
100
AcDbEntity
8
0
100
AcDbLine
10
280
20
150.00000000000003
30
0
11
-338.7214510628088
21
150.00000000000003
31
0
0
SPLINE
5
122
100
AcDbEntity
8
0
100
AcDbSpline
70
0
71
3
72
16
73
12
74
0
42
0.000000001
43
0.0000000001
44
0.0000000001
40
-34.769081551155757
40
-34.769081551155757
40
-34.769081551155757
40
-34.769081551155757
40
-34.225687452590151
40
-34.225687452590151
40
-33.288746924312065
40
-33.288746924312065
40
-32.294731045983838
40
-32.294731045983838
40
-31.259883469292191
40
-31.259883469292191
40
-31.230387595881197
40
-31.230387595881197
40
-31.230387595881197
40
-31.230387595881197
10
-338.7214510628088
20
150.00000000000003
30
0
10
-342.00509639728699
20
150.00000000000003
30
0
10
-346.40341278663243
20
149.8499485814136
30
0
10
-362.30779057327737
20
147.0815685983971
30
0
10
-371.80378523352317
20
143.40629460113456
30
0
10
-389.25265465570737
20
132.49562341825052
30
0
10
-396.87548474998016
20
125.18732800766739
30
0
10
-409.03287569898515
20
107.8903137656978
30
0
10
-413.28164984833023
20
98.022068156462126
30
0
10
-415.62556238406626
20
87.428004538053187
30
0
10
-415.68772107065973
20
87.140641933868409
30
0
10
-415.7599415225344
20
86.795555214382574
30
0
0
SPLINE
5
123
100
AcDbEntity
8
0
100
AcDbSpline
70
0
71
3
72
14
73
10
74
0
42
0.000000001
43
0.0000000001
44
0.0000000001
40
-31.230387595881197
40
-31.230387595881197
40
-31.230387595881197
40
-31.230387595881197
40
-31.134553652685923
40
-31.134553652685923
40
-30.893232482808273
40
-30.893232482808273
40
-30.374810884069962
40
-30.374810884069962
40
-30.107880638992434
40
-30.107880638992434
40
-30.107880638992434
40
-30.107880638992434
10
-415.7599415225344
20
86.795555214382574
30
0
10
-415.9945903015705
20
85.674346813063579
30
0
10
-416.35395497406415
20
83.947666464930649
30
0
10
-419.72344220738682
20
68.049951180190249
30
0
10
-422.23453701247388
20
56.510151105737748
30
0
10
-429.93798738401847
20
21.599914624577067
30
0
10
-435.56126959667694
20
-3.1426684131213145
30
0
10
-443.59969761196623
20
-38.248698824829923
30
0
10
-445.15556171951141
20
-45.010682496002438
30
0
10
-446.09781154728
20
-49.111234135260332
30
0
0
SPLINE
5
124
100
AcDbEntity
8
0
100
AcDbSpline
70
0
71
3
72
8
73
4
74
0
42
0.000000001
43
0.0000000001
44
0.0000000001
40
-30.107880638992434
40
-30.107880638992434
40
-30.107880638992434
40
-30.107880638992434
40
-29.989911471956354
40
-29.989911471956354
40
-29.989911471956354
40
-29.989911471956354
10
-446.09781154728
20
-49.111234135260332
30
0
10
-446.51423654733742
20
-50.923462873637966
30
0
10
-446.81125471086034
20
-52.21576528139687
30
0
10
-447.03849045972561
20
-53.204444785617433
30
0
0
SPLINE
5
125
100
AcDbEntity
8
0
100
AcDbSpline
70
0
71
3
72
20
73
16
74
0
42
0.000000001
43
0.0000000001
44
0.0000000001
40
-29.989911471956354
40
-29.989911471956354
40
-29.989911471956354
40
-29.989911471956354
40
-29.763335193455191
40
-29.763335193455191
40
-29.081131417301474
40
-29.081131417301474
40
-27.145218293505824
40
-27.145218293505824
40
-25.139378296050118
40
-25.139378296050118
40
-23.04833523853614
40
-23.04833523853614
40
-20.89191902174672
40
-20.89191902174672
40
-20.648824881385575
40
-20.648824881385575
40
-20.648824881385575
40
-20.648824881385575
10
-447.03849045972561
20
-53.204444785617433
30
0
10
-447.47492848513411
20
-55.103342000244368
30
0
10
-447.61713690679642
20
-55.890573261878302
30
0
10
-448.47808953443808
20
-60.722357200550398
30
0
10
-448.86560645818349
20
-64.347410462742857
30
0
10
-449.40984953975322
20
-78.155587075851614
30
0
10
-447.83767021897808
20
-88.218359058125216
30
0
10
-441.01315798321798
20
-107.36833983432678
30
0
10
-435.70090327757333
20
-116.21415735227528
30
0
10
-421.91783040018277
20
-131.59146367075749
30
0
10
-413.46659898488639
20
-137.85213036844678
30
0
10
-394.57697263156751
20
-146.85710589871837
30
0
10
-384.28163279458261
20
-149.39505482029722
30
0
10
-372.73984088788688
20
-149.96153414620932
30
0
10
-372.01339884510253
20
-150
30
0
10
-370
20
-150
30
0
0
LINE
5
126
100
AcDbEntity
8
0
100
AcDbLine
10
-369.99999999999994
20
-150
30
0
11
369.99999999999994
21
-150
31
0
0
CIRCLE
5
127
100
AcDbEntity
8
0
100
AcDbCircle
10
-262.83736377897935
20
137.58514173561201
30
0
40
5.0625000000000142
210
0
220
-0
230
1
0
CIRCLE
5
128
100
AcDbEntity
8
0
100
AcDbCircle
10
344.62633217992482
20
-130.83138183476331
30
0
40
5.0625000000000142
210
0
220
-0
230
1
0
CIRCLE
5
129
100
AcDbEntity
8
0
100
AcDbCircle
10
-344.62633217992482
20
-130.83138183476314
30
0
40
5.0625000000000142
210
0
220
-0
230
1
0
CIRCLE
5
130
100
AcDbEntity
8
0
100
AcDbCircle
10
-299.27063152121883
20
136.09806958286759
30
0
40
5.0625000000000142
210
0
220
-0
230
1
0
CIRCLE
5
131
100
AcDbEntity
8
0
100
AcDbCircle
10
262.83736377897952
20
137.58514173561184
30
0
40
5.0625000000000142
210
0
220
-0
230
1
0
CIRCLE
5
132
100
AcDbEntity
8
0
100
AcDbCircle
10
-392.95617714411992
20
-122.65248499466861
30
0
40
5.0625000000000142
210
0
220
-0
230
1
0
ENDSEC
0
SECTION
2
OBJECTS
0
DICTIONARY
5
C
100
AcDbDictionary
3
ACAD_GROUP
350
D
3
ACAD_MLINESTYLE
350
17
0
DICTIONARY
5
D
100
AcDbDictionary
0
DICTIONARY
5
1A
330
C
100
AcDbDictionary
0
DICTIONARY
5
17
100
AcDbDictionary
0
ENDSEC
0
EOF
