0
SECTION
2
HEADER
9
$INSUNITS
70
4
9
$ACADVER
1
AC1014
9
$HANDSEED
5
FFFF
0
ENDSEC
0
SECTION
2
TABLES
0
TABLE
2
VPORT
5
8
100
AcDbSymbolTable
0
ENDTAB
0
TABLE
2
LTYPE
5
5
100
AcDbSymbolTable
0
LTYPE
5
14
100
AcDbSymbolTableRecord
100
AcDbLinetypeTableRecord
2
BYBLOCK
70
0
0
LTYPE
5
15
100
AcDbSymbolTableRecord
100
AcDbLinetypeTableRecord
2
BYLAYER
70
0
0
LTYPE
5
16
100
AcDbSymbolTableRecord
100
AcDbLinetypeTableRecord
2
DASHED
70
0
3
Dashed __ __ __ __ __ __ __ __ __ __ __ __ __ _
72
65
73
2
40
0.75
49
0.5
74
0
49
-0.25
74
0
0
ENDTAB
0
TABLE
2
LAYER
5
2
100
AcDbSymbolTable
70
2
0
LAYER
5
50
100
AcDbSymbolTableRecord
100
AcDbLayerTableRecord
2
0
70
0
62
7
6
CONTINUOUS
0
ENDTAB
0
TABLE
2
STYLE
5
3
100
AcDbSymbolTable
70
1
0
STYLE
5
11
100
AcDbSymbolTableRecord
100
AcDbTextStyleTableRecord
2
STANDARD
70
0
0
ENDTAB
0
TABLE
2
VIEW
5
6
100
AcDbSymbolTable
70
0
0
ENDTAB
0
TABLE
2
UCS
5
7
100
AcDbSymbolTable
70
0
0
ENDTAB
0
TABLE
2
APPID
5
9
100
AcDbSymbolTable
70
2
0
APPID
5
12
100
AcDbSymbolTableRecord
100
AcDbRegAppTableRecord
2
ACAD
70
0
0
ENDTAB
0
TABLE
2
DIMSTYLE
5
A
100
AcDbSymbolTable
70
1
0
ENDTAB
0
TABLE
2
BLOCK_RECORD
5
1
100
AcDbSymbolTable
70
1
0
BLOCK_RECORD
5
1F
100
AcDbSymbolTableRecord
100
AcDbBlockTableRecord
2
*MODEL_SPACE
0
BLOCK_RECORD
5
1B
100
AcDbSymbolTableRecord
100
AcDbBlockTableRecord
2
*PAPER_SPACE
0
ENDTAB
0
ENDSEC
0
SECTION
2
BLOCKS
0
BLOCK
5
20
100
AcDbEntity
100
AcDbBlockBegin
2
*MODEL_SPACE
0
ENDBLK
5
21
100
AcDbEntity
100
AcDbBlockEnd
0
BLOCK
5
1C
100
AcDbEntity
100
AcDbBlockBegin
2
*PAPER_SPACE
0
ENDBLK
5
1D
100
AcDbEntity
100
AcDbBlockEnd
0
ENDSEC
0
SECTION
2
ENTITIES
0
CIRCLE
5
100
100
AcDbEntity
8
0
100
AcDbCircle
10
70.000000000000114
20
134.00000000000003
30
0
40
1.4499999999999957
210
0
220
-0
230
1
0
CIRCLE
5
101
100
AcDbEntity
8
0
100
AcDbCircle
10
-280
20
-133.9999999999998
30
0
40
1.4499999999999957
210
0
220
-0
230
1
0
CIRCLE
5
102
100
AcDbEntity
8
0
100
AcDbCircle
10
-140
20
-133.99999999999991
30
0
40
1.4499999999999957
210
0
220
-0
230
1
0
CIRCLE
5
103
100
AcDbEntity
8
0
100
AcDbCircle
10
210.00000000000011
20
134.00000000000003
30
0
40
1.4499999999999957
210
0
220
-0
230
1
0
CIRCLE
5
104
100
AcDbEntity
8
0
100
AcDbCircle
10
350.00000000000006
20
126.01550156722308
30
0
40
1.4500000000000313
210
0
220
-0
230
1
0
CIRCLE
5
105
100
AcDbEntity
8
0
100
AcDbCircle
10
-69.999999999999886
20
134.00000000000009
30
0
40
1.4499999999999957
210
0
220
-0
230
1
0
CIRCLE
5
106
100
AcDbEntity
8
0
100
AcDbCircle
10
140
20
-134.00000000000003
30
0
40
1.4499999999999957
210
0
220
-0
230
1
0
CIRCLE
5
107
100
AcDbEntity
8
0
100
AcDbCircle
10
0
20
-134.00000000000003
30
0
40
1.45
210
0
220
-0
230
1
0
CIRCLE
5
108
100
AcDbEntity
8
0
100
AcDbCircle
10
280
20
-134.00000000000003
30
0
40
1.4499999999999957
210
0
220
-0
230
1
0
CIRCLE
5
109
100
AcDbEntity
8
0
100
AcDbCircle
10
-209.99999999999989
20
134.0000000000002
30
0
40
1.4499999999999957
210
0
220
-0
230
1
0
CIRCLE
5
110
100
AcDbEntity
8
0
100
AcDbCircle
10
434
20
-70.000000000000014
30
0
40
1.4500000000000313
210
0
220
-0
230
1
0
LINE
5
111
100
AcDbEntity
8
0
100
AcDbLine
10
-279.99999999999994
20
150.00000000000003
30
0
11
-279.99999999999994
21
124.99999999999997
31
0
0
LINE
5
112
100
AcDbEntity
8
0
100
AcDbLine
10
-279.99999999999994
20
124.99999999999997
30
0
11
280.00000000000006
21
124.99999999999997
31
0
0
ARC
5
113
100
AcDbEntity
8
0
100
AcDbCircle
10
279.99999999999994
20
69.999999999999986
30
0
40
55.000000000000007
210
0
220
-0
230
1
100
AcDbArc
50
25.833407430901875
51
89.999999999999901
0
LINE
5
114
100
AcDbEntity
8
0
100
AcDbLine
10
329.50356665787325
20
93.966578565775649
30
0
11
401.50226969137395
21
-54.748540912688206
31
0
0
ARC
5
115
100
AcDbEntity
8
0
100
AcDbCircle
10
370
20
-69.999999999999972
30
0
40
35.00000000000005
210
0
220
0
230
1
100
AcDbArc
50
-85.726261957174003
51
25.833407430901815
0
LINE
5
116
100
AcDbEntity
8
0
100
AcDbLine
10
372.60825780463233
20
-104.90267885456036
30
0
11
216.89065795863254
21
-124.56664579115281
31
0
0
ARC
5
117
100
AcDbEntity
8
0
100
AcDbCircle
10
210.00000000000031
20
-70.000000000005187
30
0
40
54.999999999994813
210
0
220
0
230
1
100
AcDbArc
50
269.99999999999972
51
277.19719657035074
0
LINE
5
118
100
AcDbEntity
8
0
100
AcDbLine
10
210
20
-125
30
0
11
-210
21
-125
31
0
0
ARC
5
119
100
AcDbEntity
8
0
100
AcDbCircle
10
-209.99999999999972
20
-69.99999999999531
30
0
40
55.00000000000469
210
0
220
0
230
1
100
AcDbArc
50
262.80280299823465
51
269.99999999999972
0
LINE
5
120
100
AcDbEntity
8
0
100
AcDbLine
10
-216.89065836949845
20
-124.56664573926879
30
0
11
-370
21
-105.23204761506405
31
0
0
LINE
5
121
100
AcDbEntity
8
0
100
AcDbLine
10
-370
20
-105.23204761506405
30
0
11
-370
21
-150
31
0
0
LINE
5
122
100
AcDbEntity
8
0
100
AcDbLine
10
-370
20
-150
30
0
11
369.99999999999994
21
-150
31
0
0
SPLINE
5
123
100
AcDbEntity
8
0
100
AcDbSpline
70
0
71
3
72
21
73
17
74
0
42
0.000000001
43
0.0000000001
44
0.0000000001
40
-8.168735718612842
40
-8.168735718612842
40
-8.168735718612842
40
-8.168735718612842
40
-8.1187988491419762
40
-8.1187988491419762
40
-7.2937650109645746
40
-7.2937650109645746
40
-5.3157872810110049
40
-5.3157872810110049
40
-2.9039321272483933
40
-2.9039321272483933
40
0
40
0
40
0
40
2.9031002131884236
40
2.9031002131884236
40
3.0980663341779255
40
3.0980663341779255
40
3.0980663341779255
40
3.0980663341779255
10
369.99999999999994
20
-150
30
0
10
370.93372643477301
20
-150
30
0
10
371.11149167734106
20
-149.99297150773972
30
0
10
377.03051887746096
20
-149.88539666395991
30
0
10
382.03898343465016
20
-149.22166851580718
30
0
10
397.4259244584195
20
-145.94590263512734
30
0
10
406.59880696173451
20
-141.67326210693653
30
0
10
423.55312669677829
20
-130.26509701188999
30
0
10
430.5180283485181
20
-122.76207976730966
30
0
10
441.93403713881622
20
-105.70303374201727
30
0
10
445.64658524420543
20
-95.920286651825108
30
0
10
447.51492861062815
20
-86.42253359852738
30
0
10
449.38273673688428
20
-76.927501447081681
30
0
10
449.48951890717547
20
-67.176781367545857
30
0
10
447.74229435402589
20
-56.995686065886837
30
0
10
447.60982132681227
20
-56.241252820056431
30
0
10
447.3601298155337
20
-55.028552216686037
30
0
0
LINE
5
124
100
AcDbEntity
8
0
100
AcDbLine
10
447.3601298155337
20
-55.028552216686037
30
0
11
446.89897694760032
21
-52.788695310728251
31
0
0
SPLINE
5
125
100
AcDbEntity
8
0
100
AcDbSpline
70
0
71
3
72
14
73
10
74
0
42
0.000000001
43
0.0000000001
44
0.0000000001
40
-25.34720970694362
40
-25.34720970694362
40
-25.34720970694362
40
-25.34720970694362
40
-25.129063108352145
40
-25.129063108352145
40
-24.212910160797993
40
-24.212910160797993
40
-21.835562631533641
40
-21.835562631533641
40
-21.79682071513707
40
-21.79682071513707
40
-21.79682071513707
40
-21.79682071513707
10
446.89897694760032
20
-52.788695310728251
30
0
10
446.49126595955283
20
-50.808277506524924
30
0
10
445.91874966292556
20
-48.027525959871213
30
0
10
441.56569929701686
20
-26.862894176243142
30
0
10
438.74228897326441
20
-13.0586086563041
30
0
10
429.8785160481217
20
30.646928546504128
30
0
10
423.98380085781042
20
60.620245789309209
30
0
10
419.63904146513482
20
84.102868029788013
30
0
10
419.56222313183298
20
84.518493745013146
30
0
10
419.47863639816092
20
84.971447783312342
30
0
0
SPLINE
5
126
100
AcDbEntity
8
0
100
AcDbSpline
70
0
71
3
72
16
73
12
74
0
42
0.000000001
43
0.0000000001
44
0.0000000001
40
-21.79682071513707
40
-21.79682071513707
40
-21.79682071513707
40
-21.79682071513707
40
-21.502893564188398
40
-21.502893564188398
40
-21.057000291168197
40
-21.057000291168197
40
-20.512300173714198
40
-20.512300173714198
40
-19.848696381718423
40
-19.848696381718423
40
-19.812181557909256
40
-19.812181557909256
40
-19.812181557909256
40
-19.812181557909256
10
419.47863639816092
20
84.971447783312342
30
0
10
418.84448061108395
20
88.407919242936998
30
0
10
417.62945798580733
20
93.957561015949182
30
0
10
410.83749999099564
20
110.82905267713838
30
0
10
405.17932125381014
20
119.04183444945915
30
0
10
391.27235753406325
20
133.70150866342814
30
0
10
382.78242420366655
20
139.30114884329009
30
0
10
363.98243191989491
20
147.75619153347623
30
0
10
353.7611759716242
20
149.71662024391659
30
0
10
343.71205394206265
20
149.98569438909513
30
0
10
343.14385441859133
20
150.00000000000003
30
0
10
342.11850658262682
20
150.00000000000003
30
0
0
LINE
5
127
100
AcDbEntity
8
0
100
AcDbLine
10
342.11850658262688
20
150.00000000000003
30
0
11
-279.99999999999994
21
150.00000000000003
31
0
0
CIRCLE
5
128
100
AcDbEntity
8
0
100
AcDbCircle
10
-262.83736377897935
20
137.58514173561201
30
0
40
5.0625000000000142
210
0
220
-0
230
1
0
CIRCLE
5
129
100
AcDbEntity
8
0
100
AcDbCircle
10
344.62633217992482
20
-130.83138183476331
30
0
40
5.0625000000000142
210
0
220
-0
230
1
0
CIRCLE
5
130
100
AcDbEntity
8
0
100
AcDbCircle
10
299.27063152121895
20
136.09806958286748
30
0
40
5.0625000000000142
210
0
220
-0
230
1
0
CIRCLE
5
131
100
AcDbEntity
8
0
100
AcDbCircle
10
-344.62633217992482
20
-130.83138183476314
30
0
40
5.0625000000000142
210
0
220
-0
230
1
0
CIRCLE
5
132
100
AcDbEntity
8
0
100
AcDbCircle
10
392.95617714411992
20
-122.65248499466878
30
0
40
5.0625000000000142
210
0
220
-0
230
1
0
CIRCLE
5
133
100
AcDbEntity
8
0
100
AcDbCircle
10
262.83736377897952
20
137.58514173561184
30
0
40
5.0625000000000142
210
0
220
-0
230
1
0
ENDSEC
0
SECTION
2
OBJECTS
0
DICTIONARY
5
C
100
AcDbDictionary
3
ACAD_GROUP
350
D
3
ACAD_MLINESTYLE
350
17
0
DICTIONARY
5
D
100
AcDbDictionary
0
DICTIONARY
5
1A
330
C
100
AcDbDictionary
0
DICTIONARY
5
17
100
AcDbDictionary
0
ENDSEC
0
EOF
