0
SECTION
2
HEADER
9
$INSUNITS
70
4
9
$ACADVER
1
AC1014
9
$HANDSEED
5
FFFF
0
ENDSEC
0
SECTION
2
TABLES
0
TABLE
2
VPORT
5
8
100
AcDbSymbolTable
0
ENDTAB
0
TABLE
2
LTYPE
5
5
100
AcDbSymbolTable
0
LTYPE
5
14
100
AcDbSymbolTableRecord
100
AcDbLinetypeTableRecord
2
BYBLOCK
70
0
0
LTYPE
5
15
100
AcDbSymbolTableRecord
100
AcDbLinetypeTableRecord
2
BYLAYER
70
0
0
LTYPE
5
16
100
AcDbSymbolTableRecord
100
AcDbLinetypeTableRecord
2
DASHED
70
0
3
Dashed __ __ __ __ __ __ __ __ __ __ __ __ __ _
72
65
73
2
40
0.75
49
0.5
74
0
49
-0.25
74
0
0
ENDTAB
0
TABLE
2
LAYER
5
2
100
AcDbSymbolTable
70
2
0
LAYER
5
50
100
AcDbSymbolTableRecord
100
AcDbLayerTableRecord
2
0
70
0
62
7
6
CONTINUOUS
0
ENDTAB
0
TABLE
2
STYLE
5
3
100
AcDbSymbolTable
70
1
0
STYLE
5
11
100
AcDbSymbolTableRecord
100
AcDbTextStyleTableRecord
2
STANDARD
70
0
0
ENDTAB
0
TABLE
2
VIEW
5
6
100
AcDbSymbolTable
70
0
0
ENDTAB
0
TABLE
2
UCS
5
7
100
AcDbSymbolTable
70
0
0
ENDTAB
0
TABLE
2
APPID
5
9
100
AcDbSymbolTable
70
2
0
APPID
5
12
100
AcDbSymbolTableRecord
100
AcDbRegAppTableRecord
2
ACAD
70
0
0
ENDTAB
0
TABLE
2
DIMSTYLE
5
A
100
AcDbSymbolTable
70
1
0
ENDTAB
0
TABLE
2
BLOCK_RECORD
5
1
100
AcDbSymbolTable
70
1
0
BLOCK_RECORD
5
1F
100
AcDbSymbolTableRecord
100
AcDbBlockTableRecord
2
*MODEL_SPACE
0
BLOCK_RECORD
5
1B
100
AcDbSymbolTableRecord
100
AcDbBlockTableRecord
2
*PAPER_SPACE
0
ENDTAB
0
ENDSEC
0
SECTION
2
BLOCKS
0
BLOCK
5
20
100
AcDbEntity
100
AcDbBlockBegin
2
*MODEL_SPACE
0
ENDBLK
5
21
100
AcDbEntity
100
AcDbBlockEnd
0
BLOCK
5
1C
100
AcDbEntity
100
AcDbBlockBegin
2
*PAPER_SPACE
0
ENDBLK
5
1D
100
AcDbEntity
100
AcDbBlockEnd
0
ENDSEC
0
SECTION
2
ENTITIES
0
CIRCLE
5
100
100
AcDbEntity
8
0
100
AcDbCircle
10
-349.99999999999994
20
126.01550156722337
30
0
40
1.4500000000000313
210
0
220
-0
230
1
0
LINE
5
101
100
AcDbEntity
8
0
100
AcDbLine
10
-279.99999999999994
20
124.99999999999997
30
0
11
-279.99999999999994
21
150.00000000000003
31
0
0
LINE
5
102
100
AcDbEntity
8
0
100
AcDbLine
10
-279.99999999999994
20
150.00000000000003
30
0
11
-342.11850658262688
21
150.00000000000003
31
0
0
SPLINE
5
103
100
AcDbEntity
8
0
100
AcDbSpline
70
0
71
3
72
18
73
14
74
0
42
0.000000001
43
0.0000000001
44
0.0000000001
40
-15.002870189474459
40
-15.002870189474459
40
-15.002870189474459
40
-15.002870189474459
40
-14.996560594594838
40
-14.996560594594838
40
-14.862294368291087
40
-14.862294368291087
40
-14.439167805714025
40
-14.439167805714025
40
-13.920309801525423
40
-13.920309801525423
40
-13.297540974827893
40
-13.297540974827893
40
-13.194730597457996
40
-13.194730597457996
40
-13.194730597457996
40
-13.194730597457996
10
-342.11850658262688
20
150.00000000000003
30
0
10
-342.32482221684108
20
150.00000000000003
30
0
10
-342.52966976590108
20
149.999193683648
30
0
10
-347.06153883781468
20
149.96400757103916
30
0
10
-350.88363341441749
20
149.58981608763145
30
0
10
-365.15649741182665
20
147.35431313557632
30
0
10
-374.52688893508571
20
143.61381534960898
30
0
10
-392.18633008855431
20
133.01201612272365
30
0
10
-399.66378947942667
20
125.70132360382715
30
0
10
-412.13550539681904
20
108.65473161598125
30
0
10
-416.25361313686363
20
98.858035651849377
30
0
10
-418.92528128979859
20
87.783879241255221
30
0
10
-419.15311130068983
20
86.735458661470375
30
0
10
-419.47863639816086
20
84.97144778331247
30
0
0
SPLINE
5
104
100
AcDbEntity
8
0
100
AcDbSpline
70
0
71
3
72
12
73
8
74
0
42
0.000000001
43
0.0000000001
44
0.0000000001
40
-13.194730597457996
40
-13.194730597457996
40
-13.194730597457996
40
-13.194730597457996
40
-13.051490158681927
40
-13.051490158681927
40
-12.735091863375153
40
-12.735091863375153
40
-12.202445836569396
40
-12.202445836569396
40
-12.202445836569396
40
-12.202445836569396
10
-419.47863639816086
20
84.97144778331247
30
0
10
-419.93217386186069
20
82.513741677595135
30
0
10
-420.63579814789927
20
78.678287139865859
30
0
10
-425.84378296027518
20
51.218749050702961
30
0
10
-429.34927992351345
20
33.532339405010433
30
0
10
-437.64473802129169
20
-7.8376670395120787
30
0
10
-442.21370242017053
20
-30.030414656734521
30
0
10
-446.89897694760043
20
-52.788695310728741
30
0
0
LINE
5
105
100
AcDbEntity
8
0
100
AcDbLine
10
-446.89897694760043
20
-52.788695310728741
30
0
11
-447.36012981553409
21
-55.028552216687423
31
0
0
SPLINE
5
106
100
AcDbEntity
8
0
100
AcDbSpline
70
0
71
3
72
18
73
14
74
0
42
0.000000001
43
0.0000000001
44
0.0000000001
40
-12.185410397511871
40
-12.185410397511871
40
-12.185410397511871
40
-12.185410397511871
40
-12.108345331587692
40
-12.108345331587692
40
-11.951747415097401
40
-11.951747415097401
40
-11.760184653356312
40
-11.760184653356312
40
-11.529018601326573
40
-11.529018601326573
40
-11.258139884442162
40
-11.258139884442162
40
-11.224634338735665
40
-11.224634338735665
40
-11.224634338735665
40
-11.224634338735665
10
-447.36012981553409
20
-55.028552216687423
30
0
10
-448.07665790386551
20
-58.508582597383992
30
0
10
-448.72714714814447
20
-62.544096457852788
30
0
10
-449.37808792981917
20
-79.10495201743106
30
0
10
-447.50337698830003
20
-89.027814245169139
30
0
10
-440.65288949534499
20
-108.2526082016203
30
0
10
-435.11419206751958
20
-116.8377464126097
30
0
10
-421.4476566195948
20
-132.09482752818457
30
0
10
-412.91060686763001
20
-138.10462525573524
30
0
10
-394.0056071732468
20
-147.1359033894731
30
0
10
-383.70767709520646
20
-149.41559426960995
30
0
10
-372.76576534291729
20
-149.96115823306116
30
0
10
-371.82663581084847
20
-150
30
0
10
-369.99999999999977
20
-150
30
0
0
LINE
5
107
100
AcDbEntity
8
0
100
AcDbLine
10
-369.99999999999977
20
-150.00000000000003
30
0
11
-370
21
-105.23204761506405
31
0
0
LINE
5
108
100
AcDbEntity
8
0
100
AcDbLine
10
-370
20
-105.23204761506405
30
0
11
-372.6082346972467
21
-104.90268058136226
31
0
0
ARC
5
109
100
AcDbEntity
8
0
100
AcDbCircle
10
-370
20
-70.000000000000014
30
0
40
34.999999999999972
210
0
220
0
230
1
100
AcDbArc
50
154.16659256909801
51
265.72629988995493
0
LINE
5
110
100
AcDbEntity
8
0
100
AcDbLine
10
-401.50226969137384
20
-54.748540912688199
30
0
11
-329.50356665787325
21
93.966578565775691
31
0
0
ARC
5
111
100
AcDbEntity
8
0
100
AcDbCircle
10
-280
20
69.999999999999943
30
0
40
55.000000000000028
210
0
220
-0
230
1
100
AcDbArc
50
89.999999999999943
51
154.16659256909804
0
CIRCLE
5
112
100
AcDbEntity
8
0
100
AcDbCircle
10
-392.95617714411992
20
-122.65248499466861
30
0
40
5.0625000000000142
210
0
220
-0
230
1
0
CIRCLE
5
113
100
AcDbEntity
8
0
100
AcDbCircle
10
-299.27063152121883
20
136.09806958286759
30
0
40
5.0625000000000142
210
0
220
-0
230
1
0
ENDSEC
0
SECTION
2
OBJECTS
0
DICTIONARY
5
C
100
AcDbDictionary
3
ACAD_GROUP
350
D
3
ACAD_MLINESTYLE
350
17
0
DICTIONARY
5
D
100
AcDbDictionary
0
DICTIONARY
5
1A
330
C
100
AcDbDictionary
0
DICTIONARY
5
17
100
AcDbDictionary
0
ENDSEC
0
EOF
