0
SECTION
2
HEADER
9
$INSUNITS
70
4
9
$ACADVER
1
AC1014
9
$HANDSEED
5
FFFF
0
ENDSEC
0
SECTION
2
TABLES
0
TABLE
2
VPORT
5
8
100
AcDbSymbolTable
0
ENDTAB
0
TABLE
2
LTYPE
5
5
100
AcDbSymbolTable
0
LTYPE
5
14
100
AcDbSymbolTableRecord
100
AcDbLinetypeTableRecord
2
BYBLOCK
70
0
0
LTYPE
5
15
100
AcDbSymbolTableRecord
100
AcDbLinetypeTableRecord
2
BYLAYER
70
0
0
LTYPE
5
16
100
AcDbSymbolTableRecord
100
AcDbLinetypeTableRecord
2
DASHED
70
0
3
Dashed __ __ __ __ __ __ __ __ __ __ __ __ __ _
72
65
73
2
40
0.75
49
0.5
74
0
49
-0.25
74
0
0
ENDTAB
0
TABLE
2
LAYER
5
2
100
AcDbSymbolTable
70
2
0
LAYER
5
50
100
AcDbSymbolTableRecord
100
AcDbLayerTableRecord
2
0
70
0
62
7
6
CONTINUOUS
0
ENDTAB
0
TABLE
2
STYLE
5
3
100
AcDbSymbolTable
70
1
0
STYLE
5
11
100
AcDbSymbolTableRecord
100
AcDbTextStyleTableRecord
2
STANDARD
70
0
0
ENDTAB
0
TABLE
2
VIEW
5
6
100
AcDbSymbolTable
70
0
0
ENDTAB
0
TABLE
2
UCS
5
7
100
AcDbSymbolTable
70
0
0
ENDTAB
0
TABLE
2
APPID
5
9
100
AcDbSymbolTable
70
2
0
APPID
5
12
100
AcDbSymbolTableRecord
100
AcDbRegAppTableRecord
2
ACAD
70
0
0
ENDTAB
0
TABLE
2
DIMSTYLE
5
A
100
AcDbSymbolTable
70
1
0
ENDTAB
0
TABLE
2
BLOCK_RECORD
5
1
100
AcDbSymbolTable
70
1
0
BLOCK_RECORD
5
1F
100
AcDbSymbolTableRecord
100
AcDbBlockTableRecord
2
*MODEL_SPACE
0
BLOCK_RECORD
5
1B
100
AcDbSymbolTableRecord
100
AcDbBlockTableRecord
2
*PAPER_SPACE
0
ENDTAB
0
ENDSEC
0
SECTION
2
BLOCKS
0
BLOCK
5
20
100
AcDbEntity
100
AcDbBlockBegin
2
*MODEL_SPACE
0
ENDBLK
5
21
100
AcDbEntity
100
AcDbBlockEnd
0
BLOCK
5
1C
100
AcDbEntity
100
AcDbBlockBegin
2
*PAPER_SPACE
0
ENDBLK
5
1D
100
AcDbEntity
100
AcDbBlockEnd
0
ENDSEC
0
SECTION
2
ENTITIES
0
CIRCLE
5
100
100
AcDbEntity
8
0
100
AcDbCircle
10
350.00000000000006
20
126.01550156722308
30
0
40
1.4500000000000313
210
0
220
-0
230
1
0
CIRCLE
5
101
100
AcDbEntity
8
0
100
AcDbCircle
10
434
20
-70.000000000000014
30
0
40
1.4500000000000313
210
0
220
-0
230
1
0
LINE
5
102
100
AcDbEntity
8
0
100
AcDbLine
10
370
20
-105.23204878630298
30
0
11
370.00000000000006
21
-150
31
0
0
SPLINE
5
103
100
AcDbEntity
8
0
100
AcDbSpline
70
0
71
3
72
14
73
10
74
0
42
0.000000001
43
0.0000000001
44
0.0000000001
40
-10.225930683075212
40
-10.225930683075212
40
-10.225930683075212
40
-10.225930683075212
40
-8.5082915646868447
40
-8.5082915646868447
40
-5.8633950165221833
40
-5.8633950165221833
40
-3.0392931979857547
40
-3.0392931979857547
40
-0.1531508287296727
40
-0.1531508287296727
40
-0.1531508287296727
40
-0.1531508287296727
10
370.00000000000011
20
-150
30
0
10
374.03958286575937
20
-150
30
0
10
379.050866190752
20
-149.77300588705828
30
0
10
395.87174454240306
20
-146.39320389540802
30
0
10
405.26974404057677
20
-142.4259141063884
30
0
10
422.28003178094525
20
-131.25140739305024
30
0
10
429.56515198101818
20
-123.95703350199092
30
0
10
440.93109817723865
20
-107.36731661055296
30
0
10
444.83555085932784
20
-98.192099650514706
30
0
10
446.98267387207989
20
-88.795476316808788
30
0
0
SPLINE
5
104
100
AcDbEntity
8
0
100
AcDbSpline
70
0
71
3
72
13
73
9
74
0
42
0.000000001
43
0.0000000001
44
0.0000000001
40
-0.1531508287296727
40
-0.1531508287296727
40
-0.1531508287296727
40
-0.1531508287296727
40
0
40
0
40
0
40
2.4495970026172245
40
2.4495970026172245
40
3.172370250348763
40
3.172370250348763
40
3.172370250348763
40
3.172370250348763
10
446.98267387207989
20
-88.795476316808788
30
0
10
447.09660923171094
20
-88.296852040284065
30
0
10
447.20559042890665
20
-87.797602987150626
30
0
10
447.30963045131762
20
-87.297814287610848
30
0
10
448.97371630161331
20
-79.303858848455945
30
0
10
449.38808227948101
20
-71.104271361448568
30
0
10
448.30595414697001
20
-60.583351958870075
30
0
10
448.09186823144375
20
-59.109464807942601
30
0
10
447.68176917134269
20
-56.852659647758131
30
0
0
LINE
5
105
100
AcDbEntity
8
0
100
AcDbLine
10
447.68176917134269
20
-56.852659647758145
30
0
11
447.60831049551314
21
-56.448406763406602
31
0
0
SPLINE
5
106
100
AcDbEntity
8
0
100
AcDbSpline
70
0
71
3
72
24
73
20
74
0
42
0.000000001
43
0.0000000001
44
0.0000000001
40
-426.19283629999416
40
-426.19283629999416
40
-426.19283629999416
40
-426.19283629999416
40
-425.87088264601516
40
-425.87088264601516
40
-423.32815223682627
40
-423.32815223682627
40
-417.94774988699737
40
-417.94774988699737
40
-412.46277091751608
40
-412.46277091751608
40
-403.52298517580203
40
-403.52298517580203
40
-384.95454224526361
40
-384.95454224526361
40
-364.83992121477212
40
-364.83992121477212
40
-343.04708715219465
40
-343.04708715219465
40
-341.83725300873175
40
-341.83725300873175
40
-341.83725300873175
40
-341.83725300873175
10
447.60831049551314
20
-56.448406763406602
30
0
10
447.41767323685991
20
-55.399292745427438
30
0
10
447.19491442338773
20
-54.173350807132898
30
0
10
444.68581442729396
20
-40.36114090270047
30
0
10
442.63461044860878
20
-29.045223841935261
30
0
10
436.29255420924443
20
6.2012972370356945
30
0
10
431.93890603077028
20
30.793537595910351
30
0
10
424.18115004813865
20
76.609986359140407
30
0
10
423.32772470146716
20
82.72351752877627
30
0
10
421.70553589215797
20
91.040720839872478
30
0
10
420.24213920404264
20
95.927624599829954
30
0
10
414.58775424032177
20
110.06488257164521
30
0
10
409.10920313459405
20
118.47199046661643
30
0
10
395.26254100233183
20
133.12984205470826
30
0
10
386.84630653305675
20
138.98700785768528
30
0
10
368.08917840196671
20
147.46039308566313
30
0
10
357.85260880134877
20
149.68074694752167
30
0
10
347.20839202454641
20
149.98388119040894
30
0
10
346.68163444638185
20
149.9999997970171
30
0
10
345.51557588747988
20
149.99999999999883
30
0
0
LINE
5
107
100
AcDbEntity
8
0
100
AcDbLine
10
345.51557588747988
20
149.99999999999881
30
0
11
280
21
150.00000000000003
31
0
0
LINE
5
108
100
AcDbEntity
8
0
100
AcDbLine
10
280
20
150.00000000000003
30
0
11
280
21
124.99999999999997
31
0
0
ARC
5
109
100
AcDbEntity
8
0
100
AcDbCircle
10
279.99999999999994
20
69.999999999999986
30
0
40
55.000000000000007
210
0
220
-0
230
1
100
AcDbArc
50
25.833407430901875
51
89.999999999999943
0
LINE
5
110
100
AcDbEntity
8
0
100
AcDbLine
10
329.50356665787325
20
93.966578565775649
30
0
11
401.50226969137395
21
-54.748540912688206
31
0
0
ARC
5
111
100
AcDbEntity
8
0
100
AcDbCircle
10
370
20
-69.999999999999972
30
0
40
35.00000000000005
210
0
220
0
230
1
100
AcDbArc
50
-85.726261957174003
51
25.833407430901815
0
LINE
5
112
100
AcDbEntity
8
0
100
AcDbLine
10
372.60825780463233
20
-104.90267885456036
30
0
11
370
21
-105.23204878630298
31
0
0
CIRCLE
5
113
100
AcDbEntity
8
0
100
AcDbCircle
10
392.95617714411992
20
-122.65248499466878
30
0
40
5.0625000000000142
210
0
220
-0
230
1
0
CIRCLE
5
114
100
AcDbEntity
8
0
100
AcDbCircle
10
299.27063152121895
20
136.09806958286748
30
0
40
5.0625000000000142
210
0
220
-0
230
1
0
ENDSEC
0
SECTION
2
OBJECTS
0
DICTIONARY
5
C
100
AcDbDictionary
3
ACAD_GROUP
350
D
3
ACAD_MLINESTYLE
350
17
0
DICTIONARY
5
D
100
AcDbDictionary
0
DICTIONARY
5
1A
330
C
100
AcDbDictionary
0
DICTIONARY
5
17
100
AcDbDictionary
0
ENDSEC
0
EOF
