0
SECTION
2
HEADER
9
$INSUNITS
70
4
9
$ACADVER
1
AC1014
9
$HANDSEED
5
FFFF
0
ENDSEC
0
SECTION
2
TABLES
0
TABLE
2
VPORT
5
8
100
AcDbSymbolTable
0
ENDTAB
0
TABLE
2
LTYPE
5
5
100
AcDbSymbolTable
0
LTYPE
5
14
100
AcDbSymbolTableRecord
100
AcDbLinetypeTableRecord
2
BYBLOCK
70
0
0
LTYPE
5
15
100
AcDbSymbolTableRecord
100
AcDbLinetypeTableRecord
2
BYLAYER
70
0
0
LTYPE
5
16
100
AcDbSymbolTableRecord
100
AcDbLinetypeTableRecord
2
DASHED
70
0
3
Dashed __ __ __ __ __ __ __ __ __ __ __ __ __ _
72
65
73
2
40
0.75
49
0.5
74
0
49
-0.25
74
0
0
ENDTAB
0
TABLE
2
LAYER
5
2
100
AcDbSymbolTable
70
2
0
LAYER
5
50
100
AcDbSymbolTableRecord
100
AcDbLayerTableRecord
2
0
70
0
62
7
6
CONTINUOUS
0
ENDTAB
0
TABLE
2
STYLE
5
3
100
AcDbSymbolTable
70
1
0
STYLE
5
11
100
AcDbSymbolTableRecord
100
AcDbTextStyleTableRecord
2
STANDARD
70
0
0
ENDTAB
0
TABLE
2
VIEW
5
6
100
AcDbSymbolTable
70
0
0
ENDTAB
0
TABLE
2
UCS
5
7
100
AcDbSymbolTable
70
0
0
ENDTAB
0
TABLE
2
APPID
5
9
100
AcDbSymbolTable
70
2
0
APPID
5
12
100
AcDbSymbolTableRecord
100
AcDbRegAppTableRecord
2
ACAD
70
0
0
ENDTAB
0
TABLE
2
DIMSTYLE
5
A
100
AcDbSymbolTable
70
1
0
ENDTAB
0
TABLE
2
BLOCK_RECORD
5
1
100
AcDbSymbolTable
70
1
0
BLOCK_RECORD
5
1F
100
AcDbSymbolTableRecord
100
AcDbBlockTableRecord
2
*MODEL_SPACE
0
BLOCK_RECORD
5
1B
100
AcDbSymbolTableRecord
100
AcDbBlockTableRecord
2
*PAPER_SPACE
0
ENDTAB
0
ENDSEC
0
SECTION
2
BLOCKS
0
BLOCK
5
20
100
AcDbEntity
100
AcDbBlockBegin
2
*MODEL_SPACE
0
ENDBLK
5
21
100
AcDbEntity
100
AcDbBlockEnd
0
BLOCK
5
1C
100
AcDbEntity
100
AcDbBlockBegin
2
*PAPER_SPACE
0
ENDBLK
5
1D
100
AcDbEntity
100
AcDbBlockEnd
0
ENDSEC
0
SECTION
2
ENTITIES
0
CIRCLE
5
100
100
AcDbEntity
8
0
100
AcDbCircle
10
70.000000000000114
20
134.00000000000003
30
0
40
1.4499999999999957
210
0
220
-0
230
1
0
CIRCLE
5
101
100
AcDbEntity
8
0
100
AcDbCircle
10
-349.99999999999994
20
126.01550156722337
30
0
40
1.4500000000000313
210
0
220
-0
230
1
0
CIRCLE
5
102
100
AcDbEntity
8
0
100
AcDbCircle
10
-280
20
-133.9999999999998
30
0
40
1.4499999999999957
210
0
220
-0
230
1
0
CIRCLE
5
103
100
AcDbEntity
8
0
100
AcDbCircle
10
-140
20
-133.99999999999991
30
0
40
1.4499999999999957
210
0
220
-0
230
1
0
CIRCLE
5
104
100
AcDbEntity
8
0
100
AcDbCircle
10
210.00000000000011
20
134.00000000000003
30
0
40
1.4499999999999957
210
0
220
-0
230
1
0
CIRCLE
5
105
100
AcDbEntity
8
0
100
AcDbCircle
10
-69.999999999999886
20
134.00000000000009
30
0
40
1.4499999999999957
210
0
220
-0
230
1
0
CIRCLE
5
106
100
AcDbEntity
8
0
100
AcDbCircle
10
140
20
-134.00000000000003
30
0
40
1.4499999999999957
210
0
220
-0
230
1
0
CIRCLE
5
107
100
AcDbEntity
8
0
100
AcDbCircle
10
0
20
-134.00000000000003
30
0
40
1.45
210
0
220
-0
230
1
0
CIRCLE
5
108
100
AcDbEntity
8
0
100
AcDbCircle
10
280
20
-134.00000000000003
30
0
40
1.4499999999999957
210
0
220
-0
230
1
0
CIRCLE
5
109
100
AcDbEntity
8
0
100
AcDbCircle
10
-209.99999999999989
20
134.0000000000002
30
0
40
1.4499999999999957
210
0
220
-0
230
1
0
LINE
5
110
100
AcDbEntity
8
0
100
AcDbLine
10
370.00000000000006
20
-150
30
0
11
370
21
-105.23204878630298
31
0
0
LINE
5
111
100
AcDbEntity
8
0
100
AcDbLine
10
370
20
-105.23204878630298
30
0
11
216.89065795863254
21
-124.56664579115281
31
0
0
ARC
5
112
100
AcDbEntity
8
0
100
AcDbCircle
10
210.00000000000031
20
-70.000000000005187
30
0
40
54.999999999994813
210
0
220
0
230
1
100
AcDbArc
50
269.99999999999972
51
277.19719657035074
0
LINE
5
113
100
AcDbEntity
8
0
100
AcDbLine
10
210
20
-125
30
0
11
-210
21
-125
31
0
0
ARC
5
114
100
AcDbEntity
8
0
100
AcDbCircle
10
-209.99999999999972
20
-69.99999999999531
30
0
40
55.00000000000469
210
0
220
0
230
1
100
AcDbArc
50
262.80280299823465
51
269.99999999999972
0
LINE
5
115
100
AcDbEntity
8
0
100
AcDbLine
10
-216.89065836949845
20
-124.56664573926879
30
0
11
-372.6082346972467
21
-104.90268058136226
31
0
0
ARC
5
116
100
AcDbEntity
8
0
100
AcDbCircle
10
-370
20
-70.000000000000014
30
0
40
34.999999999999972
210
0
220
0
230
1
100
AcDbArc
50
154.16659256909801
51
265.72629988995493
0
LINE
5
117
100
AcDbEntity
8
0
100
AcDbLine
10
-401.50226969137384
20
-54.748540912688199
30
0
11
-329.50356665787325
21
93.966578565775691
31
0
0
ARC
5
118
100
AcDbEntity
8
0
100
AcDbCircle
10
-280
20
69.999999999999943
30
0
40
55.000000000000028
210
0
220
-0
230
1
100
AcDbArc
50
89.999999999999943
51
154.16659256909804
0
LINE
5
119
100
AcDbEntity
8
0
100
AcDbLine
10
-279.99999999999994
20
124.99999999999997
30
0
11
280.00000000000006
21
124.99999999999997
31
0
0
LINE
5
120
100
AcDbEntity
8
0
100
AcDbLine
10
280.00000000000006
20
124.99999999999997
30
0
11
280
21
150.00000000000003
31
0
0
LINE
5
121
100
AcDbEntity
8
0
100
AcDbLine
10
280
20
150.00000000000003
30
0
11
-345.51556218272151
21
150.00000000000003
31
0
0
SPLINE
5
122
100
AcDbEntity
8
0
100
AcDbSpline
70
0
71
3
72
24
73
20
74
0
42
0.000000001
43
0.0000000001
44
0.0000000001
40
-245.22529930586947
40
-245.22529930586947
40
-245.22529930586947
40
-245.22529930586947
40
-243.90247236051192
40
-243.90247236051192
40
-235.52641965688736
40
-235.52641965688736
40
-217.64454416598247
40
-217.64454416598247
40
-198.15352253399743
40
-198.15352253399743
40
-176.96910416869807
40
-176.96910416869807
40
-173.26553433910021
40
-173.26553433910021
40
-169.84971762212416
40
-169.84971762212416
40
-162.67218529448346
40
-162.67218529448346
40
-161.18897116100601
40
-161.18897116100601
40
-161.18897116100601
40
-161.18897116100601
10
-345.51556218272151
20
150.00000000000003
30
0
10
-346.94644609930276
20
150.00000000000003
30
0
10
-347.62043213636264
20
149.97624236738261
30
0
10
-353.61416417784926
20
149.75469413493727
30
0
10
-358.60059553363897
20
149.06222209921702
30
0
10
-373.50447238781248
20
145.59708467702228
30
0
10
-382.75622938779924
20
141.32188103102641
30
0
10
-399.51150353235278
20
129.47291299385344
30
0
10
-406.60482239303599
20
121.7733326940911
30
0
10
-417.7781839554134
20
103.9258403413651
30
0
10
-421.41766009580419
20
93.845224745810597
30
0
10
-423.41399788221116
20
81.855171646824829
30
0
10
-424.63060305444617
20
74.141496733141707
30
0
10
-428.91187632030847
20
48.575714775785727
30
0
10
-431.00022349453513
20
36.460090913619517
30
0
10
-437.25819226556831
20
0.68678903468240904
30
0
10
-441.53011876436091
20
-22.967253612079173
30
0
10
-446.62657253075702
20
-51.046317410650481
30
0
10
-447.19399896268192
20
-54.168369587178319
30
0
10
-447.60831049551314
20
-56.448406763406624
30
0
0
SPLINE
5
123
100
AcDbEntity
8
0
100
AcDbSpline
70
0
71
3
72
10
73
6
74
0
42
0.000000001
43
0.0000000001
44
0.0000000001
40
-161.18897116100601
40
-161.18897116100601
40
-161.18897116100601
40
-161.18897116100601
40
-158.82506192470461
40
-158.82506192470461
40
-151.81315737486958
40
-151.81315737486958
40
-151.81315737486958
40
-151.81315737486958
10
-447.60831049551314
20
-56.448406763406624
30
0
10
-448.2686297555984
20
-60.082272446280101
30
0
10
-448.44817819362157
20
-61.593778479155986
30
0
10
-449.39579955253038
20
-72.787973744727864
30
0
10
-448.7644879568843
20
-80.99758298582023
30
0
10
-446.98267396708206
20
-88.795475901043915
30
0
0
SPLINE
5
124
100
AcDbEntity
8
0
100
AcDbSpline
70
0
71
3
72
28
73
24
74
0
42
0.000000001
43
0.0000000001
44
0.0000000001
40
-151.81315737486958
40
-151.81315737486958
40
-151.81315737486958
40
-151.81315737486958
40
-150.15352188207422
40
-150.15352188207422
40
-140.89435569461233
40
-140.89435569461233
40
-130.93322915399594
40
-130.93322915399594
40
-120.25125630637461
40
-120.25125630637461
40
-115.1960933176526
40
-115.1960933176526
40
-111.68757789277163
40
-111.68757789277163
40
-105.94716692055761
40
-105.94716692055761
40
-93.528697399465457
40
-93.528697399465457
40
-66.572201943423764
40
-66.572201943423764
40
-10.567368844835219
40
-10.567368844835219
40
-10.225930683075219
40
-10.225930683075219
40
-10.225930683075219
40
-10.225930683075219
10
-446.98267396708206
20
-88.795475901043915
30
0
10
-446.56093951276682
20
-90.641145613052061
30
0
10
-446.07464161072426
20
-92.463725119025668
30
0
10
-442.46670302258497
20
-104.28078800873473
30
0
10
-437.5411767699843
20
-113.28737365699126
30
0
10
-424.56762412054678
20
-129.21672038532972
30
0
10
-416.44697945753984
20
-135.77347437569497
30
0
10
-398.09322791069286
20
-145.656269362849
30
0
10
-387.93972218844061
20
-148.62023740942425
30
0
10
-372.9975361885846
20
-150.08970715237905
30
0
10
-371.60480703703968
20
-150
30
0
10
-347.22887422116423
20
-150
30
0
10
-337.53015277800807
20
-150
30
0
10
-312.6601259477651
20
-150
30
0
10
-297.66955693342408
20
-150
30
0
10
-251.54225663790154
20
-150
30
0
10
-220.90659639710884
20
-150
30
0
10
-126.419351964561
20
-150
30
0
10
-63.598093077183641
20
-150
30
0
10
124.46896797063017
20
-150
30
0
10
247.7660358273458
20
-150
30
0
10
368.43240847476926
20
-150
30
0
10
369.19699794142082
20
-150
30
0
10
370.00000000000006
20
-150
30
0
0
CIRCLE
5
125
100
AcDbEntity
8
0
100
AcDbCircle
10
-262.83736377897935
20
137.58514173561201
30
0
40
5.0625000000000142
210
0
220
-0
230
1
0
CIRCLE
5
126
100
AcDbEntity
8
0
100
AcDbCircle
10
344.62633217992482
20
-130.83138183476331
30
0
40
5.0625000000000142
210
0
220
-0
230
1
0
CIRCLE
5
127
100
AcDbEntity
8
0
100
AcDbCircle
10
-344.62633217992482
20
-130.83138183476314
30
0
40
5.0625000000000142
210
0
220
-0
230
1
0
CIRCLE
5
128
100
AcDbEntity
8
0
100
AcDbCircle
10
-299.27063152121883
20
136.09806958286759
30
0
40
5.0625000000000142
210
0
220
-0
230
1
0
CIRCLE
5
129
100
AcDbEntity
8
0
100
AcDbCircle
10
262.83736377897952
20
137.58514173561184
30
0
40
5.0625000000000142
210
0
220
-0
230
1
0
CIRCLE
5
130
100
AcDbEntity
8
0
100
AcDbCircle
10
-392.95617714411992
20
-122.65248499466861
30
0
40
5.0625000000000142
210
0
220
-0
230
1
0
ENDSEC
0
SECTION
2
OBJECTS
0
DICTIONARY
5
C
100
AcDbDictionary
3
ACAD_GROUP
350
D
3
ACAD_MLINESTYLE
350
17
0
DICTIONARY
5
D
100
AcDbDictionary
0
DICTIONARY
5
1A
330
C
100
AcDbDictionary
0
DICTIONARY
5
17
100
AcDbDictionary
0
ENDSEC
0
EOF
