0
SECTION
2
HEADER
9
$INSUNITS
70
4
9
$ACADVER
1
AC1014
9
$HANDSEED
5
FFFF
0
ENDSEC
0
SECTION
2
TABLES
0
TABLE
2
VPORT
5
8
100
AcDbSymbolTable
0
ENDTAB
0
TABLE
2
LTYPE
5
5
100
AcDbSymbolTable
0
LTYPE
5
14
100
AcDbSymbolTableRecord
100
AcDbLinetypeTableRecord
2
BYBLOCK
70
0
0
LTYPE
5
15
100
AcDbSymbolTableRecord
100
AcDbLinetypeTableRecord
2
BYLAYER
70
0
0
LTYPE
5
16
100
AcDbSymbolTableRecord
100
AcDbLinetypeTableRecord
2
DASHED
70
0
3
Dashed __ __ __ __ __ __ __ __ __ __ __ __ __ _
72
65
73
2
40
0.75
49
0.5
74
0
49
-0.25
74
0
0
ENDTAB
0
TABLE
2
LAYER
5
2
100
AcDbSymbolTable
70
2
0
LAYER
5
50
100
AcDbSymbolTableRecord
100
AcDbLayerTableRecord
2
0
70
0
62
7
6
CONTINUOUS
0
ENDTAB
0
TABLE
2
STYLE
5
3
100
AcDbSymbolTable
70
1
0
STYLE
5
11
100
AcDbSymbolTableRecord
100
AcDbTextStyleTableRecord
2
STANDARD
70
0
0
ENDTAB
0
TABLE
2
VIEW
5
6
100
AcDbSymbolTable
70
0
0
ENDTAB
0
TABLE
2
UCS
5
7
100
AcDbSymbolTable
70
0
0
ENDTAB
0
TABLE
2
APPID
5
9
100
AcDbSymbolTable
70
2
0
APPID
5
12
100
AcDbSymbolTableRecord
100
AcDbRegAppTableRecord
2
ACAD
70
0
0
ENDTAB
0
TABLE
2
DIMSTYLE
5
A
100
AcDbSymbolTable
70
1
0
ENDTAB
0
TABLE
2
BLOCK_RECORD
5
1
100
AcDbSymbolTable
70
1
0
BLOCK_RECORD
5
1F
100
AcDbSymbolTableRecord
100
AcDbBlockTableRecord
2
*MODEL_SPACE
0
BLOCK_RECORD
5
1B
100
AcDbSymbolTableRecord
100
AcDbBlockTableRecord
2
*PAPER_SPACE
0
ENDTAB
0
ENDSEC
0
SECTION
2
BLOCKS
0
BLOCK
5
20
100
AcDbEntity
100
AcDbBlockBegin
2
*MODEL_SPACE
0
ENDBLK
5
21
100
AcDbEntity
100
AcDbBlockEnd
0
BLOCK
5
1C
100
AcDbEntity
100
AcDbBlockBegin
2
*PAPER_SPACE
0
ENDBLK
5
1D
100
AcDbEntity
100
AcDbBlockEnd
0
ENDSEC
0
SECTION
2
ENTITIES
0
CIRCLE
5
100
100
AcDbEntity
8
0
100
AcDbCircle
10
70.000000000000114
20
134.00000000000003
30
0
40
1.4499999999999957
210
0
220
-0
230
1
0
CIRCLE
5
101
100
AcDbEntity
8
0
100
AcDbCircle
10
-280
20
-133.9999999999998
30
0
40
1.4499999999999957
210
0
220
-0
230
1
0
CIRCLE
5
102
100
AcDbEntity
8
0
100
AcDbCircle
10
-140
20
-133.99999999999991
30
0
40
1.4499999999999957
210
0
220
-0
230
1
0
CIRCLE
5
103
100
AcDbEntity
8
0
100
AcDbCircle
10
210.00000000000011
20
134.00000000000003
30
0
40
1.4499999999999957
210
0
220
-0
230
1
0
CIRCLE
5
104
100
AcDbEntity
8
0
100
AcDbCircle
10
350.00000000000006
20
126.01550156722308
30
0
40
1.4500000000000313
210
0
220
-0
230
1
0
CIRCLE
5
105
100
AcDbEntity
8
0
100
AcDbCircle
10
-69.999999999999886
20
134.00000000000009
30
0
40
1.4499999999999957
210
0
220
-0
230
1
0
CIRCLE
5
106
100
AcDbEntity
8
0
100
AcDbCircle
10
140
20
-134.00000000000003
30
0
40
1.4499999999999957
210
0
220
-0
230
1
0
CIRCLE
5
107
100
AcDbEntity
8
0
100
AcDbCircle
10
0
20
-134.00000000000003
30
0
40
1.45
210
0
220
-0
230
1
0
CIRCLE
5
108
100
AcDbEntity
8
0
100
AcDbCircle
10
280
20
-134.00000000000003
30
0
40
1.4499999999999957
210
0
220
-0
230
1
0
CIRCLE
5
109
100
AcDbEntity
8
0
100
AcDbCircle
10
-209.99999999999989
20
134.0000000000002
30
0
40
1.4499999999999957
210
0
220
-0
230
1
0
CIRCLE
5
110
100
AcDbEntity
8
0
100
AcDbCircle
10
434
20
-70.000000000000014
30
0
40
1.4500000000000313
210
0
220
-0
230
1
0
LINE
5
111
100
AcDbEntity
8
0
100
AcDbLine
10
-280.00000000000091
20
150
30
0
11
-279.99999999999994
21
124.99999999999997
31
0
0
LINE
5
112
100
AcDbEntity
8
0
100
AcDbLine
10
-279.99999999999994
20
124.99999999999997
30
0
11
280.00000000000006
21
124.99999999999997
31
0
0
ARC
5
113
100
AcDbEntity
8
0
100
AcDbCircle
10
279.99999999999994
20
69.999999999999986
30
0
40
55.000000000000007
210
0
220
-0
230
1
100
AcDbArc
50
25.833407430901875
51
89.999999999999901
0
LINE
5
114
100
AcDbEntity
8
0
100
AcDbLine
10
329.50356665787325
20
93.966578565775649
30
0
11
401.50226969137395
21
-54.748540912688206
31
0
0
ARC
5
115
100
AcDbEntity
8
0
100
AcDbCircle
10
370
20
-69.999999999999972
30
0
40
35.00000000000005
210
0
220
0
230
1
100
AcDbArc
50
-85.726261957174003
51
25.833407430901815
0
LINE
5
116
100
AcDbEntity
8
0
100
AcDbLine
10
372.60825780463233
20
-104.90267885456036
30
0
11
216.89065795863254
21
-124.56664579115281
31
0
0
ARC
5
117
100
AcDbEntity
8
0
100
AcDbCircle
10
210.00000000000031
20
-70.000000000005187
30
0
40
54.999999999994813
210
0
220
0
230
1
100
AcDbArc
50
269.99999999999972
51
277.19719657035074
0
LINE
5
118
100
AcDbEntity
8
0
100
AcDbLine
10
210
20
-125
30
0
11
-210
21
-125
31
0
0
ARC
5
119
100
AcDbEntity
8
0
100
AcDbCircle
10
-209.99999999999972
20
-69.99999999999531
30
0
40
55.00000000000469
210
0
220
0
230
1
100
AcDbArc
50
262.80280299823465
51
269.99999999999972
0
LINE
5
120
100
AcDbEntity
8
0
100
AcDbLine
10
-216.89065836949845
20
-124.56664573926879
30
0
11
-370
21
-105.23204761506405
31
0
0
LINE
5
121
100
AcDbEntity
8
0
100
AcDbLine
10
-370
20
-105.23204761506405
30
0
11
-370
21
-150
31
0
0
LINE
5
122
100
AcDbEntity
8
0
100
AcDbLine
10
-370
20
-150
30
0
11
370
21
-150
31
0
0
SPLINE
5
123
100
AcDbEntity
8
0
100
AcDbSpline
70
0
71
3
72
23
73
19
74
0
42
0.000000001
43
0.0000000001
44
0.0000000001
40
-9.3121972155543826
40
-9.3121972155543826
40
-9.3121972155543826
40
-9.3121972155543826
40
-9.2665401202564954
40
-9.2665401202564954
40
-8.3817156130582369
40
-8.3817156130582369
40
-5.7978806111097132
40
-5.7978806111097132
40
-3.0169049804503478
40
-3.0169049804503478
40
0
40
0
40
0
40
1.6083143752972262
40
1.6083143752972262
40
3.2382335710071146
40
3.2382335710071146
40
3.3269827666500333
40
3.3269827666500333
40
3.3269827666500333
40
3.3269827666500333
10
369.99999999999994
20
-150
30
0
10
370.19797571482275
20
-150
30
0
10
370.39557462242954
20
-149.99926301434883
30
0
10
374.4147642960308
20
-149.96939321555448
30
0
10
378.10339880578624
20
-149.66808713344992
30
0
10
391.99546769766556
20
-147.61381911475755
30
0
10
401.5847190437886
20
-144.1168630533937
30
0
10
419.15028949683665
20
-133.83263109260486
30
0
10
426.78189969591728
20
-126.91969715499982
30
0
10
439.30298660850997
20
-110.54040180210481
30
0
10
443.78540967050986
20
-101.07668023557402
30
0
10
446.35268118475449
20
-91.35354848782967
30
0
10
447.72129561192628
20
-86.170139443083528
30
0
10
448.55831880346375
20
-80.86187315455156
30
0
10
449.15510242731813
20
-70.083807272497452
30
0
10
448.89044126719818
20
-64.829658619423668
30
0
10
448.13260729506118
20
-59.524550707456207
30
0
10
448.09676666294877
20
-59.270298355410731
30
0
10
448.00340852715112
20
-58.67676707882837
30
0
0
SPLINE
5
124
100
AcDbEntity
8
0
100
AcDbSpline
70
0
71
3
72
14
73
10
74
0
42
0.000000001
43
0.0000000001
44
0.0000000001
40
-69.767498218980478
40
-69.767498218980478
40
-69.767498218980478
40
-69.767498218980478
40
-69.598244703645818
40
-69.598244703645818
40
-69.177391134053707
40
-69.177391134053707
40
-68.319471834190722
40
-68.319471834190722
40
-68.313500992023549
40
-68.313500992023549
40
-68.313500992023549
40
-68.313500992023549
10
448.00340852715112
20
-58.67676707882837
30
0
10
447.82536530597736
20
-57.544844087358996
30
0
10
447.45249695465657
20
-55.176710091488744
30
0
10
444.11156001805784
20
-33.911963844449737
30
0
10
441.88803632501879
20
-19.693394523142732
30
0
10
435.33350542610725
20
22.787766226223027
30
0
10
430.70114527130391
20
53.661489259923613
30
0
10
426.97466737668003
20
80.894190587500674
30
0
10
426.94649429561508
20
81.100214123675002
30
0
10
426.91602614941371
20
81.32323292117195
30
0
0
SPLINE
5
125
100
AcDbEntity
8
0
100
AcDbSpline
70
0
71
3
72
16
73
12
74
0
42
0.000000001
43
0.0000000001
44
0.0000000001
40
-68.313500992023549
40
-68.313500992023549
40
-68.313500992023549
40
-68.313500992023549
40
-68.240108508776501
40
-68.240108508776501
40
-68.124726193655874
40
-68.124726193655874
40
-67.998801470702148
40
-67.998801470702148
40
-67.861056141498921
40
-67.861056141498921
40
-67.823211958609619
40
-67.823211958609619
40
-67.823211958609619
40
-67.823211958609619
10
426.91602614941371
20
81.32323292117195
30
0
10
426.54151735366258
20
84.064538569655042
30
0
10
425.68098804389228
20
89.354715235416762
30
0
10
420.46180463583585
20
105.36283513696134
30
0
10
415.55564506843712
20
114.08432077090792
30
0
10
402.75828666826271
20
129.60618344145757
30
0
10
394.77574000754652
20
135.99713444557619
30
0
10
376.67251790846137
20
145.73514623794222
30
0
10
366.61623513625494
20
148.64473010087951
30
0
10
353.87082564548115
20
149.89290056596982
30
0
10
352.22344689041347
20
149.99999999999994
30
0
10
348.91261762226378
20
150
30
0
0
LINE
5
126
100
AcDbEntity
8
0
100
AcDbLine
10
348.91261762226378
20
150
30
0
11
-280.00000000000091
21
150
31
0
0
CIRCLE
5
127
100
AcDbEntity
8
0
100
AcDbCircle
10
-262.83736377897935
20
137.58514173561201
30
0
40
5.0625000000000142
210
0
220
-0
230
1
0
CIRCLE
5
128
100
AcDbEntity
8
0
100
AcDbCircle
10
344.62633217992482
20
-130.83138183476331
30
0
40
5.0625000000000142
210
0
220
-0
230
1
0
CIRCLE
5
129
100
AcDbEntity
8
0
100
AcDbCircle
10
299.27063152121895
20
136.09806958286748
30
0
40
5.0625000000000142
210
0
220
-0
230
1
0
CIRCLE
5
130
100
AcDbEntity
8
0
100
AcDbCircle
10
-344.62633217992482
20
-130.83138183476314
30
0
40
5.0625000000000142
210
0
220
-0
230
1
0
CIRCLE
5
131
100
AcDbEntity
8
0
100
AcDbCircle
10
392.95617714411992
20
-122.65248499466878
30
0
40
5.0625000000000142
210
0
220
-0
230
1
0
CIRCLE
5
132
100
AcDbEntity
8
0
100
AcDbCircle
10
262.83736377897952
20
137.58514173561184
30
0
40
5.0625000000000142
210
0
220
-0
230
1
0
ENDSEC
0
SECTION
2
OBJECTS
0
DICTIONARY
5
C
100
AcDbDictionary
3
ACAD_GROUP
350
D
3
ACAD_MLINESTYLE
350
17
0
DICTIONARY
5
D
100
AcDbDictionary
0
DICTIONARY
5
1A
330
C
100
AcDbDictionary
0
DICTIONARY
5
17
100
AcDbDictionary
0
ENDSEC
0
EOF
