0
SECTION
2
HEADER
9
$INSUNITS
70
4
9
$ACADVER
1
AC1014
9
$HANDSEED
5
FFFF
0
ENDSEC
0
SECTION
2
TABLES
0
TABLE
2
VPORT
5
8
100
AcDbSymbolTable
0
ENDTAB
0
TABLE
2
LTYPE
5
5
100
AcDbSymbolTable
0
LTYPE
5
14
100
AcDbSymbolTableRecord
100
AcDbLinetypeTableRecord
2
BYBLOCK
70
0
0
LTYPE
5
15
100
AcDbSymbolTableRecord
100
AcDbLinetypeTableRecord
2
BYLAYER
70
0
0
LTYPE
5
16
100
AcDbSymbolTableRecord
100
AcDbLinetypeTableRecord
2
DASHED
70
0
3
Dashed __ __ __ __ __ __ __ __ __ __ __ __ __ _
72
65
73
2
40
0.75
49
0.5
74
0
49
-0.25
74
0
0
ENDTAB
0
TABLE
2
LAYER
5
2
100
AcDbSymbolTable
70
2
0
LAYER
5
50
100
AcDbSymbolTableRecord
100
AcDbLayerTableRecord
2
0
70
0
62
7
6
CONTINUOUS
0
ENDTAB
0
TABLE
2
STYLE
5
3
100
AcDbSymbolTable
70
1
0
STYLE
5
11
100
AcDbSymbolTableRecord
100
AcDbTextStyleTableRecord
2
STANDARD
70
0
0
ENDTAB
0
TABLE
2
VIEW
5
6
100
AcDbSymbolTable
70
0
0
ENDTAB
0
TABLE
2
UCS
5
7
100
AcDbSymbolTable
70
0
0
ENDTAB
0
TABLE
2
APPID
5
9
100
AcDbSymbolTable
70
2
0
APPID
5
12
100
AcDbSymbolTableRecord
100
AcDbRegAppTableRecord
2
ACAD
70
0
0
ENDTAB
0
TABLE
2
DIMSTYLE
5
A
100
AcDbSymbolTable
70
1
0
ENDTAB
0
TABLE
2
BLOCK_RECORD
5
1
100
AcDbSymbolTable
70
1
0
BLOCK_RECORD
5
1F
100
AcDbSymbolTableRecord
100
AcDbBlockTableRecord
2
*MODEL_SPACE
0
BLOCK_RECORD
5
1B
100
AcDbSymbolTableRecord
100
AcDbBlockTableRecord
2
*PAPER_SPACE
0
ENDTAB
0
ENDSEC
0
SECTION
2
BLOCKS
0
BLOCK
5
20
100
AcDbEntity
100
AcDbBlockBegin
2
*MODEL_SPACE
0
ENDBLK
5
21
100
AcDbEntity
100
AcDbBlockEnd
0
BLOCK
5
1C
100
AcDbEntity
100
AcDbBlockBegin
2
*PAPER_SPACE
0
ENDBLK
5
1D
100
AcDbEntity
100
AcDbBlockEnd
0
ENDSEC
0
SECTION
2
ENTITIES
0
CIRCLE
5
100
100
AcDbEntity
8
0
100
AcDbCircle
10
-349.99999999999994
20
126.01550156722337
30
0
40
1.4500000000000313
210
0
220
-0
230
1
0
LINE
5
101
100
AcDbEntity
8
0
100
AcDbLine
10
-279.99999999999994
20
124.99999999999997
30
0
11
-280.00000000000091
21
150
31
0
0
LINE
5
102
100
AcDbEntity
8
0
100
AcDbLine
10
-280.00000000000091
20
150
30
0
11
-348.91261762226225
21
150.00000000000003
31
0
0
SPLINE
5
103
100
AcDbEntity
8
0
100
AcDbSpline
70
0
71
3
72
18
73
14
74
0
42
0.000000001
43
0.0000000001
44
0.0000000001
40
-66.40635730592318
40
-66.40635730592318
40
-66.40635730592318
40
-66.40635730592318
40
-66.386806453137538
40
-66.386806453137538
40
-66.256996546026954
40
-66.256996546026954
40
-65.97778095741829
40
-65.97778095741829
40
-65.671031116001387
40
-65.671031116001387
40
-65.336382655010212
40
-65.336382655010212
40
-65.310500724685937
40
-65.310500724685937
40
-65.310500724685937
40
-65.310500724685937
10
-348.91261762226225
20
150.00000000000003
30
0
10
-350.32003020651302
20
150.00000000000003
30
0
10
-350.96016218242642
20
149.97740498821651
30
0
10
-356.9385877779365
20
149.76354643457037
30
0
10
-361.92433893622024
20
149.07398559113059
30
0
10
-376.85372679144052
20
145.62488672497378
30
0
10
-386.10584371085122
20
141.35253018973413
30
0
10
-402.89141102232327
20
129.53175292872319
30
0
10
-409.99321917987834
20
121.83425995888203
30
0
10
-421.18579059407568
20
104.03363359934471
30
0
10
-424.82237465709966
20
93.991790478973201
30
0
10
-426.6609577879492
20
83.078007313702216
30
0
10
-426.76455458403922
20
82.431964845378189
30
0
10
-426.9160261494136
20
81.323232921171808
30
0
0
SPLINE
5
104
100
AcDbEntity
8
0
100
AcDbSpline
70
0
71
3
72
14
73
10
74
0
42
0.000000001
43
0.0000000001
44
0.0000000001
40
-65.310500724685937
40
-65.310500724685937
40
-65.310500724685937
40
-65.310500724685937
40
-65.284135032969075
40
-65.284135032969075
40
-65.169780430886192
40
-65.169780430886192
40
-64.917167558502882
40
-64.917167558502882
40
-64.702546369194806
40
-64.702546369194806
40
-64.702546369194806
40
-64.702546369194806
10
-426.9160261494136
20
81.323232921171808
30
0
10
-427.07032888288427
20
80.193777592917144
30
0
10
-427.29002384526922
20
78.58634880907762
30
0
10
-429.29940563613707
20
64.078053589795886
30
0
10
-430.97611329850503
20
52.460991184029488
30
0
10
-436.18094237738575
20
17.14529440813876
30
0
10
-439.94310728333335
20
-7.2101035974098293
30
0
10
-446.5085794260068
20
-49.228324641132161
30
0
10
-447.52916061361759
20
-55.661700773882259
30
0
10
-448.00340852715112
20
-58.676767078828334
30
0
0
SPLINE
5
105
100
AcDbEntity
8
0
100
AcDbSpline
70
0
71
3
72
18
73
14
74
0
42
0.000000001
43
0.0000000001
44
0.0000000001
40
-64.702546369194806
40
-64.702546369194806
40
-64.702546369194806
40
-64.702546369194806
40
-64.611051037645822
40
-64.611051037645822
40
-63.390444654980101
40
-63.390444654980101
40
-62.077602597840119
40
-62.077602597840119
40
-60.654048590445498
40
-60.654048590445498
40
-59.098949944605543
40
-59.098949944605543
40
-58.447219838877565
40
-58.447219838877565
40
-58.447219838877565
40
-58.447219838877565
10
-448.00340852715112
20
-58.676767078828334
30
0
10
-448.20558553597789
20
-59.96212241630726
30
0
10
-448.28983512272231
20
-60.629113921604308
30
0
10
-449.65425066144917
20
-71.788539622791234
30
0
10
-448.84323989740096
20
-81.942130677790999
30
0
10
-443.65071266402936
20
-101.5639484959807
30
0
10
-439.06185791637984
20
-110.72946429423845
30
0
10
-426.73381964783465
20
-127.11188400357671
30
0
10
-418.89000566956503
20
-133.94106659420146
30
0
10
-400.91460865470907
20
-144.55587257380532
30
0
10
-390.82297749078805
20
-147.90300259742696
30
0
10
-376.48649137398201
20
-149.85074531317696
30
0
10
-373.61248407192409
20
-150
30
0
10
-370
20
-150
30
0
0
LINE
5
106
100
AcDbEntity
8
0
100
AcDbLine
10
-370
20
-150
30
0
11
-370
21
-105.23204761506405
31
0
0
LINE
5
107
100
AcDbEntity
8
0
100
AcDbLine
10
-370
20
-105.23204761506405
30
0
11
-372.6082346972467
21
-104.90268058136226
31
0
0
ARC
5
108
100
AcDbEntity
8
0
100
AcDbCircle
10
-370
20
-70.000000000000014
30
0
40
34.999999999999972
210
0
220
0
230
1
100
AcDbArc
50
154.16659256909801
51
265.72629988995493
0
LINE
5
109
100
AcDbEntity
8
0
100
AcDbLine
10
-401.50226969137384
20
-54.748540912688199
30
0
11
-329.50356665787325
21
93.966578565775691
31
0
0
ARC
5
110
100
AcDbEntity
8
0
100
AcDbCircle
10
-280
20
69.999999999999943
30
0
40
55.000000000000028
210
0
220
-0
230
1
100
AcDbArc
50
89.999999999999943
51
154.16659256909804
0
CIRCLE
5
111
100
AcDbEntity
8
0
100
AcDbCircle
10
-392.95617714411992
20
-122.65248499466861
30
0
40
5.0625000000000142
210
0
220
-0
230
1
0
CIRCLE
5
112
100
AcDbEntity
8
0
100
AcDbCircle
10
-299.27063152121883
20
136.09806958286759
30
0
40
5.0625000000000142
210
0
220
-0
230
1
0
ENDSEC
0
SECTION
2
OBJECTS
0
DICTIONARY
5
C
100
AcDbDictionary
3
ACAD_GROUP
350
D
3
ACAD_MLINESTYLE
350
17
0
DICTIONARY
5
D
100
AcDbDictionary
0
DICTIONARY
5
1A
330
C
100
AcDbDictionary
0
DICTIONARY
5
17
100
AcDbDictionary
0
ENDSEC
0
EOF
