0
SECTION
2
HEADER
9
$INSUNITS
70
4
9
$ACADVER
1
AC1014
9
$HANDSEED
5
FFFF
0
ENDSEC
0
SECTION
2
TABLES
0
TABLE
2
VPORT
5
8
100
AcDbSymbolTable
0
ENDTAB
0
TABLE
2
LTYPE
5
5
100
AcDbSymbolTable
0
LTYPE
5
14
100
AcDbSymbolTableRecord
100
AcDbLinetypeTableRecord
2
BYBLOCK
70
0
0
LTYPE
5
15
100
AcDbSymbolTableRecord
100
AcDbLinetypeTableRecord
2
BYLAYER
70
0
0
LTYPE
5
16
100
AcDbSymbolTableRecord
100
AcDbLinetypeTableRecord
2
DASHED
70
0
3
Dashed __ __ __ __ __ __ __ __ __ __ __ __ __ _
72
65
73
2
40
0.75
49
0.5
74
0
49
-0.25
74
0
0
ENDTAB
0
TABLE
2
LAYER
5
2
100
AcDbSymbolTable
70
2
0
LAYER
5
50
100
AcDbSymbolTableRecord
100
AcDbLayerTableRecord
2
0
70
0
62
7
6
CONTINUOUS
0
ENDTAB
0
TABLE
2
STYLE
5
3
100
AcDbSymbolTable
70
1
0
STYLE
5
11
100
AcDbSymbolTableRecord
100
AcDbTextStyleTableRecord
2
STANDARD
70
0
0
ENDTAB
0
TABLE
2
VIEW
5
6
100
AcDbSymbolTable
70
0
0
ENDTAB
0
TABLE
2
UCS
5
7
100
AcDbSymbolTable
70
0
0
ENDTAB
0
TABLE
2
APPID
5
9
100
AcDbSymbolTable
70
2
0
APPID
5
12
100
AcDbSymbolTableRecord
100
AcDbRegAppTableRecord
2
ACAD
70
0
0
ENDTAB
0
TABLE
2
DIMSTYLE
5
A
100
AcDbSymbolTable
70
1
0
ENDTAB
0
TABLE
2
BLOCK_RECORD
5
1
100
AcDbSymbolTable
70
1
0
BLOCK_RECORD
5
1F
100
AcDbSymbolTableRecord
100
AcDbBlockTableRecord
2
*MODEL_SPACE
0
BLOCK_RECORD
5
1B
100
AcDbSymbolTableRecord
100
AcDbBlockTableRecord
2
*PAPER_SPACE
0
ENDTAB
0
ENDSEC
0
SECTION
2
BLOCKS
0
BLOCK
5
20
100
AcDbEntity
100
AcDbBlockBegin
2
*MODEL_SPACE
0
ENDBLK
5
21
100
AcDbEntity
100
AcDbBlockEnd
0
BLOCK
5
1C
100
AcDbEntity
100
AcDbBlockBegin
2
*PAPER_SPACE
0
ENDBLK
5
1D
100
AcDbEntity
100
AcDbBlockEnd
0
ENDSEC
0
SECTION
2
ENTITIES
0
CIRCLE
5
100
100
AcDbEntity
8
0
100
AcDbCircle
10
350.00000000000006
20
126.01550156722308
30
0
40
1.4500000000000313
210
0
220
-0
230
1
0
CIRCLE
5
101
100
AcDbEntity
8
0
100
AcDbCircle
10
434
20
-70.000000000000014
30
0
40
1.4500000000000313
210
0
220
-0
230
1
0
LINE
5
102
100
AcDbEntity
8
0
100
AcDbLine
10
370
20
-105.23204878630298
30
0
11
369.99999999999994
21
-150
31
0
0
SPLINE
5
103
100
AcDbEntity
8
0
100
AcDbSpline
70
0
71
3
72
19
73
15
74
0
42
0.000000001
43
0.0000000001
44
0.0000000001
40
-12.49490241802385
40
-12.49490241802385
40
-12.49490241802385
40
-12.49490241802385
40
-10.042686029086818
40
-10.042686029086818
40
-6.5485227476728571
40
-6.5485227476728571
40
-3.2124067482298662
40
-3.2124067482298662
40
0
40
0
40
0
40
1.9599373866844871
40
1.9599373866844871
40
2.7348262242200008
40
2.7348262242200008
40
2.7348262242200008
40
2.7348262242200008
10
369.99999999999994
20
-150
30
0
10
372.63074517994153
20
-150
30
0
10
377.76965413245682
20
-149.92401757812422
30
0
10
394.30367190091346
20
-146.84164210575395
30
0
10
403.86850074926895
20
-143.18358748560027
30
0
10
421.06324110743464
20
-132.19967131043666
30
0
10
428.60273788122248
20
-125.14145416845773
30
0
10
440.49044375461403
20
-108.24151128830232
30
0
10
444.82716671962208
20
-98.672720591274853
30
0
10
447.14281727846299
20
-88.218080079832959
30
0
10
448.55563030634931
20
-81.83954759355538
30
0
10
449.2090319374376
20
-75.154722207566579
30
0
10
448.88128662861527
20
-65.583834541775232
30
0
10
448.79422289719616
20
-64.038572866941948
30
0
10
448.32504788295967
20
-60.500874509898594
30
0
0
SPLINE
5
104
100
AcDbEntity
8
0
100
AcDbSpline
70
0
71
3
72
14
73
10
74
0
42
0.000000001
43
0.0000000001
44
0.0000000001
40
-717.07575081015466
40
-717.07575081015466
40
-717.07575081015466
40
-717.07575081015466
40
-716.51965287577536
40
-716.51965287577536
40
-715.23146181455525
40
-715.23146181455525
40
-712.88049472615762
40
-712.88049472615762
40
-712.71296377709382
40
-712.71296377709382
40
-712.71296377709382
40
-712.71296377709382
10
448.32504788295967
20
-60.500874509898594
30
0
10
447.98834506361197
20
-57.962050031453742
30
0
10
447.51432003926624
20
-54.389399899350792
30
0
10
444.97979399038394
20
-35.244124969082073
30
0
10
443.20199598700083
20
-21.757494956941553
30
0
10
438.03852849321794
20
18.026213725854415
30
0
10
434.37655112036003
20
46.919092396611042
30
0
10
430.9746836435221
20
76.508913847991025
30
0
10
430.79375300293452
20
78.096841535859994
30
0
10
430.63472102504011
20
79.49912549010142
30
0
0
SPLINE
5
105
100
AcDbEntity
8
0
100
AcDbSpline
70
0
71
3
72
16
73
12
74
0
42
0.000000001
43
0.0000000001
44
0.0000000001
40
-712.71296377709382
40
-712.71296377709382
40
-712.71296377709382
40
-712.71296377709382
40
-712.3436805941094
40
-712.3436805941094
40
-711.81326705714446
40
-711.81326705714446
40
-710.8276177185063
40
-710.8276177185063
40
-709.87717627808354
40
-709.87717627808354
40
-708.55131904965094
40
-708.55131904965094
40
-708.55131904965094
40
-708.55131904965094
10
430.63472102504011
20
79.49912549010142
30
0
10
430.28417185593821
20
82.590135747991354
30
0
10
429.93642338038319
20
84.767118779007617
30
0
10
428.12505488224252
20
92.884434811932394
30
0
10
426.595005151701
20
97.709630209677414
30
0
10
420.67697790690102
20
111.40120231468529
30
0
10
415.12412585847784
20
119.80075562197041
30
0
10
400.7782278015606
20
134.11510509732526
30
0
10
392.24396480464753
20
139.96154176253725
30
0
10
368.81401612684095
20
149.6669327517844
30
0
10
357.01410165106336
20
150.00000000000003
30
0
10
352.30967314208033
20
150.00000000000003
30
0
0
LINE
5
106
100
AcDbEntity
8
0
100
AcDbLine
10
352.30967314208038
20
150
30
0
11
280.00000000000051
21
150.00000000000003
31
0
0
LINE
5
107
100
AcDbEntity
8
0
100
AcDbLine
10
280.00000000000051
20
150.00000000000003
30
0
11
280
21
124.99999999999997
31
0
0
ARC
5
108
100
AcDbEntity
8
0
100
AcDbCircle
10
279.99999999999994
20
69.999999999999986
30
0
40
55.000000000000007
210
0
220
-0
230
1
100
AcDbArc
50
25.833407430901875
51
89.999999999999943
0
LINE
5
109
100
AcDbEntity
8
0
100
AcDbLine
10
329.50356665787325
20
93.966578565775649
30
0
11
401.50226969137395
21
-54.748540912688206
31
0
0
ARC
5
110
100
AcDbEntity
8
0
100
AcDbCircle
10
370
20
-69.999999999999972
30
0
40
35.00000000000005
210
0
220
0
230
1
100
AcDbArc
50
-85.726261957174003
51
25.833407430901815
0
LINE
5
111
100
AcDbEntity
8
0
100
AcDbLine
10
372.60825780463233
20
-104.90267885456036
30
0
11
370
21
-105.23204878630298
31
0
0
CIRCLE
5
112
100
AcDbEntity
8
0
100
AcDbCircle
10
299.27063152121895
20
136.09806958286748
30
0
40
5.0625000000000142
210
0
220
-0
230
1
0
CIRCLE
5
113
100
AcDbEntity
8
0
100
AcDbCircle
10
392.95617714411992
20
-122.65248499466878
30
0
40
5.0625000000000142
210
0
220
-0
230
1
0
ENDSEC
0
SECTION
2
OBJECTS
0
DICTIONARY
5
C
100
AcDbDictionary
3
ACAD_GROUP
350
D
3
ACAD_MLINESTYLE
350
17
0
DICTIONARY
5
D
100
AcDbDictionary
0
DICTIONARY
5
1A
330
C
100
AcDbDictionary
0
DICTIONARY
5
17
100
AcDbDictionary
0
ENDSEC
0
EOF
