0
SECTION
2
HEADER
9
$INSUNITS
70
4
9
$ACADVER
1
AC1014
9
$HANDSEED
5
FFFF
0
ENDSEC
0
SECTION
2
TABLES
0
TABLE
2
VPORT
5
8
100
AcDbSymbolTable
0
ENDTAB
0
TABLE
2
LTYPE
5
5
100
AcDbSymbolTable
0
LTYPE
5
14
100
AcDbSymbolTableRecord
100
AcDbLinetypeTableRecord
2
BYBLOCK
70
0
0
LTYPE
5
15
100
AcDbSymbolTableRecord
100
AcDbLinetypeTableRecord
2
BYLAYER
70
0
0
LTYPE
5
16
100
AcDbSymbolTableRecord
100
AcDbLinetypeTableRecord
2
DASHED
70
0
3
Dashed __ __ __ __ __ __ __ __ __ __ __ __ __ _
72
65
73
2
40
0.75
49
0.5
74
0
49
-0.25
74
0
0
ENDTAB
0
TABLE
2
LAYER
5
2
100
AcDbSymbolTable
70
2
0
LAYER
5
50
100
AcDbSymbolTableRecord
100
AcDbLayerTableRecord
2
0
70
0
62
7
6
CONTINUOUS
0
ENDTAB
0
TABLE
2
STYLE
5
3
100
AcDbSymbolTable
70
1
0
STYLE
5
11
100
AcDbSymbolTableRecord
100
AcDbTextStyleTableRecord
2
STANDARD
70
0
0
ENDTAB
0
TABLE
2
VIEW
5
6
100
AcDbSymbolTable
70
0
0
ENDTAB
0
TABLE
2
UCS
5
7
100
AcDbSymbolTable
70
0
0
ENDTAB
0
TABLE
2
APPID
5
9
100
AcDbSymbolTable
70
2
0
APPID
5
12
100
AcDbSymbolTableRecord
100
AcDbRegAppTableRecord
2
ACAD
70
0
0
ENDTAB
0
TABLE
2
DIMSTYLE
5
A
100
AcDbSymbolTable
70
1
0
ENDTAB
0
TABLE
2
BLOCK_RECORD
5
1
100
AcDbSymbolTable
70
1
0
BLOCK_RECORD
5
1F
100
AcDbSymbolTableRecord
100
AcDbBlockTableRecord
2
*MODEL_SPACE
0
BLOCK_RECORD
5
1B
100
AcDbSymbolTableRecord
100
AcDbBlockTableRecord
2
*PAPER_SPACE
0
ENDTAB
0
ENDSEC
0
SECTION
2
BLOCKS
0
BLOCK
5
20
100
AcDbEntity
100
AcDbBlockBegin
2
*MODEL_SPACE
0
ENDBLK
5
21
100
AcDbEntity
100
AcDbBlockEnd
0
BLOCK
5
1C
100
AcDbEntity
100
AcDbBlockBegin
2
*PAPER_SPACE
0
ENDBLK
5
1D
100
AcDbEntity
100
AcDbBlockEnd
0
ENDSEC
0
SECTION
2
ENTITIES
0
CIRCLE
5
100
100
AcDbEntity
8
0
100
AcDbCircle
10
70.000000000000114
20
134.00000000000003
30
0
40
1.4499999999999957
210
0
220
-0
230
1
0
CIRCLE
5
101
100
AcDbEntity
8
0
100
AcDbCircle
10
-349.99999999999994
20
126.01550156722337
30
0
40
1.4500000000000313
210
0
220
-0
230
1
0
CIRCLE
5
102
100
AcDbEntity
8
0
100
AcDbCircle
10
-280
20
-133.9999999999998
30
0
40
1.4499999999999957
210
0
220
-0
230
1
0
CIRCLE
5
103
100
AcDbEntity
8
0
100
AcDbCircle
10
-140
20
-133.99999999999991
30
0
40
1.4499999999999957
210
0
220
-0
230
1
0
CIRCLE
5
104
100
AcDbEntity
8
0
100
AcDbCircle
10
210.00000000000011
20
134.00000000000003
30
0
40
1.4499999999999957
210
0
220
-0
230
1
0
CIRCLE
5
105
100
AcDbEntity
8
0
100
AcDbCircle
10
-69.999999999999886
20
134.00000000000009
30
0
40
1.4499999999999957
210
0
220
-0
230
1
0
CIRCLE
5
106
100
AcDbEntity
8
0
100
AcDbCircle
10
140
20
-134.00000000000003
30
0
40
1.4499999999999957
210
0
220
-0
230
1
0
CIRCLE
5
107
100
AcDbEntity
8
0
100
AcDbCircle
10
0
20
-134.00000000000003
30
0
40
1.45
210
0
220
-0
230
1
0
CIRCLE
5
108
100
AcDbEntity
8
0
100
AcDbCircle
10
280
20
-134.00000000000003
30
0
40
1.4499999999999957
210
0
220
-0
230
1
0
CIRCLE
5
109
100
AcDbEntity
8
0
100
AcDbCircle
10
-209.99999999999989
20
134.0000000000002
30
0
40
1.4499999999999957
210
0
220
-0
230
1
0
LINE
5
110
100
AcDbEntity
8
0
100
AcDbLine
10
369.99999999999994
20
-150
30
0
11
370
21
-105.23204878630298
31
0
0
LINE
5
111
100
AcDbEntity
8
0
100
AcDbLine
10
370
20
-105.23204878630298
30
0
11
216.89065795863254
21
-124.56664579115281
31
0
0
ARC
5
112
100
AcDbEntity
8
0
100
AcDbCircle
10
210.00000000000031
20
-70.000000000005187
30
0
40
54.999999999994813
210
0
220
0
230
1
100
AcDbArc
50
269.99999999999972
51
277.19719657035074
0
LINE
5
113
100
AcDbEntity
8
0
100
AcDbLine
10
210
20
-125
30
0
11
-210
21
-125
31
0
0
ARC
5
114
100
AcDbEntity
8
0
100
AcDbCircle
10
-209.99999999999972
20
-69.99999999999531
30
0
40
55.00000000000469
210
0
220
0
230
1
100
AcDbArc
50
262.80280299823465
51
269.99999999999972
0
LINE
5
115
100
AcDbEntity
8
0
100
AcDbLine
10
-216.89065836949845
20
-124.56664573926879
30
0
11
-372.6082346972467
21
-104.90268058136226
31
0
0
ARC
5
116
100
AcDbEntity
8
0
100
AcDbCircle
10
-370
20
-70.000000000000014
30
0
40
34.999999999999972
210
0
220
0
230
1
100
AcDbArc
50
154.16659256909801
51
265.72629988995493
0
LINE
5
117
100
AcDbEntity
8
0
100
AcDbLine
10
-401.50226969137384
20
-54.748540912688199
30
0
11
-329.50356665787325
21
93.966578565775691
31
0
0
ARC
5
118
100
AcDbEntity
8
0
100
AcDbCircle
10
-280
20
69.999999999999943
30
0
40
55.000000000000028
210
0
220
-0
230
1
100
AcDbArc
50
89.999999999999943
51
154.16659256909804
0
LINE
5
119
100
AcDbEntity
8
0
100
AcDbLine
10
-279.99999999999994
20
124.99999999999997
30
0
11
280.00000000000006
21
124.99999999999997
31
0
0
LINE
5
120
100
AcDbEntity
8
0
100
AcDbLine
10
280.00000000000006
20
124.99999999999997
30
0
11
280.00000000000023
21
150.00000000000003
31
0
0
LINE
5
121
100
AcDbEntity
8
0
100
AcDbLine
10
280.00000000000023
20
150.00000000000003
30
0
11
-352.30967314208033
21
150.00000000000003
31
0
0
SPLINE
5
122
100
AcDbEntity
8
0
100
AcDbSpline
70
0
71
3
72
18
73
14
74
0
42
0.000000001
43
0.0000000001
44
0.0000000001
40
-642.03546529908931
40
-642.03546529908931
40
-642.03546529908931
40
-642.03546529908931
40
-640.42498269009559
40
-640.42498269009559
40
-633.69110733913578
40
-633.69110733913578
40
-617.72634732629854
40
-617.72634732629854
40
-602.08836368412449
40
-602.08836368412449
40
-587.18048242544728
40
-587.18048242544728
40
-583.5998541644509
40
-583.5998541644509
40
-583.5998541644509
40
-583.5998541644509
10
-352.30967314208033
20
150.00000000000003
30
0
10
-354.00881675095047
20
150.00000000000003
30
0
10
-354.60436780245902
20
149.97231606920488
30
0
10
-359.45092073500177
20
149.77457478436222
30
0
10
-363.45409294267006
20
149.32138191767262
30
0
10
-377.15394369001024
20
146.63396607433396
30
0
10
-386.62560481605232
20
142.90635272786767
30
0
10
-403.84265473744517
20
131.66041473890678
30
0
10
-411.4373290864321
20
124.3330588968969
30
0
10
-423.20613961861574
20
106.89593820011405
30
0
10
-427.39208782873737
20
97.118555774967348
30
0
10
-430.05731217643199
20
83.898939488651052
30
0
10
-430.30876613063577
20
82.373272716850039
30
0
10
-430.63472102503999
20
79.499125490101804
30
0
0
SPLINE
5
123
100
AcDbEntity
8
0
100
AcDbSpline
70
0
71
3
72
14
73
10
74
0
42
0.000000001
43
0.0000000001
44
0.0000000001
40
-583.5998541644509
40
-583.5998541644509
40
-583.5998541644509
40
-583.5998541644509
40
-581.65872541315673
40
-581.65872541315673
40
-573.70770621273118
40
-573.70770621273118
40
-558.30232822100504
40
-558.30232822100504
40
-547.23976532559709
40
-547.23976532559709
40
-547.23976532559709
40
-547.23976532559709
10
-430.63472102503999
20
79.499125490101804
30
0
10
-430.81142756116537
20
77.940993952665707
30
0
10
-431.03362589143626
20
75.989286088227843
30
0
10
-432.63593173395827
20
62.098493568227852
30
0
10
-434.03945963179979
20
50.417389621423482
30
0
10
-438.3173978038983
20
15.771767368955022
30
0
10
-441.45312903629758
20
-8.4384853361299008
30
0
10
-446.92959403479824
20
-50.026324228124892
30
0
10
-447.85593503652541
20
-56.963644913819294
30
0
10
-448.32504788295955
20
-60.500874509898338
30
0
0
SPLINE
5
124
100
AcDbEntity
8
0
100
AcDbSpline
70
0
71
3
72
18
73
14
74
0
42
0.000000001
43
0.0000000001
44
0.0000000001
40
-547.23976532559709
40
-547.23976532559709
40
-547.23976532559709
40
-547.23976532559709
40
-541.64695668562638
40
-541.64695668562638
40
-484.72687386096618
40
-484.72687386096618
40
-430.66603687202945
40
-430.66603687202945
40
-378.88985018143165
40
-378.88985018143165
40
-328.95805850560657
40
-328.95805850560657
40
-316.47010066700898
40
-316.47010066700898
40
-316.47010066700898
40
-316.47010066700898
10
-448.32504788295955
20
-60.500874509898338
30
0
10
-448.56221339383296
20
-62.289162489234727
30
0
10
-448.64384596898003
20
-63.213401484702729
30
0
10
-449.57140689255414
20
-74.003719112272265
30
0
10
-448.62222467961158
20
-84.179196746278109
30
0
10
-442.69675825587456
20
-103.63466099498936
30
0
10
-437.97277537921821
20
-112.75592422028092
30
0
10
-425.03028386481128
20
-128.67847383346967
30
0
10
-417.08428497065574
20
-135.40852193285826
30
0
10
-398.7335202622279
20
-145.33788411126335
30
0
10
-388.60039155889513
20
-148.55343079216809
30
0
10
-375.11512690105508
20
-149.8820162155103
30
0
10
-373.62058782073109
20
-150
30
0
10
-370
20
-150
30
0
0
LINE
5
125
100
AcDbEntity
8
0
100
AcDbLine
10
-369.99999999999994
20
-150
30
0
11
369.99999999999994
21
-150
31
0
0
CIRCLE
5
126
100
AcDbEntity
8
0
100
AcDbCircle
10
-392.95617714411992
20
-122.65248499466861
30
0
40
5.0625000000000142
210
0
220
-0
230
1
0
CIRCLE
5
127
100
AcDbEntity
8
0
100
AcDbCircle
10
262.83736377897952
20
137.58514173561184
30
0
40
5.0625000000000142
210
0
220
-0
230
1
0
CIRCLE
5
128
100
AcDbEntity
8
0
100
AcDbCircle
10
-299.27063152121883
20
136.09806958286759
30
0
40
5.0625000000000142
210
0
220
-0
230
1
0
CIRCLE
5
129
100
AcDbEntity
8
0
100
AcDbCircle
10
-344.62633217992482
20
-130.83138183476314
30
0
40
5.0625000000000142
210
0
220
-0
230
1
0
CIRCLE
5
130
100
AcDbEntity
8
0
100
AcDbCircle
10
344.62633217992482
20
-130.83138183476331
30
0
40
5.0625000000000142
210
0
220
-0
230
1
0
CIRCLE
5
131
100
AcDbEntity
8
0
100
AcDbCircle
10
-262.83736377897935
20
137.58514173561201
30
0
40
5.0625000000000142
210
0
220
-0
230
1
0
ENDSEC
0
SECTION
2
OBJECTS
0
DICTIONARY
5
C
100
AcDbDictionary
3
ACAD_GROUP
350
D
3
ACAD_MLINESTYLE
350
17
0
DICTIONARY
5
D
100
AcDbDictionary
0
DICTIONARY
5
1A
330
C
100
AcDbDictionary
0
DICTIONARY
5
17
100
AcDbDictionary
0
ENDSEC
0
EOF
