0
SECTION
2
HEADER
9
$INSUNITS
70
4
9
$ACADVER
1
AC1014
9
$HANDSEED
5
FFFF
0
ENDSEC
0
SECTION
2
TABLES
0
TABLE
2
VPORT
5
8
100
AcDbSymbolTable
0
ENDTAB
0
TABLE
2
LTYPE
5
5
100
AcDbSymbolTable
0
LTYPE
5
14
100
AcDbSymbolTableRecord
100
AcDbLinetypeTableRecord
2
BYBLOCK
70
0
0
LTYPE
5
15
100
AcDbSymbolTableRecord
100
AcDbLinetypeTableRecord
2
BYLAYER
70
0
0
LTYPE
5
16
100
AcDbSymbolTableRecord
100
AcDbLinetypeTableRecord
2
DASHED
70
0
3
Dashed __ __ __ __ __ __ __ __ __ __ __ __ __ _
72
65
73
2
40
0.75
49
0.5
74
0
49
-0.25
74
0
0
ENDTAB
0
TABLE
2
LAYER
5
2
100
AcDbSymbolTable
70
2
0
LAYER
5
50
100
AcDbSymbolTableRecord
100
AcDbLayerTableRecord
2
0
70
0
62
7
6
CONTINUOUS
0
ENDTAB
0
TABLE
2
STYLE
5
3
100
AcDbSymbolTable
70
1
0
STYLE
5
11
100
AcDbSymbolTableRecord
100
AcDbTextStyleTableRecord
2
STANDARD
70
0
0
ENDTAB
0
TABLE
2
VIEW
5
6
100
AcDbSymbolTable
70
0
0
ENDTAB
0
TABLE
2
UCS
5
7
100
AcDbSymbolTable
70
0
0
ENDTAB
0
TABLE
2
APPID
5
9
100
AcDbSymbolTable
70
2
0
APPID
5
12
100
AcDbSymbolTableRecord
100
AcDbRegAppTableRecord
2
ACAD
70
0
0
ENDTAB
0
TABLE
2
DIMSTYLE
5
A
100
AcDbSymbolTable
70
1
0
ENDTAB
0
TABLE
2
BLOCK_RECORD
5
1
100
AcDbSymbolTable
70
1
0
BLOCK_RECORD
5
1F
100
AcDbSymbolTableRecord
100
AcDbBlockTableRecord
2
*MODEL_SPACE
0
BLOCK_RECORD
5
1B
100
AcDbSymbolTableRecord
100
AcDbBlockTableRecord
2
*PAPER_SPACE
0
ENDTAB
0
ENDSEC
0
SECTION
2
BLOCKS
0
BLOCK
5
20
100
AcDbEntity
100
AcDbBlockBegin
2
*MODEL_SPACE
0
ENDBLK
5
21
100
AcDbEntity
100
AcDbBlockEnd
0
BLOCK
5
1C
100
AcDbEntity
100
AcDbBlockBegin
2
*PAPER_SPACE
0
ENDBLK
5
1D
100
AcDbEntity
100
AcDbBlockEnd
0
ENDSEC
0
SECTION
2
ENTITIES
0
CIRCLE
5
100
100
AcDbEntity
8
0
100
AcDbCircle
10
262.83736377897952
20
137.58514173561184
30
0
40
5.0625000000000142
210
0
220
-0
230
1
0
CIRCLE
5
101
100
AcDbEntity
8
0
100
AcDbCircle
10
392.95617714411992
20
-122.65248499466878
30
0
40
5.0625000000000142
210
0
220
-0
230
1
0
CIRCLE
5
102
100
AcDbEntity
8
0
100
AcDbCircle
10
-344.62633217992482
20
-130.83138183476314
30
0
40
5.0625000000000142
210
0
220
-0
230
1
0
CIRCLE
5
103
100
AcDbEntity
8
0
100
AcDbCircle
10
299.27063152121895
20
136.09806958286748
30
0
40
5.0625000000000142
210
0
220
-0
230
1
0
CIRCLE
5
104
100
AcDbEntity
8
0
100
AcDbCircle
10
344.62633217992482
20
-130.83138183476331
30
0
40
5.0625000000000142
210
0
220
-0
230
1
0
CIRCLE
5
105
100
AcDbEntity
8
0
100
AcDbCircle
10
-262.83736377897935
20
137.58514173561201
30
0
40
5.0625000000000142
210
0
220
-0
230
1
0
LINE
5
106
100
AcDbEntity
8
0
100
AcDbLine
10
-18.694759951120115
20
-150
30
0
11
-18.694759951120123
21
-133.11221233028988
31
0
0
LINE
5
107
100
AcDbEntity
8
0
100
AcDbLine
10
-18.694759951120123
20
-133.11221233028988
30
0
11
-6.4442341947436539
21
-133.11221233028988
31
0
0
LINE
5
108
100
AcDbEntity
8
0
100
AcDbLine
10
-6.4442341947436539
20
-133.11221233028988
30
0
11
-6.4442341947436566
21
-150
31
0
0
LINE
5
109
100
AcDbEntity
8
0
100
AcDbLine
10
-6.4442341947436566
20
-150
30
0
11
370.00000000000006
21
-150
31
0
0
SPLINE
5
110
100
AcDbEntity
8
0
100
AcDbSpline
70
0
71
3
72
19
73
15
74
0
42
0.000000001
43
0.0000000001
44
0.0000000001
40
-12.119523033275254
40
-12.119523033275254
40
-12.119523033275254
40
-12.119523033275254
40
-10.766083674807842
40
-10.766083674807842
40
-6.8453270129793733
40
-6.8453270129793733
40
-3.2755581850898241
40
-3.2755581850898241
40
0
40
0
40
0
40
2.1807960318600408
40
2.1807960318600408
40
3.2363009364912045
40
3.2363009364912045
40
3.2363009364912045
40
3.2363009364912045
10
370.00000000000006
20
-150
30
0
10
373.0388650917688
20
-150
30
0
10
375.24665865857935
20
-149.89756052184612
30
0
10
388.19897991906998
20
-148.4967444400113
30
0
10
398.04868564919303
20
-145.66357509796939
30
0
10
416.06965124695586
20
-136.00866221241986
30
0
10
424.17288569685587
20
-129.63197698242783
30
0
10
437.31980381791425
20
-113.71335043240529
30
0
10
442.44686427481975
20
-104.59983570230014
30
0
10
445.63914346495028
20
-94.158399421036322
30
0
10
447.76449413712436
20
-87.206716220063058
30
0
10
448.99798055812892
20
-79.755617053220192
30
0
10
449.15079880947894
20
-68.193812382323969
30
0
10
448.99565594138187
20
-65.56519201995053
30
0
10
448.64668723876821
20
-62.32498194096928
30
0
0
SPLINE
5
111
100
AcDbEntity
8
0
100
AcDbSpline
70
0
71
3
72
14
73
10
74
0
42
0.000000001
43
0.0000000001
44
0.0000000001
40
-206.85756995294889
40
-206.85756995294889
40
-206.85756995294889
40
-206.85756995294889
40
-206.5234811925888
40
-206.5234811925888
40
-203.31694448720475
40
-203.31694448720475
40
-197.69449044039462
40
-197.69449044039462
40
-194.42532111053819
40
-194.42532111053819
40
-194.42532111053819
40
-194.42532111053819
10
448.64668723876821
20
-62.32498194096928
30
0
10
448.53623154997968
20
-61.299389578637822
30
0
10
448.41904364339194
20
-60.211183544081806
30
0
10
447.04329681221066
20
-47.432912636929998
30
0
10
445.7974375647193
20
-35.84388889269475
30
0
10
441.9989725315657
20
-0.063532473235583531
30
0
10
439.33866529290071
20
25.404599273699155
30
0
10
435.29804801193438
20
67.146967336459198
30
0
10
434.70815567611953
20
73.763122186269555
30
0
10
434.35341590066639
20
77.675018059031459
30
0
0
SPLINE
5
112
100
AcDbEntity
8
0
100
AcDbSpline
70
0
71
3
72
18
73
14
74
0
42
0.000000001
43
0.0000000001
44
0.0000000001
40
-194.42532111053819
40
-194.42532111053819
40
-194.42532111053819
40
-194.42532111053819
40
-192.44798973943446
40
-192.44798973943446
40
-187.01937487738914
40
-187.01937487738914
40
-177.48144751468845
40
-177.48144751468845
40
-168.78484529136861
40
-168.78484529136861
40
-160.91812516861694
40
-160.91812516861694
40
-159.84128363253953
40
-159.84128363253953
40
-159.84128363253953
40
-159.84128363253953
10
434.35341590066639
20
77.675018059031459
30
0
10
434.13885433599745
20
80.041097527311265
30
0
10
433.94651549461923
20
81.411810975375005
30
0
10
432.92657144068556
20
87.828234400653272
30
0
10
431.72963610055569
20
92.727606236680415
30
0
10
426.72618778056659
20
106.6326080470556
30
0
10
421.82495816048203
20
115.38776036663812
30
0
10
408.4336691237238
20
130.58819444072753
30
0
10
400.39669578589553
20
137.04283916865694
30
0
10
381.82569425765479
20
146.21342556910062
30
0
10
371.74404743837243
20
149.14727576796923
30
0
10
359.17763051707948
20
149.9385699701744
30
0
10
358.33639440856109
20
150.00000000000003
30
0
10
355.70672866189824
20
150.00000000000003
30
0
0
LINE
5
113
100
AcDbEntity
8
0
100
AcDbLine
10
355.7067286618983
20
150.00000000000003
30
0
11
-279.99999999904458
21
150.00000000000003
31
0
0
LINE
5
114
100
AcDbEntity
8
0
100
AcDbLine
10
-279.99999999904458
20
150.00000000000003
30
0
11
-279.99999999999994
21
124.99999999999997
31
0
0
LINE
5
115
100
AcDbEntity
8
0
100
AcDbLine
10
-279.99999999999994
20
124.99999999999997
30
0
11
280.00000000000006
21
124.99999999999997
31
0
0
ARC
5
116
100
AcDbEntity
8
0
100
AcDbCircle
10
279.99999999999994
20
69.999999999999986
30
0
40
55.000000000000007
210
0
220
-0
230
1
100
AcDbArc
50
25.833407430901875
51
89.999999999999901
0
LINE
5
117
100
AcDbEntity
8
0
100
AcDbLine
10
329.50356665787325
20
93.966578565775649
30
0
11
401.50226969137395
21
-54.748540912688206
31
0
0
ARC
5
118
100
AcDbEntity
8
0
100
AcDbCircle
10
370
20
-69.999999999999972
30
0
40
35.00000000000005
210
0
220
0
230
1
100
AcDbArc
50
-85.726261957174003
51
25.833407430901815
0
LINE
5
119
100
AcDbEntity
8
0
100
AcDbLine
10
372.60825780463233
20
-104.90267885456036
30
0
11
216.89065795863254
21
-124.56664579115281
31
0
0
ARC
5
120
100
AcDbEntity
8
0
100
AcDbCircle
10
210.00000000000031
20
-70.000000000005187
30
0
40
54.999999999994813
210
0
220
0
230
1
100
AcDbArc
50
269.99999999999972
51
277.19719657035074
0
LINE
5
121
100
AcDbEntity
8
0
100
AcDbLine
10
210
20
-125
30
0
11
-210
21
-125
31
0
0
ARC
5
122
100
AcDbEntity
8
0
100
AcDbCircle
10
-209.99999999999972
20
-69.99999999999531
30
0
40
55.00000000000469
210
0
220
0
230
1
100
AcDbArc
50
262.80280299823465
51
269.99999999999972
0
LINE
5
123
100
AcDbEntity
8
0
100
AcDbLine
10
-216.89065836949845
20
-124.56664573926879
30
0
11
-370
21
-105.23204761506405
31
0
0
LINE
5
124
100
AcDbEntity
8
0
100
AcDbLine
10
-370
20
-105.23204761506405
30
0
11
-370
21
-150
31
0
0
LINE
5
125
100
AcDbEntity
8
0
100
AcDbLine
10
-370
20
-150
30
0
11
-18.694759951120115
21
-150
31
0
0
CIRCLE
5
126
100
AcDbEntity
8
0
100
AcDbCircle
10
434
20
-70.000000000000014
30
0
40
1.4500000000000313
210
0
220
-0
230
1
0
CIRCLE
5
127
100
AcDbEntity
8
0
100
AcDbCircle
10
-209.99999999999989
20
134.0000000000002
30
0
40
1.4499999999999957
210
0
220
-0
230
1
0
CIRCLE
5
128
100
AcDbEntity
8
0
100
AcDbCircle
10
280
20
-134.00000000000003
30
0
40
1.4499999999999957
210
0
220
-0
230
1
0
CIRCLE
5
129
100
AcDbEntity
8
0
100
AcDbCircle
10
0
20
-134.00000000000003
30
0
40
1.45
210
0
220
-0
230
1
0
CIRCLE
5
130
100
AcDbEntity
8
0
100
AcDbCircle
10
140
20
-134.00000000000003
30
0
40
1.4499999999999957
210
0
220
-0
230
1
0
CIRCLE
5
131
100
AcDbEntity
8
0
100
AcDbCircle
10
-69.999999999999886
20
134.00000000000009
30
0
40
1.4499999999999957
210
0
220
-0
230
1
0
CIRCLE
5
132
100
AcDbEntity
8
0
100
AcDbCircle
10
350.00000000000006
20
126.01550156722308
30
0
40
1.4500000000000313
210
0
220
-0
230
1
0
CIRCLE
5
133
100
AcDbEntity
8
0
100
AcDbCircle
10
210.00000000000011
20
134.00000000000003
30
0
40
1.4499999999999957
210
0
220
-0
230
1
0
CIRCLE
5
134
100
AcDbEntity
8
0
100
AcDbCircle
10
-140
20
-133.99999999999991
30
0
40
1.4499999999999957
210
0
220
-0
230
1
0
CIRCLE
5
135
100
AcDbEntity
8
0
100
AcDbCircle
10
-280
20
-133.9999999999998
30
0
40
1.4499999999999957
210
0
220
-0
230
1
0
CIRCLE
5
136
100
AcDbEntity
8
0
100
AcDbCircle
10
70.000000000000114
20
134.00000000000003
30
0
40
1.4499999999999957
210
0
220
-0
230
1
0
ENDSEC
0
SECTION
2
OBJECTS
0
DICTIONARY
5
C
100
AcDbDictionary
3
ACAD_GROUP
350
D
3
ACAD_MLINESTYLE
350
17
0
DICTIONARY
5
D
100
AcDbDictionary
0
DICTIONARY
5
1A
330
C
100
AcDbDictionary
0
DICTIONARY
5
17
100
AcDbDictionary
0
ENDSEC
0
EOF
