0
SECTION
2
HEADER
9
$INSUNITS
70
4
9
$ACADVER
1
AC1014
9
$HANDSEED
5
FFFF
0
ENDSEC
0
SECTION
2
TABLES
0
TABLE
2
VPORT
5
8
100
AcDbSymbolTable
0
ENDTAB
0
TABLE
2
LTYPE
5
5
100
AcDbSymbolTable
0
LTYPE
5
14
100
AcDbSymbolTableRecord
100
AcDbLinetypeTableRecord
2
BYBLOCK
70
0
0
LTYPE
5
15
100
AcDbSymbolTableRecord
100
AcDbLinetypeTableRecord
2
BYLAYER
70
0
0
LTYPE
5
16
100
AcDbSymbolTableRecord
100
AcDbLinetypeTableRecord
2
DASHED
70
0
3
Dashed __ __ __ __ __ __ __ __ __ __ __ __ __ _
72
65
73
2
40
0.75
49
0.5
74
0
49
-0.25
74
0
0
ENDTAB
0
TABLE
2
LAYER
5
2
100
AcDbSymbolTable
70
2
0
LAYER
5
50
100
AcDbSymbolTableRecord
100
AcDbLayerTableRecord
2
0
70
0
62
7
6
CONTINUOUS
0
ENDTAB
0
TABLE
2
STYLE
5
3
100
AcDbSymbolTable
70
1
0
STYLE
5
11
100
AcDbSymbolTableRecord
100
AcDbTextStyleTableRecord
2
STANDARD
70
0
0
ENDTAB
0
TABLE
2
VIEW
5
6
100
AcDbSymbolTable
70
0
0
ENDTAB
0
TABLE
2
UCS
5
7
100
AcDbSymbolTable
70
0
0
ENDTAB
0
TABLE
2
APPID
5
9
100
AcDbSymbolTable
70
2
0
APPID
5
12
100
AcDbSymbolTableRecord
100
AcDbRegAppTableRecord
2
ACAD
70
0
0
ENDTAB
0
TABLE
2
DIMSTYLE
5
A
100
AcDbSymbolTable
70
1
0
ENDTAB
0
TABLE
2
BLOCK_RECORD
5
1
100
AcDbSymbolTable
70
1
0
BLOCK_RECORD
5
1F
100
AcDbSymbolTableRecord
100
AcDbBlockTableRecord
2
*MODEL_SPACE
0
BLOCK_RECORD
5
1B
100
AcDbSymbolTableRecord
100
AcDbBlockTableRecord
2
*PAPER_SPACE
0
ENDTAB
0
ENDSEC
0
SECTION
2
BLOCKS
0
BLOCK
5
20
100
AcDbEntity
100
AcDbBlockBegin
2
*MODEL_SPACE
0
ENDBLK
5
21
100
AcDbEntity
100
AcDbBlockEnd
0
BLOCK
5
1C
100
AcDbEntity
100
AcDbBlockBegin
2
*PAPER_SPACE
0
ENDBLK
5
1D
100
AcDbEntity
100
AcDbBlockEnd
0
ENDSEC
0
SECTION
2
ENTITIES
0
CIRCLE
5
100
100
AcDbEntity
8
0
100
AcDbCircle
10
-349.99999999999994
20
126.01550156722337
30
0
40
1.4500000000000313
210
0
220
-0
230
1
0
LINE
5
101
100
AcDbEntity
8
0
100
AcDbLine
10
-279.99999999999994
20
124.99999999999997
30
0
11
-280.00000000000006
21
150.00000000000003
31
0
0
LINE
5
102
100
AcDbEntity
8
0
100
AcDbLine
10
-280.00000000000006
20
150.00000000000003
30
0
11
-355.7067286618983
21
150.00000000000003
31
0
0
SPLINE
5
103
100
AcDbEntity
8
0
100
AcDbSpline
70
0
71
3
72
18
73
14
74
0
42
0.000000001
43
0.0000000001
44
0.0000000001
40
-134.60739399712315
40
-134.60739399712315
40
-134.60739399712315
40
-134.60739399712315
40
-134.05702664231828
40
-134.05702664231828
40
-131.59036370871419
40
-131.59036370871419
40
-127.12986747912055
40
-127.12986747912055
40
-122.97529640367244
40
-122.97529640367244
40
-119.23116885671074
40
-119.23116885671074
40
-118.63249371564596
40
-118.63249371564596
40
-118.63249371564596
40
-118.63249371564596
10
-355.7067286618983
20
150.00000000000003
30
0
10
-357.47629289329734
20
150.00000000000003
30
0
10
-358.19739229405224
20
149.96806693876073
30
0
10
-364.03060736018341
20
149.70642094094123
30
0
10
-369.02291707321285
20
149.05470275968975
30
0
10
-383.54160689693521
20
145.56494547457501
30
0
10
-392.91292640179586
20
141.51519975328452
30
0
10
-409.72572658458546
20
129.46874303868179
30
0
10
-417.10038977472323
20
121.86168658035037
30
0
10
-428.13479156171013
20
103.84509160589387
30
0
10
-431.98439483624418
20
93.942373310123457
30
0
10
-433.98341317964338
20
81.147677830936473
30
0
10
-434.17150331703249
20
79.681060612934999
30
0
10
-434.35341590066639
20
77.675018059031359
30
0
0
SPLINE
5
104
100
AcDbEntity
8
0
100
AcDbSpline
70
0
71
3
72
16
73
12
74
0
42
0.000000001
43
0.0000000001
44
0.0000000001
40
-118.63249371564596
40
-118.63249371564596
40
-118.63249371564596
40
-118.63249371564596
40
-118.37498579378934
40
-118.37498579378934
40
-116.46485436059827
40
-116.46485436059827
40
-114.16241161198899
40
-114.16241161198899
40
-110.07239618488114
40
-110.07239618488114
40
-109.78347985779565
40
-109.78347985779565
40
-109.78347985779565
40
-109.78347985779565
10
-434.35341590066639
20
77.675018059031359
30
0
10
-434.43166189445839
20
76.81215970100277
30
0
10
-434.5191632908921
20
75.850461583975431
30
0
10
-435.38723543676616
20
66.362941880754022
30
0
10
-436.22863650807113
20
57.479504151038263
30
0
10
-438.22673224617461
20
36.985465251834277
30
0
10
-439.42513266260414
20
25.063213620709345
30
0
10
-442.98107981159808
20
-9.5007708969536253
30
0
10
-445.3339161267412
20
-31.550363370584282
30
0
10
-448.33123186513353
20
-59.395795772059408
30
0
10
-448.49686810553379
20
-60.93389597281692
30
0
10
-448.6466872387681
20
-62.324981940968541
30
0
0
SPLINE
5
105
100
AcDbEntity
8
0
100
AcDbSpline
70
0
71
3
72
16
73
12
74
0
42
0.000000001
43
0.0000000001
44
0.0000000001
40
-109.78347985779565
40
-109.78347985779565
40
-109.78347985779565
40
-109.78347985779565
40
-109.09204592244431
40
-109.09204592244431
40
-107.32305955042686
40
-107.32305955042686
40
-105.71974433700007
40
-105.71974433700007
40
-104.25497716125649
40
-104.25497716125649
40
-102.1955480993991
40
-102.1955480993991
40
-102.1955480993991
40
-102.1955480993991
10
-448.6466872387681
20
-62.324981940968541
30
0
10
-449.00523406763068
20
-65.654125901346021
30
0
10
-449.14974258517566
20
-68.154219437263379
30
0
10
-448.97768529239335
20
-81.594978833582147
30
0
10
-447.10659762934017
20
-91.662409034557655
30
0
10
-439.22276157552568
20
-110.5117224711579
30
0
10
-433.6657788125504
20
-119.17990773094651
30
0
10
-419.10279963337109
20
-133.77457630973188
30
0
10
-410.5454193396406
20
-139.75134343188154
30
0
10
-386.28147265975872
20
-149.82424672921871
30
0
10
-373.96002181144758
20
-149.99999999999997
30
0
10
-370.00000000000028
20
-150
30
0
0
LINE
5
106
100
AcDbEntity
8
0
100
AcDbLine
10
-370.00000000000023
20
-150
30
0
11
-370
21
-105.23204761506405
31
0
0
LINE
5
107
100
AcDbEntity
8
0
100
AcDbLine
10
-370
20
-105.23204761506405
30
0
11
-372.6082346972467
21
-104.90268058136226
31
0
0
ARC
5
108
100
AcDbEntity
8
0
100
AcDbCircle
10
-370
20
-70.000000000000014
30
0
40
34.999999999999972
210
0
220
0
230
1
100
AcDbArc
50
154.16659256909801
51
265.72629988995493
0
LINE
5
109
100
AcDbEntity
8
0
100
AcDbLine
10
-401.50226969137384
20
-54.748540912688199
30
0
11
-329.50356665787325
21
93.966578565775691
31
0
0
ARC
5
110
100
AcDbEntity
8
0
100
AcDbCircle
10
-280
20
69.999999999999943
30
0
40
55.000000000000028
210
0
220
-0
230
1
100
AcDbArc
50
89.999999999999943
51
154.16659256909804
0
CIRCLE
5
111
100
AcDbEntity
8
0
100
AcDbCircle
10
-392.95617714411992
20
-122.65248499466861
30
0
40
5.0625000000000142
210
0
220
-0
230
1
0
CIRCLE
5
112
100
AcDbEntity
8
0
100
AcDbCircle
10
-299.27063152121883
20
136.09806958286759
30
0
40
5.0625000000000142
210
0
220
-0
230
1
0
ENDSEC
0
SECTION
2
OBJECTS
0
DICTIONARY
5
C
100
AcDbDictionary
3
ACAD_GROUP
350
D
3
ACAD_MLINESTYLE
350
17
0
DICTIONARY
5
D
100
AcDbDictionary
0
DICTIONARY
5
1A
330
C
100
AcDbDictionary
0
DICTIONARY
5
17
100
AcDbDictionary
0
ENDSEC
0
EOF
