0
SECTION
2
HEADER
9
$INSUNITS
70
4
9
$ACADVER
1
AC1014
9
$HANDSEED
5
FFFF
0
ENDSEC
0
SECTION
2
TABLES
0
TABLE
2
VPORT
5
8
100
AcDbSymbolTable
0
ENDTAB
0
TABLE
2
LTYPE
5
5
100
AcDbSymbolTable
0
LTYPE
5
14
100
AcDbSymbolTableRecord
100
AcDbLinetypeTableRecord
2
BYBLOCK
70
0
0
LTYPE
5
15
100
AcDbSymbolTableRecord
100
AcDbLinetypeTableRecord
2
BYLAYER
70
0
0
LTYPE
5
16
100
AcDbSymbolTableRecord
100
AcDbLinetypeTableRecord
2
DASHED
70
0
3
Dashed __ __ __ __ __ __ __ __ __ __ __ __ __ _
72
65
73
2
40
0.75
49
0.5
74
0
49
-0.25
74
0
0
ENDTAB
0
TABLE
2
LAYER
5
2
100
AcDbSymbolTable
70
2
0
LAYER
5
50
100
AcDbSymbolTableRecord
100
AcDbLayerTableRecord
2
0
70
0
62
7
6
CONTINUOUS
0
ENDTAB
0
TABLE
2
STYLE
5
3
100
AcDbSymbolTable
70
1
0
STYLE
5
11
100
AcDbSymbolTableRecord
100
AcDbTextStyleTableRecord
2
STANDARD
70
0
0
ENDTAB
0
TABLE
2
VIEW
5
6
100
AcDbSymbolTable
70
0
0
ENDTAB
0
TABLE
2
UCS
5
7
100
AcDbSymbolTable
70
0
0
ENDTAB
0
TABLE
2
APPID
5
9
100
AcDbSymbolTable
70
2
0
APPID
5
12
100
AcDbSymbolTableRecord
100
AcDbRegAppTableRecord
2
ACAD
70
0
0
ENDTAB
0
TABLE
2
DIMSTYLE
5
A
100
AcDbSymbolTable
70
1
0
ENDTAB
0
TABLE
2
BLOCK_RECORD
5
1
100
AcDbSymbolTable
70
1
0
BLOCK_RECORD
5
1F
100
AcDbSymbolTableRecord
100
AcDbBlockTableRecord
2
*MODEL_SPACE
0
BLOCK_RECORD
5
1B
100
AcDbSymbolTableRecord
100
AcDbBlockTableRecord
2
*PAPER_SPACE
0
ENDTAB
0
ENDSEC
0
SECTION
2
BLOCKS
0
BLOCK
5
20
100
AcDbEntity
100
AcDbBlockBegin
2
*MODEL_SPACE
0
ENDBLK
5
21
100
AcDbEntity
100
AcDbBlockEnd
0
BLOCK
5
1C
100
AcDbEntity
100
AcDbBlockBegin
2
*PAPER_SPACE
0
ENDBLK
5
1D
100
AcDbEntity
100
AcDbBlockEnd
0
ENDSEC
0
SECTION
2
ENTITIES
0
CIRCLE
5
100
100
AcDbEntity
8
0
100
AcDbCircle
10
434
20
-70.000000000000014
30
0
40
2.5
210
0
220
0
230
1
0
CIRCLE
5
101
100
AcDbEntity
8
0
100
AcDbCircle
10
-209.99999999999989
20
134.0000000000002
30
0
40
2.5
210
0
220
0
230
1
0
CIRCLE
5
102
100
AcDbEntity
8
0
100
AcDbCircle
10
140
20
-134.00000000000003
30
0
40
2.5
210
0
220
0
230
1
0
CIRCLE
5
103
100
AcDbEntity
8
0
100
AcDbCircle
10
280
20
-134.00000000000003
30
0
40
2.5
210
0
220
0
230
1
0
CIRCLE
5
104
100
AcDbEntity
8
0
100
AcDbCircle
10
210.00000000000011
20
134.00000000000003
30
0
40
2.5
210
0
220
0
230
1
0
CIRCLE
5
105
100
AcDbEntity
8
0
100
AcDbCircle
10
-434
20
-69.999999999999673
30
0
40
2.5
210
0
220
0
230
1
0
CIRCLE
5
106
100
AcDbEntity
8
0
100
AcDbCircle
10
350.00000000000006
20
126.01550156722308
30
0
40
2.5
210
0
220
0
230
1
0
CIRCLE
5
107
100
AcDbEntity
8
0
100
AcDbCircle
10
70.000000000000114
20
134.00000000000003
30
0
40
2.5
210
0
220
0
230
1
0
CIRCLE
5
108
100
AcDbEntity
8
0
100
AcDbCircle
10
-140
20
-133.99999999999991
30
0
40
2.5
210
0
220
0
230
1
0
CIRCLE
5
109
100
AcDbEntity
8
0
100
AcDbCircle
10
-280
20
-133.9999999999998
30
0
40
2.5
210
0
220
0
230
1
0
CIRCLE
5
110
100
AcDbEntity
8
0
100
AcDbCircle
10
-69.999999999999886
20
134.00000000000009
30
0
40
2.5
210
0
220
0
230
1
0
CIRCLE
5
111
100
AcDbEntity
8
0
100
AcDbCircle
10
-349.99999999999994
20
126.01550156722337
30
0
40
2.5
210
0
220
0
230
1
0
CIRCLE
5
112
100
AcDbEntity
8
0
100
AcDbCircle
10
0
20
-134.00000000000003
30
0
40
2.5
210
0
220
0
230
1
0
CIRCLE
5
113
100
AcDbEntity
8
0
100
AcDbCircle
10
-370
20
-51.150000000000006
30
0
40
1.7999999999999972
210
0
220
-0
230
1
0
CIRCLE
5
114
100
AcDbEntity
8
0
100
AcDbCircle
10
370
20
-70.000000000000014
30
0
40
12.71099999999997
210
0
220
-0
230
1
0
CIRCLE
5
115
100
AcDbEntity
8
0
100
AcDbCircle
10
-370
20
-70
30
0
40
12.71099999999997
210
0
220
-0
230
1
0
LWPOLYLINE
5
116
100
AcDbEntity
8
0
100
AcDbPolyline
90
4
70
1
43
0.0
10
-276.70476489758852
20
114.17727272727278
42
0.94764931049744294
10
-283.29523510241148
20
114.17727272727279
42
0.92818687904820085
10
-283.2952351024116
20
25.822727272727267
42
0.94764931049743995
10
-276.70476489758846
20
25.822727272727253
42
0.92818687904820085
0
CIRCLE
5
117
100
AcDbEntity
8
0
100
AcDbCircle
10
-370
20
-88.849999999999994
30
0
40
1.7999999999999972
210
0
220
-0
230
1
0
CIRCLE
5
118
100
AcDbEntity
8
0
100
AcDbCircle
10
370
20
-51.15000000000002
30
0
40
1.7999999999999972
210
0
220
-0
230
1
0
LWPOLYLINE
5
119
100
AcDbEntity
8
0
100
AcDbPolyline
90
4
70
1
43
0.0
10
-136.70476489758843
20
114.17727272727276
42
0.94764931049744106
10
-143.29523510241157
20
114.17727272727276
42
0.92818687904819919
10
-143.29523510241162
20
25.822727272727271
42
0.94764931049744183
10
-136.70476489758843
20
25.822727272727263
42
0.92818687904819919
0
LWPOLYLINE
5
120
100
AcDbEntity
8
0
100
AcDbPolyline
90
4
70
1
43
0.0
10
206.70476489758846
20
-114.17727272727275
42
0.94764931049744106
10
213.29523510241154
20
-114.17727272727275
42
0.92818687904820152
10
213.29523510241148
20
-25.822727272727235
42
0.94764931049743895
10
206.70476489758843
20
-25.822727272727228
42
0.92818687904820085
0
LWPOLYLINE
5
121
100
AcDbEntity
8
0
100
AcDbPolyline
90
4
70
1
43
0.0
10
73.295235102411539
20
-25.822727272727249
42
0.9476493104974385
10
66.704764897588461
20
-25.822727272727235
42
0.92818687904820152
10
66.704764897588532
20
-114.17727272727275
42
0.94764931049743262
10
73.295235102411482
20
-114.17727272727276
42
0.92818687904820152
0
LWPOLYLINE
5
122
100
AcDbEntity
8
0
100
AcDbPolyline
90
4
70
1
43
0.0
10
143.29523510241157
20
114.17727272727276
42
0.94764931049744106
10
136.70476489758843
20
114.17727272727276
42
0.92818687904819985
10
136.70476489758838
20
25.822727272727271
42
0.94764931049744183
10
143.29523510241157
20
25.822727272727271
42
0.92818687904819919
0
LWPOLYLINE
5
123
100
AcDbEntity
8
0
100
AcDbPolyline
90
4
70
1
43
0.0
10
-3.2952351024115889
20
25.822727272727256
42
0.94764931049744439
10
3.2952351024115947
20
25.822727272727288
42
0.92818687904819919
10
3.2952351024116364
20
114.17727272727275
42
0.94764931049743806
10
-3.2952351024115427
20
114.17727272727279
42
0.92818687904820019
0
LWPOLYLINE
5
124
100
AcDbEntity
8
0
100
AcDbPolyline
90
4
70
1
43
0.0
10
-66.704764897588461
20
-25.822727272727249
42
0.9476493104974385
10
-73.295235102411539
20
-25.822727272727235
42
0.92818687904820152
10
-73.295235102411468
20
-114.17727272727275
42
0.94764931049743262
10
-66.704764897588518
20
-114.17727272727276
42
0.92818687904820152
0
LWPOLYLINE
5
125
100
AcDbEntity
8
0
100
AcDbPolyline
90
4
70
1
43
0.0
10
276.70476489758835
20
25.822727272727271
42
0.94764931049744627
10
283.29523510241165
20
25.822727272727271
42
0.92818687904819919
10
283.29523510241154
20
114.17727272727276
42
0.94764931049744139
10
276.70476489758846
20
114.17727272727276
42
0.92818687904819919
0
LWPOLYLINE
5
126
100
AcDbEntity
8
0
100
AcDbPolyline
90
4
70
1
43
0.0
10
-206.70476489758846
20
-25.822727272727249
42
0.94764931049743895
10
-213.29523510241154
20
-25.822727272727235
42
0.92818687904820019
10
-213.29523510241154
20
-114.17727272727274
42
0.9476493104974345
10
-206.70476489758852
20
-114.17727272727276
42
0.92818687904820152
0
CIRCLE
5
127
100
AcDbEntity
8
0
100
AcDbCircle
10
370
20
-88.850000000000023
30
0
40
1.7999999999999972
210
0
220
-0
230
1
0
LWPOLYLINE
5
128
100
AcDbEntity
8
0
100
AcDbPolyline
90
8
70
1
43
0.0
10
370
20
-150
42
0.52056705055174635
10
445.17540966287265
20
-42.638388533946511
10
394.21957686560449
20
97.361611466053475
42
0.31529878887898355
10
319.04416720273184
20
150
10
-319.04416720273167
20
150.00000000000003
42
0.31529878887898355
10
-394.21957686560432
20
97.361611466053475
10
-445.17540966287271
20
-42.638388533946561
42
0.52056705055174601
10
-370
20
-150.00000000000003
0
ENDSEC
0
SECTION
2
OBJECTS
0
DICTIONARY
5
C
100
AcDbDictionary
3
ACAD_GROUP
350
D
3
ACAD_MLINESTYLE
350
17
0
DICTIONARY
5
D
100
AcDbDictionary
0
DICTIONARY
5
1A
330
C
100
AcDbDictionary
0
DICTIONARY
5
17
100
AcDbDictionary
0
ENDSEC
0
EOF
