  0
SECTION
  2
HEADER
  9
$ACADVER
  1
AC1014
  9
$HANDSEED
  5
FFFF
  9
$INSUNITS
 70
     4
  9
$MEASUREMENT
 70
     1
  0
ENDSEC
  0
SECTION
  2
TABLES
  0
TABLE
  2
VPORT
  5
8
330
0
100
AcDbSymbolTable
 70
     4
  0
VPORT
  5
2E
330
8
100
AcDbSymbolTableRecord
100
AcDbViewportTableRecord
  2
*ACTIVE
 70
     0
 10
0.0
 20
0.0
 11
1.0
 21
1.0
 12
210.0
 22
148.5
 13
0.0
 23
0.0
 14
10.0
 24
10.0
 15
10.0
 25
10.0
 16
0.0
 26
0.0
 36
1.0
 17
0.0
 27
0.0
 37
0.0
 40
341.0
 41
1.24
 42
50.0
 43
0.0
 44
0.0
 50
0.0
 51
0.0
 71
     0
 72
   100
 73
     1
 74
     3
 75
     0
 76
     0
 77
     0
 78
     0
  0
ENDTAB
  0
TABLE
  2
LTYPE
  5
5
330
0
100
AcDbSymbolTable
 70
     1
  0
LTYPE
  5
14
330
5
100
AcDbSymbolTableRecord
100
AcDbLinetypeTableRecord
  2
BYBLOCK
 70
     0
  3

 72
    65
 73
     0
 40
0.0
  0
LTYPE
  5
15
330
5
100
AcDbSymbolTableRecord
100
AcDbLinetypeTableRecord
  2
BYLAYER
 70
     0
  3

 72
    65
 73
     0
 40
0.0
  0
LTYPE
  5
16
330
5
100
AcDbSymbolTableRecord
100
AcDbLinetypeTableRecord
  2
CONTINUOUS
 70
     0
  3
Solid line
 72
    65
 73
     0
 40
0.0
  0
ENDTAB
  0
TABLE
  2
LAYER
  5
2
100
AcDbSymbolTable
 70
2
  0
LAYER
  5
50
100
AcDbSymbolTableRecord
100
AcDbLayerTableRecord
  2
0
 70
0
  6
CONTINUOUS
  0
LAYER
  5
51
100
AcDbSymbolTableRecord
100
AcDbLayerTableRecord
  2
Layer_1
 70
0
  6
CONTINUOUS
  0
ENDTAB
  0
TABLE
  2
STYLE
  5
3
330
0
100
AcDbSymbolTable
 70
     1
  0
STYLE
  5
11
330
3
100
AcDbSymbolTableRecord
100
AcDbTextStyleTableRecord
  2
STANDARD
 70
     0
 40
0.0
 41
1.0
 50
0.0
 71
     0
 42
2.5
  3
txt
  4

  0
ENDTAB
  0
TABLE
  2
VIEW
  5
6
330
0
100
AcDbSymbolTable
 70
     0
  0
ENDTAB
  0
TABLE
  2
UCS
  5
7
330
0
100
AcDbSymbolTable
 70
     0
  0
ENDTAB
  0
TABLE
  2
APPID
  5
9
330
0
100
AcDbSymbolTable
 70
     2
  0
APPID
  5
12
330
9
100
AcDbSymbolTableRecord
100
AcDbRegAppTableRecord
  2
ACAD
 70
     0
  0
ENDTAB
  0
TABLE
  2
DIMSTYLE
  5
A
330
0
100
AcDbSymbolTable
 70
     1
  0
DIMSTYLE
105
27
330
A
100
AcDbSymbolTableRecord
100
AcDbDimStyleTableRecord
  2
ISO-25
 70
     0
  3

  4

  5

  6

  7

 40
1.0
 41
2.5
 42
0.625
 43
3.75
 44
1.25
 45
0.0
 46
0.0
 47
0.0
 48
0.0
140
2.5
141
2.5
142
0.0
143
0.03937007874016
144
1.0
145
0.0
146
1.0
147
0.625
 71
     0
 72
     0
 73
     0
 74
     0
 75
     0
 76
     0
 77
     1
 78
     8
170
     0
171
     3
172
     1
173
     0
174
     0
175
     0
176
     0
177
     0
178
     0
270
     2
271
     2
272
     2
273
     2
274
     3
340
11
275
     0
280
     0
281
     0
282
     0
283
     0
284
     8
285
     0
286
     0
287
     3
288
     0
  0
ENDTAB
  0
TABLE
  2
BLOCK_RECORD
  5
1
330
0
100
AcDbSymbolTable
 70
     1
  0
BLOCK_RECORD
  5
1F
330
1
100
AcDbSymbolTableRecord
100
AcDbBlockTableRecord
  2
*MODEL_SPACE
  0
BLOCK_RECORD
  5
1B
330
1
100
AcDbSymbolTableRecord
100
AcDbBlockTableRecord
  2
*PAPER_SPACE
  0
ENDTAB
  0
ENDSEC
  0
SECTION
  2
BLOCKS
  0
BLOCK
  5
20
330
1F
100
AcDbEntity
  8
0
100
AcDbBlockBegin
  2
*MODEL_SPACE
 70
     0
 10
0.0
 20
0.0
 30
0.0
  3
*MODEL_SPACE
  1

  0
ENDBLK
  5
21
330
1F
100
AcDbEntity
  8
0
100
AcDbBlockEnd
  0
BLOCK
  5
1C
330
1B
100
AcDbEntity
 67
     1
  8
0
100
AcDbBlockBegin
  2
*PAPER_SPACE
  1

  0
ENDBLK
  5
1D
330
1B
100
AcDbEntity
 67
     1
  8
0
100
AcDbBlockEnd
  0
ENDSEC
  0
SECTION
  2
ENTITIES
  0
SPLINE
  5
100
100
AcDbEntity
  8
Layer_1
 62
7
100
AcDbSpline
 70
8
 71
3
 72
8
 73
4
 74
0
 40
0
 40
0
 40
0
 40
0
 40
1
 40
1
 40
1
 40
1
 10
24.300803
 20
21.521898
 30
0.0
 10
24.284329
 20
21.533923
 30
0.0
 10
24.262692
 20
21.536246
 30
0.0
 10
24.244042
 20
21.527992
 30
0.0
  0
SPLINE
  5
101
100
AcDbEntity
  8
Layer_1
 62
7
100
AcDbSpline
 70
8
 71
3
 72
8
 73
4
 74
0
 40
0
 40
0
 40
0
 40
0
 40
1
 40
1
 40
1
 40
1
 10
24.244042
 20
21.527992
 30
0.0
 10
24.225392
 20
21.519738
 30
0.0
 10
24.212561
 20
21.502162
 30
0.0
 10
24.210384
 20
21.481883
 30
0.0
  0
SPLINE
  5
102
100
AcDbEntity
  8
Layer_1
 62
7
100
AcDbSpline
 70
8
 71
3
 72
8
 73
4
 74
0
 40
0
 40
0
 40
0
 40
0
 40
1
 40
1
 40
1
 40
1
 10
24.210384
 20
21.481883
 30
0.0
 10
24.208207
 20
21.461604
 30
0.0
 10
24.217014
 20
21.441705
 30
0.0
 10
24.233487
 20
21.429680
 30
0.0
  0
SPLINE
  5
103
100
AcDbEntity
  8
Layer_1
 62
7
100
AcDbSpline
 70
8
 71
3
 72
8
 73
4
 74
0
 40
0
 40
0
 40
0
 40
0
 40
1
 40
1
 40
1
 40
1
 10
24.233487
 20
21.429680
 30
0.0
 10
24.249960
 20
21.417655
 30
0.0
 10
24.271597
 20
21.415332
 30
0.0
 10
24.290248
 20
21.423586
 30
0.0
  0
SPLINE
  5
104
100
AcDbEntity
  8
Layer_1
 62
7
100
AcDbSpline
 70
8
 71
3
 72
8
 73
4
 74
0
 40
0
 40
0
 40
0
 40
0
 40
1
 40
1
 40
1
 40
1
 10
24.290248
 20
21.423586
 30
0.0
 10
24.308898
 20
21.431840
 30
0.0
 10
24.321728
 20
21.449416
 30
0.0
 10
24.323906
 20
21.469695
 30
0.0
  0
SPLINE
  5
105
100
AcDbEntity
  8
Layer_1
 62
7
100
AcDbSpline
 70
8
 71
3
 72
8
 73
4
 74
0
 40
0
 40
0
 40
0
 40
0
 40
1
 40
1
 40
1
 40
1
 10
24.323906
 20
21.469695
 30
0.0
 10
24.326083
 20
21.489974
 30
0.0
 10
24.317276
 20
21.509873
 30
0.0
 10
24.300803
 20
21.521898
 30
0.0
  0
SPLINE
  5
106
100
AcDbEntity
  8
Layer_1
 62
7
100
AcDbSpline
 70
8
 71
3
 72
8
 73
4
 74
0
 40
0
 40
0
 40
0
 40
0
 40
1
 40
1
 40
1
 40
1
 10
32.483780
 20
19.643083
 30
0.0
 10
32.467306
 20
19.655108
 30
0.0
 10
32.445669
 20
19.657431
 30
0.0
 10
32.427019
 20
19.649177
 30
0.0
  0
SPLINE
  5
107
100
AcDbEntity
  8
Layer_1
 62
7
100
AcDbSpline
 70
8
 71
3
 72
8
 73
4
 74
0
 40
0
 40
0
 40
0
 40
0
 40
1
 40
1
 40
1
 40
1
 10
32.427019
 20
19.649177
 30
0.0
 10
32.408369
 20
19.640923
 30
0.0
 10
32.395538
 20
19.623346
 30
0.0
 10
32.393361
 20
19.603067
 30
0.0
  0
SPLINE
  5
108
100
AcDbEntity
  8
Layer_1
 62
7
100
AcDbSpline
 70
8
 71
3
 72
8
 73
4
 74
0
 40
0
 40
0
 40
0
 40
0
 40
1
 40
1
 40
1
 40
1
 10
32.393361
 20
19.603067
 30
0.0
 10
32.391184
 20
19.582789
 30
0.0
 10
32.399991
 20
19.562889
 30
0.0
 10
32.416464
 20
19.550864
 30
0.0
  0
SPLINE
  5
109
100
AcDbEntity
  8
Layer_1
 62
7
100
AcDbSpline
 70
8
 71
3
 72
8
 73
4
 74
0
 40
0
 40
0
 40
0
 40
0
 40
1
 40
1
 40
1
 40
1
 10
32.416464
 20
19.550864
 30
0.0
 10
32.432937
 20
19.538839
 30
0.0
 10
32.454574
 20
19.536516
 30
0.0
 10
32.473225
 20
19.544770
 30
0.0
  0
SPLINE
  5
10a
100
AcDbEntity
  8
Layer_1
 62
7
100
AcDbSpline
 70
8
 71
3
 72
8
 73
4
 74
0
 40
0
 40
0
 40
0
 40
0
 40
1
 40
1
 40
1
 40
1
 10
32.473225
 20
19.544770
 30
0.0
 10
32.491875
 20
19.553024
 30
0.0
 10
32.504705
 20
19.570601
 30
0.0
 10
32.506883
 20
19.590879
 30
0.0
  0
SPLINE
  5
10b
100
AcDbEntity
  8
Layer_1
 62
7
100
AcDbSpline
 70
8
 71
3
 72
8
 73
4
 74
0
 40
0
 40
0
 40
0
 40
0
 40
1
 40
1
 40
1
 40
1
 10
32.506883
 20
19.590879
 30
0.0
 10
32.509060
 20
19.611158
 30
0.0
 10
32.500253
 20
19.631058
 30
0.0
 10
32.483780
 20
19.643083
 30
0.0
  0
LWPOLYLINE
  5
10c
100
AcDbEntity
  8
Layer_1
 62
7
100
AcDbPolyline
 90
1
 70
1
 10
24.300803
 20
21.521898
 30
0.0
  0
LWPOLYLINE
  5
10d
100
AcDbEntity
  8
Layer_1
 62
7
100
AcDbPolyline
 90
1
 70
1
 10
32.483780
 20
19.643083
 30
0.0
  0
SPLINE
  5
10e
100
AcDbEntity
  8
Layer_1
 62
7
100
AcDbSpline
 70
8
 71
3
 72
8
 73
4
 74
0
 40
0
 40
0
 40
0
 40
0
 40
1
 40
1
 40
1
 40
1
 10
33.508482
 20
15.704843
 30
0.0
 10
33.583977
 20
15.808266
 30
0.0
 10
33.611845
 20
15.853048
 30
0.0
 10
33.761003
 20
16.099413
 30
0.0
  0
SPLINE
  5
10f
100
AcDbEntity
  8
Layer_1
 62
7
100
AcDbSpline
 70
8
 71
3
 72
8
 73
4
 74
0
 40
0
 40
0
 40
0
 40
0
 40
1
 40
1
 40
1
 40
1
 10
33.761003
 20
16.099413
 30
0.0
 10
33.761003
 20
16.099413
 30
0.0
 10
33.848492
 20
16.279926
 30
0.0
 10
34.055322
 20
16.840679
 30
0.0
  0
SPLINE
  5
110
100
AcDbEntity
  8
Layer_1
 62
7
100
AcDbSpline
 70
8
 71
3
 72
8
 73
4
 74
0
 40
0
 40
0
 40
0
 40
0
 40
1
 40
1
 40
1
 40
1
 10
34.055322
 20
16.840679
 30
0.0
 10
34.055322
 20
16.840679
 30
0.0
 10
34.122551
 20
17.238507
 30
0.0
 10
34.099800
 20
18.044428
 30
0.0
  0
SPLINE
  5
111
100
AcDbEntity
  8
Layer_1
 62
7
100
AcDbSpline
 70
8
 71
3
 72
8
 73
4
 74
0
 40
0
 40
0
 40
0
 40
0
 40
1
 40
1
 40
1
 40
1
 10
34.099800
 20
18.044428
 30
0.0
 10
34.099800
 20
18.044428
 30
0.0
 10
34.011271
 20
18.444856
 30
0.0
 10
33.679475
 20
19.194838
 30
0.0
  0
SPLINE
  5
112
100
AcDbEntity
  8
Layer_1
 62
7
100
AcDbSpline
 70
8
 71
3
 72
8
 73
4
 74
0
 40
0
 40
0
 40
0
 40
0
 40
1
 40
1
 40
1
 40
1
 10
33.679475
 20
19.194838
 30
0.0
 10
33.679475
 20
19.194838
 30
0.0
 10
33.440359
 20
19.537338
 30
0.0
 10
33.136418
 20
19.825636
 30
0.0
  0
SPLINE
  5
113
100
AcDbEntity
  8
Layer_1
 62
7
100
AcDbSpline
 70
8
 71
3
 72
8
 73
4
 74
0
 40
0
 40
0
 40
0
 40
0
 40
1
 40
1
 40
1
 40
1
 10
33.136418
 20
19.825636
 30
0.0
 10
32.899917
 20
20.049966
 30
0.0
 10
32.629889
 20
20.235978
 30
0.0
 10
32.336056
 20
20.377161
 30
0.0
  0
SPLINE
  5
114
100
AcDbEntity
  8
Layer_1
 62
7
100
AcDbSpline
 70
8
 71
3
 72
8
 73
4
 74
0
 40
0
 40
0
 40
0
 40
0
 40
1
 40
1
 40
1
 40
1
 10
32.336056
 20
20.377161
 30
0.0
 10
32.190772
 20
20.446967
 30
0.0
 10
32.085272
 20
20.487632
 30
0.0
 10
31.956803
 20
20.529905
 30
0.0
  0
SPLINE
  5
115
100
AcDbEntity
  8
Layer_1
 62
7
100
AcDbSpline
 70
8
 71
3
 72
8
 73
4
 74
0
 40
0
 40
0
 40
0
 40
0
 40
1
 40
1
 40
1
 40
1
 10
31.956803
 20
20.529905
 30
0.0
 10
31.914184
 20
20.543928
 30
0.0
 10
31.869232
 20
20.558719
 30
0.0
 10
31.819549
 20
20.575068
 30
0.0
  0
SPLINE
  5
116
100
AcDbEntity
  8
Layer_1
 62
7
100
AcDbSpline
 70
8
 71
3
 72
8
 73
4
 74
0
 40
0
 40
0
 40
0
 40
0
 40
1
 40
1
 40
1
 40
1
 10
31.819549
 20
20.575068
 30
0.0
 10
31.711538
 20
20.610610
 30
0.0
 10
31.604320
 20
20.645894
 30
0.0
 10
31.497532
 20
20.681043
 30
0.0
  0
SPLINE
  5
117
100
AcDbEntity
  8
Layer_1
 62
7
100
AcDbSpline
 70
8
 71
3
 72
8
 73
4
 74
0
 40
0
 40
0
 40
0
 40
0
 40
1
 40
1
 40
1
 40
1
 10
31.497532
 20
20.681043
 30
0.0
 10
31.122492
 20
20.804482
 30
0.0
 10
30.752746
 20
20.926242
 30
0.0
 10
30.372564
 20
21.051613
 30
0.0
  0
SPLINE
  5
118
100
AcDbEntity
  8
Layer_1
 62
7
100
AcDbSpline
 70
8
 71
3
 72
8
 73
4
 74
0
 40
0
 40
0
 40
0
 40
0
 40
1
 40
1
 40
1
 40
1
 10
30.372564
 20
21.051613
 30
0.0
 10
29.462621
 20
21.351680
 30
0.0
 10
28.437885
 20
21.690565
 30
0.0
 10
27.494689
 20
22.006069
 30
0.0
  0
SPLINE
  5
119
100
AcDbEntity
  8
Layer_1
 62
7
100
AcDbSpline
 70
8
 71
3
 72
8
 73
4
 74
0
 40
0
 40
0
 40
0
 40
0
 40
1
 40
1
 40
1
 40
1
 10
27.494689
 20
22.006069
 30
0.0
 10
26.860985
 20
22.218047
 30
0.0
 10
26.603451
 20
22.305495
 30
0.0
 10
26.463447
 20
22.352884
 30
0.0
  0
SPLINE
  5
11a
100
AcDbEntity
  8
Layer_1
 62
7
100
AcDbSpline
 70
8
 71
3
 72
8
 73
4
 74
0
 40
0
 40
0
 40
0
 40
0
 40
1
 40
1
 40
1
 40
1
 10
26.463447
 20
22.352884
 30
0.0
 10
26.371236
 20
22.384097
 30
0.0
 10
26.329289
 20
22.395777
 30
0.0
 10
26.264092
 20
22.413207
 30
0.0
  0
SPLINE
  5
11b
100
AcDbEntity
  8
Layer_1
 62
7
100
AcDbSpline
 70
8
 71
3
 72
8
 73
4
 74
0
 40
0
 40
0
 40
0
 40
0
 40
1
 40
1
 40
1
 40
1
 10
26.264092
 20
22.413207
 30
0.0
 10
25.879063
 20
22.516142
 30
0.0
 10
25.473438
 20
22.547308
 30
0.0
 10
25.068023
 20
22.498085
 30
0.0
  0
SPLINE
  5
11c
100
AcDbEntity
  8
Layer_1
 62
7
100
AcDbSpline
 70
8
 71
3
 72
8
 73
4
 74
0
 40
0
 40
0
 40
0
 40
0
 40
1
 40
1
 40
1
 40
1
 10
25.068023
 20
22.498085
 30
0.0
 10
24.671853
 20
22.449983
 30
0.0
 10
24.283856
 20
22.325951
 30
0.0
 10
23.926658
 20
22.126781
 30
0.0
  0
SPLINE
  5
11d
100
AcDbEntity
  8
Layer_1
 62
7
100
AcDbSpline
 70
8
 71
3
 72
8
 73
4
 74
0
 40
0
 40
0
 40
0
 40
0
 40
1
 40
1
 40
1
 40
1
 10
23.926658
 20
22.126781
 30
0.0
 10
23.572479
 20
21.929293
 30
0.0
 10
23.256100
 20
21.661976
 30
0.0
 10
22.998571
 20
21.335726
 30
0.0
  0
SPLINE
  5
11e
100
AcDbEntity
  8
Layer_1
 62
7
100
AcDbSpline
 70
8
 71
3
 72
8
 73
4
 74
0
 40
0
 40
0
 40
0
 40
0
 40
1
 40
1
 40
1
 40
1
 10
22.998571
 20
21.335726
 30
0.0
 10
22.978477
 20
21.310270
 30
0.0
 10
22.961500
 20
21.288708
 30
0.0
 10
22.927242
 20
21.241777
 30
0.0
  0
LWPOLYLINE
  5
11f
100
AcDbEntity
  8
Layer_1
 62
7
100
AcDbPolyline
 90
2
 70
0
 10
32.084947
 20
16.744029
 30
0.0
 10
33.508521
 20
15.704876
 30
0.0
  0
SPLINE
  5
120
100
AcDbEntity
  8
Layer_1
 62
7
100
AcDbSpline
 70
8
 71
3
 72
8
 73
4
 74
0
 40
0
 40
0
 40
0
 40
0
 40
1
 40
1
 40
1
 40
1
 10
24.810510
 20
20.080091
 30
0.0
 10
23.993728
 20
20.228445
 30
0.0
 10
23.164027
 20
19.896777
 30
0.0
 10
22.674582
 20
19.226268
 30
0.0
  0
LWPOLYLINE
  5
121
100
AcDbEntity
  8
Layer_1
 62
7
100
AcDbPolyline
 90
3
 70
0
 10
22.927246
 20
21.241774
 30
0.0
 10
21.879618
 20
19.806590
 30
0.0
 10
22.674598
 20
19.226285
 30
0.0
  0
SPLINE
  5
122
100
AcDbEntity
  8
Layer_1
 62
7
100
AcDbSpline
 70
8
 71
3
 72
8
 73
4
 74
0
 40
0
 40
0
 40
0
 40
0
 40
1
 40
1
 40
1
 40
1
 10
32.134964
 20
16.834592
 30
0.0
 10
32.375733
 20
17.222092
 30
0.0
 10
32.409104
 20
17.703641
 30
0.0
 10
32.224089
 20
18.120649
 30
0.0
  0
SPLINE
  5
123
100
AcDbEntity
  8
Layer_1
 62
7
100
AcDbSpline
 70
8
 71
3
 72
8
 73
4
 74
0
 40
0
 40
0
 40
0
 40
0
 40
1
 40
1
 40
1
 40
1
 10
32.224089
 20
18.120649
 30
0.0
 10
32.039073
 20
18.537656
 30
0.0
 10
31.659657
 20
18.836061
 30
0.0
 10
31.210792
 20
18.917589
 30
0.0
  0
LWPOLYLINE
  5
124
100
AcDbEntity
  8
Layer_1
 62
7
100
AcDbPolyline
 90
2
 70
0
 10
24.810520
 20
20.080112
 30
0.0
 10
31.210771
 20
18.917619
 30
0.0
  0
SPLINE
  5
125
100
AcDbEntity
  8
Layer_1
 62
7
100
AcDbSpline
 70
8
 71
3
 72
8
 73
4
 74
0
 40
0
 40
0
 40
0
 40
0
 40
1
 40
1
 40
1
 40
1
 10
33.289226
 20
17.230613
 30
0.0
 10
33.231712
 20
17.272596
 30
0.0
 10
33.156169
 20
17.280707
 30
0.0
 10
33.091054
 20
17.251889
 30
0.0
  0
SPLINE
  5
126
100
AcDbEntity
  8
Layer_1
 62
7
100
AcDbSpline
 70
8
 71
3
 72
8
 73
4
 74
0
 40
0
 40
0
 40
0
 40
0
 40
1
 40
1
 40
1
 40
1
 10
33.091054
 20
17.251889
 30
0.0
 10
33.025939
 20
17.223072
 30
0.0
 10
32.981143
 20
17.161705
 30
0.0
 10
32.973542
 20
17.090905
 30
0.0
  0
SPLINE
  5
127
100
AcDbEntity
  8
Layer_1
 62
7
100
AcDbSpline
 70
8
 71
3
 72
8
 73
4
 74
0
 40
0
 40
0
 40
0
 40
0
 40
1
 40
1
 40
1
 40
1
 10
32.973542
 20
17.090905
 30
0.0
 10
32.965941
 20
17.020105
 30
0.0
 10
32.996688
 20
16.950628
 30
0.0
 10
33.054202
 20
16.908645
 30
0.0
  0
SPLINE
  5
128
100
AcDbEntity
  8
Layer_1
 62
7
100
AcDbSpline
 70
8
 71
3
 72
8
 73
4
 74
0
 40
0
 40
0
 40
0
 40
0
 40
1
 40
1
 40
1
 40
1
 10
33.054202
 20
16.908645
 30
0.0
 10
33.111716
 20
16.866662
 30
0.0
 10
33.187259
 20
16.858551
 30
0.0
 10
33.252375
 20
16.887368
 30
0.0
  0
SPLINE
  5
129
100
AcDbEntity
  8
Layer_1
 62
7
100
AcDbSpline
 70
8
 71
3
 72
8
 73
4
 74
0
 40
0
 40
0
 40
0
 40
0
 40
1
 40
1
 40
1
 40
1
 10
33.252375
 20
16.887368
 30
0.0
 10
33.317490
 20
16.916185
 30
0.0
 10
33.362285
 20
16.977552
 30
0.0
 10
33.369887
 20
17.048352
 30
0.0
  0
SPLINE
  5
12a
100
AcDbEntity
  8
Layer_1
 62
7
100
AcDbSpline
 70
8
 71
3
 72
8
 73
4
 74
0
 40
0
 40
0
 40
0
 40
0
 40
1
 40
1
 40
1
 40
1
 10
33.369887
 20
17.048352
 30
0.0
 10
33.377488
 20
17.119153
 30
0.0
 10
33.346741
 20
17.188630
 30
0.0
 10
33.289226
 20
17.230613
 30
0.0
  0
LWPOLYLINE
  5
12b
100
AcDbEntity
  8
Layer_1
 62
7
100
AcDbPolyline
 90
2
 70
0
 10
32.134925
 20
16.834579
 30
0.0
 10
32.084947
 20
16.744029
 30
0.0
  0
SPLINE
  5
12c
100
AcDbEntity
  8
Layer_1
 62
7
100
AcDbSpline
 70
8
 71
3
 72
8
 73
4
 74
0
 40
0
 40
0
 40
0
 40
0
 40
1
 40
1
 40
1
 40
1
 10
22.886497
 20
20.257655
 30
0.0
 10
22.828983
 20
20.299638
 30
0.0
 10
22.753440
 20
20.307748
 30
0.0
 10
22.688325
 20
20.278931
 30
0.0
  0
SPLINE
  5
12d
100
AcDbEntity
  8
Layer_1
 62
7
100
AcDbSpline
 70
8
 71
3
 72
8
 73
4
 74
0
 40
0
 40
0
 40
0
 40
0
 40
1
 40
1
 40
1
 40
1
 10
22.688325
 20
20.278931
 30
0.0
 10
22.623210
 20
20.250114
 30
0.0
 10
22.578414
 20
20.188747
 30
0.0
 10
22.570813
 20
20.117947
 30
0.0
  0
SPLINE
  5
12e
100
AcDbEntity
  8
Layer_1
 62
7
100
AcDbSpline
 70
8
 71
3
 72
8
 73
4
 74
0
 40
0
 40
0
 40
0
 40
0
 40
1
 40
1
 40
1
 40
1
 10
22.570813
 20
20.117947
 30
0.0
 10
22.563212
 20
20.047147
 30
0.0
 10
22.593959
 20
19.977669
 30
0.0
 10
22.651473
 20
19.935686
 30
0.0
  0
SPLINE
  5
12f
100
AcDbEntity
  8
Layer_1
 62
7
100
AcDbSpline
 70
8
 71
3
 72
8
 73
4
 74
0
 40
0
 40
0
 40
0
 40
0
 40
1
 40
1
 40
1
 40
1
 10
22.651473
 20
19.935686
 30
0.0
 10
22.708987
 20
19.893703
 30
0.0
 10
22.784530
 20
19.885593
 30
0.0
 10
22.849646
 20
19.914410
 30
0.0
  0
SPLINE
  5
130
100
AcDbEntity
  8
Layer_1
 62
7
100
AcDbSpline
 70
8
 71
3
 72
8
 73
4
 74
0
 40
0
 40
0
 40
0
 40
0
 40
1
 40
1
 40
1
 40
1
 10
22.849646
 20
19.914410
 30
0.0
 10
22.914761
 20
19.943227
 30
0.0
 10
22.959556
 20
20.004594
 30
0.0
 10
22.967158
 20
20.075394
 30
0.0
  0
SPLINE
  5
131
100
AcDbEntity
  8
Layer_1
 62
7
100
AcDbSpline
 70
8
 71
3
 72
8
 73
4
 74
0
 40
0
 40
0
 40
0
 40
0
 40
1
 40
1
 40
1
 40
1
 10
22.967158
 20
20.075394
 30
0.0
 10
22.974759
 20
20.146194
 30
0.0
 10
22.944011
 20
20.215672
 30
0.0
 10
22.886497
 20
20.257655
 30
0.0
  0
LWPOLYLINE
  5
132
100
AcDbEntity
  8
Layer_1
 62
7
100
AcDbPolyline
 90
1
 70
1
 10
33.289226
 20
17.230613
 30
0.0
  0
SPLINE
  5
133
100
AcDbEntity
  8
Layer_1
 62
7
100
AcDbSpline
 70
8
 71
3
 72
8
 73
4
 74
0
 40
0
 40
0
 40
0
 40
0
 40
1
 40
1
 40
1
 40
1
 10
20.710824
 20
22.967646
 30
0.0
 10
20.710824
 20
22.999174
 30
0.0
 10
20.685265
 20
23.024732
 30
0.0
 10
20.653737
 20
23.024732
 30
0.0
  0
SPLINE
  5
134
100
AcDbEntity
  8
Layer_1
 62
7
100
AcDbSpline
 70
8
 71
3
 72
8
 73
4
 74
0
 40
0
 40
0
 40
0
 40
0
 40
1
 40
1
 40
1
 40
1
 10
20.653737
 20
23.024732
 30
0.0
 10
20.622209
 20
23.024732
 30
0.0
 10
20.596650
 20
22.999174
 30
0.0
 10
20.596650
 20
22.967646
 30
0.0
  0
SPLINE
  5
135
100
AcDbEntity
  8
Layer_1
 62
7
100
AcDbSpline
 70
8
 71
3
 72
8
 73
4
 74
0
 40
0
 40
0
 40
0
 40
0
 40
1
 40
1
 40
1
 40
1
 10
20.596650
 20
22.967646
 30
0.0
 10
20.596650
 20
22.936118
 30
0.0
 10
20.622209
 20
22.910559
 30
0.0
 10
20.653737
 20
22.910559
 30
0.0
  0
SPLINE
  5
136
100
AcDbEntity
  8
Layer_1
 62
7
100
AcDbSpline
 70
8
 71
3
 72
8
 73
4
 74
0
 40
0
 40
0
 40
0
 40
0
 40
1
 40
1
 40
1
 40
1
 10
20.653737
 20
22.910559
 30
0.0
 10
20.685265
 20
22.910559
 30
0.0
 10
20.710824
 20
22.936118
 30
0.0
 10
20.710824
 20
22.967646
 30
0.0
  0
LWPOLYLINE
  5
137
100
AcDbEntity
  8
Layer_1
 62
7
100
AcDbPolyline
 90
1
 70
1
 10
22.886497
 20
20.257655
 30
0.0
  0
SPLINE
  5
138
100
AcDbEntity
  8
Layer_1
 62
7
100
AcDbSpline
 70
8
 71
3
 72
8
 73
4
 74
0
 40
0
 40
0
 40
0
 40
0
 40
1
 40
1
 40
1
 40
1
 10
4.175411
 20
22.653296
 30
0.0
 10
4.175411
 20
22.673691
 30
0.0
 10
4.164531
 20
22.692537
 30
0.0
 10
4.146868
 20
22.702735
 30
0.0
  0
SPLINE
  5
139
100
AcDbEntity
  8
Layer_1
 62
7
100
AcDbSpline
 70
8
 71
3
 72
8
 73
4
 74
0
 40
0
 40
0
 40
0
 40
0
 40
1
 40
1
 40
1
 40
1
 10
4.146868
 20
22.702735
 30
0.0
 10
4.129205
 20
22.712932
 30
0.0
 10
4.107444
 20
22.712932
 30
0.0
 10
4.089781
 20
22.702735
 30
0.0
  0
SPLINE
  5
13a
100
AcDbEntity
  8
Layer_1
 62
7
100
AcDbSpline
 70
8
 71
3
 72
8
 73
4
 74
0
 40
0
 40
0
 40
0
 40
0
 40
1
 40
1
 40
1
 40
1
 10
4.089781
 20
22.702735
 30
0.0
 10
4.072118
 20
22.692537
 30
0.0
 10
4.061238
 20
22.673691
 30
0.0
 10
4.061238
 20
22.653296
 30
0.0
  0
SPLINE
  5
13b
100
AcDbEntity
  8
Layer_1
 62
7
100
AcDbSpline
 70
8
 71
3
 72
8
 73
4
 74
0
 40
0
 40
0
 40
0
 40
0
 40
1
 40
1
 40
1
 40
1
 10
4.061238
 20
22.653296
 30
0.0
 10
4.061238
 20
22.632901
 30
0.0
 10
4.072118
 20
22.614055
 30
0.0
 10
4.089781
 20
22.603857
 30
0.0
  0
SPLINE
  5
13c
100
AcDbEntity
  8
Layer_1
 62
7
100
AcDbSpline
 70
8
 71
3
 72
8
 73
4
 74
0
 40
0
 40
0
 40
0
 40
0
 40
1
 40
1
 40
1
 40
1
 10
4.089781
 20
22.603857
 30
0.0
 10
4.107444
 20
22.593660
 30
0.0
 10
4.129205
 20
22.593660
 30
0.0
 10
4.146868
 20
22.603857
 30
0.0
  0
SPLINE
  5
13d
100
AcDbEntity
  8
Layer_1
 62
7
100
AcDbSpline
 70
8
 71
3
 72
8
 73
4
 74
0
 40
0
 40
0
 40
0
 40
0
 40
1
 40
1
 40
1
 40
1
 10
4.146868
 20
22.603857
 30
0.0
 10
4.164531
 20
22.614055
 30
0.0
 10
4.175411
 20
22.632901
 30
0.0
 10
4.175411
 20
22.653296
 30
0.0
  0
LWPOLYLINE
  5
13e
100
AcDbEntity
  8
Layer_1
 62
7
100
AcDbPolyline
 90
1
 70
1
 10
20.710824
 20
22.967646
 30
0.0
  0
SPLINE
  5
13f
100
AcDbEntity
  8
Layer_1
 62
7
100
AcDbSpline
 70
8
 71
3
 72
8
 73
4
 74
0
 40
0
 40
0
 40
0
 40
0
 40
1
 40
1
 40
1
 40
1
 10
6.931313
 20
12.416478
 30
0.0
 10
6.931240
 20
12.447953
 30
0.0
 10
6.905703
 20
12.473431
 30
0.0
 10
6.874227
 20
12.473431
 30
0.0
  0
SPLINE
  5
140
100
AcDbEntity
  8
Layer_1
 62
7
100
AcDbSpline
 70
8
 71
3
 72
8
 73
4
 74
0
 40
0
 40
0
 40
0
 40
0
 40
1
 40
1
 40
1
 40
1
 10
6.874227
 20
12.473431
 30
0.0
 10
6.842751
 20
12.473431
 30
0.0
 10
6.817214
 20
12.447953
 30
0.0
 10
6.817140
 20
12.416478
 30
0.0
  0
SPLINE
  5
141
100
AcDbEntity
  8
Layer_1
 62
7
100
AcDbSpline
 70
8
 71
3
 72
8
 73
4
 74
0
 40
0
 40
0
 40
0
 40
0
 40
1
 40
1
 40
1
 40
1
 10
6.817140
 20
12.416478
 30
0.0
 10
6.817214
 20
12.385002
 30
0.0
 10
6.842751
 20
12.359525
 30
0.0
 10
6.874227
 20
12.359525
 30
0.0
  0
SPLINE
  5
142
100
AcDbEntity
  8
Layer_1
 62
7
100
AcDbSpline
 70
8
 71
3
 72
8
 73
4
 74
0
 40
0
 40
0
 40
0
 40
0
 40
1
 40
1
 40
1
 40
1
 10
6.874227
 20
12.359525
 30
0.0
 10
6.905703
 20
12.359525
 30
0.0
 10
6.931240
 20
12.385002
 30
0.0
 10
6.931313
 20
12.416478
 30
0.0
  0
LWPOLYLINE
  5
143
100
AcDbEntity
  8
Layer_1
 62
7
100
AcDbPolyline
 90
1
 70
1
 10
4.175411
 20
22.653296
 30
0.0
  0
SPLINE
  5
144
100
AcDbEntity
  8
Layer_1
 62
7
100
AcDbSpline
 70
8
 71
3
 72
8
 73
4
 74
0
 40
0
 40
0
 40
0
 40
0
 40
1
 40
1
 40
1
 40
1
 10
12.443117
 20
12.416478
 30
0.0
 10
12.443117
 20
12.436873
 30
0.0
 10
12.432237
 20
12.455719
 30
0.0
 10
12.414574
 20
12.465916
 30
0.0
  0
SPLINE
  5
145
100
AcDbEntity
  8
Layer_1
 62
7
100
AcDbSpline
 70
8
 71
3
 72
8
 73
4
 74
0
 40
0
 40
0
 40
0
 40
0
 40
1
 40
1
 40
1
 40
1
 10
12.414574
 20
12.465916
 30
0.0
 10
12.396911
 20
12.476114
 30
0.0
 10
12.375150
 20
12.476114
 30
0.0
 10
12.357488
 20
12.465916
 30
0.0
  0
SPLINE
  5
146
100
AcDbEntity
  8
Layer_1
 62
7
100
AcDbSpline
 70
8
 71
3
 72
8
 73
4
 74
0
 40
0
 40
0
 40
0
 40
0
 40
1
 40
1
 40
1
 40
1
 10
12.357488
 20
12.465916
 30
0.0
 10
12.339825
 20
12.455719
 30
0.0
 10
12.328944
 20
12.436873
 30
0.0
 10
12.328944
 20
12.416478
 30
0.0
  0
SPLINE
  5
147
100
AcDbEntity
  8
Layer_1
 62
7
100
AcDbSpline
 70
8
 71
3
 72
8
 73
4
 74
0
 40
0
 40
0
 40
0
 40
0
 40
1
 40
1
 40
1
 40
1
 10
12.328944
 20
12.416478
 30
0.0
 10
12.328944
 20
12.396083
 30
0.0
 10
12.339825
 20
12.377237
 30
0.0
 10
12.357488
 20
12.367039
 30
0.0
  0
SPLINE
  5
148
100
AcDbEntity
  8
Layer_1
 62
7
100
AcDbSpline
 70
8
 71
3
 72
8
 73
4
 74
0
 40
0
 40
0
 40
0
 40
0
 40
1
 40
1
 40
1
 40
1
 10
12.357488
 20
12.367039
 30
0.0
 10
12.375150
 20
12.356842
 30
0.0
 10
12.396911
 20
12.356842
 30
0.0
 10
12.414574
 20
12.367039
 30
0.0
  0
SPLINE
  5
149
100
AcDbEntity
  8
Layer_1
 62
7
100
AcDbSpline
 70
8
 71
3
 72
8
 73
4
 74
0
 40
0
 40
0
 40
0
 40
0
 40
1
 40
1
 40
1
 40
1
 10
12.414574
 20
12.367039
 30
0.0
 10
12.432237
 20
12.377237
 30
0.0
 10
12.443117
 20
12.396083
 30
0.0
 10
12.443117
 20
12.416478
 30
0.0
  0
LWPOLYLINE
  5
14a
100
AcDbEntity
  8
Layer_1
 62
7
100
AcDbPolyline
 90
1
 70
1
 10
6.931313
 20
12.416478
 30
0.0
  0
SPLINE
  5
14b
100
AcDbEntity
  8
Layer_1
 62
7
100
AcDbSpline
 70
8
 71
3
 72
8
 73
4
 74
0
 40
0
 40
0
 40
0
 40
0
 40
1
 40
1
 40
1
 40
1
 10
26.222628
 20
22.967646
 30
0.0
 10
26.222628
 20
22.988041
 30
0.0
 10
26.211747
 20
23.006887
 30
0.0
 10
26.194084
 20
23.017084
 30
0.0
  0
SPLINE
  5
14c
100
AcDbEntity
  8
Layer_1
 62
7
100
AcDbSpline
 70
8
 71
3
 72
8
 73
4
 74
0
 40
0
 40
0
 40
0
 40
0
 40
1
 40
1
 40
1
 40
1
 10
26.194084
 20
23.017084
 30
0.0
 10
26.176422
 20
23.027282
 30
0.0
 10
26.154661
 20
23.027282
 30
0.0
 10
26.136998
 20
23.017084
 30
0.0
  0
SPLINE
  5
14d
100
AcDbEntity
  8
Layer_1
 62
7
100
AcDbSpline
 70
8
 71
3
 72
8
 73
4
 74
0
 40
0
 40
0
 40
0
 40
0
 40
1
 40
1
 40
1
 40
1
 10
26.136998
 20
23.017084
 30
0.0
 10
26.119335
 20
23.006887
 30
0.0
 10
26.108455
 20
22.988041
 30
0.0
 10
26.108455
 20
22.967646
 30
0.0
  0
SPLINE
  5
14e
100
AcDbEntity
  8
Layer_1
 62
7
100
AcDbSpline
 70
8
 71
3
 72
8
 73
4
 74
0
 40
0
 40
0
 40
0
 40
0
 40
1
 40
1
 40
1
 40
1
 10
26.108455
 20
22.967646
 30
0.0
 10
26.108455
 20
22.947251
 30
0.0
 10
26.119335
 20
22.928405
 30
0.0
 10
26.136998
 20
22.918207
 30
0.0
  0
SPLINE
  5
14f
100
AcDbEntity
  8
Layer_1
 62
7
100
AcDbSpline
 70
8
 71
3
 72
8
 73
4
 74
0
 40
0
 40
0
 40
0
 40
0
 40
1
 40
1
 40
1
 40
1
 10
26.136998
 20
22.918207
 30
0.0
 10
26.154661
 20
22.908010
 30
0.0
 10
26.176422
 20
22.908010
 30
0.0
 10
26.194084
 20
22.918207
 30
0.0
  0
SPLINE
  5
150
100
AcDbEntity
  8
Layer_1
 62
7
100
AcDbSpline
 70
8
 71
3
 72
8
 73
4
 74
0
 40
0
 40
0
 40
0
 40
0
 40
1
 40
1
 40
1
 40
1
 10
26.194084
 20
22.918207
 30
0.0
 10
26.211747
 20
22.928405
 30
0.0
 10
26.222628
 20
22.947251
 30
0.0
 10
26.222628
 20
22.967646
 30
0.0
  0
LWPOLYLINE
  5
151
100
AcDbEntity
  8
Layer_1
 62
7
100
AcDbPolyline
 90
1
 70
1
 10
12.443117
 20
12.416478
 30
0.0
  0
SPLINE
  5
152
100
AcDbEntity
  8
Layer_1
 62
7
100
AcDbSpline
 70
8
 71
3
 72
8
 73
4
 74
0
 40
0
 40
0
 40
0
 40
0
 40
1
 40
1
 40
1
 40
1
 10
15.199019
 20
22.967646
 30
0.0
 10
15.199019
 20
22.999174
 30
0.0
 10
15.173461
 20
23.024732
 30
0.0
 10
15.141933
 20
23.024732
 30
0.0
  0
SPLINE
  5
153
100
AcDbEntity
  8
Layer_1
 62
7
100
AcDbSpline
 70
8
 71
3
 72
8
 73
4
 74
0
 40
0
 40
0
 40
0
 40
0
 40
1
 40
1
 40
1
 40
1
 10
15.141933
 20
23.024732
 30
0.0
 10
15.110405
 20
23.024732
 30
0.0
 10
15.084846
 20
22.999174
 30
0.0
 10
15.084846
 20
22.967646
 30
0.0
  0
SPLINE
  5
154
100
AcDbEntity
  8
Layer_1
 62
7
100
AcDbSpline
 70
8
 71
3
 72
8
 73
4
 74
0
 40
0
 40
0
 40
0
 40
0
 40
1
 40
1
 40
1
 40
1
 10
15.084846
 20
22.967646
 30
0.0
 10
15.084846
 20
22.947251
 30
0.0
 10
15.095727
 20
22.928405
 30
0.0
 10
15.113390
 20
22.918207
 30
0.0
  0
SPLINE
  5
155
100
AcDbEntity
  8
Layer_1
 62
7
100
AcDbSpline
 70
8
 71
3
 72
8
 73
4
 74
0
 40
0
 40
0
 40
0
 40
0
 40
1
 40
1
 40
1
 40
1
 10
15.113390
 20
22.918207
 30
0.0
 10
15.131052
 20
22.908010
 30
0.0
 10
15.152814
 20
22.908010
 30
0.0
 10
15.170476
 20
22.918207
 30
0.0
  0
SPLINE
  5
156
100
AcDbEntity
  8
Layer_1
 62
7
100
AcDbSpline
 70
8
 71
3
 72
8
 73
4
 74
0
 40
0
 40
0
 40
0
 40
0
 40
1
 40
1
 40
1
 40
1
 10
15.170476
 20
22.918207
 30
0.0
 10
15.188139
 20
22.928405
 30
0.0
 10
15.199019
 20
22.947251
 30
0.0
 10
15.199019
 20
22.967646
 30
0.0
  0
LWPOLYLINE
  5
157
100
AcDbEntity
  8
Layer_1
 62
7
100
AcDbPolyline
 90
1
 70
1
 10
26.222628
 20
22.967646
 30
0.0
  0
SPLINE
  5
158
100
AcDbEntity
  8
Layer_1
 62
7
100
AcDbSpline
 70
8
 71
3
 72
8
 73
4
 74
0
 40
0
 40
0
 40
0
 40
0
 40
1
 40
1
 40
1
 40
1
 10
23.466726
 20
12.416478
 30
0.0
 10
23.466726
 20
12.436873
 30
0.0
 10
23.455845
 20
12.455719
 30
0.0
 10
23.438182
 20
12.465916
 30
0.0
  0
SPLINE
  5
159
100
AcDbEntity
  8
Layer_1
 62
7
100
AcDbSpline
 70
8
 71
3
 72
8
 73
4
 74
0
 40
0
 40
0
 40
0
 40
0
 40
1
 40
1
 40
1
 40
1
 10
23.438182
 20
12.465916
 30
0.0
 10
23.420520
 20
12.476114
 30
0.0
 10
23.398758
 20
12.476114
 30
0.0
 10
23.381096
 20
12.465916
 30
0.0
  0
SPLINE
  5
15a
100
AcDbEntity
  8
Layer_1
 62
7
100
AcDbSpline
 70
8
 71
3
 72
8
 73
4
 74
0
 40
0
 40
0
 40
0
 40
0
 40
1
 40
1
 40
1
 40
1
 10
23.381096
 20
12.465916
 30
0.0
 10
23.363433
 20
12.455719
 30
0.0
 10
23.352553
 20
12.436873
 30
0.0
 10
23.352553
 20
12.416478
 30
0.0
  0
SPLINE
  5
15b
100
AcDbEntity
  8
Layer_1
 62
7
100
AcDbSpline
 70
8
 71
3
 72
8
 73
4
 74
0
 40
0
 40
0
 40
0
 40
0
 40
1
 40
1
 40
1
 40
1
 10
23.352553
 20
12.416478
 30
0.0
 10
23.352553
 20
12.396083
 30
0.0
 10
23.363433
 20
12.377237
 30
0.0
 10
23.381096
 20
12.367039
 30
0.0
  0
SPLINE
  5
15c
100
AcDbEntity
  8
Layer_1
 62
7
100
AcDbSpline
 70
8
 71
3
 72
8
 73
4
 74
0
 40
0
 40
0
 40
0
 40
0
 40
1
 40
1
 40
1
 40
1
 10
23.381096
 20
12.367039
 30
0.0
 10
23.398758
 20
12.356842
 30
0.0
 10
23.420520
 20
12.356842
 30
0.0
 10
23.438182
 20
12.367039
 30
0.0
  0
SPLINE
  5
15d
100
AcDbEntity
  8
Layer_1
 62
7
100
AcDbSpline
 70
8
 71
3
 72
8
 73
4
 74
0
 40
0
 40
0
 40
0
 40
0
 40
1
 40
1
 40
1
 40
1
 10
23.438182
 20
12.367039
 30
0.0
 10
23.455845
 20
12.377237
 30
0.0
 10
23.466726
 20
12.396083
 30
0.0
 10
23.466726
 20
12.416478
 30
0.0
  0
LWPOLYLINE
  5
15e
100
AcDbEntity
  8
Layer_1
 62
7
100
AcDbPolyline
 90
1
 70
1
 10
15.199019
 20
22.967646
 30
0.0
  0
SPLINE
  5
15f
100
AcDbEntity
  8
Layer_1
 62
7
100
AcDbSpline
 70
8
 71
3
 72
8
 73
4
 74
0
 40
0
 40
0
 40
0
 40
0
 40
1
 40
1
 40
1
 40
1
 10
17.954921
 20
12.416478
 30
0.0
 10
17.954921
 20
12.436873
 30
0.0
 10
17.944041
 20
12.455719
 30
0.0
 10
17.926378
 20
12.465916
 30
0.0
  0
SPLINE
  5
160
100
AcDbEntity
  8
Layer_1
 62
7
100
AcDbSpline
 70
8
 71
3
 72
8
 73
4
 74
0
 40
0
 40
0
 40
0
 40
0
 40
1
 40
1
 40
1
 40
1
 10
17.926378
 20
12.465916
 30
0.0
 10
17.908716
 20
12.476114
 30
0.0
 10
17.886954
 20
12.476114
 30
0.0
 10
17.869292
 20
12.465916
 30
0.0
  0
SPLINE
  5
161
100
AcDbEntity
  8
Layer_1
 62
7
100
AcDbSpline
 70
8
 71
3
 72
8
 73
4
 74
0
 40
0
 40
0
 40
0
 40
0
 40
1
 40
1
 40
1
 40
1
 10
17.869292
 20
12.465916
 30
0.0
 10
17.851629
 20
12.455719
 30
0.0
 10
17.840748
 20
12.436873
 30
0.0
 10
17.840748
 20
12.416478
 30
0.0
  0
SPLINE
  5
162
100
AcDbEntity
  8
Layer_1
 62
7
100
AcDbSpline
 70
8
 71
3
 72
8
 73
4
 74
0
 40
0
 40
0
 40
0
 40
0
 40
1
 40
1
 40
1
 40
1
 10
17.840748
 20
12.416478
 30
0.0
 10
17.840748
 20
12.396083
 30
0.0
 10
17.851629
 20
12.377237
 30
0.0
 10
17.869292
 20
12.367039
 30
0.0
  0
SPLINE
  5
163
100
AcDbEntity
  8
Layer_1
 62
7
100
AcDbSpline
 70
8
 71
3
 72
8
 73
4
 74
0
 40
0
 40
0
 40
0
 40
0
 40
1
 40
1
 40
1
 40
1
 10
17.869292
 20
12.367039
 30
0.0
 10
17.886954
 20
12.356842
 30
0.0
 10
17.908716
 20
12.356842
 30
0.0
 10
17.926378
 20
12.367039
 30
0.0
  0
SPLINE
  5
164
100
AcDbEntity
  8
Layer_1
 62
7
100
AcDbSpline
 70
8
 71
3
 72
8
 73
4
 74
0
 40
0
 40
0
 40
0
 40
0
 40
1
 40
1
 40
1
 40
1
 10
17.926378
 20
12.367039
 30
0.0
 10
17.944041
 20
12.377237
 30
0.0
 10
17.954921
 20
12.396083
 30
0.0
 10
17.954921
 20
12.416478
 30
0.0
  0
LWPOLYLINE
  5
165
100
AcDbEntity
  8
Layer_1
 62
7
100
AcDbPolyline
 90
1
 70
1
 10
23.466726
 20
12.416478
 30
0.0
  0
SPLINE
  5
166
100
AcDbEntity
  8
Layer_1
 62
7
100
AcDbSpline
 70
8
 71
3
 72
8
 73
4
 74
0
 40
0
 40
0
 40
0
 40
0
 40
1
 40
1
 40
1
 40
1
 10
28.978529
 20
12.416478
 30
0.0
 10
28.978456
 20
12.447953
 30
0.0
 10
28.952919
 20
12.473431
 30
0.0
 10
28.921443
 20
12.473431
 30
0.0
  0
SPLINE
  5
167
100
AcDbEntity
  8
Layer_1
 62
7
100
AcDbSpline
 70
8
 71
3
 72
8
 73
4
 74
0
 40
0
 40
0
 40
0
 40
0
 40
1
 40
1
 40
1
 40
1
 10
28.921443
 20
12.473431
 30
0.0
 10
28.889967
 20
12.473431
 30
0.0
 10
28.864430
 20
12.447953
 30
0.0
 10
28.864357
 20
12.416478
 30
0.0
  0
SPLINE
  5
168
100
AcDbEntity
  8
Layer_1
 62
7
100
AcDbSpline
 70
8
 71
3
 72
8
 73
4
 74
0
 40
0
 40
0
 40
0
 40
0
 40
1
 40
1
 40
1
 40
1
 10
28.864357
 20
12.416478
 30
0.0
 10
28.864430
 20
12.385002
 30
0.0
 10
28.889967
 20
12.359525
 30
0.0
 10
28.921443
 20
12.359525
 30
0.0
  0
SPLINE
  5
169
100
AcDbEntity
  8
Layer_1
 62
7
100
AcDbSpline
 70
8
 71
3
 72
8
 73
4
 74
0
 40
0
 40
0
 40
0
 40
0
 40
1
 40
1
 40
1
 40
1
 10
28.921443
 20
12.359525
 30
0.0
 10
28.952919
 20
12.359525
 30
0.0
 10
28.978456
 20
12.385002
 30
0.0
 10
28.978529
 20
12.416478
 30
0.0
  0
LWPOLYLINE
  5
16a
100
AcDbEntity
  8
Layer_1
 62
7
100
AcDbPolyline
 90
1
 70
1
 10
17.954921
 20
12.416478
 30
0.0
  0
SPLINE
  5
16b
100
AcDbEntity
  8
Layer_1
 62
7
100
AcDbSpline
 70
8
 71
3
 72
8
 73
4
 74
0
 40
0
 40
0
 40
0
 40
0
 40
1
 40
1
 40
1
 40
1
 10
9.687215
 20
22.967646
 30
0.0
 10
9.687215
 20
22.988041
 30
0.0
 10
9.676335
 20
23.006887
 30
0.0
 10
9.658672
 20
23.017084
 30
0.0
  0
SPLINE
  5
16c
100
AcDbEntity
  8
Layer_1
 62
7
100
AcDbSpline
 70
8
 71
3
 72
8
 73
4
 74
0
 40
0
 40
0
 40
0
 40
0
 40
1
 40
1
 40
1
 40
1
 10
9.658672
 20
23.017084
 30
0.0
 10
9.641009
 20
23.027282
 30
0.0
 10
9.619248
 20
23.027282
 30
0.0
 10
9.601585
 20
23.017084
 30
0.0
  0
SPLINE
  5
16d
100
AcDbEntity
  8
Layer_1
 62
7
100
AcDbSpline
 70
8
 71
3
 72
8
 73
4
 74
0
 40
0
 40
0
 40
0
 40
0
 40
1
 40
1
 40
1
 40
1
 10
9.601585
 20
23.017084
 30
0.0
 10
9.583923
 20
23.006887
 30
0.0
 10
9.573042
 20
22.988041
 30
0.0
 10
9.573042
 20
22.967646
 30
0.0
  0
SPLINE
  5
16e
100
AcDbEntity
  8
Layer_1
 62
7
100
AcDbSpline
 70
8
 71
3
 72
8
 73
4
 74
0
 40
0
 40
0
 40
0
 40
0
 40
1
 40
1
 40
1
 40
1
 10
9.573042
 20
22.967646
 30
0.0
 10
9.573042
 20
22.947251
 30
0.0
 10
9.583923
 20
22.928405
 30
0.0
 10
9.601585
 20
22.918207
 30
0.0
  0
SPLINE
  5
16f
100
AcDbEntity
  8
Layer_1
 62
7
100
AcDbSpline
 70
8
 71
3
 72
8
 73
4
 74
0
 40
0
 40
0
 40
0
 40
0
 40
1
 40
1
 40
1
 40
1
 10
9.601585
 20
22.918207
 30
0.0
 10
9.619248
 20
22.908010
 30
0.0
 10
9.641009
 20
22.908010
 30
0.0
 10
9.658672
 20
22.918207
 30
0.0
  0
SPLINE
  5
170
100
AcDbEntity
  8
Layer_1
 62
7
100
AcDbSpline
 70
8
 71
3
 72
8
 73
4
 74
0
 40
0
 40
0
 40
0
 40
0
 40
1
 40
1
 40
1
 40
1
 10
9.658672
 20
22.918207
 30
0.0
 10
9.676335
 20
22.928405
 30
0.0
 10
9.687215
 20
22.947251
 30
0.0
 10
9.687215
 20
22.967646
 30
0.0
  0
LWPOLYLINE
  5
171
100
AcDbEntity
  8
Layer_1
 62
7
100
AcDbPolyline
 90
1
 70
1
 10
28.978529
 20
12.416478
 30
0.0
  0
LWPOLYLINE
  5
172
100
AcDbEntity
  8
Layer_1
 62
7
100
AcDbPolyline
 90
1
 70
1
 10
9.687215
 20
22.967646
 30
0.0
  0
SPLINE
  5
173
100
AcDbEntity
  8
Layer_1
 62
7
100
AcDbSpline
 70
8
 71
3
 72
8
 73
4
 74
0
 40
0
 40
0
 40
0
 40
0
 40
1
 40
1
 40
1
 40
1
 10
26.165541
 20
12.770808
 30
0.0
 10
26.256238
 20
12.770808
 30
0.0
 10
26.346845
 20
12.776506
 30
0.0
 10
26.436827
 20
12.787869
 30
0.0
  0
LWPOLYLINE
  5
174
100
AcDbEntity
  8
Layer_1
 62
7
100
AcDbPolyline
 90
3
 70
0
 10
32.464796
 20
11.786545
 30
0.0
 10
32.464796
 20
13.549043
 30
0.0
 10
26.436824
 20
12.787898
 30
0.0
  0
SPLINE
  5
175
100
AcDbEntity
  8
Layer_1
 62
7
100
AcDbSpline
 70
8
 71
3
 72
8
 73
4
 74
0
 40
0
 40
0
 40
0
 40
0
 40
1
 40
1
 40
1
 40
1
 10
9.358843
 20
12.787869
 30
0.0
 10
9.448825
 20
12.776506
 30
0.0
 10
9.539432
 20
12.770808
 30
0.0
 10
9.630129
 20
12.770808
 30
0.0
  0
LWPOLYLINE
  5
176
100
AcDbEntity
  8
Layer_1
 62
7
100
AcDbPolyline
 90
2
 70
0
 10
26.165543
 20
12.770815
 30
0.0
 10
9.630126
 20
12.770815
 30
0.0
  0
SPLINE
  5
177
100
AcDbEntity
  8
Layer_1
 62
7
100
AcDbSpline
 70
8
 71
3
 72
8
 73
4
 74
0
 40
0
 40
0
 40
0
 40
0
 40
1
 40
1
 40
1
 40
1
 10
2.090679
 20
15.536610
 30
0.0
 10
1.891883
 20
15.125993
 30
0.0
 10
1.909205
 20
14.643601
 30
0.0
 10
2.136939
 20
14.248300
 30
0.0
  0
SPLINE
  5
178
100
AcDbEntity
  8
Layer_1
 62
7
100
AcDbSpline
 70
8
 71
3
 72
8
 73
4
 74
0
 40
0
 40
0
 40
0
 40
0
 40
1
 40
1
 40
1
 40
1
 10
2.136939
 20
14.248300
 30
0.0
 10
2.364674
 20
13.852999
 30
0.0
 10
2.773298
 20
13.596037
 30
0.0
 10
3.228238
 20
13.562040
 30
0.0
  0
LWPOLYLINE
  5
179
100
AcDbEntity
  8
Layer_1
 62
7
100
AcDbPolyline
 90
2
 70
0
 10
9.358846
 20
12.787898
 30
0.0
 10
3.228270
 20
13.562064
 30
0.0
  0
SPLINE
  5
17a
100
AcDbEntity
  8
Layer_1
 62
7
100
AcDbSpline
 70
8
 71
3
 72
8
 73
4
 74
0
 40
0
 40
0
 40
0
 40
0
 40
1
 40
1
 40
1
 40
1
 10
6.874227
 20
22.613316
 30
0.0
 10
6.044082
 20
22.613316
 30
0.0
 10
5.287010
 20
22.138713
 30
0.0
 10
4.925270
 20
21.391529
 30
0.0
  0
LWPOLYLINE
  5
17b
100
AcDbEntity
  8
Layer_1
 62
7
100
AcDbPolyline
 90
2
 70
0
 10
2.090667
 20
15.536645
 30
0.0
 10
4.925247
 20
21.391533
 30
0.0
  0
SPLINE
  5
17c
100
AcDbEntity
  8
Layer_1
 62
7
100
AcDbSpline
 70
8
 71
3
 72
8
 73
4
 74
0
 40
0
 40
0
 40
0
 40
0
 40
1
 40
1
 40
1
 40
1
 10
5.097330
 20
23.597566
 30
0.0
 10
5.062254
 20
23.597566
 30
0.0
 10
5.048481
 20
23.597222
 30
0.0
 10
5.033477
 20
23.596915
 30
0.0
  0
SPLINE
  5
17d
100
AcDbEntity
  8
Layer_1
 62
7
100
AcDbSpline
 70
8
 71
3
 72
8
 73
4
 74
0
 40
0
 40
0
 40
0
 40
0
 40
1
 40
1
 40
1
 40
1
 10
5.033477
 20
23.596915
 30
0.0
 10
4.635495
 20
23.588801
 30
0.0
 10
4.237832
 20
23.504771
 30
0.0
 10
3.863177
 20
23.343286
 30
0.0
  0
SPLINE
  5
17e
100
AcDbEntity
  8
Layer_1
 62
7
100
AcDbSpline
 70
8
 71
3
 72
8
 73
4
 74
0
 40
0
 40
0
 40
0
 40
0
 40
1
 40
1
 40
1
 40
1
 10
3.863177
 20
23.343286
 30
0.0
 10
3.492136
 20
23.183359
 30
0.0
 10
3.151449
 20
22.950704
 30
0.0
 10
2.862826
 20
22.653664
 30
0.0
  0
SPLINE
  5
17f
100
AcDbEntity
  8
Layer_1
 62
7
100
AcDbSpline
 70
8
 71
3
 72
8
 73
4
 74
0
 40
0
 40
0
 40
0
 40
0
 40
1
 40
1
 40
1
 40
1
 10
2.862826
 20
22.653664
 30
0.0
 10
2.573099
 20
22.355490
 30
0.0
 10
2.342257
 20
21.998905
 30
0.0
 10
2.187218
 20
21.601869
 30
0.0
  0
SPLINE
  5
180
100
AcDbEntity
  8
Layer_1
 62
7
100
AcDbSpline
 70
8
 71
3
 72
8
 73
4
 74
0
 40
0
 40
0
 40
0
 40
0
 40
1
 40
1
 40
1
 40
1
 10
2.187218
 20
21.601869
 30
0.0
 10
2.164432
 20
21.543514
 30
0.0
 10
2.147359
 20
21.499628
 30
0.0
 10
2.114974
 20
21.396466
 30
0.0
  0
SPLINE
  5
181
100
AcDbEntity
  8
Layer_1
 62
7
100
AcDbSpline
 70
8
 71
3
 72
8
 73
4
 74
0
 40
0
 40
0
 40
0
 40
0
 40
1
 40
1
 40
1
 40
1
 10
2.114974
 20
21.396466
 30
0.0
 10
2.041915
 20
21.163731
 30
0.0
 10
1.877065
 20
20.633728
 30
0.0
 10
1.343643
 20
18.971028
 30
0.0
  0
SPLINE
  5
182
100
AcDbEntity
  8
Layer_1
 62
7
100
AcDbSpline
 70
8
 71
3
 72
8
 73
4
 74
0
 40
0
 40
0
 40
0
 40
0
 40
1
 40
1
 40
1
 40
1
 10
1.343643
 20
18.971028
 30
0.0
 10
1.069471
 20
18.116423
 30
0.0
 10
0.785300
 20
17.235955
 30
0.0
 10
0.497275
 20
16.344725
 30
0.0
  0
SPLINE
  5
183
100
AcDbEntity
  8
Layer_1
 62
7
100
AcDbSpline
 70
8
 71
3
 72
8
 73
4
 74
0
 40
0
 40
0
 40
0
 40
0
 40
1
 40
1
 40
1
 40
1
 10
0.497275
 20
16.344725
 30
0.0
 10
0.473363
 20
16.270733
 30
0.0
 10
0.449424
 20
16.196668
 30
0.0
 10
0.425463
 20
16.122538
 30
0.0
  0
SPLINE
  5
184
100
AcDbEntity
  8
Layer_1
 62
7
100
AcDbSpline
 70
8
 71
3
 72
8
 73
4
 74
0
 40
0
 40
0
 40
0
 40
0
 40
1
 40
1
 40
1
 40
1
 10
0.425463
 20
16.122538
 30
0.0
 10
0.391122
 20
16.016298
 30
0.0
 10
0.367262
 20
15.942490
 30
0.0
 10
0.348568
 20
15.884662
 30
0.0
  0
SPLINE
  5
185
100
AcDbEntity
  8
Layer_1
 62
7
100
AcDbSpline
 70
8
 71
3
 72
8
 73
4
 74
0
 40
0
 40
0
 40
0
 40
0
 40
1
 40
1
 40
1
 40
1
 10
0.348568
 20
15.884662
 30
0.0
 10
0.318625
 20
15.792036
 30
0.0
 10
0.304384
 20
15.739628
 30
0.0
 10
0.284926
 20
15.659539
 30
0.0
  0
SPLINE
  5
186
100
AcDbEntity
  8
Layer_1
 62
7
100
AcDbSpline
 70
8
 71
3
 72
8
 73
4
 74
0
 40
0
 40
0
 40
0
 40
0
 40
1
 40
1
 40
1
 40
1
 10
0.284926
 20
15.659539
 30
0.0
 10
0.238155
 20
15.467028
 30
0.0
 10
0.209091
 20
15.268164
 30
0.0
 10
0.199561
 20
15.065341
 30
0.0
  0
SPLINE
  5
187
100
AcDbEntity
  8
Layer_1
 62
7
100
AcDbSpline
 70
8
 71
3
 72
8
 73
4
 74
0
 40
0
 40
0
 40
0
 40
0
 40
1
 40
1
 40
1
 40
1
 10
0.199561
 20
15.065341
 30
0.0
 10
0.180968
 20
14.669645
 30
0.0
 10
0.237263
 20
14.269012
 30
0.0
 10
0.371074
 20
13.885717
 30
0.0
  0
SPLINE
  5
188
100
AcDbEntity
  8
Layer_1
 62
7
100
AcDbSpline
 70
8
 71
3
 72
8
 73
4
 74
0
 40
0
 40
0
 40
0
 40
0
 40
1
 40
1
 40
1
 40
1
 10
0.371074
 20
13.885717
 30
0.0
 10
0.503778
 20
13.505594
 30
0.0
 10
0.710300
 20
13.149809
 30
0.0
 10
0.984082
 20
12.841055
 30
0.0
  0
SPLINE
  5
189
100
AcDbEntity
  8
Layer_1
 62
7
100
AcDbSpline
 70
8
 71
3
 72
8
 73
4
 74
0
 40
0
 40
0
 40
0
 40
0
 40
1
 40
1
 40
1
 40
1
 10
0.984082
 20
12.841055
 30
0.0
 10
1.256349
 20
12.534011
 30
0.0
 10
1.589853
 20
12.279603
 30
0.0
 10
1.968843
 20
12.097153
 30
0.0
  0
SPLINE
  5
18a
100
AcDbEntity
  8
Layer_1
 62
7
100
AcDbSpline
 70
8
 71
3
 72
8
 73
4
 74
0
 40
0
 40
0
 40
0
 40
0
 40
1
 40
1
 40
1
 40
1
 10
1.968843
 20
12.097153
 30
0.0
 10
2.338533
 20
11.919179
 30
0.0
 10
2.744312
 20
11.813258
 30
0.0
 10
3.164274
 20
11.790975
 30
0.0
  0
SPLINE
  5
18b
100
AcDbEntity
  8
Layer_1
 62
7
100
AcDbSpline
 70
8
 71
3
 72
8
 73
4
 74
0
 40
0
 40
0
 40
0
 40
0
 40
1
 40
1
 40
1
 40
1
 10
3.164274
 20
11.790975
 30
0.0
 10
3.218158
 20
11.788116
 30
0.0
 10
3.247344
 20
11.786558
 30
0.0
 10
3.330924
 20
11.786558
 30
0.0
  0
LWPOLYLINE
  5
18c
100
AcDbEntity
  8
Layer_1
 62
7
100
AcDbPolyline
 90
4
 70
0
 10
6.874203
 20
22.613313
 30
0.0
 10
28.921467
 20
22.613313
 30
0.0
 10
28.921467
 20
23.597562
 30
0.0
 10
5.097330
 20
23.597562
 30
0.0
  0
SPLINE
  5
18d
100
AcDbEntity
  8
Layer_1
 62
7
100
AcDbSpline
 70
8
 71
3
 72
8
 73
4
 74
0
 40
0
 40
0
 40
0
 40
0
 40
1
 40
1
 40
1
 40
1
 10
7.749231
 20
23.108793
 30
0.0
 10
7.749130
 20
23.218798
 30
0.0
 10
7.659925
 20
23.307922
 30
0.0
 10
7.549920
 20
23.307922
 30
0.0
  0
SPLINE
  5
18e
100
AcDbEntity
  8
Layer_1
 62
7
100
AcDbSpline
 70
8
 71
3
 72
8
 73
4
 74
0
 40
0
 40
0
 40
0
 40
0
 40
1
 40
1
 40
1
 40
1
 10
7.549920
 20
23.307922
 30
0.0
 10
7.439915
 20
23.307922
 30
0.0
 10
7.350710
 20
23.218798
 30
0.0
 10
7.350610
 20
23.108793
 30
0.0
  0
SPLINE
  5
18f
100
AcDbEntity
  8
Layer_1
 62
7
100
AcDbSpline
 70
8
 71
3
 72
8
 73
4
 74
0
 40
0
 40
0
 40
0
 40
0
 40
1
 40
1
 40
1
 40
1
 10
7.350610
 20
23.108793
 30
0.0
 10
7.350710
 20
22.998788
 30
0.0
 10
7.439915
 20
22.909664
 30
0.0
 10
7.549920
 20
22.909664
 30
0.0
  0
SPLINE
  5
190
100
AcDbEntity
  8
Layer_1
 62
7
100
AcDbSpline
 70
8
 71
3
 72
8
 73
4
 74
0
 40
0
 40
0
 40
0
 40
0
 40
1
 40
1
 40
1
 40
1
 10
7.549920
 20
22.909664
 30
0.0
 10
7.659925
 20
22.909664
 30
0.0
 10
7.749130
 20
22.998788
 30
0.0
 10
7.749231
 20
23.108793
 30
0.0
  0
LWPOLYLINE
  5
191
100
AcDbEntity
  8
Layer_1
 62
7
100
AcDbPolyline
 90
2
 70
0
 10
3.330874
 20
11.786545
 30
0.0
 10
32.464796
 20
11.786545
 30
0.0
  0
SPLINE
  5
192
100
AcDbEntity
  8
Layer_1
 62
7
100
AcDbSpline
 70
8
 71
3
 72
8
 73
4
 74
0
 40
0
 40
0
 40
0
 40
0
 40
1
 40
1
 40
1
 40
1
 10
31.665095
 20
12.541226
 30
0.0
 10
31.664994
 20
12.651232
 30
0.0
 10
31.575789
 20
12.740355
 30
0.0
 10
31.465784
 20
12.740355
 30
0.0
  0
SPLINE
  5
193
100
AcDbEntity
  8
Layer_1
 62
7
100
AcDbSpline
 70
8
 71
3
 72
8
 73
4
 74
0
 40
0
 40
0
 40
0
 40
0
 40
1
 40
1
 40
1
 40
1
 10
31.465784
 20
12.740355
 30
0.0
 10
31.355779
 20
12.740355
 30
0.0
 10
31.266574
 20
12.651232
 30
0.0
 10
31.266474
 20
12.541226
 30
0.0
  0
SPLINE
  5
194
100
AcDbEntity
  8
Layer_1
 62
7
100
AcDbSpline
 70
8
 71
3
 72
8
 73
4
 74
0
 40
0
 40
0
 40
0
 40
0
 40
1
 40
1
 40
1
 40
1
 10
31.266474
 20
12.541226
 30
0.0
 10
31.266574
 20
12.431221
 30
0.0
 10
31.355779
 20
12.342098
 30
0.0
 10
31.465784
 20
12.342098
 30
0.0
  0
SPLINE
  5
195
100
AcDbEntity
  8
Layer_1
 62
7
100
AcDbSpline
 70
8
 71
3
 72
8
 73
4
 74
0
 40
0
 40
0
 40
0
 40
0
 40
1
 40
1
 40
1
 40
1
 10
31.465784
 20
12.342098
 30
0.0
 10
31.575789
 20
12.342098
 30
0.0
 10
31.664994
 20
12.431221
 30
0.0
 10
31.665095
 20
12.541226
 30
0.0
  0
LWPOLYLINE
  5
196
100
AcDbEntity
  8
Layer_1
 62
7
100
AcDbPolyline
 90
1
 70
1
 10
7.749231
 20
23.108793
 30
0.0
  0
SPLINE
  5
197
100
AcDbEntity
  8
Layer_1
 62
7
100
AcDbSpline
 70
8
 71
3
 72
8
 73
4
 74
0
 40
0
 40
0
 40
0
 40
0
 40
1
 40
1
 40
1
 40
1
 10
4.529196
 20
12.541226
 30
0.0
 10
4.529096
 20
12.651232
 30
0.0
 10
4.439891
 20
12.740355
 30
0.0
 10
4.329886
 20
12.740355
 30
0.0
  0
SPLINE
  5
198
100
AcDbEntity
  8
Layer_1
 62
7
100
AcDbSpline
 70
8
 71
3
 72
8
 73
4
 74
0
 40
0
 40
0
 40
0
 40
0
 40
1
 40
1
 40
1
 40
1
 10
4.329886
 20
12.740355
 30
0.0
 10
4.219881
 20
12.740355
 30
0.0
 10
4.130676
 20
12.651232
 30
0.0
 10
4.130575
 20
12.541226
 30
0.0
  0
SPLINE
  5
199
100
AcDbEntity
  8
Layer_1
 62
7
100
AcDbSpline
 70
8
 71
3
 72
8
 73
4
 74
0
 40
0
 40
0
 40
0
 40
0
 40
1
 40
1
 40
1
 40
1
 10
4.130575
 20
12.541226
 30
0.0
 10
4.130676
 20
12.431221
 30
0.0
 10
4.219881
 20
12.342098
 30
0.0
 10
4.329886
 20
12.342098
 30
0.0
  0
SPLINE
  5
19a
100
AcDbEntity
  8
Layer_1
 62
7
100
AcDbSpline
 70
8
 71
3
 72
8
 73
4
 74
0
 40
0
 40
0
 40
0
 40
0
 40
1
 40
1
 40
1
 40
1
 10
4.329886
 20
12.342098
 30
0.0
 10
4.439891
 20
12.342098
 30
0.0
 10
4.529096
 20
12.431221
 30
0.0
 10
4.529196
 20
12.541226
 30
0.0
  0
LWPOLYLINE
  5
19b
100
AcDbEntity
  8
Layer_1
 62
7
100
AcDbPolyline
 90
1
 70
1
 10
31.665095
 20
12.541226
 30
0.0
  0
SPLINE
  5
19c
100
AcDbEntity
  8
Layer_1
 62
7
100
AcDbSpline
 70
8
 71
3
 72
8
 73
4
 74
0
 40
0
 40
0
 40
0
 40
0
 40
1
 40
1
 40
1
 40
1
 10
6.314852
 20
23.050247
 30
0.0
 10
6.314852
 20
23.121454
 30
0.0
 10
6.276864
 20
23.187252
 30
0.0
 10
6.215197
 20
23.222855
 30
0.0
  0
SPLINE
  5
19d
100
AcDbEntity
  8
Layer_1
 62
7
100
AcDbSpline
 70
8
 71
3
 72
8
 73
4
 74
0
 40
0
 40
0
 40
0
 40
0
 40
1
 40
1
 40
1
 40
1
 10
6.215197
 20
23.222855
 30
0.0
 10
6.153530
 20
23.258459
 30
0.0
 10
6.077553
 20
23.258459
 30
0.0
 10
6.015886
 20
23.222855
 30
0.0
  0
SPLINE
  5
19e
100
AcDbEntity
  8
Layer_1
 62
7
100
AcDbSpline
 70
8
 71
3
 72
8
 73
4
 74
0
 40
0
 40
0
 40
0
 40
0
 40
1
 40
1
 40
1
 40
1
 10
6.015886
 20
23.222855
 30
0.0
 10
5.954219
 20
23.187252
 30
0.0
 10
5.916230
 20
23.121454
 30
0.0
 10
5.916230
 20
23.050247
 30
0.0
  0
SPLINE
  5
19f
100
AcDbEntity
  8
Layer_1
 62
7
100
AcDbSpline
 70
8
 71
3
 72
8
 73
4
 74
0
 40
0
 40
0
 40
0
 40
0
 40
1
 40
1
 40
1
 40
1
 10
5.916230
 20
23.050247
 30
0.0
 10
5.916230
 20
22.979040
 30
0.0
 10
5.954219
 20
22.913242
 30
0.0
 10
6.015886
 20
22.877638
 30
0.0
  0
SPLINE
  5
1a0
100
AcDbEntity
  8
Layer_1
 62
7
100
AcDbSpline
 70
8
 71
3
 72
8
 73
4
 74
0
 40
0
 40
0
 40
0
 40
0
 40
1
 40
1
 40
1
 40
1
 10
6.015886
 20
22.877638
 30
0.0
 10
6.077553
 20
22.842035
 30
0.0
 10
6.153530
 20
22.842035
 30
0.0
 10
6.215197
 20
22.877638
 30
0.0
  0
SPLINE
  5
1a1
100
AcDbEntity
  8
Layer_1
 62
7
100
AcDbSpline
 70
8
 71
3
 72
8
 73
4
 74
0
 40
0
 40
0
 40
0
 40
0
 40
1
 40
1
 40
1
 40
1
 10
6.215197
 20
22.877638
 30
0.0
 10
6.276864
 20
22.913242
 30
0.0
 10
6.314852
 20
22.979040
 30
0.0
 10
6.314852
 20
23.050247
 30
0.0
  0
LWPOLYLINE
  5
1a2
100
AcDbEntity
  8
Layer_1
 62
7
100
AcDbPolyline
 90
1
 70
1
 10
4.529196
 20
12.541226
 30
0.0
  0
SPLINE
  5
1a3
100
AcDbEntity
  8
Layer_1
 62
7
100
AcDbSpline
 70
8
 71
3
 72
8
 73
4
 74
0
 40
0
 40
0
 40
0
 40
0
 40
1
 40
1
 40
1
 40
1
 10
28.445060
 20
23.108793
 30
0.0
 10
28.444960
 20
23.218798
 30
0.0
 10
28.355755
 20
23.307922
 30
0.0
 10
28.245750
 20
23.307922
 30
0.0
  0
SPLINE
  5
1a4
100
AcDbEntity
  8
Layer_1
 62
7
100
AcDbSpline
 70
8
 71
3
 72
8
 73
4
 74
0
 40
0
 40
0
 40
0
 40
0
 40
1
 40
1
 40
1
 40
1
 10
28.245750
 20
23.307922
 30
0.0
 10
28.135745
 20
23.307922
 30
0.0
 10
28.046540
 20
23.218798
 30
0.0
 10
28.046439
 20
23.108793
 30
0.0
  0
SPLINE
  5
1a5
100
AcDbEntity
  8
Layer_1
 62
7
100
AcDbSpline
 70
8
 71
3
 72
8
 73
4
 74
0
 40
0
 40
0
 40
0
 40
0
 40
1
 40
1
 40
1
 40
1
 10
28.046439
 20
23.108793
 30
0.0
 10
28.046540
 20
22.998788
 30
0.0
 10
28.135745
 20
22.909664
 30
0.0
 10
28.245750
 20
22.909664
 30
0.0
  0
SPLINE
  5
1a6
100
AcDbEntity
  8
Layer_1
 62
7
100
AcDbSpline
 70
8
 71
3
 72
8
 73
4
 74
0
 40
0
 40
0
 40
0
 40
0
 40
1
 40
1
 40
1
 40
1
 10
28.245750
 20
22.909664
 30
0.0
 10
28.355755
 20
22.909664
 30
0.0
 10
28.444960
 20
22.998788
 30
0.0
 10
28.445060
 20
23.108793
 30
0.0
  0
LWPOLYLINE
  5
1a7
100
AcDbEntity
  8
Layer_1
 62
7
100
AcDbPolyline
 90
1
 70
1
 10
6.314852
 20
23.050247
 30
0.0
  0
SPLINE
  5
1a8
100
AcDbEntity
  8
Layer_1
 62
7
100
AcDbSpline
 70
8
 71
3
 72
8
 73
4
 74
0
 40
0
 40
0
 40
0
 40
0
 40
1
 40
1
 40
1
 40
1
 10
2.626450
 20
12.863230
 30
0.0
 10
2.626450
 20
12.934437
 30
0.0
 10
2.588461
 20
13.000235
 30
0.0
 10
2.526794
 20
13.035839
 30
0.0
  0
SPLINE
  5
1a9
100
AcDbEntity
  8
Layer_1
 62
7
100
AcDbSpline
 70
8
 71
3
 72
8
 73
4
 74
0
 40
0
 40
0
 40
0
 40
0
 40
1
 40
1
 40
1
 40
1
 10
2.526794
 20
13.035839
 30
0.0
 10
2.465127
 20
13.071442
 30
0.0
 10
2.389150
 20
13.071442
 30
0.0
 10
2.327483
 20
13.035839
 30
0.0
  0
SPLINE
  5
1aa
100
AcDbEntity
  8
Layer_1
 62
7
100
AcDbSpline
 70
8
 71
3
 72
8
 73
4
 74
0
 40
0
 40
0
 40
0
 40
0
 40
1
 40
1
 40
1
 40
1
 10
2.327483
 20
13.035839
 30
0.0
 10
2.265816
 20
13.000235
 30
0.0
 10
2.227827
 20
12.934437
 30
0.0
 10
2.227827
 20
12.863230
 30
0.0
  0
SPLINE
  5
1ab
100
AcDbEntity
  8
Layer_1
 62
7
100
AcDbSpline
 70
8
 71
3
 72
8
 73
4
 74
0
 40
0
 40
0
 40
0
 40
0
 40
1
 40
1
 40
1
 40
1
 10
2.227827
 20
12.863230
 30
0.0
 10
2.227827
 20
12.792023
 30
0.0
 10
2.265816
 20
12.726225
 30
0.0
 10
2.327483
 20
12.690622
 30
0.0
  0
SPLINE
  5
1ac
100
AcDbEntity
  8
Layer_1
 62
7
100
AcDbSpline
 70
8
 71
3
 72
8
 73
4
 74
0
 40
0
 40
0
 40
0
 40
0
 40
1
 40
1
 40
1
 40
1
 10
2.327483
 20
12.690622
 30
0.0
 10
2.389150
 20
12.655018
 30
0.0
 10
2.465127
 20
12.655018
 30
0.0
 10
2.526794
 20
12.690622
 30
0.0
  0
SPLINE
  5
1ad
100
AcDbEntity
  8
Layer_1
 62
7
100
AcDbSpline
 70
8
 71
3
 72
8
 73
4
 74
0
 40
0
 40
0
 40
0
 40
0
 40
1
 40
1
 40
1
 40
1
 10
2.526794
 20
12.690622
 30
0.0
 10
2.588461
 20
12.726225
 30
0.0
 10
2.626450
 20
12.792023
 30
0.0
 10
2.626450
 20
12.863230
 30
0.0
  0
LWPOLYLINE
  5
1ae
100
AcDbEntity
  8
Layer_1
 62
7
100
AcDbPolyline
 90
1
 70
1
 10
28.445060
 20
23.108793
 30
0.0
  0
SPLINE
  5
1af
100
AcDbEntity
  8
Layer_1
 62
7
100
AcDbSpline
 70
8
 71
3
 72
8
 73
4
 74
0
 40
0
 40
0
 40
0
 40
0
 40
1
 40
1
 40
1
 40
1
 10
5.364246
 20
18.862898
 30
0.0
 10
5.343861
 20
18.863523
 30
0.0
 10
5.324690
 20
18.853225
 30
0.0
 10
5.313956
 20
18.835883
 30
0.0
  0
SPLINE
  5
1b0
100
AcDbEntity
  8
Layer_1
 62
7
100
AcDbSpline
 70
8
 71
3
 72
8
 73
4
 74
0
 40
0
 40
0
 40
0
 40
0
 40
1
 40
1
 40
1
 40
1
 10
5.313956
 20
18.835883
 30
0.0
 10
5.303222
 20
18.818541
 30
0.0
 10
5.302555
 20
18.796790
 30
0.0
 10
5.312207
 20
18.778823
 30
0.0
  0
SPLINE
  5
1b1
100
AcDbEntity
  8
Layer_1
 62
7
100
AcDbSpline
 70
8
 71
3
 72
8
 73
4
 74
0
 40
0
 40
0
 40
0
 40
0
 40
1
 40
1
 40
1
 40
1
 10
5.312207
 20
18.778823
 30
0.0
 10
5.321859
 20
18.760856
 30
0.0
 10
5.340362
 20
18.749403
 30
0.0
 10
5.360748
 20
18.748778
 30
0.0
  0
SPLINE
  5
1b2
100
AcDbEntity
  8
Layer_1
 62
7
100
AcDbSpline
 70
8
 71
3
 72
8
 73
4
 74
0
 40
0
 40
0
 40
0
 40
0
 40
1
 40
1
 40
1
 40
1
 10
5.360748
 20
18.748778
 30
0.0
 10
5.381134
 20
18.748153
 30
0.0
 10
5.400304
 20
18.758451
 30
0.0
 10
5.411038
 20
18.775793
 30
0.0
  0
SPLINE
  5
1b3
100
AcDbEntity
  8
Layer_1
 62
7
100
AcDbSpline
 70
8
 71
3
 72
8
 73
4
 74
0
 40
0
 40
0
 40
0
 40
0
 40
1
 40
1
 40
1
 40
1
 10
5.411038
 20
18.775793
 30
0.0
 10
5.421772
 20
18.793135
 30
0.0
 10
5.422439
 20
18.814886
 30
0.0
 10
5.412787
 20
18.832853
 30
0.0
  0
SPLINE
  5
1b4
100
AcDbEntity
  8
Layer_1
 62
7
100
AcDbSpline
 70
8
 71
3
 72
8
 73
4
 74
0
 40
0
 40
0
 40
0
 40
0
 40
1
 40
1
 40
1
 40
1
 10
5.412787
 20
18.832853
 30
0.0
 10
5.403136
 20
18.850820
 30
0.0
 10
5.384632
 20
18.862273
 30
0.0
 10
5.364246
 20
18.862898
 30
0.0
  0
LWPOLYLINE
  5
1b5
100
AcDbEntity
  8
Layer_1
 62
7
100
AcDbPolyline
 90
1
 70
1
 10
2.626450
 20
12.863230
 30
0.0
  0
SPLINE
  5
1b6
100
AcDbEntity
  8
Layer_1
 62
7
100
AcDbSpline
 70
8
 71
3
 72
8
 73
4
 74
0
 40
0
 40
0
 40
0
 40
0
 40
1
 40
1
 40
1
 40
1
 10
13.179100
 20
21.931964
 30
0.0
 10
13.158715
 20
21.932589
 30
0.0
 10
13.139544
 20
21.922291
 30
0.0
 10
13.128810
 20
21.904949
 30
0.0
  0
SPLINE
  5
1b7
100
AcDbEntity
  8
Layer_1
 62
7
100
AcDbSpline
 70
8
 71
3
 72
8
 73
4
 74
0
 40
0
 40
0
 40
0
 40
0
 40
1
 40
1
 40
1
 40
1
 10
13.128810
 20
21.904949
 30
0.0
 10
13.118076
 20
21.887607
 30
0.0
 10
13.117409
 20
21.865856
 30
0.0
 10
13.127061
 20
21.847889
 30
0.0
  0
SPLINE
  5
1b8
100
AcDbEntity
  8
Layer_1
 62
7
100
AcDbSpline
 70
8
 71
3
 72
8
 73
4
 74
0
 40
0
 40
0
 40
0
 40
0
 40
1
 40
1
 40
1
 40
1
 10
13.127061
 20
21.847889
 30
0.0
 10
13.136712
 20
21.829922
 30
0.0
 10
13.155216
 20
21.818469
 30
0.0
 10
13.175602
 20
21.817844
 30
0.0
  0
SPLINE
  5
1b9
100
AcDbEntity
  8
Layer_1
 62
7
100
AcDbSpline
 70
8
 71
3
 72
8
 73
4
 74
0
 40
0
 40
0
 40
0
 40
0
 40
1
 40
1
 40
1
 40
1
 10
13.175602
 20
21.817844
 30
0.0
 10
13.195987
 20
21.817219
 30
0.0
 10
13.215158
 20
21.827517
 30
0.0
 10
13.225892
 20
21.844859
 30
0.0
  0
SPLINE
  5
1ba
100
AcDbEntity
  8
Layer_1
 62
7
100
AcDbSpline
 70
8
 71
3
 72
8
 73
4
 74
0
 40
0
 40
0
 40
0
 40
0
 40
1
 40
1
 40
1
 40
1
 10
13.225892
 20
21.844859
 30
0.0
 10
13.236626
 20
21.862201
 30
0.0
 10
13.237293
 20
21.883952
 30
0.0
 10
13.227641
 20
21.901919
 30
0.0
  0
SPLINE
  5
1bb
100
AcDbEntity
  8
Layer_1
 62
7
100
AcDbSpline
 70
8
 71
3
 72
8
 73
4
 74
0
 40
0
 40
0
 40
0
 40
0
 40
1
 40
1
 40
1
 40
1
 10
13.227641
 20
21.901919
 30
0.0
 10
13.217990
 20
21.919886
 30
0.0
 10
13.199486
 20
21.931339
 30
0.0
 10
13.179100
 20
21.931964
 30
0.0
  0
LWPOLYLINE
  5
1bc
100
AcDbEntity
  8
Layer_1
 62
7
100
AcDbPolyline
 90
1
 70
1
 10
5.364246
 20
18.862898
 30
0.0
  0
LWPOLYLINE
  5
1bd
100
AcDbEntity
  8
Layer_1
 62
7
100
AcDbPolyline
 90
1
 70
1
 10
13.179100
 20
21.931964
 30
0.0
  0
SPLINE
  5
1be
100
AcDbEntity
  8
Layer_1
 62
7
100
AcDbSpline
 70
8
 71
3
 72
8
 73
4
 74
0
 40
0
 40
0
 40
0
 40
0
 40
1
 40
1
 40
1
 40
1
 10
16.248270
 20
19.259894
 30
0.0
 10
16.249514
 20
19.300470
 30
0.0
 10
16.249592
 20
19.319001
 30
0.0
 10
16.250768
 20
19.533252
 30
0.0
  0
SPLINE
  5
1bf
100
AcDbEntity
  8
Layer_1
 62
7
100
AcDbSpline
 70
8
 71
3
 72
8
 73
4
 74
0
 40
0
 40
0
 40
0
 40
0
 40
1
 40
1
 40
1
 40
1
 10
16.250768
 20
19.533252
 30
0.0
 10
16.250768
 20
19.533252
 30
0.0
 10
16.233867
 20
19.732674
 30
0.0
 10
16.124572
 20
20.315149
 30
0.0
  0
SPLINE
  5
1c0
100
AcDbEntity
  8
Layer_1
 62
7
100
AcDbSpline
 70
8
 71
3
 72
8
 73
4
 74
0
 40
0
 40
0
 40
0
 40
0
 40
1
 40
1
 40
1
 40
1
 10
16.124572
 20
20.315149
 30
0.0
 10
16.124572
 20
20.315149
 30
0.0
 10
15.981243
 20
20.690010
 30
0.0
 10
15.550778
 20
21.366558
 30
0.0
  0
SPLINE
  5
1c1
100
AcDbEntity
  8
Layer_1
 62
7
100
AcDbSpline
 70
8
 71
3
 72
8
 73
4
 74
0
 40
0
 40
0
 40
0
 40
0
 40
1
 40
1
 40
1
 40
1
 10
15.550778
 20
21.366558
 30
0.0
 10
15.550778
 20
21.366558
 30
0.0
 10
15.273324
 20
21.664495
 30
0.0
 10
14.608422
 20
22.135452
 30
0.0
  0
SPLINE
  5
1c2
100
AcDbEntity
  8
Layer_1
 62
7
100
AcDbSpline
 70
8
 71
3
 72
8
 73
4
 74
0
 40
0
 40
0
 40
0
 40
0
 40
1
 40
1
 40
1
 40
1
 10
14.608422
 20
22.135452
 30
0.0
 10
14.608422
 20
22.135452
 30
0.0
 10
14.231461
 20
22.308087
 30
0.0
 10
13.819184
 20
22.400920
 30
0.0
  0
SPLINE
  5
1c3
100
AcDbEntity
  8
Layer_1
 62
7
100
AcDbSpline
 70
8
 71
3
 72
8
 73
4
 74
0
 40
0
 40
0
 40
0
 40
0
 40
1
 40
1
 40
1
 40
1
 10
13.819184
 20
22.400920
 30
0.0
 10
13.608456
 20
22.448370
 30
0.0
 10
13.393394
 20
22.473787
 30
0.0
 10
13.177405
 20
22.476846
 30
0.0
  0
SPLINE
  5
1c4
100
AcDbEntity
  8
Layer_1
 62
7
100
AcDbSpline
 70
8
 71
3
 72
8
 73
4
 74
0
 40
0
 40
0
 40
0
 40
0
 40
1
 40
1
 40
1
 40
1
 10
13.177405
 20
22.476846
 30
0.0
 10
12.973207
 20
22.479739
 30
0.0
 10
12.763593
 20
22.462749
 30
0.0
 10
12.551458
 20
22.422736
 30
0.0
  0
SPLINE
  5
1c5
100
AcDbEntity
  8
Layer_1
 62
7
100
AcDbSpline
 70
8
 71
3
 72
8
 73
4
 74
0
 40
0
 40
0
 40
0
 40
0
 40
1
 40
1
 40
1
 40
1
 10
12.551458
 20
22.422736
 30
0.0
 10
12.493659
 20
22.411833
 30
0.0
 10
12.463543
 20
22.405839
 30
0.0
 10
12.387809
 20
22.387338
 30
0.0
  0
SPLINE
  5
1c6
100
AcDbEntity
  8
Layer_1
 62
7
100
AcDbSpline
 70
8
 71
3
 72
8
 73
4
 74
0
 40
0
 40
0
 40
0
 40
0
 40
1
 40
1
 40
1
 40
1
 10
12.387809
 20
22.387338
 30
0.0
 10
12.337102
 20
22.374951
 30
0.0
 10
12.265804
 20
22.357533
 30
0.0
 10
12.151944
 20
22.329727
 30
0.0
  0
SPLINE
  5
1c7
100
AcDbEntity
  8
Layer_1
 62
7
100
AcDbSpline
 70
8
 71
3
 72
8
 73
4
 74
0
 40
0
 40
0
 40
0
 40
0
 40
1
 40
1
 40
1
 40
1
 10
12.151944
 20
22.329727
 30
0.0
 10
12.126668
 20
22.323554
 30
0.0
 10
12.101401
 20
22.317384
 30
0.0
 10
12.076142
 20
22.311216
 30
0.0
  0
SPLINE
  5
1c8
100
AcDbEntity
  8
Layer_1
 62
7
100
AcDbSpline
 70
8
 71
3
 72
8
 73
4
 74
0
 40
0
 40
0
 40
0
 40
0
 40
1
 40
1
 40
1
 40
1
 10
12.076142
 20
22.311216
 30
0.0
 10
11.557845
 20
22.184654
 30
0.0
 10
11.042326
 20
22.058932
 30
0.0
 10
10.504039
 20
21.928379
 30
0.0
  0
SPLINE
  5
1c9
100
AcDbEntity
  8
Layer_1
 62
7
100
AcDbSpline
 70
8
 71
3
 72
8
 73
4
 74
0
 40
0
 40
0
 40
0
 40
0
 40
1
 40
1
 40
1
 40
1
 10
10.504039
 20
21.928379
 30
0.0
 10
9.511354
 20
21.687620
 30
0.0
 10
8.334412
 20
21.404430
 30
0.0
 10
7.263424
 20
21.156911
 30
0.0
  0
SPLINE
  5
1ca
100
AcDbEntity
  8
Layer_1
 62
7
100
AcDbSpline
 70
8
 71
3
 72
8
 73
4
 74
0
 40
0
 40
0
 40
0
 40
0
 40
1
 40
1
 40
1
 40
1
 10
7.263424
 20
21.156911
 30
0.0
 10
7.056740
 20
21.109143
 30
0.0
 10
6.927927
 20
21.079726
 30
0.0
 10
6.832659
 20
21.058009
 30
0.0
  0
SPLINE
  5
1cb
100
AcDbEntity
  8
Layer_1
 62
7
100
AcDbSpline
 70
8
 71
3
 72
8
 73
4
 74
0
 40
0
 40
0
 40
0
 40
0
 40
1
 40
1
 40
1
 40
1
 10
6.832659
 20
21.058009
 30
0.0
 10
6.704979
 20
21.028905
 30
0.0
 10
6.638485
 20
21.009609
 30
0.0
 10
6.526970
 20
20.972337
 30
0.0
  0
SPLINE
  5
1cc
100
AcDbEntity
  8
Layer_1
 62
7
100
AcDbSpline
 70
8
 71
3
 72
8
 73
4
 74
0
 40
0
 40
0
 40
0
 40
0
 40
1
 40
1
 40
1
 40
1
 10
6.526970
 20
20.972337
 30
0.0
 10
6.160006
 20
20.849683
 30
0.0
 10
5.808256
 20
20.658446
 30
0.0
 10
5.495531
 20
20.395197
 30
0.0
  0
SPLINE
  5
1cd
100
AcDbEntity
  8
Layer_1
 62
7
100
AcDbSpline
 70
8
 71
3
 72
8
 73
4
 74
0
 40
0
 40
0
 40
0
 40
0
 40
1
 40
1
 40
1
 40
1
 10
5.495531
 20
20.395197
 30
0.0
 10
5.197782
 20
20.144555
 30
0.0
 10
4.941596
 20
19.833478
 30
0.0
 10
4.750231
 20
19.469405
 30
0.0
  0
SPLINE
  5
1ce
100
AcDbEntity
  8
Layer_1
 62
7
100
AcDbSpline
 70
8
 71
3
 72
8
 73
4
 74
0
 40
0
 40
0
 40
0
 40
0
 40
1
 40
1
 40
1
 40
1
 10
4.750231
 20
19.469405
 30
0.0
 10
4.564177
 20
19.115437
 30
0.0
 10
4.443643
 20
18.718871
 30
0.0
 10
4.407084
 20
18.297711
 30
0.0
  0
SPLINE
  5
1cf
100
AcDbEntity
  8
Layer_1
 62
7
100
AcDbSpline
 70
8
 71
3
 72
8
 73
4
 74
0
 40
0
 40
0
 40
0
 40
0
 40
1
 40
1
 40
1
 40
1
 10
4.407084
 20
18.297711
 30
0.0
 10
4.402402
 20
18.243784
 30
0.0
 10
4.399173
 20
18.198788
 30
0.0
 10
4.396867
 20
18.123584
 30
0.0
  0
LWPOLYLINE
  5
1d0
100
AcDbEntity
  8
Layer_1
 62
7
100
AcDbPolyline
 90
2
 70
0
 10
14.486612
 20
19.313950
 30
0.0
 10
16.248284
 20
19.259944
 30
0.0
  0
SPLINE
  5
1d1
100
AcDbEntity
  8
Layer_1
 62
7
100
AcDbSpline
 70
8
 71
3
 72
8
 73
4
 74
0
 40
0
 40
0
 40
0
 40
0
 40
1
 40
1
 40
1
 40
1
 10
6.598947
 20
17.960608
 30
0.0
 10
5.841029
 20
17.621932
 30
0.0
 10
5.343450
 20
16.879757
 30
0.0
 10
5.318013
 20
16.050002
 30
0.0
  0
LWPOLYLINE
  5
1d2
100
AcDbEntity
  8
Layer_1
 62
7
100
AcDbPolyline
 90
3
 70
0
 10
4.396872
 20
18.123599
 30
0.0
 10
4.334229
 20
16.080185
 30
0.0
 10
5.318017
 20
16.050026
 30
0.0
  0
SPLINE
  5
1d3
100
AcDbEntity
  8
Layer_1
 62
7
100
AcDbSpline
 70
8
 71
3
 72
8
 73
4
 74
0
 40
0
 40
0
 40
0
 40
0
 40
1
 40
1
 40
1
 40
1
 10
14.476766
 20
19.416937
 30
0.0
 10
14.456725
 20
19.872705
 30
0.0
 10
14.212405
 20
20.289011
 30
0.0
 10
13.824267
 20
20.528751
 30
0.0
  0
SPLINE
  5
1d4
100
AcDbEntity
  8
Layer_1
 62
7
100
AcDbSpline
 70
8
 71
3
 72
8
 73
4
 74
0
 40
0
 40
0
 40
0
 40
0
 40
1
 40
1
 40
1
 40
1
 10
13.824267
 20
20.528751
 30
0.0
 10
13.436129
 20
20.768492
 30
0.0
 10
12.954494
 20
20.800587
 30
0.0
 10
12.537978
 20
20.614466
 30
0.0
  0
LWPOLYLINE
  5
1d5
100
AcDbEntity
  8
Layer_1
 62
7
100
AcDbPolyline
 90
2
 70
0
 10
6.598943
 20
17.960631
 30
0.0
 10
12.537944
 20
20.614479
 30
0.0
  0
SPLINE
  5
1d6
100
AcDbEntity
  8
Layer_1
 62
7
100
AcDbSpline
 70
8
 71
3
 72
8
 73
4
 74
0
 40
0
 40
0
 40
0
 40
0
 40
1
 40
1
 40
1
 40
1
 10
15.205903
 20
20.395465
 30
0.0
 10
15.134729
 20
20.397647
 30
0.0
 10
15.067798
 20
20.361692
 30
0.0
 10
15.030321
 20
20.301145
 30
0.0
  0
SPLINE
  5
1d7
100
AcDbEntity
  8
Layer_1
 62
7
100
AcDbSpline
 70
8
 71
3
 72
8
 73
4
 74
0
 40
0
 40
0
 40
0
 40
0
 40
1
 40
1
 40
1
 40
1
 10
15.030321
 20
20.301145
 30
0.0
 10
14.992845
 20
20.240598
 30
0.0
 10
14.990517
 20
20.164656
 30
0.0
 10
15.024214
 20
20.101927
 30
0.0
  0
SPLINE
  5
1d8
100
AcDbEntity
  8
Layer_1
 62
7
100
AcDbSpline
 70
8
 71
3
 72
8
 73
4
 74
0
 40
0
 40
0
 40
0
 40
0
 40
1
 40
1
 40
1
 40
1
 10
15.024214
 20
20.101927
 30
0.0
 10
15.057911
 20
20.039198
 30
0.0
 10
15.122515
 20
19.999211
 30
0.0
 10
15.193688
 20
19.997029
 30
0.0
  0
SPLINE
  5
1d9
100
AcDbEntity
  8
Layer_1
 62
7
100
AcDbSpline
 70
8
 71
3
 72
8
 73
4
 74
0
 40
0
 40
0
 40
0
 40
0
 40
1
 40
1
 40
1
 40
1
 10
15.193688
 20
19.997029
 30
0.0
 10
15.264862
 20
19.994847
 30
0.0
 10
15.331793
 20
20.030802
 30
0.0
 10
15.369270
 20
20.091349
 30
0.0
  0
SPLINE
  5
1da
100
AcDbEntity
  8
Layer_1
 62
7
100
AcDbSpline
 70
8
 71
3
 72
8
 73
4
 74
0
 40
0
 40
0
 40
0
 40
0
 40
1
 40
1
 40
1
 40
1
 10
15.369270
 20
20.091349
 30
0.0
 10
15.406746
 20
20.151896
 30
0.0
 10
15.409074
 20
20.227838
 30
0.0
 10
15.375377
 20
20.290567
 30
0.0
  0
SPLINE
  5
1db
100
AcDbEntity
  8
Layer_1
 62
7
100
AcDbSpline
 70
8
 71
3
 72
8
 73
4
 74
0
 40
0
 40
0
 40
0
 40
0
 40
1
 40
1
 40
1
 40
1
 10
15.375377
 20
20.290567
 30
0.0
 10
15.341680
 20
20.353296
 30
0.0
 10
15.277076
 20
20.393283
 30
0.0
 10
15.205903
 20
20.395465
 30
0.0
  0
LWPOLYLINE
  5
1dc
100
AcDbEntity
  8
Layer_1
 62
7
100
AcDbPolyline
 90
2
 70
0
 10
14.476741
 20
19.416905
 30
0.0
 10
14.486612
 20
19.313950
 30
0.0
  0
SPLINE
  5
1dd
100
AcDbEntity
  8
Layer_1
 62
7
100
AcDbSpline
 70
8
 71
3
 72
8
 73
4
 74
0
 40
0
 40
0
 40
0
 40
0
 40
1
 40
1
 40
1
 40
1
 10
4.910641
 20
17.020938
 30
0.0
 10
4.839468
 20
17.023120
 30
0.0
 10
4.772536
 20
16.987165
 30
0.0
 10
4.735060
 20
16.926618
 30
0.0
  0
SPLINE
  5
1de
100
AcDbEntity
  8
Layer_1
 62
7
100
AcDbSpline
 70
8
 71
3
 72
8
 73
4
 74
0
 40
0
 40
0
 40
0
 40
0
 40
1
 40
1
 40
1
 40
1
 10
4.735060
 20
16.926618
 30
0.0
 10
4.697584
 20
16.866071
 30
0.0
 10
4.695256
 20
16.790130
 30
0.0
 10
4.728953
 20
16.727400
 30
0.0
  0
SPLINE
  5
1df
100
AcDbEntity
  8
Layer_1
 62
7
100
AcDbSpline
 70
8
 71
3
 72
8
 73
4
 74
0
 40
0
 40
0
 40
0
 40
0
 40
1
 40
1
 40
1
 40
1
 10
4.728953
 20
16.727400
 30
0.0
 10
4.762650
 20
16.664671
 30
0.0
 10
4.827253
 20
16.624684
 30
0.0
 10
4.898427
 20
16.622502
 30
0.0
  0
SPLINE
  5
1e0
100
AcDbEntity
  8
Layer_1
 62
7
100
AcDbSpline
 70
8
 71
3
 72
8
 73
4
 74
0
 40
0
 40
0
 40
0
 40
0
 40
1
 40
1
 40
1
 40
1
 10
4.898427
 20
16.622502
 30
0.0
 10
4.969601
 20
16.620321
 30
0.0
 10
5.036532
 20
16.656275
 30
0.0
 10
5.074008
 20
16.716822
 30
0.0
  0
SPLINE
  5
1e1
100
AcDbEntity
  8
Layer_1
 62
7
100
AcDbSpline
 70
8
 71
3
 72
8
 73
4
 74
0
 40
0
 40
0
 40
0
 40
0
 40
1
 40
1
 40
1
 40
1
 10
5.074008
 20
16.716822
 30
0.0
 10
5.111485
 20
16.777370
 30
0.0
 10
5.113813
 20
16.853311
 30
0.0
 10
5.080115
 20
16.916040
 30
0.0
  0
SPLINE
  5
1e2
100
AcDbEntity
  8
Layer_1
 62
7
100
AcDbSpline
 70
8
 71
3
 72
8
 73
4
 74
0
 40
0
 40
0
 40
0
 40
0
 40
1
 40
1
 40
1
 40
1
 10
5.080115
 20
16.916040
 30
0.0
 10
5.046418
 20
16.978769
 30
0.0
 10
4.981815
 20
17.018756
 30
0.0
 10
4.910641
 20
17.020938
 30
0.0
  0
LWPOLYLINE
  5
1e3
100
AcDbEntity
  8
Layer_1
 62
7
100
AcDbPolyline
 90
1
 70
1
 10
15.205903
 20
20.395465
 30
0.0
  0
SPLINE
  5
1e4
100
AcDbEntity
  8
Layer_1
 62
7
100
AcDbSpline
 70
8
 71
3
 72
8
 73
4
 74
0
 40
0
 40
0
 40
0
 40
0
 40
1
 40
1
 40
1
 40
1
 10
15.467838
 20
4.250976
 30
0.0
 10
15.467838
 20
4.219448
 30
0.0
 10
15.493397
 20
4.193889
 30
0.0
 10
15.524925
 20
4.193889
 30
0.0
  0
SPLINE
  5
1e5
100
AcDbEntity
  8
Layer_1
 62
7
100
AcDbSpline
 70
8
 71
3
 72
8
 73
4
 74
0
 40
0
 40
0
 40
0
 40
0
 40
1
 40
1
 40
1
 40
1
 10
15.524925
 20
4.193889
 30
0.0
 10
15.556453
 20
4.193889
 30
0.0
 10
15.582012
 20
4.219448
 30
0.0
 10
15.582012
 20
4.250976
 30
0.0
  0
SPLINE
  5
1e6
100
AcDbEntity
  8
Layer_1
 62
7
100
AcDbSpline
 70
8
 71
3
 72
8
 73
4
 74
0
 40
0
 40
0
 40
0
 40
0
 40
1
 40
1
 40
1
 40
1
 10
15.582012
 20
4.250976
 30
0.0
 10
15.582012
 20
4.282504
 30
0.0
 10
15.556453
 20
4.308062
 30
0.0
 10
15.524925
 20
4.308062
 30
0.0
  0
SPLINE
  5
1e7
100
AcDbEntity
  8
Layer_1
 62
7
100
AcDbSpline
 70
8
 71
3
 72
8
 73
4
 74
0
 40
0
 40
0
 40
0
 40
0
 40
1
 40
1
 40
1
 40
1
 10
15.524925
 20
4.308062
 30
0.0
 10
15.493397
 20
4.308062
 30
0.0
 10
15.467838
 20
4.282504
 30
0.0
 10
15.467838
 20
4.250976
 30
0.0
  0
LWPOLYLINE
  5
1e8
100
AcDbEntity
  8
Layer_1
 62
7
100
AcDbPolyline
 90
1
 70
1
 10
4.910641
 20
17.020938
 30
0.0
  0
SPLINE
  5
1e9
100
AcDbEntity
  8
Layer_1
 62
7
100
AcDbSpline
 70
8
 71
3
 72
8
 73
4
 74
0
 40
0
 40
0
 40
0
 40
0
 40
1
 40
1
 40
1
 40
1
 10
32.003251
 20
4.565326
 30
0.0
 10
32.003251
 20
4.544931
 30
0.0
 10
32.014131
 20
4.526085
 30
0.0
 10
32.031794
 20
4.515887
 30
0.0
  0
SPLINE
  5
1ea
100
AcDbEntity
  8
Layer_1
 62
7
100
AcDbSpline
 70
8
 71
3
 72
8
 73
4
 74
0
 40
0
 40
0
 40
0
 40
0
 40
1
 40
1
 40
1
 40
1
 10
32.031794
 20
4.515887
 30
0.0
 10
32.049457
 20
4.505689
 30
0.0
 10
32.071218
 20
4.505689
 30
0.0
 10
32.088881
 20
4.515887
 30
0.0
  0
SPLINE
  5
1eb
100
AcDbEntity
  8
Layer_1
 62
7
100
AcDbSpline
 70
8
 71
3
 72
8
 73
4
 74
0
 40
0
 40
0
 40
0
 40
0
 40
1
 40
1
 40
1
 40
1
 10
32.088881
 20
4.515887
 30
0.0
 10
32.106544
 20
4.526085
 30
0.0
 10
32.117424
 20
4.544931
 30
0.0
 10
32.117424
 20
4.565326
 30
0.0
  0
SPLINE
  5
1ec
100
AcDbEntity
  8
Layer_1
 62
7
100
AcDbSpline
 70
8
 71
3
 72
8
 73
4
 74
0
 40
0
 40
0
 40
0
 40
0
 40
1
 40
1
 40
1
 40
1
 10
32.117424
 20
4.565326
 30
0.0
 10
32.117424
 20
4.585721
 30
0.0
 10
32.106544
 20
4.604567
 30
0.0
 10
32.088881
 20
4.614764
 30
0.0
  0
SPLINE
  5
1ed
100
AcDbEntity
  8
Layer_1
 62
7
100
AcDbSpline
 70
8
 71
3
 72
8
 73
4
 74
0
 40
0
 40
0
 40
0
 40
0
 40
1
 40
1
 40
1
 40
1
 10
32.088881
 20
4.614764
 30
0.0
 10
32.071218
 20
4.624962
 30
0.0
 10
32.049457
 20
4.624962
 30
0.0
 10
32.031794
 20
4.614764
 30
0.0
  0
SPLINE
  5
1ee
100
AcDbEntity
  8
Layer_1
 62
7
100
AcDbSpline
 70
8
 71
3
 72
8
 73
4
 74
0
 40
0
 40
0
 40
0
 40
0
 40
1
 40
1
 40
1
 40
1
 10
32.031794
 20
4.614764
 30
0.0
 10
32.014131
 20
4.604567
 30
0.0
 10
32.003251
 20
4.585721
 30
0.0
 10
32.003251
 20
4.565326
 30
0.0
  0
LWPOLYLINE
  5
1ef
100
AcDbEntity
  8
Layer_1
 62
7
100
AcDbPolyline
 90
1
 70
1
 10
15.467838
 20
4.250976
 30
0.0
  0
SPLINE
  5
1f0
100
AcDbEntity
  8
Layer_1
 62
7
100
AcDbSpline
 70
8
 71
3
 72
8
 73
4
 74
0
 40
0
 40
0
 40
0
 40
0
 40
1
 40
1
 40
1
 40
1
 10
29.247349
 20
14.802144
 30
0.0
 10
29.247422
 20
14.770668
 30
0.0
 10
29.272959
 20
14.745191
 30
0.0
 10
29.304435
 20
14.745191
 30
0.0
  0
SPLINE
  5
1f1
100
AcDbEntity
  8
Layer_1
 62
7
100
AcDbSpline
 70
8
 71
3
 72
8
 73
4
 74
0
 40
0
 40
0
 40
0
 40
0
 40
1
 40
1
 40
1
 40
1
 10
29.304435
 20
14.745191
 30
0.0
 10
29.335911
 20
14.745191
 30
0.0
 10
29.361448
 20
14.770668
 30
0.0
 10
29.361522
 20
14.802144
 30
0.0
  0
SPLINE
  5
1f2
100
AcDbEntity
  8
Layer_1
 62
7
100
AcDbSpline
 70
8
 71
3
 72
8
 73
4
 74
0
 40
0
 40
0
 40
0
 40
0
 40
1
 40
1
 40
1
 40
1
 10
29.361522
 20
14.802144
 30
0.0
 10
29.361448
 20
14.833620
 30
0.0
 10
29.335911
 20
14.859097
 30
0.0
 10
29.304435
 20
14.859097
 30
0.0
  0
SPLINE
  5
1f3
100
AcDbEntity
  8
Layer_1
 62
7
100
AcDbSpline
 70
8
 71
3
 72
8
 73
4
 74
0
 40
0
 40
0
 40
0
 40
0
 40
1
 40
1
 40
1
 40
1
 10
29.304435
 20
14.859097
 30
0.0
 10
29.272959
 20
14.859097
 30
0.0
 10
29.247422
 20
14.833620
 30
0.0
 10
29.247349
 20
14.802144
 30
0.0
  0
LWPOLYLINE
  5
1f4
100
AcDbEntity
  8
Layer_1
 62
7
100
AcDbPolyline
 90
1
 70
1
 10
32.003251
 20
4.565326
 30
0.0
  0
SPLINE
  5
1f5
100
AcDbEntity
  8
Layer_1
 62
7
100
AcDbSpline
 70
8
 71
3
 72
8
 73
4
 74
0
 40
0
 40
0
 40
0
 40
0
 40
1
 40
1
 40
1
 40
1
 10
23.735545
 20
14.802144
 30
0.0
 10
23.735545
 20
14.781749
 30
0.0
 10
23.746425
 20
14.762903
 30
0.0
 10
23.764088
 20
14.752706
 30
0.0
  0
SPLINE
  5
1f6
100
AcDbEntity
  8
Layer_1
 62
7
100
AcDbSpline
 70
8
 71
3
 72
8
 73
4
 74
0
 40
0
 40
0
 40
0
 40
0
 40
1
 40
1
 40
1
 40
1
 10
23.764088
 20
14.752706
 30
0.0
 10
23.781751
 20
14.742508
 30
0.0
 10
23.803512
 20
14.742508
 30
0.0
 10
23.821174
 20
14.752706
 30
0.0
  0
SPLINE
  5
1f7
100
AcDbEntity
  8
Layer_1
 62
7
100
AcDbSpline
 70
8
 71
3
 72
8
 73
4
 74
0
 40
0
 40
0
 40
0
 40
0
 40
1
 40
1
 40
1
 40
1
 10
23.821174
 20
14.752706
 30
0.0
 10
23.838837
 20
14.762903
 30
0.0
 10
23.849718
 20
14.781749
 30
0.0
 10
23.849718
 20
14.802144
 30
0.0
  0
SPLINE
  5
1f8
100
AcDbEntity
  8
Layer_1
 62
7
100
AcDbSpline
 70
8
 71
3
 72
8
 73
4
 74
0
 40
0
 40
0
 40
0
 40
0
 40
1
 40
1
 40
1
 40
1
 10
23.849718
 20
14.802144
 30
0.0
 10
23.849718
 20
14.822539
 30
0.0
 10
23.838837
 20
14.841385
 30
0.0
 10
23.821174
 20
14.851582
 30
0.0
  0
SPLINE
  5
1f9
100
AcDbEntity
  8
Layer_1
 62
7
100
AcDbSpline
 70
8
 71
3
 72
8
 73
4
 74
0
 40
0
 40
0
 40
0
 40
0
 40
1
 40
1
 40
1
 40
1
 10
23.821174
 20
14.851582
 30
0.0
 10
23.803512
 20
14.861780
 30
0.0
 10
23.781751
 20
14.861780
 30
0.0
 10
23.764088
 20
14.851582
 30
0.0
  0
SPLINE
  5
1fa
100
AcDbEntity
  8
Layer_1
 62
7
100
AcDbSpline
 70
8
 71
3
 72
8
 73
4
 74
0
 40
0
 40
0
 40
0
 40
0
 40
1
 40
1
 40
1
 40
1
 10
23.764088
 20
14.851582
 30
0.0
 10
23.746425
 20
14.841385
 30
0.0
 10
23.735545
 20
14.822539
 30
0.0
 10
23.735545
 20
14.802144
 30
0.0
  0
LWPOLYLINE
  5
1fb
100
AcDbEntity
  8
Layer_1
 62
7
100
AcDbPolyline
 90
1
 70
1
 10
29.247349
 20
14.802144
 30
0.0
  0
SPLINE
  5
1fc
100
AcDbEntity
  8
Layer_1
 62
7
100
AcDbSpline
 70
8
 71
3
 72
8
 73
4
 74
0
 40
0
 40
0
 40
0
 40
0
 40
1
 40
1
 40
1
 40
1
 10
9.956034
 20
4.250976
 30
0.0
 10
9.956034
 20
4.230581
 30
0.0
 10
9.966915
 20
4.211735
 30
0.0
 10
9.984578
 20
4.201537
 30
0.0
  0
SPLINE
  5
1fd
100
AcDbEntity
  8
Layer_1
 62
7
100
AcDbSpline
 70
8
 71
3
 72
8
 73
4
 74
0
 40
0
 40
0
 40
0
 40
0
 40
1
 40
1
 40
1
 40
1
 10
9.984578
 20
4.201537
 30
0.0
 10
10.002240
 20
4.191340
 30
0.0
 10
10.024001
 20
4.191340
 30
0.0
 10
10.041664
 20
4.201537
 30
0.0
  0
SPLINE
  5
1fe
100
AcDbEntity
  8
Layer_1
 62
7
100
AcDbSpline
 70
8
 71
3
 72
8
 73
4
 74
0
 40
0
 40
0
 40
0
 40
0
 40
1
 40
1
 40
1
 40
1
 10
10.041664
 20
4.201537
 30
0.0
 10
10.059327
 20
4.211735
 30
0.0
 10
10.070207
 20
4.230581
 30
0.0
 10
10.070207
 20
4.250976
 30
0.0
  0
SPLINE
  5
1ff
100
AcDbEntity
  8
Layer_1
 62
7
100
AcDbSpline
 70
8
 71
3
 72
8
 73
4
 74
0
 40
0
 40
0
 40
0
 40
0
 40
1
 40
1
 40
1
 40
1
 10
10.070207
 20
4.250976
 30
0.0
 10
10.070207
 20
4.271371
 30
0.0
 10
10.059327
 20
4.290217
 30
0.0
 10
10.041664
 20
4.300414
 30
0.0
  0
SPLINE
  5
200
100
AcDbEntity
  8
Layer_1
 62
7
100
AcDbSpline
 70
8
 71
3
 72
8
 73
4
 74
0
 40
0
 40
0
 40
0
 40
0
 40
1
 40
1
 40
1
 40
1
 10
10.041664
 20
4.300414
 30
0.0
 10
10.024001
 20
4.310612
 30
0.0
 10
10.002240
 20
4.310612
 30
0.0
 10
9.984578
 20
4.300414
 30
0.0
  0
SPLINE
  5
201
100
AcDbEntity
  8
Layer_1
 62
7
100
AcDbSpline
 70
8
 71
3
 72
8
 73
4
 74
0
 40
0
 40
0
 40
0
 40
0
 40
1
 40
1
 40
1
 40
1
 10
9.984578
 20
4.300414
 30
0.0
 10
9.966915
 20
4.290217
 30
0.0
 10
9.956034
 20
4.271371
 30
0.0
 10
9.956034
 20
4.250976
 30
0.0
  0
LWPOLYLINE
  5
202
100
AcDbEntity
  8
Layer_1
 62
7
100
AcDbPolyline
 90
1
 70
1
 10
23.735545
 20
14.802144
 30
0.0
  0
SPLINE
  5
203
100
AcDbEntity
  8
Layer_1
 62
7
100
AcDbSpline
 70
8
 71
3
 72
8
 73
4
 74
0
 40
0
 40
0
 40
0
 40
0
 40
1
 40
1
 40
1
 40
1
 10
20.979643
 20
4.250976
 30
0.0
 10
20.979643
 20
4.219448
 30
0.0
 10
21.005201
 20
4.193889
 30
0.0
 10
21.036729
 20
4.193889
 30
0.0
  0
SPLINE
  5
204
100
AcDbEntity
  8
Layer_1
 62
7
100
AcDbSpline
 70
8
 71
3
 72
8
 73
4
 74
0
 40
0
 40
0
 40
0
 40
0
 40
1
 40
1
 40
1
 40
1
 10
21.036729
 20
4.193889
 30
0.0
 10
21.068257
 20
4.193889
 30
0.0
 10
21.093816
 20
4.219448
 30
0.0
 10
21.093816
 20
4.250976
 30
0.0
  0
SPLINE
  5
205
100
AcDbEntity
  8
Layer_1
 62
7
100
AcDbSpline
 70
8
 71
3
 72
8
 73
4
 74
0
 40
0
 40
0
 40
0
 40
0
 40
1
 40
1
 40
1
 40
1
 10
21.093816
 20
4.250976
 30
0.0
 10
21.093816
 20
4.271371
 30
0.0
 10
21.082935
 20
4.290217
 30
0.0
 10
21.065272
 20
4.300414
 30
0.0
  0
SPLINE
  5
206
100
AcDbEntity
  8
Layer_1
 62
7
100
AcDbSpline
 70
8
 71
3
 72
8
 73
4
 74
0
 40
0
 40
0
 40
0
 40
0
 40
1
 40
1
 40
1
 40
1
 10
21.065272
 20
4.300414
 30
0.0
 10
21.047610
 20
4.310612
 30
0.0
 10
21.025848
 20
4.310612
 30
0.0
 10
21.008186
 20
4.300414
 30
0.0
  0
SPLINE
  5
207
100
AcDbEntity
  8
Layer_1
 62
7
100
AcDbSpline
 70
8
 71
3
 72
8
 73
4
 74
0
 40
0
 40
0
 40
0
 40
0
 40
1
 40
1
 40
1
 40
1
 10
21.008186
 20
4.300414
 30
0.0
 10
20.990523
 20
4.290217
 30
0.0
 10
20.979643
 20
4.271371
 30
0.0
 10
20.979643
 20
4.250976
 30
0.0
  0
LWPOLYLINE
  5
208
100
AcDbEntity
  8
Layer_1
 62
7
100
AcDbPolyline
 90
1
 70
1
 10
9.956034
 20
4.250976
 30
0.0
  0
SPLINE
  5
209
100
AcDbEntity
  8
Layer_1
 62
7
100
AcDbSpline
 70
8
 71
3
 72
8
 73
4
 74
0
 40
0
 40
0
 40
0
 40
0
 40
1
 40
1
 40
1
 40
1
 10
12.711936
 20
14.802144
 30
0.0
 10
12.711936
 20
14.781749
 30
0.0
 10
12.722817
 20
14.762903
 30
0.0
 10
12.740480
 20
14.752706
 30
0.0
  0
SPLINE
  5
20a
100
AcDbEntity
  8
Layer_1
 62
7
100
AcDbSpline
 70
8
 71
3
 72
8
 73
4
 74
0
 40
0
 40
0
 40
0
 40
0
 40
1
 40
1
 40
1
 40
1
 10
12.740480
 20
14.752706
 30
0.0
 10
12.758142
 20
14.742508
 30
0.0
 10
12.779904
 20
14.742508
 30
0.0
 10
12.797566
 20
14.752706
 30
0.0
  0
SPLINE
  5
20b
100
AcDbEntity
  8
Layer_1
 62
7
100
AcDbSpline
 70
8
 71
3
 72
8
 73
4
 74
0
 40
0
 40
0
 40
0
 40
0
 40
1
 40
1
 40
1
 40
1
 10
12.797566
 20
14.752706
 30
0.0
 10
12.815229
 20
14.762903
 30
0.0
 10
12.826109
 20
14.781749
 30
0.0
 10
12.826109
 20
14.802144
 30
0.0
  0
SPLINE
  5
20c
100
AcDbEntity
  8
Layer_1
 62
7
100
AcDbSpline
 70
8
 71
3
 72
8
 73
4
 74
0
 40
0
 40
0
 40
0
 40
0
 40
1
 40
1
 40
1
 40
1
 10
12.826109
 20
14.802144
 30
0.0
 10
12.826109
 20
14.822539
 30
0.0
 10
12.815229
 20
14.841385
 30
0.0
 10
12.797566
 20
14.851582
 30
0.0
  0
SPLINE
  5
20d
100
AcDbEntity
  8
Layer_1
 62
7
100
AcDbSpline
 70
8
 71
3
 72
8
 73
4
 74
0
 40
0
 40
0
 40
0
 40
0
 40
1
 40
1
 40
1
 40
1
 10
12.797566
 20
14.851582
 30
0.0
 10
12.779904
 20
14.861780
 30
0.0
 10
12.758142
 20
14.861780
 30
0.0
 10
12.740480
 20
14.851582
 30
0.0
  0
SPLINE
  5
20e
100
AcDbEntity
  8
Layer_1
 62
7
100
AcDbSpline
 70
8
 71
3
 72
8
 73
4
 74
0
 40
0
 40
0
 40
0
 40
0
 40
1
 40
1
 40
1
 40
1
 10
12.740480
 20
14.851582
 30
0.0
 10
12.722817
 20
14.841385
 30
0.0
 10
12.711936
 20
14.822539
 30
0.0
 10
12.711936
 20
14.802144
 30
0.0
  0
LWPOLYLINE
  5
20f
100
AcDbEntity
  8
Layer_1
 62
7
100
AcDbPolyline
 90
1
 70
1
 10
20.979643
 20
4.250976
 30
0.0
  0
SPLINE
  5
210
100
AcDbEntity
  8
Layer_1
 62
7
100
AcDbSpline
 70
8
 71
3
 72
8
 73
4
 74
0
 40
0
 40
0
 40
0
 40
0
 40
1
 40
1
 40
1
 40
1
 10
18.223741
 20
14.802144
 30
0.0
 10
18.223741
 20
14.781749
 30
0.0
 10
18.234621
 20
14.762903
 30
0.0
 10
18.252284
 20
14.752706
 30
0.0
  0
SPLINE
  5
211
100
AcDbEntity
  8
Layer_1
 62
7
100
AcDbSpline
 70
8
 71
3
 72
8
 73
4
 74
0
 40
0
 40
0
 40
0
 40
0
 40
1
 40
1
 40
1
 40
1
 10
18.252284
 20
14.752706
 30
0.0
 10
18.269946
 20
14.742508
 30
0.0
 10
18.291708
 20
14.742508
 30
0.0
 10
18.309370
 20
14.752706
 30
0.0
  0
SPLINE
  5
212
100
AcDbEntity
  8
Layer_1
 62
7
100
AcDbSpline
 70
8
 71
3
 72
8
 73
4
 74
0
 40
0
 40
0
 40
0
 40
0
 40
1
 40
1
 40
1
 40
1
 10
18.309370
 20
14.752706
 30
0.0
 10
18.327033
 20
14.762903
 30
0.0
 10
18.337914
 20
14.781749
 30
0.0
 10
18.337914
 20
14.802144
 30
0.0
  0
SPLINE
  5
213
100
AcDbEntity
  8
Layer_1
 62
7
100
AcDbSpline
 70
8
 71
3
 72
8
 73
4
 74
0
 40
0
 40
0
 40
0
 40
0
 40
1
 40
1
 40
1
 40
1
 10
18.337914
 20
14.802144
 30
0.0
 10
18.337914
 20
14.822539
 30
0.0
 10
18.327033
 20
14.841385
 30
0.0
 10
18.309370
 20
14.851582
 30
0.0
  0
SPLINE
  5
214
100
AcDbEntity
  8
Layer_1
 62
7
100
AcDbSpline
 70
8
 71
3
 72
8
 73
4
 74
0
 40
0
 40
0
 40
0
 40
0
 40
1
 40
1
 40
1
 40
1
 10
18.309370
 20
14.851582
 30
0.0
 10
18.291708
 20
14.861780
 30
0.0
 10
18.269946
 20
14.861780
 30
0.0
 10
18.252284
 20
14.851582
 30
0.0
  0
SPLINE
  5
215
100
AcDbEntity
  8
Layer_1
 62
7
100
AcDbSpline
 70
8
 71
3
 72
8
 73
4
 74
0
 40
0
 40
0
 40
0
 40
0
 40
1
 40
1
 40
1
 40
1
 10
18.252284
 20
14.851582
 30
0.0
 10
18.234621
 20
14.841385
 30
0.0
 10
18.223741
 20
14.822539
 30
0.0
 10
18.223741
 20
14.802144
 30
0.0
  0
LWPOLYLINE
  5
216
100
AcDbEntity
  8
Layer_1
 62
7
100
AcDbPolyline
 90
1
 70
1
 10
12.711936
 20
14.802144
 30
0.0
  0
SPLINE
  5
217
100
AcDbEntity
  8
Layer_1
 62
7
100
AcDbSpline
 70
8
 71
3
 72
8
 73
4
 74
0
 40
0
 40
0
 40
0
 40
0
 40
1
 40
1
 40
1
 40
1
 10
7.200133
 20
14.802144
 30
0.0
 10
7.200206
 20
14.770668
 30
0.0
 10
7.225743
 20
14.745191
 30
0.0
 10
7.257219
 20
14.745191
 30
0.0
  0
SPLINE
  5
218
100
AcDbEntity
  8
Layer_1
 62
7
100
AcDbSpline
 70
8
 71
3
 72
8
 73
4
 74
0
 40
0
 40
0
 40
0
 40
0
 40
1
 40
1
 40
1
 40
1
 10
7.257219
 20
14.745191
 30
0.0
 10
7.288695
 20
14.745191
 30
0.0
 10
7.314232
 20
14.770668
 30
0.0
 10
7.314305
 20
14.802144
 30
0.0
  0
SPLINE
  5
219
100
AcDbEntity
  8
Layer_1
 62
7
100
AcDbSpline
 70
8
 71
3
 72
8
 73
4
 74
0
 40
0
 40
0
 40
0
 40
0
 40
1
 40
1
 40
1
 40
1
 10
7.314305
 20
14.802144
 30
0.0
 10
7.314232
 20
14.833620
 30
0.0
 10
7.288695
 20
14.859097
 30
0.0
 10
7.257219
 20
14.859097
 30
0.0
  0
SPLINE
  5
21a
100
AcDbEntity
  8
Layer_1
 62
7
100
AcDbSpline
 70
8
 71
3
 72
8
 73
4
 74
0
 40
0
 40
0
 40
0
 40
0
 40
1
 40
1
 40
1
 40
1
 10
7.257219
 20
14.859097
 30
0.0
 10
7.225743
 20
14.859097
 30
0.0
 10
7.200206
 20
14.833620
 30
0.0
 10
7.200133
 20
14.802144
 30
0.0
  0
LWPOLYLINE
  5
21b
100
AcDbEntity
  8
Layer_1
 62
7
100
AcDbPolyline
 90
1
 70
1
 10
18.223741
 20
14.802144
 30
0.0
  0
SPLINE
  5
21c
100
AcDbEntity
  8
Layer_1
 62
7
100
AcDbSpline
 70
8
 71
3
 72
8
 73
4
 74
0
 40
0
 40
0
 40
0
 40
0
 40
1
 40
1
 40
1
 40
1
 10
26.491447
 20
4.250976
 30
0.0
 10
26.491447
 20
4.230581
 30
0.0
 10
26.502327
 20
4.211735
 30
0.0
 10
26.519990
 20
4.201537
 30
0.0
  0
SPLINE
  5
21d
100
AcDbEntity
  8
Layer_1
 62
7
100
AcDbSpline
 70
8
 71
3
 72
8
 73
4
 74
0
 40
0
 40
0
 40
0
 40
0
 40
1
 40
1
 40
1
 40
1
 10
26.519990
 20
4.201537
 30
0.0
 10
26.537653
 20
4.191340
 30
0.0
 10
26.559414
 20
4.191340
 30
0.0
 10
26.577077
 20
4.201537
 30
0.0
  0
SPLINE
  5
21e
100
AcDbEntity
  8
Layer_1
 62
7
100
AcDbSpline
 70
8
 71
3
 72
8
 73
4
 74
0
 40
0
 40
0
 40
0
 40
0
 40
1
 40
1
 40
1
 40
1
 10
26.577077
 20
4.201537
 30
0.0
 10
26.594739
 20
4.211735
 30
0.0
 10
26.605620
 20
4.230581
 30
0.0
 10
26.605620
 20
4.250976
 30
0.0
  0
SPLINE
  5
21f
100
AcDbEntity
  8
Layer_1
 62
7
100
AcDbSpline
 70
8
 71
3
 72
8
 73
4
 74
0
 40
0
 40
0
 40
0
 40
0
 40
1
 40
1
 40
1
 40
1
 10
26.605620
 20
4.250976
 30
0.0
 10
26.605620
 20
4.271371
 30
0.0
 10
26.594739
 20
4.290217
 30
0.0
 10
26.577077
 20
4.300414
 30
0.0
  0
SPLINE
  5
220
100
AcDbEntity
  8
Layer_1
 62
7
100
AcDbSpline
 70
8
 71
3
 72
8
 73
4
 74
0
 40
0
 40
0
 40
0
 40
0
 40
1
 40
1
 40
1
 40
1
 10
26.577077
 20
4.300414
 30
0.0
 10
26.559414
 20
4.310612
 30
0.0
 10
26.537653
 20
4.310612
 30
0.0
 10
26.519990
 20
4.300414
 30
0.0
  0
SPLINE
  5
221
100
AcDbEntity
  8
Layer_1
 62
7
100
AcDbSpline
 70
8
 71
3
 72
8
 73
4
 74
0
 40
0
 40
0
 40
0
 40
0
 40
1
 40
1
 40
1
 40
1
 10
26.519990
 20
4.300414
 30
0.0
 10
26.502327
 20
4.290217
 30
0.0
 10
26.491447
 20
4.271371
 30
0.0
 10
26.491447
 20
4.250976
 30
0.0
  0
LWPOLYLINE
  5
222
100
AcDbEntity
  8
Layer_1
 62
7
100
AcDbPolyline
 90
1
 70
1
 10
7.200133
 20
14.802144
 30
0.0
  0
LWPOLYLINE
  5
223
100
AcDbEntity
  8
Layer_1
 62
7
100
AcDbPolyline
 90
1
 70
1
 10
26.491447
 20
4.250976
 30
0.0
  0
SPLINE
  5
224
100
AcDbEntity
  8
Layer_1
 62
7
100
AcDbSpline
 70
8
 71
3
 72
8
 73
4
 74
0
 40
0
 40
0
 40
0
 40
0
 40
1
 40
1
 40
1
 40
1
 10
10.013121
 20
14.447813
 30
0.0
 10
9.922424
 20
14.447814
 30
0.0
 10
9.831817
 20
14.442115
 30
0.0
 10
9.741835
 20
14.430753
 30
0.0
  0
LWPOLYLINE
  5
225
100
AcDbEntity
  8
Layer_1
 62
7
100
AcDbPolyline
 90
3
 70
0
 10
3.713866
 20
15.432077
 30
0.0
 10
3.713866
 20
13.669579
 30
0.0
 10
9.741838
 20
14.430724
 30
0.0
  0
SPLINE
  5
226
100
AcDbEntity
  8
Layer_1
 62
7
100
AcDbSpline
 70
8
 71
3
 72
8
 73
4
 74
0
 40
0
 40
0
 40
0
 40
0
 40
1
 40
1
 40
1
 40
1
 10
26.819819
 20
14.430753
 30
0.0
 10
26.729837
 20
14.442115
 30
0.0
 10
26.639230
 20
14.447814
 30
0.0
 10
26.548533
 20
14.447813
 30
0.0
  0
LWPOLYLINE
  5
227
100
AcDbEntity
  8
Layer_1
 62
7
100
AcDbPolyline
 90
2
 70
0
 10
10.013119
 20
14.447807
 30
0.0
 10
26.548536
 20
14.447807
 30
0.0
  0
SPLINE
  5
228
100
AcDbEntity
  8
Layer_1
 62
7
100
AcDbSpline
 70
8
 71
3
 72
8
 73
4
 74
0
 40
0
 40
0
 40
0
 40
0
 40
1
 40
1
 40
1
 40
1
 10
34.087983
 20
11.682011
 30
0.0
 10
34.286779
 20
12.092629
 30
0.0
 10
34.269457
 20
12.575021
 30
0.0
 10
34.041723
 20
12.970322
 30
0.0
  0
SPLINE
  5
229
100
AcDbEntity
  8
Layer_1
 62
7
100
AcDbSpline
 70
8
 71
3
 72
8
 73
4
 74
0
 40
0
 40
0
 40
0
 40
0
 40
1
 40
1
 40
1
 40
1
 10
34.041723
 20
12.970322
 30
0.0
 10
33.813988
 20
13.365623
 30
0.0
 10
33.405364
 20
13.622585
 30
0.0
 10
32.950424
 20
13.656582
 30
0.0
  0
LWPOLYLINE
  5
22a
100
AcDbEntity
  8
Layer_1
 62
7
100
AcDbPolyline
 90
2
 70
0
 10
26.819816
 20
14.430724
 30
0.0
 10
32.950392
 20
13.656558
 30
0.0
  0
SPLINE
  5
22b
100
AcDbEntity
  8
Layer_1
 62
7
100
AcDbSpline
 70
8
 71
3
 72
8
 73
4
 74
0
 40
0
 40
0
 40
0
 40
0
 40
1
 40
1
 40
1
 40
1
 10
29.304435
 20
4.605306
 30
0.0
 10
30.134580
 20
4.605306
 30
0.0
 10
30.891652
 20
5.079909
 30
0.0
 10
31.253392
 20
5.827093
 30
0.0
  0
LWPOLYLINE
  5
22c
100
AcDbEntity
  8
Layer_1
 62
7
100
AcDbPolyline
 90
2
 70
0
 10
34.087995
 20
11.681977
 30
0.0
 10
31.253415
 20
5.827089
 30
0.0
  0
SPLINE
  5
22d
100
AcDbEntity
  8
Layer_1
 62
7
100
AcDbSpline
 70
8
 71
3
 72
8
 73
4
 74
0
 40
0
 40
0
 40
0
 40
0
 40
1
 40
1
 40
1
 40
1
 10
31.348816
 20
3.621055
 30
0.0
 10
31.453276
 20
3.621055
 30
0.0
 10
31.503134
 20
3.623739
 30
0.0
 10
31.586887
 20
3.630155
 30
0.0
  0
SPLINE
  5
22e
100
AcDbEntity
  8
Layer_1
 62
7
100
AcDbSpline
 70
8
 71
3
 72
8
 73
4
 74
0
 40
0
 40
0
 40
0
 40
0
 40
1
 40
1
 40
1
 40
1
 10
31.586887
 20
3.630155
 30
0.0
 10
31.973356
 20
3.659761
 30
0.0
 10
32.361597
 20
3.762065
 30
0.0
 10
32.728354
 20
3.944597
 30
0.0
  0
SPLINE
  5
22f
100
AcDbEntity
  8
Layer_1
 62
7
100
AcDbSpline
 70
8
 71
3
 72
8
 73
4
 74
0
 40
0
 40
0
 40
0
 40
0
 40
1
 40
1
 40
1
 40
1
 10
32.728354
 20
3.944597
 30
0.0
 10
33.084538
 20
4.121868
 30
0.0
 10
33.412737
 20
4.371229
 30
0.0
 10
33.688003
 20
4.689328
 30
0.0
  0
SPLINE
  5
230
100
AcDbEntity
  8
Layer_1
 62
7
100
AcDbSpline
 70
8
 71
3
 72
8
 73
4
 74
0
 40
0
 40
0
 40
0
 40
0
 40
1
 40
1
 40
1
 40
1
 10
33.688003
 20
4.689328
 30
0.0
 10
33.954127
 20
4.996864
 30
0.0
 10
34.164631
 20
5.361879
 30
0.0
 10
34.299024
 20
5.770498
 30
0.0
  0
SPLINE
  5
231
100
AcDbEntity
  8
Layer_1
 62
7
100
AcDbSpline
 70
8
 71
3
 72
8
 73
4
 74
0
 40
0
 40
0
 40
0
 40
0
 40
1
 40
1
 40
1
 40
1
 10
34.299024
 20
5.770498
 30
0.0
 10
34.323001
 20
5.843400
 30
0.0
 10
34.334061
 20
5.879633
 30
0.0
 10
34.356498
 20
5.965786
 30
0.0
  0
SPLINE
  5
232
100
AcDbEntity
  8
Layer_1
 62
7
100
AcDbSpline
 70
8
 71
3
 72
8
 73
4
 74
0
 40
0
 40
0
 40
0
 40
0
 40
1
 40
1
 40
1
 40
1
 10
34.356498
 20
5.965786
 30
0.0
 10
34.370892
 20
6.021056
 30
0.0
 10
34.390610
 20
6.096703
 30
0.0
 10
34.421822
 20
6.215653
 30
0.0
  0
SPLINE
  5
233
100
AcDbEntity
  8
Layer_1
 62
7
100
AcDbSpline
 70
8
 71
3
 72
8
 73
4
 74
0
 40
0
 40
0
 40
0
 40
0
 40
1
 40
1
 40
1
 40
1
 10
34.421822
 20
6.215653
 30
0.0
 10
34.533215
 20
6.640188
 30
0.0
 10
34.653280
 20
7.090094
 30
0.0
 10
34.773874
 20
7.537415
 30
0.0
  0
SPLINE
  5
234
100
AcDbEntity
  8
Layer_1
 62
7
100
AcDbSpline
 70
8
 71
3
 72
8
 73
4
 74
0
 40
0
 40
0
 40
0
 40
0
 40
1
 40
1
 40
1
 40
1
 10
34.773874
 20
7.537415
 30
0.0
 10
35.016981
 20
8.439172
 30
0.0
 10
35.287727
 20
9.424715
 30
0.0
 10
35.549023
 20
10.370427
 30
0.0
  0
SPLINE
  5
235
100
AcDbEntity
  8
Layer_1
 62
7
100
AcDbSpline
 70
8
 71
3
 72
8
 73
4
 74
0
 40
0
 40
0
 40
0
 40
0
 40
1
 40
1
 40
1
 40
1
 10
35.549023
 20
10.370427
 30
0.0
 10
35.653293
 20
10.747805
 30
0.0
 10
35.722647
 20
10.998184
 30
0.0
 10
35.769783
 20
11.168402
 30
0.0
  0
SPLINE
  5
236
100
AcDbEntity
  8
Layer_1
 62
7
100
AcDbSpline
 70
8
 71
3
 72
8
 73
4
 74
0
 40
0
 40
0
 40
0
 40
0
 40
1
 40
1
 40
1
 40
1
 10
35.769783
 20
11.168402
 30
0.0
 10
35.814832
 20
11.331082
 30
0.0
 10
35.839615
 20
11.420535
 30
0.0
 10
35.855420
 20
11.477590
 30
0.0
  0
SPLINE
  5
237
100
AcDbEntity
  8
Layer_1
 62
7
100
AcDbSpline
 70
8
 71
3
 72
8
 73
4
 74
0
 40
0
 40
0
 40
0
 40
0
 40
1
 40
1
 40
1
 40
1
 10
35.855420
 20
11.477590
 30
0.0
 10
35.867845
 20
11.522443
 30
0.0
 10
35.874024
 20
11.547467
 30
0.0
 10
35.880084
 20
11.572321
 30
0.0
  0
SPLINE
  5
238
100
AcDbEntity
  8
Layer_1
 62
7
100
AcDbSpline
 70
8
 71
3
 72
8
 73
4
 74
0
 40
0
 40
0
 40
0
 40
0
 40
1
 40
1
 40
1
 40
1
 10
35.880084
 20
11.572321
 30
0.0
 10
35.926220
 20
11.761523
 30
0.0
 10
35.956014
 20
11.959790
 30
0.0
 10
35.965897
 20
12.165398
 30
0.0
  0
SPLINE
  5
239
100
AcDbEntity
  8
Layer_1
 62
7
100
AcDbSpline
 70
8
 71
3
 72
8
 73
4
 74
0
 40
0
 40
0
 40
0
 40
0
 40
1
 40
1
 40
1
 40
1
 10
35.965897
 20
12.165398
 30
0.0
 10
35.984517
 20
12.552805
 30
0.0
 10
35.931592
 20
12.951222
 30
0.0
 10
35.797183
 20
13.338471
 30
0.0
  0
SPLINE
  5
23a
100
AcDbEntity
  8
Layer_1
 62
7
100
AcDbSpline
 70
8
 71
3
 72
8
 73
4
 74
0
 40
0
 40
0
 40
0
 40
0
 40
1
 40
1
 40
1
 40
1
 10
35.797183
 20
13.338471
 30
0.0
 10
35.668135
 20
13.710280
 30
0.0
 10
35.466134
 20
14.064849
 30
0.0
 10
35.190896
 20
14.376782
 30
0.0
  0
SPLINE
  5
23b
100
AcDbEntity
  8
Layer_1
 62
7
100
AcDbSpline
 70
8
 71
3
 72
8
 73
4
 74
0
 40
0
 40
0
 40
0
 40
0
 40
1
 40
1
 40
1
 40
1
 10
35.190896
 20
14.376782
 30
0.0
 10
34.925458
 20
14.677606
 30
0.0
 10
34.596798
 20
14.932881
 30
0.0
 10
34.215275
 20
15.118079
 30
0.0
  0
SPLINE
  5
23c
100
AcDbEntity
  8
Layer_1
 62
7
100
AcDbSpline
 70
8
 71
3
 72
8
 73
4
 74
0
 40
0
 40
0
 40
0
 40
0
 40
1
 40
1
 40
1
 40
1
 10
34.215275
 20
15.118079
 30
0.0
 10
33.852822
 20
15.294021
 30
0.0
 10
33.449379
 20
15.403195
 30
0.0
 10
33.024130
 20
15.427109
 30
0.0
  0
SPLINE
  5
23d
100
AcDbEntity
  8
Layer_1
 62
7
100
AcDbSpline
 70
8
 71
3
 72
8
 73
4
 74
0
 40
0
 40
0
 40
0
 40
0
 40
1
 40
1
 40
1
 40
1
 10
33.024130
 20
15.427109
 30
0.0
 10
32.970585
 20
15.430120
 30
0.0
 10
32.943198
 20
15.432064
 30
0.0
 10
32.847738
 20
15.432064
 30
0.0
  0
LWPOLYLINE
  5
23e
100
AcDbEntity
  8
Layer_1
 62
7
100
AcDbPolyline
 90
4
 70
0
 10
29.304459
 20
4.605309
 30
0.0
 10
7.257195
 20
4.605309
 30
0.0
 10
7.257195
 20
3.621060
 30
0.0
 10
31.348832
 20
3.621060
 30
0.0
  0
SPLINE
  5
23f
100
AcDbEntity
  8
Layer_1
 62
7
100
AcDbSpline
 70
8
 71
3
 72
8
 73
4
 74
0
 40
0
 40
0
 40
0
 40
0
 40
1
 40
1
 40
1
 40
1
 10
28.429431
 20
4.109829
 30
0.0
 10
28.429532
 20
3.999824
 30
0.0
 10
28.518737
 20
3.910700
 30
0.0
 10
28.628742
 20
3.910700
 30
0.0
  0
SPLINE
  5
240
100
AcDbEntity
  8
Layer_1
 62
7
100
AcDbSpline
 70
8
 71
3
 72
8
 73
4
 74
0
 40
0
 40
0
 40
0
 40
0
 40
1
 40
1
 40
1
 40
1
 10
28.628742
 20
3.910700
 30
0.0
 10
28.738747
 20
3.910700
 30
0.0
 10
28.827952
 20
3.999824
 30
0.0
 10
28.828052
 20
4.109829
 30
0.0
  0
SPLINE
  5
241
100
AcDbEntity
  8
Layer_1
 62
7
100
AcDbSpline
 70
8
 71
3
 72
8
 73
4
 74
0
 40
0
 40
0
 40
0
 40
0
 40
1
 40
1
 40
1
 40
1
 10
28.828052
 20
4.109829
 30
0.0
 10
28.827952
 20
4.219834
 30
0.0
 10
28.738747
 20
4.308957
 30
0.0
 10
28.628742
 20
4.308957
 30
0.0
  0
SPLINE
  5
242
100
AcDbEntity
  8
Layer_1
 62
7
100
AcDbSpline
 70
8
 71
3
 72
8
 73
4
 74
0
 40
0
 40
0
 40
0
 40
0
 40
1
 40
1
 40
1
 40
1
 10
28.628742
 20
4.308957
 30
0.0
 10
28.518737
 20
4.308957
 30
0.0
 10
28.429532
 20
4.219834
 30
0.0
 10
28.429431
 20
4.109829
 30
0.0
  0
LWPOLYLINE
  5
243
100
AcDbEntity
  8
Layer_1
 62
7
100
AcDbPolyline
 90
2
 70
0
 10
32.847788
 20
15.432077
 30
0.0
 10
3.713866
 20
15.432077
 30
0.0
  0
SPLINE
  5
244
100
AcDbEntity
  8
Layer_1
 62
7
100
AcDbSpline
 70
8
 71
3
 72
8
 73
4
 74
0
 40
0
 40
0
 40
0
 40
0
 40
1
 40
1
 40
1
 40
1
 10
4.513567
 20
14.677395
 30
0.0
 10
4.513668
 20
14.567390
 30
0.0
 10
4.602873
 20
14.478267
 30
0.0
 10
4.712878
 20
14.478267
 30
0.0
  0
SPLINE
  5
245
100
AcDbEntity
  8
Layer_1
 62
7
100
AcDbSpline
 70
8
 71
3
 72
8
 73
4
 74
0
 40
0
 40
0
 40
0
 40
0
 40
1
 40
1
 40
1
 40
1
 10
4.712878
 20
14.478267
 30
0.0
 10
4.822883
 20
14.478267
 30
0.0
 10
4.912088
 20
14.567390
 30
0.0
 10
4.912188
 20
14.677395
 30
0.0
  0
SPLINE
  5
246
100
AcDbEntity
  8
Layer_1
 62
7
100
AcDbSpline
 70
8
 71
3
 72
8
 73
4
 74
0
 40
0
 40
0
 40
0
 40
0
 40
1
 40
1
 40
1
 40
1
 10
4.912188
 20
14.677395
 30
0.0
 10
4.912088
 20
14.787400
 30
0.0
 10
4.822883
 20
14.876524
 30
0.0
 10
4.712878
 20
14.876524
 30
0.0
  0
SPLINE
  5
247
100
AcDbEntity
  8
Layer_1
 62
7
100
AcDbSpline
 70
8
 71
3
 72
8
 73
4
 74
0
 40
0
 40
0
 40
0
 40
0
 40
1
 40
1
 40
1
 40
1
 10
4.712878
 20
14.876524
 30
0.0
 10
4.602873
 20
14.876524
 30
0.0
 10
4.513668
 20
14.787400
 30
0.0
 10
4.513567
 20
14.677395
 30
0.0
  0
LWPOLYLINE
  5
248
100
AcDbEntity
  8
Layer_1
 62
7
100
AcDbPolyline
 90
1
 70
1
 10
28.429431
 20
4.109829
 30
0.0
  0
SPLINE
  5
249
100
AcDbEntity
  8
Layer_1
 62
7
100
AcDbSpline
 70
8
 71
3
 72
8
 73
4
 74
0
 40
0
 40
0
 40
0
 40
0
 40
1
 40
1
 40
1
 40
1
 10
31.649466
 20
14.677395
 30
0.0
 10
31.649566
 20
14.567390
 30
0.0
 10
31.738771
 20
14.478267
 30
0.0
 10
31.848776
 20
14.478267
 30
0.0
  0
SPLINE
  5
24a
100
AcDbEntity
  8
Layer_1
 62
7
100
AcDbSpline
 70
8
 71
3
 72
8
 73
4
 74
0
 40
0
 40
0
 40
0
 40
0
 40
1
 40
1
 40
1
 40
1
 10
31.848776
 20
14.478267
 30
0.0
 10
31.958781
 20
14.478267
 30
0.0
 10
32.047986
 20
14.567390
 30
0.0
 10
32.048087
 20
14.677395
 30
0.0
  0
SPLINE
  5
24b
100
AcDbEntity
  8
Layer_1
 62
7
100
AcDbSpline
 70
8
 71
3
 72
8
 73
4
 74
0
 40
0
 40
0
 40
0
 40
0
 40
1
 40
1
 40
1
 40
1
 10
32.048087
 20
14.677395
 30
0.0
 10
32.047986
 20
14.787400
 30
0.0
 10
31.958781
 20
14.876524
 30
0.0
 10
31.848776
 20
14.876524
 30
0.0
  0
SPLINE
  5
24c
100
AcDbEntity
  8
Layer_1
 62
7
100
AcDbSpline
 70
8
 71
3
 72
8
 73
4
 74
0
 40
0
 40
0
 40
0
 40
0
 40
1
 40
1
 40
1
 40
1
 10
31.848776
 20
14.876524
 30
0.0
 10
31.738771
 20
14.876524
 30
0.0
 10
31.649566
 20
14.787400
 30
0.0
 10
31.649466
 20
14.677395
 30
0.0
  0
LWPOLYLINE
  5
24d
100
AcDbEntity
  8
Layer_1
 62
7
100
AcDbPolyline
 90
1
 70
1
 10
4.513567
 20
14.677395
 30
0.0
  0
SPLINE
  5
24e
100
AcDbEntity
  8
Layer_1
 62
7
100
AcDbSpline
 70
8
 71
3
 72
8
 73
4
 74
0
 40
0
 40
0
 40
0
 40
0
 40
1
 40
1
 40
1
 40
1
 10
29.863810
 20
4.168375
 30
0.0
 10
29.863810
 20
4.097168
 30
0.0
 10
29.901798
 20
4.031370
 30
0.0
 10
29.963465
 20
3.995766
 30
0.0
  0
SPLINE
  5
24f
100
AcDbEntity
  8
Layer_1
 62
7
100
AcDbSpline
 70
8
 71
3
 72
8
 73
4
 74
0
 40
0
 40
0
 40
0
 40
0
 40
1
 40
1
 40
1
 40
1
 10
29.963465
 20
3.995766
 30
0.0
 10
30.025132
 20
3.960163
 30
0.0
 10
30.101109
 20
3.960163
 30
0.0
 10
30.162776
 20
3.995766
 30
0.0
  0
SPLINE
  5
250
100
AcDbEntity
  8
Layer_1
 62
7
100
AcDbSpline
 70
8
 71
3
 72
8
 73
4
 74
0
 40
0
 40
0
 40
0
 40
0
 40
1
 40
1
 40
1
 40
1
 10
30.162776
 20
3.995766
 30
0.0
 10
30.224443
 20
4.031370
 30
0.0
 10
30.262432
 20
4.097168
 30
0.0
 10
30.262432
 20
4.168375
 30
0.0
  0
SPLINE
  5
251
100
AcDbEntity
  8
Layer_1
 62
7
100
AcDbSpline
 70
8
 71
3
 72
8
 73
4
 74
0
 40
0
 40
0
 40
0
 40
0
 40
1
 40
1
 40
1
 40
1
 10
30.262432
 20
4.168375
 30
0.0
 10
30.262432
 20
4.239582
 30
0.0
 10
30.224443
 20
4.305380
 30
0.0
 10
30.162776
 20
4.340983
 30
0.0
  0
SPLINE
  5
252
100
AcDbEntity
  8
Layer_1
 62
7
100
AcDbSpline
 70
8
 71
3
 72
8
 73
4
 74
0
 40
0
 40
0
 40
0
 40
0
 40
1
 40
1
 40
1
 40
1
 10
30.162776
 20
4.340983
 30
0.0
 10
30.101109
 20
4.376587
 30
0.0
 10
30.025132
 20
4.376587
 30
0.0
 10
29.963465
 20
4.340983
 30
0.0
  0
SPLINE
  5
253
100
AcDbEntity
  8
Layer_1
 62
7
100
AcDbSpline
 70
8
 71
3
 72
8
 73
4
 74
0
 40
0
 40
0
 40
0
 40
0
 40
1
 40
1
 40
1
 40
1
 10
29.963465
 20
4.340983
 30
0.0
 10
29.901798
 20
4.305380
 30
0.0
 10
29.863810
 20
4.239582
 30
0.0
 10
29.863810
 20
4.168375
 30
0.0
  0
LWPOLYLINE
  5
254
100
AcDbEntity
  8
Layer_1
 62
7
100
AcDbPolyline
 90
1
 70
1
 10
31.649466
 20
14.677395
 30
0.0
  0
SPLINE
  5
255
100
AcDbEntity
  8
Layer_1
 62
7
100
AcDbSpline
 70
8
 71
3
 72
8
 73
4
 74
0
 40
0
 40
0
 40
0
 40
0
 40
1
 40
1
 40
1
 40
1
 10
7.733602
 20
4.109829
 30
0.0
 10
7.733702
 20
3.999824
 30
0.0
 10
7.822907
 20
3.910700
 30
0.0
 10
7.932912
 20
3.910700
 30
0.0
  0
SPLINE
  5
256
100
AcDbEntity
  8
Layer_1
 62
7
100
AcDbSpline
 70
8
 71
3
 72
8
 73
4
 74
0
 40
0
 40
0
 40
0
 40
0
 40
1
 40
1
 40
1
 40
1
 10
7.932912
 20
3.910700
 30
0.0
 10
8.042917
 20
3.910700
 30
0.0
 10
8.132122
 20
3.999824
 30
0.0
 10
8.132223
 20
4.109829
 30
0.0
  0
SPLINE
  5
257
100
AcDbEntity
  8
Layer_1
 62
7
100
AcDbSpline
 70
8
 71
3
 72
8
 73
4
 74
0
 40
0
 40
0
 40
0
 40
0
 40
1
 40
1
 40
1
 40
1
 10
8.132223
 20
4.109829
 30
0.0
 10
8.132122
 20
4.219834
 30
0.0
 10
8.042917
 20
4.308957
 30
0.0
 10
7.932912
 20
4.308957
 30
0.0
  0
SPLINE
  5
258
100
AcDbEntity
  8
Layer_1
 62
7
100
AcDbSpline
 70
8
 71
3
 72
8
 73
4
 74
0
 40
0
 40
0
 40
0
 40
0
 40
1
 40
1
 40
1
 40
1
 10
7.932912
 20
4.308957
 30
0.0
 10
7.822907
 20
4.308957
 30
0.0
 10
7.733702
 20
4.219834
 30
0.0
 10
7.733602
 20
4.109829
 30
0.0
  0
LWPOLYLINE
  5
259
100
AcDbEntity
  8
Layer_1
 62
7
100
AcDbPolyline
 90
1
 70
1
 10
29.863810
 20
4.168375
 30
0.0
  0
SPLINE
  5
25a
100
AcDbEntity
  8
Layer_1
 62
7
100
AcDbSpline
 70
8
 71
3
 72
8
 73
4
 74
0
 40
0
 40
0
 40
0
 40
0
 40
1
 40
1
 40
1
 40
1
 10
33.552212
 20
14.355391
 30
0.0
 10
33.552212
 20
14.284184
 30
0.0
 10
33.590201
 20
14.218386
 30
0.0
 10
33.651868
 20
14.182783
 30
0.0
  0
SPLINE
  5
25b
100
AcDbEntity
  8
Layer_1
 62
7
100
AcDbSpline
 70
8
 71
3
 72
8
 73
4
 74
0
 40
0
 40
0
 40
0
 40
0
 40
1
 40
1
 40
1
 40
1
 10
33.651868
 20
14.182783
 30
0.0
 10
33.713535
 20
14.147179
 30
0.0
 10
33.789512
 20
14.147179
 30
0.0
 10
33.851179
 20
14.182783
 30
0.0
  0
SPLINE
  5
25c
100
AcDbEntity
  8
Layer_1
 62
7
100
AcDbSpline
 70
8
 71
3
 72
8
 73
4
 74
0
 40
0
 40
0
 40
0
 40
0
 40
1
 40
1
 40
1
 40
1
 10
33.851179
 20
14.182783
 30
0.0
 10
33.912846
 20
14.218386
 30
0.0
 10
33.950835
 20
14.284184
 30
0.0
 10
33.950835
 20
14.355391
 30
0.0
  0
SPLINE
  5
25d
100
AcDbEntity
  8
Layer_1
 62
7
100
AcDbSpline
 70
8
 71
3
 72
8
 73
4
 74
0
 40
0
 40
0
 40
0
 40
0
 40
1
 40
1
 40
1
 40
1
 10
33.950835
 20
14.355391
 30
0.0
 10
33.950835
 20
14.426599
 30
0.0
 10
33.912846
 20
14.492397
 30
0.0
 10
33.851179
 20
14.528000
 30
0.0
  0
SPLINE
  5
25e
100
AcDbEntity
  8
Layer_1
 62
7
100
AcDbSpline
 70
8
 71
3
 72
8
 73
4
 74
0
 40
0
 40
0
 40
0
 40
0
 40
1
 40
1
 40
1
 40
1
 10
33.851179
 20
14.528000
 30
0.0
 10
33.789512
 20
14.563604
 30
0.0
 10
33.713535
 20
14.563604
 30
0.0
 10
33.651868
 20
14.528000
 30
0.0
  0
SPLINE
  5
25f
100
AcDbEntity
  8
Layer_1
 62
7
100
AcDbSpline
 70
8
 71
3
 72
8
 73
4
 74
0
 40
0
 40
0
 40
0
 40
0
 40
1
 40
1
 40
1
 40
1
 10
33.651868
 20
14.528000
 30
0.0
 10
33.590201
 20
14.492397
 30
0.0
 10
33.552212
 20
14.426599
 30
0.0
 10
33.552212
 20
14.355391
 30
0.0
  0
LWPOLYLINE
  5
260
100
AcDbEntity
  8
Layer_1
 62
7
100
AcDbPolyline
 90
1
 70
1
 10
7.733602
 20
4.109829
 30
0.0
  0
SPLINE
  5
261
100
AcDbEntity
  8
Layer_1
 62
7
100
AcDbSpline
 70
8
 71
3
 72
8
 73
4
 74
0
 40
0
 40
0
 40
0
 40
0
 40
1
 40
1
 40
1
 40
1
 10
13.830112
 20
17.911522
 30
0.0
 10
13.810156
 20
17.907313
 30
0.0
 10
13.793961
 20
17.892777
 30
0.0
 10
13.787628
 20
17.873390
 30
0.0
  0
SPLINE
  5
262
100
AcDbEntity
  8
Layer_1
 62
7
100
AcDbSpline
 70
8
 71
3
 72
8
 73
4
 74
0
 40
0
 40
0
 40
0
 40
0
 40
1
 40
1
 40
1
 40
1
 10
13.787628
 20
17.873390
 30
0.0
 10
13.781295
 20
17.854002
 30
0.0
 10
13.785786
 20
17.832709
 30
0.0
 10
13.799409
 20
17.817531
 30
0.0
  0
SPLINE
  5
263
100
AcDbEntity
  8
Layer_1
 62
7
100
AcDbSpline
 70
8
 71
3
 72
8
 73
4
 74
0
 40
0
 40
0
 40
0
 40
0
 40
1
 40
1
 40
1
 40
1
 10
13.799409
 20
17.817531
 30
0.0
 10
13.813032
 20
17.802353
 30
0.0
 10
13.833718
 20
17.795596
 30
0.0
 10
13.853674
 20
17.799805
 30
0.0
  0
SPLINE
  5
264
100
AcDbEntity
  8
Layer_1
 62
7
100
AcDbSpline
 70
8
 71
3
 72
8
 73
4
 74
0
 40
0
 40
0
 40
0
 40
0
 40
1
 40
1
 40
1
 40
1
 10
13.853674
 20
17.799805
 30
0.0
 10
13.873631
 20
17.804014
 30
0.0
 10
13.889825
 20
17.818550
 30
0.0
 10
13.896158
 20
17.837937
 30
0.0
  0
SPLINE
  5
265
100
AcDbEntity
  8
Layer_1
 62
7
100
AcDbSpline
 70
8
 71
3
 72
8
 73
4
 74
0
 40
0
 40
0
 40
0
 40
0
 40
1
 40
1
 40
1
 40
1
 10
13.896158
 20
17.837937
 30
0.0
 10
13.902491
 20
17.857324
 30
0.0
 10
13.898000
 20
17.878617
 30
0.0
 10
13.884377
 20
17.893795
 30
0.0
  0
SPLINE
  5
266
100
AcDbEntity
  8
Layer_1
 62
7
100
AcDbSpline
 70
8
 71
3
 72
8
 73
4
 74
0
 40
0
 40
0
 40
0
 40
0
 40
1
 40
1
 40
1
 40
1
 10
13.884377
 20
17.893795
 30
0.0
 10
13.870754
 20
17.908973
 30
0.0
 10
13.850068
 20
17.915731
 30
0.0
 10
13.830112
 20
17.911522
 30
0.0
  0
LWPOLYLINE
  5
267
100
AcDbEntity
  8
Layer_1
 62
7
100
AcDbPolyline
 90
1
 70
1
 10
33.552212
 20
14.355391
 30
0.0
  0
LWPOLYLINE
  5
268
100
AcDbEntity
  8
Layer_1
 62
7
100
AcDbPolyline
 90
1
 70
1
 10
13.830112
 20
17.911522
 30
0.0
  0
SPLINE
  5
269
100
AcDbEntity
  8
Layer_1
 62
7
100
AcDbSpline
 70
8
 71
3
 72
8
 73
4
 74
0
 40
0
 40
0
 40
0
 40
0
 40
1
 40
1
 40
1
 40
1
 10
12.798708
 20
18.226132
 30
0.0
 10
12.800566
 20
18.217326
 30
0.0
 10
12.802451
 20
18.208592
 30
0.0
 10
12.804354
 20
18.199924
 30
0.0
  0
SPLINE
  5
26a
100
AcDbEntity
  8
Layer_1
 62
7
100
AcDbSpline
 70
8
 71
3
 72
8
 73
4
 74
0
 40
0
 40
0
 40
0
 40
0
 40
1
 40
1
 40
1
 40
1
 10
12.804354
 20
18.199924
 30
0.0
 10
12.838095
 20
18.046496
 30
0.0
 10
12.879879
 20
17.910555
 30
0.0
 10
12.925260
 20
17.788035
 30
0.0
  0
SPLINE
  5
26b
100
AcDbEntity
  8
Layer_1
 62
7
100
AcDbSpline
 70
8
 71
3
 72
8
 73
4
 74
0
 40
0
 40
0
 40
0
 40
0
 40
1
 40
1
 40
1
 40
1
 10
12.925260
 20
17.788035
 30
0.0
 10
13.076915
 20
17.378594
 30
0.0
 10
13.296092
 20
17.045961
 30
0.0
 10
13.541235
 20
16.778089
 30
0.0
  0
SPLINE
  5
26c
100
AcDbEntity
  8
Layer_1
 62
7
100
AcDbSpline
 70
8
 71
3
 72
8
 73
4
 74
0
 40
0
 40
0
 40
0
 40
0
 40
1
 40
1
 40
1
 40
1
 10
13.541235
 20
16.778089
 30
0.0
 10
13.839841
 20
16.451797
 30
0.0
 10
14.180631
 20
16.218237
 30
0.0
 10
14.528685
 20
16.058024
 30
0.0
  0
SPLINE
  5
26d
100
AcDbEntity
  8
Layer_1
 62
7
100
AcDbSpline
 70
8
 71
3
 72
8
 73
4
 74
0
 40
0
 40
0
 40
0
 40
0
 40
1
 40
1
 40
1
 40
1
 10
14.528685
 20
16.058024
 30
0.0
 10
14.938134
 20
15.869551
 30
0.0
 10
15.351017
 20
15.784981
 30
0.0
 10
15.742146
 20
15.770818
 30
0.0
  0
SPLINE
  5
26e
100
AcDbEntity
  8
Layer_1
 62
7
100
AcDbSpline
 70
8
 71
3
 72
8
 73
4
 74
0
 40
0
 40
0
 40
0
 40
0
 40
1
 40
1
 40
1
 40
1
 10
15.742146
 20
15.770818
 30
0.0
 10
15.754652
 20
15.770365
 30
0.0
 10
15.769374
 20
15.769901
 30
0.0
 10
15.786563
 20
15.769514
 30
0.0
  0
SPLINE
  5
26f
100
AcDbEntity
  8
Layer_1
 62
7
100
AcDbSpline
 70
8
 71
3
 72
8
 73
4
 74
0
 40
0
 40
0
 40
0
 40
0
 40
1
 40
1
 40
1
 40
1
 10
15.786563
 20
15.769514
 30
0.0
 10
16.021385
 20
15.764219
 30
0.0
 10
16.716398
 20
15.751042
 30
0.0
 10
18.515027
 20
15.685955
 30
0.0
  0
SPLINE
  5
270
100
AcDbEntity
  8
Layer_1
 62
7
100
AcDbSpline
 70
8
 71
3
 72
8
 73
4
 74
0
 40
0
 40
0
 40
0
 40
0
 40
1
 40
1
 40
1
 40
1
 10
18.515027
 20
15.685955
 30
0.0
 10
19.486435
 20
15.650801
 30
0.0
 10
20.340401
 20
15.616507
 30
0.0
 10
21.219419
 20
15.581004
 30
0.0
  0
SPLINE
  5
271
100
AcDbEntity
  8
Layer_1
 62
7
100
AcDbSpline
 70
8
 71
3
 72
8
 73
4
 74
0
 40
0
 40
0
 40
0
 40
0
 40
1
 40
1
 40
1
 40
1
 10
21.219419
 20
15.581004
 30
0.0
 10
21.283794
 20
15.578403
 30
0.0
 10
21.348302
 20
15.575795
 30
0.0
 10
21.413002
 20
15.573177
 30
0.0
  0
SPLINE
  5
272
100
AcDbEntity
  8
Layer_1
 62
7
100
AcDbSpline
 70
8
 71
3
 72
8
 73
4
 74
0
 40
0
 40
0
 40
0
 40
0
 40
1
 40
1
 40
1
 40
1
 10
21.413002
 20
15.573177
 30
0.0
 10
21.427672
 20
15.572584
 30
0.0
 10
21.443851
 20
15.571929
 30
0.0
 10
21.461468
 20
15.571216
 30
0.0
  0
SPLINE
  5
273
100
AcDbEntity
  8
Layer_1
 62
7
100
AcDbSpline
 70
8
 71
3
 72
8
 73
4
 74
0
 40
0
 40
0
 40
0
 40
0
 40
1
 40
1
 40
1
 40
1
 10
21.461468
 20
15.571216
 30
0.0
 10
21.597316
 20
15.565720
 30
0.0
 10
21.818962
 20
15.564492
 30
0.0
 10
22.095844
 20
15.609791
 30
0.0
  0
SPLINE
  5
274
100
AcDbEntity
  8
Layer_1
 62
7
100
AcDbSpline
 70
8
 71
3
 72
8
 73
4
 74
0
 40
0
 40
0
 40
0
 40
0
 40
1
 40
1
 40
1
 40
1
 10
22.095844
 20
15.609791
 30
0.0
 10
22.521492
 20
15.679429
 30
0.0
 10
22.891696
 20
15.828506
 30
0.0
 10
23.205990
 20
16.018622
 30
0.0
  0
SPLINE
  5
275
100
AcDbEntity
  8
Layer_1
 62
7
100
AcDbSpline
 70
8
 71
3
 72
8
 73
4
 74
0
 40
0
 40
0
 40
0
 40
0
 40
1
 40
1
 40
1
 40
1
 10
23.205990
 20
16.018622
 30
0.0
 10
23.580067
 20
16.244901
 30
0.0
 10
23.870926
 20
16.526461
 30
0.0
 10
24.092760
 20
16.825564
 30
0.0
  0
SPLINE
  5
276
100
AcDbEntity
  8
Layer_1
 62
7
100
AcDbSpline
 70
8
 71
3
 72
8
 73
4
 74
0
 40
0
 40
0
 40
0
 40
0
 40
1
 40
1
 40
1
 40
1
 10
24.092760
 20
16.825564
 30
0.0
 10
24.358188
 20
17.183448
 30
0.0
 10
24.522197
 20
17.562245
 30
0.0
 10
24.613392
 20
17.930697
 30
0.0
  0
SPLINE
  5
277
100
AcDbEntity
  8
Layer_1
 62
7
100
AcDbSpline
 70
8
 71
3
 72
8
 73
4
 74
0
 40
0
 40
0
 40
0
 40
0
 40
1
 40
1
 40
1
 40
1
 10
24.613392
 20
17.930697
 30
0.0
 10
24.721112
 20
18.365919
 30
0.0
 10
24.726347
 20
18.781301
 30
0.0
 10
24.668081
 20
19.158789
 30
0.0
  0
SPLINE
  5
278
100
AcDbEntity
  8
Layer_1
 62
7
100
AcDbSpline
 70
8
 71
3
 72
8
 73
4
 74
0
 40
0
 40
0
 40
0
 40
0
 40
1
 40
1
 40
1
 40
1
 10
24.668081
 20
19.158789
 30
0.0
 10
24.660057
 20
19.210777
 30
0.0
 10
24.653707
 20
19.249718
 30
0.0
 10
24.637231
 20
19.327834
 30
0.0
  0
LWPOLYLINE
  5
279
100
AcDbEntity
  8
Layer_1
 62
7
100
AcDbPolyline
 90
3
 70
0
 10
13.312271
 20
20.560475
 30
0.0
 10
12.349208
 20
20.357350
 30
0.0
 10
12.798718
 20
18.226111
 30
0.0
  0
SPLINE
  5
27a
100
AcDbEntity
  8
Layer_1
 62
7
100
AcDbSpline
 70
8
 71
3
 72
8
 73
4
 74
0
 40
0
 40
0
 40
0
 40
0
 40
1
 40
1
 40
1
 40
1
 10
21.223851
 20
17.340367
 30
0.0
 10
21.666657
 20
17.230591
 30
0.0
 10
22.135091
 20
17.347094
 30
0.0
 10
22.474885
 20
17.651507
 30
0.0
  0
SPLINE
  5
27b
100
AcDbEntity
  8
Layer_1
 62
7
100
AcDbSpline
 70
8
 71
3
 72
8
 73
4
 74
0
 40
0
 40
0
 40
0
 40
0
 40
1
 40
1
 40
1
 40
1
 10
22.474885
 20
17.651507
 30
0.0
 10
22.814679
 20
17.955920
 30
0.0
 10
22.981780
 20
18.408779
 30
0.0
 10
22.921157
 20
18.860943
 30
0.0
  0
LWPOLYLINE
  5
27c
100
AcDbEntity
  8
Layer_1
 62
7
100
AcDbPolyline
 90
3
 70
0
 10
24.637253
 20
19.327787
 30
0.0
 10
22.912692
 20
18.964052
 30
0.0
 10
22.921127
 20
18.860969
 30
0.0
  0
SPLINE
  5
27d
100
AcDbEntity
  8
Layer_1
 62
7
100
AcDbSpline
 70
8
 71
3
 72
8
 73
4
 74
0
 40
0
 40
0
 40
0
 40
0
 40
1
 40
1
 40
1
 40
1
 10
13.312264
 20
20.560497
 30
0.0
 10
13.483585
 20
19.748221
 30
0.0
 10
14.104213
 20
19.105391
 30
0.0
 10
14.909968
 20
18.905637
 30
0.0
  0
SPLINE
  5
27e
100
AcDbEntity
  8
Layer_1
 62
7
100
AcDbSpline
 70
8
 71
3
 72
8
 73
4
 74
0
 40
0
 40
0
 40
0
 40
0
 40
1
 40
1
 40
1
 40
1
 10
23.729119
 20
18.416325
 30
0.0
 10
23.659444
 20
18.401629
 30
0.0
 10
23.602903
 20
18.350879
 30
0.0
 10
23.580792
 20
18.283192
 30
0.0
  0
SPLINE
  5
27f
100
AcDbEntity
  8
Layer_1
 62
7
100
AcDbSpline
 70
8
 71
3
 72
8
 73
4
 74
0
 40
0
 40
0
 40
0
 40
0
 40
1
 40
1
 40
1
 40
1
 10
23.580792
 20
18.283192
 30
0.0
 10
23.558681
 20
18.215505
 30
0.0
 10
23.574361
 20
18.141163
 30
0.0
 10
23.621925
 20
18.088171
 30
0.0
  0
SPLINE
  5
280
100
AcDbEntity
  8
Layer_1
 62
7
100
AcDbSpline
 70
8
 71
3
 72
8
 73
4
 74
0
 40
0
 40
0
 40
0
 40
0
 40
1
 40
1
 40
1
 40
1
 10
23.621925
 20
18.088171
 30
0.0
 10
23.669488
 20
18.035179
 30
0.0
 10
23.741710
 20
18.011587
 30
0.0
 10
23.811384
 20
18.026282
 30
0.0
  0
SPLINE
  5
281
100
AcDbEntity
  8
Layer_1
 62
7
100
AcDbSpline
 70
8
 71
3
 72
8
 73
4
 74
0
 40
0
 40
0
 40
0
 40
0
 40
1
 40
1
 40
1
 40
1
 10
23.811384
 20
18.026282
 30
0.0
 10
23.881059
 20
18.040978
 30
0.0
 10
23.937601
 20
18.091728
 30
0.0
 10
23.959711
 20
18.159415
 30
0.0
  0
SPLINE
  5
282
100
AcDbEntity
  8
Layer_1
 62
7
100
AcDbSpline
 70
8
 71
3
 72
8
 73
4
 74
0
 40
0
 40
0
 40
0
 40
0
 40
1
 40
1
 40
1
 40
1
 10
23.959711
 20
18.159415
 30
0.0
 10
23.981822
 20
18.227102
 30
0.0
 10
23.966142
 20
18.301444
 30
0.0
 10
23.918578
 20
18.354436
 30
0.0
  0
SPLINE
  5
283
100
AcDbEntity
  8
Layer_1
 62
7
100
AcDbSpline
 70
8
 71
3
 72
8
 73
4
 74
0
 40
0
 40
0
 40
0
 40
0
 40
1
 40
1
 40
1
 40
1
 10
23.918578
 20
18.354436
 30
0.0
 10
23.871015
 20
18.407428
 30
0.0
 10
23.798793
 20
18.431020
 30
0.0
 10
23.729119
 20
18.416325
 30
0.0
  0
LWPOLYLINE
  5
284
100
AcDbEntity
  8
Layer_1
 62
7
100
AcDbPolyline
 90
2
 70
0
 10
21.223820
 20
17.340349
 30
0.0
 10
14.909969
 20
18.905614
 30
0.0
  0
SPLINE
  5
285
100
AcDbEntity
  8
Layer_1
 62
7
100
AcDbSpline
 70
8
 71
3
 72
8
 73
4
 74
0
 40
0
 40
0
 40
0
 40
0
 40
1
 40
1
 40
1
 40
1
 10
13.000178
 20
19.922992
 30
0.0
 10
12.930504
 20
19.908296
 30
0.0
 10
12.873962
 20
19.857546
 30
0.0
 10
12.851851
 20
19.789859
 30
0.0
  0
SPLINE
  5
286
100
AcDbEntity
  8
Layer_1
 62
7
100
AcDbSpline
 70
8
 71
3
 72
8
 73
4
 74
0
 40
0
 40
0
 40
0
 40
0
 40
1
 40
1
 40
1
 40
1
 10
12.851851
 20
19.789859
 30
0.0
 10
12.829740
 20
19.722172
 30
0.0
 10
12.845420
 20
19.647830
 30
0.0
 10
12.892984
 20
19.594838
 30
0.0
  0
SPLINE
  5
287
100
AcDbEntity
  8
Layer_1
 62
7
100
AcDbSpline
 70
8
 71
3
 72
8
 73
4
 74
0
 40
0
 40
0
 40
0
 40
0
 40
1
 40
1
 40
1
 40
1
 10
12.892984
 20
19.594838
 30
0.0
 10
12.940548
 20
19.541846
 30
0.0
 10
13.012769
 20
19.518254
 30
0.0
 10
13.082444
 20
19.532949
 30
0.0
  0
SPLINE
  5
288
100
AcDbEntity
  8
Layer_1
 62
7
100
AcDbSpline
 70
8
 71
3
 72
8
 73
4
 74
0
 40
0
 40
0
 40
0
 40
0
 40
1
 40
1
 40
1
 40
1
 10
13.082444
 20
19.532949
 30
0.0
 10
13.152118
 20
19.547645
 30
0.0
 10
13.208660
 20
19.598395
 30
0.0
 10
13.230770
 20
19.666082
 30
0.0
  0
SPLINE
  5
289
100
AcDbEntity
  8
Layer_1
 62
7
100
AcDbSpline
 70
8
 71
3
 72
8
 73
4
 74
0
 40
0
 40
0
 40
0
 40
0
 40
1
 40
1
 40
1
 40
1
 10
13.230770
 20
19.666082
 30
0.0
 10
13.252881
 20
19.733769
 30
0.0
 10
13.237201
 20
19.808111
 30
0.0
 10
13.189638
 20
19.861103
 30
0.0
  0
SPLINE
  5
28a
100
AcDbEntity
  8
Layer_1
 62
7
100
AcDbSpline
 70
8
 71
3
 72
8
 73
4
 74
0
 40
0
 40
0
 40
0
 40
0
 40
1
 40
1
 40
1
 40
1
 10
13.189638
 20
19.861103
 30
0.0
 10
13.142074
 20
19.914095
 30
0.0
 10
13.069852
 20
19.937687
 30
0.0
 10
13.000178
 20
19.922992
 30
0.0
  0
LWPOLYLINE
  5
28b
100
AcDbEntity
  8
Layer_1
 62
7
100
AcDbPolyline
 90
1
 70
1
 10
23.729119
 20
18.416325
 30
0.0
  0
SPLINE
  5
28c
100
AcDbEntity
  8
Layer_1
 62
7
100
AcDbSpline
 70
8
 71
3
 72
8
 73
4
 74
0
 40
0
 40
0
 40
0
 40
0
 40
1
 40
1
 40
1
 40
1
 10
19.907270
 20
9.930211
 30
0.0
 10
19.889821
 20
9.940771
 30
0.0
 10
19.868064
 20
9.941221
 30
0.0
 10
19.850195
 20
9.931390
 30
0.0
  0
SPLINE
  5
28d
100
AcDbEntity
  8
Layer_1
 62
7
100
AcDbSpline
 70
8
 71
3
 72
8
 73
4
 74
0
 40
0
 40
0
 40
0
 40
0
 40
1
 40
1
 40
1
 40
1
 10
19.850195
 20
9.931390
 30
0.0
 10
19.832325
 20
9.921559
 30
0.0
 10
19.821057
 20
9.902942
 30
0.0
 10
19.820636
 20
9.882551
 30
0.0
  0
SPLINE
  5
28e
100
AcDbEntity
  8
Layer_1
 62
7
100
AcDbSpline
 70
8
 71
3
 72
8
 73
4
 74
0
 40
0
 40
0
 40
0
 40
0
 40
1
 40
1
 40
1
 40
1
 10
19.820636
 20
9.882551
 30
0.0
 10
19.820215
 20
9.862160
 30
0.0
 10
19.830704
 20
9.843094
 30
0.0
 10
19.848152
 20
9.832533
 30
0.0
  0
SPLINE
  5
28f
100
AcDbEntity
  8
Layer_1
 62
7
100
AcDbSpline
 70
8
 71
3
 72
8
 73
4
 74
0
 40
0
 40
0
 40
0
 40
0
 40
1
 40
1
 40
1
 40
1
 10
19.848152
 20
9.832533
 30
0.0
 10
19.865601
 20
9.821973
 30
0.0
 10
19.887358
 20
9.821524
 30
0.0
 10
19.905227
 20
9.831354
 30
0.0
  0
SPLINE
  5
290
100
AcDbEntity
  8
Layer_1
 62
7
100
AcDbSpline
 70
8
 71
3
 72
8
 73
4
 74
0
 40
0
 40
0
 40
0
 40
0
 40
1
 40
1
 40
1
 40
1
 10
19.905227
 20
9.831354
 30
0.0
 10
19.923097
 20
9.841185
 30
0.0
 10
19.934365
 20
9.859802
 30
0.0
 10
19.934786
 20
9.880193
 30
0.0
  0
SPLINE
  5
291
100
AcDbEntity
  8
Layer_1
 62
7
100
AcDbSpline
 70
8
 71
3
 72
8
 73
4
 74
0
 40
0
 40
0
 40
0
 40
0
 40
1
 40
1
 40
1
 40
1
 10
19.934786
 20
9.880193
 30
0.0
 10
19.935207
 20
9.900584
 30
0.0
 10
19.924718
 20
9.919651
 30
0.0
 10
19.907270
 20
9.930211
 30
0.0
  0
LWPOLYLINE
  5
292
100
AcDbEntity
  8
Layer_1
 62
7
100
AcDbPolyline
 90
1
 70
1
 10
13.000178
 20
19.922992
 30
0.0
  0
SPLINE
  5
293
100
AcDbEntity
  8
Layer_1
 62
7
100
AcDbSpline
 70
8
 71
3
 72
8
 73
4
 74
0
 40
0
 40
0
 40
0
 40
0
 40
1
 40
1
 40
1
 40
1
 10
28.221747
 20
8.763688
 30
0.0
 10
28.204299
 20
8.774248
 30
0.0
 10
28.182542
 20
8.774698
 30
0.0
 10
28.164672
 20
8.764867
 30
0.0
  0
SPLINE
  5
294
100
AcDbEntity
  8
Layer_1
 62
7
100
AcDbSpline
 70
8
 71
3
 72
8
 73
4
 74
0
 40
0
 40
0
 40
0
 40
0
 40
1
 40
1
 40
1
 40
1
 10
28.164672
 20
8.764867
 30
0.0
 10
28.146802
 20
8.755036
 30
0.0
 10
28.135535
 20
8.736419
 30
0.0
 10
28.135114
 20
8.716028
 30
0.0
  0
SPLINE
  5
295
100
AcDbEntity
  8
Layer_1
 62
7
100
AcDbSpline
 70
8
 71
3
 72
8
 73
4
 74
0
 40
0
 40
0
 40
0
 40
0
 40
1
 40
1
 40
1
 40
1
 10
28.135114
 20
8.716028
 30
0.0
 10
28.134692
 20
8.695637
 30
0.0
 10
28.145182
 20
8.676571
 30
0.0
 10
28.162630
 20
8.666010
 30
0.0
  0
SPLINE
  5
296
100
AcDbEntity
  8
Layer_1
 62
7
100
AcDbSpline
 70
8
 71
3
 72
8
 73
4
 74
0
 40
0
 40
0
 40
0
 40
0
 40
1
 40
1
 40
1
 40
1
 10
28.162630
 20
8.666010
 30
0.0
 10
28.180078
 20
8.655450
 30
0.0
 10
28.201835
 20
8.655001
 30
0.0
 10
28.219705
 20
8.664831
 30
0.0
  0
SPLINE
  5
297
100
AcDbEntity
  8
Layer_1
 62
7
100
AcDbSpline
 70
8
 71
3
 72
8
 73
4
 74
0
 40
0
 40
0
 40
0
 40
0
 40
1
 40
1
 40
1
 40
1
 10
28.219705
 20
8.664831
 30
0.0
 10
28.237574
 20
8.674662
 30
0.0
 10
28.248842
 20
8.693279
 30
0.0
 10
28.249263
 20
8.713670
 30
0.0
  0
SPLINE
  5
298
100
AcDbEntity
  8
Layer_1
 62
7
100
AcDbSpline
 70
8
 71
3
 72
8
 73
4
 74
0
 40
0
 40
0
 40
0
 40
0
 40
1
 40
1
 40
1
 40
1
 10
28.249263
 20
8.713670
 30
0.0
 10
28.249685
 20
8.734061
 30
0.0
 10
28.239195
 20
8.753128
 30
0.0
 10
28.221747
 20
8.763688
 30
0.0
  0
LWPOLYLINE
  5
299
100
AcDbEntity
  8
Layer_1
 62
7
100
AcDbPolyline
 90
1
 70
1
 10
19.907270
 20
9.930211
 30
0.0
  0
LWPOLYLINE
  5
29a
100
AcDbEntity
  8
Layer_1
 62
7
100
AcDbPolyline
 90
1
 70
1
 10
28.221747
 20
8.763688
 30
0.0
  0
SPLINE
  5
29b
100
AcDbEntity
  8
Layer_1
 62
7
100
AcDbSpline
 70
8
 71
3
 72
8
 73
4
 74
0
 40
0
 40
0
 40
0
 40
0
 40
1
 40
1
 40
1
 40
1
 10
29.582081
 20
4.928417
 30
0.0
 10
29.603272
 20
4.963430
 30
0.0
 10
29.611000
 20
4.977085
 30
0.0
 10
29.720768
 20
5.168642
 30
0.0
  0
SPLINE
  5
29c
100
AcDbEntity
  8
Layer_1
 62
7
100
AcDbSpline
 70
8
 71
3
 72
8
 73
4
 74
0
 40
0
 40
0
 40
0
 40
0
 40
1
 40
1
 40
1
 40
1
 10
29.720768
 20
5.168642
 30
0.0
 10
29.720768
 20
5.168642
 30
0.0
 10
29.802983
 20
5.351427
 30
0.0
 10
29.996888
 20
5.919459
 30
0.0
  0
SPLINE
  5
29d
100
AcDbEntity
  8
Layer_1
 62
7
100
AcDbSpline
 70
8
 71
3
 72
8
 73
4
 74
0
 40
0
 40
0
 40
0
 40
0
 40
1
 40
1
 40
1
 40
1
 10
29.996888
 20
5.919459
 30
0.0
 10
29.996888
 20
5.919459
 30
0.0
 10
30.050596
 20
6.317224
 30
0.0
 10
30.008072
 20
7.116880
 30
0.0
  0
SPLINE
  5
29e
100
AcDbEntity
  8
Layer_1
 62
7
100
AcDbSpline
 70
8
 71
3
 72
8
 73
4
 74
0
 40
0
 40
0
 40
0
 40
0
 40
1
 40
1
 40
1
 40
1
 10
30.008072
 20
7.116880
 30
0.0
 10
30.008072
 20
7.116880
 30
0.0
 10
29.906908
 20
7.510513
 30
0.0
 10
29.559303
 20
8.245757
 30
0.0
  0
SPLINE
  5
29f
100
AcDbEntity
  8
Layer_1
 62
7
100
AcDbSpline
 70
8
 71
3
 72
8
 73
4
 74
0
 40
0
 40
0
 40
0
 40
0
 40
1
 40
1
 40
1
 40
1
 10
29.559303
 20
8.245757
 30
0.0
 10
29.559303
 20
8.245757
 30
0.0
 10
29.310606
 20
8.576891
 30
0.0
 10
29.009291
 20
8.848587
 30
0.0
  0
SPLINE
  5
2a0
100
AcDbEntity
  8
Layer_1
 62
7
100
AcDbSpline
 70
8
 71
3
 72
8
 73
4
 74
0
 40
0
 40
0
 40
0
 40
0
 40
1
 40
1
 40
1
 40
1
 10
29.009291
 20
8.848587
 30
0.0
 10
28.711211
 20
9.117365
 30
0.0
 10
28.364172
 20
9.325756
 30
0.0
 10
27.987040
 20
9.463478
 30
0.0
  0
SPLINE
  5
2a1
100
AcDbEntity
  8
Layer_1
 62
7
100
AcDbSpline
 70
8
 71
3
 72
8
 73
4
 74
0
 40
0
 40
0
 40
0
 40
0
 40
1
 40
1
 40
1
 40
1
 10
27.987040
 20
9.463478
 30
0.0
 10
27.962910
 20
9.472290
 30
0.0
 10
27.941394
 20
9.480199
 30
0.0
 10
27.892277
 20
9.496386
 30
0.0
  0
SPLINE
  5
2a2
100
AcDbEntity
  8
Layer_1
 62
7
100
AcDbSpline
 70
8
 71
3
 72
8
 73
4
 74
0
 40
0
 40
0
 40
0
 40
0
 40
1
 40
1
 40
1
 40
1
 10
27.892277
 20
9.496386
 30
0.0
 10
27.857352
 20
9.507895
 30
0.0
 10
27.808597
 20
9.523962
 30
0.0
 10
27.735234
 20
9.548143
 30
0.0
  0
SPLINE
  5
2a3
100
AcDbEntity
  8
Layer_1
 62
7
100
AcDbSpline
 70
8
 71
3
 72
8
 73
4
 74
0
 40
0
 40
0
 40
0
 40
0
 40
1
 40
1
 40
1
 40
1
 10
27.735234
 20
9.548143
 30
0.0
 10
27.701590
 20
9.559232
 30
0.0
 10
27.662771
 20
9.572027
 30
0.0
 10
27.617737
 20
9.586873
 30
0.0
  0
SPLINE
  5
2a4
100
AcDbEntity
  8
Layer_1
 62
7
100
AcDbSpline
 70
8
 71
3
 72
8
 73
4
 74
0
 40
0
 40
0
 40
0
 40
0
 40
1
 40
1
 40
1
 40
1
 10
27.617737
 20
9.586873
 30
0.0
 10
27.091818
 20
9.760249
 30
0.0
 10
26.589633
 20
9.926058
 30
0.0
 10
26.086389
 20
10.093104
 30
0.0
  0
SPLINE
  5
2a5
100
AcDbEntity
  8
Layer_1
 62
7
100
AcDbSpline
 70
8
 71
3
 72
8
 73
4
 74
0
 40
0
 40
0
 40
0
 40
0
 40
1
 40
1
 40
1
 40
1
 10
26.086389
 20
10.093104
 30
0.0
 10
25.100782
 20
10.420266
 30
0.0
 10
24.015970
 20
10.783896
 30
0.0
 10
23.049447
 20
11.118784
 30
0.0
  0
SPLINE
  5
2a6
100
AcDbEntity
  8
Layer_1
 62
7
100
AcDbSpline
 70
8
 71
3
 72
8
 73
4
 74
0
 40
0
 40
0
 40
0
 40
0
 40
1
 40
1
 40
1
 40
1
 10
23.049447
 20
11.118784
 30
0.0
 10
22.791789
 20
11.208060
 30
0.0
 10
22.642808
 20
11.260376
 30
0.0
 10
22.539225
 20
11.296778
 30
0.0
  0
SPLINE
  5
2a7
100
AcDbEntity
  8
Layer_1
 62
7
100
AcDbSpline
 70
8
 71
3
 72
8
 73
4
 74
0
 40
0
 40
0
 40
0
 40
0
 40
1
 40
1
 40
1
 40
1
 10
22.539225
 20
11.296778
 30
0.0
 10
22.412127
 20
11.341444
 30
0.0
 10
22.352055
 20
11.358351
 30
0.0
 10
22.241825
 20
11.385576
 30
0.0
  0
SPLINE
  5
2a8
100
AcDbEntity
  8
Layer_1
 62
7
100
AcDbSpline
 70
8
 71
3
 72
8
 73
4
 74
0
 40
0
 40
0
 40
0
 40
0
 40
1
 40
1
 40
1
 40
1
 10
22.241825
 20
11.385576
 30
0.0
 10
21.854872
 20
11.481143
 30
0.0
 10
21.458990
 20
11.502677
 30
0.0
 10
21.073078
 20
11.451667
 30
0.0
  0
SPLINE
  5
2a9
100
AcDbEntity
  8
Layer_1
 62
7
100
AcDbSpline
 70
8
 71
3
 72
8
 73
4
 74
0
 40
0
 40
0
 40
0
 40
0
 40
1
 40
1
 40
1
 40
1
 10
21.073078
 20
11.451667
 30
0.0
 10
20.674131
 20
11.398935
 30
0.0
 10
20.294658
 20
11.269878
 30
0.0
 10
19.952940
 20
11.075390
 30
0.0
  0
SPLINE
  5
2aa
100
AcDbEntity
  8
Layer_1
 62
7
100
AcDbSpline
 70
8
 71
3
 72
8
 73
4
 74
0
 40
0
 40
0
 40
0
 40
0
 40
1
 40
1
 40
1
 40
1
 10
19.952940
 20
11.075390
 30
0.0
 10
19.592099
 20
10.870018
 30
0.0
 10
19.281383
 20
10.596376
 30
0.0
 10
19.034150
 20
10.274520
 30
0.0
  0
SPLINE
  5
2ab
100
AcDbEntity
  8
Layer_1
 62
7
100
AcDbSpline
 70
8
 71
3
 72
8
 73
4
 74
0
 40
0
 40
0
 40
0
 40
0
 40
1
 40
1
 40
1
 40
1
 10
19.034150
 20
10.274520
 30
0.0
 10
18.950286
 20
10.165343
 30
0.0
 10
18.899495
 20
10.088787
 30
0.0
 10
18.839959
 20
9.990417
 30
0.0
  0
LWPOLYLINE
  5
2ac
100
AcDbEntity
  8
Layer_1
 62
7
100
AcDbPolyline
 90
2
 70
0
 10
28.074272
 20
5.841041
 30
0.0
 10
29.582117
 20
4.928454
 30
0.0
  0
SPLINE
  5
2ad
100
AcDbEntity
  8
Layer_1
 62
7
100
AcDbSpline
 70
8
 71
3
 72
8
 73
4
 74
0
 40
0
 40
0
 40
0
 40
0
 40
1
 40
1
 40
1
 40
1
 10
20.539352
 20
8.537699
 30
0.0
 10
19.712822
 20
8.615101
 30
0.0
 10
18.914794
 20
8.213154
 30
0.0
 10
18.484962
 20
7.502952
 30
0.0
  0
LWPOLYLINE
  5
2ae
100
AcDbEntity
  8
Layer_1
 62
7
100
AcDbPolyline
 90
3
 70
0
 10
18.839979
 20
9.990440
 30
0.0
 10
17.642936
 20
8.012597
 30
0.0
 10
18.484976
 20
7.502972
 30
0.0
  0
SPLINE
  5
2af
100
AcDbEntity
  8
Layer_1
 62
7
100
AcDbSpline
 70
8
 71
3
 72
8
 73
4
 74
0
 40
0
 40
0
 40
0
 40
0
 40
1
 40
1
 40
1
 40
1
 10
28.116297
 20
5.935579
 30
0.0
 10
28.322771
 20
6.342390
 30
0.0
 10
28.314513
 20
6.825024
 30
0.0
 10
28.094243
 20
7.224533
 30
0.0
  0
SPLINE
  5
2b0
100
AcDbEntity
  8
Layer_1
 62
7
100
AcDbSpline
 70
8
 71
3
 72
8
 73
4
 74
0
 40
0
 40
0
 40
0
 40
0
 40
1
 40
1
 40
1
 40
1
 10
28.094243
 20
7.224533
 30
0.0
 10
27.873973
 20
7.624043
 30
0.0
 10
27.470248
 20
7.888636
 30
0.0
 10
27.016026
 20
7.931172
 30
0.0
  0
LWPOLYLINE
  5
2b1
100
AcDbEntity
  8
Layer_1
 62
7
100
AcDbPolyline
 90
2
 70
0
 10
20.539360
 20
8.537720
 30
0.0
 10
27.016002
 20
7.931200
 30
0.0
  0
SPLINE
  5
2b2
100
AcDbEntity
  8
Layer_1
 62
7
100
AcDbSpline
 70
8
 71
3
 72
8
 73
4
 74
0
 40
0
 40
0
 40
0
 40
0
 40
1
 40
1
 40
1
 40
1
 10
29.232132
 20
6.429615
 30
0.0
 10
29.171214
 20
6.466484
 30
0.0
 10
29.095253
 20
6.468053
 30
0.0
 10
29.032863
 20
6.433731
 30
0.0
  0
SPLINE
  5
2b3
100
AcDbEntity
  8
Layer_1
 62
7
100
AcDbSpline
 70
8
 71
3
 72
8
 73
4
 74
0
 40
0
 40
0
 40
0
 40
0
 40
1
 40
1
 40
1
 40
1
 10
29.032863
 20
6.433731
 30
0.0
 10
28.970474
 20
6.399409
 30
0.0
 10
28.931134
 20
6.334409
 30
0.0
 10
28.929664
 20
6.263217
 30
0.0
  0
SPLINE
  5
2b4
100
AcDbEntity
  8
Layer_1
 62
7
100
AcDbSpline
 70
8
 71
3
 72
8
 73
4
 74
0
 40
0
 40
0
 40
0
 40
0
 40
1
 40
1
 40
1
 40
1
 10
28.929664
 20
6.263217
 30
0.0
 10
28.928193
 20
6.192025
 30
0.0
 10
28.964815
 20
6.125456
 30
0.0
 10
29.025733
 20
6.088587
 30
0.0
  0
SPLINE
  5
2b5
100
AcDbEntity
  8
Layer_1
 62
7
100
AcDbSpline
 70
8
 71
3
 72
8
 73
4
 74
0
 40
0
 40
0
 40
0
 40
0
 40
1
 40
1
 40
1
 40
1
 10
29.025733
 20
6.088587
 30
0.0
 10
29.086652
 20
6.051717
 30
0.0
 10
29.162613
 20
6.050148
 30
0.0
 10
29.225003
 20
6.084470
 30
0.0
  0
SPLINE
  5
2b6
100
AcDbEntity
  8
Layer_1
 62
7
100
AcDbSpline
 70
8
 71
3
 72
8
 73
4
 74
0
 40
0
 40
0
 40
0
 40
0
 40
1
 40
1
 40
1
 40
1
 10
29.225003
 20
6.084470
 30
0.0
 10
29.287392
 20
6.118793
 30
0.0
 10
29.326731
 20
6.183792
 30
0.0
 10
29.328202
 20
6.254984
 30
0.0
  0
SPLINE
  5
2b7
100
AcDbEntity
  8
Layer_1
 62
7
100
AcDbSpline
 70
8
 71
3
 72
8
 73
4
 74
0
 40
0
 40
0
 40
0
 40
0
 40
1
 40
1
 40
1
 40
1
 10
29.328202
 20
6.254984
 30
0.0
 10
29.329673
 20
6.326176
 30
0.0
 10
29.293051
 20
6.392745
 30
0.0
 10
29.232132
 20
6.429615
 30
0.0
  0
LWPOLYLINE
  5
2b8
100
AcDbEntity
  8
Layer_1
 62
7
100
AcDbPolyline
 90
2
 70
0
 10
28.116259
 20
5.935563
 30
0.0
 10
28.074272
 20
5.841041
 30
0.0
  0
SPLINE
  5
2b9
100
AcDbEntity
  8
Layer_1
 62
7
100
AcDbSpline
 70
8
 71
3
 72
8
 73
4
 74
0
 40
0
 40
0
 40
0
 40
0
 40
1
 40
1
 40
1
 40
1
 10
18.607192
 20
8.548769
 30
0.0
 10
18.546273
 20
8.585638
 30
0.0
 10
18.470312
 20
8.587207
 30
0.0
 10
18.407923
 20
8.552885
 30
0.0
  0
SPLINE
  5
2ba
100
AcDbEntity
  8
Layer_1
 62
7
100
AcDbSpline
 70
8
 71
3
 72
8
 73
4
 74
0
 40
0
 40
0
 40
0
 40
0
 40
1
 40
1
 40
1
 40
1
 10
18.407923
 20
8.552885
 30
0.0
 10
18.345533
 20
8.518563
 30
0.0
 10
18.306194
 20
8.453563
 30
0.0
 10
18.304723
 20
8.382371
 30
0.0
  0
SPLINE
  5
2bb
100
AcDbEntity
  8
Layer_1
 62
7
100
AcDbSpline
 70
8
 71
3
 72
8
 73
4
 74
0
 40
0
 40
0
 40
0
 40
0
 40
1
 40
1
 40
1
 40
1
 10
18.304723
 20
8.382371
 30
0.0
 10
18.303253
 20
8.311179
 30
0.0
 10
18.339874
 20
8.244610
 30
0.0
 10
18.400793
 20
8.207741
 30
0.0
  0
SPLINE
  5
2bc
100
AcDbEntity
  8
Layer_1
 62
7
100
AcDbSpline
 70
8
 71
3
 72
8
 73
4
 74
0
 40
0
 40
0
 40
0
 40
0
 40
1
 40
1
 40
1
 40
1
 10
18.400793
 20
8.207741
 30
0.0
 10
18.461712
 20
8.170871
 30
0.0
 10
18.537673
 20
8.169302
 30
0.0
 10
18.600062
 20
8.203624
 30
0.0
  0
SPLINE
  5
2bd
100
AcDbEntity
  8
Layer_1
 62
7
100
AcDbSpline
 70
8
 71
3
 72
8
 73
4
 74
0
 40
0
 40
0
 40
0
 40
0
 40
1
 40
1
 40
1
 40
1
 10
18.600062
 20
8.203624
 30
0.0
 10
18.662452
 20
8.237947
 30
0.0
 10
18.701791
 20
8.302946
 30
0.0
 10
18.703262
 20
8.374138
 30
0.0
  0
SPLINE
  5
2be
100
AcDbEntity
  8
Layer_1
 62
7
100
AcDbSpline
 70
8
 71
3
 72
8
 73
4
 74
0
 40
0
 40
0
 40
0
 40
0
 40
1
 40
1
 40
1
 40
1
 10
18.703262
 20
8.374138
 30
0.0
 10
18.704732
 20
8.445330
 30
0.0
 10
18.668111
 20
8.511899
 30
0.0
 10
18.607192
 20
8.548769
 30
0.0
  0
LWPOLYLINE
  5
2bf
100
AcDbEntity
  8
Layer_1
 62
7
100
AcDbPolyline
 90
1
 70
1
 10
29.232132
 20
6.429615
 30
0.0
  0
SPLINE
  5
2c0
100
AcDbEntity
  8
Layer_1
 62
7
100
AcDbSpline
 70
8
 71
3
 72
8
 73
4
 74
0
 40
0
 40
0
 40
0
 40
0
 40
1
 40
1
 40
1
 40
1
 10
6.327953
 20
8.675168
 30
0.0
 10
6.307617
 20
8.673613
 30
0.0
 10
6.289656
 20
8.661326
 30
0.0
 10
6.280835
 20
8.642937
 30
0.0
  0
SPLINE
  5
2c1
100
AcDbEntity
  8
Layer_1
 62
7
100
AcDbSpline
 70
8
 71
3
 72
8
 73
4
 74
0
 40
0
 40
0
 40
0
 40
0
 40
1
 40
1
 40
1
 40
1
 10
6.280835
 20
8.642937
 30
0.0
 10
6.272014
 20
8.624548
 30
0.0
 10
6.273674
 20
8.602850
 30
0.0
 10
6.285189
 20
8.586016
 30
0.0
  0
SPLINE
  5
2c2
100
AcDbEntity
  8
Layer_1
 62
7
100
AcDbSpline
 70
8
 71
3
 72
8
 73
4
 74
0
 40
0
 40
0
 40
0
 40
0
 40
1
 40
1
 40
1
 40
1
 10
6.285189
 20
8.586016
 30
0.0
 10
6.296705
 20
8.569183
 30
0.0
 10
6.316326
 20
8.559771
 30
0.0
 10
6.336661
 20
8.561327
 30
0.0
  0
SPLINE
  5
2c3
100
AcDbEntity
  8
Layer_1
 62
7
100
AcDbSpline
 70
8
 71
3
 72
8
 73
4
 74
0
 40
0
 40
0
 40
0
 40
0
 40
1
 40
1
 40
1
 40
1
 10
6.336661
 20
8.561327
 30
0.0
 10
6.356997
 20
8.562882
 30
0.0
 10
6.374958
 20
8.575169
 30
0.0
 10
6.383779
 20
8.593558
 30
0.0
  0
SPLINE
  5
2c4
100
AcDbEntity
  8
Layer_1
 62
7
100
AcDbSpline
 70
8
 71
3
 72
8
 73
4
 74
0
 40
0
 40
0
 40
0
 40
0
 40
1
 40
1
 40
1
 40
1
 10
6.383779
 20
8.593558
 30
0.0
 10
6.392600
 20
8.611947
 30
0.0
 10
6.390940
 20
8.633645
 30
0.0
 10
6.379425
 20
8.650479
 30
0.0
  0
SPLINE
  5
2c5
100
AcDbEntity
  8
Layer_1
 62
7
100
AcDbSpline
 70
8
 71
3
 72
8
 73
4
 74
0
 40
0
 40
0
 40
0
 40
0
 40
1
 40
1
 40
1
 40
1
 10
6.379425
 20
8.650479
 30
0.0
 10
6.367909
 20
8.667312
 30
0.0
 10
6.348288
 20
8.676724
 30
0.0
 10
6.327953
 20
8.675168
 30
0.0
  0
LWPOLYLINE
  5
2c6
100
AcDbEntity
  8
Layer_1
 62
7
100
AcDbPolyline
 90
1
 70
1
 10
18.607192
 20
8.548769
 30
0.0
  0
LWPOLYLINE
  5
2c7
100
AcDbEntity
  8
Layer_1
 62
7
100
AcDbPolyline
 90
1
 70
1
 10
6.327953
 20
8.675168
 30
0.0
  0
SPLINE
  5
2c8
100
AcDbEntity
  8
Layer_1
 62
7
100
AcDbSpline
 70
8
 71
3
 72
8
 73
4
 74
0
 40
0
 40
0
 40
0
 40
0
 40
1
 40
1
 40
1
 40
1
 10
5.367116
 20
8.855613
 30
0.0
 10
5.367736
 20
8.847514
 30
0.0
 10
5.368382
 20
8.839475
 30
0.0
 10
5.369055
 20
8.831495
 30
0.0
  0
SPLINE
  5
2c9
100
AcDbEntity
  8
Layer_1
 62
7
100
AcDbSpline
 70
8
 71
3
 72
8
 73
4
 74
0
 40
0
 40
0
 40
0
 40
0
 40
1
 40
1
 40
1
 40
1
 10
5.369055
 20
8.831495
 30
0.0
 10
5.383373
 20
8.661680
 30
0.0
 10
5.409540
 20
8.512765
 30
0.0
 10
5.441003
 20
8.379419
 30
0.0
  0
SPLINE
  5
2ca
100
AcDbEntity
  8
Layer_1
 62
7
100
AcDbSpline
 70
8
 71
3
 72
8
 73
4
 74
0
 40
0
 40
0
 40
0
 40
0
 40
1
 40
1
 40
1
 40
1
 10
5.441003
 20
8.379419
 30
0.0
 10
5.540158
 20
7.959192
 30
0.0
 10
5.715132
 20
7.602585
 30
0.0
 10
5.925895
 20
7.305497
 30
0.0
  0
SPLINE
  5
2cb
100
AcDbEntity
  8
Layer_1
 62
7
100
AcDbSpline
 70
8
 71
3
 72
8
 73
4
 74
0
 40
0
 40
0
 40
0
 40
0
 40
1
 40
1
 40
1
 40
1
 10
5.925895
 20
7.305497
 30
0.0
 10
6.184342
 20
6.941194
 30
0.0
 10
6.493782
 20
6.669616
 30
0.0
 10
6.814936
 20
6.470372
 30
0.0
  0
SPLINE
  5
2cc
100
AcDbEntity
  8
Layer_1
 62
7
100
AcDbSpline
 70
8
 71
3
 72
8
 73
4
 74
0
 40
0
 40
0
 40
0
 40
0
 40
1
 40
1
 40
1
 40
1
 10
6.814936
 20
6.470372
 30
0.0
 10
7.200406
 20
6.231225
 30
0.0
 10
7.597347
 20
6.098987
 30
0.0
 10
7.977357
 20
6.037513
 30
0.0
  0
SPLINE
  5
2cd
100
AcDbEntity
  8
Layer_1
 62
7
100
AcDbSpline
 70
8
 71
3
 72
8
 73
4
 74
0
 40
0
 40
0
 40
0
 40
0
 40
1
 40
1
 40
1
 40
1
 10
7.977357
 20
6.037513
 30
0.0
 10
8.040091
 20
6.027365
 30
0.0
 10
8.081932
 20
6.021570
 30
0.0
 10
8.152156
 20
6.014088
 30
0.0
  0
SPLINE
  5
2ce
100
AcDbEntity
  8
Layer_1
 62
7
100
AcDbSpline
 70
8
 71
3
 72
8
 73
4
 74
0
 40
0
 40
0
 40
0
 40
0
 40
1
 40
1
 40
1
 40
1
 10
8.152156
 20
6.014088
 30
0.0
 10
8.249997
 20
6.003666
 30
0.0
 10
8.402672
 20
5.987562
 30
0.0
 10
8.743471
 20
5.949548
 30
0.0
  0
SPLINE
  5
2cf
100
AcDbEntity
  8
Layer_1
 62
7
100
AcDbSpline
 70
8
 71
3
 72
8
 73
4
 74
0
 40
0
 40
0
 40
0
 40
0
 40
1
 40
1
 40
1
 40
1
 10
8.743471
 20
5.949548
 30
0.0
 10
9.496249
 20
5.865582
 30
0.0
 10
10.201064
 20
5.781085
 30
0.0
 10
10.815534
 20
5.706030
 30
0.0
  0
SPLINE
  5
2d0
100
AcDbEntity
  8
Layer_1
 62
7
100
AcDbSpline
 70
8
 71
3
 72
8
 73
4
 74
0
 40
0
 40
0
 40
0
 40
0
 40
1
 40
1
 40
1
 40
1
 10
10.815534
 20
5.706030
 30
0.0
 10
11.849974
 20
5.579679
 30
0.0
 10
12.734881
 20
5.466967
 30
0.0
 10
13.642337
 20
5.351388
 30
0.0
  0
LWPOLYLINE
  5
2d1
100
AcDbEntity
  8
Layer_1
 62
7
100
AcDbPolyline
 90
3
 70
0
 10
6.161964
 20
11.369155
 30
0.0
 10
5.180579
 20
11.294080
 30
0.0
 10
5.367124
 20
8.855575
 30
0.0
  0
SPLINE
  5
2d2
100
AcDbEntity
  8
Layer_1
 62
7
100
AcDbSpline
 70
8
 71
3
 72
8
 73
4
 74
0
 40
0
 40
0
 40
0
 40
0
 40
1
 40
1
 40
1
 40
1
 10
13.731649
 20
5.340012
 30
0.0
 10
13.870411
 20
5.322335
 30
0.0
 10
14.030780
 20
5.308919
 30
0.0
 10
14.245837
 20
5.316894
 30
0.0
  0
SPLINE
  5
2d3
100
AcDbEntity
  8
Layer_1
 62
7
100
AcDbSpline
 70
8
 71
3
 72
8
 73
4
 74
0
 40
0
 40
0
 40
0
 40
0
 40
1
 40
1
 40
1
 40
1
 10
14.245837
 20
5.316894
 30
0.0
 10
14.682838
 20
5.333098
 30
0.0
 10
15.066736
 20
5.436490
 30
0.0
 10
15.396926
 20
5.583412
 30
0.0
  0
SPLINE
  5
2d4
100
AcDbEntity
  8
Layer_1
 62
7
100
AcDbSpline
 70
8
 71
3
 72
8
 73
4
 74
0
 40
0
 40
0
 40
0
 40
0
 40
1
 40
1
 40
1
 40
1
 10
15.396926
 20
5.583412
 30
0.0
 10
15.800841
 20
5.763141
 30
0.0
 10
16.121222
 20
6.006346
 30
0.0
 10
16.374031
 20
6.270222
 30
0.0
  0
SPLINE
  5
2d5
100
AcDbEntity
  8
Layer_1
 62
7
100
AcDbSpline
 70
8
 71
3
 72
8
 73
4
 74
0
 40
0
 40
0
 40
0
 40
0
 40
1
 40
1
 40
1
 40
1
 10
16.374031
 20
6.270222
 30
0.0
 10
16.679104
 20
6.588650
 30
0.0
 10
16.889385
 20
6.941823
 30
0.0
 10
17.026486
 20
7.296022
 30
0.0
  0
SPLINE
  5
2d6
100
AcDbEntity
  8
Layer_1
 62
7
100
AcDbSpline
 70
8
 71
3
 72
8
 73
4
 74
0
 40
0
 40
0
 40
0
 40
0
 40
1
 40
1
 40
1
 40
1
 10
17.026486
 20
7.296022
 30
0.0
 10
17.187140
 20
7.711068
 30
0.0
 10
17.245704
 20
8.122165
 30
0.0
 10
17.235521
 20
8.505872
 30
0.0
  0
SPLINE
  5
2d7
100
AcDbEntity
  8
Layer_1
 62
7
100
AcDbSpline
 70
8
 71
3
 72
8
 73
4
 74
0
 40
0
 40
0
 40
0
 40
0
 40
1
 40
1
 40
1
 40
1
 10
17.235521
 20
8.505872
 30
0.0
 10
17.234262
 20
8.553333
 30
0.0
 10
17.232967
 20
8.590316
 30
0.0
 10
17.227481
 20
8.662021
 30
0.0
  0
LWPOLYLINE
  5
2d8
100
AcDbEntity
  8
Layer_1
 62
7
100
AcDbPolyline
 90
2
 70
0
 10
13.642381
 20
5.351360
 30
0.0
 10
13.731632
 20
5.340010
 30
0.0
  0
SPLINE
  5
2d9
100
AcDbEntity
  8
Layer_1
 62
7
100
AcDbSpline
 70
8
 71
3
 72
8
 73
4
 74
0
 40
0
 40
0
 40
0
 40
0
 40
1
 40
1
 40
1
 40
1
 10
13.582944
 20
7.139342
 30
0.0
 10
14.007530
 20
6.972445
 30
0.0
 10
14.487197
 20
7.026512
 30
0.0
 10
14.863977
 20
7.283737
 30
0.0
  0
SPLINE
  5
2da
100
AcDbEntity
  8
Layer_1
 62
7
100
AcDbSpline
 70
8
 71
3
 72
8
 73
4
 74
0
 40
0
 40
0
 40
0
 40
0
 40
1
 40
1
 40
1
 40
1
 10
14.863977
 20
7.283737
 30
0.0
 10
15.240757
 20
7.540961
 30
0.0
 10
15.465802
 20
7.967996
 30
0.0
 10
15.464999
 20
8.424205
 30
0.0
  0
LWPOLYLINE
  5
2db
100
AcDbEntity
  8
Layer_1
 62
7
100
AcDbPolyline
 90
3
 70
0
 10
17.227497
 20
8.661972
 30
0.0
 10
15.470129
 20
8.527534
 30
0.0
 10
15.464972
 20
8.424235
 30
0.0
  0
SPLINE
  5
2dc
100
AcDbEntity
  8
Layer_1
 62
7
100
AcDbSpline
 70
8
 71
3
 72
8
 73
4
 74
0
 40
0
 40
0
 40
0
 40
0
 40
1
 40
1
 40
1
 40
1
 10
6.161959
 20
11.369179
 30
0.0
 10
6.225280
 20
10.541450
 30
0.0
 10
6.756249
 20
9.822783
 30
0.0
 10
7.528851
 20
9.519088
 30
0.0
  0
SPLINE
  5
2dd
100
AcDbEntity
  8
Layer_1
 62
7
100
AcDbSpline
 70
8
 71
3
 72
8
 73
4
 74
0
 40
0
 40
0
 40
0
 40
0
 40
1
 40
1
 40
1
 40
1
 10
16.207677
 20
7.877471
 30
0.0
 10
16.136677
 20
7.872040
 30
0.0
 10
16.073968
 20
7.829143
 30
0.0
 10
16.043172
 20
7.764940
 30
0.0
  0
SPLINE
  5
2de
100
AcDbEntity
  8
Layer_1
 62
7
100
AcDbSpline
 70
8
 71
3
 72
8
 73
4
 74
0
 40
0
 40
0
 40
0
 40
0
 40
1
 40
1
 40
1
 40
1
 10
16.043172
 20
7.764940
 30
0.0
 10
16.012376
 20
7.700736
 30
0.0
 10
16.018171
 20
7.624981
 30
0.0
 10
16.058375
 20
7.566209
 30
0.0
  0
SPLINE
  5
2df
100
AcDbEntity
  8
Layer_1
 62
7
100
AcDbSpline
 70
8
 71
3
 72
8
 73
4
 74
0
 40
0
 40
0
 40
0
 40
0
 40
1
 40
1
 40
1
 40
1
 10
16.058375
 20
7.566209
 30
0.0
 10
16.098579
 20
7.507437
 30
0.0
 10
16.167083
 20
7.474578
 30
0.0
 10
16.238083
 20
7.480009
 30
0.0
  0
SPLINE
  5
2e0
100
AcDbEntity
  8
Layer_1
 62
7
100
AcDbSpline
 70
8
 71
3
 72
8
 73
4
 74
0
 40
0
 40
0
 40
0
 40
0
 40
1
 40
1
 40
1
 40
1
 10
16.238083
 20
7.480009
 30
0.0
 10
16.309083
 20
7.485441
 30
0.0
 10
16.371792
 20
7.528337
 30
0.0
 10
16.402588
 20
7.592541
 30
0.0
  0
SPLINE
  5
2e1
100
AcDbEntity
  8
Layer_1
 62
7
100
AcDbSpline
 70
8
 71
3
 72
8
 73
4
 74
0
 40
0
 40
0
 40
0
 40
0
 40
1
 40
1
 40
1
 40
1
 10
16.402588
 20
7.592541
 30
0.0
 10
16.433384
 20
7.656744
 30
0.0
 10
16.427588
 20
7.732500
 30
0.0
 10
16.387385
 20
7.791272
 30
0.0
  0
SPLINE
  5
2e2
100
AcDbEntity
  8
Layer_1
 62
7
100
AcDbSpline
 70
8
 71
3
 72
8
 73
4
 74
0
 40
0
 40
0
 40
0
 40
0
 40
1
 40
1
 40
1
 40
1
 10
16.387385
 20
7.791272
 30
0.0
 10
16.347181
 20
7.850044
 30
0.0
 10
16.278677
 20
7.882903
 30
0.0
 10
16.207677
 20
7.877471
 30
0.0
  0
LWPOLYLINE
  5
2e3
100
AcDbEntity
  8
Layer_1
 62
7
100
AcDbPolyline
 90
2
 70
0
 10
13.582911
 20
7.139328
 30
0.0
 10
7.528848
 20
9.519065
 30
0.0
  0
SPLINE
  5
2e4
100
AcDbEntity
  8
Layer_1
 62
7
100
AcDbSpline
 70
8
 71
3
 72
8
 73
4
 74
0
 40
0
 40
0
 40
0
 40
0
 40
1
 40
1
 40
1
 40
1
 10
5.768967
 20
10.778105
 30
0.0
 10
5.697967
 20
10.772673
 30
0.0
 10
5.635258
 20
10.729777
 30
0.0
 10
5.604462
 20
10.665573
 30
0.0
  0
SPLINE
  5
2e5
100
AcDbEntity
  8
Layer_1
 62
7
100
AcDbSpline
 70
8
 71
3
 72
8
 73
4
 74
0
 40
0
 40
0
 40
0
 40
0
 40
1
 40
1
 40
1
 40
1
 10
5.604462
 20
10.665573
 30
0.0
 10
5.573666
 20
10.601370
 30
0.0
 10
5.579461
 20
10.525614
 30
0.0
 10
5.619665
 20
10.466842
 30
0.0
  0
SPLINE
  5
2e6
100
AcDbEntity
  8
Layer_1
 62
7
100
AcDbSpline
 70
8
 71
3
 72
8
 73
4
 74
0
 40
0
 40
0
 40
0
 40
0
 40
1
 40
1
 40
1
 40
1
 10
5.619665
 20
10.466842
 30
0.0
 10
5.659868
 20
10.408070
 30
0.0
 10
5.728373
 20
10.375211
 30
0.0
 10
5.799372
 20
10.380642
 30
0.0
  0
SPLINE
  5
2e7
100
AcDbEntity
  8
Layer_1
 62
7
100
AcDbSpline
 70
8
 71
3
 72
8
 73
4
 74
0
 40
0
 40
0
 40
0
 40
0
 40
1
 40
1
 40
1
 40
1
 10
5.799372
 20
10.380642
 30
0.0
 10
5.870372
 20
10.386074
 30
0.0
 10
5.933081
 20
10.428971
 30
0.0
 10
5.963877
 20
10.493174
 30
0.0
  0
SPLINE
  5
2e8
100
AcDbEntity
  8
Layer_1
 62
7
100
AcDbSpline
 70
8
 71
3
 72
8
 73
4
 74
0
 40
0
 40
0
 40
0
 40
0
 40
1
 40
1
 40
1
 40
1
 10
5.963877
 20
10.493174
 30
0.0
 10
5.994673
 20
10.557377
 30
0.0
 10
5.988878
 20
10.633133
 30
0.0
 10
5.948674
 20
10.691905
 30
0.0
  0
SPLINE
  5
2e9
100
AcDbEntity
  8
Layer_1
 62
7
100
AcDbSpline
 70
8
 71
3
 72
8
 73
4
 74
0
 40
0
 40
0
 40
0
 40
0
 40
1
 40
1
 40
1
 40
1
 10
5.948674
 20
10.691905
 30
0.0
 10
5.908471
 20
10.750677
 30
0.0
 10
5.839967
 20
10.783536
 30
0.0
 10
5.768967
 20
10.778105
 30
0.0
  0
LWPOLYLINE
  5
2ea
100
AcDbEntity
  8
Layer_1
 62
7
100
AcDbPolyline
 90
1
 70
1
 10
16.207677
 20
7.877471
 30
0.0
  0
LWPOLYLINE
  5
2eb
100
AcDbEntity
  8
Layer_1
 62
7
100
AcDbPolyline
 90
1
 70
1
 10
5.768967
 20
10.778105
 30
0.0
  0
SPLINE
  5
2ec
100
AcDbEntity
  8
Layer_1
 62
7
100
AcDbSpline
 70
8
 71
3
 72
8
 73
4
 74
0
 40
0
 40
0
 40
0
 40
0
 40
1
 40
1
 40
1
 40
1
 10
28.563475
 20
2.558367
 30
0.0
 10
28.472779
 20
2.558367
 30
0.0
 10
28.382172
 20
2.564065
 30
0.0
 10
28.292190
 20
2.575428
 30
0.0
  0
LWPOLYLINE
  5
2ed
100
AcDbEntity
  8
Layer_1
 62
7
100
AcDbPolyline
 90
3
 70
0
 10
35.650081
 20
1.574116
 30
0.0
 10
35.650081
 20
2.558367
 30
0.0
 10
28.563475
 20
2.558367
 30
0.0
  0
SPLINE
  5
2ee
100
AcDbEntity
  8
Layer_1
 62
7
100
AcDbSpline
 70
8
 71
3
 72
8
 73
4
 74
0
 40
0
 40
0
 40
0
 40
0
 40
1
 40
1
 40
1
 40
1
 10
25.864660
 20
2.204037
 30
0.0
 10
25.864586
 20
2.235512
 30
0.0
 10
25.839049
 20
2.260990
 30
0.0
 10
25.807574
 20
2.260990
 30
0.0
  0
SPLINE
  5
2ef
100
AcDbEntity
  8
Layer_1
 62
7
100
AcDbSpline
 70
8
 71
3
 72
8
 73
4
 74
0
 40
0
 40
0
 40
0
 40
0
 40
1
 40
1
 40
1
 40
1
 10
25.807574
 20
2.260990
 30
0.0
 10
25.776098
 20
2.260990
 30
0.0
 10
25.750561
 20
2.235512
 30
0.0
 10
25.750487
 20
2.204037
 30
0.0
  0
SPLINE
  5
2f0
100
AcDbEntity
  8
Layer_1
 62
7
100
AcDbSpline
 70
8
 71
3
 72
8
 73
4
 74
0
 40
0
 40
0
 40
0
 40
0
 40
1
 40
1
 40
1
 40
1
 10
25.750487
 20
2.204037
 30
0.0
 10
25.750561
 20
2.172561
 30
0.0
 10
25.776098
 20
2.147084
 30
0.0
 10
25.807574
 20
2.147084
 30
0.0
  0
SPLINE
  5
2f1
100
AcDbEntity
  8
Layer_1
 62
7
100
AcDbSpline
 70
8
 71
3
 72
8
 73
4
 74
0
 40
0
 40
0
 40
0
 40
0
 40
1
 40
1
 40
1
 40
1
 10
25.807574
 20
2.147084
 30
0.0
 10
25.839049
 20
2.147084
 30
0.0
 10
25.864586
 20
2.172561
 30
0.0
 10
25.864660
 20
2.204037
 30
0.0
  0
LWPOLYLINE
  5
2f2
100
AcDbEntity
  8
Layer_1
 62
7
100
AcDbPolyline
 90
4
 70
0
 10
28.292190
 20
2.575428
 30
0.0
 10
22.264271
 20
3.336632
 30
0.0
 10
22.264271
 20
1.574116
 30
0.0
 10
35.650081
 20
1.574116
 30
0.0
  0
SPLINE
  5
2f3
100
AcDbEntity
  8
Layer_1
 62
7
100
AcDbSpline
 70
8
 71
3
 72
8
 73
4
 74
0
 40
0
 40
0
 40
0
 40
0
 40
1
 40
1
 40
1
 40
1
 10
31.376464
 20
2.204037
 30
0.0
 10
31.376464
 20
2.224432
 30
0.0
 10
31.365583
 20
2.243277
 30
0.0
 10
31.347921
 20
2.253475
 30
0.0
  0
SPLINE
  5
2f4
100
AcDbEntity
  8
Layer_1
 62
7
100
AcDbSpline
 70
8
 71
3
 72
8
 73
4
 74
0
 40
0
 40
0
 40
0
 40
0
 40
1
 40
1
 40
1
 40
1
 10
31.347921
 20
2.253475
 30
0.0
 10
31.330258
 20
2.263672
 30
0.0
 10
31.308497
 20
2.263672
 30
0.0
 10
31.290834
 20
2.253475
 30
0.0
  0
SPLINE
  5
2f5
100
AcDbEntity
  8
Layer_1
 62
7
100
AcDbSpline
 70
8
 71
3
 72
8
 73
4
 74
0
 40
0
 40
0
 40
0
 40
0
 40
1
 40
1
 40
1
 40
1
 10
31.290834
 20
2.253475
 30
0.0
 10
31.273172
 20
2.243277
 30
0.0
 10
31.262291
 20
2.224432
 30
0.0
 10
31.262291
 20
2.204037
 30
0.0
  0
SPLINE
  5
2f6
100
AcDbEntity
  8
Layer_1
 62
7
100
AcDbSpline
 70
8
 71
3
 72
8
 73
4
 74
0
 40
0
 40
0
 40
0
 40
0
 40
1
 40
1
 40
1
 40
1
 10
31.262291
 20
2.204037
 30
0.0
 10
31.262291
 20
2.183641
 30
0.0
 10
31.273172
 20
2.164796
 30
0.0
 10
31.290834
 20
2.154598
 30
0.0
  0
SPLINE
  5
2f7
100
AcDbEntity
  8
Layer_1
 62
7
100
AcDbSpline
 70
8
 71
3
 72
8
 73
4
 74
0
 40
0
 40
0
 40
0
 40
0
 40
1
 40
1
 40
1
 40
1
 10
31.290834
 20
2.154598
 30
0.0
 10
31.308497
 20
2.144401
 30
0.0
 10
31.330258
 20
2.144401
 30
0.0
 10
31.347921
 20
2.154598
 30
0.0
  0
SPLINE
  5
2f8
100
AcDbEntity
  8
Layer_1
 62
7
100
AcDbSpline
 70
8
 71
3
 72
8
 73
4
 74
0
 40
0
 40
0
 40
0
 40
0
 40
1
 40
1
 40
1
 40
1
 10
31.347921
 20
2.154598
 30
0.0
 10
31.365583
 20
2.164796
 30
0.0
 10
31.376464
 20
2.183641
 30
0.0
 10
31.376464
 20
2.204037
 30
0.0
  0
LWPOLYLINE
  5
2f9
100
AcDbEntity
  8
Layer_1
 62
7
100
AcDbPolyline
 90
1
 70
1
 10
25.864660
 20
2.204037
 30
0.0
  0
SPLINE
  5
2fa
100
AcDbEntity
  8
Layer_1
 62
7
100
AcDbSpline
 70
8
 71
3
 72
8
 73
4
 74
0
 40
0
 40
0
 40
0
 40
0
 40
1
 40
1
 40
1
 40
1
 10
23.462543
 20
2.328785
 30
0.0
 10
23.462443
 20
2.438790
 30
0.0
 10
23.373238
 20
2.527914
 30
0.0
 10
23.263232
 20
2.527914
 30
0.0
  0
SPLINE
  5
2fb
100
AcDbEntity
  8
Layer_1
 62
7
100
AcDbSpline
 70
8
 71
3
 72
8
 73
4
 74
0
 40
0
 40
0
 40
0
 40
0
 40
1
 40
1
 40
1
 40
1
 10
23.263232
 20
2.527914
 30
0.0
 10
23.153227
 20
2.527914
 30
0.0
 10
23.064022
 20
2.438790
 30
0.0
 10
23.063922
 20
2.328785
 30
0.0
  0
SPLINE
  5
2fc
100
AcDbEntity
  8
Layer_1
 62
7
100
AcDbSpline
 70
8
 71
3
 72
8
 73
4
 74
0
 40
0
 40
0
 40
0
 40
0
 40
1
 40
1
 40
1
 40
1
 10
23.063922
 20
2.328785
 30
0.0
 10
23.064022
 20
2.218780
 30
0.0
 10
23.153227
 20
2.129657
 30
0.0
 10
23.263232
 20
2.129657
 30
0.0
  0
SPLINE
  5
2fd
100
AcDbEntity
  8
Layer_1
 62
7
100
AcDbSpline
 70
8
 71
3
 72
8
 73
4
 74
0
 40
0
 40
0
 40
0
 40
0
 40
1
 40
1
 40
1
 40
1
 10
23.263232
 20
2.129657
 30
0.0
 10
23.373238
 20
2.129657
 30
0.0
 10
23.462443
 20
2.218780
 30
0.0
 10
23.462543
 20
2.328785
 30
0.0
  0
LWPOLYLINE
  5
2fe
100
AcDbEntity
  8
Layer_1
 62
7
100
AcDbPolyline
 90
1
 70
1
 10
31.376464
 20
2.204037
 30
0.0
  0
SPLINE
  5
2ff
100
AcDbEntity
  8
Layer_1
 62
7
100
AcDbSpline
 70
8
 71
3
 72
8
 73
4
 74
0
 40
0
 40
0
 40
0
 40
0
 40
1
 40
1
 40
1
 40
1
 10
12.905111
 20
2.204037
 30
0.0
 10
12.905111
 20
2.224432
 30
0.0
 10
12.894231
 20
2.243277
 30
0.0
 10
12.876568
 20
2.253475
 30
0.0
  0
SPLINE
  5
300
100
AcDbEntity
  8
Layer_1
 62
7
100
AcDbSpline
 70
8
 71
3
 72
8
 73
4
 74
0
 40
0
 40
0
 40
0
 40
0
 40
1
 40
1
 40
1
 40
1
 10
12.876568
 20
2.253475
 30
0.0
 10
12.858905
 20
2.263672
 30
0.0
 10
12.837144
 20
2.263672
 30
0.0
 10
12.819481
 20
2.253475
 30
0.0
  0
SPLINE
  5
301
100
AcDbEntity
  8
Layer_1
 62
7
100
AcDbSpline
 70
8
 71
3
 72
8
 73
4
 74
0
 40
0
 40
0
 40
0
 40
0
 40
1
 40
1
 40
1
 40
1
 10
12.819481
 20
2.253475
 30
0.0
 10
12.801819
 20
2.243277
 30
0.0
 10
12.790938
 20
2.224432
 30
0.0
 10
12.790938
 20
2.204037
 30
0.0
  0
SPLINE
  5
302
100
AcDbEntity
  8
Layer_1
 62
7
100
AcDbSpline
 70
8
 71
3
 72
8
 73
4
 74
0
 40
0
 40
0
 40
0
 40
0
 40
1
 40
1
 40
1
 40
1
 10
12.790938
 20
2.204037
 30
0.0
 10
12.790938
 20
2.183641
 30
0.0
 10
12.801819
 20
2.164796
 30
0.0
 10
12.819481
 20
2.154598
 30
0.0
  0
SPLINE
  5
303
100
AcDbEntity
  8
Layer_1
 62
7
100
AcDbSpline
 70
8
 71
3
 72
8
 73
4
 74
0
 40
0
 40
0
 40
0
 40
0
 40
1
 40
1
 40
1
 40
1
 10
12.819481
 20
2.154598
 30
0.0
 10
12.837144
 20
2.144401
 30
0.0
 10
12.858905
 20
2.144401
 30
0.0
 10
12.876568
 20
2.154598
 30
0.0
  0
SPLINE
  5
304
100
AcDbEntity
  8
Layer_1
 62
7
100
AcDbSpline
 70
8
 71
3
 72
8
 73
4
 74
0
 40
0
 40
0
 40
0
 40
0
 40
1
 40
1
 40
1
 40
1
 10
12.876568
 20
2.154598
 30
0.0
 10
12.894231
 20
2.164796
 30
0.0
 10
12.905111
 20
2.183641
 30
0.0
 10
12.905111
 20
2.204037
 30
0.0
  0
LWPOLYLINE
  5
305
100
AcDbEntity
  8
Layer_1
 62
7
100
AcDbPolyline
 90
1
 70
1
 10
23.462543
 20
2.328785
 30
0.0
  0
SPLINE
  5
306
100
AcDbEntity
  8
Layer_1
 62
7
100
AcDbSpline
 70
8
 71
3
 72
8
 73
4
 74
0
 40
0
 40
0
 40
0
 40
0
 40
1
 40
1
 40
1
 40
1
 10
18.416915
 20
2.204037
 30
0.0
 10
18.416842
 20
2.235512
 30
0.0
 10
18.391305
 20
2.260990
 30
0.0
 10
18.359829
 20
2.260990
 30
0.0
  0
SPLINE
  5
307
100
AcDbEntity
  8
Layer_1
 62
7
100
AcDbSpline
 70
8
 71
3
 72
8
 73
4
 74
0
 40
0
 40
0
 40
0
 40
0
 40
1
 40
1
 40
1
 40
1
 10
18.359829
 20
2.260990
 30
0.0
 10
18.328353
 20
2.260990
 30
0.0
 10
18.302816
 20
2.235512
 30
0.0
 10
18.302742
 20
2.204037
 30
0.0
  0
SPLINE
  5
308
100
AcDbEntity
  8
Layer_1
 62
7
100
AcDbSpline
 70
8
 71
3
 72
8
 73
4
 74
0
 40
0
 40
0
 40
0
 40
0
 40
1
 40
1
 40
1
 40
1
 10
18.302742
 20
2.204037
 30
0.0
 10
18.302816
 20
2.172561
 30
0.0
 10
18.328353
 20
2.147084
 30
0.0
 10
18.359829
 20
2.147084
 30
0.0
  0
SPLINE
  5
309
100
AcDbEntity
  8
Layer_1
 62
7
100
AcDbSpline
 70
8
 71
3
 72
8
 73
4
 74
0
 40
0
 40
0
 40
0
 40
0
 40
1
 40
1
 40
1
 40
1
 10
18.359829
 20
2.147084
 30
0.0
 10
18.391305
 20
2.147084
 30
0.0
 10
18.416842
 20
2.172561
 30
0.0
 10
18.416915
 20
2.204037
 30
0.0
  0
LWPOLYLINE
  5
30a
100
AcDbEntity
  8
Layer_1
 62
7
100
AcDbPolyline
 90
1
 70
1
 10
12.905111
 20
2.204037
 30
0.0
  0
LWPOLYLINE
  5
30b
100
AcDbEntity
  8
Layer_1
 62
7
100
AcDbPolyline
 90
1
 70
1
 10
18.416915
 20
2.204037
 30
0.0
  0
SPLINE
  5
30c
100
AcDbEntity
  8
Layer_1
 62
7
100
AcDbSpline
 70
8
 71
3
 72
8
 73
4
 74
0
 40
0
 40
0
 40
0
 40
0
 40
1
 40
1
 40
1
 40
1
 10
15.875212
 20
2.575428
 30
0.0
 10
15.785230
 20
2.564065
 30
0.0
 10
15.694623
 20
2.558367
 30
0.0
 10
15.603927
 20
2.558367
 30
0.0
  0
LWPOLYLINE
  5
30d
100
AcDbEntity
  8
Layer_1
 62
7
100
AcDbPolyline
 90
5
 70
0
 10
8.517322
 20
2.558367
 30
0.0
 10
8.517322
 20
1.574116
 30
0.0
 10
21.903132
 20
1.574116
 30
0.0
 10
21.903132
 20
3.336632
 30
0.0
 10
15.875212
 20
2.575428
 30
0.0
  0
SPLINE
  5
30e
100
AcDbEntity
  8
Layer_1
 62
7
100
AcDbSpline
 70
8
 71
3
 72
8
 73
4
 74
0
 40
0
 40
0
 40
0
 40
0
 40
1
 40
1
 40
1
 40
1
 10
21.103481
 20
2.328785
 30
0.0
 10
21.103380
 20
2.438790
 30
0.0
 10
21.014175
 20
2.527914
 30
0.0
 10
20.904170
 20
2.527914
 30
0.0
  0
SPLINE
  5
30f
100
AcDbEntity
  8
Layer_1
 62
7
100
AcDbSpline
 70
8
 71
3
 72
8
 73
4
 74
0
 40
0
 40
0
 40
0
 40
0
 40
1
 40
1
 40
1
 40
1
 10
20.904170
 20
2.527914
 30
0.0
 10
20.794165
 20
2.527914
 30
0.0
 10
20.704960
 20
2.438790
 30
0.0
 10
20.704859
 20
2.328785
 30
0.0
  0
SPLINE
  5
310
100
AcDbEntity
  8
Layer_1
 62
7
100
AcDbSpline
 70
8
 71
3
 72
8
 73
4
 74
0
 40
0
 40
0
 40
0
 40
0
 40
1
 40
1
 40
1
 40
1
 10
20.704859
 20
2.328785
 30
0.0
 10
20.704960
 20
2.218780
 30
0.0
 10
20.794165
 20
2.129657
 30
0.0
 10
20.904170
 20
2.129657
 30
0.0
  0
SPLINE
  5
311
100
AcDbEntity
  8
Layer_1
 62
7
100
AcDbSpline
 70
8
 71
3
 72
8
 73
4
 74
0
 40
0
 40
0
 40
0
 40
0
 40
1
 40
1
 40
1
 40
1
 10
20.904170
 20
2.129657
 30
0.0
 10
21.014175
 20
2.129657
 30
0.0
 10
21.103380
 20
2.218780
 30
0.0
 10
21.103481
 20
2.328785
 30
0.0
  0
LWPOLYLINE
  5
312
100
AcDbEntity
  8
Layer_1
 62
7
100
AcDbPolyline
 90
2
 70
0
 10
15.603927
 20
2.558367
 30
0.0
 10
8.517322
 20
2.558367
 30
0.0
  0
LWPOLYLINE
  5
313
100
AcDbEntity
  8
Layer_1
 62
7
100
AcDbPolyline
 90
1
 70
1
 10
21.103481
 20
2.328785
 30
0.0
  0
ENDSEC
  0
SECTION
  2
OBJECTS
  0
DICTIONARY
  5
C
330
0
100
AcDbDictionary
  3
ACAD_GROUP
350
D
  3
ACAD_MLINESTYLE
350
17
  0
DICTIONARY
  5
D
330
C
100
AcDbDictionary
  0
DICTIONARY
  5
1A
330
C
100
AcDbDictionary
  0
DICTIONARY
  5
17
330
C
100
AcDbDictionary
  3
STANDARD
350
18
  0
DICTIONARY
  5
19
330
C
100
AcDbDictionary
  0
ENDSEC
  0
EOF
