  0
SECTION
  2
HEADER
  9
$ACADVER
  1
AC1014
  9
$HANDSEED
  5
FFFF
  9
$INSUNITS
 70
     4
  9
$MEASUREMENT
 70
     1
  0
ENDSEC
  0
SECTION
  2
TABLES
  0
TABLE
  2
VPORT
  5
8
330
0
100
AcDbSymbolTable
 70
     4
  0
VPORT
  5
2E
330
8
100
AcDbSymbolTableRecord
100
AcDbViewportTableRecord
  2
*ACTIVE
 70
     0
 10
0.0
 20
0.0
 11
1.0
 21
1.0
 12
210.0
 22
148.5
 13
0.0
 23
0.0
 14
10.0
 24
10.0
 15
10.0
 25
10.0
 16
0.0
 26
0.0
 36
1.0
 17
0.0
 27
0.0
 37
0.0
 40
341.0
 41
1.24
 42
50.0
 43
0.0
 44
0.0
 50
0.0
 51
0.0
 71
     0
 72
   100
 73
     1
 74
     3
 75
     0
 76
     0
 77
     0
 78
     0
  0
ENDTAB
  0
TABLE
  2
LTYPE
  5
5
330
0
100
AcDbSymbolTable
 70
     1
  0
LTYPE
  5
14
330
5
100
AcDbSymbolTableRecord
100
AcDbLinetypeTableRecord
  2
BYBLOCK
 70
     0
  3

 72
    65
 73
     0
 40
0.0
  0
LTYPE
  5
15
330
5
100
AcDbSymbolTableRecord
100
AcDbLinetypeTableRecord
  2
BYLAYER
 70
     0
  3

 72
    65
 73
     0
 40
0.0
  0
LTYPE
  5
16
330
5
100
AcDbSymbolTableRecord
100
AcDbLinetypeTableRecord
  2
CONTINUOUS
 70
     0
  3
Solid line
 72
    65
 73
     0
 40
0.0
  0
ENDTAB
  0
TABLE
  2
LAYER
  5
2
100
AcDbSymbolTable
 70
2
  0
LAYER
  5
50
100
AcDbSymbolTableRecord
100
AcDbLayerTableRecord
  2
0
 70
0
  6
CONTINUOUS
  0
LAYER
  5
51
100
AcDbSymbolTableRecord
100
AcDbLayerTableRecord
  2
Layer_1
 70
0
  6
CONTINUOUS
  0
ENDTAB
  0
TABLE
  2
STYLE
  5
3
330
0
100
AcDbSymbolTable
 70
     1
  0
STYLE
  5
11
330
3
100
AcDbSymbolTableRecord
100
AcDbTextStyleTableRecord
  2
STANDARD
 70
     0
 40
0.0
 41
1.0
 50
0.0
 71
     0
 42
2.5
  3
txt
  4

  0
ENDTAB
  0
TABLE
  2
VIEW
  5
6
330
0
100
AcDbSymbolTable
 70
     0
  0
ENDTAB
  0
TABLE
  2
UCS
  5
7
330
0
100
AcDbSymbolTable
 70
     0
  0
ENDTAB
  0
TABLE
  2
APPID
  5
9
330
0
100
AcDbSymbolTable
 70
     2
  0
APPID
  5
12
330
9
100
AcDbSymbolTableRecord
100
AcDbRegAppTableRecord
  2
ACAD
 70
     0
  0
ENDTAB
  0
TABLE
  2
DIMSTYLE
  5
A
330
0
100
AcDbSymbolTable
 70
     1
  0
DIMSTYLE
105
27
330
A
100
AcDbSymbolTableRecord
100
AcDbDimStyleTableRecord
  2
ISO-25
 70
     0
  3

  4

  5

  6

  7

 40
1.0
 41
2.5
 42
0.625
 43
3.75
 44
1.25
 45
0.0
 46
0.0
 47
0.0
 48
0.0
140
2.5
141
2.5
142
0.0
143
0.03937007874016
144
1.0
145
0.0
146
1.0
147
0.625
 71
     0
 72
     0
 73
     0
 74
     0
 75
     0
 76
     0
 77
     1
 78
     8
170
     0
171
     3
172
     1
173
     0
174
     0
175
     0
176
     0
177
     0
178
     0
270
     2
271
     2
272
     2
273
     2
274
     3
340
11
275
     0
280
     0
281
     0
282
     0
283
     0
284
     8
285
     0
286
     0
287
     3
288
     0
  0
ENDTAB
  0
TABLE
  2
BLOCK_RECORD
  5
1
330
0
100
AcDbSymbolTable
 70
     1
  0
BLOCK_RECORD
  5
1F
330
1
100
AcDbSymbolTableRecord
100
AcDbBlockTableRecord
  2
*MODEL_SPACE
  0
BLOCK_RECORD
  5
1B
330
1
100
AcDbSymbolTableRecord
100
AcDbBlockTableRecord
  2
*PAPER_SPACE
  0
ENDTAB
  0
ENDSEC
  0
SECTION
  2
BLOCKS
  0
BLOCK
  5
20
330
1F
100
AcDbEntity
  8
0
100
AcDbBlockBegin
  2
*MODEL_SPACE
 70
     0
 10
0.0
 20
0.0
 30
0.0
  3
*MODEL_SPACE
  1

  0
ENDBLK
  5
21
330
1F
100
AcDbEntity
  8
0
100
AcDbBlockEnd
  0
BLOCK
  5
1C
330
1B
100
AcDbEntity
 67
     1
  8
0
100
AcDbBlockBegin
  2
*PAPER_SPACE
  1

  0
ENDBLK
  5
1D
330
1B
100
AcDbEntity
 67
     1
  8
0
100
AcDbBlockEnd
  0
ENDSEC
  0
SECTION
  2
ENTITIES
  0
SPLINE
  5
100
100
AcDbEntity
  8
Layer_1
 62
7
100
AcDbSpline
 70
8
 71
3
 72
8
 73
4
 74
0
 40
0
 40
0
 40
0
 40
0
 40
1
 40
1
 40
1
 40
1
 10
18.779808
 20
10.972882
 30
0.0
 10
19.633778
 20
10.600564
 30
0.0
 10
20.189166
 20
9.761106
 30
0.0
 10
20.197847
 20
8.829543
 30
0.0
  0
SPLINE
  5
101
100
AcDbEntity
  8
Layer_1
 62
7
100
AcDbSpline
 70
8
 71
3
 72
8
 73
4
 74
0
 40
0
 40
0
 40
0
 40
0
 40
1
 40
1
 40
1
 40
1
 10
20.197847
 20
8.829543
 30
0.0
 10
20.206528
 20
7.897980
 30
0.0
 10
19.666882
 20
7.048318
 30
0.0
 10
18.819999
 20
6.660150
 30
0.0
  0
LWPOLYLINE
  5
102
100
AcDbEntity
  8
Layer_1
 62
7
100
AcDbPolyline
 90
2
 70
0
 10
16.891688
 20
10.972882
 30
0.0
 10
18.779808
 20
10.972882
 30
0.0
  0
SPLINE
  5
103
100
AcDbEntity
  8
Layer_1
 62
7
100
AcDbSpline
 70
8
 71
3
 72
8
 73
4
 74
0
 40
0
 40
0
 40
0
 40
0
 40
1
 40
1
 40
1
 40
1
 10
16.851498
 20
6.660150
 30
0.0
 10
16.004615
 20
7.048318
 30
0.0
 10
15.464968
 20
7.897980
 30
0.0
 10
15.473650
 20
8.829543
 30
0.0
  0
SPLINE
  5
104
100
AcDbEntity
  8
Layer_1
 62
7
100
AcDbSpline
 70
8
 71
3
 72
8
 73
4
 74
0
 40
0
 40
0
 40
0
 40
0
 40
1
 40
1
 40
1
 40
1
 10
15.473650
 20
8.829543
 30
0.0
 10
15.482331
 20
9.761106
 30
0.0
 10
16.037718
 20
10.600564
 30
0.0
 10
16.891688
 20
10.972882
 30
0.0
  0
LWPOLYLINE
  5
105
100
AcDbEntity
  8
Layer_1
 62
7
100
AcDbPolyline
 90
4
 70
0
 10
18.819999
 20
6.660150
 30
0.0
 10
18.819999
 20
6.799659
 30
0.0
 10
16.851498
 20
6.799659
 30
0.0
 10
16.851498
 20
6.660150
 30
0.0
  0
SPLINE
  5
106
100
AcDbEntity
  8
Layer_1
 62
7
100
AcDbSpline
 70
8
 71
3
 72
8
 73
4
 74
0
 40
0
 40
0
 40
0
 40
0
 40
1
 40
1
 40
1
 40
1
 10
11.379884
 20
10.972882
 30
0.0
 10
10.354351
 20
10.525765
 30
0.0
 10
9.783112
 20
9.420556
 30
0.0
 10
10.011479
 20
8.325348
 30
0.0
  0
SPLINE
  5
107
100
AcDbEntity
  8
Layer_1
 62
7
100
AcDbSpline
 70
8
 71
3
 72
8
 73
4
 74
0
 40
0
 40
0
 40
0
 40
0
 40
1
 40
1
 40
1
 40
1
 10
10.011479
 20
8.325348
 30
0.0
 10
10.239845
 20
7.230140
 30
0.0
 10
11.205180
 20
6.445329
 30
0.0
 10
12.323944
 20
6.445329
 30
0.0
  0
SPLINE
  5
108
100
AcDbEntity
  8
Layer_1
 62
7
100
AcDbSpline
 70
8
 71
3
 72
8
 73
4
 74
0
 40
0
 40
0
 40
0
 40
0
 40
1
 40
1
 40
1
 40
1
 10
12.323944
 20
6.445329
 30
0.0
 10
13.442708
 20
6.445329
 30
0.0
 10
14.408043
 20
7.230140
 30
0.0
 10
14.636410
 20
8.325348
 30
0.0
  0
SPLINE
  5
109
100
AcDbEntity
  8
Layer_1
 62
7
100
AcDbSpline
 70
8
 71
3
 72
8
 73
4
 74
0
 40
0
 40
0
 40
0
 40
0
 40
1
 40
1
 40
1
 40
1
 10
14.636410
 20
8.325348
 30
0.0
 10
14.864776
 20
9.420556
 30
0.0
 10
14.293538
 20
10.525765
 30
0.0
 10
13.268004
 20
10.972882
 30
0.0
  0
LWPOLYLINE
  5
10a
100
AcDbEntity
  8
Layer_1
 62
7
100
AcDbPolyline
 90
1
 70
1
 10
16.891688
 20
10.972882
 30
0.0
  0
SPLINE
  5
10b
100
AcDbEntity
  8
Layer_1
 62
7
100
AcDbSpline
 70
8
 71
3
 72
8
 73
4
 74
0
 40
0
 40
0
 40
0
 40
0
 40
1
 40
1
 40
1
 40
1
 10
4.451804
 20
8.901380
 30
0.0
 10
4.404453
 20
7.710508
 30
0.0
 10
5.251635
 20
6.670888
 30
0.0
 10
6.427547
 20
6.476847
 30
0.0
  0
SPLINE
  5
10c
100
AcDbEntity
  8
Layer_1
 62
7
100
AcDbSpline
 70
8
 71
3
 72
8
 73
4
 74
0
 40
0
 40
0
 40
0
 40
0
 40
1
 40
1
 40
1
 40
1
 10
6.427547
 20
6.476847
 30
0.0
 10
7.603458
 20
6.282806
 30
0.0
 10
8.739734
 20
6.995129
 30
0.0
 10
9.077495
 20
8.138081
 30
0.0
  0
SPLINE
  5
10d
100
AcDbEntity
  8
Layer_1
 62
7
100
AcDbSpline
 70
8
 71
3
 72
8
 73
4
 74
0
 40
0
 40
0
 40
0
 40
0
 40
1
 40
1
 40
1
 40
1
 10
9.077495
 20
8.138081
 30
0.0
 10
9.415256
 20
9.281032
 30
0.0
 10
8.848696
 20
10.496571
 30
0.0
 10
7.756200
 20
10.972882
 30
0.0
  0
LWPOLYLINE
  5
10e
100
AcDbEntity
  8
Layer_1
 62
7
100
AcDbPolyline
 90
2
 70
0
 10
13.268004
 20
10.972882
 30
0.0
 10
11.379884
 20
10.972882
 30
0.0
  0
SPLINE
  5
10f
100
AcDbEntity
  8
Layer_1
 62
7
100
AcDbSpline
 70
8
 71
3
 72
8
 73
4
 74
0
 40
0
 40
0
 40
0
 40
0
 40
1
 40
1
 40
1
 40
1
 10
6.812140
 20
10.972882
 30
0.0
 10
5.981996
 20
10.972882
 30
0.0
 10
5.224924
 20
10.498279
 30
0.0
 10
4.863183
 20
9.751096
 30
0.0
  0
LWPOLYLINE
  5
110
100
AcDbEntity
  8
Layer_1
 62
7
100
AcDbPolyline
 90
2
 70
0
 10
7.756200
 20
10.972882
 30
0.0
 10
6.812140
 20
10.972882
 30
0.0
  0
SPLINE
  5
111
100
AcDbEntity
  8
Layer_1
 62
7
100
AcDbSpline
 70
8
 71
3
 72
8
 73
4
 74
0
 40
0
 40
0
 40
0
 40
0
 40
1
 40
1
 40
1
 40
1
 10
4.492883
 20
1.754068
 30
0.0
 10
5.241775
 20
2.348673
 30
0.0
 10
5.455032
 20
3.395465
 30
0.0
 10
4.998443
 20
4.235656
 30
0.0
  0
SPLINE
  5
112
100
AcDbEntity
  8
Layer_1
 62
7
100
AcDbSpline
 70
8
 71
3
 72
8
 73
4
 74
0
 40
0
 40
0
 40
0
 40
0
 40
1
 40
1
 40
1
 40
1
 10
4.998443
 20
4.235656
 30
0.0
 10
4.541853
 20
5.075847
 30
0.0
 10
3.547502
 20
5.466382
 30
0.0
 10
2.641173
 20
5.161481
 30
0.0
  0
LWPOLYLINE
  5
113
100
AcDbEntity
  8
Layer_1
 62
7
100
AcDbPolyline
 90
2
 70
0
 10
4.863183
 20
9.751096
 30
0.0
 10
4.451804
 20
8.901380
 30
0.0
  0
SPLINE
  5
114
100
AcDbEntity
  8
Layer_1
 62
7
100
AcDbSpline
 70
8
 71
3
 72
8
 73
4
 74
0
 40
0
 40
0
 40
0
 40
0
 40
1
 40
1
 40
1
 40
1
 10
2.028592
 20
3.896177
 30
0.0
 10
1.829796
 20
3.485560
 30
0.0
 10
1.847118
 20
3.003168
 30
0.0
 10
2.074853
 20
2.607866
 30
0.0
  0
SPLINE
  5
115
100
AcDbEntity
  8
Layer_1
 62
7
100
AcDbSpline
 70
8
 71
3
 72
8
 73
4
 74
0
 40
0
 40
0
 40
0
 40
0
 40
1
 40
1
 40
1
 40
1
 10
2.074853
 20
2.607866
 30
0.0
 10
2.302588
 20
2.212565
 30
0.0
 10
2.711211
 20
1.955604
 30
0.0
 10
3.166151
 20
1.921607
 30
0.0
  0
LWPOLYLINE
  5
116
100
AcDbEntity
  8
Layer_1
 62
7
100
AcDbPolyline
 90
2
 70
0
 10
2.641173
 20
5.161481
 30
0.0
 10
2.028592
 20
3.896177
 30
0.0
  0
SPLINE
  5
117
100
AcDbEntity
  8
Layer_1
 62
7
100
AcDbSpline
 70
8
 71
3
 72
8
 73
4
 74
0
 40
0
 40
0
 40
0
 40
0
 40
1
 40
1
 40
1
 40
1
 10
10.512102
 20
1.130375
 30
0.0
 10
11.512179
 20
1.566394
 30
0.0
 10
12.083561
 20
2.630575
 30
0.0
 10
11.894507
 20
3.705064
 30
0.0
  0
SPLINE
  5
118
100
AcDbEntity
  8
Layer_1
 62
7
100
AcDbSpline
 70
8
 71
3
 72
8
 73
4
 74
0
 40
0
 40
0
 40
0
 40
0
 40
1
 40
1
 40
1
 40
1
 10
11.894507
 20
3.705064
 30
0.0
 10
11.705453
 20
4.779552
 30
0.0
 10
10.805150
 20
5.584794
 30
0.0
 10
9.716308
 20
5.653271
 30
0.0
  0
SPLINE
  5
119
100
AcDbEntity
  8
Layer_1
 62
7
100
AcDbSpline
 70
8
 71
3
 72
8
 73
4
 74
0
 40
0
 40
0
 40
0
 40
0
 40
1
 40
1
 40
1
 40
1
 10
9.716308
 20
5.653271
 30
0.0
 10
8.627466
 20
5.721748
 30
0.0
 10
7.633372
 20
5.035645
 30
0.0
 10
7.311191
 20
3.993309
 30
0.0
  0
SPLINE
  5
11a
100
AcDbEntity
  8
Layer_1
 62
7
100
AcDbSpline
 70
8
 71
3
 72
8
 73
4
 74
0
 40
0
 40
0
 40
0
 40
0
 40
1
 40
1
 40
1
 40
1
 10
7.311191
 20
3.993309
 30
0.0
 10
6.989010
 20
2.950972
 30
0.0
 10
7.422564
 20
1.823590
 30
0.0
 10
8.360135
 20
1.265713
 30
0.0
  0
LWPOLYLINE
  5
11b
100
AcDbEntity
  8
Layer_1
 62
7
100
AcDbPolyline
 90
2
 70
0
 10
3.166151
 20
1.921607
 30
0.0
 10
4.492883
 20
1.754068
 30
0.0
  0
SPLINE
  5
11c
100
AcDbEntity
  8
Layer_1
 62
7
100
AcDbSpline
 70
8
 71
3
 72
8
 73
4
 74
0
 40
0
 40
0
 40
0
 40
0
 40
1
 40
1
 40
1
 40
1
 10
9.296757
 20
1.147436
 30
0.0
 10
9.386739
 20
1.136073
 30
0.0
 10
9.477346
 20
1.130375
 30
0.0
 10
9.568042
 20
1.130375
 30
0.0
  0
LWPOLYLINE
  5
11d
100
AcDbEntity
  8
Layer_1
 62
7
100
AcDbPolyline
 90
2
 70
0
 10
8.360135
 20
1.265713
 30
0.0
 10
9.296757
 20
1.147436
 30
0.0
  0
SPLINE
  5
11e
100
AcDbEntity
  8
Layer_1
 62
7
100
AcDbSpline
 70
8
 71
3
 72
8
 73
4
 74
0
 40
0
 40
0
 40
0
 40
0
 40
1
 40
1
 40
1
 40
1
 10
16.851498
 20
4.858176
 30
0.0
 10
16.211152
 20
5.584260
 30
0.0
 10
15.192592
 20
5.846124
 30
0.0
 10
14.281453
 20
5.518916
 30
0.0
  0
SPLINE
  5
11f
100
AcDbEntity
  8
Layer_1
 62
7
100
AcDbSpline
 70
8
 71
3
 72
8
 73
4
 74
0
 40
0
 40
0
 40
0
 40
0
 40
1
 40
1
 40
1
 40
1
 10
14.281453
 20
5.518916
 30
0.0
 10
13.370314
 20
5.191707
 30
0.0
 10
12.751060
 20
4.341670
 30
0.0
 10
12.718944
 20
3.374092
 30
0.0
  0
SPLINE
  5
120
100
AcDbEntity
  8
Layer_1
 62
7
100
AcDbSpline
 70
8
 71
3
 72
8
 73
4
 74
0
 40
0
 40
0
 40
0
 40
0
 40
1
 40
1
 40
1
 40
1
 10
12.718944
 20
3.374092
 30
0.0
 10
12.686827
 20
2.406513
 30
0.0
 10
13.248350
 20
1.517283
 30
0.0
 10
14.135786
 20
1.130375
 30
0.0
  0
LWPOLYLINE
  5
121
100
AcDbEntity
  8
Layer_1
 62
7
100
AcDbPolyline
 90
2
 70
0
 10
9.568042
 20
1.130375
 30
0.0
 10
10.512102
 20
1.130375
 30
0.0
  0
SPLINE
  5
122
100
AcDbEntity
  8
Layer_1
 62
7
100
AcDbSpline
 70
8
 71
3
 72
8
 73
4
 74
0
 40
0
 40
0
 40
0
 40
0
 40
1
 40
1
 40
1
 40
1
 10
16.023906
 20
1.130375
 30
0.0
 10
16.670327
 20
1.412205
 30
0.0
 10
17.157029
 20
1.968099
 30
0.0
 10
17.350963
 20
2.646093
 30
0.0
  0
SPLINE
  5
123
100
AcDbEntity
  8
Layer_1
 62
7
100
AcDbSpline
 70
8
 71
3
 72
8
 73
4
 74
0
 40
0
 40
0
 40
0
 40
0
 40
1
 40
1
 40
1
 40
1
 10
17.350963
 20
2.646093
 30
0.0
 10
17.544898
 20
3.324088
 30
0.0
 10
17.425781
 20
4.053271
 30
0.0
 10
17.026176
 20
4.634307
 30
0.0
  0
LWPOLYLINE
  5
124
100
AcDbEntity
  8
Layer_1
 62
7
100
AcDbPolyline
 90
2
 70
0
 10
14.135786
 20
1.130375
 30
0.0
 10
16.023906
 20
1.130375
 30
0.0
  0
SPLINE
  5
125
100
AcDbEntity
  8
Layer_1
 62
7
100
AcDbSpline
 70
8
 71
3
 72
8
 73
4
 74
0
 40
0
 40
0
 40
0
 40
0
 40
1
 40
1
 40
1
 40
1
 10
18.645321
 20
4.634307
 30
0.0
 10
18.245716
 20
4.053271
 30
0.0
 10
18.126599
 20
3.324088
 30
0.0
 10
18.320533
 20
2.646093
 30
0.0
  0
SPLINE
  5
126
100
AcDbEntity
  8
Layer_1
 62
7
100
AcDbSpline
 70
8
 71
3
 72
8
 73
4
 74
0
 40
0
 40
0
 40
0
 40
0
 40
1
 40
1
 40
1
 40
1
 10
18.320533
 20
2.646093
 30
0.0
 10
18.514468
 20
1.968099
 30
0.0
 10
19.001170
 20
1.412205
 30
0.0
 10
19.647590
 20
1.130375
 30
0.0
  0
LWPOLYLINE
  5
127
100
AcDbEntity
  8
Layer_1
 62
7
100
AcDbPolyline
 90
3
 70
0
 10
17.026176
 20
4.634307
 30
0.0
 10
16.851498
 20
4.634307
 30
0.0
 10
16.851498
 20
4.858176
 30
0.0
  0
SPLINE
  5
128
100
AcDbEntity
  8
Layer_1
 62
7
100
AcDbSpline
 70
8
 71
3
 72
8
 73
4
 74
0
 40
0
 40
0
 40
0
 40
0
 40
1
 40
1
 40
1
 40
1
 10
21.535711
 20
1.130375
 30
0.0
 10
22.423146
 20
1.517283
 30
0.0
 10
22.984669
 20
2.406513
 30
0.0
 10
22.952553
 20
3.374092
 30
0.0
  0
SPLINE
  5
129
100
AcDbEntity
  8
Layer_1
 62
7
100
AcDbSpline
 70
8
 71
3
 72
8
 73
4
 74
0
 40
0
 40
0
 40
0
 40
0
 40
1
 40
1
 40
1
 40
1
 10
22.952553
 20
3.374092
 30
0.0
 10
22.920436
 20
4.341670
 30
0.0
 10
22.301183
 20
5.191707
 30
0.0
 10
21.390043
 20
5.518916
 30
0.0
  0
SPLINE
  5
12a
100
AcDbEntity
  8
Layer_1
 62
7
100
AcDbSpline
 70
8
 71
3
 72
8
 73
4
 74
0
 40
0
 40
0
 40
0
 40
0
 40
1
 40
1
 40
1
 40
1
 10
21.390043
 20
5.518916
 30
0.0
 10
20.478904
 20
5.846124
 30
0.0
 10
19.460344
 20
5.584260
 30
0.0
 10
18.819999
 20
4.858176
 30
0.0
  0
LWPOLYLINE
  5
12b
100
AcDbEntity
  8
Layer_1
 62
7
100
AcDbPolyline
 90
2
 70
0
 10
19.647590
 20
1.130375
 30
0.0
 10
21.535711
 20
1.130375
 30
0.0
  0
SPLINE
  5
12c
100
AcDbEntity
  8
Layer_1
 62
7
100
AcDbSpline
 70
8
 71
3
 72
8
 73
4
 74
0
 40
0
 40
0
 40
0
 40
0
 40
1
 40
1
 40
1
 40
1
 10
27.311362
 20
1.265713
 30
0.0
 10
28.248933
 20
1.823590
 30
0.0
 10
28.682487
 20
2.950972
 30
0.0
 10
28.360306
 20
3.993309
 30
0.0
  0
SPLINE
  5
12d
100
AcDbEntity
  8
Layer_1
 62
7
100
AcDbSpline
 70
8
 71
3
 72
8
 73
4
 74
0
 40
0
 40
0
 40
0
 40
0
 40
1
 40
1
 40
1
 40
1
 10
28.360306
 20
3.993309
 30
0.0
 10
28.038125
 20
5.035645
 30
0.0
 10
27.044031
 20
5.721748
 30
0.0
 10
25.955189
 20
5.653271
 30
0.0
  0
SPLINE
  5
12e
100
AcDbEntity
  8
Layer_1
 62
7
100
AcDbSpline
 70
8
 71
3
 72
8
 73
4
 74
0
 40
0
 40
0
 40
0
 40
0
 40
1
 40
1
 40
1
 40
1
 10
25.955189
 20
5.653271
 30
0.0
 10
24.866346
 20
5.584794
 30
0.0
 10
23.966043
 20
4.779552
 30
0.0
 10
23.776989
 20
3.705064
 30
0.0
  0
SPLINE
  5
12f
100
AcDbEntity
  8
Layer_1
 62
7
100
AcDbSpline
 70
8
 71
3
 72
8
 73
4
 74
0
 40
0
 40
0
 40
0
 40
0
 40
1
 40
1
 40
1
 40
1
 10
23.776989
 20
3.705064
 30
0.0
 10
23.587935
 20
2.630575
 30
0.0
 10
24.159317
 20
1.566394
 30
0.0
 10
25.159394
 20
1.130375
 30
0.0
  0
LWPOLYLINE
  5
130
100
AcDbEntity
  8
Layer_1
 62
7
100
AcDbPolyline
 90
3
 70
0
 10
18.819999
 20
4.858176
 30
0.0
 10
18.819999
 20
4.634307
 30
0.0
 10
18.645321
 20
4.634307
 30
0.0
  0
SPLINE
  5
131
100
AcDbEntity
  8
Layer_1
 62
7
100
AcDbSpline
 70
8
 71
3
 72
8
 73
4
 74
0
 40
0
 40
0
 40
0
 40
0
 40
1
 40
1
 40
1
 40
1
 10
26.103455
 20
1.130375
 30
0.0
 10
26.194151
 20
1.130375
 30
0.0
 10
26.284758
 20
1.136073
 30
0.0
 10
26.374740
 20
1.147436
 30
0.0
  0
LWPOLYLINE
  5
132
100
AcDbEntity
  8
Layer_1
 62
7
100
AcDbPolyline
 90
2
 70
0
 10
25.159394
 20
1.130375
 30
0.0
 10
26.103455
 20
1.130375
 30
0.0
  0
SPLINE
  5
133
100
AcDbEntity
  8
Layer_1
 62
7
100
AcDbSpline
 70
8
 71
3
 72
8
 73
4
 74
0
 40
0
 40
0
 40
0
 40
0
 40
1
 40
1
 40
1
 40
1
 10
33.030323
 20
5.161481
 30
0.0
 10
32.123995
 20
5.466382
 30
0.0
 10
31.129644
 20
5.075847
 30
0.0
 10
30.673054
 20
4.235656
 30
0.0
  0
SPLINE
  5
134
100
AcDbEntity
  8
Layer_1
 62
7
100
AcDbSpline
 70
8
 71
3
 72
8
 73
4
 74
0
 40
0
 40
0
 40
0
 40
0
 40
1
 40
1
 40
1
 40
1
 10
30.673054
 20
4.235656
 30
0.0
 10
30.216464
 20
3.395465
 30
0.0
 10
30.429721
 20
2.348673
 30
0.0
 10
31.178614
 20
1.754068
 30
0.0
  0
LWPOLYLINE
  5
135
100
AcDbEntity
  8
Layer_1
 62
7
100
AcDbPolyline
 90
2
 70
0
 10
26.374740
 20
1.147436
 30
0.0
 10
27.311362
 20
1.265713
 30
0.0
  0
SPLINE
  5
136
100
AcDbEntity
  8
Layer_1
 62
7
100
AcDbSpline
 70
8
 71
3
 72
8
 73
4
 74
0
 40
0
 40
0
 40
0
 40
0
 40
1
 40
1
 40
1
 40
1
 10
32.505347
 20
1.921607
 30
0.0
 10
32.960286
 20
1.955604
 30
0.0
 10
33.368910
 20
2.212566
 30
0.0
 10
33.596644
 20
2.607867
 30
0.0
  0
SPLINE
  5
137
100
AcDbEntity
  8
Layer_1
 62
7
100
AcDbSpline
 70
8
 71
3
 72
8
 73
4
 74
0
 40
0
 40
0
 40
0
 40
0
 40
1
 40
1
 40
1
 40
1
 10
33.596644
 20
2.607867
 30
0.0
 10
33.824379
 20
3.003168
 30
0.0
 10
33.841700
 20
3.485560
 30
0.0
 10
33.642905
 20
3.896177
 30
0.0
  0
LWPOLYLINE
  5
138
100
AcDbEntity
  8
Layer_1
 62
7
100
AcDbPolyline
 90
2
 70
0
 10
31.178614
 20
1.754068
 30
0.0
 10
32.505347
 20
1.921607
 30
0.0
  0
SPLINE
  5
139
100
AcDbEntity
  8
Layer_1
 62
7
100
AcDbSpline
 70
8
 71
3
 72
8
 73
4
 74
0
 40
0
 40
0
 40
0
 40
0
 40
1
 40
1
 40
1
 40
1
 10
27.915297
 20
10.972882
 30
0.0
 10
26.822801
 20
10.496571
 30
0.0
 10
26.256240
 20
9.281032
 30
0.0
 10
26.594001
 20
8.138081
 30
0.0
  0
SPLINE
  5
13a
100
AcDbEntity
  8
Layer_1
 62
7
100
AcDbSpline
 70
8
 71
3
 72
8
 73
4
 74
0
 40
0
 40
0
 40
0
 40
0
 40
1
 40
1
 40
1
 40
1
 10
26.594001
 20
8.138081
 30
0.0
 10
26.931762
 20
6.995129
 30
0.0
 10
28.068038
 20
6.282806
 30
0.0
 10
29.243950
 20
6.476847
 30
0.0
  0
SPLINE
  5
13b
100
AcDbEntity
  8
Layer_1
 62
7
100
AcDbSpline
 70
8
 71
3
 72
8
 73
4
 74
0
 40
0
 40
0
 40
0
 40
0
 40
1
 40
1
 40
1
 40
1
 10
29.243950
 20
6.476847
 30
0.0
 10
30.419861
 20
6.670888
 30
0.0
 10
31.267044
 20
7.710508
 30
0.0
 10
31.219693
 20
8.901380
 30
0.0
  0
LWPOLYLINE
  5
13c
100
AcDbEntity
  8
Layer_1
 62
7
100
AcDbPolyline
 90
2
 70
0
 10
33.642905
 20
3.896177
 30
0.0
 10
33.030323
 20
5.161481
 30
0.0
  0
SPLINE
  5
13d
100
AcDbEntity
  8
Layer_1
 62
7
100
AcDbSpline
 70
8
 71
3
 72
8
 73
4
 74
0
 40
0
 40
0
 40
0
 40
0
 40
1
 40
1
 40
1
 40
1
 10
30.808313
 20
9.751096
 30
0.0
 10
30.446573
 20
10.498279
 30
0.0
 10
29.689501
 20
10.972882
 30
0.0
 10
28.859356
 20
10.972882
 30
0.0
  0
LWPOLYLINE
  5
13e
100
AcDbEntity
  8
Layer_1
 62
7
100
AcDbPolyline
 90
2
 70
0
 10
31.219693
 20
8.901380
 30
0.0
 10
30.808313
 20
9.751096
 30
0.0
  0
SPLINE
  5
13f
100
AcDbEntity
  8
Layer_1
 62
7
100
AcDbSpline
 70
8
 71
3
 72
8
 73
4
 74
0
 40
0
 40
0
 40
0
 40
0
 40
1
 40
1
 40
1
 40
1
 10
17.091655
 20
4.791787
 30
0.0
 10
17.091655
 20
4.814292
 30
0.0
 10
17.079649
 20
4.835088
 30
0.0
 10
17.060159
 20
4.846340
 30
0.0
  0
SPLINE
  5
140
100
AcDbEntity
  8
Layer_1
 62
7
100
AcDbSpline
 70
8
 71
3
 72
8
 73
4
 74
0
 40
0
 40
0
 40
0
 40
0
 40
1
 40
1
 40
1
 40
1
 10
17.060159
 20
4.846340
 30
0.0
 10
17.040669
 20
4.857592
 30
0.0
 10
17.016656
 20
4.857592
 30
0.0
 10
16.997167
 20
4.846340
 30
0.0
  0
SPLINE
  5
141
100
AcDbEntity
  8
Layer_1
 62
7
100
AcDbSpline
 70
8
 71
3
 72
8
 73
4
 74
0
 40
0
 40
0
 40
0
 40
0
 40
1
 40
1
 40
1
 40
1
 10
16.997167
 20
4.846340
 30
0.0
 10
16.977677
 20
4.835088
 30
0.0
 10
16.965671
 20
4.814292
 30
0.0
 10
16.965671
 20
4.791787
 30
0.0
  0
SPLINE
  5
142
100
AcDbEntity
  8
Layer_1
 62
7
100
AcDbSpline
 70
8
 71
3
 72
8
 73
4
 74
0
 40
0
 40
0
 40
0
 40
0
 40
1
 40
1
 40
1
 40
1
 10
16.965671
 20
4.791787
 30
0.0
 10
16.965671
 20
4.769282
 30
0.0
 10
16.977677
 20
4.748487
 30
0.0
 10
16.997167
 20
4.737235
 30
0.0
  0
SPLINE
  5
143
100
AcDbEntity
  8
Layer_1
 62
7
100
AcDbSpline
 70
8
 71
3
 72
8
 73
4
 74
0
 40
0
 40
0
 40
0
 40
0
 40
1
 40
1
 40
1
 40
1
 10
16.997167
 20
4.737235
 30
0.0
 10
17.016656
 20
4.725982
 30
0.0
 10
17.040669
 20
4.725982
 30
0.0
 10
17.060159
 20
4.737235
 30
0.0
  0
SPLINE
  5
144
100
AcDbEntity
  8
Layer_1
 62
7
100
AcDbSpline
 70
8
 71
3
 72
8
 73
4
 74
0
 40
0
 40
0
 40
0
 40
0
 40
1
 40
1
 40
1
 40
1
 10
17.060159
 20
4.737235
 30
0.0
 10
17.079649
 20
4.748487
 30
0.0
 10
17.091655
 20
4.769282
 30
0.0
 10
17.091655
 20
4.791787
 30
0.0
  0
LWPOLYLINE
  5
145
100
AcDbEntity
  8
Layer_1
 62
7
100
AcDbPolyline
 90
2
 70
0
 10
28.859356
 20
10.972882
 30
0.0
 10
27.915297
 20
10.972882
 30
0.0
  0
SPLINE
  5
146
100
AcDbEntity
  8
Layer_1
 62
7
100
AcDbSpline
 70
8
 71
3
 72
8
 73
4
 74
0
 40
0
 40
0
 40
0
 40
0
 40
1
 40
1
 40
1
 40
1
 10
18.705826
 20
6.642179
 30
0.0
 10
18.705826
 20
6.664684
 30
0.0
 10
18.693820
 20
6.685479
 30
0.0
 10
18.674330
 20
6.696731
 30
0.0
  0
SPLINE
  5
147
100
AcDbEntity
  8
Layer_1
 62
7
100
AcDbSpline
 70
8
 71
3
 72
8
 73
4
 74
0
 40
0
 40
0
 40
0
 40
0
 40
1
 40
1
 40
1
 40
1
 10
18.674330
 20
6.696731
 30
0.0
 10
18.654840
 20
6.707984
 30
0.0
 10
18.630828
 20
6.707984
 30
0.0
 10
18.611338
 20
6.696731
 30
0.0
  0
SPLINE
  5
148
100
AcDbEntity
  8
Layer_1
 62
7
100
AcDbSpline
 70
8
 71
3
 72
8
 73
4
 74
0
 40
0
 40
0
 40
0
 40
0
 40
1
 40
1
 40
1
 40
1
 10
18.611338
 20
6.696731
 30
0.0
 10
18.591848
 20
6.685479
 30
0.0
 10
18.579842
 20
6.664684
 30
0.0
 10
18.579842
 20
6.642179
 30
0.0
  0
SPLINE
  5
149
100
AcDbEntity
  8
Layer_1
 62
7
100
AcDbSpline
 70
8
 71
3
 72
8
 73
4
 74
0
 40
0
 40
0
 40
0
 40
0
 40
1
 40
1
 40
1
 40
1
 10
18.579842
 20
6.642179
 30
0.0
 10
18.579842
 20
6.619674
 30
0.0
 10
18.591848
 20
6.598878
 30
0.0
 10
18.611338
 20
6.587626
 30
0.0
  0
SPLINE
  5
14a
100
AcDbEntity
  8
Layer_1
 62
7
100
AcDbSpline
 70
8
 71
3
 72
8
 73
4
 74
0
 40
0
 40
0
 40
0
 40
0
 40
1
 40
1
 40
1
 40
1
 10
18.611338
 20
6.587626
 30
0.0
 10
18.630828
 20
6.576374
 30
0.0
 10
18.654840
 20
6.576374
 30
0.0
 10
18.674330
 20
6.587626
 30
0.0
  0
SPLINE
  5
14b
100
AcDbEntity
  8
Layer_1
 62
7
100
AcDbSpline
 70
8
 71
3
 72
8
 73
4
 74
0
 40
0
 40
0
 40
0
 40
0
 40
1
 40
1
 40
1
 40
1
 10
18.674330
 20
6.587626
 30
0.0
 10
18.693820
 20
6.598878
 30
0.0
 10
18.705826
 20
6.619674
 30
0.0
 10
18.705826
 20
6.642179
 30
0.0
  0
LWPOLYLINE
  5
14c
100
AcDbEntity
  8
Layer_1
 62
7
100
AcDbPolyline
 90
1
 70
1
 10
17.091655
 20
4.791787
 30
0.0
  0
SPLINE
  5
14d
100
AcDbEntity
  8
Layer_1
 62
7
100
AcDbSpline
 70
8
 71
3
 72
8
 73
4
 74
0
 40
0
 40
0
 40
0
 40
0
 40
1
 40
1
 40
1
 40
1
 10
17.091655
 20
6.642179
 30
0.0
 10
17.091655
 20
6.664684
 30
0.0
 10
17.079649
 20
6.685479
 30
0.0
 10
17.060159
 20
6.696731
 30
0.0
  0
SPLINE
  5
14e
100
AcDbEntity
  8
Layer_1
 62
7
100
AcDbSpline
 70
8
 71
3
 72
8
 73
4
 74
0
 40
0
 40
0
 40
0
 40
0
 40
1
 40
1
 40
1
 40
1
 10
17.060159
 20
6.696731
 30
0.0
 10
17.040669
 20
6.707984
 30
0.0
 10
17.016656
 20
6.707984
 30
0.0
 10
16.997167
 20
6.696731
 30
0.0
  0
SPLINE
  5
14f
100
AcDbEntity
  8
Layer_1
 62
7
100
AcDbSpline
 70
8
 71
3
 72
8
 73
4
 74
0
 40
0
 40
0
 40
0
 40
0
 40
1
 40
1
 40
1
 40
1
 10
16.997167
 20
6.696731
 30
0.0
 10
16.977677
 20
6.685479
 30
0.0
 10
16.965671
 20
6.664684
 30
0.0
 10
16.965671
 20
6.642179
 30
0.0
  0
SPLINE
  5
150
100
AcDbEntity
  8
Layer_1
 62
7
100
AcDbSpline
 70
8
 71
3
 72
8
 73
4
 74
0
 40
0
 40
0
 40
0
 40
0
 40
1
 40
1
 40
1
 40
1
 10
16.965671
 20
6.642179
 30
0.0
 10
16.965671
 20
6.619674
 30
0.0
 10
16.977677
 20
6.598878
 30
0.0
 10
16.997167
 20
6.587626
 30
0.0
  0
SPLINE
  5
151
100
AcDbEntity
  8
Layer_1
 62
7
100
AcDbSpline
 70
8
 71
3
 72
8
 73
4
 74
0
 40
0
 40
0
 40
0
 40
0
 40
1
 40
1
 40
1
 40
1
 10
16.997167
 20
6.587626
 30
0.0
 10
17.016656
 20
6.576374
 30
0.0
 10
17.040669
 20
6.576374
 30
0.0
 10
17.060159
 20
6.587626
 30
0.0
  0
SPLINE
  5
152
100
AcDbEntity
  8
Layer_1
 62
7
100
AcDbSpline
 70
8
 71
3
 72
8
 73
4
 74
0
 40
0
 40
0
 40
0
 40
0
 40
1
 40
1
 40
1
 40
1
 10
17.060159
 20
6.587626
 30
0.0
 10
17.079649
 20
6.598878
 30
0.0
 10
17.091655
 20
6.619674
 30
0.0
 10
17.091655
 20
6.642179
 30
0.0
  0
LWPOLYLINE
  5
153
100
AcDbEntity
  8
Layer_1
 62
7
100
AcDbPolyline
 90
1
 70
1
 10
18.705826
 20
6.642179
 30
0.0
  0
SPLINE
  5
154
100
AcDbEntity
  8
Layer_1
 62
7
100
AcDbSpline
 70
8
 71
3
 72
8
 73
4
 74
0
 40
0
 40
0
 40
0
 40
0
 40
1
 40
1
 40
1
 40
1
 10
18.705826
 20
4.791787
 30
0.0
 10
18.705826
 20
4.814292
 30
0.0
 10
18.693820
 20
4.835088
 30
0.0
 10
18.674330
 20
4.846340
 30
0.0
  0
SPLINE
  5
155
100
AcDbEntity
  8
Layer_1
 62
7
100
AcDbSpline
 70
8
 71
3
 72
8
 73
4
 74
0
 40
0
 40
0
 40
0
 40
0
 40
1
 40
1
 40
1
 40
1
 10
18.674330
 20
4.846340
 30
0.0
 10
18.654840
 20
4.857592
 30
0.0
 10
18.630828
 20
4.857592
 30
0.0
 10
18.611338
 20
4.846340
 30
0.0
  0
SPLINE
  5
156
100
AcDbEntity
  8
Layer_1
 62
7
100
AcDbSpline
 70
8
 71
3
 72
8
 73
4
 74
0
 40
0
 40
0
 40
0
 40
0
 40
1
 40
1
 40
1
 40
1
 10
18.611338
 20
4.846340
 30
0.0
 10
18.591848
 20
4.835088
 30
0.0
 10
18.579842
 20
4.814292
 30
0.0
 10
18.579842
 20
4.791787
 30
0.0
  0
SPLINE
  5
157
100
AcDbEntity
  8
Layer_1
 62
7
100
AcDbSpline
 70
8
 71
3
 72
8
 73
4
 74
0
 40
0
 40
0
 40
0
 40
0
 40
1
 40
1
 40
1
 40
1
 10
18.579842
 20
4.791787
 30
0.0
 10
18.579842
 20
4.769282
 30
0.0
 10
18.591848
 20
4.748487
 30
0.0
 10
18.611338
 20
4.737235
 30
0.0
  0
SPLINE
  5
158
100
AcDbEntity
  8
Layer_1
 62
7
100
AcDbSpline
 70
8
 71
3
 72
8
 73
4
 74
0
 40
0
 40
0
 40
0
 40
0
 40
1
 40
1
 40
1
 40
1
 10
18.611338
 20
4.737235
 30
0.0
 10
18.630828
 20
4.725982
 30
0.0
 10
18.654840
 20
4.725982
 30
0.0
 10
18.674330
 20
4.737235
 30
0.0
  0
SPLINE
  5
159
100
AcDbEntity
  8
Layer_1
 62
7
100
AcDbSpline
 70
8
 71
3
 72
8
 73
4
 74
0
 40
0
 40
0
 40
0
 40
0
 40
1
 40
1
 40
1
 40
1
 10
18.674330
 20
4.737235
 30
0.0
 10
18.693820
 20
4.748487
 30
0.0
 10
18.705826
 20
4.769282
 30
0.0
 10
18.705826
 20
4.791787
 30
0.0
  0
LWPOLYLINE
  5
15a
100
AcDbEntity
  8
Layer_1
 62
7
100
AcDbPolyline
 90
1
 70
1
 10
17.091655
 20
6.642179
 30
0.0
  0
SPLINE
  5
15b
100
AcDbEntity
  8
Layer_1
 62
7
100
AcDbSpline
 70
8
 71
3
 72
8
 73
4
 74
0
 40
0
 40
0
 40
0
 40
0
 40
1
 40
1
 40
1
 40
1
 10
10.575915
 20
5.716983
 30
0.0
 10
10.575915
 20
5.751773
 30
0.0
 10
10.547712
 20
5.779975
 30
0.0
 10
10.512923
 20
5.779975
 30
0.0
  0
SPLINE
  5
15c
100
AcDbEntity
  8
Layer_1
 62
7
100
AcDbSpline
 70
8
 71
3
 72
8
 73
4
 74
0
 40
0
 40
0
 40
0
 40
0
 40
1
 40
1
 40
1
 40
1
 10
10.512923
 20
5.779975
 30
0.0
 10
10.478133
 20
5.779975
 30
0.0
 10
10.449931
 20
5.751773
 30
0.0
 10
10.449931
 20
5.716983
 30
0.0
  0
SPLINE
  5
15d
100
AcDbEntity
  8
Layer_1
 62
7
100
AcDbSpline
 70
8
 71
3
 72
8
 73
4
 74
0
 40
0
 40
0
 40
0
 40
0
 40
1
 40
1
 40
1
 40
1
 10
10.449931
 20
5.716983
 30
0.0
 10
10.449931
 20
5.682193
 30
0.0
 10
10.478133
 20
5.653991
 30
0.0
 10
10.512923
 20
5.653991
 30
0.0
  0
SPLINE
  5
15e
100
AcDbEntity
  8
Layer_1
 62
7
100
AcDbSpline
 70
8
 71
3
 72
8
 73
4
 74
0
 40
0
 40
0
 40
0
 40
0
 40
1
 40
1
 40
1
 40
1
 10
10.512923
 20
5.653991
 30
0.0
 10
10.547712
 20
5.653991
 30
0.0
 10
10.575915
 20
5.682193
 30
0.0
 10
10.575915
 20
5.716983
 30
0.0
  0
LWPOLYLINE
  5
15f
100
AcDbEntity
  8
Layer_1
 62
7
100
AcDbPolyline
 90
1
 70
1
 10
18.705826
 20
4.791787
 30
0.0
  0
SPLINE
  5
160
100
AcDbEntity
  8
Layer_1
 62
7
100
AcDbSpline
 70
8
 71
3
 72
8
 73
4
 74
0
 40
0
 40
0
 40
0
 40
0
 40
1
 40
1
 40
1
 40
1
 10
22.403492
 20
10.972882
 30
0.0
 10
21.377959
 20
10.525765
 30
0.0
 10
20.806720
 20
9.420556
 30
0.0
 10
21.035087
 20
8.325348
 30
0.0
  0
SPLINE
  5
161
100
AcDbEntity
  8
Layer_1
 62
7
100
AcDbSpline
 70
8
 71
3
 72
8
 73
4
 74
0
 40
0
 40
0
 40
0
 40
0
 40
1
 40
1
 40
1
 40
1
 10
21.035087
 20
8.325348
 30
0.0
 10
21.263454
 20
7.230140
 30
0.0
 10
22.228789
 20
6.445329
 30
0.0
 10
23.347552
 20
6.445329
 30
0.0
  0
SPLINE
  5
162
100
AcDbEntity
  8
Layer_1
 62
7
100
AcDbSpline
 70
8
 71
3
 72
8
 73
4
 74
0
 40
0
 40
0
 40
0
 40
0
 40
1
 40
1
 40
1
 40
1
 10
23.347552
 20
6.445329
 30
0.0
 10
24.466316
 20
6.445329
 30
0.0
 10
25.431651
 20
7.230140
 30
0.0
 10
25.660018
 20
8.325348
 30
0.0
  0
SPLINE
  5
163
100
AcDbEntity
  8
Layer_1
 62
7
100
AcDbSpline
 70
8
 71
3
 72
8
 73
4
 74
0
 40
0
 40
0
 40
0
 40
0
 40
1
 40
1
 40
1
 40
1
 10
25.660018
 20
8.325348
 30
0.0
 10
25.888385
 20
9.420556
 30
0.0
 10
25.317146
 20
10.525765
 30
0.0
 10
24.291613
 20
10.972882
 30
0.0
  0
LWPOLYLINE
  5
164
100
AcDbEntity
  8
Layer_1
 62
7
100
AcDbPolyline
 90
1
 70
1
 10
10.575915
 20
5.716983
 30
0.0
  0
SPLINE
  5
165
100
AcDbEntity
  8
Layer_1
 62
7
100
AcDbSpline
 70
8
 71
3
 72
8
 73
4
 74
0
 40
0
 40
0
 40
0
 40
0
 40
1
 40
1
 40
1
 40
1
 10
28.382974
 20
11.468360
 30
0.0
 10
28.382873
 20
11.578365
 30
0.0
 10
28.293668
 20
11.667488
 30
0.0
 10
28.183663
 20
11.667488
 30
0.0
  0
SPLINE
  5
166
100
AcDbEntity
  8
Layer_1
 62
7
100
AcDbSpline
 70
8
 71
3
 72
8
 73
4
 74
0
 40
0
 40
0
 40
0
 40
0
 40
1
 40
1
 40
1
 40
1
 10
28.183663
 20
11.667488
 30
0.0
 10
28.073658
 20
11.667488
 30
0.0
 10
27.984453
 20
11.578365
 30
0.0
 10
27.984352
 20
11.468360
 30
0.0
  0
SPLINE
  5
167
100
AcDbEntity
  8
Layer_1
 62
7
100
AcDbSpline
 70
8
 71
3
 72
8
 73
4
 74
0
 40
0
 40
0
 40
0
 40
0
 40
1
 40
1
 40
1
 40
1
 10
27.984352
 20
11.468360
 30
0.0
 10
27.984453
 20
11.358355
 30
0.0
 10
28.073658
 20
11.269231
 30
0.0
 10
28.183663
 20
11.269231
 30
0.0
  0
SPLINE
  5
168
100
AcDbEntity
  8
Layer_1
 62
7
100
AcDbSpline
 70
8
 71
3
 72
8
 73
4
 74
0
 40
0
 40
0
 40
0
 40
0
 40
1
 40
1
 40
1
 40
1
 10
28.183663
 20
11.269231
 30
0.0
 10
28.293668
 20
11.269231
 30
0.0
 10
28.382873
 20
11.358355
 30
0.0
 10
28.382974
 20
11.468360
 30
0.0
  0
LWPOLYLINE
  5
169
100
AcDbEntity
  8
Layer_1
 62
7
100
AcDbPolyline
 90
2
 70
0
 10
24.291613
 20
10.972882
 30
0.0
 10
22.403492
 20
10.972882
 30
0.0
  0
SPLINE
  5
16a
100
AcDbEntity
  8
Layer_1
 62
7
100
AcDbSpline
 70
8
 71
3
 72
8
 73
4
 74
0
 40
0
 40
0
 40
0
 40
0
 40
1
 40
1
 40
1
 40
1
 10
33.505756
 20
1.222797
 30
0.0
 10
33.505756
 20
1.294004
 30
0.0
 10
33.467767
 20
1.359802
 30
0.0
 10
33.406100
 20
1.395406
 30
0.0
  0
SPLINE
  5
16b
100
AcDbEntity
  8
Layer_1
 62
7
100
AcDbSpline
 70
8
 71
3
 72
8
 73
4
 74
0
 40
0
 40
0
 40
0
 40
0
 40
1
 40
1
 40
1
 40
1
 10
33.406100
 20
1.395406
 30
0.0
 10
33.344433
 20
1.431009
 30
0.0
 10
33.268456
 20
1.431009
 30
0.0
 10
33.206789
 20
1.395406
 30
0.0
  0
SPLINE
  5
16c
100
AcDbEntity
  8
Layer_1
 62
7
100
AcDbSpline
 70
8
 71
3
 72
8
 73
4
 74
0
 40
0
 40
0
 40
0
 40
0
 40
1
 40
1
 40
1
 40
1
 10
33.206789
 20
1.395406
 30
0.0
 10
33.145122
 20
1.359802
 30
0.0
 10
33.107134
 20
1.294004
 30
0.0
 10
33.107134
 20
1.222797
 30
0.0
  0
SPLINE
  5
16d
100
AcDbEntity
  8
Layer_1
 62
7
100
AcDbSpline
 70
8
 71
3
 72
8
 73
4
 74
0
 40
0
 40
0
 40
0
 40
0
 40
1
 40
1
 40
1
 40
1
 10
33.107134
 20
1.222797
 30
0.0
 10
33.107134
 20
1.151590
 30
0.0
 10
33.145122
 20
1.085792
 30
0.0
 10
33.206789
 20
1.050188
 30
0.0
  0
SPLINE
  5
16e
100
AcDbEntity
  8
Layer_1
 62
7
100
AcDbSpline
 70
8
 71
3
 72
8
 73
4
 74
0
 40
0
 40
0
 40
0
 40
0
 40
1
 40
1
 40
1
 40
1
 10
33.206789
 20
1.050188
 30
0.0
 10
33.268456
 20
1.014585
 30
0.0
 10
33.344433
 20
1.014585
 30
0.0
 10
33.406100
 20
1.050188
 30
0.0
  0
SPLINE
  5
16f
100
AcDbEntity
  8
Layer_1
 62
7
100
AcDbSpline
 70
8
 71
3
 72
8
 73
4
 74
0
 40
0
 40
0
 40
0
 40
0
 40
1
 40
1
 40
1
 40
1
 10
33.406100
 20
1.050188
 30
0.0
 10
33.467767
 20
1.085792
 30
0.0
 10
33.505756
 20
1.151590
 30
0.0
 10
33.505756
 20
1.222797
 30
0.0
  0
LWPOLYLINE
  5
170
100
AcDbEntity
  8
Layer_1
 62
7
100
AcDbPolyline
 90
1
 70
1
 10
28.382974
 20
11.468360
 30
0.0
  0
SPLINE
  5
171
100
AcDbEntity
  8
Layer_1
 62
7
100
AcDbSpline
 70
8
 71
3
 72
8
 73
4
 74
0
 40
0
 40
0
 40
0
 40
0
 40
1
 40
1
 40
1
 40
1
 10
4.467110
 20
0.900793
 30
0.0
 10
4.467009
 20
1.010798
 30
0.0
 10
4.377804
 20
1.099922
 30
0.0
 10
4.267799
 20
1.099922
 30
0.0
  0
SPLINE
  5
172
100
AcDbEntity
  8
Layer_1
 62
7
100
AcDbSpline
 70
8
 71
3
 72
8
 73
4
 74
0
 40
0
 40
0
 40
0
 40
0
 40
1
 40
1
 40
1
 40
1
 10
4.267799
 20
1.099922
 30
0.0
 10
4.157794
 20
1.099922
 30
0.0
 10
4.068589
 20
1.010798
 30
0.0
 10
4.068488
 20
0.900793
 30
0.0
  0
SPLINE
  5
173
100
AcDbEntity
  8
Layer_1
 62
7
100
AcDbSpline
 70
8
 71
3
 72
8
 73
4
 74
0
 40
0
 40
0
 40
0
 40
0
 40
1
 40
1
 40
1
 40
1
 10
4.068488
 20
0.900793
 30
0.0
 10
4.068589
 20
0.790788
 30
0.0
 10
4.157794
 20
0.701665
 30
0.0
 10
4.267799
 20
0.701665
 30
0.0
  0
SPLINE
  5
174
100
AcDbEntity
  8
Layer_1
 62
7
100
AcDbSpline
 70
8
 71
3
 72
8
 73
4
 74
0
 40
0
 40
0
 40
0
 40
0
 40
1
 40
1
 40
1
 40
1
 10
4.267799
 20
0.701665
 30
0.0
 10
4.377804
 20
0.701665
 30
0.0
 10
4.467009
 20
0.790788
 30
0.0
 10
4.467110
 20
0.900793
 30
0.0
  0
LWPOLYLINE
  5
175
100
AcDbEntity
  8
Layer_1
 62
7
100
AcDbPolyline
 90
1
 70
1
 10
33.505756
 20
1.222797
 30
0.0
  0
SPLINE
  5
176
100
AcDbEntity
  8
Layer_1
 62
7
100
AcDbSpline
 70
8
 71
3
 72
8
 73
4
 74
0
 40
0
 40
0
 40
0
 40
0
 40
1
 40
1
 40
1
 40
1
 10
29.817353
 20
11.409814
 30
0.0
 10
29.817353
 20
11.481021
 30
0.0
 10
29.779365
 20
11.546819
 30
0.0
 10
29.717698
 20
11.582422
 30
0.0
  0
SPLINE
  5
177
100
AcDbEntity
  8
Layer_1
 62
7
100
AcDbSpline
 70
8
 71
3
 72
8
 73
4
 74
0
 40
0
 40
0
 40
0
 40
0
 40
1
 40
1
 40
1
 40
1
 10
29.717698
 20
11.582422
 30
0.0
 10
29.656031
 20
11.618026
 30
0.0
 10
29.580054
 20
11.618026
 30
0.0
 10
29.518386
 20
11.582422
 30
0.0
  0
SPLINE
  5
178
100
AcDbEntity
  8
Layer_1
 62
7
100
AcDbSpline
 70
8
 71
3
 72
8
 73
4
 74
0
 40
0
 40
0
 40
0
 40
0
 40
1
 40
1
 40
1
 40
1
 10
29.518386
 20
11.582422
 30
0.0
 10
29.456719
 20
11.546819
 30
0.0
 10
29.418731
 20
11.481021
 30
0.0
 10
29.418731
 20
11.409814
 30
0.0
  0
SPLINE
  5
179
100
AcDbEntity
  8
Layer_1
 62
7
100
AcDbSpline
 70
8
 71
3
 72
8
 73
4
 74
0
 40
0
 40
0
 40
0
 40
0
 40
1
 40
1
 40
1
 40
1
 10
29.418731
 20
11.409814
 30
0.0
 10
29.418731
 20
11.338607
 30
0.0
 10
29.456719
 20
11.272809
 30
0.0
 10
29.518386
 20
11.237205
 30
0.0
  0
SPLINE
  5
17a
100
AcDbEntity
  8
Layer_1
 62
7
100
AcDbSpline
 70
8
 71
3
 72
8
 73
4
 74
0
 40
0
 40
0
 40
0
 40
0
 40
1
 40
1
 40
1
 40
1
 10
29.518386
 20
11.237205
 30
0.0
 10
29.580054
 20
11.201602
 30
0.0
 10
29.656031
 20
11.201602
 30
0.0
 10
29.717698
 20
11.237205
 30
0.0
  0
SPLINE
  5
17b
100
AcDbEntity
  8
Layer_1
 62
7
100
AcDbSpline
 70
8
 71
3
 72
8
 73
4
 74
0
 40
0
 40
0
 40
0
 40
0
 40
1
 40
1
 40
1
 40
1
 10
29.717698
 20
11.237205
 30
0.0
 10
29.779365
 20
11.272809
 30
0.0
 10
29.817353
 20
11.338607
 30
0.0
 10
29.817353
 20
11.409814
 30
0.0
  0
LWPOLYLINE
  5
17c
100
AcDbEntity
  8
Layer_1
 62
7
100
AcDbPolyline
 90
1
 70
1
 10
4.467110
 20
0.900793
 30
0.0
  0
SPLINE
  5
17d
100
AcDbEntity
  8
Layer_1
 62
7
100
AcDbSpline
 70
8
 71
3
 72
8
 73
4
 74
0
 40
0
 40
0
 40
0
 40
0
 40
1
 40
1
 40
1
 40
1
 10
31.603008
 20
0.900793
 30
0.0
 10
31.602908
 20
1.010798
 30
0.0
 10
31.513703
 20
1.099922
 30
0.0
 10
31.403698
 20
1.099922
 30
0.0
  0
SPLINE
  5
17e
100
AcDbEntity
  8
Layer_1
 62
7
100
AcDbSpline
 70
8
 71
3
 72
8
 73
4
 74
0
 40
0
 40
0
 40
0
 40
0
 40
1
 40
1
 40
1
 40
1
 10
31.403698
 20
1.099922
 30
0.0
 10
31.293692
 20
1.099922
 30
0.0
 10
31.204488
 20
1.010798
 30
0.0
 10
31.204387
 20
0.900793
 30
0.0
  0
SPLINE
  5
17f
100
AcDbEntity
  8
Layer_1
 62
7
100
AcDbSpline
 70
8
 71
3
 72
8
 73
4
 74
0
 40
0
 40
0
 40
0
 40
0
 40
1
 40
1
 40
1
 40
1
 10
31.204387
 20
0.900793
 30
0.0
 10
31.204488
 20
0.790788
 30
0.0
 10
31.293692
 20
0.701665
 30
0.0
 10
31.403698
 20
0.701665
 30
0.0
  0
SPLINE
  5
180
100
AcDbEntity
  8
Layer_1
 62
7
100
AcDbSpline
 70
8
 71
3
 72
8
 73
4
 74
0
 40
0
 40
0
 40
0
 40
0
 40
1
 40
1
 40
1
 40
1
 10
31.403698
 20
0.701665
 30
0.0
 10
31.513703
 20
0.701665
 30
0.0
 10
31.602908
 20
0.790788
 30
0.0
 10
31.603008
 20
0.900793
 30
0.0
  0
LWPOLYLINE
  5
181
100
AcDbEntity
  8
Layer_1
 62
7
100
AcDbPolyline
 90
1
 70
1
 10
29.817353
 20
11.409814
 30
0.0
  0
SPLINE
  5
182
100
AcDbEntity
  8
Layer_1
 62
7
100
AcDbSpline
 70
8
 71
3
 72
8
 73
4
 74
0
 40
0
 40
0
 40
0
 40
0
 40
1
 40
1
 40
1
 40
1
 10
7.687144
 20
11.468360
 30
0.0
 10
7.687044
 20
11.578365
 30
0.0
 10
7.597839
 20
11.667488
 30
0.0
 10
7.487834
 20
11.667488
 30
0.0
  0
SPLINE
  5
183
100
AcDbEntity
  8
Layer_1
 62
7
100
AcDbSpline
 70
8
 71
3
 72
8
 73
4
 74
0
 40
0
 40
0
 40
0
 40
0
 40
1
 40
1
 40
1
 40
1
 10
7.487834
 20
11.667488
 30
0.0
 10
7.377828
 20
11.667488
 30
0.0
 10
7.288623
 20
11.578365
 30
0.0
 10
7.288523
 20
11.468360
 30
0.0
  0
SPLINE
  5
184
100
AcDbEntity
  8
Layer_1
 62
7
100
AcDbSpline
 70
8
 71
3
 72
8
 73
4
 74
0
 40
0
 40
0
 40
0
 40
0
 40
1
 40
1
 40
1
 40
1
 10
7.288523
 20
11.468360
 30
0.0
 10
7.288623
 20
11.358355
 30
0.0
 10
7.377828
 20
11.269231
 30
0.0
 10
7.487834
 20
11.269231
 30
0.0
  0
SPLINE
  5
185
100
AcDbEntity
  8
Layer_1
 62
7
100
AcDbSpline
 70
8
 71
3
 72
8
 73
4
 74
0
 40
0
 40
0
 40
0
 40
0
 40
1
 40
1
 40
1
 40
1
 10
7.487834
 20
11.269231
 30
0.0
 10
7.597839
 20
11.269231
 30
0.0
 10
7.687044
 20
11.358355
 30
0.0
 10
7.687144
 20
11.468360
 30
0.0
  0
LWPOLYLINE
  5
186
100
AcDbEntity
  8
Layer_1
 62
7
100
AcDbPolyline
 90
1
 70
1
 10
31.603008
 20
0.900793
 30
0.0
  0
SPLINE
  5
187
100
AcDbEntity
  8
Layer_1
 62
7
100
AcDbSpline
 70
8
 71
3
 72
8
 73
4
 74
0
 40
0
 40
0
 40
0
 40
0
 40
1
 40
1
 40
1
 40
1
 10
34.979428
 20
3.295727
 30
0.0
 10
34.979428
 20
3.316122
 30
0.0
 10
34.968547
 20
3.334968
 30
0.0
 10
34.950885
 20
3.345165
 30
0.0
  0
SPLINE
  5
188
100
AcDbEntity
  8
Layer_1
 62
7
100
AcDbSpline
 70
8
 71
3
 72
8
 73
4
 74
0
 40
0
 40
0
 40
0
 40
0
 40
1
 40
1
 40
1
 40
1
 10
34.950885
 20
3.345165
 30
0.0
 10
34.933222
 20
3.355363
 30
0.0
 10
34.911460
 20
3.355363
 30
0.0
 10
34.893798
 20
3.345165
 30
0.0
  0
SPLINE
  5
189
100
AcDbEntity
  8
Layer_1
 62
7
100
AcDbSpline
 70
8
 71
3
 72
8
 73
4
 74
0
 40
0
 40
0
 40
0
 40
0
 40
1
 40
1
 40
1
 40
1
 10
34.893798
 20
3.345165
 30
0.0
 10
34.876135
 20
3.334968
 30
0.0
 10
34.865254
 20
3.316122
 30
0.0
 10
34.865254
 20
3.295727
 30
0.0
  0
SPLINE
  5
18a
100
AcDbEntity
  8
Layer_1
 62
7
100
AcDbSpline
 70
8
 71
3
 72
8
 73
4
 74
0
 40
0
 40
0
 40
0
 40
0
 40
1
 40
1
 40
1
 40
1
 10
34.865254
 20
3.295727
 30
0.0
 10
34.865254
 20
3.275331
 30
0.0
 10
34.876135
 20
3.256486
 30
0.0
 10
34.893798
 20
3.246288
 30
0.0
  0
SPLINE
  5
18b
100
AcDbEntity
  8
Layer_1
 62
7
100
AcDbSpline
 70
8
 71
3
 72
8
 73
4
 74
0
 40
0
 40
0
 40
0
 40
0
 40
1
 40
1
 40
1
 40
1
 10
34.893798
 20
3.246288
 30
0.0
 10
34.911460
 20
3.236090
 30
0.0
 10
34.933222
 20
3.236090
 30
0.0
 10
34.950885
 20
3.246288
 30
0.0
  0
SPLINE
  5
18c
100
AcDbEntity
  8
Layer_1
 62
7
100
AcDbSpline
 70
8
 71
3
 72
8
 73
4
 74
0
 40
0
 40
0
 40
0
 40
0
 40
1
 40
1
 40
1
 40
1
 10
34.950885
 20
3.246288
 30
0.0
 10
34.968547
 20
3.256486
 30
0.0
 10
34.979428
 20
3.275331
 30
0.0
 10
34.979428
 20
3.295727
 30
0.0
  0
LWPOLYLINE
  5
18d
100
AcDbEntity
  8
Layer_1
 62
7
100
AcDbPolyline
 90
1
 70
1
 10
7.687144
 20
11.468360
 30
0.0
  0
SPLINE
  5
18e
100
AcDbEntity
  8
Layer_1
 62
7
100
AcDbSpline
 70
8
 71
3
 72
8
 73
4
 74
0
 40
0
 40
0
 40
0
 40
0
 40
1
 40
1
 40
1
 40
1
 10
9.625129
 20
11.327213
 30
0.0
 10
9.625129
 20
11.347608
 30
0.0
 10
9.614248
 20
11.366453
 30
0.0
 10
9.596585
 20
11.376651
 30
0.0
  0
SPLINE
  5
18f
100
AcDbEntity
  8
Layer_1
 62
7
100
AcDbSpline
 70
8
 71
3
 72
8
 73
4
 74
0
 40
0
 40
0
 40
0
 40
0
 40
1
 40
1
 40
1
 40
1
 10
9.596585
 20
11.376651
 30
0.0
 10
9.578923
 20
11.386849
 30
0.0
 10
9.557161
 20
11.386849
 30
0.0
 10
9.539499
 20
11.376651
 30
0.0
  0
SPLINE
  5
190
100
AcDbEntity
  8
Layer_1
 62
7
100
AcDbSpline
 70
8
 71
3
 72
8
 73
4
 74
0
 40
0
 40
0
 40
0
 40
0
 40
1
 40
1
 40
1
 40
1
 10
9.539499
 20
11.376651
 30
0.0
 10
9.521836
 20
11.366453
 30
0.0
 10
9.510956
 20
11.347608
 30
0.0
 10
9.510956
 20
11.327213
 30
0.0
  0
SPLINE
  5
191
100
AcDbEntity
  8
Layer_1
 62
7
100
AcDbSpline
 70
8
 71
3
 72
8
 73
4
 74
0
 40
0
 40
0
 40
0
 40
0
 40
1
 40
1
 40
1
 40
1
 10
9.510956
 20
11.327213
 30
0.0
 10
9.510956
 20
11.306818
 30
0.0
 10
9.521836
 20
11.287972
 30
0.0
 10
9.539499
 20
11.277774
 30
0.0
  0
SPLINE
  5
192
100
AcDbEntity
  8
Layer_1
 62
7
100
AcDbSpline
 70
8
 71
3
 72
8
 73
4
 74
0
 40
0
 40
0
 40
0
 40
0
 40
1
 40
1
 40
1
 40
1
 10
9.539499
 20
11.277774
 30
0.0
 10
9.557161
 20
11.267577
 30
0.0
 10
9.578923
 20
11.267577
 30
0.0
 10
9.596585
 20
11.277774
 30
0.0
  0
SPLINE
  5
193
100
AcDbEntity
  8
Layer_1
 62
7
100
AcDbSpline
 70
8
 71
3
 72
8
 73
4
 74
0
 40
0
 40
0
 40
0
 40
0
 40
1
 40
1
 40
1
 40
1
 10
9.596585
 20
11.277774
 30
0.0
 10
9.614248
 20
11.287972
 30
0.0
 10
9.625129
 20
11.306818
 30
0.0
 10
9.625129
 20
11.327213
 30
0.0
  0
LWPOLYLINE
  5
194
100
AcDbEntity
  8
Layer_1
 62
7
100
AcDbPolyline
 90
1
 70
1
 10
34.979428
 20
3.295727
 30
0.0
  0
SPLINE
  5
195
100
AcDbEntity
  8
Layer_1
 62
7
100
AcDbSpline
 70
8
 71
3
 72
8
 73
4
 74
0
 40
0
 40
0
 40
0
 40
0
 40
1
 40
1
 40
1
 40
1
 10
28.916443
 20
0.776044
 30
0.0
 10
28.916369
 20
0.807520
 30
0.0
 10
28.890832
 20
0.832997
 30
0.0
 10
28.859356
 20
0.832997
 30
0.0
  0
SPLINE
  5
196
100
AcDbEntity
  8
Layer_1
 62
7
100
AcDbSpline
 70
8
 71
3
 72
8
 73
4
 74
0
 40
0
 40
0
 40
0
 40
0
 40
1
 40
1
 40
1
 40
1
 10
28.859356
 20
0.832997
 30
0.0
 10
28.827881
 20
0.832997
 30
0.0
 10
28.802344
 20
0.807520
 30
0.0
 10
28.802270
 20
0.776044
 30
0.0
  0
SPLINE
  5
197
100
AcDbEntity
  8
Layer_1
 62
7
100
AcDbSpline
 70
8
 71
3
 72
8
 73
4
 74
0
 40
0
 40
0
 40
0
 40
0
 40
1
 40
1
 40
1
 40
1
 10
28.802270
 20
0.776044
 30
0.0
 10
28.802344
 20
0.744569
 30
0.0
 10
28.827881
 20
0.719091
 30
0.0
 10
28.859356
 20
0.719091
 30
0.0
  0
SPLINE
  5
198
100
AcDbEntity
  8
Layer_1
 62
7
100
AcDbSpline
 70
8
 71
3
 72
8
 73
4
 74
0
 40
0
 40
0
 40
0
 40
0
 40
1
 40
1
 40
1
 40
1
 10
28.859356
 20
0.719091
 30
0.0
 10
28.890832
 20
0.719091
 30
0.0
 10
28.916369
 20
0.744569
 30
0.0
 10
28.916443
 20
0.776044
 30
0.0
  0
LWPOLYLINE
  5
199
100
AcDbEntity
  8
Layer_1
 62
7
100
AcDbPolyline
 90
1
 70
1
 10
9.625129
 20
11.327213
 30
0.0
  0
SPLINE
  5
19a
100
AcDbEntity
  8
Layer_1
 62
7
100
AcDbSpline
 70
8
 71
3
 72
8
 73
4
 74
0
 40
0
 40
0
 40
0
 40
0
 40
1
 40
1
 40
1
 40
1
 10
17.892835
 20
0.776044
 30
0.0
 10
17.892835
 20
0.796439
 30
0.0
 10
17.881954
 20
0.815285
 30
0.0
 10
17.864292
 20
0.825483
 30
0.0
  0
SPLINE
  5
19b
100
AcDbEntity
  8
Layer_1
 62
7
100
AcDbSpline
 70
8
 71
3
 72
8
 73
4
 74
0
 40
0
 40
0
 40
0
 40
0
 40
1
 40
1
 40
1
 40
1
 10
17.864292
 20
0.825483
 30
0.0
 10
17.846629
 20
0.835680
 30
0.0
 10
17.824868
 20
0.835680
 30
0.0
 10
17.807205
 20
0.825483
 30
0.0
  0
SPLINE
  5
19c
100
AcDbEntity
  8
Layer_1
 62
7
100
AcDbSpline
 70
8
 71
3
 72
8
 73
4
 74
0
 40
0
 40
0
 40
0
 40
0
 40
1
 40
1
 40
1
 40
1
 10
17.807205
 20
0.825483
 30
0.0
 10
17.789542
 20
0.815285
 30
0.0
 10
17.778662
 20
0.796439
 30
0.0
 10
17.778662
 20
0.776044
 30
0.0
  0
SPLINE
  5
19d
100
AcDbEntity
  8
Layer_1
 62
7
100
AcDbSpline
 70
8
 71
3
 72
8
 73
4
 74
0
 40
0
 40
0
 40
0
 40
0
 40
1
 40
1
 40
1
 40
1
 10
17.778662
 20
0.776044
 30
0.0
 10
17.778662
 20
0.755649
 30
0.0
 10
17.789542
 20
0.736804
 30
0.0
 10
17.807205
 20
0.726606
 30
0.0
  0
SPLINE
  5
19e
100
AcDbEntity
  8
Layer_1
 62
7
100
AcDbSpline
 70
8
 71
3
 72
8
 73
4
 74
0
 40
0
 40
0
 40
0
 40
0
 40
1
 40
1
 40
1
 40
1
 10
17.807205
 20
0.726606
 30
0.0
 10
17.824868
 20
0.716408
 30
0.0
 10
17.846629
 20
0.716408
 30
0.0
 10
17.864292
 20
0.726606
 30
0.0
  0
SPLINE
  5
19f
100
AcDbEntity
  8
Layer_1
 62
7
100
AcDbSpline
 70
8
 71
3
 72
8
 73
4
 74
0
 40
0
 40
0
 40
0
 40
0
 40
1
 40
1
 40
1
 40
1
 10
17.864292
 20
0.726606
 30
0.0
 10
17.881954
 20
0.736804
 30
0.0
 10
17.892835
 20
0.755649
 30
0.0
 10
17.892835
 20
0.776044
 30
0.0
  0
LWPOLYLINE
  5
1a0
100
AcDbEntity
  8
Layer_1
 62
7
100
AcDbPolyline
 90
1
 70
1
 10
28.916443
 20
0.776044
 30
0.0
  0
SPLINE
  5
1a1
100
AcDbEntity
  8
Layer_1
 62
7
100
AcDbSpline
 70
8
 71
3
 72
8
 73
4
 74
0
 40
0
 40
0
 40
0
 40
0
 40
1
 40
1
 40
1
 40
1
 10
23.404639
 20
0.776044
 30
0.0
 10
23.404639
 20
0.796439
 30
0.0
 10
23.393758
 20
0.815285
 30
0.0
 10
23.376096
 20
0.825483
 30
0.0
  0
SPLINE
  5
1a2
100
AcDbEntity
  8
Layer_1
 62
7
100
AcDbSpline
 70
8
 71
3
 72
8
 73
4
 74
0
 40
0
 40
0
 40
0
 40
0
 40
1
 40
1
 40
1
 40
1
 10
23.376096
 20
0.825483
 30
0.0
 10
23.358433
 20
0.835680
 30
0.0
 10
23.336672
 20
0.835680
 30
0.0
 10
23.319009
 20
0.825483
 30
0.0
  0
SPLINE
  5
1a3
100
AcDbEntity
  8
Layer_1
 62
7
100
AcDbSpline
 70
8
 71
3
 72
8
 73
4
 74
0
 40
0
 40
0
 40
0
 40
0
 40
1
 40
1
 40
1
 40
1
 10
23.319009
 20
0.825483
 30
0.0
 10
23.301347
 20
0.815285
 30
0.0
 10
23.290466
 20
0.796439
 30
0.0
 10
23.290466
 20
0.776044
 30
0.0
  0
SPLINE
  5
1a4
100
AcDbEntity
  8
Layer_1
 62
7
100
AcDbSpline
 70
8
 71
3
 72
8
 73
4
 74
0
 40
0
 40
0
 40
0
 40
0
 40
1
 40
1
 40
1
 40
1
 10
23.290466
 20
0.776044
 30
0.0
 10
23.290466
 20
0.755649
 30
0.0
 10
23.301347
 20
0.736804
 30
0.0
 10
23.319009
 20
0.726606
 30
0.0
  0
SPLINE
  5
1a5
100
AcDbEntity
  8
Layer_1
 62
7
100
AcDbSpline
 70
8
 71
3
 72
8
 73
4
 74
0
 40
0
 40
0
 40
0
 40
0
 40
1
 40
1
 40
1
 40
1
 10
23.319009
 20
0.726606
 30
0.0
 10
23.336672
 20
0.716408
 30
0.0
 10
23.358433
 20
0.716408
 30
0.0
 10
23.376096
 20
0.726606
 30
0.0
  0
SPLINE
  5
1a6
100
AcDbEntity
  8
Layer_1
 62
7
100
AcDbSpline
 70
8
 71
3
 72
8
 73
4
 74
0
 40
0
 40
0
 40
0
 40
0
 40
1
 40
1
 40
1
 40
1
 10
23.376096
 20
0.726606
 30
0.0
 10
23.393758
 20
0.736804
 30
0.0
 10
23.404639
 20
0.755649
 30
0.0
 10
23.404639
 20
0.776044
 30
0.0
  0
LWPOLYLINE
  5
1a7
100
AcDbEntity
  8
Layer_1
 62
7
100
AcDbPolyline
 90
1
 70
1
 10
17.892835
 20
0.776044
 30
0.0
  0
SPLINE
  5
1a8
100
AcDbEntity
  8
Layer_1
 62
7
100
AcDbSpline
 70
8
 71
3
 72
8
 73
4
 74
0
 40
0
 40
0
 40
0
 40
0
 40
1
 40
1
 40
1
 40
1
 10
15.136933
 20
11.327213
 30
0.0
 10
15.136933
 20
11.358741
 30
0.0
 10
15.111374
 20
11.384299
 30
0.0
 10
15.079846
 20
11.384299
 30
0.0
  0
SPLINE
  5
1a9
100
AcDbEntity
  8
Layer_1
 62
7
100
AcDbSpline
 70
8
 71
3
 72
8
 73
4
 74
0
 40
0
 40
0
 40
0
 40
0
 40
1
 40
1
 40
1
 40
1
 10
15.079846
 20
11.384299
 30
0.0
 10
15.048318
 20
11.384299
 30
0.0
 10
15.022760
 20
11.358741
 30
0.0
 10
15.022760
 20
11.327213
 30
0.0
  0
SPLINE
  5
1aa
100
AcDbEntity
  8
Layer_1
 62
7
100
AcDbSpline
 70
8
 71
3
 72
8
 73
4
 74
0
 40
0
 40
0
 40
0
 40
0
 40
1
 40
1
 40
1
 40
1
 10
15.022760
 20
11.327213
 30
0.0
 10
15.022760
 20
11.306818
 30
0.0
 10
15.033640
 20
11.287972
 30
0.0
 10
15.051303
 20
11.277774
 30
0.0
  0
SPLINE
  5
1ab
100
AcDbEntity
  8
Layer_1
 62
7
100
AcDbSpline
 70
8
 71
3
 72
8
 73
4
 74
0
 40
0
 40
0
 40
0
 40
0
 40
1
 40
1
 40
1
 40
1
 10
15.051303
 20
11.277774
 30
0.0
 10
15.068966
 20
11.267577
 30
0.0
 10
15.090727
 20
11.267577
 30
0.0
 10
15.108390
 20
11.277774
 30
0.0
  0
SPLINE
  5
1ac
100
AcDbEntity
  8
Layer_1
 62
7
100
AcDbSpline
 70
8
 71
3
 72
8
 73
4
 74
0
 40
0
 40
0
 40
0
 40
0
 40
1
 40
1
 40
1
 40
1
 10
15.108390
 20
11.277774
 30
0.0
 10
15.126052
 20
11.287972
 30
0.0
 10
15.136933
 20
11.306818
 30
0.0
 10
15.136933
 20
11.327213
 30
0.0
  0
LWPOLYLINE
  5
1ad
100
AcDbEntity
  8
Layer_1
 62
7
100
AcDbPolyline
 90
1
 70
1
 10
23.404639
 20
0.776044
 30
0.0
  0
SPLINE
  5
1ae
100
AcDbEntity
  8
Layer_1
 62
7
100
AcDbSpline
 70
8
 71
3
 72
8
 73
4
 74
0
 40
0
 40
0
 40
0
 40
0
 40
1
 40
1
 40
1
 40
1
 10
31.672346
 20
11.012863
 30
0.0
 10
31.672346
 20
11.033258
 30
0.0
 10
31.661465
 20
11.052104
 30
0.0
 10
31.643802
 20
11.062301
 30
0.0
  0
SPLINE
  5
1af
100
AcDbEntity
  8
Layer_1
 62
7
100
AcDbSpline
 70
8
 71
3
 72
8
 73
4
 74
0
 40
0
 40
0
 40
0
 40
0
 40
1
 40
1
 40
1
 40
1
 10
31.643802
 20
11.062301
 30
0.0
 10
31.626139
 20
11.072499
 30
0.0
 10
31.604378
 20
11.072499
 30
0.0
 10
31.586715
 20
11.062301
 30
0.0
  0
SPLINE
  5
1b0
100
AcDbEntity
  8
Layer_1
 62
7
100
AcDbSpline
 70
8
 71
3
 72
8
 73
4
 74
0
 40
0
 40
0
 40
0
 40
0
 40
1
 40
1
 40
1
 40
1
 10
31.586715
 20
11.062301
 30
0.0
 10
31.569053
 20
11.052104
 30
0.0
 10
31.558172
 20
11.033258
 30
0.0
 10
31.558172
 20
11.012863
 30
0.0
  0
SPLINE
  5
1b1
100
AcDbEntity
  8
Layer_1
 62
7
100
AcDbSpline
 70
8
 71
3
 72
8
 73
4
 74
0
 40
0
 40
0
 40
0
 40
0
 40
1
 40
1
 40
1
 40
1
 10
31.558172
 20
11.012863
 30
0.0
 10
31.558172
 20
10.992468
 30
0.0
 10
31.569053
 20
10.973622
 30
0.0
 10
31.586715
 20
10.963424
 30
0.0
  0
SPLINE
  5
1b2
100
AcDbEntity
  8
Layer_1
 62
7
100
AcDbSpline
 70
8
 71
3
 72
8
 73
4
 74
0
 40
0
 40
0
 40
0
 40
0
 40
1
 40
1
 40
1
 40
1
 10
31.586715
 20
10.963424
 30
0.0
 10
31.604378
 20
10.953226
 30
0.0
 10
31.626139
 20
10.953226
 30
0.0
 10
31.643802
 20
10.963424
 30
0.0
  0
SPLINE
  5
1b3
100
AcDbEntity
  8
Layer_1
 62
7
100
AcDbSpline
 70
8
 71
3
 72
8
 73
4
 74
0
 40
0
 40
0
 40
0
 40
0
 40
1
 40
1
 40
1
 40
1
 10
31.643802
 20
10.963424
 30
0.0
 10
31.661465
 20
10.973622
 30
0.0
 10
31.672346
 20
10.992468
 30
0.0
 10
31.672346
 20
11.012863
 30
0.0
  0
LWPOLYLINE
  5
1b4
100
AcDbEntity
  8
Layer_1
 62
7
100
AcDbPolyline
 90
1
 70
1
 10
15.136933
 20
11.327213
 30
0.0
  0
SPLINE
  5
1b5
100
AcDbEntity
  8
Layer_1
 62
7
100
AcDbSpline
 70
8
 71
3
 72
8
 73
4
 74
0
 40
0
 40
0
 40
0
 40
0
 40
1
 40
1
 40
1
 40
1
 10
26.160541
 20
11.327213
 30
0.0
 10
26.160541
 20
11.347608
 30
0.0
 10
26.149660
 20
11.366453
 30
0.0
 10
26.131998
 20
11.376651
 30
0.0
  0
SPLINE
  5
1b6
100
AcDbEntity
  8
Layer_1
 62
7
100
AcDbSpline
 70
8
 71
3
 72
8
 73
4
 74
0
 40
0
 40
0
 40
0
 40
0
 40
1
 40
1
 40
1
 40
1
 10
26.131998
 20
11.376651
 30
0.0
 10
26.114335
 20
11.386849
 30
0.0
 10
26.092574
 20
11.386849
 30
0.0
 10
26.074911
 20
11.376651
 30
0.0
  0
SPLINE
  5
1b7
100
AcDbEntity
  8
Layer_1
 62
7
100
AcDbSpline
 70
8
 71
3
 72
8
 73
4
 74
0
 40
0
 40
0
 40
0
 40
0
 40
1
 40
1
 40
1
 40
1
 10
26.074911
 20
11.376651
 30
0.0
 10
26.057249
 20
11.366453
 30
0.0
 10
26.046368
 20
11.347608
 30
0.0
 10
26.046368
 20
11.327213
 30
0.0
  0
SPLINE
  5
1b8
100
AcDbEntity
  8
Layer_1
 62
7
100
AcDbSpline
 70
8
 71
3
 72
8
 73
4
 74
0
 40
0
 40
0
 40
0
 40
0
 40
1
 40
1
 40
1
 40
1
 10
26.046368
 20
11.327213
 30
0.0
 10
26.046368
 20
11.306818
 30
0.0
 10
26.057249
 20
11.287972
 30
0.0
 10
26.074911
 20
11.277774
 30
0.0
  0
SPLINE
  5
1b9
100
AcDbEntity
  8
Layer_1
 62
7
100
AcDbSpline
 70
8
 71
3
 72
8
 73
4
 74
0
 40
0
 40
0
 40
0
 40
0
 40
1
 40
1
 40
1
 40
1
 10
26.074911
 20
11.277774
 30
0.0
 10
26.092574
 20
11.267577
 30
0.0
 10
26.114335
 20
11.267577
 30
0.0
 10
26.131998
 20
11.277774
 30
0.0
  0
SPLINE
  5
1ba
100
AcDbEntity
  8
Layer_1
 62
7
100
AcDbSpline
 70
8
 71
3
 72
8
 73
4
 74
0
 40
0
 40
0
 40
0
 40
0
 40
1
 40
1
 40
1
 40
1
 10
26.131998
 20
11.277774
 30
0.0
 10
26.149660
 20
11.287972
 30
0.0
 10
26.160541
 20
11.306818
 30
0.0
 10
26.160541
 20
11.327213
 30
0.0
  0
LWPOLYLINE
  5
1bb
100
AcDbEntity
  8
Layer_1
 62
7
100
AcDbPolyline
 90
1
 70
1
 10
31.672346
 20
11.012863
 30
0.0
  0
SPLINE
  5
1bc
100
AcDbEntity
  8
Layer_1
 62
7
100
AcDbSpline
 70
8
 71
3
 72
8
 73
4
 74
0
 40
0
 40
0
 40
0
 40
0
 40
1
 40
1
 40
1
 40
1
 10
12.381031
 20
0.776044
 30
0.0
 10
12.381031
 20
0.796439
 30
0.0
 10
12.370150
 20
0.815285
 30
0.0
 10
12.352487
 20
0.825483
 30
0.0
  0
SPLINE
  5
1bd
100
AcDbEntity
  8
Layer_1
 62
7
100
AcDbSpline
 70
8
 71
3
 72
8
 73
4
 74
0
 40
0
 40
0
 40
0
 40
0
 40
1
 40
1
 40
1
 40
1
 10
12.352487
 20
0.825483
 30
0.0
 10
12.334825
 20
0.835680
 30
0.0
 10
12.313064
 20
0.835680
 30
0.0
 10
12.295401
 20
0.825483
 30
0.0
  0
SPLINE
  5
1be
100
AcDbEntity
  8
Layer_1
 62
7
100
AcDbSpline
 70
8
 71
3
 72
8
 73
4
 74
0
 40
0
 40
0
 40
0
 40
0
 40
1
 40
1
 40
1
 40
1
 10
12.295401
 20
0.825483
 30
0.0
 10
12.277738
 20
0.815285
 30
0.0
 10
12.266858
 20
0.796439
 30
0.0
 10
12.266858
 20
0.776044
 30
0.0
  0
SPLINE
  5
1bf
100
AcDbEntity
  8
Layer_1
 62
7
100
AcDbSpline
 70
8
 71
3
 72
8
 73
4
 74
0
 40
0
 40
0
 40
0
 40
0
 40
1
 40
1
 40
1
 40
1
 10
12.266858
 20
0.776044
 30
0.0
 10
12.266858
 20
0.755649
 30
0.0
 10
12.277738
 20
0.736804
 30
0.0
 10
12.295401
 20
0.726606
 30
0.0
  0
SPLINE
  5
1c0
100
AcDbEntity
  8
Layer_1
 62
7
100
AcDbSpline
 70
8
 71
3
 72
8
 73
4
 74
0
 40
0
 40
0
 40
0
 40
0
 40
1
 40
1
 40
1
 40
1
 10
12.295401
 20
0.726606
 30
0.0
 10
12.313064
 20
0.716408
 30
0.0
 10
12.334825
 20
0.716408
 30
0.0
 10
12.352487
 20
0.726606
 30
0.0
  0
SPLINE
  5
1c1
100
AcDbEntity
  8
Layer_1
 62
7
100
AcDbSpline
 70
8
 71
3
 72
8
 73
4
 74
0
 40
0
 40
0
 40
0
 40
0
 40
1
 40
1
 40
1
 40
1
 10
12.352487
 20
0.726606
 30
0.0
 10
12.370150
 20
0.736804
 30
0.0
 10
12.381031
 20
0.755649
 30
0.0
 10
12.381031
 20
0.776044
 30
0.0
  0
LWPOLYLINE
  5
1c2
100
AcDbEntity
  8
Layer_1
 62
7
100
AcDbPolyline
 90
1
 70
1
 10
26.160541
 20
11.327213
 30
0.0
  0
SPLINE
  5
1c3
100
AcDbEntity
  8
Layer_1
 62
7
100
AcDbSpline
 70
8
 71
3
 72
8
 73
4
 74
0
 40
0
 40
0
 40
0
 40
0
 40
1
 40
1
 40
1
 40
1
 10
6.869227
 20
0.776044
 30
0.0
 10
6.869153
 20
0.807520
 30
0.0
 10
6.843616
 20
0.832997
 30
0.0
 10
6.812140
 20
0.832997
 30
0.0
  0
SPLINE
  5
1c4
100
AcDbEntity
  8
Layer_1
 62
7
100
AcDbSpline
 70
8
 71
3
 72
8
 73
4
 74
0
 40
0
 40
0
 40
0
 40
0
 40
1
 40
1
 40
1
 40
1
 10
6.812140
 20
0.832997
 30
0.0
 10
6.780664
 20
0.832997
 30
0.0
 10
6.755127
 20
0.807520
 30
0.0
 10
6.755054
 20
0.776044
 30
0.0
  0
SPLINE
  5
1c5
100
AcDbEntity
  8
Layer_1
 62
7
100
AcDbSpline
 70
8
 71
3
 72
8
 73
4
 74
0
 40
0
 40
0
 40
0
 40
0
 40
1
 40
1
 40
1
 40
1
 10
6.755054
 20
0.776044
 30
0.0
 10
6.755127
 20
0.744569
 30
0.0
 10
6.780664
 20
0.719091
 30
0.0
 10
6.812140
 20
0.719091
 30
0.0
  0
SPLINE
  5
1c6
100
AcDbEntity
  8
Layer_1
 62
7
100
AcDbSpline
 70
8
 71
3
 72
8
 73
4
 74
0
 40
0
 40
0
 40
0
 40
0
 40
1
 40
1
 40
1
 40
1
 10
6.812140
 20
0.719091
 30
0.0
 10
6.843616
 20
0.719091
 30
0.0
 10
6.869153
 20
0.744569
 30
0.0
 10
6.869227
 20
0.776044
 30
0.0
  0
LWPOLYLINE
  5
1c7
100
AcDbEntity
  8
Layer_1
 62
7
100
AcDbPolyline
 90
1
 70
1
 10
12.381031
 20
0.776044
 30
0.0
  0
SPLINE
  5
1c8
100
AcDbEntity
  8
Layer_1
 62
7
100
AcDbSpline
 70
8
 71
3
 72
8
 73
4
 74
0
 40
0
 40
0
 40
0
 40
0
 40
1
 40
1
 40
1
 40
1
 10
20.648737
 20
11.327213
 30
0.0
 10
20.648737
 20
11.358741
 30
0.0
 10
20.623178
 20
11.384299
 30
0.0
 10
20.591650
 20
11.384299
 30
0.0
  0
SPLINE
  5
1c9
100
AcDbEntity
  8
Layer_1
 62
7
100
AcDbSpline
 70
8
 71
3
 72
8
 73
4
 74
0
 40
0
 40
0
 40
0
 40
0
 40
1
 40
1
 40
1
 40
1
 10
20.591650
 20
11.384299
 30
0.0
 10
20.560122
 20
11.384299
 30
0.0
 10
20.534564
 20
11.358741
 30
0.0
 10
20.534564
 20
11.327213
 30
0.0
  0
SPLINE
  5
1ca
100
AcDbEntity
  8
Layer_1
 62
7
100
AcDbSpline
 70
8
 71
3
 72
8
 73
4
 74
0
 40
0
 40
0
 40
0
 40
0
 40
1
 40
1
 40
1
 40
1
 10
20.534564
 20
11.327213
 30
0.0
 10
20.534564
 20
11.295685
 30
0.0
 10
20.560122
 20
11.270126
 30
0.0
 10
20.591650
 20
11.270126
 30
0.0
  0
SPLINE
  5
1cb
100
AcDbEntity
  8
Layer_1
 62
7
100
AcDbSpline
 70
8
 71
3
 72
8
 73
4
 74
0
 40
0
 40
0
 40
0
 40
0
 40
1
 40
1
 40
1
 40
1
 10
20.591650
 20
11.270126
 30
0.0
 10
20.623178
 20
11.270126
 30
0.0
 10
20.648737
 20
11.295685
 30
0.0
 10
20.648737
 20
11.327213
 30
0.0
  0
LWPOLYLINE
  5
1cc
100
AcDbEntity
  8
Layer_1
 62
7
100
AcDbPolyline
 90
1
 70
1
 10
6.869227
 20
0.776044
 30
0.0
  0
SPLINE
  5
1cd
100
AcDbEntity
  8
Layer_1
 62
7
100
AcDbSpline
 70
8
 71
3
 72
8
 73
4
 74
0
 40
0
 40
0
 40
0
 40
0
 40
1
 40
1
 40
1
 40
1
 10
4.113325
 20
11.012863
 30
0.0
 10
4.113325
 20
11.033258
 30
0.0
 10
4.102444
 20
11.052104
 30
0.0
 10
4.084781
 20
11.062301
 30
0.0
  0
SPLINE
  5
1ce
100
AcDbEntity
  8
Layer_1
 62
7
100
AcDbSpline
 70
8
 71
3
 72
8
 73
4
 74
0
 40
0
 40
0
 40
0
 40
0
 40
1
 40
1
 40
1
 40
1
 10
4.084781
 20
11.062301
 30
0.0
 10
4.067119
 20
11.072499
 30
0.0
 10
4.045357
 20
11.072499
 30
0.0
 10
4.027694
 20
11.062301
 30
0.0
  0
SPLINE
  5
1cf
100
AcDbEntity
  8
Layer_1
 62
7
100
AcDbSpline
 70
8
 71
3
 72
8
 73
4
 74
0
 40
0
 40
0
 40
0
 40
0
 40
1
 40
1
 40
1
 40
1
 10
4.027694
 20
11.062301
 30
0.0
 10
4.010032
 20
11.052104
 30
0.0
 10
3.999151
 20
11.033258
 30
0.0
 10
3.999151
 20
11.012863
 30
0.0
  0
SPLINE
  5
1d0
100
AcDbEntity
  8
Layer_1
 62
7
100
AcDbSpline
 70
8
 71
3
 72
8
 73
4
 74
0
 40
0
 40
0
 40
0
 40
0
 40
1
 40
1
 40
1
 40
1
 10
3.999151
 20
11.012863
 30
0.0
 10
3.999151
 20
10.992468
 30
0.0
 10
4.010032
 20
10.973622
 30
0.0
 10
4.027694
 20
10.963424
 30
0.0
  0
SPLINE
  5
1d1
100
AcDbEntity
  8
Layer_1
 62
7
100
AcDbSpline
 70
8
 71
3
 72
8
 73
4
 74
0
 40
0
 40
0
 40
0
 40
0
 40
1
 40
1
 40
1
 40
1
 10
4.027694
 20
10.963424
 30
0.0
 10
4.045357
 20
10.953226
 30
0.0
 10
4.067119
 20
10.953226
 30
0.0
 10
4.084781
 20
10.963424
 30
0.0
  0
SPLINE
  5
1d2
100
AcDbEntity
  8
Layer_1
 62
7
100
AcDbSpline
 70
8
 71
3
 72
8
 73
4
 74
0
 40
0
 40
0
 40
0
 40
0
 40
1
 40
1
 40
1
 40
1
 10
4.084781
 20
10.963424
 30
0.0
 10
4.102444
 20
10.973622
 30
0.0
 10
4.113325
 20
10.992468
 30
0.0
 10
4.113325
 20
11.012863
 30
0.0
  0
LWPOLYLINE
  5
1d3
100
AcDbEntity
  8
Layer_1
 62
7
100
AcDbPolyline
 90
1
 70
1
 10
20.648737
 20
11.327213
 30
0.0
  0
LWPOLYLINE
  5
1d4
100
AcDbEntity
  8
Layer_1
 62
7
100
AcDbPolyline
 90
1
 70
1
 10
4.113325
 20
11.012863
 30
0.0
  0
SPLINE
  5
1d5
100
AcDbEntity
  8
Layer_1
 62
7
100
AcDbSpline
 70
8
 71
3
 72
8
 73
4
 74
0
 40
0
 40
0
 40
0
 40
0
 40
1
 40
1
 40
1
 40
1
 10
32.402659
 20
0.146124
 30
0.0
 10
32.520330
 20
0.146124
 30
0.0
 10
32.574496
 20
0.149592
 30
0.0
 10
32.854407
 20
0.172781
 30
0.0
  0
SPLINE
  5
1d6
100
AcDbEntity
  8
Layer_1
 62
7
100
AcDbSpline
 70
8
 71
3
 72
8
 73
4
 74
0
 40
0
 40
0
 40
0
 40
0
 40
1
 40
1
 40
1
 40
1
 10
32.854407
 20
0.172781
 30
0.0
 10
32.854407
 20
0.172781
 30
0.0
 10
33.051721
 20
0.206899
 30
0.0
 10
33.622183
 20
0.367123
 30
0.0
  0
SPLINE
  5
1d7
100
AcDbEntity
  8
Layer_1
 62
7
100
AcDbSpline
 70
8
 71
3
 72
8
 73
4
 74
0
 40
0
 40
0
 40
0
 40
0
 40
1
 40
1
 40
1
 40
1
 10
33.622183
 20
0.367123
 30
0.0
 10
33.622183
 20
0.367123
 30
0.0
 10
33.984389
 20
0.542449
 30
0.0
 10
34.622439
 20
1.033235
 30
0.0
  0
SPLINE
  5
1d8
100
AcDbEntity
  8
Layer_1
 62
7
100
AcDbSpline
 70
8
 71
3
 72
8
 73
4
 74
0
 40
0
 40
0
 40
0
 40
0
 40
1
 40
1
 40
1
 40
1
 10
34.622439
 20
1.033235
 30
0.0
 10
34.622439
 20
1.033235
 30
0.0
 10
34.896430
 20
1.336451
 30
0.0
 10
35.307840
 20
2.044161
 30
0.0
  0
SPLINE
  5
1d9
100
AcDbEntity
  8
Layer_1
 62
7
100
AcDbSpline
 70
8
 71
3
 72
8
 73
4
 74
0
 40
0
 40
0
 40
0
 40
0
 40
1
 40
1
 40
1
 40
1
 10
35.307840
 20
2.044161
 30
0.0
 10
35.307840
 20
2.044161
 30
0.0
 10
35.447766
 20
2.436376
 30
0.0
 10
35.503685
 20
2.860915
 30
0.0
  0
SPLINE
  5
1da
100
AcDbEntity
  8
Layer_1
 62
7
100
AcDbSpline
 70
8
 71
3
 72
8
 73
4
 74
0
 40
0
 40
0
 40
0
 40
0
 40
1
 40
1
 40
1
 40
1
 10
35.503685
 20
2.860915
 30
0.0
 10
35.532903
 20
3.082742
 30
0.0
 10
35.538488
 20
3.309094
 30
0.0
 10
35.519087
 20
3.536163
 30
0.0
  0
SPLINE
  5
1db
100
AcDbEntity
  8
Layer_1
 62
7
100
AcDbSpline
 70
8
 71
3
 72
8
 73
4
 74
0
 40
0
 40
0
 40
0
 40
0
 40
1
 40
1
 40
1
 40
1
 10
35.519087
 20
3.536163
 30
0.0
 10
35.492934
 20
3.842245
 30
0.0
 10
35.424739
 20
4.082288
 30
0.0
 10
35.397679
 20
4.172413
 30
0.0
  0
SPLINE
  5
1dc
100
AcDbEntity
  8
Layer_1
 62
7
100
AcDbSpline
 70
8
 71
3
 72
8
 73
4
 74
0
 40
0
 40
0
 40
0
 40
0
 40
1
 40
1
 40
1
 40
1
 10
35.397679
 20
4.172413
 30
0.0
 10
35.397137
 20
4.174212
 30
0.0
 10
35.396616
 20
4.175952
 30
0.0
 10
35.396112
 20
4.177631
 30
0.0
  0
SPLINE
  5
1dd
100
AcDbEntity
  8
Layer_1
 62
7
100
AcDbSpline
 70
8
 71
3
 72
8
 73
4
 74
0
 40
0
 40
0
 40
0
 40
0
 40
1
 40
1
 40
1
 40
1
 10
35.396112
 20
4.177631
 30
0.0
 10
35.359538
 20
4.299439
 30
0.0
 10
35.321917
 20
4.424747
 30
0.0
 10
35.282316
 20
4.556681
 30
0.0
  0
SPLINE
  5
1de
100
AcDbEntity
  8
Layer_1
 62
7
100
AcDbSpline
 70
8
 71
3
 72
8
 73
4
 74
0
 40
0
 40
0
 40
0
 40
0
 40
1
 40
1
 40
1
 40
1
 10
35.282316
 20
4.556681
 30
0.0
 10
35.278861
 20
4.568196
 30
0.0
 10
35.275389
 20
4.579760
 30
0.0
 10
35.271903
 20
4.591377
 30
0.0
  0
SPLINE
  5
1df
100
AcDbEntity
  8
Layer_1
 62
7
100
AcDbSpline
 70
8
 71
3
 72
8
 73
4
 74
0
 40
0
 40
0
 40
0
 40
0
 40
1
 40
1
 40
1
 40
1
 10
35.271903
 20
4.591377
 30
0.0
 10
35.107567
 20
5.138914
 30
0.0
 10
34.937835
 20
5.704982
 30
0.0
 10
34.760042
 20
6.300646
 30
0.0
  0
SPLINE
  5
1e0
100
AcDbEntity
  8
Layer_1
 62
7
100
AcDbSpline
 70
8
 71
3
 72
8
 73
4
 74
0
 40
0
 40
0
 40
0
 40
0
 40
1
 40
1
 40
1
 40
1
 10
34.760042
 20
6.300646
 30
0.0
 10
34.470346
 20
7.271213
 30
0.0
 10
34.108339
 20
8.490115
 30
0.0
 10
33.793597
 20
9.584700
 30
0.0
  0
SPLINE
  5
1e1
100
AcDbEntity
  8
Layer_1
 62
7
100
AcDbSpline
 70
8
 71
3
 72
8
 73
4
 74
0
 40
0
 40
0
 40
0
 40
0
 40
1
 40
1
 40
1
 40
1
 10
33.793597
 20
9.584700
 30
0.0
 10
33.783803
 20
9.618758
 30
0.0
 10
33.774387
 20
9.651547
 30
0.0
 10
33.765014
 20
9.684218
 30
0.0
  0
SPLINE
  5
1e2
100
AcDbEntity
  8
Layer_1
 62
7
100
AcDbSpline
 70
8
 71
3
 72
8
 73
4
 74
0
 40
0
 40
0
 40
0
 40
0
 40
1
 40
1
 40
1
 40
1
 10
33.765014
 20
9.684218
 30
0.0
 10
33.731914
 20
9.799601
 30
0.0
 10
33.695155
 20
9.912294
 30
0.0
 10
33.627473
 20
10.069341
 30
0.0
  0
SPLINE
  5
1e3
100
AcDbEntity
  8
Layer_1
 62
7
100
AcDbSpline
 70
8
 71
3
 72
8
 73
4
 74
0
 40
0
 40
0
 40
0
 40
0
 40
1
 40
1
 40
1
 40
1
 10
33.627473
 20
10.069341
 30
0.0
 10
33.475582
 20
10.421794
 30
0.0
 10
33.255279
 20
10.758767
 30
0.0
 10
32.959901
 20
11.053166
 30
0.0
  0
SPLINE
  5
1e4
100
AcDbEntity
  8
Layer_1
 62
7
100
AcDbSpline
 70
8
 71
3
 72
8
 73
4
 74
0
 40
0
 40
0
 40
0
 40
0
 40
1
 40
1
 40
1
 40
1
 10
32.959901
 20
11.053166
 30
0.0
 10
32.686502
 20
11.325659
 30
0.0
 10
32.353577
 20
11.556416
 30
0.0
 10
31.966397
 20
11.717985
 30
0.0
  0
SPLINE
  5
1e5
100
AcDbEntity
  8
Layer_1
 62
7
100
AcDbSpline
 70
8
 71
3
 72
8
 73
4
 74
0
 40
0
 40
0
 40
0
 40
0
 40
1
 40
1
 40
1
 40
1
 10
31.966397
 20
11.717985
 30
0.0
 10
31.436828
 20
11.938972
 30
0.0
 10
30.983743
 20
11.957133
 30
0.0
 10
30.769996
 20
11.957133
 30
0.0
  0
LWPOLYLINE
  5
1e6
100
AcDbEntity
  8
Layer_1
 62
7
100
AcDbPolyline
 90
2
 70
0
 10
3.268787
 20
0.146112
 30
0.0
 10
32.402709
 20
0.146112
 30
0.0
  0
SPLINE
  5
1e7
100
AcDbEntity
  8
Layer_1
 62
7
100
AcDbSpline
 70
8
 71
3
 72
8
 73
4
 74
0
 40
0
 40
0
 40
0
 40
0
 40
1
 40
1
 40
1
 40
1
 10
4.901501
 20
11.957133
 30
0.0
 10
4.833461
 20
11.957133
 30
0.0
 10
4.808237
 20
11.955979
 30
0.0
 10
4.769733
 20
11.954354
 30
0.0
  0
SPLINE
  5
1e8
100
AcDbEntity
  8
Layer_1
 62
7
100
AcDbSpline
 70
8
 71
3
 72
8
 73
4
 74
0
 40
0
 40
0
 40
0
 40
0
 40
1
 40
1
 40
1
 40
1
 10
4.769733
 20
11.954354
 30
0.0
 10
4.384447
 20
11.938091
 30
0.0
 10
3.991017
 20
11.850155
 30
0.0
 10
3.613002
 20
11.677784
 30
0.0
  0
SPLINE
  5
1e9
100
AcDbEntity
  8
Layer_1
 62
7
100
AcDbSpline
 70
8
 71
3
 72
8
 73
4
 74
0
 40
0
 40
0
 40
0
 40
0
 40
1
 40
1
 40
1
 40
1
 10
3.613002
 20
11.677784
 30
0.0
 10
3.254763
 20
11.514430
 30
0.0
 10
2.917645
 20
11.278233
 30
0.0
 10
2.628805
 20
10.967429
 30
0.0
  0
SPLINE
  5
1ea
100
AcDbEntity
  8
Layer_1
 62
7
100
AcDbSpline
 70
8
 71
3
 72
8
 73
4
 74
0
 40
0
 40
0
 40
0
 40
0
 40
1
 40
1
 40
1
 40
1
 10
2.628805
 20
10.967429
 30
0.0
 10
2.354738
 20
10.672523
 30
0.0
 10
2.130102
 20
10.316422
 30
0.0
 10
1.980083
 20
9.909221
 30
0.0
  0
SPLINE
  5
1eb
100
AcDbEntity
  8
Layer_1
 62
7
100
AcDbSpline
 70
8
 71
3
 72
8
 73
4
 74
0
 40
0
 40
0
 40
0
 40
0
 40
1
 40
1
 40
1
 40
1
 10
1.980083
 20
9.909221
 30
0.0
 10
1.956171
 20
9.844317
 30
0.0
 10
1.937617
 20
9.792749
 30
0.0
 10
1.906483
 20
9.684218
 30
0.0
  0
SPLINE
  5
1ec
100
AcDbEntity
  8
Layer_1
 62
7
100
AcDbSpline
 70
8
 71
3
 72
8
 73
4
 74
0
 40
0
 40
0
 40
0
 40
0
 40
1
 40
1
 40
1
 40
1
 10
1.906483
 20
9.684218
 30
0.0
 10
1.835801
 20
9.437828
 30
0.0
 10
1.684264
 20
8.902531
 30
0.0
 10
1.199445
 20
7.268254
 30
0.0
  0
SPLINE
  5
1ed
100
AcDbEntity
  8
Layer_1
 62
7
100
AcDbSpline
 70
8
 71
3
 72
8
 73
4
 74
0
 40
0
 40
0
 40
0
 40
0
 40
1
 40
1
 40
1
 40
1
 10
1.199445
 20
7.268254
 30
0.0
 10
0.943475
 20
6.405405
 30
0.0
 10
0.672177
 20
5.499530
 30
0.0
 10
0.389180
 20
4.556681
 30
0.0
  0
SPLINE
  5
1ee
100
AcDbEntity
  8
Layer_1
 62
7
100
AcDbSpline
 70
8
 71
3
 72
8
 73
4
 74
0
 40
0
 40
0
 40
0
 40
0
 40
1
 40
1
 40
1
 40
1
 10
0.389180
 20
4.556681
 30
0.0
 10
0.376372
 20
4.514011
 30
0.0
 10
0.363541
 20
4.471263
 30
0.0
 10
0.350686
 20
4.428441
 30
0.0
  0
SPLINE
  5
1ef
100
AcDbEntity
  8
Layer_1
 62
7
100
AcDbSpline
 70
8
 71
3
 72
8
 73
4
 74
0
 40
0
 40
0
 40
0
 40
0
 40
1
 40
1
 40
1
 40
1
 10
0.350686
 20
4.428441
 30
0.0
 10
0.313694
 20
4.305217
 30
0.0
 10
0.290646
 20
4.228459
 30
0.0
 10
0.273818
 20
4.172413
 30
0.0
  0
SPLINE
  5
1f0
100
AcDbEntity
  8
Layer_1
 62
7
100
AcDbSpline
 70
8
 71
3
 72
8
 73
4
 74
0
 40
0
 40
0
 40
0
 40
0
 40
1
 40
1
 40
1
 40
1
 10
0.273818
 20
4.172413
 30
0.0
 10
0.251148
 20
4.096911
 30
0.0
 10
0.241232
 20
4.058563
 30
0.0
 10
0.225947
 20
3.994178
 30
0.0
  0
SPLINE
  5
1f1
100
AcDbEntity
  8
Layer_1
 62
7
100
AcDbSpline
 70
8
 71
3
 72
8
 73
4
 74
0
 40
0
 40
0
 40
0
 40
0
 40
1
 40
1
 40
1
 40
1
 10
0.225947
 20
3.994178
 30
0.0
 10
0.181320
 20
3.806187
 30
0.0
 10
0.152442
 20
3.607771
 30
0.0
 10
0.143766
 20
3.400247
 30
0.0
  0
SPLINE
  5
1f2
100
AcDbEntity
  8
Layer_1
 62
7
100
AcDbSpline
 70
8
 71
3
 72
8
 73
4
 74
0
 40
0
 40
0
 40
0
 40
0
 40
1
 40
1
 40
1
 40
1
 10
0.143766
 20
3.400247
 30
0.0
 10
0.127657
 20
3.014929
 30
0.0
 10
0.182078
 20
2.615726
 30
0.0
 10
0.320624
 20
2.225025
 30
0.0
  0
SPLINE
  5
1f3
100
AcDbEntity
  8
Layer_1
 62
7
100
AcDbSpline
 70
8
 71
3
 72
8
 73
4
 74
0
 40
0
 40
0
 40
0
 40
0
 40
1
 40
1
 40
1
 40
1
 10
0.320624
 20
2.225025
 30
0.0
 10
0.451540
 20
1.855845
 30
0.0
 10
0.655524
 20
1.500850
 30
0.0
 10
0.936367
 20
1.187101
 30
0.0
  0
SPLINE
  5
1f4
100
AcDbEntity
  8
Layer_1
 62
7
100
AcDbSpline
 70
8
 71
3
 72
8
 73
4
 74
0
 40
0
 40
0
 40
0
 40
0
 40
1
 40
1
 40
1
 40
1
 10
0.936367
 20
1.187101
 30
0.0
 10
1.202707
 20
0.889555
 30
0.0
 10
1.533515
 20
0.634735
 30
0.0
 10
1.921160
 20
0.450219
 30
0.0
  0
SPLINE
  5
1f5
100
AcDbEntity
  8
Layer_1
 62
7
100
AcDbSpline
 70
8
 71
3
 72
8
 73
4
 74
0
 40
0
 40
0
 40
0
 40
0
 40
1
 40
1
 40
1
 40
1
 10
1.921160
 20
0.450219
 30
0.0
 10
2.282378
 20
0.278283
 30
0.0
 10
2.686634
 20
0.170712
 30
0.0
 10
3.116225
 20
0.149831
 30
0.0
  0
SPLINE
  5
1f6
100
AcDbEntity
  8
Layer_1
 62
7
100
AcDbSpline
 70
8
 71
3
 72
8
 73
4
 74
0
 40
0
 40
0
 40
0
 40
0
 40
1
 40
1
 40
1
 40
1
 10
3.116225
 20
0.149831
 30
0.0
 10
3.163900
 20
0.147513
 30
0.0
 10
3.187090
 20
0.146124
 30
0.0
 10
3.268837
 20
0.146124
 30
0.0
  0
SPLINE
  5
1f7
100
AcDbEntity
  8
Layer_1
 62
7
100
AcDbSpline
 70
8
 71
3
 72
8
 73
4
 74
0
 40
0
 40
0
 40
0
 40
0
 40
1
 40
1
 40
1
 40
1
 10
2.564363
 20
1.222797
 30
0.0
 10
2.564363
 20
1.294004
 30
0.0
 10
2.526375
 20
1.359802
 30
0.0
 10
2.464708
 20
1.395406
 30
0.0
  0
SPLINE
  5
1f8
100
AcDbEntity
  8
Layer_1
 62
7
100
AcDbSpline
 70
8
 71
3
 72
8
 73
4
 74
0
 40
0
 40
0
 40
0
 40
0
 40
1
 40
1
 40
1
 40
1
 10
2.464708
 20
1.395406
 30
0.0
 10
2.403040
 20
1.431009
 30
0.0
 10
2.327063
 20
1.431009
 30
0.0
 10
2.265396
 20
1.395406
 30
0.0
  0
SPLINE
  5
1f9
100
AcDbEntity
  8
Layer_1
 62
7
100
AcDbSpline
 70
8
 71
3
 72
8
 73
4
 74
0
 40
0
 40
0
 40
0
 40
0
 40
1
 40
1
 40
1
 40
1
 10
2.265396
 20
1.395406
 30
0.0
 10
2.203729
 20
1.359802
 30
0.0
 10
2.165741
 20
1.294004
 30
0.0
 10
2.165741
 20
1.222797
 30
0.0
  0
SPLINE
  5
1fa
100
AcDbEntity
  8
Layer_1
 62
7
100
AcDbSpline
 70
8
 71
3
 72
8
 73
4
 74
0
 40
0
 40
0
 40
0
 40
0
 40
1
 40
1
 40
1
 40
1
 10
2.165741
 20
1.222797
 30
0.0
 10
2.165741
 20
1.151590
 30
0.0
 10
2.203729
 20
1.085792
 30
0.0
 10
2.265396
 20
1.050188
 30
0.0
  0
SPLINE
  5
1fb
100
AcDbEntity
  8
Layer_1
 62
7
100
AcDbSpline
 70
8
 71
3
 72
8
 73
4
 74
0
 40
0
 40
0
 40
0
 40
0
 40
1
 40
1
 40
1
 40
1
 10
2.265396
 20
1.050188
 30
0.0
 10
2.327063
 20
1.014585
 30
0.0
 10
2.403040
 20
1.014585
 30
0.0
 10
2.464708
 20
1.050188
 30
0.0
  0
SPLINE
  5
1fc
100
AcDbEntity
  8
Layer_1
 62
7
100
AcDbSpline
 70
8
 71
3
 72
8
 73
4
 74
0
 40
0
 40
0
 40
0
 40
0
 40
1
 40
1
 40
1
 40
1
 10
2.464708
 20
1.050188
 30
0.0
 10
2.526375
 20
1.085792
 30
0.0
 10
2.564363
 20
1.151590
 30
0.0
 10
2.564363
 20
1.222797
 30
0.0
  0
LWPOLYLINE
  5
1fd
100
AcDbEntity
  8
Layer_1
 62
7
100
AcDbPolyline
 90
3
 70
0
 10
30.770003
 20
11.957128
 30
0.0
 10
6.812116
 20
11.957128
 30
0.0
 10
4.901494
 20
11.957128
 30
0.0
  0
SPLINE
  5
1fe
100
AcDbEntity
  8
Layer_1
 62
7
100
AcDbSpline
 70
8
 71
3
 72
8
 73
4
 74
0
 40
0
 40
0
 40
0
 40
0
 40
1
 40
1
 40
1
 40
1
 10
6.252766
 20
11.409814
 30
0.0
 10
6.252766
 20
11.481021
 30
0.0
 10
6.214777
 20
11.546819
 30
0.0
 10
6.153110
 20
11.582422
 30
0.0
  0
SPLINE
  5
1ff
100
AcDbEntity
  8
Layer_1
 62
7
100
AcDbSpline
 70
8
 71
3
 72
8
 73
4
 74
0
 40
0
 40
0
 40
0
 40
0
 40
1
 40
1
 40
1
 40
1
 10
6.153110
 20
11.582422
 30
0.0
 10
6.091443
 20
11.618026
 30
0.0
 10
6.015466
 20
11.618026
 30
0.0
 10
5.953799
 20
11.582422
 30
0.0
  0
SPLINE
  5
200
100
AcDbEntity
  8
Layer_1
 62
7
100
AcDbSpline
 70
8
 71
3
 72
8
 73
4
 74
0
 40
0
 40
0
 40
0
 40
0
 40
1
 40
1
 40
1
 40
1
 10
5.953799
 20
11.582422
 30
0.0
 10
5.892132
 20
11.546819
 30
0.0
 10
5.854143
 20
11.481021
 30
0.0
 10
5.854143
 20
11.409814
 30
0.0
  0
SPLINE
  5
201
100
AcDbEntity
  8
Layer_1
 62
7
100
AcDbSpline
 70
8
 71
3
 72
8
 73
4
 74
0
 40
0
 40
0
 40
0
 40
0
 40
1
 40
1
 40
1
 40
1
 10
5.854143
 20
11.409814
 30
0.0
 10
5.854143
 20
11.338607
 30
0.0
 10
5.892132
 20
11.272809
 30
0.0
 10
5.953799
 20
11.237205
 30
0.0
  0
SPLINE
  5
202
100
AcDbEntity
  8
Layer_1
 62
7
100
AcDbSpline
 70
8
 71
3
 72
8
 73
4
 74
0
 40
0
 40
0
 40
0
 40
0
 40
1
 40
1
 40
1
 40
1
 10
5.953799
 20
11.237205
 30
0.0
 10
6.015466
 20
11.201602
 30
0.0
 10
6.091443
 20
11.201602
 30
0.0
 10
6.153110
 20
11.237205
 30
0.0
  0
SPLINE
  5
203
100
AcDbEntity
  8
Layer_1
 62
7
100
AcDbSpline
 70
8
 71
3
 72
8
 73
4
 74
0
 40
0
 40
0
 40
0
 40
0
 40
1
 40
1
 40
1
 40
1
 10
6.153110
 20
11.237205
 30
0.0
 10
6.214777
 20
11.272809
 30
0.0
 10
6.252766
 20
11.338607
 30
0.0
 10
6.252766
 20
11.409814
 30
0.0
  0
LWPOLYLINE
  5
204
100
AcDbEntity
  8
Layer_1
 62
7
100
AcDbPolyline
 90
1
 70
1
 10
2.564363
 20
1.222797
 30
0.0
  0
SPLINE
  5
205
100
AcDbEntity
  8
Layer_1
 62
7
100
AcDbSpline
 70
8
 71
3
 72
8
 73
4
 74
0
 40
0
 40
0
 40
0
 40
0
 40
1
 40
1
 40
1
 40
1
 10
16.951143
 20
12.263959
 30
0.0
 10
16.951143
 20
12.286463
 30
0.0
 10
16.939137
 20
12.307259
 30
0.0
 10
16.919647
 20
12.318511
 30
0.0
  0
SPLINE
  5
206
100
AcDbEntity
  8
Layer_1
 62
7
100
AcDbSpline
 70
8
 71
3
 72
8
 73
4
 74
0
 40
0
 40
0
 40
0
 40
0
 40
1
 40
1
 40
1
 40
1
 10
16.919647
 20
12.318511
 30
0.0
 10
16.900157
 20
12.329764
 30
0.0
 10
16.876145
 20
12.329764
 30
0.0
 10
16.856655
 20
12.318511
 30
0.0
  0
SPLINE
  5
207
100
AcDbEntity
  8
Layer_1
 62
7
100
AcDbSpline
 70
8
 71
3
 72
8
 73
4
 74
0
 40
0
 40
0
 40
0
 40
0
 40
1
 40
1
 40
1
 40
1
 10
16.856655
 20
12.318511
 30
0.0
 10
16.837165
 20
12.307259
 30
0.0
 10
16.825159
 20
12.286463
 30
0.0
 10
16.825159
 20
12.263959
 30
0.0
  0
SPLINE
  5
208
100
AcDbEntity
  8
Layer_1
 62
7
100
AcDbSpline
 70
8
 71
3
 72
8
 73
4
 74
0
 40
0
 40
0
 40
0
 40
0
 40
1
 40
1
 40
1
 40
1
 10
16.825159
 20
12.263959
 30
0.0
 10
16.825159
 20
12.241454
 30
0.0
 10
16.837165
 20
12.220658
 30
0.0
 10
16.856655
 20
12.209406
 30
0.0
  0
SPLINE
  5
209
100
AcDbEntity
  8
Layer_1
 62
7
100
AcDbSpline
 70
8
 71
3
 72
8
 73
4
 74
0
 40
0
 40
0
 40
0
 40
0
 40
1
 40
1
 40
1
 40
1
 10
16.856655
 20
12.209406
 30
0.0
 10
16.876145
 20
12.198153
 30
0.0
 10
16.900157
 20
12.198153
 30
0.0
 10
16.919647
 20
12.209406
 30
0.0
  0
SPLINE
  5
20a
100
AcDbEntity
  8
Layer_1
 62
7
100
AcDbSpline
 70
8
 71
3
 72
8
 73
4
 74
0
 40
0
 40
0
 40
0
 40
0
 40
1
 40
1
 40
1
 40
1
 10
16.919647
 20
12.209406
 30
0.0
 10
16.939137
 20
12.220658
 30
0.0
 10
16.951143
 20
12.241454
 30
0.0
 10
16.951143
 20
12.263959
 30
0.0
  0
LWPOLYLINE
  5
20b
100
AcDbEntity
  8
Layer_1
 62
7
100
AcDbPolyline
 90
1
 70
1
 10
6.252766
 20
11.409814
 30
0.0
  0
SPLINE
  5
20c
100
AcDbEntity
  8
Layer_1
 62
7
100
AcDbSpline
 70
8
 71
3
 72
8
 73
4
 74
0
 40
0
 40
0
 40
0
 40
0
 40
1
 40
1
 40
1
 40
1
 10
18.801534
 20
12.263959
 30
0.0
 10
18.801534
 20
12.286463
 30
0.0
 10
18.789528
 20
12.307259
 30
0.0
 10
18.770038
 20
12.318511
 30
0.0
  0
SPLINE
  5
20d
100
AcDbEntity
  8
Layer_1
 62
7
100
AcDbSpline
 70
8
 71
3
 72
8
 73
4
 74
0
 40
0
 40
0
 40
0
 40
0
 40
1
 40
1
 40
1
 40
1
 10
18.770038
 20
12.318511
 30
0.0
 10
18.750549
 20
12.329764
 30
0.0
 10
18.726536
 20
12.329764
 30
0.0
 10
18.707046
 20
12.318511
 30
0.0
  0
SPLINE
  5
20e
100
AcDbEntity
  8
Layer_1
 62
7
100
AcDbSpline
 70
8
 71
3
 72
8
 73
4
 74
0
 40
0
 40
0
 40
0
 40
0
 40
1
 40
1
 40
1
 40
1
 10
18.707046
 20
12.318511
 30
0.0
 10
18.687557
 20
12.307259
 30
0.0
 10
18.675550
 20
12.286463
 30
0.0
 10
18.675550
 20
12.263959
 30
0.0
  0
SPLINE
  5
20f
100
AcDbEntity
  8
Layer_1
 62
7
100
AcDbSpline
 70
8
 71
3
 72
8
 73
4
 74
0
 40
0
 40
0
 40
0
 40
0
 40
1
 40
1
 40
1
 40
1
 10
18.675550
 20
12.263959
 30
0.0
 10
18.675550
 20
12.241454
 30
0.0
 10
18.687557
 20
12.220658
 30
0.0
 10
18.707046
 20
12.209406
 30
0.0
  0
SPLINE
  5
210
100
AcDbEntity
  8
Layer_1
 62
7
100
AcDbSpline
 70
8
 71
3
 72
8
 73
4
 74
0
 40
0
 40
0
 40
0
 40
0
 40
1
 40
1
 40
1
 40
1
 10
18.707046
 20
12.209406
 30
0.0
 10
18.726536
 20
12.198153
 30
0.0
 10
18.750549
 20
12.198153
 30
0.0
 10
18.770038
 20
12.209406
 30
0.0
  0
SPLINE
  5
211
100
AcDbEntity
  8
Layer_1
 62
7
100
AcDbSpline
 70
8
 71
3
 72
8
 73
4
 74
0
 40
0
 40
0
 40
0
 40
0
 40
1
 40
1
 40
1
 40
1
 10
18.770038
 20
12.209406
 30
0.0
 10
18.789528
 20
12.220658
 30
0.0
 10
18.801534
 20
12.241454
 30
0.0
 10
18.801534
 20
12.263959
 30
0.0
  0
LWPOLYLINE
  5
212
100
AcDbEntity
  8
Layer_1
 62
7
100
AcDbPolyline
 90
1
 70
1
 10
16.951143
 20
12.263959
 30
0.0
  0
SPLINE
  5
213
100
AcDbEntity
  8
Layer_1
 62
7
100
AcDbSpline
 70
8
 71
3
 72
8
 73
4
 74
0
 40
0
 40
0
 40
0
 40
0
 40
1
 40
1
 40
1
 40
1
 10
16.951143
 20
13.523800
 30
0.0
 10
16.951143
 20
13.546305
 30
0.0
 10
16.939137
 20
13.567100
 30
0.0
 10
16.919647
 20
13.578352
 30
0.0
  0
SPLINE
  5
214
100
AcDbEntity
  8
Layer_1
 62
7
100
AcDbSpline
 70
8
 71
3
 72
8
 73
4
 74
0
 40
0
 40
0
 40
0
 40
0
 40
1
 40
1
 40
1
 40
1
 10
16.919647
 20
13.578352
 30
0.0
 10
16.900157
 20
13.589605
 30
0.0
 10
16.876145
 20
13.589605
 30
0.0
 10
16.856655
 20
13.578352
 30
0.0
  0
SPLINE
  5
215
100
AcDbEntity
  8
Layer_1
 62
7
100
AcDbSpline
 70
8
 71
3
 72
8
 73
4
 74
0
 40
0
 40
0
 40
0
 40
0
 40
1
 40
1
 40
1
 40
1
 10
16.856655
 20
13.578352
 30
0.0
 10
16.837165
 20
13.567100
 30
0.0
 10
16.825159
 20
13.546305
 30
0.0
 10
16.825159
 20
13.523800
 30
0.0
  0
SPLINE
  5
216
100
AcDbEntity
  8
Layer_1
 62
7
100
AcDbSpline
 70
8
 71
3
 72
8
 73
4
 74
0
 40
0
 40
0
 40
0
 40
0
 40
1
 40
1
 40
1
 40
1
 10
16.825159
 20
13.523800
 30
0.0
 10
16.825159
 20
13.501295
 30
0.0
 10
16.837165
 20
13.480499
 30
0.0
 10
16.856655
 20
13.469247
 30
0.0
  0
SPLINE
  5
217
100
AcDbEntity
  8
Layer_1
 62
7
100
AcDbSpline
 70
8
 71
3
 72
8
 73
4
 74
0
 40
0
 40
0
 40
0
 40
0
 40
1
 40
1
 40
1
 40
1
 10
16.856655
 20
13.469247
 30
0.0
 10
16.876145
 20
13.457995
 30
0.0
 10
16.900157
 20
13.457995
 30
0.0
 10
16.919647
 20
13.469247
 30
0.0
  0
SPLINE
  5
218
100
AcDbEntity
  8
Layer_1
 62
7
100
AcDbSpline
 70
8
 71
3
 72
8
 73
4
 74
0
 40
0
 40
0
 40
0
 40
0
 40
1
 40
1
 40
1
 40
1
 10
16.919647
 20
13.469247
 30
0.0
 10
16.939137
 20
13.480499
 30
0.0
 10
16.951143
 20
13.501295
 30
0.0
 10
16.951143
 20
13.523800
 30
0.0
  0
LWPOLYLINE
  5
219
100
AcDbEntity
  8
Layer_1
 62
7
100
AcDbPolyline
 90
1
 70
1
 10
18.801534
 20
12.263959
 30
0.0
  0
SPLINE
  5
21a
100
AcDbEntity
  8
Layer_1
 62
7
100
AcDbSpline
 70
8
 71
3
 72
8
 73
4
 74
0
 40
0
 40
0
 40
0
 40
0
 40
1
 40
1
 40
1
 40
1
 10
18.801534
 20
13.523800
 30
0.0
 10
18.801534
 20
13.546305
 30
0.0
 10
18.789528
 20
13.567100
 30
0.0
 10
18.770038
 20
13.578352
 30
0.0
  0
SPLINE
  5
21b
100
AcDbEntity
  8
Layer_1
 62
7
100
AcDbSpline
 70
8
 71
3
 72
8
 73
4
 74
0
 40
0
 40
0
 40
0
 40
0
 40
1
 40
1
 40
1
 40
1
 10
18.770038
 20
13.578352
 30
0.0
 10
18.750549
 20
13.589605
 30
0.0
 10
18.726536
 20
13.589605
 30
0.0
 10
18.707046
 20
13.578352
 30
0.0
  0
SPLINE
  5
21c
100
AcDbEntity
  8
Layer_1
 62
7
100
AcDbSpline
 70
8
 71
3
 72
8
 73
4
 74
0
 40
0
 40
0
 40
0
 40
0
 40
1
 40
1
 40
1
 40
1
 10
18.707046
 20
13.578352
 30
0.0
 10
18.687557
 20
13.567100
 30
0.0
 10
18.675550
 20
13.546305
 30
0.0
 10
18.675550
 20
13.523800
 30
0.0
  0
SPLINE
  5
21d
100
AcDbEntity
  8
Layer_1
 62
7
100
AcDbSpline
 70
8
 71
3
 72
8
 73
4
 74
0
 40
0
 40
0
 40
0
 40
0
 40
1
 40
1
 40
1
 40
1
 10
18.675550
 20
13.523800
 30
0.0
 10
18.675550
 20
13.501295
 30
0.0
 10
18.687557
 20
13.480499
 30
0.0
 10
18.707046
 20
13.469247
 30
0.0
  0
SPLINE
  5
21e
100
AcDbEntity
  8
Layer_1
 62
7
100
AcDbSpline
 70
8
 71
3
 72
8
 73
4
 74
0
 40
0
 40
0
 40
0
 40
0
 40
1
 40
1
 40
1
 40
1
 10
18.707046
 20
13.469247
 30
0.0
 10
18.726536
 20
13.457995
 30
0.0
 10
18.750549
 20
13.457995
 30
0.0
 10
18.770038
 20
13.469247
 30
0.0
  0
SPLINE
  5
21f
100
AcDbEntity
  8
Layer_1
 62
7
100
AcDbSpline
 70
8
 71
3
 72
8
 73
4
 74
0
 40
0
 40
0
 40
0
 40
0
 40
1
 40
1
 40
1
 40
1
 10
18.770038
 20
13.469247
 30
0.0
 10
18.789528
 20
13.480499
 30
0.0
 10
18.801534
 20
13.501295
 30
0.0
 10
18.801534
 20
13.523800
 30
0.0
  0
LWPOLYLINE
  5
220
100
AcDbEntity
  8
Layer_1
 62
7
100
AcDbPolyline
 90
1
 70
1
 10
16.951143
 20
13.523800
 30
0.0
  0
SPLINE
  5
221
100
AcDbEntity
  8
Layer_1
 62
7
100
AcDbSpline
 70
8
 71
3
 72
8
 73
4
 74
0
 40
0
 40
0
 40
0
 40
0
 40
1
 40
1
 40
1
 40
1
 10
12.399968
 20
12.697029
 30
0.0
 10
12.399968
 20
12.732193
 30
0.0
 10
12.381208
 20
12.764686
 30
0.0
 10
12.350755
 20
12.782267
 30
0.0
  0
SPLINE
  5
222
100
AcDbEntity
  8
Layer_1
 62
7
100
AcDbSpline
 70
8
 71
3
 72
8
 73
4
 74
0
 40
0
 40
0
 40
0
 40
0
 40
1
 40
1
 40
1
 40
1
 10
12.350755
 20
12.782267
 30
0.0
 10
12.320302
 20
12.799849
 30
0.0
 10
12.282783
 20
12.799849
 30
0.0
 10
12.252330
 20
12.782267
 30
0.0
  0
SPLINE
  5
223
100
AcDbEntity
  8
Layer_1
 62
7
100
AcDbSpline
 70
8
 71
3
 72
8
 73
4
 74
0
 40
0
 40
0
 40
0
 40
0
 40
1
 40
1
 40
1
 40
1
 10
12.252330
 20
12.782267
 30
0.0
 10
12.221877
 20
12.764686
 30
0.0
 10
12.203117
 20
12.732193
 30
0.0
 10
12.203117
 20
12.697029
 30
0.0
  0
SPLINE
  5
224
100
AcDbEntity
  8
Layer_1
 62
7
100
AcDbSpline
 70
8
 71
3
 72
8
 73
4
 74
0
 40
0
 40
0
 40
0
 40
0
 40
1
 40
1
 40
1
 40
1
 10
12.203117
 20
12.697029
 30
0.0
 10
12.203117
 20
12.661865
 30
0.0
 10
12.221877
 20
12.629372
 30
0.0
 10
12.252330
 20
12.611790
 30
0.0
  0
SPLINE
  5
225
100
AcDbEntity
  8
Layer_1
 62
7
100
AcDbSpline
 70
8
 71
3
 72
8
 73
4
 74
0
 40
0
 40
0
 40
0
 40
0
 40
1
 40
1
 40
1
 40
1
 10
12.252330
 20
12.611790
 30
0.0
 10
12.282783
 20
12.594208
 30
0.0
 10
12.320302
 20
12.594208
 30
0.0
 10
12.350755
 20
12.611790
 30
0.0
  0
SPLINE
  5
226
100
AcDbEntity
  8
Layer_1
 62
7
100
AcDbSpline
 70
8
 71
3
 72
8
 73
4
 74
0
 40
0
 40
0
 40
0
 40
0
 40
1
 40
1
 40
1
 40
1
 10
12.350755
 20
12.611790
 30
0.0
 10
12.381208
 20
12.629372
 30
0.0
 10
12.399968
 20
12.661865
 30
0.0
 10
12.399968
 20
12.697029
 30
0.0
  0
LWPOLYLINE
  5
227
100
AcDbEntity
  8
Layer_1
 62
7
100
AcDbPolyline
 90
1
 70
1
 10
18.801534
 20
13.523800
 30
0.0
  0
SPLINE
  5
228
100
AcDbEntity
  8
Layer_1
 62
7
100
AcDbSpline
 70
8
 71
3
 72
8
 73
4
 74
0
 40
0
 40
0
 40
0
 40
0
 40
1
 40
1
 40
1
 40
1
 10
34.998365
 20
15.216711
 30
0.0
 10
34.998365
 20
15.251875
 30
0.0
 10
34.979605
 20
15.284368
 30
0.0
 10
34.949152
 20
15.301950
 30
0.0
  0
SPLINE
  5
229
100
AcDbEntity
  8
Layer_1
 62
7
100
AcDbSpline
 70
8
 71
3
 72
8
 73
4
 74
0
 40
0
 40
0
 40
0
 40
0
 40
1
 40
1
 40
1
 40
1
 10
34.949152
 20
15.301950
 30
0.0
 10
34.918699
 20
15.319532
 30
0.0
 10
34.881180
 20
15.319532
 30
0.0
 10
34.850727
 20
15.301950
 30
0.0
  0
SPLINE
  5
22a
100
AcDbEntity
  8
Layer_1
 62
7
100
AcDbSpline
 70
8
 71
3
 72
8
 73
4
 74
0
 40
0
 40
0
 40
0
 40
0
 40
1
 40
1
 40
1
 40
1
 10
34.850727
 20
15.301950
 30
0.0
 10
34.820274
 20
15.284368
 30
0.0
 10
34.801514
 20
15.251875
 30
0.0
 10
34.801514
 20
15.216711
 30
0.0
  0
SPLINE
  5
22b
100
AcDbEntity
  8
Layer_1
 62
7
100
AcDbSpline
 70
8
 71
3
 72
8
 73
4
 74
0
 40
0
 40
0
 40
0
 40
0
 40
1
 40
1
 40
1
 40
1
 10
34.801514
 20
15.216711
 30
0.0
 10
34.801514
 20
15.181547
 30
0.0
 10
34.820274
 20
15.149054
 30
0.0
 10
34.850727
 20
15.131472
 30
0.0
  0
SPLINE
  5
22c
100
AcDbEntity
  8
Layer_1
 62
7
100
AcDbSpline
 70
8
 71
3
 72
8
 73
4
 74
0
 40
0
 40
0
 40
0
 40
0
 40
1
 40
1
 40
1
 40
1
 10
34.850727
 20
15.131472
 30
0.0
 10
34.881180
 20
15.113890
 30
0.0
 10
34.918699
 20
15.113890
 30
0.0
 10
34.949152
 20
15.131472
 30
0.0
  0
SPLINE
  5
22d
100
AcDbEntity
  8
Layer_1
 62
7
100
AcDbSpline
 70
8
 71
3
 72
8
 73
4
 74
0
 40
0
 40
0
 40
0
 40
0
 40
1
 40
1
 40
1
 40
1
 10
34.949152
 20
15.131472
 30
0.0
 10
34.979605
 20
15.149054
 30
0.0
 10
34.998365
 20
15.181547
 30
0.0
 10
34.998365
 20
15.216711
 30
0.0
  0
LWPOLYLINE
  5
22e
100
AcDbEntity
  8
Layer_1
 62
7
100
AcDbPolyline
 90
1
 70
1
 10
12.399968
 20
12.697029
 30
0.0
  0
SPLINE
  5
22f
100
AcDbEntity
  8
Layer_1
 62
7
100
AcDbSpline
 70
8
 71
3
 72
8
 73
4
 74
0
 40
0
 40
0
 40
0
 40
0
 40
1
 40
1
 40
1
 40
1
 10
9.644066
 20
23.248197
 30
0.0
 10
9.644066
 20
23.283361
 30
0.0
 10
9.625306
 20
23.315854
 30
0.0
 10
9.594853
 20
23.333436
 30
0.0
  0
SPLINE
  5
230
100
AcDbEntity
  8
Layer_1
 62
7
100
AcDbSpline
 70
8
 71
3
 72
8
 73
4
 74
0
 40
0
 40
0
 40
0
 40
0
 40
1
 40
1
 40
1
 40
1
 10
9.594853
 20
23.333436
 30
0.0
 10
9.564400
 20
23.351018
 30
0.0
 10
9.526881
 20
23.351018
 30
0.0
 10
9.496428
 20
23.333436
 30
0.0
  0
SPLINE
  5
231
100
AcDbEntity
  8
Layer_1
 62
7
100
AcDbSpline
 70
8
 71
3
 72
8
 73
4
 74
0
 40
0
 40
0
 40
0
 40
0
 40
1
 40
1
 40
1
 40
1
 10
9.496428
 20
23.333436
 30
0.0
 10
9.465975
 20
23.315854
 30
0.0
 10
9.447215
 20
23.283361
 30
0.0
 10
9.447215
 20
23.248197
 30
0.0
  0
SPLINE
  5
232
100
AcDbEntity
  8
Layer_1
 62
7
100
AcDbSpline
 70
8
 71
3
 72
8
 73
4
 74
0
 40
0
 40
0
 40
0
 40
0
 40
1
 40
1
 40
1
 40
1
 10
9.447215
 20
23.248197
 30
0.0
 10
9.447215
 20
23.213033
 30
0.0
 10
9.465975
 20
23.180540
 30
0.0
 10
9.496428
 20
23.162958
 30
0.0
  0
SPLINE
  5
233
100
AcDbEntity
  8
Layer_1
 62
7
100
AcDbSpline
 70
8
 71
3
 72
8
 73
4
 74
0
 40
0
 40
0
 40
0
 40
0
 40
1
 40
1
 40
1
 40
1
 10
9.496428
 20
23.162958
 30
0.0
 10
9.526881
 20
23.145376
 30
0.0
 10
9.564400
 20
23.145376
 30
0.0
 10
9.594853
 20
23.162958
 30
0.0
  0
SPLINE
  5
234
100
AcDbEntity
  8
Layer_1
 62
7
100
AcDbSpline
 70
8
 71
3
 72
8
 73
4
 74
0
 40
0
 40
0
 40
0
 40
0
 40
1
 40
1
 40
1
 40
1
 10
9.594853
 20
23.162958
 30
0.0
 10
9.625306
 20
23.180540
 30
0.0
 10
9.644066
 20
23.213033
 30
0.0
 10
9.644066
 20
23.248197
 30
0.0
  0
LWPOLYLINE
  5
235
100
AcDbEntity
  8
Layer_1
 62
7
100
AcDbPolyline
 90
1
 70
1
 10
34.998365
 20
15.216711
 30
0.0
  0
SPLINE
  5
236
100
AcDbEntity
  8
Layer_1
 62
7
100
AcDbSpline
 70
8
 71
3
 72
8
 73
4
 74
0
 40
0
 40
0
 40
0
 40
0
 40
1
 40
1
 40
1
 40
1
 10
15.155870
 20
23.248197
 30
0.0
 10
15.155870
 20
23.283361
 30
0.0
 10
15.137110
 20
23.315854
 30
0.0
 10
15.106657
 20
23.333436
 30
0.0
  0
SPLINE
  5
237
100
AcDbEntity
  8
Layer_1
 62
7
100
AcDbSpline
 70
8
 71
3
 72
8
 73
4
 74
0
 40
0
 40
0
 40
0
 40
0
 40
1
 40
1
 40
1
 40
1
 10
15.106657
 20
23.333436
 30
0.0
 10
15.076204
 20
23.351018
 30
0.0
 10
15.038685
 20
23.351018
 30
0.0
 10
15.008232
 20
23.333436
 30
0.0
  0
SPLINE
  5
238
100
AcDbEntity
  8
Layer_1
 62
7
100
AcDbSpline
 70
8
 71
3
 72
8
 73
4
 74
0
 40
0
 40
0
 40
0
 40
0
 40
1
 40
1
 40
1
 40
1
 10
15.008232
 20
23.333436
 30
0.0
 10
14.977779
 20
23.315854
 30
0.0
 10
14.959020
 20
23.283361
 30
0.0
 10
14.959020
 20
23.248197
 30
0.0
  0
SPLINE
  5
239
100
AcDbEntity
  8
Layer_1
 62
7
100
AcDbSpline
 70
8
 71
3
 72
8
 73
4
 74
0
 40
0
 40
0
 40
0
 40
0
 40
1
 40
1
 40
1
 40
1
 10
14.959020
 20
23.248197
 30
0.0
 10
14.959020
 20
23.213033
 30
0.0
 10
14.977779
 20
23.180540
 30
0.0
 10
15.008232
 20
23.162958
 30
0.0
  0
SPLINE
  5
23a
100
AcDbEntity
  8
Layer_1
 62
7
100
AcDbSpline
 70
8
 71
3
 72
8
 73
4
 74
0
 40
0
 40
0
 40
0
 40
0
 40
1
 40
1
 40
1
 40
1
 10
15.008232
 20
23.162958
 30
0.0
 10
15.038685
 20
23.145376
 30
0.0
 10
15.076204
 20
23.145376
 30
0.0
 10
15.106657
 20
23.162958
 30
0.0
  0
SPLINE
  5
23b
100
AcDbEntity
  8
Layer_1
 62
7
100
AcDbSpline
 70
8
 71
3
 72
8
 73
4
 74
0
 40
0
 40
0
 40
0
 40
0
 40
1
 40
1
 40
1
 40
1
 10
15.106657
 20
23.162958
 30
0.0
 10
15.137110
 20
23.180540
 30
0.0
 10
15.155870
 20
23.213033
 30
0.0
 10
15.155870
 20
23.248197
 30
0.0
  0
LWPOLYLINE
  5
23c
100
AcDbEntity
  8
Layer_1
 62
7
100
AcDbPolyline
 90
1
 70
1
 10
9.644066
 20
23.248197
 30
0.0
  0
SPLINE
  5
23d
100
AcDbEntity
  8
Layer_1
 62
7
100
AcDbSpline
 70
8
 71
3
 72
8
 73
4
 74
0
 40
0
 40
0
 40
0
 40
0
 40
1
 40
1
 40
1
 40
1
 10
4.132262
 20
22.933847
 30
0.0
 10
4.132262
 20
22.969011
 30
0.0
 10
4.113502
 20
23.001504
 30
0.0
 10
4.083049
 20
23.019086
 30
0.0
  0
SPLINE
  5
23e
100
AcDbEntity
  8
Layer_1
 62
7
100
AcDbSpline
 70
8
 71
3
 72
8
 73
4
 74
0
 40
0
 40
0
 40
0
 40
0
 40
1
 40
1
 40
1
 40
1
 10
4.083049
 20
23.019086
 30
0.0
 10
4.052596
 20
23.036668
 30
0.0
 10
4.015077
 20
23.036668
 30
0.0
 10
3.984624
 20
23.019086
 30
0.0
  0
SPLINE
  5
23f
100
AcDbEntity
  8
Layer_1
 62
7
100
AcDbSpline
 70
8
 71
3
 72
8
 73
4
 74
0
 40
0
 40
0
 40
0
 40
0
 40
1
 40
1
 40
1
 40
1
 10
3.984624
 20
23.019086
 30
0.0
 10
3.954171
 20
23.001504
 30
0.0
 10
3.935411
 20
22.969011
 30
0.0
 10
3.935411
 20
22.933847
 30
0.0
  0
SPLINE
  5
240
100
AcDbEntity
  8
Layer_1
 62
7
100
AcDbSpline
 70
8
 71
3
 72
8
 73
4
 74
0
 40
0
 40
0
 40
0
 40
0
 40
1
 40
1
 40
1
 40
1
 10
3.935411
 20
22.933847
 30
0.0
 10
3.935411
 20
22.898683
 30
0.0
 10
3.954171
 20
22.866190
 30
0.0
 10
3.984624
 20
22.848608
 30
0.0
  0
SPLINE
  5
241
100
AcDbEntity
  8
Layer_1
 62
7
100
AcDbSpline
 70
8
 71
3
 72
8
 73
4
 74
0
 40
0
 40
0
 40
0
 40
0
 40
1
 40
1
 40
1
 40
1
 10
3.984624
 20
22.848608
 30
0.0
 10
4.015077
 20
22.831026
 30
0.0
 10
4.052596
 20
22.831026
 30
0.0
 10
4.083049
 20
22.848608
 30
0.0
  0
SPLINE
  5
242
100
AcDbEntity
  8
Layer_1
 62
7
100
AcDbSpline
 70
8
 71
3
 72
8
 73
4
 74
0
 40
0
 40
0
 40
0
 40
0
 40
1
 40
1
 40
1
 40
1
 10
4.083049
 20
22.848608
 30
0.0
 10
4.113502
 20
22.866190
 30
0.0
 10
4.132262
 20
22.898683
 30
0.0
 10
4.132262
 20
22.933847
 30
0.0
  0
LWPOLYLINE
  5
243
100
AcDbEntity
  8
Layer_1
 62
7
100
AcDbPolyline
 90
1
 70
1
 10
15.155870
 20
23.248197
 30
0.0
  0
SPLINE
  5
244
100
AcDbEntity
  8
Layer_1
 62
7
100
AcDbSpline
 70
8
 71
3
 72
8
 73
4
 74
0
 40
0
 40
0
 40
0
 40
0
 40
1
 40
1
 40
1
 40
1
 10
23.423576
 20
12.697029
 30
0.0
 10
23.423576
 20
12.732193
 30
0.0
 10
23.404816
 20
12.764686
 30
0.0
 10
23.374363
 20
12.782267
 30
0.0
  0
SPLINE
  5
245
100
AcDbEntity
  8
Layer_1
 62
7
100
AcDbSpline
 70
8
 71
3
 72
8
 73
4
 74
0
 40
0
 40
0
 40
0
 40
0
 40
1
 40
1
 40
1
 40
1
 10
23.374363
 20
12.782267
 30
0.0
 10
23.343911
 20
12.799849
 30
0.0
 10
23.306391
 20
12.799849
 30
0.0
 10
23.275938
 20
12.782267
 30
0.0
  0
SPLINE
  5
246
100
AcDbEntity
  8
Layer_1
 62
7
100
AcDbSpline
 70
8
 71
3
 72
8
 73
4
 74
0
 40
0
 40
0
 40
0
 40
0
 40
1
 40
1
 40
1
 40
1
 10
23.275938
 20
12.782267
 30
0.0
 10
23.245486
 20
12.764686
 30
0.0
 10
23.226726
 20
12.732193
 30
0.0
 10
23.226726
 20
12.697029
 30
0.0
  0
SPLINE
  5
247
100
AcDbEntity
  8
Layer_1
 62
7
100
AcDbSpline
 70
8
 71
3
 72
8
 73
4
 74
0
 40
0
 40
0
 40
0
 40
0
 40
1
 40
1
 40
1
 40
1
 10
23.226726
 20
12.697029
 30
0.0
 10
23.226726
 20
12.661865
 30
0.0
 10
23.245486
 20
12.629372
 30
0.0
 10
23.275938
 20
12.611790
 30
0.0
  0
SPLINE
  5
248
100
AcDbEntity
  8
Layer_1
 62
7
100
AcDbSpline
 70
8
 71
3
 72
8
 73
4
 74
0
 40
0
 40
0
 40
0
 40
0
 40
1
 40
1
 40
1
 40
1
 10
23.275938
 20
12.611790
 30
0.0
 10
23.306391
 20
12.594208
 30
0.0
 10
23.343911
 20
12.594208
 30
0.0
 10
23.374363
 20
12.611790
 30
0.0
  0
SPLINE
  5
249
100
AcDbEntity
  8
Layer_1
 62
7
100
AcDbSpline
 70
8
 71
3
 72
8
 73
4
 74
0
 40
0
 40
0
 40
0
 40
0
 40
1
 40
1
 40
1
 40
1
 10
23.374363
 20
12.611790
 30
0.0
 10
23.404816
 20
12.629372
 30
0.0
 10
23.423576
 20
12.661865
 30
0.0
 10
23.423576
 20
12.697029
 30
0.0
  0
LWPOLYLINE
  5
24a
100
AcDbEntity
  8
Layer_1
 62
7
100
AcDbPolyline
 90
1
 70
1
 10
4.132262
 20
22.933847
 30
0.0
  0
SPLINE
  5
24b
100
AcDbEntity
  8
Layer_1
 62
7
100
AcDbSpline
 70
8
 71
3
 72
8
 73
4
 74
0
 40
0
 40
0
 40
0
 40
0
 40
1
 40
1
 40
1
 40
1
 10
6.888163
 20
12.697029
 30
0.0
 10
6.888055
 20
12.751310
 30
0.0
 10
6.844020
 20
12.795257
 30
0.0
 10
6.789739
 20
12.795257
 30
0.0
  0
SPLINE
  5
24c
100
AcDbEntity
  8
Layer_1
 62
7
100
AcDbSpline
 70
8
 71
3
 72
8
 73
4
 74
0
 40
0
 40
0
 40
0
 40
0
 40
1
 40
1
 40
1
 40
1
 10
6.789739
 20
12.795257
 30
0.0
 10
6.735457
 20
12.795257
 30
0.0
 10
6.691423
 20
12.751310
 30
0.0
 10
6.691314
 20
12.697029
 30
0.0
  0
SPLINE
  5
24d
100
AcDbEntity
  8
Layer_1
 62
7
100
AcDbSpline
 70
8
 71
3
 72
8
 73
4
 74
0
 40
0
 40
0
 40
0
 40
0
 40
1
 40
1
 40
1
 40
1
 10
6.691314
 20
12.697029
 30
0.0
 10
6.691423
 20
12.642747
 30
0.0
 10
6.735457
 20
12.598801
 30
0.0
 10
6.789739
 20
12.598801
 30
0.0
  0
SPLINE
  5
24e
100
AcDbEntity
  8
Layer_1
 62
7
100
AcDbSpline
 70
8
 71
3
 72
8
 73
4
 74
0
 40
0
 40
0
 40
0
 40
0
 40
1
 40
1
 40
1
 40
1
 10
6.789739
 20
12.598801
 30
0.0
 10
6.844020
 20
12.598801
 30
0.0
 10
6.888055
 20
12.642747
 30
0.0
 10
6.888163
 20
12.697029
 30
0.0
  0
LWPOLYLINE
  5
24f
100
AcDbEntity
  8
Layer_1
 62
7
100
AcDbPolyline
 90
1
 70
1
 10
23.423576
 20
12.697029
 30
0.0
  0
SPLINE
  5
250
100
AcDbEntity
  8
Layer_1
 62
7
100
AcDbSpline
 70
8
 71
3
 72
8
 73
4
 74
0
 40
0
 40
0
 40
0
 40
0
 40
1
 40
1
 40
1
 40
1
 10
31.691283
 20
22.933847
 30
0.0
 10
31.691283
 20
22.969011
 30
0.0
 10
31.672523
 20
23.001504
 30
0.0
 10
31.642070
 20
23.019086
 30
0.0
  0
SPLINE
  5
251
100
AcDbEntity
  8
Layer_1
 62
7
100
AcDbSpline
 70
8
 71
3
 72
8
 73
4
 74
0
 40
0
 40
0
 40
0
 40
0
 40
1
 40
1
 40
1
 40
1
 10
31.642070
 20
23.019086
 30
0.0
 10
31.611617
 20
23.036668
 30
0.0
 10
31.574097
 20
23.036668
 30
0.0
 10
31.543645
 20
23.019086
 30
0.0
  0
SPLINE
  5
252
100
AcDbEntity
  8
Layer_1
 62
7
100
AcDbSpline
 70
8
 71
3
 72
8
 73
4
 74
0
 40
0
 40
0
 40
0
 40
0
 40
1
 40
1
 40
1
 40
1
 10
31.543645
 20
23.019086
 30
0.0
 10
31.513192
 20
23.001504
 30
0.0
 10
31.494432
 20
22.969011
 30
0.0
 10
31.494432
 20
22.933847
 30
0.0
  0
SPLINE
  5
253
100
AcDbEntity
  8
Layer_1
 62
7
100
AcDbSpline
 70
8
 71
3
 72
8
 73
4
 74
0
 40
0
 40
0
 40
0
 40
0
 40
1
 40
1
 40
1
 40
1
 10
31.494432
 20
22.933847
 30
0.0
 10
31.494432
 20
22.898683
 30
0.0
 10
31.513192
 20
22.866190
 30
0.0
 10
31.543645
 20
22.848608
 30
0.0
  0
SPLINE
  5
254
100
AcDbEntity
  8
Layer_1
 62
7
100
AcDbSpline
 70
8
 71
3
 72
8
 73
4
 74
0
 40
0
 40
0
 40
0
 40
0
 40
1
 40
1
 40
1
 40
1
 10
31.543645
 20
22.848608
 30
0.0
 10
31.574097
 20
22.831026
 30
0.0
 10
31.611617
 20
22.831026
 30
0.0
 10
31.642070
 20
22.848608
 30
0.0
  0
SPLINE
  5
255
100
AcDbEntity
  8
Layer_1
 62
7
100
AcDbSpline
 70
8
 71
3
 72
8
 73
4
 74
0
 40
0
 40
0
 40
0
 40
0
 40
1
 40
1
 40
1
 40
1
 10
31.642070
 20
22.848608
 30
0.0
 10
31.672523
 20
22.866190
 30
0.0
 10
31.691283
 20
22.898683
 30
0.0
 10
31.691283
 20
22.933847
 30
0.0
  0
LWPOLYLINE
  5
256
100
AcDbEntity
  8
Layer_1
 62
7
100
AcDbPolyline
 90
1
 70
1
 10
6.888163
 20
12.697029
 30
0.0
  0
SPLINE
  5
257
100
AcDbEntity
  8
Layer_1
 62
7
100
AcDbSpline
 70
8
 71
3
 72
8
 73
4
 74
0
 40
0
 40
0
 40
0
 40
0
 40
1
 40
1
 40
1
 40
1
 10
26.179478
 20
23.248197
 30
0.0
 10
26.179478
 20
23.283361
 30
0.0
 10
26.160718
 20
23.315854
 30
0.0
 10
26.130266
 20
23.333436
 30
0.0
  0
SPLINE
  5
258
100
AcDbEntity
  8
Layer_1
 62
7
100
AcDbSpline
 70
8
 71
3
 72
8
 73
4
 74
0
 40
0
 40
0
 40
0
 40
0
 40
1
 40
1
 40
1
 40
1
 10
26.130266
 20
23.333436
 30
0.0
 10
26.099813
 20
23.351018
 30
0.0
 10
26.062293
 20
23.351018
 30
0.0
 10
26.031840
 20
23.333436
 30
0.0
  0
SPLINE
  5
259
100
AcDbEntity
  8
Layer_1
 62
7
100
AcDbSpline
 70
8
 71
3
 72
8
 73
4
 74
0
 40
0
 40
0
 40
0
 40
0
 40
1
 40
1
 40
1
 40
1
 10
26.031840
 20
23.333436
 30
0.0
 10
26.001388
 20
23.315854
 30
0.0
 10
25.982628
 20
23.283361
 30
0.0
 10
25.982628
 20
23.248197
 30
0.0
  0
SPLINE
  5
25a
100
AcDbEntity
  8
Layer_1
 62
7
100
AcDbSpline
 70
8
 71
3
 72
8
 73
4
 74
0
 40
0
 40
0
 40
0
 40
0
 40
1
 40
1
 40
1
 40
1
 10
25.982628
 20
23.248197
 30
0.0
 10
25.982628
 20
23.213033
 30
0.0
 10
26.001388
 20
23.180540
 30
0.0
 10
26.031840
 20
23.162958
 30
0.0
  0
SPLINE
  5
25b
100
AcDbEntity
  8
Layer_1
 62
7
100
AcDbSpline
 70
8
 71
3
 72
8
 73
4
 74
0
 40
0
 40
0
 40
0
 40
0
 40
1
 40
1
 40
1
 40
1
 10
26.031840
 20
23.162958
 30
0.0
 10
26.062293
 20
23.145376
 30
0.0
 10
26.099813
 20
23.145376
 30
0.0
 10
26.130266
 20
23.162958
 30
0.0
  0
SPLINE
  5
25c
100
AcDbEntity
  8
Layer_1
 62
7
100
AcDbSpline
 70
8
 71
3
 72
8
 73
4
 74
0
 40
0
 40
0
 40
0
 40
0
 40
1
 40
1
 40
1
 40
1
 10
26.130266
 20
23.162958
 30
0.0
 10
26.160718
 20
23.180540
 30
0.0
 10
26.179478
 20
23.213033
 30
0.0
 10
26.179478
 20
23.248197
 30
0.0
  0
LWPOLYLINE
  5
25d
100
AcDbEntity
  8
Layer_1
 62
7
100
AcDbPolyline
 90
1
 70
1
 10
31.691283
 20
22.933847
 30
0.0
  0
SPLINE
  5
25e
100
AcDbEntity
  8
Layer_1
 62
7
100
AcDbSpline
 70
8
 71
3
 72
8
 73
4
 74
0
 40
0
 40
0
 40
0
 40
0
 40
1
 40
1
 40
1
 40
1
 10
20.667674
 20
23.248197
 30
0.0
 10
20.667674
 20
23.283361
 30
0.0
 10
20.648914
 20
23.315854
 30
0.0
 10
20.618461
 20
23.333436
 30
0.0
  0
SPLINE
  5
25f
100
AcDbEntity
  8
Layer_1
 62
7
100
AcDbSpline
 70
8
 71
3
 72
8
 73
4
 74
0
 40
0
 40
0
 40
0
 40
0
 40
1
 40
1
 40
1
 40
1
 10
20.618461
 20
23.333436
 30
0.0
 10
20.588009
 20
23.351018
 30
0.0
 10
20.550489
 20
23.351018
 30
0.0
 10
20.520036
 20
23.333436
 30
0.0
  0
SPLINE
  5
260
100
AcDbEntity
  8
Layer_1
 62
7
100
AcDbSpline
 70
8
 71
3
 72
8
 73
4
 74
0
 40
0
 40
0
 40
0
 40
0
 40
1
 40
1
 40
1
 40
1
 10
20.520036
 20
23.333436
 30
0.0
 10
20.489583
 20
23.315854
 30
0.0
 10
20.470824
 20
23.283361
 30
0.0
 10
20.470824
 20
23.248197
 30
0.0
  0
SPLINE
  5
261
100
AcDbEntity
  8
Layer_1
 62
7
100
AcDbSpline
 70
8
 71
3
 72
8
 73
4
 74
0
 40
0
 40
0
 40
0
 40
0
 40
1
 40
1
 40
1
 40
1
 10
20.470824
 20
23.248197
 30
0.0
 10
20.470824
 20
23.213033
 30
0.0
 10
20.489583
 20
23.180540
 30
0.0
 10
20.520036
 20
23.162958
 30
0.0
  0
SPLINE
  5
262
100
AcDbEntity
  8
Layer_1
 62
7
100
AcDbSpline
 70
8
 71
3
 72
8
 73
4
 74
0
 40
0
 40
0
 40
0
 40
0
 40
1
 40
1
 40
1
 40
1
 10
20.520036
 20
23.162958
 30
0.0
 10
20.550489
 20
23.145376
 30
0.0
 10
20.588009
 20
23.145376
 30
0.0
 10
20.618461
 20
23.162958
 30
0.0
  0
SPLINE
  5
263
100
AcDbEntity
  8
Layer_1
 62
7
100
AcDbSpline
 70
8
 71
3
 72
8
 73
4
 74
0
 40
0
 40
0
 40
0
 40
0
 40
1
 40
1
 40
1
 40
1
 10
20.618461
 20
23.162958
 30
0.0
 10
20.648914
 20
23.180540
 30
0.0
 10
20.667674
 20
23.213033
 30
0.0
 10
20.667674
 20
23.248197
 30
0.0
  0
LWPOLYLINE
  5
264
100
AcDbEntity
  8
Layer_1
 62
7
100
AcDbPolyline
 90
1
 70
1
 10
26.179478
 20
23.248197
 30
0.0
  0
SPLINE
  5
265
100
AcDbEntity
  8
Layer_1
 62
7
100
AcDbSpline
 70
8
 71
3
 72
8
 73
4
 74
0
 40
0
 40
0
 40
0
 40
0
 40
1
 40
1
 40
1
 40
1
 10
0.825179
 20
15.216711
 30
0.0
 10
0.825179
 20
15.251875
 30
0.0
 10
0.806420
 20
15.284368
 30
0.0
 10
0.775967
 20
15.301950
 30
0.0
  0
SPLINE
  5
266
100
AcDbEntity
  8
Layer_1
 62
7
100
AcDbSpline
 70
8
 71
3
 72
8
 73
4
 74
0
 40
0
 40
0
 40
0
 40
0
 40
1
 40
1
 40
1
 40
1
 10
0.775967
 20
15.301950
 30
0.0
 10
0.745514
 20
15.319532
 30
0.0
 10
0.707994
 20
15.319532
 30
0.0
 10
0.677541
 20
15.301950
 30
0.0
  0
SPLINE
  5
267
100
AcDbEntity
  8
Layer_1
 62
7
100
AcDbSpline
 70
8
 71
3
 72
8
 73
4
 74
0
 40
0
 40
0
 40
0
 40
0
 40
1
 40
1
 40
1
 40
1
 10
0.677541
 20
15.301950
 30
0.0
 10
0.647088
 20
15.284368
 30
0.0
 10
0.628329
 20
15.251875
 30
0.0
 10
0.628329
 20
15.216711
 30
0.0
  0
SPLINE
  5
268
100
AcDbEntity
  8
Layer_1
 62
7
100
AcDbSpline
 70
8
 71
3
 72
8
 73
4
 74
0
 40
0
 40
0
 40
0
 40
0
 40
1
 40
1
 40
1
 40
1
 10
0.628329
 20
15.216711
 30
0.0
 10
0.628329
 20
15.181547
 30
0.0
 10
0.647088
 20
15.149054
 30
0.0
 10
0.677541
 20
15.131472
 30
0.0
  0
SPLINE
  5
269
100
AcDbEntity
  8
Layer_1
 62
7
100
AcDbSpline
 70
8
 71
3
 72
8
 73
4
 74
0
 40
0
 40
0
 40
0
 40
0
 40
1
 40
1
 40
1
 40
1
 10
0.677541
 20
15.131472
 30
0.0
 10
0.707994
 20
15.113890
 30
0.0
 10
0.745514
 20
15.113890
 30
0.0
 10
0.775967
 20
15.131472
 30
0.0
  0
SPLINE
  5
26a
100
AcDbEntity
  8
Layer_1
 62
7
100
AcDbSpline
 70
8
 71
3
 72
8
 73
4
 74
0
 40
0
 40
0
 40
0
 40
0
 40
1
 40
1
 40
1
 40
1
 10
0.775967
 20
15.131472
 30
0.0
 10
0.806420
 20
15.149054
 30
0.0
 10
0.825179
 20
15.181547
 30
0.0
 10
0.825179
 20
15.216711
 30
0.0
  0
LWPOLYLINE
  5
26b
100
AcDbEntity
  8
Layer_1
 62
7
100
AcDbPolyline
 90
1
 70
1
 10
20.667674
 20
23.248197
 30
0.0
  0
SPLINE
  5
26c
100
AcDbEntity
  8
Layer_1
 62
7
100
AcDbSpline
 70
8
 71
3
 72
8
 73
4
 74
0
 40
0
 40
0
 40
0
 40
0
 40
1
 40
1
 40
1
 40
1
 10
28.935380
 20
12.697029
 30
0.0
 10
28.935271
 20
12.751310
 30
0.0
 10
28.891237
 20
12.795257
 30
0.0
 10
28.836955
 20
12.795257
 30
0.0
  0
SPLINE
  5
26d
100
AcDbEntity
  8
Layer_1
 62
7
100
AcDbSpline
 70
8
 71
3
 72
8
 73
4
 74
0
 40
0
 40
0
 40
0
 40
0
 40
1
 40
1
 40
1
 40
1
 10
28.836955
 20
12.795257
 30
0.0
 10
28.782673
 20
12.795257
 30
0.0
 10
28.738639
 20
12.751310
 30
0.0
 10
28.738530
 20
12.697029
 30
0.0
  0
SPLINE
  5
26e
100
AcDbEntity
  8
Layer_1
 62
7
100
AcDbSpline
 70
8
 71
3
 72
8
 73
4
 74
0
 40
0
 40
0
 40
0
 40
0
 40
1
 40
1
 40
1
 40
1
 10
28.738530
 20
12.697029
 30
0.0
 10
28.738639
 20
12.642747
 30
0.0
 10
28.782673
 20
12.598801
 30
0.0
 10
28.836955
 20
12.598801
 30
0.0
  0
SPLINE
  5
26f
100
AcDbEntity
  8
Layer_1
 62
7
100
AcDbSpline
 70
8
 71
3
 72
8
 73
4
 74
0
 40
0
 40
0
 40
0
 40
0
 40
1
 40
1
 40
1
 40
1
 10
28.836955
 20
12.598801
 30
0.0
 10
28.891237
 20
12.598801
 30
0.0
 10
28.935271
 20
12.642747
 30
0.0
 10
28.935380
 20
12.697029
 30
0.0
  0
LWPOLYLINE
  5
270
100
AcDbEntity
  8
Layer_1
 62
7
100
AcDbPolyline
 90
1
 70
1
 10
0.825179
 20
15.216711
 30
0.0
  0
LWPOLYLINE
  5
271
100
AcDbEntity
  8
Layer_1
 62
7
100
AcDbPolyline
 90
1
 70
1
 10
28.935380
 20
12.697029
 30
0.0
  0
SPLINE
  5
272
100
AcDbEntity
  8
Layer_1
 62
7
100
AcDbSpline
 70
8
 71
3
 72
8
 73
4
 74
0
 40
0
 40
0
 40
0
 40
0
 40
1
 40
1
 40
1
 40
1
 10
35.529860
 20
20.728515
 30
0.0
 10
35.529860
 20
20.912097
 30
0.0
 10
35.513663
 20
21.104920
 30
0.0
 10
35.477325
 20
21.301376
 30
0.0
  0
SPLINE
  5
273
100
AcDbEntity
  8
Layer_1
 62
7
100
AcDbSpline
 70
8
 71
3
 72
8
 73
4
 74
0
 40
0
 40
0
 40
0
 40
0
 40
1
 40
1
 40
1
 40
1
 10
35.477325
 20
21.301376
 30
0.0
 10
35.445698
 20
21.472365
 30
0.0
 10
35.398818
 20
21.646060
 30
0.0
 10
35.335409
 20
21.818046
 30
0.0
  0
SPLINE
  5
274
100
AcDbEntity
  8
Layer_1
 62
7
100
AcDbSpline
 70
8
 71
3
 72
8
 73
4
 74
0
 40
0
 40
0
 40
0
 40
0
 40
1
 40
1
 40
1
 40
1
 10
35.335409
 20
21.818046
 30
0.0
 10
35.226364
 20
22.113812
 30
0.0
 10
35.067656
 20
22.404326
 30
0.0
 10
34.863179
 20
22.666322
 30
0.0
  0
SPLINE
  5
275
100
AcDbEntity
  8
Layer_1
 62
7
100
AcDbSpline
 70
8
 71
3
 72
8
 73
4
 74
0
 40
0
 40
0
 40
0
 40
0
 40
1
 40
1
 40
1
 40
1
 10
34.863179
 20
22.666322
 30
0.0
 10
34.711079
 20
22.861210
 30
0.0
 10
34.533981
 20
23.040234
 30
0.0
 10
34.338033
 20
23.195722
 30
0.0
  0
SPLINE
  5
276
100
AcDbEntity
  8
Layer_1
 62
7
100
AcDbSpline
 70
8
 71
3
 72
8
 73
4
 74
0
 40
0
 40
0
 40
0
 40
0
 40
1
 40
1
 40
1
 40
1
 10
34.338033
 20
23.195722
 30
0.0
 10
34.192277
 20
23.311382
 30
0.0
 10
34.036185
 20
23.414055
 30
0.0
 10
33.873292
 20
23.501752
 30
0.0
  0
SPLINE
  5
277
100
AcDbEntity
  8
Layer_1
 62
7
100
AcDbSpline
 70
8
 71
3
 72
8
 73
4
 74
0
 40
0
 40
0
 40
0
 40
0
 40
1
 40
1
 40
1
 40
1
 10
33.873292
 20
23.501752
 30
0.0
 10
33.633881
 20
23.630644
 30
0.0
 10
33.379820
 20
23.726895
 30
0.0
 10
33.123809
 20
23.789091
 30
0.0
  0
SPLINE
  5
278
100
AcDbEntity
  8
Layer_1
 62
7
100
AcDbSpline
 70
8
 71
3
 72
8
 73
4
 74
0
 40
0
 40
0
 40
0
 40
0
 40
1
 40
1
 40
1
 40
1
 10
33.123809
 20
23.789091
 30
0.0
 10
32.873977
 20
23.849787
 30
0.0
 10
32.622453
 20
23.878118
 30
0.0
 10
32.380258
 20
23.878118
 30
0.0
  0
LWPOLYLINE
  5
279
100
AcDbEntity
  8
Layer_1
 62
7
100
AcDbPolyline
 90
2
 70
0
 10
35.529860
 20
15.216711
 30
0.0
 10
35.529860
 20
20.728515
 30
0.0
  0
SPLINE
  5
27a
100
AcDbEntity
  8
Layer_1
 62
7
100
AcDbSpline
 70
8
 71
3
 72
8
 73
4
 74
0
 40
0
 40
0
 40
0
 40
0
 40
1
 40
1
 40
1
 40
1
 10
3.246436
 20
23.878118
 30
0.0
 10
3.042546
 20
23.878118
 30
0.0
 10
2.832079
 20
23.858125
 30
0.0
 10
2.621519
 20
23.815500
 30
0.0
  0
SPLINE
  5
27b
100
AcDbEntity
  8
Layer_1
 62
7
100
AcDbSpline
 70
8
 71
3
 72
8
 73
4
 74
0
 40
0
 40
0
 40
0
 40
0
 40
1
 40
1
 40
1
 40
1
 10
2.621519
 20
23.815500
 30
0.0
 10
2.438254
 20
23.778400
 30
0.0
 10
2.254971
 20
23.724181
 30
0.0
 10
2.076336
 20
23.652701
 30
0.0
  0
SPLINE
  5
27c
100
AcDbEntity
  8
Layer_1
 62
7
100
AcDbSpline
 70
8
 71
3
 72
8
 73
4
 74
0
 40
0
 40
0
 40
0
 40
0
 40
1
 40
1
 40
1
 40
1
 10
2.076336
 20
23.652701
 30
0.0
 10
1.769133
 20
23.529775
 30
0.0
 10
1.476100
 20
23.355099
 30
0.0
 10
1.218830
 20
23.138662
 30
0.0
  0
SPLINE
  5
27d
100
AcDbEntity
  8
Layer_1
 62
7
100
AcDbSpline
 70
8
 71
3
 72
8
 73
4
 74
0
 40
0
 40
0
 40
0
 40
0
 40
1
 40
1
 40
1
 40
1
 10
1.218830
 20
23.138662
 30
0.0
 10
1.027458
 20
22.977665
 30
0.0
 10
0.855855
 20
22.793915
 30
0.0
 10
0.709753
 20
22.595394
 30
0.0
  0
SPLINE
  5
27e
100
AcDbEntity
  8
Layer_1
 62
7
100
AcDbSpline
 70
8
 71
3
 72
8
 73
4
 74
0
 40
0
 40
0
 40
0
 40
0
 40
1
 40
1
 40
1
 40
1
 10
0.709753
 20
22.595394
 30
0.0
 10
0.601074
 20
22.447723
 30
0.0
 10
0.506442
 20
22.291959
 30
0.0
 10
0.426827
 20
22.132011
 30
0.0
  0
SPLINE
  5
27f
100
AcDbEntity
  8
Layer_1
 62
7
100
AcDbSpline
 70
8
 71
3
 72
8
 73
4
 74
0
 40
0
 40
0
 40
0
 40
0
 40
1
 40
1
 40
1
 40
1
 10
0.426827
 20
22.132011
 30
0.0
 10
0.309810
 20
21.896926
 30
0.0
 10
0.225479
 20
21.652911
 30
0.0
 10
0.171985
 20
21.412437
 30
0.0
  0
SPLINE
  5
280
100
AcDbEntity
  8
Layer_1
 62
7
100
AcDbSpline
 70
8
 71
3
 72
8
 73
4
 74
0
 40
0
 40
0
 40
0
 40
0
 40
1
 40
1
 40
1
 40
1
 10
0.171985
 20
21.412437
 30
0.0
 10
0.119782
 20
21.177767
 30
0.0
 10
0.096833
 20
20.946588
 30
0.0
 10
0.096833
 20
20.728515
 30
0.0
  0
LWPOLYLINE
  5
281
100
AcDbEntity
  8
Layer_1
 62
7
100
AcDbPolyline
 90
2
 70
0
 10
32.380258
 20
23.878118
 30
0.0
 10
3.246436
 20
23.878118
 30
0.0
  0
SPLINE
  5
282
100
AcDbEntity
  8
Layer_1
 62
7
100
AcDbSpline
 70
8
 71
3
 72
8
 73
4
 74
0
 40
0
 40
0
 40
0
 40
0
 40
1
 40
1
 40
1
 40
1
 10
0.096833
 20
15.216711
 30
0.0
 10
0.096833
 20
15.002924
 30
0.0
 10
0.118675
 20
14.789143
 30
0.0
 10
0.161909
 20
14.579772
 30
0.0
  0
SPLINE
  5
283
100
AcDbEntity
  8
Layer_1
 62
7
100
AcDbSpline
 70
8
 71
3
 72
8
 73
4
 74
0
 40
0
 40
0
 40
0
 40
0
 40
1
 40
1
 40
1
 40
1
 10
0.161909
 20
14.579772
 30
0.0
 10
0.199538
 20
14.397544
 30
0.0
 10
0.253357
 20
14.218662
 30
0.0
 10
0.322526
 20
14.045923
 30
0.0
  0
SPLINE
  5
284
100
AcDbEntity
  8
Layer_1
 62
7
100
AcDbSpline
 70
8
 71
3
 72
8
 73
4
 74
0
 40
0
 40
0
 40
0
 40
0
 40
1
 40
1
 40
1
 40
1
 10
0.322526
 20
14.045923
 30
0.0
 10
0.382727
 20
13.895577
 30
0.0
 10
0.454546
 20
13.749886
 30
0.0
 10
0.537133
 20
13.610575
 30
0.0
  0
SPLINE
  5
285
100
AcDbEntity
  8
Layer_1
 62
7
100
AcDbSpline
 70
8
 71
3
 72
8
 73
4
 74
0
 40
0
 40
0
 40
0
 40
0
 40
1
 40
1
 40
1
 40
1
 10
0.537133
 20
13.610575
 30
0.0
 10
0.679159
 20
13.370999
 30
0.0
 10
0.853136
 20
13.150391
 30
0.0
 10
1.053006
 20
12.956432
 30
0.0
  0
SPLINE
  5
286
100
AcDbEntity
  8
Layer_1
 62
7
100
AcDbSpline
 70
8
 71
3
 72
8
 73
4
 74
0
 40
0
 40
0
 40
0
 40
0
 40
1
 40
1
 40
1
 40
1
 10
1.053006
 20
12.956432
 30
0.0
 10
1.201680
 20
12.812155
 30
0.0
 10
1.364632
 20
12.682598
 30
0.0
 10
1.538708
 20
12.570269
 30
0.0
  0
SPLINE
  5
287
100
AcDbEntity
  8
Layer_1
 62
7
100
AcDbSpline
 70
8
 71
3
 72
8
 73
4
 74
0
 40
0
 40
0
 40
0
 40
0
 40
1
 40
1
 40
1
 40
1
 10
1.538708
 20
12.570269
 30
0.0
 10
1.794555
 20
12.405172
 30
0.0
 10
2.074482
 20
12.277453
 30
0.0
 10
2.366860
 20
12.192419
 30
0.0
  0
SPLINE
  5
288
100
AcDbEntity
  8
Layer_1
 62
7
100
AcDbSpline
 70
8
 71
3
 72
8
 73
4
 74
0
 40
0
 40
0
 40
0
 40
0
 40
1
 40
1
 40
1
 40
1
 10
2.366860
 20
12.192419
 30
0.0
 10
2.652180
 20
12.109437
 30
0.0
 10
2.949292
 20
12.067109
 30
0.0
 10
3.246436
 20
12.067109
 30
0.0
  0
LWPOLYLINE
  5
289
100
AcDbEntity
  8
Layer_1
 62
7
100
AcDbPolyline
 90
2
 70
0
 10
0.096833
 20
20.728515
 30
0.0
 10
0.096833
 20
15.216711
 30
0.0
  0
SPLINE
  5
28a
100
AcDbEntity
  8
Layer_1
 62
7
100
AcDbSpline
 70
8
 71
3
 72
8
 73
4
 74
0
 40
0
 40
0
 40
0
 40
0
 40
1
 40
1
 40
1
 40
1
 10
32.380258
 20
12.067109
 30
0.0
 10
32.594045
 20
12.067109
 30
0.0
 10
32.807826
 20
12.088950
 30
0.0
 10
33.017197
 20
12.132185
 30
0.0
  0
SPLINE
  5
28b
100
AcDbEntity
  8
Layer_1
 62
7
100
AcDbSpline
 70
8
 71
3
 72
8
 73
4
 74
0
 40
0
 40
0
 40
0
 40
0
 40
1
 40
1
 40
1
 40
1
 10
33.017197
 20
12.132185
 30
0.0
 10
33.199424
 20
12.169814
 30
0.0
 10
33.378307
 20
12.223633
 30
0.0
 10
33.551045
 20
12.292800
 30
0.0
  0
SPLINE
  5
28c
100
AcDbEntity
  8
Layer_1
 62
7
100
AcDbSpline
 70
8
 71
3
 72
8
 73
4
 74
0
 40
0
 40
0
 40
0
 40
0
 40
1
 40
1
 40
1
 40
1
 10
33.551045
 20
12.292800
 30
0.0
 10
33.701392
 20
12.353002
 30
0.0
 10
33.847083
 20
12.424822
 30
0.0
 10
33.986394
 20
12.507408
 30
0.0
  0
SPLINE
  5
28d
100
AcDbEntity
  8
Layer_1
 62
7
100
AcDbSpline
 70
8
 71
3
 72
8
 73
4
 74
0
 40
0
 40
0
 40
0
 40
0
 40
1
 40
1
 40
1
 40
1
 10
33.986394
 20
12.507408
 30
0.0
 10
34.225970
 20
12.649434
 30
0.0
 10
34.446578
 20
12.823411
 30
0.0
 10
34.640536
 20
13.023282
 30
0.0
  0
SPLINE
  5
28e
100
AcDbEntity
  8
Layer_1
 62
7
100
AcDbSpline
 70
8
 71
3
 72
8
 73
4
 74
0
 40
0
 40
0
 40
0
 40
0
 40
1
 40
1
 40
1
 40
1
 10
34.640536
 20
13.023282
 30
0.0
 10
34.784814
 20
13.171955
 30
0.0
 10
34.914371
 20
13.334907
 30
0.0
 10
35.026700
 20
13.508982
 30
0.0
  0
SPLINE
  5
28f
100
AcDbEntity
  8
Layer_1
 62
7
100
AcDbSpline
 70
8
 71
3
 72
8
 73
4
 74
0
 40
0
 40
0
 40
0
 40
0
 40
1
 40
1
 40
1
 40
1
 10
35.026700
 20
13.508982
 30
0.0
 10
35.191797
 20
13.764831
 30
0.0
 10
35.319516
 20
14.044757
 30
0.0
 10
35.404550
 20
14.337134
 30
0.0
  0
SPLINE
  5
290
100
AcDbEntity
  8
Layer_1
 62
7
100
AcDbSpline
 70
8
 71
3
 72
8
 73
4
 74
0
 40
0
 40
0
 40
0
 40
0
 40
1
 40
1
 40
1
 40
1
 10
35.404550
 20
14.337134
 30
0.0
 10
35.487531
 20
14.622456
 30
0.0
 10
35.529860
 20
14.919568
 30
0.0
 10
35.529860
 20
15.216711
 30
0.0
  0
LWPOLYLINE
  5
291
100
AcDbEntity
  8
Layer_1
 62
7
100
AcDbPolyline
 90
2
 70
0
 10
3.246436
 20
12.067109
 30
0.0
 10
32.380258
 20
12.067109
 30
0.0
  0
ENDSEC
  0
SECTION
  2
OBJECTS
  0
DICTIONARY
  5
C
330
0
100
AcDbDictionary
  3
ACAD_GROUP
350
D
  3
ACAD_MLINESTYLE
350
17
  0
DICTIONARY
  5
D
330
C
100
AcDbDictionary
  0
DICTIONARY
  5
1A
330
C
100
AcDbDictionary
  0
DICTIONARY
  5
17
330
C
100
AcDbDictionary
  3
STANDARD
350
18
  0
DICTIONARY
  5
19
330
C
100
AcDbDictionary
  0
ENDSEC
  0
EOF
