  0
SECTION
  2
HEADER
  9
$ACADVER
  1
AC1014
  9
$HANDSEED
  5
FFFF
  9
$INSUNITS
 70
     4
  9
$MEASUREMENT
 70
     1
  0
ENDSEC
  0
SECTION
  2
TABLES
  0
TABLE
  2
VPORT
  5
8
330
0
100
AcDbSymbolTable
 70
     4
  0
VPORT
  5
2E
330
8
100
AcDbSymbolTableRecord
100
AcDbViewportTableRecord
  2
*ACTIVE
 70
     0
 10
0.0
 20
0.0
 11
1.0
 21
1.0
 12
210.0
 22
148.5
 13
0.0
 23
0.0
 14
10.0
 24
10.0
 15
10.0
 25
10.0
 16
0.0
 26
0.0
 36
1.0
 17
0.0
 27
0.0
 37
0.0
 40
341.0
 41
1.24
 42
50.0
 43
0.0
 44
0.0
 50
0.0
 51
0.0
 71
     0
 72
   100
 73
     1
 74
     3
 75
     0
 76
     0
 77
     0
 78
     0
  0
ENDTAB
  0
TABLE
  2
LTYPE
  5
5
330
0
100
AcDbSymbolTable
 70
     1
  0
LTYPE
  5
14
330
5
100
AcDbSymbolTableRecord
100
AcDbLinetypeTableRecord
  2
BYBLOCK
 70
     0
  3

 72
    65
 73
     0
 40
0.0
  0
LTYPE
  5
15
330
5
100
AcDbSymbolTableRecord
100
AcDbLinetypeTableRecord
  2
BYLAYER
 70
     0
  3

 72
    65
 73
     0
 40
0.0
  0
LTYPE
  5
16
330
5
100
AcDbSymbolTableRecord
100
AcDbLinetypeTableRecord
  2
CONTINUOUS
 70
     0
  3
Solid line
 72
    65
 73
     0
 40
0.0
  0
ENDTAB
  0
TABLE
  2
LAYER
  5
2
100
AcDbSymbolTable
 70
2
  0
LAYER
  5
50
100
AcDbSymbolTableRecord
100
AcDbLayerTableRecord
  2
0
 70
0
  6
CONTINUOUS
  0
LAYER
  5
51
100
AcDbSymbolTableRecord
100
AcDbLayerTableRecord
  2
Layer_1
 70
0
  6
CONTINUOUS
  0
ENDTAB
  0
TABLE
  2
STYLE
  5
3
330
0
100
AcDbSymbolTable
 70
     1
  0
STYLE
  5
11
330
3
100
AcDbSymbolTableRecord
100
AcDbTextStyleTableRecord
  2
STANDARD
 70
     0
 40
0.0
 41
1.0
 50
0.0
 71
     0
 42
2.5
  3
txt
  4

  0
ENDTAB
  0
TABLE
  2
VIEW
  5
6
330
0
100
AcDbSymbolTable
 70
     0
  0
ENDTAB
  0
TABLE
  2
UCS
  5
7
330
0
100
AcDbSymbolTable
 70
     0
  0
ENDTAB
  0
TABLE
  2
APPID
  5
9
330
0
100
AcDbSymbolTable
 70
     2
  0
APPID
  5
12
330
9
100
AcDbSymbolTableRecord
100
AcDbRegAppTableRecord
  2
ACAD
 70
     0
  0
ENDTAB
  0
TABLE
  2
DIMSTYLE
  5
A
330
0
100
AcDbSymbolTable
 70
     1
  0
DIMSTYLE
105
27
330
A
100
AcDbSymbolTableRecord
100
AcDbDimStyleTableRecord
  2
ISO-25
 70
     0
  3

  4

  5

  6

  7

 40
1.0
 41
2.5
 42
0.625
 43
3.75
 44
1.25
 45
0.0
 46
0.0
 47
0.0
 48
0.0
140
2.5
141
2.5
142
0.0
143
0.03937007874016
144
1.0
145
0.0
146
1.0
147
0.625
 71
     0
 72
     0
 73
     0
 74
     0
 75
     0
 76
     0
 77
     1
 78
     8
170
     0
171
     3
172
     1
173
     0
174
     0
175
     0
176
     0
177
     0
178
     0
270
     2
271
     2
272
     2
273
     2
274
     3
340
11
275
     0
280
     0
281
     0
282
     0
283
     0
284
     8
285
     0
286
     0
287
     3
288
     0
  0
ENDTAB
  0
TABLE
  2
BLOCK_RECORD
  5
1
330
0
100
AcDbSymbolTable
 70
     1
  0
BLOCK_RECORD
  5
1F
330
1
100
AcDbSymbolTableRecord
100
AcDbBlockTableRecord
  2
*MODEL_SPACE
  0
BLOCK_RECORD
  5
1B
330
1
100
AcDbSymbolTableRecord
100
AcDbBlockTableRecord
  2
*PAPER_SPACE
  0
ENDTAB
  0
ENDSEC
  0
SECTION
  2
BLOCKS
  0
BLOCK
  5
20
330
1F
100
AcDbEntity
  8
0
100
AcDbBlockBegin
  2
*MODEL_SPACE
 70
     0
 10
0.0
 20
0.0
 30
0.0
  3
*MODEL_SPACE
  1

  0
ENDBLK
  5
21
330
1F
100
AcDbEntity
  8
0
100
AcDbBlockEnd
  0
BLOCK
  5
1C
330
1B
100
AcDbEntity
 67
     1
  8
0
100
AcDbBlockBegin
  2
*PAPER_SPACE
  1

  0
ENDBLK
  5
1D
330
1B
100
AcDbEntity
 67
     1
  8
0
100
AcDbBlockEnd
  0
ENDSEC
  0
SECTION
  2
ENTITIES
  0
SPLINE
  5
100
100
AcDbEntity
  8
Layer_1
 62
7
100
AcDbSpline
 70
8
 71
3
 72
8
 73
4
 74
0
 40
0
 40
0
 40
0
 40
0
 40
1
 40
1
 40
1
 40
1
 10
20.751152
 20
11.310435
 30
0.0
 10
20.751152
 20
11.330830
 30
0.0
 10
20.740271
 20
11.349675
 30
0.0
 10
20.722608
 20
11.359873
 30
0.0
  0
SPLINE
  5
101
100
AcDbEntity
  8
Layer_1
 62
7
100
AcDbSpline
 70
8
 71
3
 72
8
 73
4
 74
0
 40
0
 40
0
 40
0
 40
0
 40
1
 40
1
 40
1
 40
1
 10
20.722608
 20
11.359873
 30
0.0
 10
20.704946
 20
11.370071
 30
0.0
 10
20.683184
 20
11.370071
 30
0.0
 10
20.665522
 20
11.359873
 30
0.0
  0
SPLINE
  5
102
100
AcDbEntity
  8
Layer_1
 62
7
100
AcDbSpline
 70
8
 71
3
 72
8
 73
4
 74
0
 40
0
 40
0
 40
0
 40
0
 40
1
 40
1
 40
1
 40
1
 10
20.665522
 20
11.359873
 30
0.0
 10
20.647859
 20
11.349675
 30
0.0
 10
20.636978
 20
11.330830
 30
0.0
 10
20.636978
 20
11.310435
 30
0.0
  0
SPLINE
  5
103
100
AcDbEntity
  8
Layer_1
 62
7
100
AcDbSpline
 70
8
 71
3
 72
8
 73
4
 74
0
 40
0
 40
0
 40
0
 40
0
 40
1
 40
1
 40
1
 40
1
 10
20.636978
 20
11.310435
 30
0.0
 10
20.636978
 20
11.290040
 30
0.0
 10
20.647859
 20
11.271194
 30
0.0
 10
20.665522
 20
11.260996
 30
0.0
  0
SPLINE
  5
104
100
AcDbEntity
  8
Layer_1
 62
7
100
AcDbSpline
 70
8
 71
3
 72
8
 73
4
 74
0
 40
0
 40
0
 40
0
 40
0
 40
1
 40
1
 40
1
 40
1
 10
20.665522
 20
11.260996
 30
0.0
 10
20.683184
 20
11.250799
 30
0.0
 10
20.704946
 20
11.250799
 30
0.0
 10
20.722608
 20
11.260996
 30
0.0
  0
SPLINE
  5
105
100
AcDbEntity
  8
Layer_1
 62
7
100
AcDbSpline
 70
8
 71
3
 72
8
 73
4
 74
0
 40
0
 40
0
 40
0
 40
0
 40
1
 40
1
 40
1
 40
1
 10
20.722608
 20
11.260996
 30
0.0
 10
20.740271
 20
11.271194
 30
0.0
 10
20.751152
 20
11.290040
 30
0.0
 10
20.751152
 20
11.310435
 30
0.0
  0
SPLINE
  5
106
100
AcDbEntity
  8
Layer_1
 62
7
100
AcDbSpline
 70
8
 71
3
 72
8
 73
4
 74
0
 40
0
 40
0
 40
0
 40
0
 40
1
 40
1
 40
1
 40
1
 10
6.971641
 20
0.759266
 30
0.0
 10
6.971568
 20
0.790742
 30
0.0
 10
6.946031
 20
0.816219
 30
0.0
 10
6.914555
 20
0.816219
 30
0.0
  0
SPLINE
  5
107
100
AcDbEntity
  8
Layer_1
 62
7
100
AcDbSpline
 70
8
 71
3
 72
8
 73
4
 74
0
 40
0
 40
0
 40
0
 40
0
 40
1
 40
1
 40
1
 40
1
 10
6.914555
 20
0.816219
 30
0.0
 10
6.883079
 20
0.816219
 30
0.0
 10
6.857542
 20
0.790742
 30
0.0
 10
6.857468
 20
0.759266
 30
0.0
  0
SPLINE
  5
108
100
AcDbEntity
  8
Layer_1
 62
7
100
AcDbSpline
 70
8
 71
3
 72
8
 73
4
 74
0
 40
0
 40
0
 40
0
 40
0
 40
1
 40
1
 40
1
 40
1
 10
6.857468
 20
0.759266
 30
0.0
 10
6.857542
 20
0.727791
 30
0.0
 10
6.883079
 20
0.702313
 30
0.0
 10
6.914555
 20
0.702313
 30
0.0
  0
SPLINE
  5
109
100
AcDbEntity
  8
Layer_1
 62
7
100
AcDbSpline
 70
8
 71
3
 72
8
 73
4
 74
0
 40
0
 40
0
 40
0
 40
0
 40
1
 40
1
 40
1
 40
1
 10
6.914555
 20
0.702313
 30
0.0
 10
6.946031
 20
0.702313
 30
0.0
 10
6.971568
 20
0.727791
 30
0.0
 10
6.971641
 20
0.759266
 30
0.0
  0
LWPOLYLINE
  5
10a
100
AcDbEntity
  8
Layer_1
 62
7
100
AcDbPolyline
 90
1
 70
1
 10
20.751152
 20
11.310435
 30
0.0
  0
SPLINE
  5
10b
100
AcDbEntity
  8
Layer_1
 62
7
100
AcDbSpline
 70
8
 71
3
 72
8
 73
4
 74
0
 40
0
 40
0
 40
0
 40
0
 40
1
 40
1
 40
1
 40
1
 10
12.483445
 20
0.759266
 30
0.0
 10
12.483445
 20
0.779661
 30
0.0
 10
12.472565
 20
0.798507
 30
0.0
 10
12.454902
 20
0.808705
 30
0.0
  0
SPLINE
  5
10c
100
AcDbEntity
  8
Layer_1
 62
7
100
AcDbSpline
 70
8
 71
3
 72
8
 73
4
 74
0
 40
0
 40
0
 40
0
 40
0
 40
1
 40
1
 40
1
 40
1
 10
12.454902
 20
0.808705
 30
0.0
 10
12.437239
 20
0.818902
 30
0.0
 10
12.415478
 20
0.818902
 30
0.0
 10
12.397816
 20
0.808705
 30
0.0
  0
SPLINE
  5
10d
100
AcDbEntity
  8
Layer_1
 62
7
100
AcDbSpline
 70
8
 71
3
 72
8
 73
4
 74
0
 40
0
 40
0
 40
0
 40
0
 40
1
 40
1
 40
1
 40
1
 10
12.397816
 20
0.808705
 30
0.0
 10
12.380153
 20
0.798507
 30
0.0
 10
12.369272
 20
0.779661
 30
0.0
 10
12.369272
 20
0.759266
 30
0.0
  0
SPLINE
  5
10e
100
AcDbEntity
  8
Layer_1
 62
7
100
AcDbSpline
 70
8
 71
3
 72
8
 73
4
 74
0
 40
0
 40
0
 40
0
 40
0
 40
1
 40
1
 40
1
 40
1
 10
12.369272
 20
0.759266
 30
0.0
 10
12.369272
 20
0.738871
 30
0.0
 10
12.380153
 20
0.720025
 30
0.0
 10
12.397816
 20
0.709828
 30
0.0
  0
SPLINE
  5
10f
100
AcDbEntity
  8
Layer_1
 62
7
100
AcDbSpline
 70
8
 71
3
 72
8
 73
4
 74
0
 40
0
 40
0
 40
0
 40
0
 40
1
 40
1
 40
1
 40
1
 10
12.397816
 20
0.709828
 30
0.0
 10
12.415478
 20
0.699630
 30
0.0
 10
12.437239
 20
0.699630
 30
0.0
 10
12.454902
 20
0.709828
 30
0.0
  0
SPLINE
  5
110
100
AcDbEntity
  8
Layer_1
 62
7
100
AcDbSpline
 70
8
 71
3
 72
8
 73
4
 74
0
 40
0
 40
0
 40
0
 40
0
 40
1
 40
1
 40
1
 40
1
 10
12.454902
 20
0.709828
 30
0.0
 10
12.472565
 20
0.720025
 30
0.0
 10
12.483445
 20
0.738871
 30
0.0
 10
12.483445
 20
0.759266
 30
0.0
  0
LWPOLYLINE
  5
111
100
AcDbEntity
  8
Layer_1
 62
7
100
AcDbPolyline
 90
1
 70
1
 10
6.971641
 20
0.759266
 30
0.0
  0
SPLINE
  5
112
100
AcDbEntity
  8
Layer_1
 62
7
100
AcDbSpline
 70
8
 71
3
 72
8
 73
4
 74
0
 40
0
 40
0
 40
0
 40
0
 40
1
 40
1
 40
1
 40
1
 10
26.262956
 20
11.310435
 30
0.0
 10
26.262956
 20
11.330830
 30
0.0
 10
26.252075
 20
11.349675
 30
0.0
 10
26.234412
 20
11.359873
 30
0.0
  0
SPLINE
  5
113
100
AcDbEntity
  8
Layer_1
 62
7
100
AcDbSpline
 70
8
 71
3
 72
8
 73
4
 74
0
 40
0
 40
0
 40
0
 40
0
 40
1
 40
1
 40
1
 40
1
 10
26.234412
 20
11.359873
 30
0.0
 10
26.216750
 20
11.370071
 30
0.0
 10
26.194989
 20
11.370071
 30
0.0
 10
26.177326
 20
11.359873
 30
0.0
  0
SPLINE
  5
114
100
AcDbEntity
  8
Layer_1
 62
7
100
AcDbSpline
 70
8
 71
3
 72
8
 73
4
 74
0
 40
0
 40
0
 40
0
 40
0
 40
1
 40
1
 40
1
 40
1
 10
26.177326
 20
11.359873
 30
0.0
 10
26.159663
 20
11.349675
 30
0.0
 10
26.148783
 20
11.330830
 30
0.0
 10
26.148783
 20
11.310435
 30
0.0
  0
SPLINE
  5
115
100
AcDbEntity
  8
Layer_1
 62
7
100
AcDbSpline
 70
8
 71
3
 72
8
 73
4
 74
0
 40
0
 40
0
 40
0
 40
0
 40
1
 40
1
 40
1
 40
1
 10
26.148783
 20
11.310435
 30
0.0
 10
26.148783
 20
11.290040
 30
0.0
 10
26.159663
 20
11.271194
 30
0.0
 10
26.177326
 20
11.260996
 30
0.0
  0
SPLINE
  5
116
100
AcDbEntity
  8
Layer_1
 62
7
100
AcDbSpline
 70
8
 71
3
 72
8
 73
4
 74
0
 40
0
 40
0
 40
0
 40
0
 40
1
 40
1
 40
1
 40
1
 10
26.177326
 20
11.260996
 30
0.0
 10
26.194989
 20
11.250799
 30
0.0
 10
26.216750
 20
11.250799
 30
0.0
 10
26.234412
 20
11.260996
 30
0.0
  0
SPLINE
  5
117
100
AcDbEntity
  8
Layer_1
 62
7
100
AcDbSpline
 70
8
 71
3
 72
8
 73
4
 74
0
 40
0
 40
0
 40
0
 40
0
 40
1
 40
1
 40
1
 40
1
 10
26.234412
 20
11.260996
 30
0.0
 10
26.252075
 20
11.271194
 30
0.0
 10
26.262956
 20
11.290040
 30
0.0
 10
26.262956
 20
11.310435
 30
0.0
  0
LWPOLYLINE
  5
118
100
AcDbEntity
  8
Layer_1
 62
7
100
AcDbPolyline
 90
1
 70
1
 10
12.483445
 20
0.759266
 30
0.0
  0
SPLINE
  5
119
100
AcDbEntity
  8
Layer_1
 62
7
100
AcDbSpline
 70
8
 71
3
 72
8
 73
4
 74
0
 40
0
 40
0
 40
0
 40
0
 40
1
 40
1
 40
1
 40
1
 10
31.774760
 20
10.996085
 30
0.0
 10
31.774760
 20
11.016480
 30
0.0
 10
31.763880
 20
11.035326
 30
0.0
 10
31.746217
 20
11.045523
 30
0.0
  0
SPLINE
  5
11a
100
AcDbEntity
  8
Layer_1
 62
7
100
AcDbSpline
 70
8
 71
3
 72
8
 73
4
 74
0
 40
0
 40
0
 40
0
 40
0
 40
1
 40
1
 40
1
 40
1
 10
31.746217
 20
11.045523
 30
0.0
 10
31.728554
 20
11.055721
 30
0.0
 10
31.706793
 20
11.055721
 30
0.0
 10
31.689130
 20
11.045523
 30
0.0
  0
SPLINE
  5
11b
100
AcDbEntity
  8
Layer_1
 62
7
100
AcDbSpline
 70
8
 71
3
 72
8
 73
4
 74
0
 40
0
 40
0
 40
0
 40
0
 40
1
 40
1
 40
1
 40
1
 10
31.689130
 20
11.045523
 30
0.0
 10
31.671467
 20
11.035326
 30
0.0
 10
31.660587
 20
11.016480
 30
0.0
 10
31.660587
 20
10.996085
 30
0.0
  0
SPLINE
  5
11c
100
AcDbEntity
  8
Layer_1
 62
7
100
AcDbSpline
 70
8
 71
3
 72
8
 73
4
 74
0
 40
0
 40
0
 40
0
 40
0
 40
1
 40
1
 40
1
 40
1
 10
31.660587
 20
10.996085
 30
0.0
 10
31.660587
 20
10.975689
 30
0.0
 10
31.671467
 20
10.956844
 30
0.0
 10
31.689130
 20
10.946646
 30
0.0
  0
SPLINE
  5
11d
100
AcDbEntity
  8
Layer_1
 62
7
100
AcDbSpline
 70
8
 71
3
 72
8
 73
4
 74
0
 40
0
 40
0
 40
0
 40
0
 40
1
 40
1
 40
1
 40
1
 10
31.689130
 20
10.946646
 30
0.0
 10
31.706793
 20
10.936448
 30
0.0
 10
31.728554
 20
10.936448
 30
0.0
 10
31.746217
 20
10.946646
 30
0.0
  0
SPLINE
  5
11e
100
AcDbEntity
  8
Layer_1
 62
7
100
AcDbSpline
 70
8
 71
3
 72
8
 73
4
 74
0
 40
0
 40
0
 40
0
 40
0
 40
1
 40
1
 40
1
 40
1
 10
31.746217
 20
10.946646
 30
0.0
 10
31.763880
 20
10.956844
 30
0.0
 10
31.774760
 20
10.975689
 30
0.0
 10
31.774760
 20
10.996085
 30
0.0
  0
LWPOLYLINE
  5
11f
100
AcDbEntity
  8
Layer_1
 62
7
100
AcDbPolyline
 90
1
 70
1
 10
26.262956
 20
11.310435
 30
0.0
  0
SPLINE
  5
120
100
AcDbEntity
  8
Layer_1
 62
7
100
AcDbSpline
 70
8
 71
3
 72
8
 73
4
 74
0
 40
0
 40
0
 40
0
 40
0
 40
1
 40
1
 40
1
 40
1
 10
15.239347
 20
11.310435
 30
0.0
 10
15.239347
 20
11.341963
 30
0.0
 10
15.213789
 20
11.367521
 30
0.0
 10
15.182261
 20
11.367521
 30
0.0
  0
SPLINE
  5
121
100
AcDbEntity
  8
Layer_1
 62
7
100
AcDbSpline
 70
8
 71
3
 72
8
 73
4
 74
0
 40
0
 40
0
 40
0
 40
0
 40
1
 40
1
 40
1
 40
1
 10
15.182261
 20
11.367521
 30
0.0
 10
15.150733
 20
11.367521
 30
0.0
 10
15.125174
 20
11.341963
 30
0.0
 10
15.125174
 20
11.310435
 30
0.0
  0
SPLINE
  5
122
100
AcDbEntity
  8
Layer_1
 62
7
100
AcDbSpline
 70
8
 71
3
 72
8
 73
4
 74
0
 40
0
 40
0
 40
0
 40
0
 40
1
 40
1
 40
1
 40
1
 10
15.125174
 20
11.310435
 30
0.0
 10
15.125174
 20
11.290040
 30
0.0
 10
15.136055
 20
11.271194
 30
0.0
 10
15.153718
 20
11.260996
 30
0.0
  0
SPLINE
  5
123
100
AcDbEntity
  8
Layer_1
 62
7
100
AcDbSpline
 70
8
 71
3
 72
8
 73
4
 74
0
 40
0
 40
0
 40
0
 40
0
 40
1
 40
1
 40
1
 40
1
 10
15.153718
 20
11.260996
 30
0.0
 10
15.171380
 20
11.250799
 30
0.0
 10
15.193142
 20
11.250799
 30
0.0
 10
15.210804
 20
11.260996
 30
0.0
  0
SPLINE
  5
124
100
AcDbEntity
  8
Layer_1
 62
7
100
AcDbSpline
 70
8
 71
3
 72
8
 73
4
 74
0
 40
0
 40
0
 40
0
 40
0
 40
1
 40
1
 40
1
 40
1
 10
15.210804
 20
11.260996
 30
0.0
 10
15.228467
 20
11.271194
 30
0.0
 10
15.239347
 20
11.290040
 30
0.0
 10
15.239347
 20
11.310435
 30
0.0
  0
LWPOLYLINE
  5
125
100
AcDbEntity
  8
Layer_1
 62
7
100
AcDbPolyline
 90
1
 70
1
 10
31.774760
 20
10.996085
 30
0.0
  0
SPLINE
  5
126
100
AcDbEntity
  8
Layer_1
 62
7
100
AcDbSpline
 70
8
 71
3
 72
8
 73
4
 74
0
 40
0
 40
0
 40
0
 40
0
 40
1
 40
1
 40
1
 40
1
 10
23.507054
 20
0.759266
 30
0.0
 10
23.507054
 20
0.779661
 30
0.0
 10
23.496173
 20
0.798507
 30
0.0
 10
23.478510
 20
0.808705
 30
0.0
  0
SPLINE
  5
127
100
AcDbEntity
  8
Layer_1
 62
7
100
AcDbSpline
 70
8
 71
3
 72
8
 73
4
 74
0
 40
0
 40
0
 40
0
 40
0
 40
1
 40
1
 40
1
 40
1
 10
23.478510
 20
0.808705
 30
0.0
 10
23.460848
 20
0.818902
 30
0.0
 10
23.439086
 20
0.818902
 30
0.0
 10
23.421424
 20
0.808705
 30
0.0
  0
SPLINE
  5
128
100
AcDbEntity
  8
Layer_1
 62
7
100
AcDbSpline
 70
8
 71
3
 72
8
 73
4
 74
0
 40
0
 40
0
 40
0
 40
0
 40
1
 40
1
 40
1
 40
1
 10
23.421424
 20
0.808705
 30
0.0
 10
23.403761
 20
0.798507
 30
0.0
 10
23.392881
 20
0.779661
 30
0.0
 10
23.392881
 20
0.759266
 30
0.0
  0
SPLINE
  5
129
100
AcDbEntity
  8
Layer_1
 62
7
100
AcDbSpline
 70
8
 71
3
 72
8
 73
4
 74
0
 40
0
 40
0
 40
0
 40
0
 40
1
 40
1
 40
1
 40
1
 10
23.392881
 20
0.759266
 30
0.0
 10
23.392881
 20
0.738871
 30
0.0
 10
23.403761
 20
0.720025
 30
0.0
 10
23.421424
 20
0.709828
 30
0.0
  0
SPLINE
  5
12a
100
AcDbEntity
  8
Layer_1
 62
7
100
AcDbSpline
 70
8
 71
3
 72
8
 73
4
 74
0
 40
0
 40
0
 40
0
 40
0
 40
1
 40
1
 40
1
 40
1
 10
23.421424
 20
0.709828
 30
0.0
 10
23.439086
 20
0.699630
 30
0.0
 10
23.460848
 20
0.699630
 30
0.0
 10
23.478510
 20
0.709828
 30
0.0
  0
SPLINE
  5
12b
100
AcDbEntity
  8
Layer_1
 62
7
100
AcDbSpline
 70
8
 71
3
 72
8
 73
4
 74
0
 40
0
 40
0
 40
0
 40
0
 40
1
 40
1
 40
1
 40
1
 10
23.478510
 20
0.709828
 30
0.0
 10
23.496173
 20
0.720025
 30
0.0
 10
23.507054
 20
0.738871
 30
0.0
 10
23.507054
 20
0.759266
 30
0.0
  0
LWPOLYLINE
  5
12c
100
AcDbEntity
  8
Layer_1
 62
7
100
AcDbPolyline
 90
1
 70
1
 10
15.239347
 20
11.310435
 30
0.0
  0
SPLINE
  5
12d
100
AcDbEntity
  8
Layer_1
 62
7
100
AcDbSpline
 70
8
 71
3
 72
8
 73
4
 74
0
 40
0
 40
0
 40
0
 40
0
 40
1
 40
1
 40
1
 40
1
 10
17.995250
 20
0.759266
 30
0.0
 10
17.995250
 20
0.779661
 30
0.0
 10
17.984369
 20
0.798507
 30
0.0
 10
17.966706
 20
0.808705
 30
0.0
  0
SPLINE
  5
12e
100
AcDbEntity
  8
Layer_1
 62
7
100
AcDbSpline
 70
8
 71
3
 72
8
 73
4
 74
0
 40
0
 40
0
 40
0
 40
0
 40
1
 40
1
 40
1
 40
1
 10
17.966706
 20
0.808705
 30
0.0
 10
17.949044
 20
0.818902
 30
0.0
 10
17.927282
 20
0.818902
 30
0.0
 10
17.909620
 20
0.808705
 30
0.0
  0
SPLINE
  5
12f
100
AcDbEntity
  8
Layer_1
 62
7
100
AcDbSpline
 70
8
 71
3
 72
8
 73
4
 74
0
 40
0
 40
0
 40
0
 40
0
 40
1
 40
1
 40
1
 40
1
 10
17.909620
 20
0.808705
 30
0.0
 10
17.891957
 20
0.798507
 30
0.0
 10
17.881076
 20
0.779661
 30
0.0
 10
17.881076
 20
0.759266
 30
0.0
  0
SPLINE
  5
130
100
AcDbEntity
  8
Layer_1
 62
7
100
AcDbSpline
 70
8
 71
3
 72
8
 73
4
 74
0
 40
0
 40
0
 40
0
 40
0
 40
1
 40
1
 40
1
 40
1
 10
17.881076
 20
0.759266
 30
0.0
 10
17.881076
 20
0.738871
 30
0.0
 10
17.891957
 20
0.720025
 30
0.0
 10
17.909620
 20
0.709828
 30
0.0
  0
SPLINE
  5
131
100
AcDbEntity
  8
Layer_1
 62
7
100
AcDbSpline
 70
8
 71
3
 72
8
 73
4
 74
0
 40
0
 40
0
 40
0
 40
0
 40
1
 40
1
 40
1
 40
1
 10
17.909620
 20
0.709828
 30
0.0
 10
17.927282
 20
0.699630
 30
0.0
 10
17.949044
 20
0.699630
 30
0.0
 10
17.966706
 20
0.709828
 30
0.0
  0
SPLINE
  5
132
100
AcDbEntity
  8
Layer_1
 62
7
100
AcDbSpline
 70
8
 71
3
 72
8
 73
4
 74
0
 40
0
 40
0
 40
0
 40
0
 40
1
 40
1
 40
1
 40
1
 10
17.966706
 20
0.709828
 30
0.0
 10
17.984369
 20
0.720025
 30
0.0
 10
17.995250
 20
0.738871
 30
0.0
 10
17.995250
 20
0.759266
 30
0.0
  0
LWPOLYLINE
  5
133
100
AcDbEntity
  8
Layer_1
 62
7
100
AcDbPolyline
 90
1
 70
1
 10
23.507054
 20
0.759266
 30
0.0
  0
SPLINE
  5
134
100
AcDbEntity
  8
Layer_1
 62
7
100
AcDbSpline
 70
8
 71
3
 72
8
 73
4
 74
0
 40
0
 40
0
 40
0
 40
0
 40
1
 40
1
 40
1
 40
1
 10
29.018858
 20
0.759266
 30
0.0
 10
29.018784
 20
0.790742
 30
0.0
 10
28.993247
 20
0.816219
 30
0.0
 10
28.961771
 20
0.816219
 30
0.0
  0
SPLINE
  5
135
100
AcDbEntity
  8
Layer_1
 62
7
100
AcDbSpline
 70
8
 71
3
 72
8
 73
4
 74
0
 40
0
 40
0
 40
0
 40
0
 40
1
 40
1
 40
1
 40
1
 10
28.961771
 20
0.816219
 30
0.0
 10
28.930295
 20
0.816219
 30
0.0
 10
28.904758
 20
0.790742
 30
0.0
 10
28.904685
 20
0.759266
 30
0.0
  0
SPLINE
  5
136
100
AcDbEntity
  8
Layer_1
 62
7
100
AcDbSpline
 70
8
 71
3
 72
8
 73
4
 74
0
 40
0
 40
0
 40
0
 40
0
 40
1
 40
1
 40
1
 40
1
 10
28.904685
 20
0.759266
 30
0.0
 10
28.904758
 20
0.727791
 30
0.0
 10
28.930295
 20
0.702313
 30
0.0
 10
28.961771
 20
0.702313
 30
0.0
  0
SPLINE
  5
137
100
AcDbEntity
  8
Layer_1
 62
7
100
AcDbSpline
 70
8
 71
3
 72
8
 73
4
 74
0
 40
0
 40
0
 40
0
 40
0
 40
1
 40
1
 40
1
 40
1
 10
28.961771
 20
0.702313
 30
0.0
 10
28.993247
 20
0.702313
 30
0.0
 10
29.018784
 20
0.727791
 30
0.0
 10
29.018858
 20
0.759266
 30
0.0
  0
LWPOLYLINE
  5
138
100
AcDbEntity
  8
Layer_1
 62
7
100
AcDbPolyline
 90
1
 70
1
 10
17.995250
 20
0.759266
 30
0.0
  0
SPLINE
  5
139
100
AcDbEntity
  8
Layer_1
 62
7
100
AcDbSpline
 70
8
 71
3
 72
8
 73
4
 74
0
 40
0
 40
0
 40
0
 40
0
 40
1
 40
1
 40
1
 40
1
 10
9.727543
 20
11.310435
 30
0.0
 10
9.727543
 20
11.330830
 30
0.0
 10
9.716663
 20
11.349675
 30
0.0
 10
9.699000
 20
11.359873
 30
0.0
  0
SPLINE
  5
13a
100
AcDbEntity
  8
Layer_1
 62
7
100
AcDbSpline
 70
8
 71
3
 72
8
 73
4
 74
0
 40
0
 40
0
 40
0
 40
0
 40
1
 40
1
 40
1
 40
1
 10
9.699000
 20
11.359873
 30
0.0
 10
9.681337
 20
11.370071
 30
0.0
 10
9.659576
 20
11.370071
 30
0.0
 10
9.641913
 20
11.359873
 30
0.0
  0
SPLINE
  5
13b
100
AcDbEntity
  8
Layer_1
 62
7
100
AcDbSpline
 70
8
 71
3
 72
8
 73
4
 74
0
 40
0
 40
0
 40
0
 40
0
 40
1
 40
1
 40
1
 40
1
 10
9.641913
 20
11.359873
 30
0.0
 10
9.624251
 20
11.349675
 30
0.0
 10
9.613370
 20
11.330830
 30
0.0
 10
9.613370
 20
11.310435
 30
0.0
  0
SPLINE
  5
13c
100
AcDbEntity
  8
Layer_1
 62
7
100
AcDbSpline
 70
8
 71
3
 72
8
 73
4
 74
0
 40
0
 40
0
 40
0
 40
0
 40
1
 40
1
 40
1
 40
1
 10
9.613370
 20
11.310435
 30
0.0
 10
9.613370
 20
11.290040
 30
0.0
 10
9.624251
 20
11.271194
 30
0.0
 10
9.641913
 20
11.260996
 30
0.0
  0
SPLINE
  5
13d
100
AcDbEntity
  8
Layer_1
 62
7
100
AcDbSpline
 70
8
 71
3
 72
8
 73
4
 74
0
 40
0
 40
0
 40
0
 40
0
 40
1
 40
1
 40
1
 40
1
 10
9.641913
 20
11.260996
 30
0.0
 10
9.659576
 20
11.250799
 30
0.0
 10
9.681337
 20
11.250799
 30
0.0
 10
9.699000
 20
11.260996
 30
0.0
  0
SPLINE
  5
13e
100
AcDbEntity
  8
Layer_1
 62
7
100
AcDbSpline
 70
8
 71
3
 72
8
 73
4
 74
0
 40
0
 40
0
 40
0
 40
0
 40
1
 40
1
 40
1
 40
1
 10
9.699000
 20
11.260996
 30
0.0
 10
9.716663
 20
11.271194
 30
0.0
 10
9.727543
 20
11.290040
 30
0.0
 10
9.727543
 20
11.310435
 30
0.0
  0
LWPOLYLINE
  5
13f
100
AcDbEntity
  8
Layer_1
 62
7
100
AcDbPolyline
 90
1
 70
1
 10
29.018858
 20
0.759266
 30
0.0
  0
SPLINE
  5
140
100
AcDbEntity
  8
Layer_1
 62
7
100
AcDbSpline
 70
8
 71
3
 72
8
 73
4
 74
0
 40
0
 40
0
 40
0
 40
0
 40
1
 40
1
 40
1
 40
1
 10
35.081843
 20
3.278949
 30
0.0
 10
35.081843
 20
3.299344
 30
0.0
 10
35.070962
 20
3.318190
 30
0.0
 10
35.053299
 20
3.328387
 30
0.0
  0
SPLINE
  5
141
100
AcDbEntity
  8
Layer_1
 62
7
100
AcDbSpline
 70
8
 71
3
 72
8
 73
4
 74
0
 40
0
 40
0
 40
0
 40
0
 40
1
 40
1
 40
1
 40
1
 10
35.053299
 20
3.328387
 30
0.0
 10
35.035636
 20
3.338585
 30
0.0
 10
35.013875
 20
3.338585
 30
0.0
 10
34.996212
 20
3.328387
 30
0.0
  0
SPLINE
  5
142
100
AcDbEntity
  8
Layer_1
 62
7
100
AcDbSpline
 70
8
 71
3
 72
8
 73
4
 74
0
 40
0
 40
0
 40
0
 40
0
 40
1
 40
1
 40
1
 40
1
 10
34.996212
 20
3.328387
 30
0.0
 10
34.978550
 20
3.318190
 30
0.0
 10
34.967669
 20
3.299344
 30
0.0
 10
34.967669
 20
3.278949
 30
0.0
  0
SPLINE
  5
143
100
AcDbEntity
  8
Layer_1
 62
7
100
AcDbSpline
 70
8
 71
3
 72
8
 73
4
 74
0
 40
0
 40
0
 40
0
 40
0
 40
1
 40
1
 40
1
 40
1
 10
34.967669
 20
3.278949
 30
0.0
 10
34.967669
 20
3.258553
 30
0.0
 10
34.978550
 20
3.239708
 30
0.0
 10
34.996212
 20
3.229510
 30
0.0
  0
SPLINE
  5
144
100
AcDbEntity
  8
Layer_1
 62
7
100
AcDbSpline
 70
8
 71
3
 72
8
 73
4
 74
0
 40
0
 40
0
 40
0
 40
0
 40
1
 40
1
 40
1
 40
1
 10
34.996212
 20
3.229510
 30
0.0
 10
35.013875
 20
3.219312
 30
0.0
 10
35.035636
 20
3.219312
 30
0.0
 10
35.053299
 20
3.229510
 30
0.0
  0
SPLINE
  5
145
100
AcDbEntity
  8
Layer_1
 62
7
100
AcDbSpline
 70
8
 71
3
 72
8
 73
4
 74
0
 40
0
 40
0
 40
0
 40
0
 40
1
 40
1
 40
1
 40
1
 10
35.053299
 20
3.229510
 30
0.0
 10
35.070962
 20
3.239708
 30
0.0
 10
35.081843
 20
3.258553
 30
0.0
 10
35.081843
 20
3.278949
 30
0.0
  0
LWPOLYLINE
  5
146
100
AcDbEntity
  8
Layer_1
 62
7
100
AcDbPolyline
 90
1
 70
1
 10
9.727543
 20
11.310435
 30
0.0
  0
LWPOLYLINE
  5
147
100
AcDbEntity
  8
Layer_1
 62
7
100
AcDbPolyline
 90
1
 70
1
 10
35.081843
 20
3.278949
 30
0.0
  0
SPLINE
  5
148
100
AcDbEntity
  8
Layer_1
 62
7
100
AcDbSpline
 70
8
 71
3
 72
8
 73
4
 74
0
 40
0
 40
0
 40
0
 40
0
 40
1
 40
1
 40
1
 40
1
 10
30.910728
 20
9.734318
 30
0.0
 10
30.548988
 20
10.481501
 30
0.0
 10
29.791916
 20
10.956104
 30
0.0
 10
28.961771
 20
10.956104
 30
0.0
  0
LWPOLYLINE
  5
149
100
AcDbEntity
  8
Layer_1
 62
7
100
AcDbPolyline
 90
3
 70
0
 10
6.914531
 20
11.940350
 30
0.0
 10
6.914531
 20
10.956102
 30
0.0
 10
28.961795
 20
10.956102
 30
0.0
  0
SPLINE
  5
14a
100
AcDbEntity
  8
Layer_1
 62
7
100
AcDbSpline
 70
8
 71
3
 72
8
 73
4
 74
0
 40
0
 40
0
 40
0
 40
0
 40
1
 40
1
 40
1
 40
1
 10
32.607761
 20
1.904828
 30
0.0
 10
33.062701
 20
1.938826
 30
0.0
 10
33.471324
 20
2.195788
 30
0.0
 10
33.699059
 20
2.591089
 30
0.0
  0
SPLINE
  5
14b
100
AcDbEntity
  8
Layer_1
 62
7
100
AcDbSpline
 70
8
 71
3
 72
8
 73
4
 74
0
 40
0
 40
0
 40
0
 40
0
 40
1
 40
1
 40
1
 40
1
 10
33.699059
 20
2.591089
 30
0.0
 10
33.926793
 20
2.986390
 30
0.0
 10
33.944115
 20
3.468782
 30
0.0
 10
33.745319
 20
3.879399
 30
0.0
  0
LWPOLYLINE
  5
14c
100
AcDbEntity
  8
Layer_1
 62
7
100
AcDbPolyline
 90
2
 70
0
 10
30.910751
 20
9.734322
 30
0.0
 10
33.745331
 20
3.879433
 30
0.0
  0
SPLINE
  5
14d
100
AcDbEntity
  8
Layer_1
 62
7
100
AcDbSpline
 70
8
 71
3
 72
8
 73
4
 74
0
 40
0
 40
0
 40
0
 40
0
 40
1
 40
1
 40
1
 40
1
 10
26.205869
 20
1.113597
 30
0.0
 10
26.296566
 20
1.113597
 30
0.0
 10
26.387173
 20
1.119295
 30
0.0
 10
26.477155
 20
1.130658
 30
0.0
  0
LWPOLYLINE
  5
14e
100
AcDbEntity
  8
Layer_1
 62
7
100
AcDbPolyline
 90
2
 70
0
 10
32.607728
 20
1.904852
 30
0.0
 10
26.477152
 20
1.130687
 30
0.0
  0
SPLINE
  5
14f
100
AcDbEntity
  8
Layer_1
 62
7
100
AcDbSpline
 70
8
 71
3
 72
8
 73
4
 74
0
 40
0
 40
0
 40
0
 40
0
 40
1
 40
1
 40
1
 40
1
 10
9.399171
 20
1.130658
 30
0.0
 10
9.489153
 20
1.119295
 30
0.0
 10
9.579760
 20
1.113597
 30
0.0
 10
9.670457
 20
1.113597
 30
0.0
  0
LWPOLYLINE
  5
150
100
AcDbEntity
  8
Layer_1
 62
7
100
AcDbPolyline
 90
2
 70
0
 10
26.205871
 20
1.113603
 30
0.0
 10
9.670455
 20
1.113603
 30
0.0
  0
SPLINE
  5
151
100
AcDbEntity
  8
Layer_1
 62
7
100
AcDbSpline
 70
8
 71
3
 72
8
 73
4
 74
0
 40
0
 40
0
 40
0
 40
0
 40
1
 40
1
 40
1
 40
1
 10
32.505074
 20
0.129346
 30
0.0
 10
32.554294
 20
0.129346
 30
0.0
 10
32.568814
 20
0.129919
 30
0.0
 10
32.806758
 20
0.136374
 30
0.0
  0
SPLINE
  5
152
100
AcDbEntity
  8
Layer_1
 62
7
100
AcDbSpline
 70
8
 71
3
 72
8
 73
4
 74
0
 40
0
 40
0
 40
0
 40
0
 40
1
 40
1
 40
1
 40
1
 10
32.806758
 20
0.136374
 30
0.0
 10
32.806758
 20
0.136374
 30
0.0
 10
33.003955
 20
0.163745
 30
0.0
 10
33.604998
 20
0.297084
 30
0.0
  0
SPLINE
  5
153
100
AcDbEntity
  8
Layer_1
 62
7
100
AcDbSpline
 70
8
 71
3
 72
8
 73
4
 74
0
 40
0
 40
0
 40
0
 40
0
 40
1
 40
1
 40
1
 40
1
 10
33.604998
 20
0.297084
 30
0.0
 10
33.604998
 20
0.297084
 30
0.0
 10
33.966275
 20
0.466712
 30
0.0
 10
34.629938
 20
0.920715
 30
0.0
  0
SPLINE
  5
154
100
AcDbEntity
  8
Layer_1
 62
7
100
AcDbSpline
 70
8
 71
3
 72
8
 73
4
 74
0
 40
0
 40
0
 40
0
 40
0
 40
1
 40
1
 40
1
 40
1
 10
34.629938
 20
0.920715
 30
0.0
 10
34.629938
 20
0.920715
 30
0.0
 10
34.904501
 20
1.217790
 30
0.0
 10
35.354040
 20
1.900043
 30
0.0
  0
SPLINE
  5
155
100
AcDbEntity
  8
Layer_1
 62
7
100
AcDbSpline
 70
8
 71
3
 72
8
 73
4
 74
0
 40
0
 40
0
 40
0
 40
0
 40
1
 40
1
 40
1
 40
1
 10
35.354040
 20
1.900043
 30
0.0
 10
35.354040
 20
1.900043
 30
0.0
 10
35.496639
 20
2.286712
 30
0.0
 10
35.567265
 20
2.659113
 30
0.0
  0
SPLINE
  5
156
100
AcDbEntity
  8
Layer_1
 62
7
100
AcDbSpline
 70
8
 71
3
 72
8
 73
4
 74
0
 40
0
 40
0
 40
0
 40
0
 40
1
 40
1
 40
1
 40
1
 10
35.567265
 20
2.659113
 30
0.0
 10
35.639790
 20
3.041524
 30
0.0
 10
35.635182
 20
3.400738
 30
0.0
 10
35.583704
 20
3.727763
 30
0.0
  0
SPLINE
  5
157
100
AcDbEntity
  8
Layer_1
 62
7
100
AcDbSpline
 70
8
 71
3
 72
8
 73
4
 74
0
 40
0
 40
0
 40
0
 40
0
 40
1
 40
1
 40
1
 40
1
 10
35.583704
 20
3.727763
 30
0.0
 10
35.567115
 20
3.833145
 30
0.0
 10
35.554973
 20
3.895438
 30
0.0
 10
35.525419
 20
4.012005
 30
0.0
  0
SPLINE
  5
158
100
AcDbEntity
  8
Layer_1
 62
7
100
AcDbSpline
 70
8
 71
3
 72
8
 73
4
 74
0
 40
0
 40
0
 40
0
 40
0
 40
1
 40
1
 40
1
 40
1
 10
35.525419
 20
4.012005
 30
0.0
 10
35.510315
 20
4.071576
 30
0.0
 10
35.491561
 20
4.145545
 30
0.0
 10
35.465890
 20
4.246822
 30
0.0
  0
SPLINE
  5
159
100
AcDbEntity
  8
Layer_1
 62
7
100
AcDbSpline
 70
8
 71
3
 72
8
 73
4
 74
0
 40
0
 40
0
 40
0
 40
0
 40
1
 40
1
 40
1
 40
1
 10
35.465890
 20
4.246822
 30
0.0
 10
35.456253
 20
4.284847
 30
0.0
 10
35.445639
 20
4.326723
 30
0.0
 10
35.433880
 20
4.373132
 30
0.0
  0
SPLINE
  5
15a
100
AcDbEntity
  8
Layer_1
 62
7
100
AcDbSpline
 70
8
 71
3
 72
8
 73
4
 74
0
 40
0
 40
0
 40
0
 40
0
 40
1
 40
1
 40
1
 40
1
 10
35.433880
 20
4.373132
 30
0.0
 10
35.269804
 20
5.020629
 30
0.0
 10
35.129588
 20
5.575682
 30
0.0
 10
35.002556
 20
6.081691
 30
0.0
  0
SPLINE
  5
15b
100
AcDbEntity
  8
Layer_1
 62
7
100
AcDbSpline
 70
8
 71
3
 72
8
 73
4
 74
0
 40
0
 40
0
 40
0
 40
0
 40
1
 40
1
 40
1
 40
1
 10
35.002556
 20
6.081691
 30
0.0
 10
34.708503
 20
7.253007
 30
0.0
 10
34.410001
 20
8.463407
 30
0.0
 10
34.186498
 20
9.412111
 30
0.0
  0
SPLINE
  5
15c
100
AcDbEntity
  8
Layer_1
 62
7
100
AcDbSpline
 70
8
 71
3
 72
8
 73
4
 74
0
 40
0
 40
0
 40
0
 40
0
 40
1
 40
1
 40
1
 40
1
 10
34.186498
 20
9.412111
 30
0.0
 10
34.177294
 20
9.451180
 30
0.0
 10
34.168642
 20
9.487987
 30
0.0
 10
34.160239
 20
9.523809
 30
0.0
  0
SPLINE
  5
15d
100
AcDbEntity
  8
Layer_1
 62
7
100
AcDbSpline
 70
8
 71
3
 72
8
 73
4
 74
0
 40
0
 40
0
 40
0
 40
0
 40
1
 40
1
 40
1
 40
1
 10
34.160239
 20
9.523809
 30
0.0
 10
34.130412
 20
9.650966
 30
0.0
 10
34.098382
 20
9.764463
 30
0.0
 10
34.040454
 20
9.919106
 30
0.0
  0
SPLINE
  5
15e
100
AcDbEntity
  8
Layer_1
 62
7
100
AcDbSpline
 70
8
 71
3
 72
8
 73
4
 74
0
 40
0
 40
0
 40
0
 40
0
 40
1
 40
1
 40
1
 40
1
 10
34.040454
 20
9.919106
 30
0.0
 10
33.887778
 20
10.326682
 30
0.0
 10
33.671556
 20
10.657205
 30
0.0
 10
33.430627
 20
10.923972
 30
0.0
  0
SPLINE
  5
15f
100
AcDbEntity
  8
Layer_1
 62
7
100
AcDbSpline
 70
8
 71
3
 72
8
 73
4
 74
0
 40
0
 40
0
 40
0
 40
0
 40
1
 40
1
 40
1
 40
1
 10
33.430627
 20
10.923972
 30
0.0
 10
33.136141
 20
11.250041
 30
0.0
 10
32.808124
 20
11.477575
 30
0.0
 10
32.481051
 20
11.635068
 30
0.0
  0
SPLINE
  5
160
100
AcDbEntity
  8
Layer_1
 62
7
100
AcDbSpline
 70
8
 71
3
 72
8
 73
4
 74
0
 40
0
 40
0
 40
0
 40
0
 40
1
 40
1
 40
1
 40
1
 10
32.481051
 20
11.635068
 30
0.0
 10
32.081520
 20
11.827451
 30
0.0
 10
31.677514
 20
11.917457
 30
0.0
 10
31.294743
 20
11.936506
 30
0.0
  0
SPLINE
  5
161
100
AcDbEntity
  8
Layer_1
 62
7
100
AcDbSpline
 70
8
 71
3
 72
8
 73
4
 74
0
 40
0
 40
0
 40
0
 40
0
 40
1
 40
1
 40
1
 40
1
 10
31.294743
 20
11.936506
 30
0.0
 10
31.246350
 20
11.938914
 30
0.0
 10
31.203136
 20
11.940355
 30
0.0
 10
31.139894
 20
11.940355
 30
0.0
  0
LWPOLYLINE
  5
162
100
AcDbEntity
  8
Layer_1
 62
7
100
AcDbPolyline
 90
4
 70
0
 10
9.399174
 20
1.130687
 30
0.0
 10
3.371202
 20
1.891832
 30
0.0
 10
3.371202
 20
0.129334
 30
0.0
 10
32.505124
 20
0.129334
 30
0.0
  0
SPLINE
  5
163
100
AcDbEntity
  8
Layer_1
 62
7
100
AcDbSpline
 70
8
 71
3
 72
8
 73
4
 74
0
 40
0
 40
0
 40
0
 40
0
 40
1
 40
1
 40
1
 40
1
 10
7.789559
 20
11.451582
 30
0.0
 10
7.789458
 20
11.561587
 30
0.0
 10
7.700253
 20
11.650710
 30
0.0
 10
7.590248
 20
11.650710
 30
0.0
  0
SPLINE
  5
164
100
AcDbEntity
  8
Layer_1
 62
7
100
AcDbSpline
 70
8
 71
3
 72
8
 73
4
 74
0
 40
0
 40
0
 40
0
 40
0
 40
1
 40
1
 40
1
 40
1
 10
7.590248
 20
11.650710
 30
0.0
 10
7.480243
 20
11.650710
 30
0.0
 10
7.391038
 20
11.561587
 30
0.0
 10
7.390938
 20
11.451582
 30
0.0
  0
SPLINE
  5
165
100
AcDbEntity
  8
Layer_1
 62
7
100
AcDbSpline
 70
8
 71
3
 72
8
 73
4
 74
0
 40
0
 40
0
 40
0
 40
0
 40
1
 40
1
 40
1
 40
1
 10
7.390938
 20
11.451582
 30
0.0
 10
7.391038
 20
11.341577
 30
0.0
 10
7.480243
 20
11.252453
 30
0.0
 10
7.590248
 20
11.252453
 30
0.0
  0
SPLINE
  5
166
100
AcDbEntity
  8
Layer_1
 62
7
100
AcDbSpline
 70
8
 71
3
 72
8
 73
4
 74
0
 40
0
 40
0
 40
0
 40
0
 40
1
 40
1
 40
1
 40
1
 10
7.590248
 20
11.252453
 30
0.0
 10
7.700253
 20
11.252453
 30
0.0
 10
7.789458
 20
11.341577
 30
0.0
 10
7.789559
 20
11.451582
 30
0.0
  0
LWPOLYLINE
  5
167
100
AcDbEntity
  8
Layer_1
 62
7
100
AcDbPolyline
 90
2
 70
0
 10
31.139917
 20
11.940350
 30
0.0
 10
6.914531
 20
11.940350
 30
0.0
  0
SPLINE
  5
168
100
AcDbEntity
  8
Layer_1
 62
7
100
AcDbSpline
 70
8
 71
3
 72
8
 73
4
 74
0
 40
0
 40
0
 40
0
 40
0
 40
1
 40
1
 40
1
 40
1
 10
31.705423
 20
0.884015
 30
0.0
 10
31.705322
 20
0.994020
 30
0.0
 10
31.616117
 20
1.083144
 30
0.0
 10
31.506112
 20
1.083144
 30
0.0
  0
SPLINE
  5
169
100
AcDbEntity
  8
Layer_1
 62
7
100
AcDbSpline
 70
8
 71
3
 72
8
 73
4
 74
0
 40
0
 40
0
 40
0
 40
0
 40
1
 40
1
 40
1
 40
1
 10
31.506112
 20
1.083144
 30
0.0
 10
31.396107
 20
1.083144
 30
0.0
 10
31.306902
 20
0.994020
 30
0.0
 10
31.306802
 20
0.884015
 30
0.0
  0
SPLINE
  5
16a
100
AcDbEntity
  8
Layer_1
 62
7
100
AcDbSpline
 70
8
 71
3
 72
8
 73
4
 74
0
 40
0
 40
0
 40
0
 40
0
 40
1
 40
1
 40
1
 40
1
 10
31.306802
 20
0.884015
 30
0.0
 10
31.306902
 20
0.774010
 30
0.0
 10
31.396107
 20
0.684887
 30
0.0
 10
31.506112
 20
0.684887
 30
0.0
  0
SPLINE
  5
16b
100
AcDbEntity
  8
Layer_1
 62
7
100
AcDbSpline
 70
8
 71
3
 72
8
 73
4
 74
0
 40
0
 40
0
 40
0
 40
0
 40
1
 40
1
 40
1
 40
1
 10
31.506112
 20
0.684887
 30
0.0
 10
31.616117
 20
0.684887
 30
0.0
 10
31.705322
 20
0.774010
 30
0.0
 10
31.705423
 20
0.884015
 30
0.0
  0
LWPOLYLINE
  5
16c
100
AcDbEntity
  8
Layer_1
 62
7
100
AcDbPolyline
 90
1
 70
1
 10
7.789559
 20
11.451582
 30
0.0
  0
SPLINE
  5
16d
100
AcDbEntity
  8
Layer_1
 62
7
100
AcDbSpline
 70
8
 71
3
 72
8
 73
4
 74
0
 40
0
 40
0
 40
0
 40
0
 40
1
 40
1
 40
1
 40
1
 10
29.919768
 20
11.393036
 30
0.0
 10
29.919768
 20
11.464243
 30
0.0
 10
29.881779
 20
11.530041
 30
0.0
 10
29.820112
 20
11.565644
 30
0.0
  0
SPLINE
  5
16e
100
AcDbEntity
  8
Layer_1
 62
7
100
AcDbSpline
 70
8
 71
3
 72
8
 73
4
 74
0
 40
0
 40
0
 40
0
 40
0
 40
1
 40
1
 40
1
 40
1
 10
29.820112
 20
11.565644
 30
0.0
 10
29.758445
 20
11.601248
 30
0.0
 10
29.682468
 20
11.601248
 30
0.0
 10
29.620801
 20
11.565644
 30
0.0
  0
SPLINE
  5
16f
100
AcDbEntity
  8
Layer_1
 62
7
100
AcDbSpline
 70
8
 71
3
 72
8
 73
4
 74
0
 40
0
 40
0
 40
0
 40
0
 40
1
 40
1
 40
1
 40
1
 10
29.620801
 20
11.565644
 30
0.0
 10
29.559134
 20
11.530041
 30
0.0
 10
29.521145
 20
11.464243
 30
0.0
 10
29.521145
 20
11.393036
 30
0.0
  0
SPLINE
  5
170
100
AcDbEntity
  8
Layer_1
 62
7
100
AcDbSpline
 70
8
 71
3
 72
8
 73
4
 74
0
 40
0
 40
0
 40
0
 40
0
 40
1
 40
1
 40
1
 40
1
 10
29.521145
 20
11.393036
 30
0.0
 10
29.521145
 20
11.321829
 30
0.0
 10
29.559134
 20
11.256031
 30
0.0
 10
29.620801
 20
11.220427
 30
0.0
  0
SPLINE
  5
171
100
AcDbEntity
  8
Layer_1
 62
7
100
AcDbSpline
 70
8
 71
3
 72
8
 73
4
 74
0
 40
0
 40
0
 40
0
 40
0
 40
1
 40
1
 40
1
 40
1
 10
29.620801
 20
11.220427
 30
0.0
 10
29.682468
 20
11.184824
 30
0.0
 10
29.758445
 20
11.184824
 30
0.0
 10
29.820112
 20
11.220427
 30
0.0
  0
SPLINE
  5
172
100
AcDbEntity
  8
Layer_1
 62
7
100
AcDbSpline
 70
8
 71
3
 72
8
 73
4
 74
0
 40
0
 40
0
 40
0
 40
0
 40
1
 40
1
 40
1
 40
1
 10
29.820112
 20
11.220427
 30
0.0
 10
29.881779
 20
11.256031
 30
0.0
 10
29.919768
 20
11.321829
 30
0.0
 10
29.919768
 20
11.393036
 30
0.0
  0
LWPOLYLINE
  5
173
100
AcDbEntity
  8
Layer_1
 62
7
100
AcDbPolyline
 90
1
 70
1
 10
31.705423
 20
0.884015
 30
0.0
  0
SPLINE
  5
174
100
AcDbEntity
  8
Layer_1
 62
7
100
AcDbSpline
 70
8
 71
3
 72
8
 73
4
 74
0
 40
0
 40
0
 40
0
 40
0
 40
1
 40
1
 40
1
 40
1
 10
4.569524
 20
0.884015
 30
0.0
 10
4.569424
 20
0.994020
 30
0.0
 10
4.480219
 20
1.083144
 30
0.0
 10
4.370214
 20
1.083144
 30
0.0
  0
SPLINE
  5
175
100
AcDbEntity
  8
Layer_1
 62
7
100
AcDbSpline
 70
8
 71
3
 72
8
 73
4
 74
0
 40
0
 40
0
 40
0
 40
0
 40
1
 40
1
 40
1
 40
1
 10
4.370214
 20
1.083144
 30
0.0
 10
4.260209
 20
1.083144
 30
0.0
 10
4.171004
 20
0.994020
 30
0.0
 10
4.170903
 20
0.884015
 30
0.0
  0
SPLINE
  5
176
100
AcDbEntity
  8
Layer_1
 62
7
100
AcDbSpline
 70
8
 71
3
 72
8
 73
4
 74
0
 40
0
 40
0
 40
0
 40
0
 40
1
 40
1
 40
1
 40
1
 10
4.170903
 20
0.884015
 30
0.0
 10
4.171004
 20
0.774010
 30
0.0
 10
4.260209
 20
0.684887
 30
0.0
 10
4.370214
 20
0.684887
 30
0.0
  0
SPLINE
  5
177
100
AcDbEntity
  8
Layer_1
 62
7
100
AcDbSpline
 70
8
 71
3
 72
8
 73
4
 74
0
 40
0
 40
0
 40
0
 40
0
 40
1
 40
1
 40
1
 40
1
 10
4.370214
 20
0.684887
 30
0.0
 10
4.480219
 20
0.684887
 30
0.0
 10
4.569424
 20
0.774010
 30
0.0
 10
4.569524
 20
0.884015
 30
0.0
  0
LWPOLYLINE
  5
178
100
AcDbEntity
  8
Layer_1
 62
7
100
AcDbPolyline
 90
1
 70
1
 10
29.919768
 20
11.393036
 30
0.0
  0
SPLINE
  5
179
100
AcDbEntity
  8
Layer_1
 62
7
100
AcDbSpline
 70
8
 71
3
 72
8
 73
4
 74
0
 40
0
 40
0
 40
0
 40
0
 40
1
 40
1
 40
1
 40
1
 10
33.608171
 20
1.206019
 30
0.0
 10
33.608171
 20
1.277226
 30
0.0
 10
33.570182
 20
1.343024
 30
0.0
 10
33.508515
 20
1.378627
 30
0.0
  0
SPLINE
  5
17a
100
AcDbEntity
  8
Layer_1
 62
7
100
AcDbSpline
 70
8
 71
3
 72
8
 73
4
 74
0
 40
0
 40
0
 40
0
 40
0
 40
1
 40
1
 40
1
 40
1
 10
33.508515
 20
1.378627
 30
0.0
 10
33.446848
 20
1.414231
 30
0.0
 10
33.370871
 20
1.414231
 30
0.0
 10
33.309204
 20
1.378627
 30
0.0
  0
SPLINE
  5
17b
100
AcDbEntity
  8
Layer_1
 62
7
100
AcDbSpline
 70
8
 71
3
 72
8
 73
4
 74
0
 40
0
 40
0
 40
0
 40
0
 40
1
 40
1
 40
1
 40
1
 10
33.309204
 20
1.378627
 30
0.0
 10
33.247537
 20
1.343024
 30
0.0
 10
33.209548
 20
1.277226
 30
0.0
 10
33.209548
 20
1.206019
 30
0.0
  0
SPLINE
  5
17c
100
AcDbEntity
  8
Layer_1
 62
7
100
AcDbSpline
 70
8
 71
3
 72
8
 73
4
 74
0
 40
0
 40
0
 40
0
 40
0
 40
1
 40
1
 40
1
 40
1
 10
33.209548
 20
1.206019
 30
0.0
 10
33.209548
 20
1.134812
 30
0.0
 10
33.247537
 20
1.069014
 30
0.0
 10
33.309204
 20
1.033410
 30
0.0
  0
SPLINE
  5
17d
100
AcDbEntity
  8
Layer_1
 62
7
100
AcDbSpline
 70
8
 71
3
 72
8
 73
4
 74
0
 40
0
 40
0
 40
0
 40
0
 40
1
 40
1
 40
1
 40
1
 10
33.309204
 20
1.033410
 30
0.0
 10
33.370871
 20
0.997807
 30
0.0
 10
33.446848
 20
0.997807
 30
0.0
 10
33.508515
 20
1.033410
 30
0.0
  0
SPLINE
  5
17e
100
AcDbEntity
  8
Layer_1
 62
7
100
AcDbSpline
 70
8
 71
3
 72
8
 73
4
 74
0
 40
0
 40
0
 40
0
 40
0
 40
1
 40
1
 40
1
 40
1
 10
33.508515
 20
1.033410
 30
0.0
 10
33.570182
 20
1.069014
 30
0.0
 10
33.608171
 20
1.134812
 30
0.0
 10
33.608171
 20
1.206019
 30
0.0
  0
LWPOLYLINE
  5
17f
100
AcDbEntity
  8
Layer_1
 62
7
100
AcDbPolyline
 90
1
 70
1
 10
4.569524
 20
0.884015
 30
0.0
  0
SPLINE
  5
180
100
AcDbEntity
  8
Layer_1
 62
7
100
AcDbSpline
 70
8
 71
3
 72
8
 73
4
 74
0
 40
0
 40
0
 40
0
 40
0
 40
1
 40
1
 40
1
 40
1
 10
28.485388
 20
11.451582
 30
0.0
 10
28.485288
 20
11.561587
 30
0.0
 10
28.396083
 20
11.650710
 30
0.0
 10
28.286078
 20
11.650710
 30
0.0
  0
SPLINE
  5
181
100
AcDbEntity
  8
Layer_1
 62
7
100
AcDbSpline
 70
8
 71
3
 72
8
 73
4
 74
0
 40
0
 40
0
 40
0
 40
0
 40
1
 40
1
 40
1
 40
1
 10
28.286078
 20
11.650710
 30
0.0
 10
28.176073
 20
11.650710
 30
0.0
 10
28.086868
 20
11.561587
 30
0.0
 10
28.086767
 20
11.451582
 30
0.0
  0
SPLINE
  5
182
100
AcDbEntity
  8
Layer_1
 62
7
100
AcDbSpline
 70
8
 71
3
 72
8
 73
4
 74
0
 40
0
 40
0
 40
0
 40
0
 40
1
 40
1
 40
1
 40
1
 10
28.086767
 20
11.451582
 30
0.0
 10
28.086868
 20
11.341577
 30
0.0
 10
28.176073
 20
11.252453
 30
0.0
 10
28.286078
 20
11.252453
 30
0.0
  0
SPLINE
  5
183
100
AcDbEntity
  8
Layer_1
 62
7
100
AcDbSpline
 70
8
 71
3
 72
8
 73
4
 74
0
 40
0
 40
0
 40
0
 40
0
 40
1
 40
1
 40
1
 40
1
 10
28.286078
 20
11.252453
 30
0.0
 10
28.396083
 20
11.252453
 30
0.0
 10
28.485288
 20
11.341577
 30
0.0
 10
28.485388
 20
11.451582
 30
0.0
  0
LWPOLYLINE
  5
184
100
AcDbEntity
  8
Layer_1
 62
7
100
AcDbPolyline
 90
1
 70
1
 10
33.608171
 20
1.206019
 30
0.0
  0
SPLINE
  5
185
100
AcDbEntity
  8
Layer_1
 62
7
100
AcDbSpline
 70
8
 71
3
 72
8
 73
4
 74
0
 40
0
 40
0
 40
0
 40
0
 40
1
 40
1
 40
1
 40
1
 10
16.207026
 20
4.801751
 30
0.0
 10
16.212162
 20
4.770644
 30
0.0
 10
16.241544
 20
4.749592
 30
0.0
 10
16.272650
 20
4.754729
 30
0.0
  0
SPLINE
  5
186
100
AcDbEntity
  8
Layer_1
 62
7
100
AcDbSpline
 70
8
 71
3
 72
8
 73
4
 74
0
 40
0
 40
0
 40
0
 40
0
 40
1
 40
1
 40
1
 40
1
 10
16.272650
 20
4.754729
 30
0.0
 10
16.303757
 20
4.759865
 30
0.0
 10
16.324810
 20
4.789247
 30
0.0
 10
16.319673
 20
4.820353
 30
0.0
  0
SPLINE
  5
187
100
AcDbEntity
  8
Layer_1
 62
7
100
AcDbSpline
 70
8
 71
3
 72
8
 73
4
 74
0
 40
0
 40
0
 40
0
 40
0
 40
1
 40
1
 40
1
 40
1
 10
16.319673
 20
4.820353
 30
0.0
 10
16.314536
 20
4.851460
 30
0.0
 10
16.285155
 20
4.872513
 30
0.0
 10
16.254048
 20
4.867376
 30
0.0
  0
SPLINE
  5
188
100
AcDbEntity
  8
Layer_1
 62
7
100
AcDbSpline
 70
8
 71
3
 72
8
 73
4
 74
0
 40
0
 40
0
 40
0
 40
0
 40
1
 40
1
 40
1
 40
1
 10
16.254048
 20
4.867376
 30
0.0
 10
16.222942
 20
4.862239
 30
0.0
 10
16.201889
 20
4.832858
 30
0.0
 10
16.207026
 20
4.801751
 30
0.0
  0
LWPOLYLINE
  5
189
100
AcDbEntity
  8
Layer_1
 62
7
100
AcDbPolyline
 90
1
 70
1
 10
28.485388
 20
11.451582
 30
0.0
  0
SPLINE
  5
18a
100
AcDbEntity
  8
Layer_1
 62
7
100
AcDbSpline
 70
8
 71
3
 72
8
 73
4
 74
0
 40
0
 40
0
 40
0
 40
0
 40
1
 40
1
 40
1
 40
1
 10
28.083323
 20
17.457017
 30
0.0
 10
28.088524
 20
17.425973
 30
0.0
 10
28.117870
 20
17.404997
 30
0.0
 10
28.148926
 20
17.410126
 30
0.0
  0
SPLINE
  5
18b
100
AcDbEntity
  8
Layer_1
 62
7
100
AcDbSpline
 70
8
 71
3
 72
8
 73
4
 74
0
 40
0
 40
0
 40
0
 40
0
 40
1
 40
1
 40
1
 40
1
 10
28.148926
 20
17.410126
 30
0.0
 10
28.179981
 20
17.415254
 30
0.0
 10
28.201026
 20
17.444551
 30
0.0
 10
28.195970
 20
17.475619
 30
0.0
  0
SPLINE
  5
18c
100
AcDbEntity
  8
Layer_1
 62
7
100
AcDbSpline
 70
8
 71
3
 72
8
 73
4
 74
0
 40
0
 40
0
 40
0
 40
0
 40
1
 40
1
 40
1
 40
1
 10
28.195970
 20
17.475619
 30
0.0
 10
28.190769
 20
17.506662
 30
0.0
 10
28.161422
 20
17.527638
 30
0.0
 10
28.130367
 20
17.522510
 30
0.0
  0
SPLINE
  5
18d
100
AcDbEntity
  8
Layer_1
 62
7
100
AcDbSpline
 70
8
 71
3
 72
8
 73
4
 74
0
 40
0
 40
0
 40
0
 40
0
 40
1
 40
1
 40
1
 40
1
 10
28.130367
 20
17.522510
 30
0.0
 10
28.099312
 20
17.517381
 30
0.0
 10
28.078267
 20
17.488084
 30
0.0
 10
28.083323
 20
17.457017
 30
0.0
  0
LWPOLYLINE
  5
18e
100
AcDbEntity
  8
Layer_1
 62
7
100
AcDbPolyline
 90
1
 70
1
 10
16.207026
 20
4.801751
 30
0.0
  0
SPLINE
  5
18f
100
AcDbEntity
  8
Layer_1
 62
7
100
AcDbSpline
 70
8
 71
3
 72
8
 73
4
 74
0
 40
0
 40
0
 40
0
 40
0
 40
1
 40
1
 40
1
 40
1
 10
22.645167
 20
16.558984
 30
0.0
 10
22.648490
 20
16.538861
 30
0.0
 10
22.662296
 20
16.522040
 30
0.0
 10
22.681384
 20
16.514857
 30
0.0
  0
SPLINE
  5
190
100
AcDbEntity
  8
Layer_1
 62
7
100
AcDbSpline
 70
8
 71
3
 72
8
 73
4
 74
0
 40
0
 40
0
 40
0
 40
0
 40
1
 40
1
 40
1
 40
1
 10
22.681384
 20
16.514857
 30
0.0
 10
22.700472
 20
16.507673
 30
0.0
 10
22.721943
 20
16.511219
 30
0.0
 10
22.737708
 20
16.524158
 30
0.0
  0
SPLINE
  5
191
100
AcDbEntity
  8
Layer_1
 62
7
100
AcDbSpline
 70
8
 71
3
 72
8
 73
4
 74
0
 40
0
 40
0
 40
0
 40
0
 40
1
 40
1
 40
1
 40
1
 10
22.737708
 20
16.524158
 30
0.0
 10
22.753473
 20
16.537097
 30
0.0
 10
22.761138
 20
16.557463
 30
0.0
 10
22.757815
 20
16.577586
 30
0.0
  0
SPLINE
  5
192
100
AcDbEntity
  8
Layer_1
 62
7
100
AcDbSpline
 70
8
 71
3
 72
8
 73
4
 74
0
 40
0
 40
0
 40
0
 40
0
 40
1
 40
1
 40
1
 40
1
 10
22.757815
 20
16.577586
 30
0.0
 10
22.754492
 20
16.597708
 30
0.0
 10
22.740686
 20
16.614530
 30
0.0
 10
22.721598
 20
16.621713
 30
0.0
  0
SPLINE
  5
193
100
AcDbEntity
  8
Layer_1
 62
7
100
AcDbSpline
 70
8
 71
3
 72
8
 73
4
 74
0
 40
0
 40
0
 40
0
 40
0
 40
1
 40
1
 40
1
 40
1
 10
22.721598
 20
16.621713
 30
0.0
 10
22.702510
 20
16.628897
 30
0.0
 10
22.681039
 20
16.625351
 30
0.0
 10
22.665274
 20
16.612412
 30
0.0
  0
SPLINE
  5
194
100
AcDbEntity
  8
Layer_1
 62
7
100
AcDbSpline
 70
8
 71
3
 72
8
 73
4
 74
0
 40
0
 40
0
 40
0
 40
0
 40
1
 40
1
 40
1
 40
1
 10
22.665274
 20
16.612412
 30
0.0
 10
22.649509
 20
16.599473
 30
0.0
 10
22.641844
 20
16.579106
 30
0.0
 10
22.645167
 20
16.558984
 30
0.0
  0
LWPOLYLINE
  5
195
100
AcDbEntity
  8
Layer_1
 62
7
100
AcDbPolyline
 90
1
 70
1
 10
28.083323
 20
17.457017
 30
0.0
  0
SPLINE
  5
196
100
AcDbEntity
  8
Layer_1
 62
7
100
AcDbSpline
 70
8
 71
3
 72
8
 73
4
 74
0
 40
0
 40
0
 40
0
 40
0
 40
1
 40
1
 40
1
 40
1
 10
10.768870
 20
3.903718
 30
0.0
 10
10.772193
 20
3.883596
 30
0.0
 10
10.785999
 20
3.866775
 30
0.0
 10
10.805087
 20
3.859591
 30
0.0
  0
SPLINE
  5
197
100
AcDbEntity
  8
Layer_1
 62
7
100
AcDbSpline
 70
8
 71
3
 72
8
 73
4
 74
0
 40
0
 40
0
 40
0
 40
0
 40
1
 40
1
 40
1
 40
1
 10
10.805087
 20
3.859591
 30
0.0
 10
10.824175
 20
3.852408
 30
0.0
 10
10.845646
 20
3.855953
 30
0.0
 10
10.861411
 20
3.868892
 30
0.0
  0
SPLINE
  5
198
100
AcDbEntity
  8
Layer_1
 62
7
100
AcDbSpline
 70
8
 71
3
 72
8
 73
4
 74
0
 40
0
 40
0
 40
0
 40
0
 40
1
 40
1
 40
1
 40
1
 10
10.861411
 20
3.868892
 30
0.0
 10
10.877176
 20
3.881831
 30
0.0
 10
10.884841
 20
3.902198
 30
0.0
 10
10.881518
 20
3.922321
 30
0.0
  0
SPLINE
  5
199
100
AcDbEntity
  8
Layer_1
 62
7
100
AcDbSpline
 70
8
 71
3
 72
8
 73
4
 74
0
 40
0
 40
0
 40
0
 40
0
 40
1
 40
1
 40
1
 40
1
 10
10.881518
 20
3.922321
 30
0.0
 10
10.878195
 20
3.942443
 30
0.0
 10
10.864389
 20
3.959264
 30
0.0
 10
10.845301
 20
3.966448
 30
0.0
  0
SPLINE
  5
19a
100
AcDbEntity
  8
Layer_1
 62
7
100
AcDbSpline
 70
8
 71
3
 72
8
 73
4
 74
0
 40
0
 40
0
 40
0
 40
0
 40
1
 40
1
 40
1
 40
1
 10
10.845301
 20
3.966448
 30
0.0
 10
10.826213
 20
3.973631
 30
0.0
 10
10.804742
 20
3.970086
 30
0.0
 10
10.788977
 20
3.957147
 30
0.0
  0
SPLINE
  5
19b
100
AcDbEntity
  8
Layer_1
 62
7
100
AcDbSpline
 70
8
 71
3
 72
8
 73
4
 74
0
 40
0
 40
0
 40
0
 40
0
 40
1
 40
1
 40
1
 40
1
 10
10.788977
 20
3.957147
 30
0.0
 10
10.773212
 20
3.944208
 30
0.0
 10
10.765547
 20
3.923841
 30
0.0
 10
10.768870
 20
3.903718
 30
0.0
  0
LWPOLYLINE
  5
19c
100
AcDbEntity
  8
Layer_1
 62
7
100
AcDbPolyline
 90
1
 70
1
 10
22.645167
 20
16.558984
 30
0.0
  0
SPLINE
  5
19d
100
AcDbEntity
  8
Layer_1
 62
7
100
AcDbSpline
 70
8
 71
3
 72
8
 73
4
 74
0
 40
0
 40
0
 40
0
 40
0
 40
1
 40
1
 40
1
 40
1
 10
5.279498
 20
3.315835
 30
0.0
 10
5.282821
 20
3.295713
 30
0.0
 10
5.296626
 20
3.278891
 30
0.0
 10
5.315715
 20
3.271708
 30
0.0
  0
SPLINE
  5
19e
100
AcDbEntity
  8
Layer_1
 62
7
100
AcDbSpline
 70
8
 71
3
 72
8
 73
4
 74
0
 40
0
 40
0
 40
0
 40
0
 40
1
 40
1
 40
1
 40
1
 10
5.315715
 20
3.271708
 30
0.0
 10
5.334803
 20
3.264524
 30
0.0
 10
5.356273
 20
3.268070
 30
0.0
 10
5.372039
 20
3.281009
 30
0.0
  0
SPLINE
  5
19f
100
AcDbEntity
  8
Layer_1
 62
7
100
AcDbSpline
 70
8
 71
3
 72
8
 73
4
 74
0
 40
0
 40
0
 40
0
 40
0
 40
1
 40
1
 40
1
 40
1
 10
5.372039
 20
3.281009
 30
0.0
 10
5.387804
 20
3.293948
 30
0.0
 10
5.395469
 20
3.314315
 30
0.0
 10
5.392146
 20
3.334437
 30
0.0
  0
SPLINE
  5
1a0
100
AcDbEntity
  8
Layer_1
 62
7
100
AcDbSpline
 70
8
 71
3
 72
8
 73
4
 74
0
 40
0
 40
0
 40
0
 40
0
 40
1
 40
1
 40
1
 40
1
 10
5.392146
 20
3.334437
 30
0.0
 10
5.388823
 20
3.354560
 30
0.0
 10
5.375017
 20
3.371381
 30
0.0
 10
5.355929
 20
3.378565
 30
0.0
  0
SPLINE
  5
1a1
100
AcDbEntity
  8
Layer_1
 62
7
100
AcDbSpline
 70
8
 71
3
 72
8
 73
4
 74
0
 40
0
 40
0
 40
0
 40
0
 40
1
 40
1
 40
1
 40
1
 10
5.355929
 20
3.378565
 30
0.0
 10
5.336840
 20
3.385749
 30
0.0
 10
5.315370
 20
3.382203
 30
0.0
 10
5.299605
 20
3.369264
 30
0.0
  0
SPLINE
  5
1a2
100
AcDbEntity
  8
Layer_1
 62
7
100
AcDbSpline
 70
8
 71
3
 72
8
 73
4
 74
0
 40
0
 40
0
 40
0
 40
0
 40
1
 40
1
 40
1
 40
1
 10
5.299605
 20
3.369264
 30
0.0
 10
5.283839
 20
3.356325
 30
0.0
 10
5.276175
 20
3.335958
 30
0.0
 10
5.279498
 20
3.315835
 30
0.0
  0
LWPOLYLINE
  5
1a3
100
AcDbEntity
  8
Layer_1
 62
7
100
AcDbPolyline
 90
1
 70
1
 10
10.768870
 20
3.903718
 30
0.0
  0
SPLINE
  5
1a4
100
AcDbEntity
  8
Layer_1
 62
7
100
AcDbSpline
 70
8
 71
3
 72
8
 73
4
 74
0
 40
0
 40
0
 40
0
 40
0
 40
1
 40
1
 40
1
 40
1
 10
21.645181
 20
5.699784
 30
0.0
 10
21.650318
 20
5.668677
 30
0.0
 10
21.679699
 20
5.647624
 30
0.0
 10
21.710806
 20
5.652761
 30
0.0
  0
SPLINE
  5
1a5
100
AcDbEntity
  8
Layer_1
 62
7
100
AcDbSpline
 70
8
 71
3
 72
8
 73
4
 74
0
 40
0
 40
0
 40
0
 40
0
 40
1
 40
1
 40
1
 40
1
 10
21.710806
 20
5.652761
 30
0.0
 10
21.741912
 20
5.657898
 30
0.0
 10
21.762965
 20
5.687279
 30
0.0
 10
21.757828
 20
5.718386
 30
0.0
  0
SPLINE
  5
1a6
100
AcDbEntity
  8
Layer_1
 62
7
100
AcDbSpline
 70
8
 71
3
 72
8
 73
4
 74
0
 40
0
 40
0
 40
0
 40
0
 40
1
 40
1
 40
1
 40
1
 10
21.757828
 20
5.718386
 30
0.0
 10
21.754506
 20
5.738509
 30
0.0
 10
21.740700
 20
5.755330
 30
0.0
 10
21.721612
 20
5.762513
 30
0.0
  0
SPLINE
  5
1a7
100
AcDbEntity
  8
Layer_1
 62
7
100
AcDbSpline
 70
8
 71
3
 72
8
 73
4
 74
0
 40
0
 40
0
 40
0
 40
0
 40
1
 40
1
 40
1
 40
1
 10
21.721612
 20
5.762513
 30
0.0
 10
21.702524
 20
5.769697
 30
0.0
 10
21.681053
 20
5.766151
 30
0.0
 10
21.665288
 20
5.753212
 30
0.0
  0
SPLINE
  5
1a8
100
AcDbEntity
  8
Layer_1
 62
7
100
AcDbSpline
 70
8
 71
3
 72
8
 73
4
 74
0
 40
0
 40
0
 40
0
 40
0
 40
1
 40
1
 40
1
 40
1
 10
21.665288
 20
5.753212
 30
0.0
 10
21.649523
 20
5.740273
 30
0.0
 10
21.641858
 20
5.719906
 30
0.0
 10
21.645181
 20
5.699784
 30
0.0
  0
LWPOLYLINE
  5
1a9
100
AcDbEntity
  8
Layer_1
 62
7
100
AcDbPolyline
 90
1
 70
1
 10
5.279498
 20
3.315835
 30
0.0
  0
SPLINE
  5
1aa
100
AcDbEntity
  8
Layer_1
 62
7
100
AcDbSpline
 70
8
 71
3
 72
8
 73
4
 74
0
 40
0
 40
0
 40
0
 40
0
 40
1
 40
1
 40
1
 40
1
 10
11.768857
 20
14.762918
 30
0.0
 10
11.772180
 20
14.742796
 30
0.0
 10
11.785985
 20
14.725975
 30
0.0
 10
11.805073
 20
14.718791
 30
0.0
  0
SPLINE
  5
1ab
100
AcDbEntity
  8
Layer_1
 62
7
100
AcDbSpline
 70
8
 71
3
 72
8
 73
4
 74
0
 40
0
 40
0
 40
0
 40
0
 40
1
 40
1
 40
1
 40
1
 10
11.805073
 20
14.718791
 30
0.0
 10
11.824161
 20
14.711608
 30
0.0
 10
11.845632
 20
14.715153
 30
0.0
 10
11.861397
 20
14.728092
 30
0.0
  0
SPLINE
  5
1ac
100
AcDbEntity
  8
Layer_1
 62
7
100
AcDbSpline
 70
8
 71
3
 72
8
 73
4
 74
0
 40
0
 40
0
 40
0
 40
0
 40
1
 40
1
 40
1
 40
1
 10
11.861397
 20
14.728092
 30
0.0
 10
11.877162
 20
14.741031
 30
0.0
 10
11.884827
 20
14.761398
 30
0.0
 10
11.881504
 20
14.781520
 30
0.0
  0
SPLINE
  5
1ad
100
AcDbEntity
  8
Layer_1
 62
7
100
AcDbSpline
 70
8
 71
3
 72
8
 73
4
 74
0
 40
0
 40
0
 40
0
 40
0
 40
1
 40
1
 40
1
 40
1
 10
11.881504
 20
14.781520
 30
0.0
 10
11.878181
 20
14.801643
 30
0.0
 10
11.864375
 20
14.818464
 30
0.0
 10
11.845287
 20
14.825648
 30
0.0
  0
SPLINE
  5
1ae
100
AcDbEntity
  8
Layer_1
 62
7
100
AcDbSpline
 70
8
 71
3
 72
8
 73
4
 74
0
 40
0
 40
0
 40
0
 40
0
 40
1
 40
1
 40
1
 40
1
 10
11.845287
 20
14.825648
 30
0.0
 10
11.826199
 20
14.832831
 30
0.0
 10
11.804729
 20
14.829286
 30
0.0
 10
11.788963
 20
14.816347
 30
0.0
  0
SPLINE
  5
1af
100
AcDbEntity
  8
Layer_1
 62
7
100
AcDbSpline
 70
8
 71
3
 72
8
 73
4
 74
0
 40
0
 40
0
 40
0
 40
0
 40
1
 40
1
 40
1
 40
1
 10
11.788963
 20
14.816347
 30
0.0
 10
11.773198
 20
14.803408
 30
0.0
 10
11.765534
 20
14.783041
 30
0.0
 10
11.768857
 20
14.762918
 30
0.0
  0
LWPOLYLINE
  5
1b0
100
AcDbEntity
  8
Layer_1
 62
7
100
AcDbPolyline
 90
1
 70
1
 10
21.645181
 20
5.699784
 30
0.0
  0
SPLINE
  5
1b1
100
AcDbEntity
  8
Layer_1
 62
7
100
AcDbSpline
 70
8
 71
3
 72
8
 73
4
 74
0
 40
0
 40
0
 40
0
 40
0
 40
1
 40
1
 40
1
 40
1
 10
17.207012
 20
15.660951
 30
0.0
 10
17.210335
 20
15.640829
 30
0.0
 10
17.224141
 20
15.624007
 30
0.0
 10
17.243229
 20
15.616824
 30
0.0
  0
SPLINE
  5
1b2
100
AcDbEntity
  8
Layer_1
 62
7
100
AcDbSpline
 70
8
 71
3
 72
8
 73
4
 74
0
 40
0
 40
0
 40
0
 40
0
 40
1
 40
1
 40
1
 40
1
 10
17.243229
 20
15.616824
 30
0.0
 10
17.262317
 20
15.609640
 30
0.0
 10
17.283787
 20
15.613186
 30
0.0
 10
17.299553
 20
15.626125
 30
0.0
  0
SPLINE
  5
1b3
100
AcDbEntity
  8
Layer_1
 62
7
100
AcDbSpline
 70
8
 71
3
 72
8
 73
4
 74
0
 40
0
 40
0
 40
0
 40
0
 40
1
 40
1
 40
1
 40
1
 10
17.299553
 20
15.626125
 30
0.0
 10
17.315318
 20
15.639064
 30
0.0
 10
17.322982
 20
15.659431
 30
0.0
 10
17.319659
 20
15.679553
 30
0.0
  0
SPLINE
  5
1b4
100
AcDbEntity
  8
Layer_1
 62
7
100
AcDbSpline
 70
8
 71
3
 72
8
 73
4
 74
0
 40
0
 40
0
 40
0
 40
0
 40
1
 40
1
 40
1
 40
1
 10
17.319659
 20
15.679553
 30
0.0
 10
17.316337
 20
15.699676
 30
0.0
 10
17.302531
 20
15.716497
 30
0.0
 10
17.283443
 20
15.723680
 30
0.0
  0
SPLINE
  5
1b5
100
AcDbEntity
  8
Layer_1
 62
7
100
AcDbSpline
 70
8
 71
3
 72
8
 73
4
 74
0
 40
0
 40
0
 40
0
 40
0
 40
1
 40
1
 40
1
 40
1
 10
17.283443
 20
15.723680
 30
0.0
 10
17.264355
 20
15.730864
 30
0.0
 10
17.242884
 20
15.727318
 30
0.0
 10
17.227119
 20
15.714379
 30
0.0
  0
SPLINE
  5
1b6
100
AcDbEntity
  8
Layer_1
 62
7
100
AcDbSpline
 70
8
 71
3
 72
8
 73
4
 74
0
 40
0
 40
0
 40
0
 40
0
 40
1
 40
1
 40
1
 40
1
 10
17.227119
 20
15.714379
 30
0.0
 10
17.211354
 20
15.701440
 30
0.0
 10
17.203689
 20
15.681074
 30
0.0
 10
17.207012
 20
15.660951
 30
0.0
  0
LWPOLYLINE
  5
1b7
100
AcDbEntity
  8
Layer_1
 62
7
100
AcDbPolyline
 90
1
 70
1
 10
11.768857
 20
14.762918
 30
0.0
  0
SPLINE
  5
1b8
100
AcDbEntity
  8
Layer_1
 62
7
100
AcDbSpline
 70
8
 71
3
 72
8
 73
4
 74
0
 40
0
 40
0
 40
0
 40
0
 40
1
 40
1
 40
1
 40
1
 10
6.330701
 20
13.864886
 30
0.0
 10
6.335902
 20
13.833842
 30
0.0
 10
6.365249
 20
13.812866
 30
0.0
 10
6.396304
 20
13.817995
 30
0.0
  0
SPLINE
  5
1b9
100
AcDbEntity
  8
Layer_1
 62
7
100
AcDbSpline
 70
8
 71
3
 72
8
 73
4
 74
0
 40
0
 40
0
 40
0
 40
0
 40
1
 40
1
 40
1
 40
1
 10
6.396304
 20
13.817995
 30
0.0
 10
6.427360
 20
13.823123
 30
0.0
 10
6.448404
 20
13.852421
 30
0.0
 10
6.443349
 20
13.883488
 30
0.0
  0
SPLINE
  5
1ba
100
AcDbEntity
  8
Layer_1
 62
7
100
AcDbSpline
 70
8
 71
3
 72
8
 73
4
 74
0
 40
0
 40
0
 40
0
 40
0
 40
1
 40
1
 40
1
 40
1
 10
6.443349
 20
13.883488
 30
0.0
 10
6.438148
 20
13.914531
 30
0.0
 10
6.408801
 20
13.935507
 30
0.0
 10
6.377746
 20
13.930379
 30
0.0
  0
SPLINE
  5
1bb
100
AcDbEntity
  8
Layer_1
 62
7
100
AcDbSpline
 70
8
 71
3
 72
8
 73
4
 74
0
 40
0
 40
0
 40
0
 40
0
 40
1
 40
1
 40
1
 40
1
 10
6.377746
 20
13.930379
 30
0.0
 10
6.346690
 20
13.925250
 30
0.0
 10
6.325646
 20
13.895953
 30
0.0
 10
6.330701
 20
13.864886
 30
0.0
  0
LWPOLYLINE
  5
1bc
100
AcDbEntity
  8
Layer_1
 62
7
100
AcDbPolyline
 90
1
 70
1
 10
17.207012
 20
15.660951
 30
0.0
  0
SPLINE
  5
1bd
100
AcDbEntity
  8
Layer_1
 62
7
100
AcDbSpline
 70
8
 71
3
 72
8
 73
4
 74
0
 40
0
 40
0
 40
0
 40
0
 40
1
 40
1
 40
1
 40
1
 10
27.083336
 20
6.597817
 30
0.0
 10
27.086659
 20
6.577694
 30
0.0
 10
27.100465
 20
6.560873
 30
0.0
 10
27.119553
 20
6.553689
 30
0.0
  0
SPLINE
  5
1be
100
AcDbEntity
  8
Layer_1
 62
7
100
AcDbSpline
 70
8
 71
3
 72
8
 73
4
 74
0
 40
0
 40
0
 40
0
 40
0
 40
1
 40
1
 40
1
 40
1
 10
27.119553
 20
6.553689
 30
0.0
 10
27.138641
 20
6.546506
 30
0.0
 10
27.160112
 20
6.550051
 30
0.0
 10
27.175877
 20
6.562990
 30
0.0
  0
SPLINE
  5
1bf
100
AcDbEntity
  8
Layer_1
 62
7
100
AcDbSpline
 70
8
 71
3
 72
8
 73
4
 74
0
 40
0
 40
0
 40
0
 40
0
 40
1
 40
1
 40
1
 40
1
 10
27.175877
 20
6.562990
 30
0.0
 10
27.191642
 20
6.575929
 30
0.0
 10
27.199307
 20
6.596296
 30
0.0
 10
27.195984
 20
6.616419
 30
0.0
  0
SPLINE
  5
1c0
100
AcDbEntity
  8
Layer_1
 62
7
100
AcDbSpline
 70
8
 71
3
 72
8
 73
4
 74
0
 40
0
 40
0
 40
0
 40
0
 40
1
 40
1
 40
1
 40
1
 10
27.195984
 20
6.616419
 30
0.0
 10
27.192661
 20
6.636541
 30
0.0
 10
27.178855
 20
6.653363
 30
0.0
 10
27.159767
 20
6.660546
 30
0.0
  0
SPLINE
  5
1c1
100
AcDbEntity
  8
Layer_1
 62
7
100
AcDbSpline
 70
8
 71
3
 72
8
 73
4
 74
0
 40
0
 40
0
 40
0
 40
0
 40
1
 40
1
 40
1
 40
1
 10
27.159767
 20
6.660546
 30
0.0
 10
27.140679
 20
6.667730
 30
0.0
 10
27.119208
 20
6.664184
 30
0.0
 10
27.103443
 20
6.651245
 30
0.0
  0
SPLINE
  5
1c2
100
AcDbEntity
  8
Layer_1
 62
7
100
AcDbSpline
 70
8
 71
3
 72
8
 73
4
 74
0
 40
0
 40
0
 40
0
 40
0
 40
1
 40
1
 40
1
 40
1
 10
27.103443
 20
6.651245
 30
0.0
 10
27.087678
 20
6.638306
 30
0.0
 10
27.080013
 20
6.617939
 30
0.0
 10
27.083336
 20
6.597817
 30
0.0
  0
LWPOLYLINE
  5
1c3
100
AcDbEntity
  8
Layer_1
 62
7
100
AcDbPolyline
 90
1
 70
1
 10
6.330701
 20
13.864886
 30
0.0
  0
SPLINE
  5
1c4
100
AcDbEntity
  8
Layer_1
 62
7
100
AcDbSpline
 70
8
 71
3
 72
8
 73
4
 74
0
 40
0
 40
0
 40
0
 40
0
 40
1
 40
1
 40
1
 40
1
 10
0.759259
 20
10.391035
 30
0.0
 10
0.762582
 20
10.370913
 30
0.0
 10
0.776388
 20
10.354091
 30
0.0
 10
0.795476
 20
10.346908
 30
0.0
  0
SPLINE
  5
1c5
100
AcDbEntity
  8
Layer_1
 62
7
100
AcDbSpline
 70
8
 71
3
 72
8
 73
4
 74
0
 40
0
 40
0
 40
0
 40
0
 40
1
 40
1
 40
1
 40
1
 10
0.795476
 20
10.346908
 30
0.0
 10
0.814564
 20
10.339724
 30
0.0
 10
0.836035
 20
10.343270
 30
0.0
 10
0.851800
 20
10.356209
 30
0.0
  0
SPLINE
  5
1c6
100
AcDbEntity
  8
Layer_1
 62
7
100
AcDbSpline
 70
8
 71
3
 72
8
 73
4
 74
0
 40
0
 40
0
 40
0
 40
0
 40
1
 40
1
 40
1
 40
1
 10
0.851800
 20
10.356209
 30
0.0
 10
0.867566
 20
10.369148
 30
0.0
 10
0.875230
 20
10.389515
 30
0.0
 10
0.871907
 20
10.409638
 30
0.0
  0
SPLINE
  5
1c7
100
AcDbEntity
  8
Layer_1
 62
7
100
AcDbSpline
 70
8
 71
3
 72
8
 73
4
 74
0
 40
0
 40
0
 40
0
 40
0
 40
1
 40
1
 40
1
 40
1
 10
0.871907
 20
10.409638
 30
0.0
 10
0.868584
 20
10.429760
 30
0.0
 10
0.854779
 20
10.446582
 30
0.0
 10
0.835690
 20
10.453765
 30
0.0
  0
SPLINE
  5
1c8
100
AcDbEntity
  8
Layer_1
 62
7
100
AcDbSpline
 70
8
 71
3
 72
8
 73
4
 74
0
 40
0
 40
0
 40
0
 40
0
 40
1
 40
1
 40
1
 40
1
 10
0.835690
 20
10.453765
 30
0.0
 10
0.816602
 20
10.460949
 30
0.0
 10
0.795131
 20
10.457403
 30
0.0
 10
0.779366
 20
10.444464
 30
0.0
  0
SPLINE
  5
1c9
100
AcDbEntity
  8
Layer_1
 62
7
100
AcDbSpline
 70
8
 71
3
 72
8
 73
4
 74
0
 40
0
 40
0
 40
0
 40
0
 40
1
 40
1
 40
1
 40
1
 10
0.779366
 20
10.444464
 30
0.0
 10
0.763601
 20
10.431525
 30
0.0
 10
0.755936
 20
10.411158
 30
0.0
 10
0.759259
 20
10.391035
 30
0.0
  0
LWPOLYLINE
  5
1ca
100
AcDbEntity
  8
Layer_1
 62
7
100
AcDbPolyline
 90
1
 70
1
 10
27.083336
 20
6.597817
 30
0.0
  0
LWPOLYLINE
  5
1cb
100
AcDbEntity
  8
Layer_1
 62
7
100
AcDbPolyline
 90
1
 70
1
 10
0.759259
 20
10.391035
 30
0.0
  0
SPLINE
  5
1cc
100
AcDbEntity
  8
Layer_1
 62
7
100
AcDbSpline
 70
8
 71
3
 72
8
 73
4
 74
0
 40
0
 40
0
 40
0
 40
0
 40
1
 40
1
 40
1
 40
1
 10
5.926406
 20
4.701519
 30
0.0
 10
6.405051
 20
4.023257
 30
0.0
 10
7.229334
 20
3.678344
 30
0.0
 10
8.048386
 20
3.813599
 30
0.0
  0
LWPOLYLINE
  5
1cd
100
AcDbEntity
  8
Layer_1
 62
7
100
AcDbPolyline
 90
3
 70
0
 10
29.961393
 20
6.434639
 30
0.0
 10
29.801030
 20
7.405736
 30
0.0
 10
8.048362
 20
3.813598
 30
0.0
  0
SPLINE
  5
1ce
100
AcDbEntity
  8
Layer_1
 62
7
100
AcDbSpline
 70
8
 71
3
 72
8
 73
4
 74
0
 40
0
 40
0
 40
0
 40
0
 40
1
 40
1
 40
1
 40
1
 10
2.976398
 20
12.149894
 30
0.0
 10
2.533076
 20
12.042228
 30
0.0
 10
2.171780
 20
11.722123
 30
0.0
 10
2.011494
 20
11.295000
 30
0.0
  0
SPLINE
  5
1cf
100
AcDbEntity
  8
Layer_1
 62
7
100
AcDbSpline
 70
8
 71
3
 72
8
 73
4
 74
0
 40
0
 40
0
 40
0
 40
0
 40
1
 40
1
 40
1
 40
1
 10
2.011494
 20
11.295000
 30
0.0
 10
1.851208
 20
10.867876
 30
0.0
 10
1.912714
 20
10.389107
 30
0.0
 10
2.175755
 20
10.016367
 30
0.0
  0
LWPOLYLINE
  5
1d0
100
AcDbEntity
  8
Layer_1
 62
7
100
AcDbPolyline
 90
2
 70
0
 10
5.926384
 20
4.701511
 30
0.0
 10
2.175749
 20
10.016331
 30
0.0
  0
SPLINE
  5
1d1
100
AcDbEntity
  8
Layer_1
 62
7
100
AcDbSpline
 70
8
 71
3
 72
8
 73
4
 74
0
 40
0
 40
0
 40
0
 40
0
 40
1
 40
1
 40
1
 40
1
 10
9.163833
 20
13.973607
 30
0.0
 10
9.074349
 20
13.958830
 30
0.0
 10
8.985881
 20
13.938446
 30
0.0
 10
8.898952
 20
13.912574
 30
0.0
  0
LWPOLYLINE
  5
1d2
100
AcDbEntity
  8
Layer_1
 62
7
100
AcDbPolyline
 90
2
 70
0
 10
2.976435
 20
12.149876
 30
0.0
 10
8.898959
 20
13.912546
 30
0.0
  0
SPLINE
  5
1d3
100
AcDbEntity
  8
Layer_1
 62
7
100
AcDbSpline
 70
8
 71
3
 72
8
 73
4
 74
0
 40
0
 40
0
 40
0
 40
0
 40
1
 40
1
 40
1
 40
1
 10
25.748740
 20
16.695073
 30
0.0
 10
25.658109
 20
16.691623
 30
0.0
 10
25.567784
 20
16.682482
 30
0.0
 10
25.478300
 20
16.667705
 30
0.0
  0
LWPOLYLINE
  5
1d4
100
AcDbEntity
  8
Layer_1
 62
7
100
AcDbPolyline
 90
2
 70
0
 10
9.163832
 20
13.973600
 30
0.0
 10
25.478303
 20
16.667699
 30
0.0
  0
SPLINE
  5
1d5
100
AcDbEntity
  8
Layer_1
 62
7
100
AcDbSpline
 70
8
 71
3
 72
8
 73
4
 74
0
 40
0
 40
0
 40
0
 40
0
 40
1
 40
1
 40
1
 40
1
 10
2.788435
 20
13.918383
 30
0.0
 10
2.752166
 20
13.912394
 30
0.0
 10
2.745305
 20
13.910986
 30
0.0
 10
2.516078
 20
13.868834
 30
0.0
  0
SPLINE
  5
1d6
100
AcDbEntity
  8
Layer_1
 62
7
100
AcDbSpline
 70
8
 71
3
 72
8
 73
4
 74
0
 40
0
 40
0
 40
0
 40
0
 40
1
 40
1
 40
1
 40
1
 10
2.516078
 20
13.868834
 30
0.0
 10
2.516078
 20
13.868834
 30
0.0
 10
2.325786
 20
13.810925
 30
0.0
 10
1.749109
 20
13.584981
 30
0.0
  0
SPLINE
  5
1d7
100
AcDbEntity
  8
Layer_1
 62
7
100
AcDbSpline
 70
8
 71
3
 72
8
 73
4
 74
0
 40
0
 40
0
 40
0
 40
0
 40
1
 40
1
 40
1
 40
1
 10
1.749109
 20
13.584981
 30
0.0
 10
1.749109
 20
13.584981
 30
0.0
 10
1.420205
 20
13.360176
 30
0.0
 10
0.834810
 20
12.808284
 30
0.0
  0
SPLINE
  5
1d8
100
AcDbEntity
  8
Layer_1
 62
7
100
AcDbSpline
 70
8
 71
3
 72
8
 73
4
 74
0
 40
0
 40
0
 40
0
 40
0
 40
1
 40
1
 40
1
 40
1
 10
0.834810
 20
12.808284
 30
0.0
 10
0.834810
 20
12.808284
 30
0.0
 10
0.612393
 20
12.472160
 30
0.0
 10
0.278376
 20
11.736291
 30
0.0
  0
SPLINE
  5
1d9
100
AcDbEntity
  8
Layer_1
 62
7
100
AcDbSpline
 70
8
 71
3
 72
8
 73
4
 74
0
 40
0
 40
0
 40
0
 40
0
 40
1
 40
1
 40
1
 40
1
 10
0.278376
 20
11.736291
 30
0.0
 10
0.278376
 20
11.736291
 30
0.0
 10
0.196917
 20
11.332476
 30
0.0
 10
0.185267
 20
10.951561
 30
0.0
  0
SPLINE
  5
1da
100
AcDbEntity
  8
Layer_1
 62
7
100
AcDbSpline
 70
8
 71
3
 72
8
 73
4
 74
0
 40
0
 40
0
 40
0
 40
0
 40
1
 40
1
 40
1
 40
1
 10
0.185267
 20
10.951561
 30
0.0
 10
0.173620
 20
10.570755
 30
0.0
 10
0.232019
 20
10.191314
 30
0.0
 10
0.356814
 20
9.831229
 30
0.0
  0
SPLINE
  5
1db
100
AcDbEntity
  8
Layer_1
 62
7
100
AcDbSpline
 70
8
 71
3
 72
8
 73
4
 74
0
 40
0
 40
0
 40
0
 40
0
 40
1
 40
1
 40
1
 40
1
 10
0.356814
 20
9.831229
 30
0.0
 10
0.365195
 20
9.807048
 30
0.0
 10
0.375179
 20
9.778592
 30
0.0
 10
0.392658
 20
9.733087
 30
0.0
  0
LWPOLYLINE
  5
1dc
100
AcDbEntity
  8
Layer_1
 62
7
100
AcDbPolyline
 90
4
 70
0
 10
25.748742
 20
16.695044
 30
0.0
 10
31.820181
 20
16.926201
 30
0.0
 10
31.533019
 20
18.665148
 30
0.0
 10
2.788384
 20
13.918387
 30
0.0
  0
SPLINE
  5
1dd
100
AcDbEntity
  8
Layer_1
 62
7
100
AcDbSpline
 70
8
 71
3
 72
8
 73
4
 74
0
 40
0
 40
0
 40
0
 40
0
 40
1
 40
1
 40
1
 40
1
 10
0.424938
 20
9.649040
 30
0.0
 10
0.453479
 20
9.574729
 30
0.0
 10
0.493555
 20
9.470385
 30
0.0
 10
0.552183
 20
9.317647
 30
0.0
  0
SPLINE
  5
1de
100
AcDbEntity
  8
Layer_1
 62
7
100
AcDbSpline
 70
8
 71
3
 72
8
 73
4
 74
0
 40
0
 40
0
 40
0
 40
0
 40
1
 40
1
 40
1
 40
1
 10
0.552183
 20
9.317647
 30
0.0
 10
0.798406
 20
8.676190
 30
0.0
 10
0.996625
 20
8.158088
 30
0.0
 10
1.170386
 20
7.701655
 30
0.0
  0
SPLINE
  5
1df
100
AcDbEntity
  8
Layer_1
 62
7
100
AcDbSpline
 70
8
 71
3
 72
8
 73
4
 74
0
 40
0
 40
0
 40
0
 40
0
 40
1
 40
1
 40
1
 40
1
 10
1.170386
 20
7.701655
 30
0.0
 10
1.621280
 20
6.517248
 30
0.0
 10
2.042518
 20
5.390777
 30
0.0
 10
2.356794
 20
4.520668
 30
0.0
  0
SPLINE
  5
1e0
100
AcDbEntity
  8
Layer_1
 62
7
100
AcDbSpline
 70
8
 71
3
 72
8
 73
4
 74
0
 40
0
 40
0
 40
0
 40
0
 40
1
 40
1
 40
1
 40
1
 10
2.356794
 20
4.520668
 30
0.0
 10
2.361916
 20
4.506488
 30
0.0
 10
2.367565
 20
4.490837
 30
0.0
 10
2.373718
 20
4.473778
 30
0.0
  0
SPLINE
  5
1e1
100
AcDbEntity
  8
Layer_1
 62
7
100
AcDbSpline
 70
8
 71
3
 72
8
 73
4
 74
0
 40
0
 40
0
 40
0
 40
0
 40
1
 40
1
 40
1
 40
1
 10
2.373718
 20
4.473778
 30
0.0
 10
2.420394
 20
4.344360
 30
0.0
 10
2.503189
 20
4.136584
 30
0.0
 10
2.651002
 20
3.893523
 30
0.0
  0
SPLINE
  5
1e2
100
AcDbEntity
  8
Layer_1
 62
7
100
AcDbSpline
 70
8
 71
3
 72
8
 73
4
 74
0
 40
0
 40
0
 40
0
 40
0
 40
1
 40
1
 40
1
 40
1
 10
2.651002
 20
3.893523
 30
0.0
 10
2.875238
 20
3.524795
 30
0.0
 10
3.147705
 20
3.242072
 30
0.0
 10
3.433193
 20
3.025906
 30
0.0
  0
SPLINE
  5
1e3
100
AcDbEntity
  8
Layer_1
 62
7
100
AcDbSpline
 70
8
 71
3
 72
8
 73
4
 74
0
 40
0
 40
0
 40
0
 40
0
 40
1
 40
1
 40
1
 40
1
 10
3.433193
 20
3.025906
 30
0.0
 10
3.781941
 20
2.761839
 30
0.0
 10
4.147644
 20
2.598786
 30
0.0
 10
4.501294
 20
2.505094
 30
0.0
  0
SPLINE
  5
1e4
100
AcDbEntity
  8
Layer_1
 62
7
100
AcDbSpline
 70
8
 71
3
 72
8
 73
4
 74
0
 40
0
 40
0
 40
0
 40
0
 40
1
 40
1
 40
1
 40
1
 10
4.501294
 20
2.505094
 30
0.0
 10
4.932145
 20
2.390951
 30
0.0
 10
5.341754
 20
2.380365
 30
0.0
 10
5.713379
 20
2.431556
 30
0.0
  0
SPLINE
  5
1e5
100
AcDbEntity
  8
Layer_1
 62
7
100
AcDbSpline
 70
8
 71
3
 72
8
 73
4
 74
0
 40
0
 40
0
 40
0
 40
0
 40
1
 40
1
 40
1
 40
1
 10
5.713379
 20
2.431556
 30
0.0
 10
5.733827
 20
2.434374
 30
0.0
 10
5.755990
 20
2.437462
 30
0.0
 10
5.795819
 20
2.444039
 30
0.0
  0
LWPOLYLINE
  5
1e6
100
AcDbEntity
  8
Layer_1
 62
7
100
AcDbPolyline
 90
2
 70
0
 10
0.392659
 20
9.733071
 30
0.0
 10
0.424900
 20
9.649076
 30
0.0
  0
SPLINE
  5
1e7
100
AcDbEntity
  8
Layer_1
 62
7
100
AcDbSpline
 70
8
 71
3
 72
8
 73
4
 74
0
 40
0
 40
0
 40
0
 40
0
 40
1
 40
1
 40
1
 40
1
 10
29.018422
 20
6.774309
 30
0.0
 10
29.036445
 20
6.665791
 30
0.0
 10
29.138978
 20
6.592392
 30
0.0
 10
29.247514
 20
6.610315
 30
0.0
  0
SPLINE
  5
1e8
100
AcDbEntity
  8
Layer_1
 62
7
100
AcDbSpline
 70
8
 71
3
 72
8
 73
4
 74
0
 40
0
 40
0
 40
0
 40
0
 40
1
 40
1
 40
1
 40
1
 10
29.247514
 20
6.610315
 30
0.0
 10
29.356049
 20
6.628238
 30
0.0
 10
29.429541
 20
6.730705
 30
0.0
 10
29.411717
 20
6.839256
 30
0.0
  0
SPLINE
  5
1e9
100
AcDbEntity
  8
Layer_1
 62
7
100
AcDbSpline
 70
8
 71
3
 72
8
 73
4
 74
0
 40
0
 40
0
 40
0
 40
0
 40
1
 40
1
 40
1
 40
1
 10
29.411717
 20
6.839256
 30
0.0
 10
29.393695
 20
6.947775
 30
0.0
 10
29.291161
 20
7.021174
 30
0.0
 10
29.182626
 20
7.003251
 30
0.0
  0
SPLINE
  5
1ea
100
AcDbEntity
  8
Layer_1
 62
7
100
AcDbSpline
 70
8
 71
3
 72
8
 73
4
 74
0
 40
0
 40
0
 40
0
 40
0
 40
1
 40
1
 40
1
 40
1
 10
29.182626
 20
7.003251
 30
0.0
 10
29.074091
 20
6.985328
 30
0.0
 10
29.000599
 20
6.882861
 30
0.0
 10
29.018422
 20
6.774309
 30
0.0
  0
LWPOLYLINE
  5
1eb
100
AcDbEntity
  8
Layer_1
 62
7
100
AcDbPolyline
 90
2
 70
0
 10
5.795781
 20
2.444038
 30
0.0
 10
29.961393
 20
6.434639
 30
0.0
  0
SPLINE
  5
1ec
100
AcDbEntity
  8
Layer_1
 62
7
100
AcDbSpline
 70
8
 71
3
 72
8
 73
4
 74
0
 40
0
 40
0
 40
0
 40
0
 40
1
 40
1
 40
1
 40
1
 10
3.700359
 20
13.304084
 30
0.0
 10
3.718381
 20
13.195566
 30
0.0
 10
3.820915
 20
13.122167
 30
0.0
 10
3.929450
 20
13.140090
 30
0.0
  0
SPLINE
  5
1ed
100
AcDbEntity
  8
Layer_1
 62
7
100
AcDbSpline
 70
8
 71
3
 72
8
 73
4
 74
0
 40
0
 40
0
 40
0
 40
0
 40
1
 40
1
 40
1
 40
1
 10
3.929450
 20
13.140090
 30
0.0
 10
4.037986
 20
13.158013
 30
0.0
 10
4.111478
 20
13.260480
 30
0.0
 10
4.093654
 20
13.369031
 30
0.0
  0
SPLINE
  5
1ee
100
AcDbEntity
  8
Layer_1
 62
7
100
AcDbSpline
 70
8
 71
3
 72
8
 73
4
 74
0
 40
0
 40
0
 40
0
 40
0
 40
1
 40
1
 40
1
 40
1
 10
4.093654
 20
13.369031
 30
0.0
 10
4.075632
 20
13.477550
 30
0.0
 10
3.973098
 20
13.550949
 30
0.0
 10
3.864563
 20
13.533026
 30
0.0
  0
SPLINE
  5
1ef
100
AcDbEntity
  8
Layer_1
 62
7
100
AcDbSpline
 70
8
 71
3
 72
8
 73
4
 74
0
 40
0
 40
0
 40
0
 40
0
 40
1
 40
1
 40
1
 40
1
 10
3.864563
 20
13.533026
 30
0.0
 10
3.756028
 20
13.515103
 30
0.0
 10
3.682535
 20
13.412636
 30
0.0
 10
3.700359
 20
13.304084
 30
0.0
  0
LWPOLYLINE
  5
1f0
100
AcDbEntity
  8
Layer_1
 62
7
100
AcDbPolyline
 90
1
 70
1
 10
29.018422
 20
6.774309
 30
0.0
  0
SPLINE
  5
1f1
100
AcDbEntity
  8
Layer_1
 62
7
100
AcDbSpline
 70
8
 71
3
 72
8
 73
4
 74
0
 40
0
 40
0
 40
0
 40
0
 40
1
 40
1
 40
1
 40
1
 10
7.174378
 20
3.226420
 30
0.0
 10
7.185980
 20
3.156165
 30
0.0
 10
7.234181
 20
3.097435
 30
0.0
 10
7.300825
 20
3.072355
 30
0.0
  0
SPLINE
  5
1f2
100
AcDbEntity
  8
Layer_1
 62
7
100
AcDbSpline
 70
8
 71
3
 72
8
 73
4
 74
0
 40
0
 40
0
 40
0
 40
0
 40
1
 40
1
 40
1
 40
1
 10
7.300825
 20
3.072355
 30
0.0
 10
7.367469
 20
3.047275
 30
0.0
 10
7.442431
 20
3.059653
 30
0.0
 10
7.497473
 20
3.104829
 30
0.0
  0
SPLINE
  5
1f3
100
AcDbEntity
  8
Layer_1
 62
7
100
AcDbSpline
 70
8
 71
3
 72
8
 73
4
 74
0
 40
0
 40
0
 40
0
 40
0
 40
1
 40
1
 40
1
 40
1
 10
7.497473
 20
3.104829
 30
0.0
 10
7.552516
 20
3.150004
 30
0.0
 10
7.579276
 20
3.221112
 30
0.0
 10
7.567674
 20
3.291368
 30
0.0
  0
SPLINE
  5
1f4
100
AcDbEntity
  8
Layer_1
 62
7
100
AcDbSpline
 70
8
 71
3
 72
8
 73
4
 74
0
 40
0
 40
0
 40
0
 40
0
 40
1
 40
1
 40
1
 40
1
 10
7.567674
 20
3.291368
 30
0.0
 10
7.556073
 20
3.361623
 30
0.0
 10
7.507871
 20
3.420353
 30
0.0
 10
7.441228
 20
3.445433
 30
0.0
  0
SPLINE
  5
1f5
100
AcDbEntity
  8
Layer_1
 62
7
100
AcDbSpline
 70
8
 71
3
 72
8
 73
4
 74
0
 40
0
 40
0
 40
0
 40
0
 40
1
 40
1
 40
1
 40
1
 10
7.441228
 20
3.445433
 30
0.0
 10
7.374584
 20
3.470513
 30
0.0
 10
7.299622
 20
3.458135
 30
0.0
 10
7.244579
 20
3.412959
 30
0.0
  0
SPLINE
  5
1f6
100
AcDbEntity
  8
Layer_1
 62
7
100
AcDbSpline
 70
8
 71
3
 72
8
 73
4
 74
0
 40
0
 40
0
 40
0
 40
0
 40
1
 40
1
 40
1
 40
1
 10
7.244579
 20
3.412959
 30
0.0
 10
7.189537
 20
3.367784
 30
0.0
 10
7.162777
 20
3.296676
 30
0.0
 10
7.174378
 20
3.226420
 30
0.0
  0
LWPOLYLINE
  5
1f7
100
AcDbEntity
  8
Layer_1
 62
7
100
AcDbPolyline
 90
1
 70
1
 10
3.700359
 20
13.304084
 30
0.0
  0
SPLINE
  5
1f8
100
AcDbEntity
  8
Layer_1
 62
7
100
AcDbSpline
 70
8
 71
3
 72
8
 73
4
 74
0
 40
0
 40
0
 40
0
 40
0
 40
1
 40
1
 40
1
 40
1
 10
30.473668
 20
17.725309
 30
0.0
 10
30.491690
 20
17.616790
 30
0.0
 10
30.594224
 20
17.543392
 30
0.0
 10
30.702759
 20
17.561315
 30
0.0
  0
SPLINE
  5
1f9
100
AcDbEntity
  8
Layer_1
 62
7
100
AcDbSpline
 70
8
 71
3
 72
8
 73
4
 74
0
 40
0
 40
0
 40
0
 40
0
 40
1
 40
1
 40
1
 40
1
 10
30.702759
 20
17.561315
 30
0.0
 10
30.811294
 20
17.579238
 30
0.0
 10
30.884787
 20
17.681705
 30
0.0
 10
30.866963
 20
17.790256
 30
0.0
  0
SPLINE
  5
1fa
100
AcDbEntity
  8
Layer_1
 62
7
100
AcDbSpline
 70
8
 71
3
 72
8
 73
4
 74
0
 40
0
 40
0
 40
0
 40
0
 40
1
 40
1
 40
1
 40
1
 10
30.866963
 20
17.790256
 30
0.0
 10
30.848940
 20
17.898775
 30
0.0
 10
30.746407
 20
17.972173
 30
0.0
 10
30.637871
 20
17.954250
 30
0.0
  0
SPLINE
  5
1fb
100
AcDbEntity
  8
Layer_1
 62
7
100
AcDbSpline
 70
8
 71
3
 72
8
 73
4
 74
0
 40
0
 40
0
 40
0
 40
0
 40
1
 40
1
 40
1
 40
1
 10
30.637871
 20
17.954250
 30
0.0
 10
30.529336
 20
17.936327
 30
0.0
 10
30.455844
 20
17.833861
 30
0.0
 10
30.473668
 20
17.725309
 30
0.0
  0
LWPOLYLINE
  5
1fc
100
AcDbEntity
  8
Layer_1
 62
7
100
AcDbPolyline
 90
1
 70
1
 10
7.174378
 20
3.226420
 30
0.0
  0
SPLINE
  5
1fd
100
AcDbEntity
  8
Layer_1
 62
7
100
AcDbSpline
 70
8
 71
3
 72
8
 73
4
 74
0
 40
0
 40
0
 40
0
 40
0
 40
1
 40
1
 40
1
 40
1
 10
1.875500
 20
12.676370
 30
0.0
 10
1.887101
 20
12.606115
 30
0.0
 10
1.935303
 20
12.547385
 30
0.0
 10
2.001947
 20
12.522305
 30
0.0
  0
SPLINE
  5
1fe
100
AcDbEntity
  8
Layer_1
 62
7
100
AcDbSpline
 70
8
 71
3
 72
8
 73
4
 74
0
 40
0
 40
0
 40
0
 40
0
 40
1
 40
1
 40
1
 40
1
 10
2.001947
 20
12.522305
 30
0.0
 10
2.068591
 20
12.497225
 30
0.0
 10
2.143552
 20
12.509603
 30
0.0
 10
2.198595
 20
12.554779
 30
0.0
  0
SPLINE
  5
1ff
100
AcDbEntity
  8
Layer_1
 62
7
100
AcDbSpline
 70
8
 71
3
 72
8
 73
4
 74
0
 40
0
 40
0
 40
0
 40
0
 40
1
 40
1
 40
1
 40
1
 10
2.198595
 20
12.554779
 30
0.0
 10
2.253637
 20
12.599954
 30
0.0
 10
2.280397
 20
12.671062
 30
0.0
 10
2.268796
 20
12.741318
 30
0.0
  0
SPLINE
  5
200
100
AcDbEntity
  8
Layer_1
 62
7
100
AcDbSpline
 70
8
 71
3
 72
8
 73
4
 74
0
 40
0
 40
0
 40
0
 40
0
 40
1
 40
1
 40
1
 40
1
 10
2.268796
 20
12.741318
 30
0.0
 10
2.257194
 20
12.811573
 30
0.0
 10
2.208993
 20
12.870303
 30
0.0
 10
2.142349
 20
12.895383
 30
0.0
  0
SPLINE
  5
201
100
AcDbEntity
  8
Layer_1
 62
7
100
AcDbSpline
 70
8
 71
3
 72
8
 73
4
 74
0
 40
0
 40
0
 40
0
 40
0
 40
1
 40
1
 40
1
 40
1
 10
2.142349
 20
12.895383
 30
0.0
 10
2.075705
 20
12.920463
 30
0.0
 10
2.000743
 20
12.908085
 30
0.0
 10
1.945701
 20
12.862909
 30
0.0
  0
SPLINE
  5
202
100
AcDbEntity
  8
Layer_1
 62
7
100
AcDbSpline
 70
8
 71
3
 72
8
 73
4
 74
0
 40
0
 40
0
 40
0
 40
0
 40
1
 40
1
 40
1
 40
1
 10
1.945701
 20
12.862909
 30
0.0
 10
1.890659
 20
12.817734
 30
0.0
 10
1.863898
 20
12.746626
 30
0.0
 10
1.875500
 20
12.676370
 30
0.0
  0
LWPOLYLINE
  5
203
100
AcDbEntity
  8
Layer_1
 62
7
100
AcDbPolyline
 90
1
 70
1
 10
30.473668
 20
17.725309
 30
0.0
  0
SPLINE
  5
204
100
AcDbEntity
  8
Layer_1
 62
7
100
AcDbSpline
 70
8
 71
3
 72
8
 73
4
 74
0
 40
0
 40
0
 40
0
 40
0
 40
1
 40
1
 40
1
 40
1
 10
8.599131
 20
3.402359
 30
0.0
 10
8.617153
 20
3.293840
 30
0.0
 10
8.719687
 20
3.220441
 30
0.0
 10
8.828222
 20
3.238364
 30
0.0
  0
SPLINE
  5
205
100
AcDbEntity
  8
Layer_1
 62
7
100
AcDbSpline
 70
8
 71
3
 72
8
 73
4
 74
0
 40
0
 40
0
 40
0
 40
0
 40
1
 40
1
 40
1
 40
1
 10
8.828222
 20
3.238364
 30
0.0
 10
8.936757
 20
3.256287
 30
0.0
 10
9.010249
 20
3.358754
 30
0.0
 10
8.992426
 20
3.467306
 30
0.0
  0
SPLINE
  5
206
100
AcDbEntity
  8
Layer_1
 62
7
100
AcDbSpline
 70
8
 71
3
 72
8
 73
4
 74
0
 40
0
 40
0
 40
0
 40
0
 40
1
 40
1
 40
1
 40
1
 10
8.992426
 20
3.467306
 30
0.0
 10
8.974403
 20
3.575824
 30
0.0
 10
8.871870
 20
3.649223
 30
0.0
 10
8.763334
 20
3.631300
 30
0.0
  0
SPLINE
  5
207
100
AcDbEntity
  8
Layer_1
 62
7
100
AcDbSpline
 70
8
 71
3
 72
8
 73
4
 74
0
 40
0
 40
0
 40
0
 40
0
 40
1
 40
1
 40
1
 40
1
 10
8.763334
 20
3.631300
 30
0.0
 10
8.654799
 20
3.613377
 30
0.0
 10
8.581307
 20
3.510910
 30
0.0
 10
8.599131
 20
3.402359
 30
0.0
  0
LWPOLYLINE
  5
208
100
AcDbEntity
  8
Layer_1
 62
7
100
AcDbPolyline
 90
1
 70
1
 10
1.875500
 20
12.676370
 30
0.0
  0
SPLINE
  5
209
100
AcDbEntity
  8
Layer_1
 62
7
100
AcDbSpline
 70
8
 71
3
 72
8
 73
4
 74
0
 40
0
 40
0
 40
0
 40
0
 40
1
 40
1
 40
1
 40
1
 10
15.175002
 20
12.701338
 30
0.0
 10
15.174999
 20
12.669810
 30
0.0
 10
15.200556
 20
12.644249
 30
0.0
 10
15.232084
 20
12.644247
 30
0.0
  0
SPLINE
  5
20a
100
AcDbEntity
  8
Layer_1
 62
7
100
AcDbSpline
 70
8
 71
3
 72
8
 73
4
 74
0
 40
0
 40
0
 40
0
 40
0
 40
1
 40
1
 40
1
 40
1
 10
15.232084
 20
12.644247
 30
0.0
 10
15.263612
 20
12.644244
 30
0.0
 10
15.289172
 20
12.669801
 30
0.0
 10
15.289175
 20
12.701329
 30
0.0
  0
SPLINE
  5
20b
100
AcDbEntity
  8
Layer_1
 62
7
100
AcDbSpline
 70
8
 71
3
 72
8
 73
4
 74
0
 40
0
 40
0
 40
0
 40
0
 40
1
 40
1
 40
1
 40
1
 10
15.289175
 20
12.701329
 30
0.0
 10
15.289177
 20
12.732857
 30
0.0
 10
15.263621
 20
12.758417
 30
0.0
 10
15.232093
 20
12.758420
 30
0.0
  0
SPLINE
  5
20c
100
AcDbEntity
  8
Layer_1
 62
7
100
AcDbSpline
 70
8
 71
3
 72
8
 73
4
 74
0
 40
0
 40
0
 40
0
 40
0
 40
1
 40
1
 40
1
 40
1
 10
15.232093
 20
12.758420
 30
0.0
 10
15.200565
 20
12.758422
 30
0.0
 10
15.175004
 20
12.732866
 30
0.0
 10
15.175002
 20
12.701338
 30
0.0
  0
LWPOLYLINE
  5
20d
100
AcDbEntity
  8
Layer_1
 62
7
100
AcDbPolyline
 90
1
 70
1
 10
8.599131
 20
3.402359
 30
0.0
  0
SPLINE
  5
20e
100
AcDbEntity
  8
Layer_1
 62
7
100
AcDbSpline
 70
8
 71
3
 72
8
 73
4
 74
0
 40
0
 40
0
 40
0
 40
0
 40
1
 40
1
 40
1
 40
1
 10
31.710438
 20
13.014409
 30
0.0
 10
31.710437
 20
12.994014
 30
0.0
 10
31.721316
 20
12.975167
 30
0.0
 10
31.738978
 20
12.964968
 30
0.0
  0
SPLINE
  5
20f
100
AcDbEntity
  8
Layer_1
 62
7
100
AcDbSpline
 70
8
 71
3
 72
8
 73
4
 74
0
 40
0
 40
0
 40
0
 40
0
 40
1
 40
1
 40
1
 40
1
 10
31.738978
 20
12.964968
 30
0.0
 10
31.756640
 20
12.954769
 30
0.0
 10
31.778401
 20
12.954768
 30
0.0
 10
31.796065
 20
12.964964
 30
0.0
  0
SPLINE
  5
210
100
AcDbEntity
  8
Layer_1
 62
7
100
AcDbSpline
 70
8
 71
3
 72
8
 73
4
 74
0
 40
0
 40
0
 40
0
 40
0
 40
1
 40
1
 40
1
 40
1
 10
31.796065
 20
12.964964
 30
0.0
 10
31.813728
 20
12.975160
 30
0.0
 10
31.824610
 20
12.994005
 30
0.0
 10
31.824612
 20
13.014400
 30
0.0
  0
SPLINE
  5
211
100
AcDbEntity
  8
Layer_1
 62
7
100
AcDbSpline
 70
8
 71
3
 72
8
 73
4
 74
0
 40
0
 40
0
 40
0
 40
0
 40
1
 40
1
 40
1
 40
1
 10
31.824612
 20
13.014400
 30
0.0
 10
31.824613
 20
13.034795
 30
0.0
 10
31.813734
 20
13.053642
 30
0.0
 10
31.796072
 20
13.063841
 30
0.0
  0
SPLINE
  5
212
100
AcDbEntity
  8
Layer_1
 62
7
100
AcDbSpline
 70
8
 71
3
 72
8
 73
4
 74
0
 40
0
 40
0
 40
0
 40
0
 40
1
 40
1
 40
1
 40
1
 10
31.796072
 20
13.063841
 30
0.0
 10
31.778410
 20
13.074040
 30
0.0
 10
31.756649
 20
13.074042
 30
0.0
 10
31.738985
 20
13.063846
 30
0.0
  0
SPLINE
  5
213
100
AcDbEntity
  8
Layer_1
 62
7
100
AcDbSpline
 70
8
 71
3
 72
8
 73
4
 74
0
 40
0
 40
0
 40
0
 40
0
 40
1
 40
1
 40
1
 40
1
 10
31.738985
 20
13.063846
 30
0.0
 10
31.721322
 20
13.053649
 30
0.0
 10
31.710440
 20
13.034804
 30
0.0
 10
31.710438
 20
13.014409
 30
0.0
  0
LWPOLYLINE
  5
214
100
AcDbEntity
  8
Layer_1
 62
7
100
AcDbPolyline
 90
1
 70
1
 10
15.175002
 20
12.701338
 30
0.0
  0
SPLINE
  5
215
100
AcDbEntity
  8
Layer_1
 62
7
100
AcDbSpline
 70
8
 71
3
 72
8
 73
4
 74
0
 40
0
 40
0
 40
0
 40
0
 40
1
 40
1
 40
1
 40
1
 10
28.955328
 20
23.251440
 30
0.0
 10
28.955399
 20
23.219965
 30
0.0
 10
28.980934
 20
23.194486
 30
0.0
 10
29.012410
 20
23.194483
 30
0.0
  0
SPLINE
  5
216
100
AcDbEntity
  8
Layer_1
 62
7
100
AcDbSpline
 70
8
 71
3
 72
8
 73
4
 74
0
 40
0
 40
0
 40
0
 40
0
 40
1
 40
1
 40
1
 40
1
 10
29.012410
 20
23.194483
 30
0.0
 10
29.043886
 20
23.194481
 30
0.0
 10
29.069425
 20
23.219956
 30
0.0
 10
29.069501
 20
23.251432
 30
0.0
  0
SPLINE
  5
217
100
AcDbEntity
  8
Layer_1
 62
7
100
AcDbSpline
 70
8
 71
3
 72
8
 73
4
 74
0
 40
0
 40
0
 40
0
 40
0
 40
1
 40
1
 40
1
 40
1
 10
29.069501
 20
23.251432
 30
0.0
 10
29.069429
 20
23.282907
 30
0.0
 10
29.043894
 20
23.308387
 30
0.0
 10
29.012419
 20
23.308389
 30
0.0
  0
SPLINE
  5
218
100
AcDbEntity
  8
Layer_1
 62
7
100
AcDbSpline
 70
8
 71
3
 72
8
 73
4
 74
0
 40
0
 40
0
 40
0
 40
0
 40
1
 40
1
 40
1
 40
1
 10
29.012419
 20
23.308389
 30
0.0
 10
28.980943
 20
23.308391
 30
0.0
 10
28.955404
 20
23.282916
 30
0.0
 10
28.955328
 20
23.251440
 30
0.0
  0
LWPOLYLINE
  5
219
100
AcDbEntity
  8
Layer_1
 62
7
100
AcDbPolyline
 90
1
 70
1
 10
31.710438
 20
13.014409
 30
0.0
  0
SPLINE
  5
21a
100
AcDbEntity
  8
Layer_1
 62
7
100
AcDbSpline
 70
8
 71
3
 72
8
 73
4
 74
0
 40
0
 40
0
 40
0
 40
0
 40
1
 40
1
 40
1
 40
1
 10
23.443524
 20
23.251867
 30
0.0
 10
23.443522
 20
23.231472
 30
0.0
 10
23.454401
 20
23.212625
 30
0.0
 10
23.472063
 20
23.202426
 30
0.0
  0
SPLINE
  5
21b
100
AcDbEntity
  8
Layer_1
 62
7
100
AcDbSpline
 70
8
 71
3
 72
8
 73
4
 74
0
 40
0
 40
0
 40
0
 40
0
 40
1
 40
1
 40
1
 40
1
 10
23.472063
 20
23.202426
 30
0.0
 10
23.489725
 20
23.192227
 30
0.0
 10
23.511486
 20
23.192225
 30
0.0
 10
23.529150
 20
23.202422
 30
0.0
  0
SPLINE
  5
21c
100
AcDbEntity
  8
Layer_1
 62
7
100
AcDbSpline
 70
8
 71
3
 72
8
 73
4
 74
0
 40
0
 40
0
 40
0
 40
0
 40
1
 40
1
 40
1
 40
1
 10
23.529150
 20
23.202422
 30
0.0
 10
23.546813
 20
23.212618
 30
0.0
 10
23.557695
 20
23.231463
 30
0.0
 10
23.557697
 20
23.251858
 30
0.0
  0
SPLINE
  5
21d
100
AcDbEntity
  8
Layer_1
 62
7
100
AcDbSpline
 70
8
 71
3
 72
8
 73
4
 74
0
 40
0
 40
0
 40
0
 40
0
 40
1
 40
1
 40
1
 40
1
 10
23.557697
 20
23.251858
 30
0.0
 10
23.557698
 20
23.272253
 30
0.0
 10
23.546819
 20
23.291100
 30
0.0
 10
23.529157
 20
23.301298
 30
0.0
  0
SPLINE
  5
21e
100
AcDbEntity
  8
Layer_1
 62
7
100
AcDbSpline
 70
8
 71
3
 72
8
 73
4
 74
0
 40
0
 40
0
 40
0
 40
0
 40
1
 40
1
 40
1
 40
1
 10
23.529157
 20
23.301298
 30
0.0
 10
23.511495
 20
23.311497
 30
0.0
 10
23.489734
 20
23.311499
 30
0.0
 10
23.472071
 20
23.301303
 30
0.0
  0
SPLINE
  5
21f
100
AcDbEntity
  8
Layer_1
 62
7
100
AcDbSpline
 70
8
 71
3
 72
8
 73
4
 74
0
 40
0
 40
0
 40
0
 40
0
 40
1
 40
1
 40
1
 40
1
 10
23.472071
 20
23.301303
 30
0.0
 10
23.454407
 20
23.291107
 30
0.0
 10
23.443525
 20
23.272262
 30
0.0
 10
23.443524
 20
23.251867
 30
0.0
  0
LWPOLYLINE
  5
220
100
AcDbEntity
  8
Layer_1
 62
7
100
AcDbPolyline
 90
1
 70
1
 10
28.955328
 20
23.251440
 30
0.0
  0
SPLINE
  5
221
100
AcDbEntity
  8
Layer_1
 62
7
100
AcDbSpline
 70
8
 71
3
 72
8
 73
4
 74
0
 40
0
 40
0
 40
0
 40
0
 40
1
 40
1
 40
1
 40
1
 10
9.663197
 20
12.701764
 30
0.0
 10
9.663196
 20
12.681369
 30
0.0
 10
9.674075
 20
12.662522
 30
0.0
 10
9.691737
 20
12.652323
 30
0.0
  0
SPLINE
  5
222
100
AcDbEntity
  8
Layer_1
 62
7
100
AcDbSpline
 70
8
 71
3
 72
8
 73
4
 74
0
 40
0
 40
0
 40
0
 40
0
 40
1
 40
1
 40
1
 40
1
 10
9.691737
 20
12.652323
 30
0.0
 10
9.709399
 20
12.642124
 30
0.0
 10
9.731160
 20
12.642123
 30
0.0
 10
9.748823
 20
12.652319
 30
0.0
  0
SPLINE
  5
223
100
AcDbEntity
  8
Layer_1
 62
7
100
AcDbSpline
 70
8
 71
3
 72
8
 73
4
 74
0
 40
0
 40
0
 40
0
 40
0
 40
1
 40
1
 40
1
 40
1
 10
9.748823
 20
12.652319
 30
0.0
 10
9.766487
 20
12.662515
 30
0.0
 10
9.777369
 20
12.681360
 30
0.0
 10
9.777371
 20
12.701755
 30
0.0
  0
SPLINE
  5
224
100
AcDbEntity
  8
Layer_1
 62
7
100
AcDbSpline
 70
8
 71
3
 72
8
 73
4
 74
0
 40
0
 40
0
 40
0
 40
0
 40
1
 40
1
 40
1
 40
1
 10
9.777371
 20
12.701755
 30
0.0
 10
9.777372
 20
12.722150
 30
0.0
 10
9.766493
 20
12.740997
 30
0.0
 10
9.748831
 20
12.751196
 30
0.0
  0
SPLINE
  5
225
100
AcDbEntity
  8
Layer_1
 62
7
100
AcDbSpline
 70
8
 71
3
 72
8
 73
4
 74
0
 40
0
 40
0
 40
0
 40
0
 40
1
 40
1
 40
1
 40
1
 10
9.748831
 20
12.751196
 30
0.0
 10
9.731169
 20
12.761394
 30
0.0
 10
9.709408
 20
12.761396
 30
0.0
 10
9.691745
 20
12.751200
 30
0.0
  0
SPLINE
  5
226
100
AcDbEntity
  8
Layer_1
 62
7
100
AcDbSpline
 70
8
 71
3
 72
8
 73
4
 74
0
 40
0
 40
0
 40
0
 40
0
 40
1
 40
1
 40
1
 40
1
 10
9.691745
 20
12.751200
 30
0.0
 10
9.674081
 20
12.741004
 30
0.0
 10
9.663199
 20
12.722159
 30
0.0
 10
9.663197
 20
12.701764
 30
0.0
  0
LWPOLYLINE
  5
227
100
AcDbEntity
  8
Layer_1
 62
7
100
AcDbPolyline
 90
1
 70
1
 10
23.443524
 20
23.251867
 30
0.0
  0
SPLINE
  5
228
100
AcDbEntity
  8
Layer_1
 62
7
100
AcDbSpline
 70
8
 71
3
 72
8
 73
4
 74
0
 40
0
 40
0
 40
0
 40
0
 40
1
 40
1
 40
1
 40
1
 10
20.686806
 20
12.700911
 30
0.0
 10
20.686803
 20
12.669383
 30
0.0
 10
20.712360
 20
12.643823
 30
0.0
 10
20.743888
 20
12.643821
 30
0.0
  0
SPLINE
  5
229
100
AcDbEntity
  8
Layer_1
 62
7
100
AcDbSpline
 70
8
 71
3
 72
8
 73
4
 74
0
 40
0
 40
0
 40
0
 40
0
 40
1
 40
1
 40
1
 40
1
 10
20.743888
 20
12.643821
 30
0.0
 10
20.775416
 20
12.643818
 30
0.0
 10
20.800976
 20
12.669375
 30
0.0
 10
20.800979
 20
12.700903
 30
0.0
  0
SPLINE
  5
22a
100
AcDbEntity
  8
Layer_1
 62
7
100
AcDbSpline
 70
8
 71
3
 72
8
 73
4
 74
0
 40
0
 40
0
 40
0
 40
0
 40
1
 40
1
 40
1
 40
1
 10
20.800979
 20
12.700903
 30
0.0
 10
20.800980
 20
12.721298
 30
0.0
 10
20.790101
 20
12.740144
 30
0.0
 10
20.772439
 20
12.750343
 30
0.0
  0
SPLINE
  5
22b
100
AcDbEntity
  8
Layer_1
 62
7
100
AcDbSpline
 70
8
 71
3
 72
8
 73
4
 74
0
 40
0
 40
0
 40
0
 40
0
 40
1
 40
1
 40
1
 40
1
 10
20.772439
 20
12.750343
 30
0.0
 10
20.754778
 20
12.760542
 30
0.0
 10
20.733016
 20
12.760544
 30
0.0
 10
20.715353
 20
12.750348
 30
0.0
  0
SPLINE
  5
22c
100
AcDbEntity
  8
Layer_1
 62
7
100
AcDbSpline
 70
8
 71
3
 72
8
 73
4
 74
0
 40
0
 40
0
 40
0
 40
0
 40
1
 40
1
 40
1
 40
1
 10
20.715353
 20
12.750348
 30
0.0
 10
20.697689
 20
12.740152
 30
0.0
 10
20.686807
 20
12.721307
 30
0.0
 10
20.686806
 20
12.700911
 30
0.0
  0
LWPOLYLINE
  5
22d
100
AcDbEntity
  8
Layer_1
 62
7
100
AcDbPolyline
 90
1
 70
1
 10
9.663197
 20
12.701764
 30
0.0
  0
SPLINE
  5
22e
100
AcDbEntity
  8
Layer_1
 62
7
100
AcDbSpline
 70
8
 71
3
 72
8
 73
4
 74
0
 40
0
 40
0
 40
0
 40
0
 40
1
 40
1
 40
1
 40
1
 10
12.419915
 20
23.252719
 30
0.0
 10
12.419914
 20
23.232324
 30
0.0
 10
12.430793
 20
23.213477
 30
0.0
 10
12.448455
 20
23.203278
 30
0.0
  0
SPLINE
  5
22f
100
AcDbEntity
  8
Layer_1
 62
7
100
AcDbSpline
 70
8
 71
3
 72
8
 73
4
 74
0
 40
0
 40
0
 40
0
 40
0
 40
1
 40
1
 40
1
 40
1
 10
12.448455
 20
23.203278
 30
0.0
 10
12.466117
 20
23.193079
 30
0.0
 10
12.487878
 20
23.193078
 30
0.0
 10
12.505541
 20
23.203274
 30
0.0
  0
SPLINE
  5
230
100
AcDbEntity
  8
Layer_1
 62
7
100
AcDbSpline
 70
8
 71
3
 72
8
 73
4
 74
0
 40
0
 40
0
 40
0
 40
0
 40
1
 40
1
 40
1
 40
1
 10
12.505541
 20
23.203274
 30
0.0
 10
12.523205
 20
23.213470
 30
0.0
 10
12.534087
 20
23.232315
 30
0.0
 10
12.534088
 20
23.252710
 30
0.0
  0
SPLINE
  5
231
100
AcDbEntity
  8
Layer_1
 62
7
100
AcDbSpline
 70
8
 71
3
 72
8
 73
4
 74
0
 40
0
 40
0
 40
0
 40
0
 40
1
 40
1
 40
1
 40
1
 10
12.534088
 20
23.252710
 30
0.0
 10
12.534090
 20
23.273105
 30
0.0
 10
12.523211
 20
23.291952
 30
0.0
 10
12.505549
 20
23.302151
 30
0.0
  0
SPLINE
  5
232
100
AcDbEntity
  8
Layer_1
 62
7
100
AcDbSpline
 70
8
 71
3
 72
8
 73
4
 74
0
 40
0
 40
0
 40
0
 40
0
 40
1
 40
1
 40
1
 40
1
 10
12.505549
 20
23.302151
 30
0.0
 10
12.487887
 20
23.312350
 30
0.0
 10
12.466126
 20
23.312351
 30
0.0
 10
12.448462
 20
23.302155
 30
0.0
  0
SPLINE
  5
233
100
AcDbEntity
  8
Layer_1
 62
7
100
AcDbSpline
 70
8
 71
3
 72
8
 73
4
 74
0
 40
0
 40
0
 40
0
 40
0
 40
1
 40
1
 40
1
 40
1
 10
12.448462
 20
23.302155
 30
0.0
 10
12.430799
 20
23.291959
 30
0.0
 10
12.419917
 20
23.273114
 30
0.0
 10
12.419915
 20
23.252719
 30
0.0
  0
LWPOLYLINE
  5
234
100
AcDbEntity
  8
Layer_1
 62
7
100
AcDbPolyline
 90
1
 70
1
 10
20.686806
 20
12.700911
 30
0.0
  0
SPLINE
  5
235
100
AcDbEntity
  8
Layer_1
 62
7
100
AcDbSpline
 70
8
 71
3
 72
8
 73
4
 74
0
 40
0
 40
0
 40
0
 40
0
 40
1
 40
1
 40
1
 40
1
 10
17.931719
 20
23.252293
 30
0.0
 10
17.931718
 20
23.231898
 30
0.0
 10
17.942597
 20
23.213051
 30
0.0
 10
17.960259
 20
23.202852
 30
0.0
  0
SPLINE
  5
236
100
AcDbEntity
  8
Layer_1
 62
7
100
AcDbSpline
 70
8
 71
3
 72
8
 73
4
 74
0
 40
0
 40
0
 40
0
 40
0
 40
1
 40
1
 40
1
 40
1
 10
17.960259
 20
23.202852
 30
0.0
 10
17.977921
 20
23.192653
 30
0.0
 10
17.999682
 20
23.192652
 30
0.0
 10
18.017345
 20
23.202848
 30
0.0
  0
SPLINE
  5
237
100
AcDbEntity
  8
Layer_1
 62
7
100
AcDbSpline
 70
8
 71
3
 72
8
 73
4
 74
0
 40
0
 40
0
 40
0
 40
0
 40
1
 40
1
 40
1
 40
1
 10
18.017345
 20
23.202848
 30
0.0
 10
18.035009
 20
23.213044
 30
0.0
 10
18.045891
 20
23.231889
 30
0.0
 10
18.045893
 20
23.252284
 30
0.0
  0
SPLINE
  5
238
100
AcDbEntity
  8
Layer_1
 62
7
100
AcDbSpline
 70
8
 71
3
 72
8
 73
4
 74
0
 40
0
 40
0
 40
0
 40
0
 40
1
 40
1
 40
1
 40
1
 10
18.045893
 20
23.252284
 30
0.0
 10
18.045894
 20
23.272679
 30
0.0
 10
18.035015
 20
23.291526
 30
0.0
 10
18.017353
 20
23.301725
 30
0.0
  0
SPLINE
  5
239
100
AcDbEntity
  8
Layer_1
 62
7
100
AcDbSpline
 70
8
 71
3
 72
8
 73
4
 74
0
 40
0
 40
0
 40
0
 40
0
 40
1
 40
1
 40
1
 40
1
 10
18.017353
 20
23.301725
 30
0.0
 10
17.999691
 20
23.311923
 30
0.0
 10
17.977930
 20
23.311925
 30
0.0
 10
17.960267
 20
23.301729
 30
0.0
  0
SPLINE
  5
23a
100
AcDbEntity
  8
Layer_1
 62
7
100
AcDbSpline
 70
8
 71
3
 72
8
 73
4
 74
0
 40
0
 40
0
 40
0
 40
0
 40
1
 40
1
 40
1
 40
1
 10
17.960267
 20
23.301729
 30
0.0
 10
17.942603
 20
23.291533
 30
0.0
 10
17.931721
 20
23.272688
 30
0.0
 10
17.931719
 20
23.252293
 30
0.0
  0
LWPOLYLINE
  5
23b
100
AcDbEntity
  8
Layer_1
 62
7
100
AcDbPolyline
 90
1
 70
1
 10
12.419915
 20
23.252719
 30
0.0
  0
SPLINE
  5
23c
100
AcDbEntity
  8
Layer_1
 62
7
100
AcDbSpline
 70
8
 71
3
 72
8
 73
4
 74
0
 40
0
 40
0
 40
0
 40
0
 40
1
 40
1
 40
1
 40
1
 10
6.908111
 20
23.253145
 30
0.0
 10
6.908183
 20
23.221669
 30
0.0
 10
6.933718
 20
23.196190
 30
0.0
 10
6.965193
 20
23.196188
 30
0.0
  0
SPLINE
  5
23d
100
AcDbEntity
  8
Layer_1
 62
7
100
AcDbSpline
 70
8
 71
3
 72
8
 73
4
 74
0
 40
0
 40
0
 40
0
 40
0
 40
1
 40
1
 40
1
 40
1
 10
6.965193
 20
23.196188
 30
0.0
 10
6.996669
 20
23.196185
 30
0.0
 10
7.022208
 20
23.221661
 30
0.0
 10
7.022284
 20
23.253136
 30
0.0
  0
SPLINE
  5
23e
100
AcDbEntity
  8
Layer_1
 62
7
100
AcDbSpline
 70
8
 71
3
 72
8
 73
4
 74
0
 40
0
 40
0
 40
0
 40
0
 40
1
 40
1
 40
1
 40
1
 10
7.022284
 20
23.253136
 30
0.0
 10
7.022213
 20
23.284612
 30
0.0
 10
6.996678
 20
23.310091
 30
0.0
 10
6.965202
 20
23.310094
 30
0.0
  0
SPLINE
  5
23f
100
AcDbEntity
  8
Layer_1
 62
7
100
AcDbSpline
 70
8
 71
3
 72
8
 73
4
 74
0
 40
0
 40
0
 40
0
 40
0
 40
1
 40
1
 40
1
 40
1
 10
6.965202
 20
23.310094
 30
0.0
 10
6.933726
 20
23.310096
 30
0.0
 10
6.908188
 20
23.284621
 30
0.0
 10
6.908111
 20
23.253145
 30
0.0
  0
LWPOLYLINE
  5
240
100
AcDbEntity
  8
Layer_1
 62
7
100
AcDbPolyline
 90
1
 70
1
 10
17.931719
 20
23.252293
 30
0.0
  0
SPLINE
  5
241
100
AcDbEntity
  8
Layer_1
 62
7
100
AcDbSpline
 70
8
 71
3
 72
8
 73
4
 74
0
 40
0
 40
0
 40
0
 40
0
 40
1
 40
1
 40
1
 40
1
 10
26.198610
 20
12.700485
 30
0.0
 10
26.198608
 20
12.680090
 30
0.0
 10
26.209488
 20
12.661244
 30
0.0
 10
26.227149
 20
12.651045
 30
0.0
  0
SPLINE
  5
242
100
AcDbEntity
  8
Layer_1
 62
7
100
AcDbSpline
 70
8
 71
3
 72
8
 73
4
 74
0
 40
0
 40
0
 40
0
 40
0
 40
1
 40
1
 40
1
 40
1
 10
26.227149
 20
12.651045
 30
0.0
 10
26.244811
 20
12.640846
 30
0.0
 10
26.266572
 20
12.640844
 30
0.0
 10
26.284236
 20
12.651040
 30
0.0
  0
SPLINE
  5
243
100
AcDbEntity
  8
Layer_1
 62
7
100
AcDbSpline
 70
8
 71
3
 72
8
 73
4
 74
0
 40
0
 40
0
 40
0
 40
0
 40
1
 40
1
 40
1
 40
1
 10
26.284236
 20
12.651040
 30
0.0
 10
26.301899
 20
12.661236
 30
0.0
 10
26.312781
 20
12.680081
 30
0.0
 10
26.312783
 20
12.700476
 30
0.0
  0
SPLINE
  5
244
100
AcDbEntity
  8
Layer_1
 62
7
100
AcDbSpline
 70
8
 71
3
 72
8
 73
4
 74
0
 40
0
 40
0
 40
0
 40
0
 40
1
 40
1
 40
1
 40
1
 10
26.312783
 20
12.700476
 30
0.0
 10
26.312785
 20
12.720872
 30
0.0
 10
26.301905
 20
12.739718
 30
0.0
 10
26.284244
 20
12.749917
 30
0.0
  0
SPLINE
  5
245
100
AcDbEntity
  8
Layer_1
 62
7
100
AcDbSpline
 70
8
 71
3
 72
8
 73
4
 74
0
 40
0
 40
0
 40
0
 40
0
 40
1
 40
1
 40
1
 40
1
 10
26.284244
 20
12.749917
 30
0.0
 10
26.266582
 20
12.760116
 30
0.0
 10
26.244820
 20
12.760118
 30
0.0
 10
26.227157
 20
12.749922
 30
0.0
  0
SPLINE
  5
246
100
AcDbEntity
  8
Layer_1
 62
7
100
AcDbSpline
 70
8
 71
3
 72
8
 73
4
 74
0
 40
0
 40
0
 40
0
 40
0
 40
1
 40
1
 40
1
 40
1
 10
26.227157
 20
12.749922
 30
0.0
 10
26.209494
 20
12.739725
 30
0.0
 10
26.198611
 20
12.720880
 30
0.0
 10
26.198610
 20
12.700485
 30
0.0
  0
LWPOLYLINE
  5
247
100
AcDbEntity
  8
Layer_1
 62
7
100
AcDbPolyline
 90
1
 70
1
 10
6.908111
 20
23.253145
 30
0.0
  0
LWPOLYLINE
  5
248
100
AcDbEntity
  8
Layer_1
 62
7
100
AcDbPolyline
 90
1
 70
1
 10
26.198610
 20
12.700485
 30
0.0
  0
SPLINE
  5
249
100
AcDbEntity
  8
Layer_1
 62
7
100
AcDbSpline
 70
8
 71
3
 72
8
 73
4
 74
0
 40
0
 40
0
 40
0
 40
0
 40
1
 40
1
 40
1
 40
1
 10
9.721072
 20
22.898597
 30
0.0
 10
9.630376
 20
22.898604
 30
0.0
 10
9.539768
 20
22.892913
 30
0.0
 10
9.449786
 20
22.881557
 30
0.0
  0
LWPOLYLINE
  5
24a
100
AcDbEntity
  8
Layer_1
 62
7
100
AcDbPolyline
 90
3
 70
0
 10
3.421894
 20
23.883347
 30
0.0
 10
3.421757
 20
22.120849
 30
0.0
 10
9.449788
 20
22.881528
 30
0.0
  0
SPLINE
  5
24b
100
AcDbEntity
  8
Layer_1
 62
7
100
AcDbSpline
 70
8
 71
3
 72
8
 73
4
 74
0
 40
0
 40
0
 40
0
 40
0
 40
1
 40
1
 40
1
 40
1
 10
26.527769
 20
22.880237
 30
0.0
 10
26.437788
 20
22.891607
 30
0.0
 10
26.347181
 20
22.897312
 30
0.0
 10
26.256485
 20
22.897318
 30
0.0
  0
LWPOLYLINE
  5
24c
100
AcDbEntity
  8
Layer_1
 62
7
100
AcDbPolyline
 90
2
 70
0
 10
9.721070
 20
22.898591
 30
0.0
 10
26.256487
 20
22.897312
 30
0.0
  0
SPLINE
  5
24d
100
AcDbEntity
  8
Layer_1
 62
7
100
AcDbSpline
 70
8
 71
3
 72
8
 73
4
 74
0
 40
0
 40
0
 40
0
 40
0
 40
1
 40
1
 40
1
 40
1
 10
33.795721
 20
20.130934
 30
0.0
 10
33.994549
 20
20.541535
 30
0.0
 10
33.977264
 20
21.023929
 30
0.0
 10
33.749560
 20
21.419248
 30
0.0
  0
SPLINE
  5
24e
100
AcDbEntity
  8
Layer_1
 62
7
100
AcDbSpline
 70
8
 71
3
 72
8
 73
4
 74
0
 40
0
 40
0
 40
0
 40
0
 40
1
 40
1
 40
1
 40
1
 10
33.749560
 20
21.419248
 30
0.0
 10
33.521856
 20
21.814567
 30
0.0
 10
33.113252
 20
22.071560
 30
0.0
 10
32.658315
 20
22.105592
 30
0.0
  0
LWPOLYLINE
  5
24f
100
AcDbEntity
  8
Layer_1
 62
7
100
AcDbPolyline
 90
2
 70
0
 10
26.527767
 20
22.880208
 30
0.0
 10
32.658283
 20
22.105568
 30
0.0
  0
SPLINE
  5
250
100
AcDbEntity
  8
Layer_1
 62
7
100
AcDbSpline
 70
8
 71
3
 72
8
 73
4
 74
0
 40
0
 40
0
 40
0
 40
0
 40
1
 40
1
 40
1
 40
1
 10
29.011626
 20
13.054598
 30
0.0
 10
29.841770
 20
13.054534
 30
0.0
 10
30.598879
 20
13.529078
 30
0.0
 10
30.960677
 20
14.276234
 30
0.0
  0
LWPOLYLINE
  5
251
100
AcDbEntity
  8
Layer_1
 62
7
100
AcDbPolyline
 90
2
 70
0
 10
33.795733
 20
20.130899
 30
0.0
 10
30.960700
 20
14.276230
 30
0.0
  0
SPLINE
  5
252
100
AcDbEntity
  8
Layer_1
 62
7
100
AcDbSpline
 70
8
 71
3
 72
8
 73
4
 74
0
 40
0
 40
0
 40
0
 40
0
 40
1
 40
1
 40
1
 40
1
 10
31.323416
 20
12.070169
 30
0.0
 10
31.452692
 20
12.070159
 30
0.0
 10
31.625854
 20
12.076053
 30
0.0
 10
31.855704
 20
12.116043
 30
0.0
  0
SPLINE
  5
253
100
AcDbEntity
  8
Layer_1
 62
7
100
AcDbSpline
 70
8
 71
3
 72
8
 73
4
 74
0
 40
0
 40
0
 40
0
 40
0
 40
1
 40
1
 40
1
 40
1
 10
31.855704
 20
12.116043
 30
0.0
 10
32.252019
 20
12.184996
 30
0.0
 10
32.625888
 20
12.329662
 30
0.0
 10
32.959232
 20
12.538065
 30
0.0
  0
SPLINE
  5
254
100
AcDbEntity
  8
Layer_1
 62
7
100
AcDbSpline
 70
8
 71
3
 72
8
 73
4
 74
0
 40
0
 40
0
 40
0
 40
0
 40
1
 40
1
 40
1
 40
1
 10
32.959232
 20
12.538065
 30
0.0
 10
33.312883
 20
12.759163
 30
0.0
 10
33.613016
 20
13.046867
 30
0.0
 10
33.847545
 20
13.380489
 30
0.0
  0
SPLINE
  5
255
100
AcDbEntity
  8
Layer_1
 62
7
100
AcDbSpline
 70
8
 71
3
 72
8
 73
4
 74
0
 40
0
 40
0
 40
0
 40
0
 40
1
 40
1
 40
1
 40
1
 10
33.847545
 20
13.380489
 30
0.0
 10
34.091706
 20
13.727814
 30
0.0
 10
34.259011
 20
14.116314
 30
0.0
 10
34.348765
 20
14.521837
 30
0.0
  0
SPLINE
  5
256
100
AcDbEntity
  8
Layer_1
 62
7
100
AcDbSpline
 70
8
 71
3
 72
8
 73
4
 74
0
 40
0
 40
0
 40
0
 40
0
 40
1
 40
1
 40
1
 40
1
 10
34.348765
 20
14.521837
 30
0.0
 10
34.351323
 20
14.533396
 30
0.0
 10
34.353771
 20
14.544709
 30
0.0
 10
34.356616
 20
14.558295
 30
0.0
  0
SPLINE
  5
257
100
AcDbEntity
  8
Layer_1
 62
7
100
AcDbSpline
 70
8
 71
3
 72
8
 73
4
 74
0
 40
0
 40
0
 40
0
 40
0
 40
1
 40
1
 40
1
 40
1
 10
34.356616
 20
14.558295
 30
0.0
 10
34.365857
 20
14.602436
 30
0.0
 10
34.380010
 20
14.670415
 30
0.0
 10
34.417731
 20
14.848317
 30
0.0
  0
SPLINE
  5
258
100
AcDbEntity
  8
Layer_1
 62
7
100
AcDbSpline
 70
8
 71
3
 72
8
 73
4
 74
0
 40
0
 40
0
 40
0
 40
0
 40
1
 40
1
 40
1
 40
1
 10
34.417731
 20
14.848317
 30
0.0
 10
34.512715
 20
15.296298
 30
0.0
 10
34.611613
 20
15.750613
 30
0.0
 10
34.707981
 20
16.187169
 30
0.0
  0
SPLINE
  5
259
100
AcDbEntity
  8
Layer_1
 62
7
100
AcDbSpline
 70
8
 71
3
 72
8
 73
4
 74
0
 40
0
 40
0
 40
0
 40
0
 40
1
 40
1
 40
1
 40
1
 10
34.707981
 20
16.187169
 30
0.0
 10
34.915004
 20
17.125006
 30
0.0
 10
35.136468
 20
18.099105
 30
0.0
 10
35.345446
 20
19.011450
 30
0.0
  0
SPLINE
  5
25a
100
AcDbEntity
  8
Layer_1
 62
7
100
AcDbSpline
 70
8
 71
3
 72
8
 73
4
 74
0
 40
0
 40
0
 40
0
 40
0
 40
1
 40
1
 40
1
 40
1
 10
35.345446
 20
19.011450
 30
0.0
 10
35.453048
 20
19.481206
 30
0.0
 10
35.514323
 20
19.747421
 30
0.0
 10
35.551432
 20
19.908856
 30
0.0
  0
SPLINE
  5
25b
100
AcDbEntity
  8
Layer_1
 62
7
100
AcDbSpline
 70
8
 71
3
 72
8
 73
4
 74
0
 40
0
 40
0
 40
0
 40
0
 40
1
 40
1
 40
1
 40
1
 10
35.551432
 20
19.908856
 30
0.0
 10
35.567832
 20
19.980203
 30
0.0
 10
35.579530
 20
20.031080
 30
0.0
 10
35.588479
 20
20.070004
 30
0.0
  0
SPLINE
  5
25c
100
AcDbEntity
  8
Layer_1
 62
7
100
AcDbSpline
 70
8
 71
3
 72
8
 73
4
 74
0
 40
0
 40
0
 40
0
 40
0
 40
1
 40
1
 40
1
 40
1
 10
35.588479
 20
20.070004
 30
0.0
 10
35.605667
 20
20.144762
 30
0.0
 10
35.611268
 20
20.175755
 30
0.0
 10
35.619723
 20
20.223182
 30
0.0
  0
SPLINE
  5
25d
100
AcDbEntity
  8
Layer_1
 62
7
100
AcDbSpline
 70
8
 71
3
 72
8
 73
4
 74
0
 40
0
 40
0
 40
0
 40
0
 40
1
 40
1
 40
1
 40
1
 10
35.619723
 20
20.223182
 30
0.0
 10
35.645179
 20
20.365980
 30
0.0
 10
35.660446
 20
20.508697
 30
0.0
 10
35.666040
 20
20.650350
 30
0.0
  0
SPLINE
  5
25e
100
AcDbEntity
  8
Layer_1
 62
7
100
AcDbSpline
 70
8
 71
3
 72
8
 73
4
 74
0
 40
0
 40
0
 40
0
 40
0
 40
1
 40
1
 40
1
 40
1
 10
35.666040
 20
20.650350
 30
0.0
 10
35.681915
 20
21.052324
 30
0.0
 10
35.620049
 20
21.448500
 30
0.0
 10
35.488120
 20
21.818791
 30
0.0
  0
SPLINE
  5
25f
100
AcDbEntity
  8
Layer_1
 62
7
100
AcDbSpline
 70
8
 71
3
 72
8
 73
4
 74
0
 40
0
 40
0
 40
0
 40
0
 40
1
 40
1
 40
1
 40
1
 10
35.488120
 20
21.818791
 30
0.0
 10
35.351426
 20
22.202457
 30
0.0
 10
35.142310
 20
22.550733
 30
0.0
 10
34.876655
 20
22.847160
 30
0.0
  0
SPLINE
  5
260
100
AcDbEntity
  8
Layer_1
 62
7
100
AcDbSpline
 70
8
 71
3
 72
8
 73
4
 74
0
 40
0
 40
0
 40
0
 40
0
 40
1
 40
1
 40
1
 40
1
 10
34.876655
 20
22.847160
 30
0.0
 10
34.599717
 20
23.156179
 30
0.0
 10
34.267010
 20
23.402688
 30
0.0
 10
33.900904
 20
23.577251
 30
0.0
  0
SPLINE
  5
261
100
AcDbEntity
  8
Layer_1
 62
7
100
AcDbSpline
 70
8
 71
3
 72
8
 73
4
 74
0
 40
0
 40
0
 40
0
 40
0
 40
1
 40
1
 40
1
 40
1
 10
33.900904
 20
23.577251
 30
0.0
 10
33.523352
 20
23.757272
 30
0.0
 10
33.118032
 20
23.857222
 30
0.0
 10
32.709668
 20
23.877296
 30
0.0
  0
SPLINE
  5
262
100
AcDbEntity
  8
Layer_1
 62
7
100
AcDbSpline
 70
8
 71
3
 72
8
 73
4
 74
0
 40
0
 40
0
 40
0
 40
0
 40
1
 40
1
 40
1
 40
1
 10
32.709668
 20
23.877296
 30
0.0
 10
32.663633
 20
23.879559
 30
0.0
 10
32.635033
 20
23.881076
 30
0.0
 10
32.555766
 20
23.881082
 30
0.0
  0
LWPOLYLINE
  5
263
100
AcDbEntity
  8
Layer_1
 62
7
100
AcDbPolyline
 90
4
 70
0
 10
29.011650
 20
13.054601
 30
0.0
 10
6.964386
 20
13.056305
 30
0.0
 10
6.964309
 20
12.072057
 30
0.0
 10
31.323446
 20
12.070173
 30
0.0
  0
SPLINE
  5
264
100
AcDbEntity
  8
Layer_1
 62
7
100
AcDbSpline
 70
8
 71
3
 72
8
 73
4
 74
0
 40
0
 40
0
 40
0
 40
0
 40
1
 40
1
 40
1
 40
1
 10
28.136583
 20
12.559188
 30
0.0
 10
28.136675
 20
12.449183
 30
0.0
 10
28.225874
 20
12.360053
 30
0.0
 10
28.335879
 20
12.360044
 30
0.0
  0
SPLINE
  5
265
100
AcDbEntity
  8
Layer_1
 62
7
100
AcDbSpline
 70
8
 71
3
 72
8
 73
4
 74
0
 40
0
 40
0
 40
0
 40
0
 40
1
 40
1
 40
1
 40
1
 10
28.335879
 20
12.360044
 30
0.0
 10
28.445884
 20
12.360036
 30
0.0
 10
28.535096
 20
12.449152
 30
0.0
 10
28.535205
 20
12.559158
 30
0.0
  0
SPLINE
  5
266
100
AcDbEntity
  8
Layer_1
 62
7
100
AcDbSpline
 70
8
 71
3
 72
8
 73
4
 74
0
 40
0
 40
0
 40
0
 40
0
 40
1
 40
1
 40
1
 40
1
 10
28.535205
 20
12.559158
 30
0.0
 10
28.535113
 20
12.669163
 30
0.0
 10
28.445915
 20
12.758293
 30
0.0
 10
28.335909
 20
12.758301
 30
0.0
  0
SPLINE
  5
267
100
AcDbEntity
  8
Layer_1
 62
7
100
AcDbSpline
 70
8
 71
3
 72
8
 73
4
 74
0
 40
0
 40
0
 40
0
 40
0
 40
1
 40
1
 40
1
 40
1
 10
28.335909
 20
12.758301
 30
0.0
 10
28.225904
 20
12.758310
 30
0.0
 10
28.136692
 20
12.669193
 30
0.0
 10
28.136583
 20
12.559188
 30
0.0
  0
LWPOLYLINE
  5
268
100
AcDbEntity
  8
Layer_1
 62
7
100
AcDbPolyline
 90
2
 70
0
 10
32.555816
 20
23.881095
 30
0.0
 10
3.421894
 20
23.883347
 30
0.0
  0
SPLINE
  5
269
100
AcDbEntity
  8
Layer_1
 62
7
100
AcDbSpline
 70
8
 71
3
 72
8
 73
4
 74
0
 40
0
 40
0
 40
0
 40
0
 40
1
 40
1
 40
1
 40
1
 10
4.221536
 20
23.128604
 30
0.0
 10
4.221629
 20
23.018599
 30
0.0
 10
4.310827
 20
22.929469
 30
0.0
 10
4.420832
 20
22.929460
 30
0.0
  0
SPLINE
  5
26a
100
AcDbEntity
  8
Layer_1
 62
7
100
AcDbSpline
 70
8
 71
3
 72
8
 73
4
 74
0
 40
0
 40
0
 40
0
 40
0
 40
1
 40
1
 40
1
 40
1
 10
4.420832
 20
22.929460
 30
0.0
 10
4.530837
 20
22.929452
 30
0.0
 10
4.620049
 20
23.018568
 30
0.0
 10
4.620158
 20
23.128573
 30
0.0
  0
SPLINE
  5
26b
100
AcDbEntity
  8
Layer_1
 62
7
100
AcDbSpline
 70
8
 71
3
 72
8
 73
4
 74
0
 40
0
 40
0
 40
0
 40
0
 40
1
 40
1
 40
1
 40
1
 10
4.620158
 20
23.128573
 30
0.0
 10
4.620066
 20
23.238578
 30
0.0
 10
4.530868
 20
23.327709
 30
0.0
 10
4.420863
 20
23.327717
 30
0.0
  0
SPLINE
  5
26c
100
AcDbEntity
  8
Layer_1
 62
7
100
AcDbSpline
 70
8
 71
3
 72
8
 73
4
 74
0
 40
0
 40
0
 40
0
 40
0
 40
1
 40
1
 40
1
 40
1
 10
4.420863
 20
23.327717
 30
0.0
 10
4.310857
 20
23.327726
 30
0.0
 10
4.221646
 20
23.238609
 30
0.0
 10
4.221536
 20
23.128604
 30
0.0
  0
LWPOLYLINE
  5
26d
100
AcDbEntity
  8
Layer_1
 62
7
100
AcDbPolyline
 90
1
 70
1
 10
28.136583
 20
12.559188
 30
0.0
  0
SPLINE
  5
26e
100
AcDbEntity
  8
Layer_1
 62
7
100
AcDbSpline
 70
8
 71
3
 72
8
 73
4
 74
0
 40
0
 40
0
 40
0
 40
0
 40
1
 40
1
 40
1
 40
1
 10
31.357435
 20
23.126506
 30
0.0
 10
31.357527
 20
23.016501
 30
0.0
 10
31.446725
 20
22.927371
 30
0.0
 10
31.556730
 20
22.927362
 30
0.0
  0
SPLINE
  5
26f
100
AcDbEntity
  8
Layer_1
 62
7
100
AcDbSpline
 70
8
 71
3
 72
8
 73
4
 74
0
 40
0
 40
0
 40
0
 40
0
 40
1
 40
1
 40
1
 40
1
 10
31.556730
 20
22.927362
 30
0.0
 10
31.666735
 20
22.927354
 30
0.0
 10
31.755947
 20
23.016470
 30
0.0
 10
31.756056
 20
23.126475
 30
0.0
  0
SPLINE
  5
270
100
AcDbEntity
  8
Layer_1
 62
7
100
AcDbSpline
 70
8
 71
3
 72
8
 73
4
 74
0
 40
0
 40
0
 40
0
 40
0
 40
1
 40
1
 40
1
 40
1
 10
31.756056
 20
23.126475
 30
0.0
 10
31.755964
 20
23.236480
 30
0.0
 10
31.666766
 20
23.325611
 30
0.0
 10
31.556761
 20
23.325619
 30
0.0
  0
SPLINE
  5
271
100
AcDbEntity
  8
Layer_1
 62
7
100
AcDbSpline
 70
8
 71
3
 72
8
 73
4
 74
0
 40
0
 40
0
 40
0
 40
0
 40
1
 40
1
 40
1
 40
1
 10
31.556761
 20
23.325619
 30
0.0
 10
31.446756
 20
23.325628
 30
0.0
 10
31.357544
 20
23.236511
 30
0.0
 10
31.357435
 20
23.126506
 30
0.0
  0
LWPOLYLINE
  5
272
100
AcDbEntity
  8
Layer_1
 62
7
100
AcDbPolyline
 90
1
 70
1
 10
4.221536
 20
23.128604
 30
0.0
  0
SPLINE
  5
273
100
AcDbEntity
  8
Layer_1
 62
7
100
AcDbSpline
 70
8
 71
3
 72
8
 73
4
 74
0
 40
0
 40
0
 40
0
 40
0
 40
1
 40
1
 40
1
 40
1
 10
29.570966
 20
12.617624
 30
0.0
 10
29.570961
 20
12.546416
 30
0.0
 10
29.608944
 20
12.480616
 30
0.0
 10
29.670609
 20
12.445007
 30
0.0
  0
SPLINE
  5
274
100
AcDbEntity
  8
Layer_1
 62
7
100
AcDbSpline
 70
8
 71
3
 72
8
 73
4
 74
0
 40
0
 40
0
 40
0
 40
0
 40
1
 40
1
 40
1
 40
1
 10
29.670609
 20
12.445007
 30
0.0
 10
29.732273
 20
12.409399
 30
0.0
 10
29.808250
 20
12.409393
 30
0.0
 10
29.869920
 20
12.444992
 30
0.0
  0
SPLINE
  5
275
100
AcDbEntity
  8
Layer_1
 62
7
100
AcDbSpline
 70
8
 71
3
 72
8
 73
4
 74
0
 40
0
 40
0
 40
0
 40
0
 40
1
 40
1
 40
1
 40
1
 10
29.869920
 20
12.444992
 30
0.0
 10
29.931590
 20
12.480591
 30
0.0
 10
29.969583
 20
12.546386
 30
0.0
 10
29.969589
 20
12.617593
 30
0.0
  0
SPLINE
  5
276
100
AcDbEntity
  8
Layer_1
 62
7
100
AcDbSpline
 70
8
 71
3
 72
8
 73
4
 74
0
 40
0
 40
0
 40
0
 40
0
 40
1
 40
1
 40
1
 40
1
 10
29.969589
 20
12.617593
 30
0.0
 10
29.969594
 20
12.688800
 30
0.0
 10
29.931611
 20
12.754601
 30
0.0
 10
29.869946
 20
12.790209
 30
0.0
  0
SPLINE
  5
277
100
AcDbEntity
  8
Layer_1
 62
7
100
AcDbSpline
 70
8
 71
3
 72
8
 73
4
 74
0
 40
0
 40
0
 40
0
 40
0
 40
1
 40
1
 40
1
 40
1
 10
29.869946
 20
12.790209
 30
0.0
 10
29.808282
 20
12.825817
 30
0.0
 10
29.732305
 20
12.825823
 30
0.0
 10
29.670635
 20
12.790224
 30
0.0
  0
SPLINE
  5
278
100
AcDbEntity
  8
Layer_1
 62
7
100
AcDbSpline
 70
8
 71
3
 72
8
 73
4
 74
0
 40
0
 40
0
 40
0
 40
0
 40
1
 40
1
 40
1
 40
1
 10
29.670635
 20
12.790224
 30
0.0
 10
29.608965
 20
12.754626
 30
0.0
 10
29.570972
 20
12.688831
 30
0.0
 10
29.570966
 20
12.617624
 30
0.0
  0
LWPOLYLINE
  5
279
100
AcDbEntity
  8
Layer_1
 62
7
100
AcDbPolyline
 90
1
 70
1
 10
31.357435
 20
23.126506
 30
0.0
  0
SPLINE
  5
27a
100
AcDbEntity
  8
Layer_1
 62
7
100
AcDbSpline
 70
8
 71
3
 72
8
 73
4
 74
0
 40
0
 40
0
 40
0
 40
0
 40
1
 40
1
 40
1
 40
1
 10
7.440754
 20
12.560789
 30
0.0
 10
7.440846
 20
12.450783
 30
0.0
 10
7.530044
 20
12.361653
 30
0.0
 10
7.640049
 20
12.361645
 30
0.0
  0
SPLINE
  5
27b
100
AcDbEntity
  8
Layer_1
 62
7
100
AcDbSpline
 70
8
 71
3
 72
8
 73
4
 74
0
 40
0
 40
0
 40
0
 40
0
 40
1
 40
1
 40
1
 40
1
 10
7.640049
 20
12.361645
 30
0.0
 10
7.750054
 20
12.361636
 30
0.0
 10
7.839266
 20
12.450753
 30
0.0
 10
7.839375
 20
12.560758
 30
0.0
  0
SPLINE
  5
27c
100
AcDbEntity
  8
Layer_1
 62
7
100
AcDbSpline
 70
8
 71
3
 72
8
 73
4
 74
0
 40
0
 40
0
 40
0
 40
0
 40
1
 40
1
 40
1
 40
1
 10
7.839375
 20
12.560758
 30
0.0
 10
7.839283
 20
12.670763
 30
0.0
 10
7.750085
 20
12.759893
 30
0.0
 10
7.640080
 20
12.759902
 30
0.0
  0
SPLINE
  5
27d
100
AcDbEntity
  8
Layer_1
 62
7
100
AcDbSpline
 70
8
 71
3
 72
8
 73
4
 74
0
 40
0
 40
0
 40
0
 40
0
 40
1
 40
1
 40
1
 40
1
 10
7.640080
 20
12.759902
 30
0.0
 10
7.530075
 20
12.759910
 30
0.0
 10
7.440863
 20
12.670794
 30
0.0
 10
7.440754
 20
12.560789
 30
0.0
  0
LWPOLYLINE
  5
27e
100
AcDbEntity
  8
Layer_1
 62
7
100
AcDbPolyline
 90
1
 70
1
 10
29.570966
 20
12.617624
 30
0.0
  0
SPLINE
  5
27f
100
AcDbEntity
  8
Layer_1
 62
7
100
AcDbSpline
 70
8
 71
3
 72
8
 73
4
 74
0
 40
0
 40
0
 40
0
 40
0
 40
1
 40
1
 40
1
 40
1
 10
33.260157
 20
22.804355
 30
0.0
 10
33.260151
 20
22.733148
 30
0.0
 10
33.298135
 20
22.667347
 30
0.0
 10
33.359799
 20
22.631739
 30
0.0
  0
SPLINE
  5
280
100
AcDbEntity
  8
Layer_1
 62
7
100
AcDbSpline
 70
8
 71
3
 72
8
 73
4
 74
0
 40
0
 40
0
 40
0
 40
0
 40
1
 40
1
 40
1
 40
1
 10
33.359799
 20
22.631739
 30
0.0
 10
33.421463
 20
22.596131
 30
0.0
 10
33.497440
 20
22.596125
 30
0.0
 10
33.559110
 20
22.631723
 30
0.0
  0
SPLINE
  5
281
100
AcDbEntity
  8
Layer_1
 62
7
100
AcDbSpline
 70
8
 71
3
 72
8
 73
4
 74
0
 40
0
 40
0
 40
0
 40
0
 40
1
 40
1
 40
1
 40
1
 10
33.559110
 20
22.631723
 30
0.0
 10
33.620780
 20
22.667322
 30
0.0
 10
33.658774
 20
22.733117
 30
0.0
 10
33.658779
 20
22.804324
 30
0.0
  0
SPLINE
  5
282
100
AcDbEntity
  8
Layer_1
 62
7
100
AcDbSpline
 70
8
 71
3
 72
8
 73
4
 74
0
 40
0
 40
0
 40
0
 40
0
 40
1
 40
1
 40
1
 40
1
 10
33.658779
 20
22.804324
 30
0.0
 10
33.658785
 20
22.875531
 30
0.0
 10
33.620801
 20
22.941332
 30
0.0
 10
33.559137
 20
22.976941
 30
0.0
  0
SPLINE
  5
283
100
AcDbEntity
  8
Layer_1
 62
7
100
AcDbSpline
 70
8
 71
3
 72
8
 73
4
 74
0
 40
0
 40
0
 40
0
 40
0
 40
1
 40
1
 40
1
 40
1
 10
33.559137
 20
22.976941
 30
0.0
 10
33.497472
 20
23.012549
 30
0.0
 10
33.421495
 20
23.012555
 30
0.0
 10
33.359826
 20
22.976956
 30
0.0
  0
SPLINE
  5
284
100
AcDbEntity
  8
Layer_1
 62
7
100
AcDbSpline
 70
8
 71
3
 72
8
 73
4
 74
0
 40
0
 40
0
 40
0
 40
0
 40
1
 40
1
 40
1
 40
1
 10
33.359826
 20
22.976956
 30
0.0
 10
33.298156
 20
22.941357
 30
0.0
 10
33.260162
 20
22.875562
 30
0.0
 10
33.260157
 20
22.804355
 30
0.0
  0
LWPOLYLINE
  5
285
100
AcDbEntity
  8
Layer_1
 62
7
100
AcDbPolyline
 90
1
 70
1
 10
7.440754
 20
12.560789
 30
0.0
  0
SPLINE
  5
286
100
AcDbEntity
  8
Layer_1
 62
7
100
AcDbSpline
 70
8
 71
3
 72
8
 73
4
 74
0
 40
0
 40
0
 40
0
 40
0
 40
1
 40
1
 40
1
 40
1
 10
18.509835
 20
20.100265
 30
0.0
 10
18.489888
 20
20.104517
 30
0.0
 10
18.469187
 20
20.097805
 30
0.0
 10
18.455531
 20
20.082657
 30
0.0
  0
SPLINE
  5
287
100
AcDbEntity
  8
Layer_1
 62
7
100
AcDbSpline
 70
8
 71
3
 72
8
 73
4
 74
0
 40
0
 40
0
 40
0
 40
0
 40
1
 40
1
 40
1
 40
1
 10
18.455531
 20
20.082657
 30
0.0
 10
18.441875
 20
20.067509
 30
0.0
 10
18.437337
 20
20.046226
 30
0.0
 10
18.443628
 20
20.026825
 30
0.0
  0
SPLINE
  5
288
100
AcDbEntity
  8
Layer_1
 62
7
100
AcDbSpline
 70
8
 71
3
 72
8
 73
4
 74
0
 40
0
 40
0
 40
0
 40
0
 40
1
 40
1
 40
1
 40
1
 10
18.443628
 20
20.026825
 30
0.0
 10
18.449918
 20
20.007424
 30
0.0
 10
18.466081
 20
19.992853
 30
0.0
 10
18.486028
 20
19.988600
 30
0.0
  0
SPLINE
  5
289
100
AcDbEntity
  8
Layer_1
 62
7
100
AcDbSpline
 70
8
 71
3
 72
8
 73
4
 74
0
 40
0
 40
0
 40
0
 40
0
 40
1
 40
1
 40
1
 40
1
 10
18.486028
 20
19.988600
 30
0.0
 10
18.505975
 20
19.984348
 30
0.0
 10
18.526675
 20
19.991060
 30
0.0
 10
18.540332
 20
20.006208
 30
0.0
  0
SPLINE
  5
28a
100
AcDbEntity
  8
Layer_1
 62
7
100
AcDbSpline
 70
8
 71
3
 72
8
 73
4
 74
0
 40
0
 40
0
 40
0
 40
0
 40
1
 40
1
 40
1
 40
1
 10
18.540332
 20
20.006208
 30
0.0
 10
18.553988
 20
20.021356
 30
0.0
 10
18.558526
 20
20.042639
 30
0.0
 10
18.552235
 20
20.062040
 30
0.0
  0
SPLINE
  5
28b
100
AcDbEntity
  8
Layer_1
 62
7
100
AcDbSpline
 70
8
 71
3
 72
8
 73
4
 74
0
 40
0
 40
0
 40
0
 40
0
 40
1
 40
1
 40
1
 40
1
 10
18.552235
 20
20.062040
 30
0.0
 10
18.545944
 20
20.081441
 30
0.0
 10
18.529782
 20
20.096012
 30
0.0
 10
18.509835
 20
20.100265
 30
0.0
  0
LWPOLYLINE
  5
28c
100
AcDbEntity
  8
Layer_1
 62
7
100
AcDbPolyline
 90
1
 70
1
 10
33.260157
 20
22.804355
 30
0.0
  0
SPLINE
  5
28d
100
AcDbEntity
  8
Layer_1
 62
7
100
AcDbSpline
 70
8
 71
3
 72
8
 73
4
 74
0
 40
0
 40
0
 40
0
 40
0
 40
1
 40
1
 40
1
 40
1
 10
26.746910
 20
21.725531
 30
0.0
 10
26.726963
 20
21.729783
 30
0.0
 10
26.706263
 20
21.723072
 30
0.0
 10
26.692606
 20
21.707923
 30
0.0
  0
SPLINE
  5
28e
100
AcDbEntity
  8
Layer_1
 62
7
100
AcDbSpline
 70
8
 71
3
 72
8
 73
4
 74
0
 40
0
 40
0
 40
0
 40
0
 40
1
 40
1
 40
1
 40
1
 10
26.692606
 20
21.707923
 30
0.0
 10
26.678950
 20
21.692775
 30
0.0
 10
26.674412
 20
21.671492
 30
0.0
 10
26.680703
 20
21.652091
 30
0.0
  0
SPLINE
  5
28f
100
AcDbEntity
  8
Layer_1
 62
7
100
AcDbSpline
 70
8
 71
3
 72
8
 73
4
 74
0
 40
0
 40
0
 40
0
 40
0
 40
1
 40
1
 40
1
 40
1
 10
26.680703
 20
21.652091
 30
0.0
 10
26.686993
 20
21.632690
 30
0.0
 10
26.703156
 20
21.618119
 30
0.0
 10
26.723103
 20
21.613867
 30
0.0
  0
SPLINE
  5
290
100
AcDbEntity
  8
Layer_1
 62
7
100
AcDbSpline
 70
8
 71
3
 72
8
 73
4
 74
0
 40
0
 40
0
 40
0
 40
0
 40
1
 40
1
 40
1
 40
1
 10
26.723103
 20
21.613867
 30
0.0
 10
26.743050
 20
21.609614
 30
0.0
 10
26.763751
 20
21.616326
 30
0.0
 10
26.777407
 20
21.631474
 30
0.0
  0
SPLINE
  5
291
100
AcDbEntity
  8
Layer_1
 62
7
100
AcDbSpline
 70
8
 71
3
 72
8
 73
4
 74
0
 40
0
 40
0
 40
0
 40
0
 40
1
 40
1
 40
1
 40
1
 10
26.777407
 20
21.631474
 30
0.0
 10
26.791063
 20
21.646622
 30
0.0
 10
26.795601
 20
21.667905
 30
0.0
 10
26.789310
 20
21.687306
 30
0.0
  0
SPLINE
  5
292
100
AcDbEntity
  8
Layer_1
 62
7
100
AcDbSpline
 70
8
 71
3
 72
8
 73
4
 74
0
 40
0
 40
0
 40
0
 40
0
 40
1
 40
1
 40
1
 40
1
 10
26.789310
 20
21.687306
 30
0.0
 10
26.783020
 20
21.706707
 30
0.0
 10
26.766857
 20
21.721278
 30
0.0
 10
26.746910
 20
21.725531
 30
0.0
  0
LWPOLYLINE
  5
293
100
AcDbEntity
  8
Layer_1
 62
7
100
AcDbPolyline
 90
1
 70
1
 10
18.509835
 20
20.100265
 30
0.0
  0
LWPOLYLINE
  5
294
100
AcDbEntity
  8
Layer_1
 62
7
100
AcDbPolyline
 90
1
 70
1
 10
26.746910
 20
21.725531
 30
0.0
  0
SPLINE
  5
295
100
AcDbEntity
  8
Layer_1
 62
7
100
AcDbSpline
 70
8
 71
3
 72
8
 73
4
 74
0
 40
0
 40
0
 40
0
 40
0
 40
1
 40
1
 40
1
 40
1
 10
29.289991
 20
18.548669
 30
0.0
 10
29.323153
 20
18.704212
 30
0.0
 10
29.355551
 20
18.899033
 30
0.0
 10
29.358680
 20
19.164965
 30
0.0
  0
SPLINE
  5
296
100
AcDbEntity
  8
Layer_1
 62
7
100
AcDbSpline
 70
8
 71
3
 72
8
 73
4
 74
0
 40
0
 40
0
 40
0
 40
0
 40
1
 40
1
 40
1
 40
1
 10
29.358680
 20
19.164965
 30
0.0
 10
29.363498
 20
19.574460
 30
0.0
 10
29.287890
 20
19.968895
 30
0.0
 10
29.147335
 20
20.330015
 30
0.0
  0
SPLINE
  5
297
100
AcDbEntity
  8
Layer_1
 62
7
100
AcDbSpline
 70
8
 71
3
 72
8
 73
4
 74
0
 40
0
 40
0
 40
0
 40
0
 40
1
 40
1
 40
1
 40
1
 10
29.147335
 20
20.330015
 30
0.0
 10
28.997259
 20
20.715603
 30
0.0
 10
28.776196
 20
21.055994
 30
0.0
 10
28.506422
 20
21.339792
 30
0.0
  0
SPLINE
  5
298
100
AcDbEntity
  8
Layer_1
 62
7
100
AcDbSpline
 70
8
 71
3
 72
8
 73
4
 74
0
 40
0
 40
0
 40
0
 40
0
 40
1
 40
1
 40
1
 40
1
 10
28.506422
 20
21.339792
 30
0.0
 10
28.230720
 20
21.629823
 30
0.0
 10
27.909484
 20
21.855484
 30
0.0
 10
27.565296
 20
22.015296
 30
0.0
  0
SPLINE
  5
299
100
AcDbEntity
  8
Layer_1
 62
7
100
AcDbSpline
 70
8
 71
3
 72
8
 73
4
 74
0
 40
0
 40
0
 40
0
 40
0
 40
1
 40
1
 40
1
 40
1
 10
27.565296
 20
22.015296
 30
0.0
 10
27.547033
 20
22.023777
 30
0.0
 10
27.528704
 20
22.032072
 30
0.0
 10
27.510314
 20
22.040181
 30
0.0
  0
SPLINE
  5
29a
100
AcDbEntity
  8
Layer_1
 62
7
100
AcDbSpline
 70
8
 71
3
 72
8
 73
4
 74
0
 40
0
 40
0
 40
0
 40
0
 40
1
 40
1
 40
1
 40
1
 10
27.510314
 20
22.040181
 30
0.0
 10
27.216170
 20
22.169879
 30
0.0
 10
26.903849
 20
22.253146
 30
0.0
 10
26.584182
 20
22.287662
 30
0.0
  0
SPLINE
  5
29b
100
AcDbEntity
  8
Layer_1
 62
7
100
AcDbSpline
 70
8
 71
3
 72
8
 73
4
 74
0
 40
0
 40
0
 40
0
 40
0
 40
1
 40
1
 40
1
 40
1
 10
26.584182
 20
22.287662
 30
0.0
 10
26.489862
 20
22.297847
 30
0.0
 10
26.431353
 20
22.301704
 30
0.0
 10
26.341089
 20
22.304439
 30
0.0
  0
LWPOLYLINE
  5
29c
100
AcDbEntity
  8
Layer_1
 62
7
100
AcDbPolyline
 90
2
 70
0
 10
27.566257
 20
18.916219
 30
0.0
 10
29.290014
 20
18.548715
 30
0.0
  0
SPLINE
  5
29d
100
AcDbEntity
  8
Layer_1
 62
7
100
AcDbSpline
 70
8
 71
3
 72
8
 73
4
 74
0
 40
0
 40
0
 40
0
 40
0
 40
1
 40
1
 40
1
 40
1
 10
26.324920
 20
22.304929
 30
0.0
 10
26.282959
 20
22.306201
 30
0.0
 10
26.233927
 20
22.307688
 30
0.0
 10
26.171840
 20
22.309573
 30
0.0
  0
SPLINE
  5
29e
100
AcDbEntity
  8
Layer_1
 62
7
100
AcDbSpline
 70
8
 71
3
 72
8
 73
4
 74
0
 40
0
 40
0
 40
0
 40
0
 40
1
 40
1
 40
1
 40
1
 10
26.171840
 20
22.309573
 30
0.0
 10
25.681495
 20
22.324463
 30
0.0
 10
25.228941
 20
22.338376
 30
0.0
 10
24.776687
 20
22.352864
 30
0.0
  0
SPLINE
  5
29f
100
AcDbEntity
  8
Layer_1
 62
7
100
AcDbSpline
 70
8
 71
3
 72
8
 73
4
 74
0
 40
0
 40
0
 40
0
 40
0
 40
1
 40
1
 40
1
 40
1
 10
24.776687
 20
22.352864
 30
0.0
 10
23.819723
 20
22.383521
 30
0.0
 10
22.837069
 20
22.417768
 30
0.0
 10
21.931949
 20
22.456098
 30
0.0
  0
SPLINE
  5
2a0
100
AcDbEntity
  8
Layer_1
 62
7
100
AcDbSpline
 70
8
 71
3
 72
8
 73
4
 74
0
 40
0
 40
0
 40
0
 40
0
 40
1
 40
1
 40
1
 40
1
 10
21.931949
 20
22.456098
 30
0.0
 10
21.009238
 20
22.495172
 30
0.0
 10
20.766833
 20
22.512499
 30
0.0
 10
20.639995
 20
22.514711
 30
0.0
  0
SPLINE
  5
2a1
100
AcDbEntity
  8
Layer_1
 62
7
100
AcDbSpline
 70
8
 71
3
 72
8
 73
4
 74
0
 40
0
 40
0
 40
0
 40
0
 40
1
 40
1
 40
1
 40
1
 10
20.639995
 20
22.514711
 30
0.0
 10
20.433265
 20
22.518314
 30
0.0
 10
20.233083
 20
22.502084
 30
0.0
 10
20.041092
 20
22.469045
 30
0.0
  0
SPLINE
  5
2a2
100
AcDbEntity
  8
Layer_1
 62
7
100
AcDbSpline
 70
8
 71
3
 72
8
 73
4
 74
0
 40
0
 40
0
 40
0
 40
0
 40
1
 40
1
 40
1
 40
1
 10
20.041092
 20
22.469045
 30
0.0
 10
19.642315
 20
22.400419
 30
0.0
 10
19.273629
 20
22.258485
 30
0.0
 10
18.948147
 20
22.060320
 30
0.0
  0
SPLINE
  5
2a3
100
AcDbEntity
  8
Layer_1
 62
7
100
AcDbSpline
 70
8
 71
3
 72
8
 73
4
 74
0
 40
0
 40
0
 40
0
 40
0
 40
1
 40
1
 40
1
 40
1
 10
18.948147
 20
22.060320
 30
0.0
 10
18.595564
 20
21.845653
 30
0.0
 10
18.300946
 20
21.569672
 30
0.0
 10
18.070439
 20
21.256401
 30
0.0
  0
SPLINE
  5
2a4
100
AcDbEntity
  8
Layer_1
 62
7
100
AcDbSpline
 70
8
 71
3
 72
8
 73
4
 74
0
 40
0
 40
0
 40
0
 40
0
 40
1
 40
1
 40
1
 40
1
 10
18.070439
 20
21.256401
 30
0.0
 10
17.820701
 20
20.916994
 30
0.0
 10
17.651173
 20
20.541066
 30
0.0
 10
17.557330
 20
20.155128
 30
0.0
  0
SPLINE
  5
2a5
100
AcDbEntity
  8
Layer_1
 62
7
100
AcDbSpline
 70
8
 71
3
 72
8
 73
4
 74
0
 40
0
 40
0
 40
0
 40
0
 40
1
 40
1
 40
1
 40
1
 10
17.557330
 20
20.155128
 30
0.0
 10
17.552120
 20
20.133703
 30
0.0
 10
17.547176
 20
20.113553
 30
0.0
 10
17.537603
 20
20.068654
 30
0.0
  0
LWPOLYLINE
  5
2a6
100
AcDbEntity
  8
Layer_1
 62
7
100
AcDbPolyline
 90
2
 70
0
 10
26.341141
 20
22.304475
 30
0.0
 10
26.324945
 20
22.304946
 30
0.0
  0
SPLINE
  5
2a7
100
AcDbEntity
  8
Layer_1
 62
7
100
AcDbSpline
 70
8
 71
3
 72
8
 73
4
 74
0
 40
0
 40
0
 40
0
 40
0
 40
1
 40
1
 40
1
 40
1
 10
19.563705
 20
18.992130
 30
0.0
 10
18.757517
 20
18.794138
 30
0.0
 10
18.135487
 20
18.152668
 30
0.0
 10
17.962391
 20
17.340771
 30
0.0
  0
LWPOLYLINE
  5
2a8
100
AcDbEntity
  8
Layer_1
 62
7
100
AcDbPolyline
 90
3
 70
0
 10
17.537618
 20
20.068697
 30
0.0
 10
16.999785
 20
17.546023
 30
0.0
 10
17.962399
 20
17.340794
 30
0.0
  0
SPLINE
  5
2a9
100
AcDbEntity
  8
Layer_1
 62
7
100
AcDbSpline
 70
8
 71
3
 72
8
 73
4
 74
0
 40
0
 40
0
 40
0
 40
0
 40
1
 40
1
 40
1
 40
1
 10
27.574948
 20
19.019310
 30
0.0
 10
27.636558
 20
19.471339
 30
0.0
 10
27.470448
 20
19.924560
 30
0.0
 10
27.131322
 20
20.229714
 30
0.0
  0
SPLINE
  5
2aa
100
AcDbEntity
  8
Layer_1
 62
7
100
AcDbSpline
 70
8
 71
3
 72
8
 73
4
 74
0
 40
0
 40
0
 40
0
 40
0
 40
1
 40
1
 40
1
 40
1
 10
27.131322
 20
20.229714
 30
0.0
 10
26.792195
 20
20.534868
 30
0.0
 10
26.324018
 20
20.652394
 30
0.0
 10
25.880976
 20
20.543587
 30
0.0
  0
LWPOLYLINE
  5
2ab
100
AcDbEntity
  8
Layer_1
 62
7
100
AcDbPolyline
 90
2
 70
0
 10
19.563705
 20
18.992153
 30
0.0
 10
25.880944
 20
20.543606
 30
0.0
  0
SPLINE
  5
2ac
100
AcDbEntity
  8
Layer_1
 62
7
100
AcDbSpline
 70
8
 71
3
 72
8
 73
4
 74
0
 40
0
 40
0
 40
0
 40
0
 40
1
 40
1
 40
1
 40
1
 10
28.466995
 20
19.852019
 30
0.0
 10
28.397353
 20
19.866866
 30
0.0
 10
28.325080
 20
19.843432
 30
0.0
 10
28.277401
 20
19.790545
 30
0.0
  0
SPLINE
  5
2ad
100
AcDbEntity
  8
Layer_1
 62
7
100
AcDbSpline
 70
8
 71
3
 72
8
 73
4
 74
0
 40
0
 40
0
 40
0
 40
0
 40
1
 40
1
 40
1
 40
1
 10
28.277401
 20
19.790545
 30
0.0
 10
28.229722
 20
19.737657
 30
0.0
 10
28.213879
 20
19.663350
 30
0.0
 10
28.235842
 20
19.595615
 30
0.0
  0
SPLINE
  5
2ae
100
AcDbEntity
  8
Layer_1
 62
7
100
AcDbSpline
 70
8
 71
3
 72
8
 73
4
 74
0
 40
0
 40
0
 40
0
 40
0
 40
1
 40
1
 40
1
 40
1
 10
28.235842
 20
19.595615
 30
0.0
 10
28.257804
 20
19.527879
 30
0.0
 10
28.314235
 20
19.477006
 30
0.0
 10
28.383877
 20
19.462158
 30
0.0
  0
SPLINE
  5
2af
100
AcDbEntity
  8
Layer_1
 62
7
100
AcDbSpline
 70
8
 71
3
 72
8
 73
4
 74
0
 40
0
 40
0
 40
0
 40
0
 40
1
 40
1
 40
1
 40
1
 10
28.383877
 20
19.462158
 30
0.0
 10
28.453519
 20
19.447311
 30
0.0
 10
28.525792
 20
19.470744
 30
0.0
 10
28.573471
 20
19.523632
 30
0.0
  0
SPLINE
  5
2b0
100
AcDbEntity
  8
Layer_1
 62
7
100
AcDbSpline
 70
8
 71
3
 72
8
 73
4
 74
0
 40
0
 40
0
 40
0
 40
0
 40
1
 40
1
 40
1
 40
1
 10
28.573471
 20
19.523632
 30
0.0
 10
28.621150
 20
19.576520
 30
0.0
 10
28.636992
 20
19.650827
 30
0.0
 10
28.615030
 20
19.718562
 30
0.0
  0
SPLINE
  5
2b1
100
AcDbEntity
  8
Layer_1
 62
7
100
AcDbSpline
 70
8
 71
3
 72
8
 73
4
 74
0
 40
0
 40
0
 40
0
 40
0
 40
1
 40
1
 40
1
 40
1
 10
28.615030
 20
19.718562
 30
0.0
 10
28.593067
 20
19.786298
 30
0.0
 10
28.536637
 20
19.837171
 30
0.0
 10
28.466995
 20
19.852019
 30
0.0
  0
LWPOLYLINE
  5
2b2
100
AcDbEntity
  8
Layer_1
 62
7
100
AcDbPolyline
 90
2
 70
0
 10
27.574917
 20
19.019283
 30
0.0
 10
27.566257
 20
18.916219
 30
0.0
  0
SPLINE
  5
2b3
100
AcDbEntity
  8
Layer_1
 62
7
100
AcDbSpline
 70
8
 71
3
 72
8
 73
4
 74
0
 40
0
 40
0
 40
0
 40
0
 40
1
 40
1
 40
1
 40
1
 10
17.734819
 20
18.368816
 30
0.0
 10
17.665177
 20
18.383664
 30
0.0
 10
17.592904
 20
18.360230
 30
0.0
 10
17.545225
 20
18.307342
 30
0.0
  0
SPLINE
  5
2b4
100
AcDbEntity
  8
Layer_1
 62
7
100
AcDbSpline
 70
8
 71
3
 72
8
 73
4
 74
0
 40
0
 40
0
 40
0
 40
0
 40
1
 40
1
 40
1
 40
1
 10
17.545225
 20
18.307342
 30
0.0
 10
17.497546
 20
18.254454
 30
0.0
 10
17.481704
 20
18.180147
 30
0.0
 10
17.503666
 20
18.112412
 30
0.0
  0
SPLINE
  5
2b5
100
AcDbEntity
  8
Layer_1
 62
7
100
AcDbSpline
 70
8
 71
3
 72
8
 73
4
 74
0
 40
0
 40
0
 40
0
 40
0
 40
1
 40
1
 40
1
 40
1
 10
17.503666
 20
18.112412
 30
0.0
 10
17.525629
 20
18.044677
 30
0.0
 10
17.582059
 20
17.993803
 30
0.0
 10
17.651701
 20
17.978956
 30
0.0
  0
SPLINE
  5
2b6
100
AcDbEntity
  8
Layer_1
 62
7
100
AcDbSpline
 70
8
 71
3
 72
8
 73
4
 74
0
 40
0
 40
0
 40
0
 40
0
 40
1
 40
1
 40
1
 40
1
 10
17.651701
 20
17.978956
 30
0.0
 10
17.721343
 20
17.964108
 30
0.0
 10
17.793616
 20
17.987542
 30
0.0
 10
17.841295
 20
18.040430
 30
0.0
  0
SPLINE
  5
2b7
100
AcDbEntity
  8
Layer_1
 62
7
100
AcDbSpline
 70
8
 71
3
 72
8
 73
4
 74
0
 40
0
 40
0
 40
0
 40
0
 40
1
 40
1
 40
1
 40
1
 10
17.841295
 20
18.040430
 30
0.0
 10
17.888974
 20
18.093318
 30
0.0
 10
17.904817
 20
18.167625
 30
0.0
 10
17.882854
 20
18.235360
 30
0.0
  0
SPLINE
  5
2b8
100
AcDbEntity
  8
Layer_1
 62
7
100
AcDbSpline
 70
8
 71
3
 72
8
 73
4
 74
0
 40
0
 40
0
 40
0
 40
0
 40
1
 40
1
 40
1
 40
1
 10
17.882854
 20
18.235360
 30
0.0
 10
17.860891
 20
18.303095
 30
0.0
 10
17.804461
 20
18.353969
 30
0.0
 10
17.734819
 20
18.368816
 30
0.0
  0
LWPOLYLINE
  5
2b9
100
AcDbEntity
  8
Layer_1
 62
7
100
AcDbPolyline
 90
1
 70
1
 10
28.466995
 20
19.852019
 30
0.0
  0
SPLINE
  5
2ba
100
AcDbEntity
  8
Layer_1
 62
7
100
AcDbSpline
 70
8
 71
3
 72
8
 73
4
 74
0
 40
0
 40
0
 40
0
 40
0
 40
1
 40
1
 40
1
 40
1
 10
14.260137
 20
20.304503
 30
0.0
 10
14.278055
 20
20.314247
 30
0.0
 10
14.289413
 20
20.332809
 30
0.0
 10
14.289933
 20
20.353198
 30
0.0
  0
SPLINE
  5
2bb
100
AcDbEntity
  8
Layer_1
 62
7
100
AcDbSpline
 70
8
 71
3
 72
8
 73
4
 74
0
 40
0
 40
0
 40
0
 40
0
 40
1
 40
1
 40
1
 40
1
 10
14.289933
 20
20.353198
 30
0.0
 10
14.290454
 20
20.373586
 30
0.0
 10
14.280057
 20
20.392704
 30
0.0
 10
14.262661
 20
20.403349
 30
0.0
  0
SPLINE
  5
2bc
100
AcDbEntity
  8
Layer_1
 62
7
100
AcDbSpline
 70
8
 71
3
 72
8
 73
4
 74
0
 40
0
 40
0
 40
0
 40
0
 40
1
 40
1
 40
1
 40
1
 10
14.262661
 20
20.403349
 30
0.0
 10
14.245264
 20
20.413994
 30
0.0
 10
14.223510
 20
20.414549
 30
0.0
 10
14.205592
 20
20.404805
 30
0.0
  0
SPLINE
  5
2bd
100
AcDbEntity
  8
Layer_1
 62
7
100
AcDbSpline
 70
8
 71
3
 72
8
 73
4
 74
0
 40
0
 40
0
 40
0
 40
0
 40
1
 40
1
 40
1
 40
1
 10
14.205592
 20
20.404805
 30
0.0
 10
14.187675
 20
20.395062
 30
0.0
 10
14.176317
 20
20.376500
 30
0.0
 10
14.175797
 20
20.356111
 30
0.0
  0
SPLINE
  5
2be
100
AcDbEntity
  8
Layer_1
 62
7
100
AcDbSpline
 70
8
 71
3
 72
8
 73
4
 74
0
 40
0
 40
0
 40
0
 40
0
 40
1
 40
1
 40
1
 40
1
 10
14.175797
 20
20.356111
 30
0.0
 10
14.175276
 20
20.335723
 30
0.0
 10
14.185672
 20
20.316605
 30
0.0
 10
14.203069
 20
20.305960
 30
0.0
  0
SPLINE
  5
2bf
100
AcDbEntity
  8
Layer_1
 62
7
100
AcDbSpline
 70
8
 71
3
 72
8
 73
4
 74
0
 40
0
 40
0
 40
0
 40
0
 40
1
 40
1
 40
1
 40
1
 10
14.203069
 20
20.305960
 30
0.0
 10
14.220466
 20
20.295315
 30
0.0
 10
14.242220
 20
20.294760
 30
0.0
 10
14.260137
 20
20.304503
 30
0.0
  0
LWPOLYLINE
  5
2c0
100
AcDbEntity
  8
Layer_1
 62
7
100
AcDbPolyline
 90
1
 70
1
 10
17.734819
 20
18.368816
 30
0.0
  0
LWPOLYLINE
  5
2c1
100
AcDbEntity
  8
Layer_1
 62
7
100
AcDbPolyline
 90
1
 70
1
 10
14.260137
 20
20.304503
 30
0.0
  0
SPLINE
  5
2c2
100
AcDbEntity
  8
Layer_1
 62
7
100
AcDbSpline
 70
8
 71
3
 72
8
 73
4
 74
0
 40
0
 40
0
 40
0
 40
0
 40
1
 40
1
 40
1
 40
1
 10
15.082860
 20
20.768160
 30
0.0
 10
15.056389
 20
20.816837
 30
0.0
 10
15.043568
 20
20.838552
 30
0.0
 10
15.027881
 20
20.865091
 30
0.0
  0
SPLINE
  5
2c3
100
AcDbEntity
  8
Layer_1
 62
7
100
AcDbSpline
 70
8
 71
3
 72
8
 73
4
 74
0
 40
0
 40
0
 40
0
 40
0
 40
1
 40
1
 40
1
 40
1
 10
15.027881
 20
20.865091
 30
0.0
 10
14.923726
 20
21.041303
 30
0.0
 10
14.806101
 20
21.200774
 30
0.0
 10
14.679126
 20
21.344059
 30
0.0
  0
SPLINE
  5
2c4
100
AcDbEntity
  8
Layer_1
 62
7
100
AcDbSpline
 70
8
 71
3
 72
8
 73
4
 74
0
 40
0
 40
0
 40
0
 40
0
 40
1
 40
1
 40
1
 40
1
 10
14.679126
 20
21.344059
 30
0.0
 10
14.406008
 20
21.652259
 30
0.0
 10
14.084222
 20
21.891902
 30
0.0
 10
13.738969
 20
22.062598
 30
0.0
  0
SPLINE
  5
2c5
100
AcDbEntity
  8
Layer_1
 62
7
100
AcDbSpline
 70
8
 71
3
 72
8
 73
4
 74
0
 40
0
 40
0
 40
0
 40
0
 40
1
 40
1
 40
1
 40
1
 10
13.738969
 20
22.062598
 30
0.0
 10
13.359669
 20
22.250127
 30
0.0
 10
12.959864
 20
22.350976
 30
0.0
 10
12.564742
 20
22.375993
 30
0.0
  0
SPLINE
  5
2c6
100
AcDbEntity
  8
Layer_1
 62
7
100
AcDbSpline
 70
8
 71
3
 72
8
 73
4
 74
0
 40
0
 40
0
 40
0
 40
0
 40
1
 40
1
 40
1
 40
1
 10
12.564742
 20
22.375993
 30
0.0
 10
12.133684
 20
22.403285
 30
0.0
 10
11.717971
 20
22.340190
 30
0.0
 10
11.335499
 20
22.208679
 30
0.0
  0
SPLINE
  5
2c7
100
AcDbEntity
  8
Layer_1
 62
7
100
AcDbSpline
 70
8
 71
3
 72
8
 73
4
 74
0
 40
0
 40
0
 40
0
 40
0
 40
1
 40
1
 40
1
 40
1
 10
11.335499
 20
22.208679
 30
0.0
 10
11.305919
 20
22.198507
 30
0.0
 10
11.281626
 20
22.189940
 30
0.0
 10
11.240429
 20
22.174325
 30
0.0
  0
SPLINE
  5
2c8
100
AcDbEntity
  8
Layer_1
 62
7
100
AcDbSpline
 70
8
 71
3
 72
8
 73
4
 74
0
 40
0
 40
0
 40
0
 40
0
 40
1
 40
1
 40
1
 40
1
 10
11.240429
 20
22.174325
 30
0.0
 10
11.198463
 20
22.158418
 30
0.0
 10
11.138736
 20
22.135783
 30
0.0
 10
11.037637
 20
22.097677
 30
0.0
  0
SPLINE
  5
2c9
100
AcDbEntity
  8
Layer_1
 62
7
100
AcDbSpline
 70
8
 71
3
 72
8
 73
4
 74
0
 40
0
 40
0
 40
0
 40
0
 40
1
 40
1
 40
1
 40
1
 10
11.037637
 20
22.097677
 30
0.0
 10
10.599149
 20
21.932401
 30
0.0
 10
10.165817
 20
21.771892
 30
0.0
 10
9.754681
 20
21.620999
 30
0.0
  0
SPLINE
  5
2ca
100
AcDbEntity
  8
Layer_1
 62
7
100
AcDbSpline
 70
8
 71
3
 72
8
 73
4
 74
0
 40
0
 40
0
 40
0
 40
0
 40
1
 40
1
 40
1
 40
1
 10
9.754681
 20
21.620999
 30
0.0
 10
8.846469
 20
21.287673
 30
0.0
 10
7.933337
 20
20.959703
 30
0.0
 10
7.080855
 20
20.655192
 30
0.0
  0
SPLINE
  5
2cb
100
AcDbEntity
  8
Layer_1
 62
7
100
AcDbSpline
 70
8
 71
3
 72
8
 73
4
 74
0
 40
0
 40
0
 40
0
 40
0
 40
1
 40
1
 40
1
 40
1
 10
7.080855
 20
20.655192
 30
0.0
 10
6.356581
 20
20.396479
 30
0.0
 10
6.114876
 20
20.310775
 30
0.0
 10
6.001676
 20
20.270468
 30
0.0
  0
SPLINE
  5
2cc
100
AcDbEntity
  8
Layer_1
 62
7
100
AcDbSpline
 70
8
 71
3
 72
8
 73
4
 74
0
 40
0
 40
0
 40
0
 40
0
 40
1
 40
1
 40
1
 40
1
 10
6.001676
 20
20.270468
 30
0.0
 10
5.953416
 20
20.253286
 30
0.0
 10
5.928763
 20
20.243654
 30
0.0
 10
5.900059
 20
20.232309
 30
0.0
  0
SPLINE
  5
2cd
100
AcDbEntity
  8
Layer_1
 62
7
100
AcDbSpline
 70
8
 71
3
 72
8
 73
4
 74
0
 40
0
 40
0
 40
0
 40
0
 40
1
 40
1
 40
1
 40
1
 10
5.900059
 20
20.232309
 30
0.0
 10
5.517133
 20
20.080952
 30
0.0
 10
5.181208
 20
19.861928
 30
0.0
 10
4.901290
 20
19.597590
 30
0.0
  0
SPLINE
  5
2ce
100
AcDbEntity
  8
Layer_1
 62
7
100
AcDbSpline
 70
8
 71
3
 72
8
 73
4
 74
0
 40
0
 40
0
 40
0
 40
0
 40
1
 40
1
 40
1
 40
1
 10
4.901290
 20
19.597590
 30
0.0
 10
4.600219
 20
19.313277
 30
0.0
 10
4.369525
 20
18.982174
 30
0.0
 10
4.208926
 20
18.629775
 30
0.0
  0
SPLINE
  5
2cf
100
AcDbEntity
  8
Layer_1
 62
7
100
AcDbSpline
 70
8
 71
3
 72
8
 73
4
 74
0
 40
0
 40
0
 40
0
 40
0
 40
1
 40
1
 40
1
 40
1
 10
4.208926
 20
18.629775
 30
0.0
 10
4.034784
 20
18.247658
 30
0.0
 10
3.946117
 20
17.847920
 30
0.0
 10
3.932238
 20
17.455378
 30
0.0
  0
SPLINE
  5
2d0
100
AcDbEntity
  8
Layer_1
 62
7
100
AcDbSpline
 70
8
 71
3
 72
8
 73
4
 74
0
 40
0
 40
0
 40
0
 40
0
 40
1
 40
1
 40
1
 40
1
 10
3.932238
 20
17.455378
 30
0.0
 10
3.917077
 20
17.026562
 30
0.0
 10
3.991120
 20
16.614572
 30
0.0
 10
4.133663
 20
16.239343
 30
0.0
  0
SPLINE
  5
2d1
100
AcDbEntity
  8
Layer_1
 62
7
100
AcDbSpline
 70
8
 71
3
 72
8
 73
4
 74
0
 40
0
 40
0
 40
0
 40
0
 40
1
 40
1
 40
1
 40
1
 10
4.133663
 20
16.239343
 30
0.0
 10
4.193403
 20
16.082087
 30
0.0
 10
4.242297
 20
15.979877
 30
0.0
 10
4.310242
 20
15.854933
 30
0.0
  0
LWPOLYLINE
  5
2d2
100
AcDbEntity
  8
Layer_1
 62
7
100
AcDbPolyline
 90
3
 70
0
 10
15.514327
 20
17.914508
 30
0.0
 10
16.378992
 20
18.384721
 30
0.0
 10
15.082880
 20
20.768113
 30
0.0
  0
SPLINE
  5
2d3
100
AcDbEntity
  8
Layer_1
 62
7
100
AcDbSpline
 70
8
 71
3
 72
8
 73
4
 74
0
 40
0
 40
0
 40
0
 40
0
 40
1
 40
1
 40
1
 40
1
 10
7.012159
 20
18.736034
 30
0.0
 10
6.556459
 20
18.714509
 30
0.0
 10
6.140951
 20
18.468835
 30
0.0
 10
5.902476
 20
18.079919
 30
0.0
  0
SPLINE
  5
2d4
100
AcDbEntity
  8
Layer_1
 62
7
100
AcDbSpline
 70
8
 71
3
 72
8
 73
4
 74
0
 40
0
 40
0
 40
0
 40
0
 40
1
 40
1
 40
1
 40
1
 10
5.902476
 20
18.079919
 30
0.0
 10
5.664001
 20
17.691003
 30
0.0
 10
5.633474
 20
17.209266
 30
0.0
 10
5.820950
 20
16.793359
 30
0.0
  0
LWPOLYLINE
  5
2d5
100
AcDbEntity
  8
Layer_1
 62
7
100
AcDbPolyline
 90
3
 70
0
 10
4.310207
 20
15.854971
 30
0.0
 10
5.858565
 20
16.696984
 30
0.0
 10
5.820986
 20
16.793342
 30
0.0
  0
SPLINE
  5
2d6
100
AcDbEntity
  8
Layer_1
 62
7
100
AcDbSpline
 70
8
 71
3
 72
8
 73
4
 74
0
 40
0
 40
0
 40
0
 40
0
 40
1
 40
1
 40
1
 40
1
 10
15.514341
 20
17.914489
 30
0.0
 10
15.117750
 20
18.643772
 30
0.0
 10
14.339128
 20
19.082126
 30
0.0
 10
13.509908
 20
19.042957
 30
0.0
  0
SPLINE
  5
2d7
100
AcDbEntity
  8
Layer_1
 62
7
100
AcDbSpline
 70
8
 71
3
 72
8
 73
4
 74
0
 40
0
 40
0
 40
0
 40
0
 40
1
 40
1
 40
1
 40
1
 10
4.919547
 20
16.988183
 30
0.0
 10
4.982103
 20
17.022201
 30
0.0
 10
5.021758
 20
17.087008
 30
0.0
 10
5.023575
 20
17.158192
 30
0.0
  0
SPLINE
  5
2d8
100
AcDbEntity
  8
Layer_1
 62
7
100
AcDbSpline
 70
8
 71
3
 72
8
 73
4
 74
0
 40
0
 40
0
 40
0
 40
0
 40
1
 40
1
 40
1
 40
1
 10
5.023575
 20
17.158192
 30
0.0
 10
5.025392
 20
17.229376
 30
0.0
 10
4.989095
 20
17.296122
 30
0.0
 10
4.928356
 20
17.333287
 30
0.0
  0
SPLINE
  5
2d9
100
AcDbEntity
  8
Layer_1
 62
7
100
AcDbSpline
 70
8
 71
3
 72
8
 73
4
 74
0
 40
0
 40
0
 40
0
 40
0
 40
1
 40
1
 40
1
 40
1
 10
4.928356
 20
17.333287
 30
0.0
 10
4.867618
 20
17.370453
 30
0.0
 10
4.791666
 20
17.372392
 30
0.0
 10
4.729110
 20
17.338373
 30
0.0
  0
SPLINE
  5
2da
100
AcDbEntity
  8
Layer_1
 62
7
100
AcDbSpline
 70
8
 71
3
 72
8
 73
4
 74
0
 40
0
 40
0
 40
0
 40
0
 40
1
 40
1
 40
1
 40
1
 10
4.729110
 20
17.338373
 30
0.0
 10
4.666555
 20
17.304355
 30
0.0
 10
4.626900
 20
17.239548
 30
0.0
 10
4.625083
 20
17.168364
 30
0.0
  0
SPLINE
  5
2db
100
AcDbEntity
  8
Layer_1
 62
7
100
AcDbSpline
 70
8
 71
3
 72
8
 73
4
 74
0
 40
0
 40
0
 40
0
 40
0
 40
1
 40
1
 40
1
 40
1
 10
4.625083
 20
17.168364
 30
0.0
 10
4.623265
 20
17.097180
 30
0.0
 10
4.659563
 20
17.030434
 30
0.0
 10
4.720301
 20
16.993269
 30
0.0
  0
SPLINE
  5
2dc
100
AcDbEntity
  8
Layer_1
 62
7
100
AcDbSpline
 70
8
 71
3
 72
8
 73
4
 74
0
 40
0
 40
0
 40
0
 40
0
 40
1
 40
1
 40
1
 40
1
 10
4.720301
 20
16.993269
 30
0.0
 10
4.781040
 20
16.956103
 30
0.0
 10
4.856992
 20
16.954165
 30
0.0
 10
4.919547
 20
16.988183
 30
0.0
  0
LWPOLYLINE
  5
2dd
100
AcDbEntity
  8
Layer_1
 62
7
100
AcDbPolyline
 90
2
 70
0
 10
7.012183
 20
18.736061
 30
0.0
 10
13.509901
 20
19.042979
 30
0.0
  0
SPLINE
  5
2de
100
AcDbEntity
  8
Layer_1
 62
7
100
AcDbSpline
 70
8
 71
3
 72
8
 73
4
 74
0
 40
0
 40
0
 40
0
 40
0
 40
1
 40
1
 40
1
 40
1
 10
15.630952
 20
18.614639
 30
0.0
 10
15.693508
 20
18.648657
 30
0.0
 10
15.733163
 20
18.713464
 30
0.0
 10
15.734980
 20
18.784648
 30
0.0
  0
SPLINE
  5
2df
100
AcDbEntity
  8
Layer_1
 62
7
100
AcDbSpline
 70
8
 71
3
 72
8
 73
4
 74
0
 40
0
 40
0
 40
0
 40
0
 40
1
 40
1
 40
1
 40
1
 10
15.734980
 20
18.784648
 30
0.0
 10
15.736797
 20
18.855832
 30
0.0
 10
15.700500
 20
18.922578
 30
0.0
 10
15.639761
 20
18.959743
 30
0.0
  0
SPLINE
  5
2e0
100
AcDbEntity
  8
Layer_1
 62
7
100
AcDbSpline
 70
8
 71
3
 72
8
 73
4
 74
0
 40
0
 40
0
 40
0
 40
0
 40
1
 40
1
 40
1
 40
1
 10
15.639761
 20
18.959743
 30
0.0
 10
15.579023
 20
18.996909
 30
0.0
 10
15.503070
 20
18.998848
 30
0.0
 10
15.440515
 20
18.964829
 30
0.0
  0
SPLINE
  5
2e1
100
AcDbEntity
  8
Layer_1
 62
7
100
AcDbSpline
 70
8
 71
3
 72
8
 73
4
 74
0
 40
0
 40
0
 40
0
 40
0
 40
1
 40
1
 40
1
 40
1
 10
15.440515
 20
18.964829
 30
0.0
 10
15.377959
 20
18.930811
 30
0.0
 10
15.338304
 20
18.866004
 30
0.0
 10
15.336487
 20
18.794820
 30
0.0
  0
SPLINE
  5
2e2
100
AcDbEntity
  8
Layer_1
 62
7
100
AcDbSpline
 70
8
 71
3
 72
8
 73
4
 74
0
 40
0
 40
0
 40
0
 40
0
 40
1
 40
1
 40
1
 40
1
 10
15.336487
 20
18.794820
 30
0.0
 10
15.334670
 20
18.723636
 30
0.0
 10
15.370967
 20
18.656890
 30
0.0
 10
15.431706
 20
18.619725
 30
0.0
  0
SPLINE
  5
2e3
100
AcDbEntity
  8
Layer_1
 62
7
100
AcDbSpline
 70
8
 71
3
 72
8
 73
4
 74
0
 40
0
 40
0
 40
0
 40
0
 40
1
 40
1
 40
1
 40
1
 10
15.431706
 20
18.619725
 30
0.0
 10
15.492444
 20
18.582559
 30
0.0
 10
15.568396
 20
18.580620
 30
0.0
 10
15.630952
 20
18.614639
 30
0.0
  0
LWPOLYLINE
  5
2e4
100
AcDbEntity
  8
Layer_1
 62
7
100
AcDbPolyline
 90
1
 70
1
 10
4.919547
 20
16.988183
 30
0.0
  0
SPLINE
  5
2e5
100
AcDbEntity
  8
Layer_1
 62
7
100
AcDbSpline
 70
8
 71
3
 72
8
 73
4
 74
0
 40
0
 40
0
 40
0
 40
0
 40
1
 40
1
 40
1
 40
1
 10
9.081181
 20
7.491133
 30
0.0
 10
9.061150
 20
7.494968
 30
0.0
 10
9.040594
 20
7.487826
 30
0.0
 10
9.027257
 20
7.472396
 30
0.0
  0
SPLINE
  5
2e6
100
AcDbEntity
  8
Layer_1
 62
7
100
AcDbSpline
 70
8
 71
3
 72
8
 73
4
 74
0
 40
0
 40
0
 40
0
 40
0
 40
1
 40
1
 40
1
 40
1
 10
9.027257
 20
7.472396
 30
0.0
 10
9.013920
 20
7.456966
 30
0.0
 10
9.009827
 20
7.435592
 30
0.0
 10
9.016522
 20
7.416327
 30
0.0
  0
SPLINE
  5
2e7
100
AcDbEntity
  8
Layer_1
 62
7
100
AcDbSpline
 70
8
 71
3
 72
8
 73
4
 74
0
 40
0
 40
0
 40
0
 40
0
 40
1
 40
1
 40
1
 40
1
 10
9.016522
 20
7.416327
 30
0.0
 10
9.023216
 20
7.397062
 30
0.0
 10
9.039679
 20
7.382831
 30
0.0
 10
9.059711
 20
7.378996
 30
0.0
  0
SPLINE
  5
2e8
100
AcDbEntity
  8
Layer_1
 62
7
100
AcDbSpline
 70
8
 71
3
 72
8
 73
4
 74
0
 40
0
 40
0
 40
0
 40
0
 40
1
 40
1
 40
1
 40
1
 10
9.059711
 20
7.378996
 30
0.0
 10
9.079742
 20
7.375161
 30
0.0
 10
9.100298
 20
7.382303
 30
0.0
 10
9.113635
 20
7.397733
 30
0.0
  0
SPLINE
  5
2e9
100
AcDbEntity
  8
Layer_1
 62
7
100
AcDbSpline
 70
8
 71
3
 72
8
 73
4
 74
0
 40
0
 40
0
 40
0
 40
0
 40
1
 40
1
 40
1
 40
1
 10
9.113635
 20
7.397733
 30
0.0
 10
9.126972
 20
7.413163
 30
0.0
 10
9.131064
 20
7.434537
 30
0.0
 10
9.124370
 20
7.453802
 30
0.0
  0
SPLINE
  5
2ea
100
AcDbEntity
  8
Layer_1
 62
7
100
AcDbSpline
 70
8
 71
3
 72
8
 73
4
 74
0
 40
0
 40
0
 40
0
 40
0
 40
1
 40
1
 40
1
 40
1
 10
9.124370
 20
7.453802
 30
0.0
 10
9.117676
 20
7.473067
 30
0.0
 10
9.101212
 20
7.487298
 30
0.0
 10
9.081181
 20
7.491133
 30
0.0
  0
LWPOLYLINE
  5
2eb
100
AcDbEntity
  8
Layer_1
 62
7
100
AcDbPolyline
 90
1
 70
1
 10
15.630952
 20
18.614639
 30
0.0
  0
SPLINE
  5
2ec
100
AcDbEntity
  8
Layer_1
 62
7
100
AcDbSpline
 70
8
 71
3
 72
8
 73
4
 74
0
 40
0
 40
0
 40
0
 40
0
 40
1
 40
1
 40
1
 40
1
 10
17.282533
 20
9.288025
 30
0.0
 10
17.262502
 20
9.291860
 30
0.0
 10
17.241946
 20
9.284718
 30
0.0
 10
17.228609
 20
9.269288
 30
0.0
  0
SPLINE
  5
2ed
100
AcDbEntity
  8
Layer_1
 62
7
100
AcDbSpline
 70
8
 71
3
 72
8
 73
4
 74
0
 40
0
 40
0
 40
0
 40
0
 40
1
 40
1
 40
1
 40
1
 10
17.228609
 20
9.269288
 30
0.0
 10
17.215272
 20
9.253858
 30
0.0
 10
17.211180
 20
9.232484
 30
0.0
 10
17.217874
 20
9.213219
 30
0.0
  0
SPLINE
  5
2ee
100
AcDbEntity
  8
Layer_1
 62
7
100
AcDbSpline
 70
8
 71
3
 72
8
 73
4
 74
0
 40
0
 40
0
 40
0
 40
0
 40
1
 40
1
 40
1
 40
1
 10
17.217874
 20
9.213219
 30
0.0
 10
17.224568
 20
9.193954
 30
0.0
 10
17.241032
 20
9.179723
 30
0.0
 10
17.261063
 20
9.175888
 30
0.0
  0
SPLINE
  5
2ef
100
AcDbEntity
  8
Layer_1
 62
7
100
AcDbSpline
 70
8
 71
3
 72
8
 73
4
 74
0
 40
0
 40
0
 40
0
 40
0
 40
1
 40
1
 40
1
 40
1
 10
17.261063
 20
9.175888
 30
0.0
 10
17.281095
 20
9.172053
 30
0.0
 10
17.301650
 20
9.179195
 30
0.0
 10
17.314988
 20
9.194625
 30
0.0
  0
SPLINE
  5
2f0
100
AcDbEntity
  8
Layer_1
 62
7
100
AcDbSpline
 70
8
 71
3
 72
8
 73
4
 74
0
 40
0
 40
0
 40
0
 40
0
 40
1
 40
1
 40
1
 40
1
 10
17.314988
 20
9.194625
 30
0.0
 10
17.328325
 20
9.210055
 30
0.0
 10
17.332417
 20
9.231429
 30
0.0
 10
17.325723
 20
9.250694
 30
0.0
  0
SPLINE
  5
2f1
100
AcDbEntity
  8
Layer_1
 62
7
100
AcDbSpline
 70
8
 71
3
 72
8
 73
4
 74
0
 40
0
 40
0
 40
0
 40
0
 40
1
 40
1
 40
1
 40
1
 10
17.325723
 20
9.250694
 30
0.0
 10
17.319028
 20
9.269959
 30
0.0
 10
17.302565
 20
9.284190
 30
0.0
 10
17.282533
 20
9.288025
 30
0.0
  0
LWPOLYLINE
  5
2f2
100
AcDbEntity
  8
Layer_1
 62
7
100
AcDbPolyline
 90
1
 70
1
 10
9.081181
 20
7.491133
 30
0.0
  0
LWPOLYLINE
  5
2f3
100
AcDbEntity
  8
Layer_1
 62
7
100
AcDbPolyline
 90
1
 70
1
 10
17.282533
 20
9.288025
 30
0.0
  0
SPLINE
  5
2f4
100
AcDbEntity
  8
Layer_1
 62
7
100
AcDbSpline
 70
8
 71
3
 72
8
 73
4
 74
0
 40
0
 40
0
 40
0
 40
0
 40
1
 40
1
 40
1
 40
1
 10
19.891391
 20
6.164949
 30
0.0
 10
19.910867
 20
6.266675
 30
0.0
 10
19.945975
 20
6.465946
 30
0.0
 10
19.949196
 20
7.128099
 30
0.0
  0
SPLINE
  5
2f5
100
AcDbEntity
  8
Layer_1
 62
7
100
AcDbSpline
 70
8
 71
3
 72
8
 73
4
 74
0
 40
0
 40
0
 40
0
 40
0
 40
1
 40
1
 40
1
 40
1
 10
19.949196
 20
7.128099
 30
0.0
 10
19.949196
 20
7.128099
 30
0.0
 10
19.878560
 20
7.525030
 30
0.0
 10
19.581138
 20
8.271230
 30
0.0
  0
SPLINE
  5
2f6
100
AcDbEntity
  8
Layer_1
 62
7
100
AcDbSpline
 70
8
 71
3
 72
8
 73
4
 74
0
 40
0
 40
0
 40
0
 40
0
 40
1
 40
1
 40
1
 40
1
 10
19.581138
 20
8.271230
 30
0.0
 10
19.581138
 20
8.271230
 30
0.0
 10
19.364032
 20
8.615020
 30
0.0
 10
18.798561
 20
9.199808
 30
0.0
  0
SPLINE
  5
2f7
100
AcDbEntity
  8
Layer_1
 62
7
100
AcDbSpline
 70
8
 71
3
 72
8
 73
4
 74
0
 40
0
 40
0
 40
0
 40
0
 40
1
 40
1
 40
1
 40
1
 10
18.798561
 20
9.199808
 30
0.0
 10
18.798561
 20
9.199808
 30
0.0
 10
18.460665
 20
9.438340
 30
0.0
 10
18.073552
 20
9.605282
 30
0.0
  0
SPLINE
  5
2f8
100
AcDbEntity
  8
Layer_1
 62
7
100
AcDbSpline
 70
8
 71
3
 72
8
 73
4
 74
0
 40
0
 40
0
 40
0
 40
0
 40
1
 40
1
 40
1
 40
1
 10
18.073552
 20
9.605282
 30
0.0
 10
17.837368
 20
9.707136
 30
0.0
 10
17.583719
 20
9.781892
 30
0.0
 10
17.316756
 20
9.823590
 30
0.0
  0
SPLINE
  5
2f9
100
AcDbEntity
  8
Layer_1
 62
7
100
AcDbSpline
 70
8
 71
3
 72
8
 73
4
 74
0
 40
0
 40
0
 40
0
 40
0
 40
1
 40
1
 40
1
 40
1
 10
17.316756
 20
9.823590
 30
0.0
 10
17.211209
 20
9.840076
 30
0.0
 10
17.150812
 20
9.848150
 30
0.0
 10
17.010544
 20
9.856199
 30
0.0
  0
SPLINE
  5
2fa
100
AcDbEntity
  8
Layer_1
 62
7
100
AcDbSpline
 70
8
 71
3
 72
8
 73
4
 74
0
 40
0
 40
0
 40
0
 40
0
 40
1
 40
1
 40
1
 40
1
 10
17.010544
 20
9.856199
 30
0.0
 10
16.909882
 20
9.861976
 30
0.0
 10
16.768225
 20
9.870096
 30
0.0
 10
16.539348
 20
9.883284
 30
0.0
  0
SPLINE
  5
2fb
100
AcDbEntity
  8
Layer_1
 62
7
100
AcDbSpline
 70
8
 71
3
 72
8
 73
4
 74
0
 40
0
 40
0
 40
0
 40
0
 40
1
 40
1
 40
1
 40
1
 10
16.539348
 20
9.883284
 30
0.0
 10
16.009158
 20
9.913833
 30
0.0
 10
15.474500
 20
9.944938
 30
0.0
 10
14.916424
 20
9.978523
 30
0.0
  0
SPLINE
  5
2fc
100
AcDbEntity
  8
Layer_1
 62
7
100
AcDbSpline
 70
8
 71
3
 72
8
 73
4
 74
0
 40
0
 40
0
 40
0
 40
0
 40
1
 40
1
 40
1
 40
1
 10
14.916424
 20
9.978523
 30
0.0
 10
13.897929
 20
10.039815
 30
0.0
 10
12.753598
 20
10.112122
 30
0.0
 10
11.662028
 20
10.193825
 30
0.0
  0
SPLINE
  5
2fd
100
AcDbEntity
  8
Layer_1
 62
7
100
AcDbSpline
 70
8
 71
3
 72
8
 73
4
 74
0
 40
0
 40
0
 40
0
 40
0
 40
1
 40
1
 40
1
 40
1
 10
11.662028
 20
10.193825
 30
0.0
 10
11.584243
 20
10.199647
 30
0.0
 10
11.521502
 20
10.204407
 30
0.0
 10
11.466101
 20
10.208639
 30
0.0
  0
SPLINE
  5
2fe
100
AcDbEntity
  8
Layer_1
 62
7
100
AcDbSpline
 70
8
 71
3
 72
8
 73
4
 74
0
 40
0
 40
0
 40
0
 40
0
 40
1
 40
1
 40
1
 40
1
 10
11.466101
 20
10.208639
 30
0.0
 10
11.343984
 20
10.217969
 30
0.0
 10
11.257230
 20
10.220639
 30
0.0
 10
11.122894
 20
10.216558
 30
0.0
  0
SPLINE
  5
2ff
100
AcDbEntity
  8
Layer_1
 62
7
100
AcDbSpline
 70
8
 71
3
 72
8
 73
4
 74
0
 40
0
 40
0
 40
0
 40
0
 40
1
 40
1
 40
1
 40
1
 10
11.122894
 20
10.216558
 30
0.0
 10
10.929942
 20
10.210693
 30
0.0
 10
10.732036
 20
10.187254
 30
0.0
 10
10.531482
 20
10.142656
 30
0.0
  0
SPLINE
  5
300
100
AcDbEntity
  8
Layer_1
 62
7
100
AcDbSpline
 70
8
 71
3
 72
8
 73
4
 74
0
 40
0
 40
0
 40
0
 40
0
 40
1
 40
1
 40
1
 40
1
 10
10.531482
 20
10.142656
 30
0.0
 10
10.158801
 20
10.059782
 30
0.0
 10
9.792899
 20
9.907252
 30
0.0
 10
9.457045
 20
9.678798
 30
0.0
  0
SPLINE
  5
301
100
AcDbEntity
  8
Layer_1
 62
7
100
AcDbSpline
 70
8
 71
3
 72
8
 73
4
 74
0
 40
0
 40
0
 40
0
 40
0
 40
1
 40
1
 40
1
 40
1
 10
9.457045
 20
9.678798
 30
0.0
 10
9.133188
 20
9.458506
 30
0.0
 10
8.843936
 20
9.171789
 30
0.0
 10
8.614813
 20
8.823508
 30
0.0
  0
SPLINE
  5
302
100
AcDbEntity
  8
Layer_1
 62
7
100
AcDbSpline
 70
8
 71
3
 72
8
 73
4
 74
0
 40
0
 40
0
 40
0
 40
0
 40
1
 40
1
 40
1
 40
1
 10
8.614813
 20
8.823508
 30
0.0
 10
8.295189
 20
8.337661
 30
0.0
 10
8.194950
 20
7.883851
 30
0.0
 10
8.160121
 20
7.701942
 30
0.0
  0
LWPOLYLINE
  5
303
100
AcDbEntity
  8
Layer_1
 62
7
100
AcDbPolyline
 90
2
 70
0
 10
18.160358
 20
6.496430
 30
0.0
 10
19.891412
 20
6.164996
 30
0.0
  0
SPLINE
  5
304
100
AcDbEntity
  8
Layer_1
 62
7
100
AcDbSpline
 70
8
 71
3
 72
8
 73
4
 74
0
 40
0
 40
0
 40
0
 40
0
 40
1
 40
1
 40
1
 40
1
 10
10.157959
 20
6.405242
 30
0.0
 10
9.356080
 20
6.190462
 30
0.0
 10
8.747578
 20
5.536144
 30
0.0
 10
8.591471
 20
4.720809
 30
0.0
  0
LWPOLYLINE
  5
305
100
AcDbEntity
  8
Layer_1
 62
7
100
AcDbPolyline
 90
3
 70
0
 10
8.160117
 20
7.701899
 30
0.0
 10
7.624788
 20
4.905918
 30
0.0
 10
8.591478
 20
4.720832
 30
0.0
  0
SPLINE
  5
306
100
AcDbEntity
  8
Layer_1
 62
7
100
AcDbSpline
 70
8
 71
3
 72
8
 73
4
 74
0
 40
0
 40
0
 40
0
 40
0
 40
1
 40
1
 40
1
 40
1
 10
18.166893
 20
6.599681
 30
0.0
 10
18.219053
 20
7.052898
 30
0.0
 10
18.043516
 20
7.502552
 30
0.0
 10
17.698092
 20
7.800559
 30
0.0
  0
SPLINE
  5
307
100
AcDbEntity
  8
Layer_1
 62
7
100
AcDbSpline
 70
8
 71
3
 72
8
 73
4
 74
0
 40
0
 40
0
 40
0
 40
0
 40
1
 40
1
 40
1
 40
1
 10
17.698092
 20
7.800559
 30
0.0
 10
17.352668
 20
8.098567
 30
0.0
 10
16.882139
 20
8.206292
 30
0.0
 10
16.441465
 20
8.088259
 30
0.0
  0
LWPOLYLINE
  5
308
100
AcDbEntity
  8
Layer_1
 62
7
100
AcDbPolyline
 90
2
 70
0
 10
10.157959
 20
6.405266
 30
0.0
 10
16.441433
 20
8.088276
 30
0.0
  0
SPLINE
  5
309
100
AcDbEntity
  8
Layer_1
 62
7
100
AcDbSpline
 70
8
 71
3
 72
8
 73
4
 74
0
 40
0
 40
0
 40
0
 40
0
 40
1
 40
1
 40
1
 40
1
 10
8.342484
 20
5.743879
 30
0.0
 10
8.272547
 20
5.757270
 30
0.0
 10
8.200779
 20
5.732332
 30
0.0
 10
8.154215
 20
5.678460
 30
0.0
  0
SPLINE
  5
30a
100
AcDbEntity
  8
Layer_1
 62
7
100
AcDbSpline
 70
8
 71
3
 72
8
 73
4
 74
0
 40
0
 40
0
 40
0
 40
0
 40
1
 40
1
 40
1
 40
1
 10
8.154215
 20
5.678460
 30
0.0
 10
8.107650
 20
5.624589
 30
0.0
 10
8.093363
 20
5.549967
 30
0.0
 10
8.116735
 20
5.482705
 30
0.0
  0
SPLINE
  5
30b
100
AcDbEntity
  8
Layer_1
 62
7
100
AcDbSpline
 70
8
 71
3
 72
8
 73
4
 74
0
 40
0
 40
0
 40
0
 40
0
 40
1
 40
1
 40
1
 40
1
 10
8.116735
 20
5.482705
 30
0.0
 10
8.140107
 20
5.415443
 30
0.0
 10
8.197587
 20
5.365759
 30
0.0
 10
8.267524
 20
5.352368
 30
0.0
  0
SPLINE
  5
30c
100
AcDbEntity
  8
Layer_1
 62
7
100
AcDbSpline
 70
8
 71
3
 72
8
 73
4
 74
0
 40
0
 40
0
 40
0
 40
0
 40
1
 40
1
 40
1
 40
1
 10
8.267524
 20
5.352368
 30
0.0
 10
8.337460
 20
5.338978
 30
0.0
 10
8.409228
 20
5.363916
 30
0.0
 10
8.455793
 20
5.417788
 30
0.0
  0
SPLINE
  5
30d
100
AcDbEntity
  8
Layer_1
 62
7
100
AcDbSpline
 70
8
 71
3
 72
8
 73
4
 74
0
 40
0
 40
0
 40
0
 40
0
 40
1
 40
1
 40
1
 40
1
 10
8.455793
 20
5.417788
 30
0.0
 10
8.502358
 20
5.471659
 30
0.0
 10
8.516645
 20
5.546281
 30
0.0
 10
8.493273
 20
5.613543
 30
0.0
  0
SPLINE
  5
30e
100
AcDbEntity
  8
Layer_1
 62
7
100
AcDbSpline
 70
8
 71
3
 72
8
 73
4
 74
0
 40
0
 40
0
 40
0
 40
0
 40
1
 40
1
 40
1
 40
1
 10
8.493273
 20
5.613543
 30
0.0
 10
8.469901
 20
5.680805
 30
0.0
 10
8.412421
 20
5.730489
 30
0.0
 10
8.342484
 20
5.743879
 30
0.0
  0
LWPOLYLINE
  5
30f
100
AcDbEntity
  8
Layer_1
 62
7
100
AcDbPolyline
 90
2
 70
0
 10
18.166863
 20
6.599653
 30
0.0
 10
18.160358
 20
6.496430
 30
0.0
  0
SPLINE
  5
310
100
AcDbEntity
  8
Layer_1
 62
7
100
AcDbSpline
 70
8
 71
3
 72
8
 73
4
 74
0
 40
0
 40
0
 40
0
 40
0
 40
1
 40
1
 40
1
 40
1
 10
19.041361
 20
7.450833
 30
0.0
 10
18.971424
 20
7.464223
 30
0.0
 10
18.899656
 20
7.439286
 30
0.0
 10
18.853092
 20
7.385414
 30
0.0
  0
SPLINE
  5
311
100
AcDbEntity
  8
Layer_1
 62
7
100
AcDbSpline
 70
8
 71
3
 72
8
 73
4
 74
0
 40
0
 40
0
 40
0
 40
0
 40
1
 40
1
 40
1
 40
1
 10
18.853092
 20
7.385414
 30
0.0
 10
18.806527
 20
7.331542
 30
0.0
 10
18.792240
 20
7.256921
 30
0.0
 10
18.815612
 20
7.189658
 30
0.0
  0
SPLINE
  5
312
100
AcDbEntity
  8
Layer_1
 62
7
100
AcDbSpline
 70
8
 71
3
 72
8
 73
4
 74
0
 40
0
 40
0
 40
0
 40
0
 40
1
 40
1
 40
1
 40
1
 10
18.815612
 20
7.189658
 30
0.0
 10
18.838984
 20
7.122396
 30
0.0
 10
18.896464
 20
7.072712
 30
0.0
 10
18.966401
 20
7.059322
 30
0.0
  0
SPLINE
  5
313
100
AcDbEntity
  8
Layer_1
 62
7
100
AcDbSpline
 70
8
 71
3
 72
8
 73
4
 74
0
 40
0
 40
0
 40
0
 40
0
 40
1
 40
1
 40
1
 40
1
 10
18.966401
 20
7.059322
 30
0.0
 10
19.036338
 20
7.045932
 30
0.0
 10
19.108105
 20
7.070869
 30
0.0
 10
19.154670
 20
7.124741
 30
0.0
  0
SPLINE
  5
314
100
AcDbEntity
  8
Layer_1
 62
7
100
AcDbSpline
 70
8
 71
3
 72
8
 73
4
 74
0
 40
0
 40
0
 40
0
 40
0
 40
1
 40
1
 40
1
 40
1
 10
19.154670
 20
7.124741
 30
0.0
 10
19.201235
 20
7.178613
 30
0.0
 10
19.215522
 20
7.253234
 30
0.0
 10
19.192150
 20
7.320496
 30
0.0
  0
SPLINE
  5
315
100
AcDbEntity
  8
Layer_1
 62
7
100
AcDbSpline
 70
8
 71
3
 72
8
 73
4
 74
0
 40
0
 40
0
 40
0
 40
0
 40
1
 40
1
 40
1
 40
1
 10
19.192150
 20
7.320496
 30
0.0
 10
19.168778
 20
7.387759
 30
0.0
 10
19.111298
 20
7.437443
 30
0.0
 10
19.041361
 20
7.450833
 30
0.0
  0
LWPOLYLINE
  5
316
100
AcDbEntity
  8
Layer_1
 62
7
100
AcDbPolyline
 90
1
 70
1
 10
8.342484
 20
5.743879
 30
0.0
  0
LWPOLYLINE
  5
317
100
AcDbEntity
  8
Layer_1
 62
7
100
AcDbPolyline
 90
1
 70
1
 10
19.041361
 20
7.450833
 30
0.0
  0
ENDSEC
  0
SECTION
  2
OBJECTS
  0
DICTIONARY
  5
C
330
0
100
AcDbDictionary
  3
ACAD_GROUP
350
D
  3
ACAD_MLINESTYLE
350
17
  0
DICTIONARY
  5
D
330
C
100
AcDbDictionary
  0
DICTIONARY
  5
1A
330
C
100
AcDbDictionary
  0
DICTIONARY
  5
17
330
C
100
AcDbDictionary
  3
STANDARD
350
18
  0
DICTIONARY
  5
19
330
C
100
AcDbDictionary
  0
ENDSEC
  0
EOF
