  0
SECTION
  2
HEADER
  9
$ACADVER
  1
AC1014
  9
$HANDSEED
  5
FFFF
  9
$INSUNITS
 70
     4
  9
$MEASUREMENT
 70
     1
  0
ENDSEC
  0
SECTION
  2
TABLES
  0
TABLE
  2
VPORT
  5
8
330
0
100
AcDbSymbolTable
 70
     4
  0
VPORT
  5
2E
330
8
100
AcDbSymbolTableRecord
100
AcDbViewportTableRecord
  2
*ACTIVE
 70
     0
 10
0.0
 20
0.0
 11
1.0
 21
1.0
 12
210.0
 22
148.5
 13
0.0
 23
0.0
 14
10.0
 24
10.0
 15
10.0
 25
10.0
 16
0.0
 26
0.0
 36
1.0
 17
0.0
 27
0.0
 37
0.0
 40
341.0
 41
1.24
 42
50.0
 43
0.0
 44
0.0
 50
0.0
 51
0.0
 71
     0
 72
   100
 73
     1
 74
     3
 75
     0
 76
     0
 77
     0
 78
     0
  0
ENDTAB
  0
TABLE
  2
LTYPE
  5
5
330
0
100
AcDbSymbolTable
 70
     1
  0
LTYPE
  5
14
330
5
100
AcDbSymbolTableRecord
100
AcDbLinetypeTableRecord
  2
BYBLOCK
 70
     0
  3

 72
    65
 73
     0
 40
0.0
  0
LTYPE
  5
15
330
5
100
AcDbSymbolTableRecord
100
AcDbLinetypeTableRecord
  2
BYLAYER
 70
     0
  3

 72
    65
 73
     0
 40
0.0
  0
LTYPE
  5
16
330
5
100
AcDbSymbolTableRecord
100
AcDbLinetypeTableRecord
  2
CONTINUOUS
 70
     0
  3
Solid line
 72
    65
 73
     0
 40
0.0
  0
ENDTAB
  0
TABLE
  2
LAYER
  5
2
100
AcDbSymbolTable
 70
2
  0
LAYER
  5
50
100
AcDbSymbolTableRecord
100
AcDbLayerTableRecord
  2
0
 70
0
  6
CONTINUOUS
  0
LAYER
  5
51
100
AcDbSymbolTableRecord
100
AcDbLayerTableRecord
  2
Layer_1
 70
0
  6
CONTINUOUS
  0
ENDTAB
  0
TABLE
  2
STYLE
  5
3
330
0
100
AcDbSymbolTable
 70
     1
  0
STYLE
  5
11
330
3
100
AcDbSymbolTableRecord
100
AcDbTextStyleTableRecord
  2
STANDARD
 70
     0
 40
0.0
 41
1.0
 50
0.0
 71
     0
 42
2.5
  3
txt
  4

  0
ENDTAB
  0
TABLE
  2
VIEW
  5
6
330
0
100
AcDbSymbolTable
 70
     0
  0
ENDTAB
  0
TABLE
  2
UCS
  5
7
330
0
100
AcDbSymbolTable
 70
     0
  0
ENDTAB
  0
TABLE
  2
APPID
  5
9
330
0
100
AcDbSymbolTable
 70
     2
  0
APPID
  5
12
330
9
100
AcDbSymbolTableRecord
100
AcDbRegAppTableRecord
  2
ACAD
 70
     0
  0
ENDTAB
  0
TABLE
  2
DIMSTYLE
  5
A
330
0
100
AcDbSymbolTable
 70
     1
  0
DIMSTYLE
105
27
330
A
100
AcDbSymbolTableRecord
100
AcDbDimStyleTableRecord
  2
ISO-25
 70
     0
  3

  4

  5

  6

  7

 40
1.0
 41
2.5
 42
0.625
 43
3.75
 44
1.25
 45
0.0
 46
0.0
 47
0.0
 48
0.0
140
2.5
141
2.5
142
0.0
143
0.03937007874016
144
1.0
145
0.0
146
1.0
147
0.625
 71
     0
 72
     0
 73
     0
 74
     0
 75
     0
 76
     0
 77
     1
 78
     8
170
     0
171
     3
172
     1
173
     0
174
     0
175
     0
176
     0
177
     0
178
     0
270
     2
271
     2
272
     2
273
     2
274
     3
340
11
275
     0
280
     0
281
     0
282
     0
283
     0
284
     8
285
     0
286
     0
287
     3
288
     0
  0
ENDTAB
  0
TABLE
  2
BLOCK_RECORD
  5
1
330
0
100
AcDbSymbolTable
 70
     1
  0
BLOCK_RECORD
  5
1F
330
1
100
AcDbSymbolTableRecord
100
AcDbBlockTableRecord
  2
*MODEL_SPACE
  0
BLOCK_RECORD
  5
1B
330
1
100
AcDbSymbolTableRecord
100
AcDbBlockTableRecord
  2
*PAPER_SPACE
  0
ENDTAB
  0
ENDSEC
  0
SECTION
  2
BLOCKS
  0
BLOCK
  5
20
330
1F
100
AcDbEntity
  8
0
100
AcDbBlockBegin
  2
*MODEL_SPACE
 70
     0
 10
0.0
 20
0.0
 30
0.0
  3
*MODEL_SPACE
  1

  0
ENDBLK
  5
21
330
1F
100
AcDbEntity
  8
0
100
AcDbBlockEnd
  0
BLOCK
  5
1C
330
1B
100
AcDbEntity
 67
     1
  8
0
100
AcDbBlockBegin
  2
*PAPER_SPACE
  1

  0
ENDBLK
  5
1D
330
1B
100
AcDbEntity
 67
     1
  8
0
100
AcDbBlockEnd
  0
ENDSEC
  0
SECTION
  2
ENTITIES
  0
SPLINE
  5
100
100
AcDbEntity
  8
Layer_1
 62
7
100
AcDbSpline
 70
8
 71
3
 72
8
 73
4
 74
0
 40
0
 40
0
 40
0
 40
0
 40
1
 40
1
 40
1
 40
1
 10
20.576335
 20
11.304929
 30
0.0
 10
20.576335
 20
11.336457
 30
0.0
 10
20.550777
 20
11.362016
 30
0.0
 10
20.519249
 20
11.362016
 30
0.0
  0
SPLINE
  5
101
100
AcDbEntity
  8
Layer_1
 62
7
100
AcDbSpline
 70
8
 71
3
 72
8
 73
4
 74
0
 40
0
 40
0
 40
0
 40
0
 40
1
 40
1
 40
1
 40
1
 10
20.519249
 20
11.362016
 30
0.0
 10
20.487721
 20
11.362016
 30
0.0
 10
20.462162
 20
11.336457
 30
0.0
 10
20.462162
 20
11.304929
 30
0.0
  0
SPLINE
  5
102
100
AcDbEntity
  8
Layer_1
 62
7
100
AcDbSpline
 70
8
 71
3
 72
8
 73
4
 74
0
 40
0
 40
0
 40
0
 40
0
 40
1
 40
1
 40
1
 40
1
 10
20.462162
 20
11.304929
 30
0.0
 10
20.462162
 20
11.273401
 30
0.0
 10
20.487721
 20
11.247843
 30
0.0
 10
20.519249
 20
11.247843
 30
0.0
  0
SPLINE
  5
103
100
AcDbEntity
  8
Layer_1
 62
7
100
AcDbSpline
 70
8
 71
3
 72
8
 73
4
 74
0
 40
0
 40
0
 40
0
 40
0
 40
1
 40
1
 40
1
 40
1
 10
20.519249
 20
11.247843
 30
0.0
 10
20.550777
 20
11.247843
 30
0.0
 10
20.576335
 20
11.273401
 30
0.0
 10
20.576335
 20
11.304929
 30
0.0
  0
SPLINE
  5
104
100
AcDbEntity
  8
Layer_1
 62
7
100
AcDbSpline
 70
8
 71
3
 72
8
 73
4
 74
0
 40
0
 40
0
 40
0
 40
0
 40
1
 40
1
 40
1
 40
1
 10
4.040923
 20
10.990579
 30
0.0
 10
4.040923
 20
11.010974
 30
0.0
 10
4.030042
 20
11.029820
 30
0.0
 10
4.012380
 20
11.040018
 30
0.0
  0
SPLINE
  5
105
100
AcDbEntity
  8
Layer_1
 62
7
100
AcDbSpline
 70
8
 71
3
 72
8
 73
4
 74
0
 40
0
 40
0
 40
0
 40
0
 40
1
 40
1
 40
1
 40
1
 10
4.012380
 20
11.040018
 30
0.0
 10
3.994717
 20
11.050216
 30
0.0
 10
3.972956
 20
11.050216
 30
0.0
 10
3.955293
 20
11.040018
 30
0.0
  0
SPLINE
  5
106
100
AcDbEntity
  8
Layer_1
 62
7
100
AcDbSpline
 70
8
 71
3
 72
8
 73
4
 74
0
 40
0
 40
0
 40
0
 40
0
 40
1
 40
1
 40
1
 40
1
 10
3.955293
 20
11.040018
 30
0.0
 10
3.937630
 20
11.029820
 30
0.0
 10
3.926749
 20
11.010974
 30
0.0
 10
3.926749
 20
10.990579
 30
0.0
  0
SPLINE
  5
107
100
AcDbEntity
  8
Layer_1
 62
7
100
AcDbSpline
 70
8
 71
3
 72
8
 73
4
 74
0
 40
0
 40
0
 40
0
 40
0
 40
1
 40
1
 40
1
 40
1
 10
3.926749
 20
10.990579
 30
0.0
 10
3.926749
 20
10.970184
 30
0.0
 10
3.937630
 20
10.951338
 30
0.0
 10
3.955293
 20
10.941141
 30
0.0
  0
SPLINE
  5
108
100
AcDbEntity
  8
Layer_1
 62
7
100
AcDbSpline
 70
8
 71
3
 72
8
 73
4
 74
0
 40
0
 40
0
 40
0
 40
0
 40
1
 40
1
 40
1
 40
1
 10
3.955293
 20
10.941141
 30
0.0
 10
3.972956
 20
10.930943
 30
0.0
 10
3.994717
 20
10.930943
 30
0.0
 10
4.012380
 20
10.941141
 30
0.0
  0
SPLINE
  5
109
100
AcDbEntity
  8
Layer_1
 62
7
100
AcDbSpline
 70
8
 71
3
 72
8
 73
4
 74
0
 40
0
 40
0
 40
0
 40
0
 40
1
 40
1
 40
1
 40
1
 10
4.012380
 20
10.941141
 30
0.0
 10
4.030042
 20
10.951338
 30
0.0
 10
4.040923
 20
10.970184
 30
0.0
 10
4.040923
 20
10.990579
 30
0.0
  0
LWPOLYLINE
  5
10a
100
AcDbEntity
  8
Layer_1
 62
7
100
AcDbPolyline
 90
1
 70
1
 10
20.576335
 20
11.304929
 30
0.0
  0
SPLINE
  5
10b
100
AcDbEntity
  8
Layer_1
 62
7
100
AcDbSpline
 70
8
 71
3
 72
8
 73
4
 74
0
 40
0
 40
0
 40
0
 40
0
 40
1
 40
1
 40
1
 40
1
 10
6.796825
 20
0.753761
 30
0.0
 10
6.796751
 20
0.785237
 30
0.0
 10
6.771214
 20
0.810714
 30
0.0
 10
6.739739
 20
0.810714
 30
0.0
  0
SPLINE
  5
10c
100
AcDbEntity
  8
Layer_1
 62
7
100
AcDbSpline
 70
8
 71
3
 72
8
 73
4
 74
0
 40
0
 40
0
 40
0
 40
0
 40
1
 40
1
 40
1
 40
1
 10
6.739739
 20
0.810714
 30
0.0
 10
6.708263
 20
0.810714
 30
0.0
 10
6.682726
 20
0.785237
 30
0.0
 10
6.682652
 20
0.753761
 30
0.0
  0
SPLINE
  5
10d
100
AcDbEntity
  8
Layer_1
 62
7
100
AcDbSpline
 70
8
 71
3
 72
8
 73
4
 74
0
 40
0
 40
0
 40
0
 40
0
 40
1
 40
1
 40
1
 40
1
 10
6.682652
 20
0.753761
 30
0.0
 10
6.682726
 20
0.722285
 30
0.0
 10
6.708263
 20
0.696808
 30
0.0
 10
6.739739
 20
0.696808
 30
0.0
  0
SPLINE
  5
10e
100
AcDbEntity
  8
Layer_1
 62
7
100
AcDbSpline
 70
8
 71
3
 72
8
 73
4
 74
0
 40
0
 40
0
 40
0
 40
0
 40
1
 40
1
 40
1
 40
1
 10
6.739739
 20
0.696808
 30
0.0
 10
6.771214
 20
0.696808
 30
0.0
 10
6.796751
 20
0.722285
 30
0.0
 10
6.796825
 20
0.753761
 30
0.0
  0
LWPOLYLINE
  5
10f
100
AcDbEntity
  8
Layer_1
 62
7
100
AcDbPolyline
 90
1
 70
1
 10
4.040923
 20
10.990579
 30
0.0
  0
SPLINE
  5
110
100
AcDbEntity
  8
Layer_1
 62
7
100
AcDbSpline
 70
8
 71
3
 72
8
 73
4
 74
0
 40
0
 40
0
 40
0
 40
0
 40
1
 40
1
 40
1
 40
1
 10
12.308629
 20
0.753761
 30
0.0
 10
12.308629
 20
0.774156
 30
0.0
 10
12.297749
 20
0.793002
 30
0.0
 10
12.280086
 20
0.803199
 30
0.0
  0
SPLINE
  5
111
100
AcDbEntity
  8
Layer_1
 62
7
100
AcDbSpline
 70
8
 71
3
 72
8
 73
4
 74
0
 40
0
 40
0
 40
0
 40
0
 40
1
 40
1
 40
1
 40
1
 10
12.280086
 20
0.803199
 30
0.0
 10
12.262423
 20
0.813397
 30
0.0
 10
12.240662
 20
0.813397
 30
0.0
 10
12.222999
 20
0.803199
 30
0.0
  0
SPLINE
  5
112
100
AcDbEntity
  8
Layer_1
 62
7
100
AcDbSpline
 70
8
 71
3
 72
8
 73
4
 74
0
 40
0
 40
0
 40
0
 40
0
 40
1
 40
1
 40
1
 40
1
 10
12.222999
 20
0.803199
 30
0.0
 10
12.205337
 20
0.793002
 30
0.0
 10
12.194456
 20
0.774156
 30
0.0
 10
12.194456
 20
0.753761
 30
0.0
  0
SPLINE
  5
113
100
AcDbEntity
  8
Layer_1
 62
7
100
AcDbSpline
 70
8
 71
3
 72
8
 73
4
 74
0
 40
0
 40
0
 40
0
 40
0
 40
1
 40
1
 40
1
 40
1
 10
12.194456
 20
0.753761
 30
0.0
 10
12.194456
 20
0.733366
 30
0.0
 10
12.205337
 20
0.714520
 30
0.0
 10
12.222999
 20
0.704323
 30
0.0
  0
SPLINE
  5
114
100
AcDbEntity
  8
Layer_1
 62
7
100
AcDbSpline
 70
8
 71
3
 72
8
 73
4
 74
0
 40
0
 40
0
 40
0
 40
0
 40
1
 40
1
 40
1
 40
1
 10
12.222999
 20
0.704323
 30
0.0
 10
12.240662
 20
0.694125
 30
0.0
 10
12.262423
 20
0.694125
 30
0.0
 10
12.280086
 20
0.704323
 30
0.0
  0
SPLINE
  5
115
100
AcDbEntity
  8
Layer_1
 62
7
100
AcDbSpline
 70
8
 71
3
 72
8
 73
4
 74
0
 40
0
 40
0
 40
0
 40
0
 40
1
 40
1
 40
1
 40
1
 10
12.280086
 20
0.704323
 30
0.0
 10
12.297749
 20
0.714520
 30
0.0
 10
12.308629
 20
0.733366
 30
0.0
 10
12.308629
 20
0.753761
 30
0.0
  0
LWPOLYLINE
  5
116
100
AcDbEntity
  8
Layer_1
 62
7
100
AcDbPolyline
 90
1
 70
1
 10
6.796825
 20
0.753761
 30
0.0
  0
SPLINE
  5
117
100
AcDbEntity
  8
Layer_1
 62
7
100
AcDbSpline
 70
8
 71
3
 72
8
 73
4
 74
0
 40
0
 40
0
 40
0
 40
0
 40
1
 40
1
 40
1
 40
1
 10
26.088140
 20
11.304929
 30
0.0
 10
26.088140
 20
11.325324
 30
0.0
 10
26.077259
 20
11.344170
 30
0.0
 10
26.059596
 20
11.354368
 30
0.0
  0
SPLINE
  5
118
100
AcDbEntity
  8
Layer_1
 62
7
100
AcDbSpline
 70
8
 71
3
 72
8
 73
4
 74
0
 40
0
 40
0
 40
0
 40
0
 40
1
 40
1
 40
1
 40
1
 10
26.059596
 20
11.354368
 30
0.0
 10
26.041934
 20
11.364565
 30
0.0
 10
26.020172
 20
11.364565
 30
0.0
 10
26.002510
 20
11.354368
 30
0.0
  0
SPLINE
  5
119
100
AcDbEntity
  8
Layer_1
 62
7
100
AcDbSpline
 70
8
 71
3
 72
8
 73
4
 74
0
 40
0
 40
0
 40
0
 40
0
 40
1
 40
1
 40
1
 40
1
 10
26.002510
 20
11.354368
 30
0.0
 10
25.984847
 20
11.344170
 30
0.0
 10
25.973966
 20
11.325324
 30
0.0
 10
25.973966
 20
11.304929
 30
0.0
  0
SPLINE
  5
11a
100
AcDbEntity
  8
Layer_1
 62
7
100
AcDbSpline
 70
8
 71
3
 72
8
 73
4
 74
0
 40
0
 40
0
 40
0
 40
0
 40
1
 40
1
 40
1
 40
1
 10
25.973966
 20
11.304929
 30
0.0
 10
25.973966
 20
11.284534
 30
0.0
 10
25.984847
 20
11.265688
 30
0.0
 10
26.002510
 20
11.255491
 30
0.0
  0
SPLINE
  5
11b
100
AcDbEntity
  8
Layer_1
 62
7
100
AcDbSpline
 70
8
 71
3
 72
8
 73
4
 74
0
 40
0
 40
0
 40
0
 40
0
 40
1
 40
1
 40
1
 40
1
 10
26.002510
 20
11.255491
 30
0.0
 10
26.020172
 20
11.245293
 30
0.0
 10
26.041934
 20
11.245293
 30
0.0
 10
26.059596
 20
11.255491
 30
0.0
  0
SPLINE
  5
11c
100
AcDbEntity
  8
Layer_1
 62
7
100
AcDbSpline
 70
8
 71
3
 72
8
 73
4
 74
0
 40
0
 40
0
 40
0
 40
0
 40
1
 40
1
 40
1
 40
1
 10
26.059596
 20
11.255491
 30
0.0
 10
26.077259
 20
11.265688
 30
0.0
 10
26.088140
 20
11.284534
 30
0.0
 10
26.088140
 20
11.304929
 30
0.0
  0
LWPOLYLINE
  5
11d
100
AcDbEntity
  8
Layer_1
 62
7
100
AcDbPolyline
 90
1
 70
1
 10
12.308629
 20
0.753761
 30
0.0
  0
SPLINE
  5
11e
100
AcDbEntity
  8
Layer_1
 62
7
100
AcDbSpline
 70
8
 71
3
 72
8
 73
4
 74
0
 40
0
 40
0
 40
0
 40
0
 40
1
 40
1
 40
1
 40
1
 10
15.064531
 20
11.304929
 30
0.0
 10
15.064531
 20
11.336457
 30
0.0
 10
15.038973
 20
11.362016
 30
0.0
 10
15.007445
 20
11.362016
 30
0.0
  0
SPLINE
  5
11f
100
AcDbEntity
  8
Layer_1
 62
7
100
AcDbSpline
 70
8
 71
3
 72
8
 73
4
 74
0
 40
0
 40
0
 40
0
 40
0
 40
1
 40
1
 40
1
 40
1
 10
15.007445
 20
11.362016
 30
0.0
 10
14.975917
 20
11.362016
 30
0.0
 10
14.950358
 20
11.336457
 30
0.0
 10
14.950358
 20
11.304929
 30
0.0
  0
SPLINE
  5
120
100
AcDbEntity
  8
Layer_1
 62
7
100
AcDbSpline
 70
8
 71
3
 72
8
 73
4
 74
0
 40
0
 40
0
 40
0
 40
0
 40
1
 40
1
 40
1
 40
1
 10
14.950358
 20
11.304929
 30
0.0
 10
14.950358
 20
11.284534
 30
0.0
 10
14.961239
 20
11.265688
 30
0.0
 10
14.978901
 20
11.255491
 30
0.0
  0
SPLINE
  5
121
100
AcDbEntity
  8
Layer_1
 62
7
100
AcDbSpline
 70
8
 71
3
 72
8
 73
4
 74
0
 40
0
 40
0
 40
0
 40
0
 40
1
 40
1
 40
1
 40
1
 10
14.978901
 20
11.255491
 30
0.0
 10
14.996564
 20
11.245293
 30
0.0
 10
15.018325
 20
11.245293
 30
0.0
 10
15.035988
 20
11.255491
 30
0.0
  0
SPLINE
  5
122
100
AcDbEntity
  8
Layer_1
 62
7
100
AcDbSpline
 70
8
 71
3
 72
8
 73
4
 74
0
 40
0
 40
0
 40
0
 40
0
 40
1
 40
1
 40
1
 40
1
 10
15.035988
 20
11.255491
 30
0.0
 10
15.053651
 20
11.265688
 30
0.0
 10
15.064531
 20
11.284534
 30
0.0
 10
15.064531
 20
11.304929
 30
0.0
  0
LWPOLYLINE
  5
123
100
AcDbEntity
  8
Layer_1
 62
7
100
AcDbPolyline
 90
1
 70
1
 10
26.088140
 20
11.304929
 30
0.0
  0
SPLINE
  5
124
100
AcDbEntity
  8
Layer_1
 62
7
100
AcDbSpline
 70
8
 71
3
 72
8
 73
4
 74
0
 40
0
 40
0
 40
0
 40
0
 40
1
 40
1
 40
1
 40
1
 10
23.332237
 20
0.753761
 30
0.0
 10
23.332237
 20
0.774156
 30
0.0
 10
23.321357
 20
0.793002
 30
0.0
 10
23.303694
 20
0.803199
 30
0.0
  0
SPLINE
  5
125
100
AcDbEntity
  8
Layer_1
 62
7
100
AcDbSpline
 70
8
 71
3
 72
8
 73
4
 74
0
 40
0
 40
0
 40
0
 40
0
 40
1
 40
1
 40
1
 40
1
 10
23.303694
 20
0.803199
 30
0.0
 10
23.286032
 20
0.813397
 30
0.0
 10
23.264270
 20
0.813397
 30
0.0
 10
23.246608
 20
0.803199
 30
0.0
  0
SPLINE
  5
126
100
AcDbEntity
  8
Layer_1
 62
7
100
AcDbSpline
 70
8
 71
3
 72
8
 73
4
 74
0
 40
0
 40
0
 40
0
 40
0
 40
1
 40
1
 40
1
 40
1
 10
23.246608
 20
0.803199
 30
0.0
 10
23.228945
 20
0.793002
 30
0.0
 10
23.218064
 20
0.774156
 30
0.0
 10
23.218064
 20
0.753761
 30
0.0
  0
SPLINE
  5
127
100
AcDbEntity
  8
Layer_1
 62
7
100
AcDbSpline
 70
8
 71
3
 72
8
 73
4
 74
0
 40
0
 40
0
 40
0
 40
0
 40
1
 40
1
 40
1
 40
1
 10
23.218064
 20
0.753761
 30
0.0
 10
23.218064
 20
0.733366
 30
0.0
 10
23.228945
 20
0.714520
 30
0.0
 10
23.246608
 20
0.704323
 30
0.0
  0
SPLINE
  5
128
100
AcDbEntity
  8
Layer_1
 62
7
100
AcDbSpline
 70
8
 71
3
 72
8
 73
4
 74
0
 40
0
 40
0
 40
0
 40
0
 40
1
 40
1
 40
1
 40
1
 10
23.246608
 20
0.704323
 30
0.0
 10
23.264270
 20
0.694125
 30
0.0
 10
23.286032
 20
0.694125
 30
0.0
 10
23.303694
 20
0.704323
 30
0.0
  0
SPLINE
  5
129
100
AcDbEntity
  8
Layer_1
 62
7
100
AcDbSpline
 70
8
 71
3
 72
8
 73
4
 74
0
 40
0
 40
0
 40
0
 40
0
 40
1
 40
1
 40
1
 40
1
 10
23.303694
 20
0.704323
 30
0.0
 10
23.321357
 20
0.714520
 30
0.0
 10
23.332237
 20
0.733366
 30
0.0
 10
23.332237
 20
0.753761
 30
0.0
  0
LWPOLYLINE
  5
12a
100
AcDbEntity
  8
Layer_1
 62
7
100
AcDbPolyline
 90
1
 70
1
 10
15.064531
 20
11.304929
 30
0.0
  0
SPLINE
  5
12b
100
AcDbEntity
  8
Layer_1
 62
7
100
AcDbSpline
 70
8
 71
3
 72
8
 73
4
 74
0
 40
0
 40
0
 40
0
 40
0
 40
1
 40
1
 40
1
 40
1
 10
17.820433
 20
0.753761
 30
0.0
 10
17.820433
 20
0.774156
 30
0.0
 10
17.809553
 20
0.793002
 30
0.0
 10
17.791890
 20
0.803199
 30
0.0
  0
SPLINE
  5
12c
100
AcDbEntity
  8
Layer_1
 62
7
100
AcDbSpline
 70
8
 71
3
 72
8
 73
4
 74
0
 40
0
 40
0
 40
0
 40
0
 40
1
 40
1
 40
1
 40
1
 10
17.791890
 20
0.803199
 30
0.0
 10
17.774227
 20
0.813397
 30
0.0
 10
17.752466
 20
0.813397
 30
0.0
 10
17.734803
 20
0.803199
 30
0.0
  0
SPLINE
  5
12d
100
AcDbEntity
  8
Layer_1
 62
7
100
AcDbSpline
 70
8
 71
3
 72
8
 73
4
 74
0
 40
0
 40
0
 40
0
 40
0
 40
1
 40
1
 40
1
 40
1
 10
17.734803
 20
0.803199
 30
0.0
 10
17.717141
 20
0.793002
 30
0.0
 10
17.706260
 20
0.774156
 30
0.0
 10
17.706260
 20
0.753761
 30
0.0
  0
SPLINE
  5
12e
100
AcDbEntity
  8
Layer_1
 62
7
100
AcDbSpline
 70
8
 71
3
 72
8
 73
4
 74
0
 40
0
 40
0
 40
0
 40
0
 40
1
 40
1
 40
1
 40
1
 10
17.706260
 20
0.753761
 30
0.0
 10
17.706260
 20
0.733366
 30
0.0
 10
17.717141
 20
0.714520
 30
0.0
 10
17.734803
 20
0.704323
 30
0.0
  0
SPLINE
  5
12f
100
AcDbEntity
  8
Layer_1
 62
7
100
AcDbSpline
 70
8
 71
3
 72
8
 73
4
 74
0
 40
0
 40
0
 40
0
 40
0
 40
1
 40
1
 40
1
 40
1
 10
17.734803
 20
0.704323
 30
0.0
 10
17.752466
 20
0.694125
 30
0.0
 10
17.774227
 20
0.694125
 30
0.0
 10
17.791890
 20
0.704323
 30
0.0
  0
SPLINE
  5
130
100
AcDbEntity
  8
Layer_1
 62
7
100
AcDbSpline
 70
8
 71
3
 72
8
 73
4
 74
0
 40
0
 40
0
 40
0
 40
0
 40
1
 40
1
 40
1
 40
1
 10
17.791890
 20
0.704323
 30
0.0
 10
17.809553
 20
0.714520
 30
0.0
 10
17.820433
 20
0.733366
 30
0.0
 10
17.820433
 20
0.753761
 30
0.0
  0
LWPOLYLINE
  5
131
100
AcDbEntity
  8
Layer_1
 62
7
100
AcDbPolyline
 90
1
 70
1
 10
23.332237
 20
0.753761
 30
0.0
  0
SPLINE
  5
132
100
AcDbEntity
  8
Layer_1
 62
7
100
AcDbSpline
 70
8
 71
3
 72
8
 73
4
 74
0
 40
0
 40
0
 40
0
 40
0
 40
1
 40
1
 40
1
 40
1
 10
28.844041
 20
0.753761
 30
0.0
 10
28.843968
 20
0.785237
 30
0.0
 10
28.818431
 20
0.810714
 30
0.0
 10
28.786955
 20
0.810714
 30
0.0
  0
SPLINE
  5
133
100
AcDbEntity
  8
Layer_1
 62
7
100
AcDbSpline
 70
8
 71
3
 72
8
 73
4
 74
0
 40
0
 40
0
 40
0
 40
0
 40
1
 40
1
 40
1
 40
1
 10
28.786955
 20
0.810714
 30
0.0
 10
28.755479
 20
0.810714
 30
0.0
 10
28.729942
 20
0.785237
 30
0.0
 10
28.729869
 20
0.753761
 30
0.0
  0
SPLINE
  5
134
100
AcDbEntity
  8
Layer_1
 62
7
100
AcDbSpline
 70
8
 71
3
 72
8
 73
4
 74
0
 40
0
 40
0
 40
0
 40
0
 40
1
 40
1
 40
1
 40
1
 10
28.729869
 20
0.753761
 30
0.0
 10
28.729942
 20
0.722285
 30
0.0
 10
28.755479
 20
0.696808
 30
0.0
 10
28.786955
 20
0.696808
 30
0.0
  0
SPLINE
  5
135
100
AcDbEntity
  8
Layer_1
 62
7
100
AcDbSpline
 70
8
 71
3
 72
8
 73
4
 74
0
 40
0
 40
0
 40
0
 40
0
 40
1
 40
1
 40
1
 40
1
 10
28.786955
 20
0.696808
 30
0.0
 10
28.818431
 20
0.696808
 30
0.0
 10
28.843968
 20
0.722285
 30
0.0
 10
28.844041
 20
0.753761
 30
0.0
  0
LWPOLYLINE
  5
136
100
AcDbEntity
  8
Layer_1
 62
7
100
AcDbPolyline
 90
1
 70
1
 10
17.820433
 20
0.753761
 30
0.0
  0
SPLINE
  5
137
100
AcDbEntity
  8
Layer_1
 62
7
100
AcDbSpline
 70
8
 71
3
 72
8
 73
4
 74
0
 40
0
 40
0
 40
0
 40
0
 40
1
 40
1
 40
1
 40
1
 10
9.552727
 20
11.304929
 30
0.0
 10
9.552727
 20
11.325324
 30
0.0
 10
9.541846
 20
11.344170
 30
0.0
 10
9.524184
 20
11.354368
 30
0.0
  0
SPLINE
  5
138
100
AcDbEntity
  8
Layer_1
 62
7
100
AcDbSpline
 70
8
 71
3
 72
8
 73
4
 74
0
 40
0
 40
0
 40
0
 40
0
 40
1
 40
1
 40
1
 40
1
 10
9.524184
 20
11.354368
 30
0.0
 10
9.506521
 20
11.364565
 30
0.0
 10
9.484760
 20
11.364565
 30
0.0
 10
9.467097
 20
11.354368
 30
0.0
  0
SPLINE
  5
139
100
AcDbEntity
  8
Layer_1
 62
7
100
AcDbSpline
 70
8
 71
3
 72
8
 73
4
 74
0
 40
0
 40
0
 40
0
 40
0
 40
1
 40
1
 40
1
 40
1
 10
9.467097
 20
11.354368
 30
0.0
 10
9.449435
 20
11.344170
 30
0.0
 10
9.438554
 20
11.325324
 30
0.0
 10
9.438554
 20
11.304929
 30
0.0
  0
SPLINE
  5
13a
100
AcDbEntity
  8
Layer_1
 62
7
100
AcDbSpline
 70
8
 71
3
 72
8
 73
4
 74
0
 40
0
 40
0
 40
0
 40
0
 40
1
 40
1
 40
1
 40
1
 10
9.438554
 20
11.304929
 30
0.0
 10
9.438554
 20
11.284534
 30
0.0
 10
9.449435
 20
11.265688
 30
0.0
 10
9.467097
 20
11.255491
 30
0.0
  0
SPLINE
  5
13b
100
AcDbEntity
  8
Layer_1
 62
7
100
AcDbSpline
 70
8
 71
3
 72
8
 73
4
 74
0
 40
0
 40
0
 40
0
 40
0
 40
1
 40
1
 40
1
 40
1
 10
9.467097
 20
11.255491
 30
0.0
 10
9.484760
 20
11.245293
 30
0.0
 10
9.506521
 20
11.245293
 30
0.0
 10
9.524184
 20
11.255491
 30
0.0
  0
SPLINE
  5
13c
100
AcDbEntity
  8
Layer_1
 62
7
100
AcDbSpline
 70
8
 71
3
 72
8
 73
4
 74
0
 40
0
 40
0
 40
0
 40
0
 40
1
 40
1
 40
1
 40
1
 10
9.524184
 20
11.255491
 30
0.0
 10
9.541846
 20
11.265688
 30
0.0
 10
9.552727
 20
11.284534
 30
0.0
 10
9.552727
 20
11.304929
 30
0.0
  0
LWPOLYLINE
  5
13d
100
AcDbEntity
  8
Layer_1
 62
7
100
AcDbPolyline
 90
1
 70
1
 10
28.844041
 20
0.753761
 30
0.0
  0
LWPOLYLINE
  5
13e
100
AcDbEntity
  8
Layer_1
 62
7
100
AcDbPolyline
 90
1
 70
1
 10
9.552727
 20
11.304929
 30
0.0
  0
SPLINE
  5
13f
100
AcDbEntity
  8
Layer_1
 62
7
100
AcDbSpline
 70
8
 71
3
 72
8
 73
4
 74
0
 40
0
 40
0
 40
0
 40
0
 40
1
 40
1
 40
1
 40
1
 10
26.031053
 20
1.108092
 30
0.0
 10
26.121750
 20
1.108091
 30
0.0
 10
26.212356
 20
1.113790
 30
0.0
 10
26.302338
 20
1.125152
 30
0.0
  0
LWPOLYLINE
  5
140
100
AcDbEntity
  8
Layer_1
 62
7
100
AcDbPolyline
 90
3
 70
0
 10
32.330308
 20
0.123828
 30
0.0
 10
32.330308
 20
1.886326
 30
0.0
 10
26.302336
 20
1.125181
 30
0.0
  0
SPLINE
  5
141
100
AcDbEntity
  8
Layer_1
 62
7
100
AcDbSpline
 70
8
 71
3
 72
8
 73
4
 74
0
 40
0
 40
0
 40
0
 40
0
 40
1
 40
1
 40
1
 40
1
 10
9.224355
 20
1.125152
 30
0.0
 10
9.314337
 20
1.113790
 30
0.0
 10
9.404944
 20
1.108091
 30
0.0
 10
9.495640
 20
1.108092
 30
0.0
  0
LWPOLYLINE
  5
142
100
AcDbEntity
  8
Layer_1
 62
7
100
AcDbPolyline
 90
2
 70
0
 10
26.031055
 20
1.108098
 30
0.0
 10
9.495638
 20
1.108098
 30
0.0
  0
SPLINE
  5
143
100
AcDbEntity
  8
Layer_1
 62
7
100
AcDbSpline
 70
8
 71
3
 72
8
 73
4
 74
0
 40
0
 40
0
 40
0
 40
0
 40
1
 40
1
 40
1
 40
1
 10
1.956190
 20
3.873894
 30
0.0
 10
1.757395
 20
3.463276
 30
0.0
 10
1.774716
 20
2.980884
 30
0.0
 10
2.002451
 20
2.585583
 30
0.0
  0
SPLINE
  5
144
100
AcDbEntity
  8
Layer_1
 62
7
100
AcDbSpline
 70
8
 71
3
 72
8
 73
4
 74
0
 40
0
 40
0
 40
0
 40
0
 40
1
 40
1
 40
1
 40
1
 10
2.002451
 20
2.585583
 30
0.0
 10
2.230186
 20
2.190282
 30
0.0
 10
2.638809
 20
1.933320
 30
0.0
 10
3.093749
 20
1.899323
 30
0.0
  0
LWPOLYLINE
  5
145
100
AcDbEntity
  8
Layer_1
 62
7
100
AcDbPolyline
 90
2
 70
0
 10
9.224357
 20
1.125181
 30
0.0
 10
3.093782
 20
1.899347
 30
0.0
  0
SPLINE
  5
146
100
AcDbEntity
  8
Layer_1
 62
7
100
AcDbSpline
 70
8
 71
3
 72
8
 73
4
 74
0
 40
0
 40
0
 40
0
 40
0
 40
1
 40
1
 40
1
 40
1
 10
6.739739
 20
10.950599
 30
0.0
 10
5.909594
 20
10.950599
 30
0.0
 10
5.152522
 20
10.475996
 30
0.0
 10
4.790782
 20
9.728812
 30
0.0
  0
LWPOLYLINE
  5
147
100
AcDbEntity
  8
Layer_1
 62
7
100
AcDbPolyline
 90
2
 70
0
 10
1.956179
 20
3.873928
 30
0.0
 10
4.790759
 20
9.728816
 30
0.0
  0
SPLINE
  5
148
100
AcDbEntity
  8
Layer_1
 62
7
100
AcDbSpline
 70
8
 71
3
 72
8
 73
4
 74
0
 40
0
 40
0
 40
0
 40
0
 40
1
 40
1
 40
1
 40
1
 10
4.160389
 20
11.934850
 30
0.0
 10
4.104054
 20
11.934850
 30
0.0
 10
4.077520
 20
11.933914
 30
0.0
 10
4.045336
 20
11.932725
 30
0.0
  0
SPLINE
  5
149
100
AcDbEntity
  8
Layer_1
 62
7
100
AcDbSpline
 70
8
 71
3
 72
8
 73
4
 74
0
 40
0
 40
0
 40
0
 40
0
 40
1
 40
1
 40
1
 40
1
 10
4.045336
 20
11.932725
 30
0.0
 10
3.841546
 20
11.925192
 30
0.0
 10
3.645231
 20
11.897929
 30
0.0
 10
3.458057
 20
11.854412
 30
0.0
  0
SPLINE
  5
14a
100
AcDbEntity
  8
Layer_1
 62
7
100
AcDbSpline
 70
8
 71
3
 72
8
 73
4
 74
0
 40
0
 40
0
 40
0
 40
0
 40
1
 40
1
 40
1
 40
1
 10
3.458057
 20
11.854412
 30
0.0
 10
3.058465
 20
11.761507
 30
0.0
 10
2.694223
 20
11.593192
 30
0.0
 10
2.378596
 20
11.369988
 30
0.0
  0
SPLINE
  5
14b
100
AcDbEntity
  8
Layer_1
 62
7
100
AcDbSpline
 70
8
 71
3
 72
8
 73
4
 74
0
 40
0
 40
0
 40
0
 40
0
 40
1
 40
1
 40
1
 40
1
 10
2.378596
 20
11.369988
 30
0.0
 10
2.034567
 20
11.126698
 30
0.0
 10
1.755303
 20
10.823565
 30
0.0
 10
1.544512
 20
10.486863
 30
0.0
  0
SPLINE
  5
14c
100
AcDbEntity
  8
Layer_1
 62
7
100
AcDbSpline
 70
8
 71
3
 72
8
 73
4
 74
0
 40
0
 40
0
 40
0
 40
0
 40
1
 40
1
 40
1
 40
1
 10
1.544512
 20
10.486863
 30
0.0
 10
1.315407
 20
10.120909
 30
0.0
 10
1.172121
 20
9.724034
 30
0.0
 10
1.105221
 20
9.322231
 30
0.0
  0
SPLINE
  5
14d
100
AcDbEntity
  8
Layer_1
 62
7
100
AcDbSpline
 70
8
 71
3
 72
8
 73
4
 74
0
 40
0
 40
0
 40
0
 40
0
 40
1
 40
1
 40
1
 40
1
 10
1.105221
 20
9.322231
 30
0.0
 10
1.093525
 20
9.251986
 30
0.0
 10
1.045627
 20
8.948298
 30
0.0
 10
0.957944
 20
8.424694
 30
0.0
  0
SPLINE
  5
14e
100
AcDbEntity
  8
Layer_1
 62
7
100
AcDbSpline
 70
8
 71
3
 72
8
 73
4
 74
0
 40
0
 40
0
 40
0
 40
0
 40
1
 40
1
 40
1
 40
1
 10
0.957944
 20
8.424694
 30
0.0
 10
0.877073
 20
7.941773
 30
0.0
 10
0.794855
 20
7.464780
 30
0.0
 10
0.715412
 20
7.010644
 30
0.0
  0
SPLINE
  5
14f
100
AcDbEntity
  8
Layer_1
 62
7
100
AcDbSpline
 70
8
 71
3
 72
8
 73
4
 74
0
 40
0
 40
0
 40
0
 40
0
 40
1
 40
1
 40
1
 40
1
 10
0.715412
 20
7.010644
 30
0.0
 10
0.548479
 20
6.056385
 30
0.0
 10
0.380292
 20
5.125123
 30
0.0
 10
0.214007
 20
4.208970
 30
0.0
  0
SPLINE
  5
150
100
AcDbEntity
  8
Layer_1
 62
7
100
AcDbSpline
 70
8
 71
3
 72
8
 73
4
 74
0
 40
0
 40
0
 40
0
 40
0
 40
1
 40
1
 40
1
 40
1
 10
0.214007
 20
4.208970
 30
0.0
 10
0.179646
 20
4.019651
 30
0.0
 10
0.157306
 20
3.896735
 30
0.0
 10
0.140995
 20
3.806970
 30
0.0
  0
SPLINE
  5
151
100
AcDbEntity
  8
Layer_1
 62
7
100
AcDbSpline
 70
8
 71
3
 72
8
 73
4
 74
0
 40
0
 40
0
 40
0
 40
0
 40
1
 40
1
 40
1
 40
1
 10
0.140995
 20
3.806970
 30
0.0
 10
0.114998
 20
3.663904
 30
0.0
 10
0.107929
 20
3.604396
 30
0.0
 10
0.098522
 20
3.493279
 30
0.0
  0
SPLINE
  5
152
100
AcDbEntity
  8
Layer_1
 62
7
100
AcDbSpline
 70
8
 71
3
 72
8
 73
4
 74
0
 40
0
 40
0
 40
0
 40
0
 40
1
 40
1
 40
1
 40
1
 10
0.098522
 20
3.493279
 30
0.0
 10
0.070621
 20
3.163681
 30
0.0
 10
0.095476
 20
2.840468
 30
0.0
 10
0.165626
 20
2.533465
 30
0.0
  0
SPLINE
  5
153
100
AcDbEntity
  8
Layer_1
 62
7
100
AcDbSpline
 70
8
 71
3
 72
8
 73
4
 74
0
 40
0
 40
0
 40
0
 40
0
 40
1
 40
1
 40
1
 40
1
 10
0.165626
 20
2.533465
 30
0.0
 10
0.182229
 20
2.460800
 30
0.0
 10
0.201375
 20
2.389045
 30
0.0
 10
0.222965
 20
2.318330
 30
0.0
  0
SPLINE
  5
154
100
AcDbEntity
  8
Layer_1
 62
7
100
AcDbSpline
 70
8
 71
3
 72
8
 73
4
 74
0
 40
0
 40
0
 40
0
 40
0
 40
1
 40
1
 40
1
 40
1
 10
0.222965
 20
2.318330
 30
0.0
 10
0.343419
 20
1.923807
 30
0.0
 10
0.537338
 20
1.569218
 30
0.0
 10
0.783395
 20
1.267101
 30
0.0
  0
SPLINE
  5
155
100
AcDbEntity
  8
Layer_1
 62
7
100
AcDbSpline
 70
8
 71
3
 72
8
 73
4
 74
0
 40
0
 40
0
 40
0
 40
0
 40
1
 40
1
 40
1
 40
1
 10
0.783395
 20
1.267101
 30
0.0
 10
1.048107
 20
0.942079
 30
0.0
 10
1.367817
 20
0.683939
 30
0.0
 10
1.716495
 20
0.496189
 30
0.0
  0
SPLINE
  5
156
100
AcDbEntity
  8
Layer_1
 62
7
100
AcDbSpline
 70
8
 71
3
 72
8
 73
4
 74
0
 40
0
 40
0
 40
0
 40
0
 40
1
 40
1
 40
1
 40
1
 10
1.716495
 20
0.496189
 30
0.0
 10
2.090405
 20
0.294853
 30
0.0
 10
2.490148
 20
0.178162
 30
0.0
 10
2.889454
 20
0.138893
 30
0.0
  0
SPLINE
  5
157
100
AcDbEntity
  8
Layer_1
 62
7
100
AcDbSpline
 70
8
 71
3
 72
8
 73
4
 74
0
 40
0
 40
0
 40
0
 40
0
 40
1
 40
1
 40
1
 40
1
 10
2.889454
 20
0.138893
 30
0.0
 10
3.078422
 20
0.120309
 30
0.0
 10
3.133255
 20
0.123841
 30
0.0
 10
3.699757
 20
0.123841
 30
0.0
  0
LWPOLYLINE
  5
158
100
AcDbEntity
  8
Layer_1
 62
7
100
AcDbPolyline
 90
4
 70
0
 10
6.739715
 20
10.950596
 30
0.0
 10
28.786979
 20
10.950596
 30
0.0
 10
28.786979
 20
11.934845
 30
0.0
 10
4.160343
 20
11.934845
 30
0.0
  0
SPLINE
  5
159
100
AcDbEntity
  8
Layer_1
 62
7
100
AcDbSpline
 70
8
 71
3
 72
8
 73
4
 74
0
 40
0
 40
0
 40
0
 40
0
 40
1
 40
1
 40
1
 40
1
 10
7.614743
 20
11.446076
 30
0.0
 10
7.614642
 20
11.556081
 30
0.0
 10
7.525437
 20
11.645205
 30
0.0
 10
7.415432
 20
11.645205
 30
0.0
  0
SPLINE
  5
15a
100
AcDbEntity
  8
Layer_1
 62
7
100
AcDbSpline
 70
8
 71
3
 72
8
 73
4
 74
0
 40
0
 40
0
 40
0
 40
0
 40
1
 40
1
 40
1
 40
1
 10
7.415432
 20
11.645205
 30
0.0
 10
7.305427
 20
11.645205
 30
0.0
 10
7.216222
 20
11.556081
 30
0.0
 10
7.216121
 20
11.446076
 30
0.0
  0
SPLINE
  5
15b
100
AcDbEntity
  8
Layer_1
 62
7
100
AcDbSpline
 70
8
 71
3
 72
8
 73
4
 74
0
 40
0
 40
0
 40
0
 40
0
 40
1
 40
1
 40
1
 40
1
 10
7.216121
 20
11.446076
 30
0.0
 10
7.216222
 20
11.336071
 30
0.0
 10
7.305427
 20
11.246948
 30
0.0
 10
7.415432
 20
11.246948
 30
0.0
  0
SPLINE
  5
15c
100
AcDbEntity
  8
Layer_1
 62
7
100
AcDbSpline
 70
8
 71
3
 72
8
 73
4
 74
0
 40
0
 40
0
 40
0
 40
0
 40
1
 40
1
 40
1
 40
1
 10
7.415432
 20
11.246948
 30
0.0
 10
7.525437
 20
11.246948
 30
0.0
 10
7.614642
 20
11.336071
 30
0.0
 10
7.614743
 20
11.446076
 30
0.0
  0
LWPOLYLINE
  5
15d
100
AcDbEntity
  8
Layer_1
 62
7
100
AcDbPolyline
 90
7
 70
0
 10
3.699757
 20
0.123841
 30
0.0
 10
4.846202
 20
0.123841
 30
0.0
 10
6.618174
 20
0.123841
 30
0.0
 10
10.239487
 20
0.123841
 30
0.0
 10
17.665325
 20
0.123841
 30
0.0
 10
32.239755
 20
0.123841
 30
0.0
 10
32.330258
 20
0.123841
 30
0.0
  0
SPLINE
  5
15e
100
AcDbEntity
  8
Layer_1
 62
7
100
AcDbSpline
 70
8
 71
3
 72
8
 73
4
 74
0
 40
0
 40
0
 40
0
 40
0
 40
1
 40
1
 40
1
 40
1
 10
31.530607
 20
0.878510
 30
0.0
 10
31.530506
 20
0.988515
 30
0.0
 10
31.441301
 20
1.077638
 30
0.0
 10
31.331296
 20
1.077638
 30
0.0
  0
SPLINE
  5
15f
100
AcDbEntity
  8
Layer_1
 62
7
100
AcDbSpline
 70
8
 71
3
 72
8
 73
4
 74
0
 40
0
 40
0
 40
0
 40
0
 40
1
 40
1
 40
1
 40
1
 10
31.331296
 20
1.077638
 30
0.0
 10
31.221291
 20
1.077638
 30
0.0
 10
31.132086
 20
0.988515
 30
0.0
 10
31.131985
 20
0.878510
 30
0.0
  0
SPLINE
  5
160
100
AcDbEntity
  8
Layer_1
 62
7
100
AcDbSpline
 70
8
 71
3
 72
8
 73
4
 74
0
 40
0
 40
0
 40
0
 40
0
 40
1
 40
1
 40
1
 40
1
 10
31.131985
 20
0.878510
 30
0.0
 10
31.132086
 20
0.768505
 30
0.0
 10
31.221291
 20
0.679381
 30
0.0
 10
31.331296
 20
0.679381
 30
0.0
  0
SPLINE
  5
161
100
AcDbEntity
  8
Layer_1
 62
7
100
AcDbSpline
 70
8
 71
3
 72
8
 73
4
 74
0
 40
0
 40
0
 40
0
 40
0
 40
1
 40
1
 40
1
 40
1
 10
31.331296
 20
0.679381
 30
0.0
 10
31.441301
 20
0.679381
 30
0.0
 10
31.530506
 20
0.768505
 30
0.0
 10
31.530607
 20
0.878510
 30
0.0
  0
LWPOLYLINE
  5
162
100
AcDbEntity
  8
Layer_1
 62
7
100
AcDbPolyline
 90
1
 70
1
 10
7.614743
 20
11.446076
 30
0.0
  0
SPLINE
  5
163
100
AcDbEntity
  8
Layer_1
 62
7
100
AcDbSpline
 70
8
 71
3
 72
8
 73
4
 74
0
 40
0
 40
0
 40
0
 40
0
 40
1
 40
1
 40
1
 40
1
 10
4.394708
 20
0.878510
 30
0.0
 10
4.394608
 20
0.988515
 30
0.0
 10
4.305403
 20
1.077638
 30
0.0
 10
4.195397
 20
1.077638
 30
0.0
  0
SPLINE
  5
164
100
AcDbEntity
  8
Layer_1
 62
7
100
AcDbSpline
 70
8
 71
3
 72
8
 73
4
 74
0
 40
0
 40
0
 40
0
 40
0
 40
1
 40
1
 40
1
 40
1
 10
4.195397
 20
1.077638
 30
0.0
 10
4.085392
 20
1.077638
 30
0.0
 10
3.996187
 20
0.988515
 30
0.0
 10
3.996087
 20
0.878510
 30
0.0
  0
SPLINE
  5
165
100
AcDbEntity
  8
Layer_1
 62
7
100
AcDbSpline
 70
8
 71
3
 72
8
 73
4
 74
0
 40
0
 40
0
 40
0
 40
0
 40
1
 40
1
 40
1
 40
1
 10
3.996087
 20
0.878510
 30
0.0
 10
3.996187
 20
0.768505
 30
0.0
 10
4.085392
 20
0.679381
 30
0.0
 10
4.195397
 20
0.679381
 30
0.0
  0
SPLINE
  5
166
100
AcDbEntity
  8
Layer_1
 62
7
100
AcDbSpline
 70
8
 71
3
 72
8
 73
4
 74
0
 40
0
 40
0
 40
0
 40
0
 40
1
 40
1
 40
1
 40
1
 10
4.195397
 20
0.679381
 30
0.0
 10
4.305403
 20
0.679381
 30
0.0
 10
4.394608
 20
0.768505
 30
0.0
 10
4.394708
 20
0.878510
 30
0.0
  0
LWPOLYLINE
  5
167
100
AcDbEntity
  8
Layer_1
 62
7
100
AcDbPolyline
 90
1
 70
1
 10
31.530607
 20
0.878510
 30
0.0
  0
SPLINE
  5
168
100
AcDbEntity
  8
Layer_1
 62
7
100
AcDbSpline
 70
8
 71
3
 72
8
 73
4
 74
0
 40
0
 40
0
 40
0
 40
0
 40
1
 40
1
 40
1
 40
1
 10
6.180364
 20
11.387530
 30
0.0
 10
6.180364
 20
11.458737
 30
0.0
 10
6.142376
 20
11.524535
 30
0.0
 10
6.080709
 20
11.560139
 30
0.0
  0
SPLINE
  5
169
100
AcDbEntity
  8
Layer_1
 62
7
100
AcDbSpline
 70
8
 71
3
 72
8
 73
4
 74
0
 40
0
 40
0
 40
0
 40
0
 40
1
 40
1
 40
1
 40
1
 10
6.080709
 20
11.560139
 30
0.0
 10
6.019042
 20
11.595742
 30
0.0
 10
5.943065
 20
11.595742
 30
0.0
 10
5.881397
 20
11.560139
 30
0.0
  0
SPLINE
  5
16a
100
AcDbEntity
  8
Layer_1
 62
7
100
AcDbSpline
 70
8
 71
3
 72
8
 73
4
 74
0
 40
0
 40
0
 40
0
 40
0
 40
1
 40
1
 40
1
 40
1
 10
5.881397
 20
11.560139
 30
0.0
 10
5.819730
 20
11.524535
 30
0.0
 10
5.781742
 20
11.458737
 30
0.0
 10
5.781742
 20
11.387530
 30
0.0
  0
SPLINE
  5
16b
100
AcDbEntity
  8
Layer_1
 62
7
100
AcDbSpline
 70
8
 71
3
 72
8
 73
4
 74
0
 40
0
 40
0
 40
0
 40
0
 40
1
 40
1
 40
1
 40
1
 10
5.781742
 20
11.387530
 30
0.0
 10
5.781742
 20
11.316323
 30
0.0
 10
5.819730
 20
11.250525
 30
0.0
 10
5.881397
 20
11.214922
 30
0.0
  0
SPLINE
  5
16c
100
AcDbEntity
  8
Layer_1
 62
7
100
AcDbSpline
 70
8
 71
3
 72
8
 73
4
 74
0
 40
0
 40
0
 40
0
 40
0
 40
1
 40
1
 40
1
 40
1
 10
5.881397
 20
11.214922
 30
0.0
 10
5.943065
 20
11.179318
 30
0.0
 10
6.019042
 20
11.179318
 30
0.0
 10
6.080709
 20
11.214922
 30
0.0
  0
SPLINE
  5
16d
100
AcDbEntity
  8
Layer_1
 62
7
100
AcDbSpline
 70
8
 71
3
 72
8
 73
4
 74
0
 40
0
 40
0
 40
0
 40
0
 40
1
 40
1
 40
1
 40
1
 10
6.080709
 20
11.214922
 30
0.0
 10
6.142376
 20
11.250525
 30
0.0
 10
6.180364
 20
11.316323
 30
0.0
 10
6.180364
 20
11.387530
 30
0.0
  0
LWPOLYLINE
  5
16e
100
AcDbEntity
  8
Layer_1
 62
7
100
AcDbPolyline
 90
1
 70
1
 10
4.394708
 20
0.878510
 30
0.0
  0
SPLINE
  5
16f
100
AcDbEntity
  8
Layer_1
 62
7
100
AcDbSpline
 70
8
 71
3
 72
8
 73
4
 74
0
 40
0
 40
0
 40
0
 40
0
 40
1
 40
1
 40
1
 40
1
 10
28.310572
 20
11.446076
 30
0.0
 10
28.310472
 20
11.556081
 30
0.0
 10
28.221267
 20
11.645205
 30
0.0
 10
28.111261
 20
11.645205
 30
0.0
  0
SPLINE
  5
170
100
AcDbEntity
  8
Layer_1
 62
7
100
AcDbSpline
 70
8
 71
3
 72
8
 73
4
 74
0
 40
0
 40
0
 40
0
 40
0
 40
1
 40
1
 40
1
 40
1
 10
28.111261
 20
11.645205
 30
0.0
 10
28.001256
 20
11.645205
 30
0.0
 10
27.912051
 20
11.556081
 30
0.0
 10
27.911951
 20
11.446076
 30
0.0
  0
SPLINE
  5
171
100
AcDbEntity
  8
Layer_1
 62
7
100
AcDbSpline
 70
8
 71
3
 72
8
 73
4
 74
0
 40
0
 40
0
 40
0
 40
0
 40
1
 40
1
 40
1
 40
1
 10
27.911951
 20
11.446076
 30
0.0
 10
27.912051
 20
11.336071
 30
0.0
 10
28.001256
 20
11.246948
 30
0.0
 10
28.111261
 20
11.246948
 30
0.0
  0
SPLINE
  5
172
100
AcDbEntity
  8
Layer_1
 62
7
100
AcDbSpline
 70
8
 71
3
 72
8
 73
4
 74
0
 40
0
 40
0
 40
0
 40
0
 40
1
 40
1
 40
1
 40
1
 10
28.111261
 20
11.246948
 30
0.0
 10
28.221267
 20
11.246948
 30
0.0
 10
28.310472
 20
11.336071
 30
0.0
 10
28.310572
 20
11.446076
 30
0.0
  0
LWPOLYLINE
  5
173
100
AcDbEntity
  8
Layer_1
 62
7
100
AcDbPolyline
 90
1
 70
1
 10
6.180364
 20
11.387530
 30
0.0
  0
SPLINE
  5
174
100
AcDbEntity
  8
Layer_1
 62
7
100
AcDbSpline
 70
8
 71
3
 72
8
 73
4
 74
0
 40
0
 40
0
 40
0
 40
0
 40
1
 40
1
 40
1
 40
1
 10
2.491962
 20
1.200513
 30
0.0
 10
2.491962
 20
1.271721
 30
0.0
 10
2.453973
 20
1.337519
 30
0.0
 10
2.392306
 20
1.373122
 30
0.0
  0
SPLINE
  5
175
100
AcDbEntity
  8
Layer_1
 62
7
100
AcDbSpline
 70
8
 71
3
 72
8
 73
4
 74
0
 40
0
 40
0
 40
0
 40
0
 40
1
 40
1
 40
1
 40
1
 10
2.392306
 20
1.373122
 30
0.0
 10
2.330639
 20
1.408726
 30
0.0
 10
2.254662
 20
1.408726
 30
0.0
 10
2.192995
 20
1.373122
 30
0.0
  0
SPLINE
  5
176
100
AcDbEntity
  8
Layer_1
 62
7
100
AcDbSpline
 70
8
 71
3
 72
8
 73
4
 74
0
 40
0
 40
0
 40
0
 40
0
 40
1
 40
1
 40
1
 40
1
 10
2.192995
 20
1.373122
 30
0.0
 10
2.131328
 20
1.337519
 30
0.0
 10
2.093339
 20
1.271721
 30
0.0
 10
2.093339
 20
1.200513
 30
0.0
  0
SPLINE
  5
177
100
AcDbEntity
  8
Layer_1
 62
7
100
AcDbSpline
 70
8
 71
3
 72
8
 73
4
 74
0
 40
0
 40
0
 40
0
 40
0
 40
1
 40
1
 40
1
 40
1
 10
2.093339
 20
1.200513
 30
0.0
 10
2.093339
 20
1.129306
 30
0.0
 10
2.131328
 20
1.063508
 30
0.0
 10
2.192995
 20
1.027905
 30
0.0
  0
SPLINE
  5
178
100
AcDbEntity
  8
Layer_1
 62
7
100
AcDbSpline
 70
8
 71
3
 72
8
 73
4
 74
0
 40
0
 40
0
 40
0
 40
0
 40
1
 40
1
 40
1
 40
1
 10
2.192995
 20
1.027905
 30
0.0
 10
2.254662
 20
0.992301
 30
0.0
 10
2.330639
 20
0.992301
 30
0.0
 10
2.392306
 20
1.027905
 30
0.0
  0
SPLINE
  5
179
100
AcDbEntity
  8
Layer_1
 62
7
100
AcDbSpline
 70
8
 71
3
 72
8
 73
4
 74
0
 40
0
 40
0
 40
0
 40
0
 40
1
 40
1
 40
1
 40
1
 10
2.392306
 20
1.027905
 30
0.0
 10
2.453973
 20
1.063508
 30
0.0
 10
2.491962
 20
1.129306
 30
0.0
 10
2.491962
 20
1.200513
 30
0.0
  0
LWPOLYLINE
  5
17a
100
AcDbEntity
  8
Layer_1
 62
7
100
AcDbPolyline
 90
1
 70
1
 10
28.310572
 20
11.446076
 30
0.0
  0
SPLINE
  5
17b
100
AcDbEntity
  8
Layer_1
 62
7
100
AcDbSpline
 70
8
 71
3
 72
8
 73
4
 74
0
 40
0
 40
0
 40
0
 40
0
 40
1
 40
1
 40
1
 40
1
 10
14.976146
 20
12.628574
 30
0.0
 10
14.976146
 20
12.597046
 30
0.0
 10
15.001704
 20
12.571488
 30
0.0
 10
15.033232
 20
12.571488
 30
0.0
  0
SPLINE
  5
17c
100
AcDbEntity
  8
Layer_1
 62
7
100
AcDbSpline
 70
8
 71
3
 72
8
 73
4
 74
0
 40
0
 40
0
 40
0
 40
0
 40
1
 40
1
 40
1
 40
1
 10
15.033232
 20
12.571488
 30
0.0
 10
15.064760
 20
12.571488
 30
0.0
 10
15.090319
 20
12.597046
 30
0.0
 10
15.090319
 20
12.628574
 30
0.0
  0
SPLINE
  5
17d
100
AcDbEntity
  8
Layer_1
 62
7
100
AcDbSpline
 70
8
 71
3
 72
8
 73
4
 74
0
 40
0
 40
0
 40
0
 40
0
 40
1
 40
1
 40
1
 40
1
 10
15.090319
 20
12.628574
 30
0.0
 10
15.090319
 20
12.660102
 30
0.0
 10
15.064760
 20
12.685661
 30
0.0
 10
15.033232
 20
12.685661
 30
0.0
  0
SPLINE
  5
17e
100
AcDbEntity
  8
Layer_1
 62
7
100
AcDbSpline
 70
8
 71
3
 72
8
 73
4
 74
0
 40
0
 40
0
 40
0
 40
0
 40
1
 40
1
 40
1
 40
1
 10
15.033232
 20
12.685661
 30
0.0
 10
15.001704
 20
12.685661
 30
0.0
 10
14.976146
 20
12.660102
 30
0.0
 10
14.976146
 20
12.628574
 30
0.0
  0
LWPOLYLINE
  5
17f
100
AcDbEntity
  8
Layer_1
 62
7
100
AcDbPolyline
 90
1
 70
1
 10
2.491962
 20
1.200513
 30
0.0
  0
SPLINE
  5
180
100
AcDbEntity
  8
Layer_1
 62
7
100
AcDbSpline
 70
8
 71
3
 72
8
 73
4
 74
0
 40
0
 40
0
 40
0
 40
0
 40
1
 40
1
 40
1
 40
1
 10
28.755656
 20
23.179743
 30
0.0
 10
28.755730
 20
23.148267
 30
0.0
 10
28.781266
 20
23.122790
 30
0.0
 10
28.812742
 20
23.122790
 30
0.0
  0
SPLINE
  5
181
100
AcDbEntity
  8
Layer_1
 62
7
100
AcDbSpline
 70
8
 71
3
 72
8
 73
4
 74
0
 40
0
 40
0
 40
0
 40
0
 40
1
 40
1
 40
1
 40
1
 10
28.812742
 20
23.122790
 30
0.0
 10
28.844218
 20
23.122790
 30
0.0
 10
28.869755
 20
23.148267
 30
0.0
 10
28.869829
 20
23.179743
 30
0.0
  0
SPLINE
  5
182
100
AcDbEntity
  8
Layer_1
 62
7
100
AcDbSpline
 70
8
 71
3
 72
8
 73
4
 74
0
 40
0
 40
0
 40
0
 40
0
 40
1
 40
1
 40
1
 40
1
 10
28.869829
 20
23.179743
 30
0.0
 10
28.869755
 20
23.211218
 30
0.0
 10
28.844218
 20
23.236696
 30
0.0
 10
28.812742
 20
23.236696
 30
0.0
  0
SPLINE
  5
183
100
AcDbEntity
  8
Layer_1
 62
7
100
AcDbSpline
 70
8
 71
3
 72
8
 73
4
 74
0
 40
0
 40
0
 40
0
 40
0
 40
1
 40
1
 40
1
 40
1
 10
28.812742
 20
23.236696
 30
0.0
 10
28.781266
 20
23.236696
 30
0.0
 10
28.755730
 20
23.211218
 30
0.0
 10
28.755656
 20
23.179743
 30
0.0
  0
LWPOLYLINE
  5
184
100
AcDbEntity
  8
Layer_1
 62
7
100
AcDbPolyline
 90
1
 70
1
 10
14.976146
 20
12.628574
 30
0.0
  0
SPLINE
  5
185
100
AcDbEntity
  8
Layer_1
 62
7
100
AcDbSpline
 70
8
 71
3
 72
8
 73
4
 74
0
 40
0
 40
0
 40
0
 40
0
 40
1
 40
1
 40
1
 40
1
 10
23.243852
 20
23.179743
 30
0.0
 10
23.243852
 20
23.159348
 30
0.0
 10
23.254732
 20
23.140502
 30
0.0
 10
23.272395
 20
23.130304
 30
0.0
  0
SPLINE
  5
186
100
AcDbEntity
  8
Layer_1
 62
7
100
AcDbSpline
 70
8
 71
3
 72
8
 73
4
 74
0
 40
0
 40
0
 40
0
 40
0
 40
1
 40
1
 40
1
 40
1
 10
23.272395
 20
23.130304
 30
0.0
 10
23.290058
 20
23.120107
 30
0.0
 10
23.311819
 20
23.120107
 30
0.0
 10
23.329482
 20
23.130304
 30
0.0
  0
SPLINE
  5
187
100
AcDbEntity
  8
Layer_1
 62
7
100
AcDbSpline
 70
8
 71
3
 72
8
 73
4
 74
0
 40
0
 40
0
 40
0
 40
0
 40
1
 40
1
 40
1
 40
1
 10
23.329482
 20
23.130304
 30
0.0
 10
23.347144
 20
23.140502
 30
0.0
 10
23.358025
 20
23.159348
 30
0.0
 10
23.358025
 20
23.179743
 30
0.0
  0
SPLINE
  5
188
100
AcDbEntity
  8
Layer_1
 62
7
100
AcDbSpline
 70
8
 71
3
 72
8
 73
4
 74
0
 40
0
 40
0
 40
0
 40
0
 40
1
 40
1
 40
1
 40
1
 10
23.358025
 20
23.179743
 30
0.0
 10
23.358025
 20
23.200138
 30
0.0
 10
23.347144
 20
23.218983
 30
0.0
 10
23.329482
 20
23.229181
 30
0.0
  0
SPLINE
  5
189
100
AcDbEntity
  8
Layer_1
 62
7
100
AcDbSpline
 70
8
 71
3
 72
8
 73
4
 74
0
 40
0
 40
0
 40
0
 40
0
 40
1
 40
1
 40
1
 40
1
 10
23.329482
 20
23.229181
 30
0.0
 10
23.311819
 20
23.239379
 30
0.0
 10
23.290058
 20
23.239379
 30
0.0
 10
23.272395
 20
23.229181
 30
0.0
  0
SPLINE
  5
18a
100
AcDbEntity
  8
Layer_1
 62
7
100
AcDbSpline
 70
8
 71
3
 72
8
 73
4
 74
0
 40
0
 40
0
 40
0
 40
0
 40
1
 40
1
 40
1
 40
1
 10
23.272395
 20
23.229181
 30
0.0
 10
23.254732
 20
23.218983
 30
0.0
 10
23.243852
 20
23.200138
 30
0.0
 10
23.243852
 20
23.179743
 30
0.0
  0
LWPOLYLINE
  5
18b
100
AcDbEntity
  8
Layer_1
 62
7
100
AcDbPolyline
 90
1
 70
1
 10
28.755656
 20
23.179743
 30
0.0
  0
SPLINE
  5
18c
100
AcDbEntity
  8
Layer_1
 62
7
100
AcDbSpline
 70
8
 71
3
 72
8
 73
4
 74
0
 40
0
 40
0
 40
0
 40
0
 40
1
 40
1
 40
1
 40
1
 10
9.464341
 20
12.628574
 30
0.0
 10
9.464341
 20
12.608179
 30
0.0
 10
9.475222
 20
12.589334
 30
0.0
 10
9.492885
 20
12.579136
 30
0.0
  0
SPLINE
  5
18d
100
AcDbEntity
  8
Layer_1
 62
7
100
AcDbSpline
 70
8
 71
3
 72
8
 73
4
 74
0
 40
0
 40
0
 40
0
 40
0
 40
1
 40
1
 40
1
 40
1
 10
9.492885
 20
12.579136
 30
0.0
 10
9.510547
 20
12.568938
 30
0.0
 10
9.532309
 20
12.568938
 30
0.0
 10
9.549971
 20
12.579136
 30
0.0
  0
SPLINE
  5
18e
100
AcDbEntity
  8
Layer_1
 62
7
100
AcDbSpline
 70
8
 71
3
 72
8
 73
4
 74
0
 40
0
 40
0
 40
0
 40
0
 40
1
 40
1
 40
1
 40
1
 10
9.549971
 20
12.579136
 30
0.0
 10
9.567634
 20
12.589334
 30
0.0
 10
9.578514
 20
12.608179
 30
0.0
 10
9.578514
 20
12.628574
 30
0.0
  0
SPLINE
  5
18f
100
AcDbEntity
  8
Layer_1
 62
7
100
AcDbSpline
 70
8
 71
3
 72
8
 73
4
 74
0
 40
0
 40
0
 40
0
 40
0
 40
1
 40
1
 40
1
 40
1
 10
9.578514
 20
12.628574
 30
0.0
 10
9.578514
 20
12.648969
 30
0.0
 10
9.567634
 20
12.667815
 30
0.0
 10
9.549971
 20
12.678013
 30
0.0
  0
SPLINE
  5
190
100
AcDbEntity
  8
Layer_1
 62
7
100
AcDbSpline
 70
8
 71
3
 72
8
 73
4
 74
0
 40
0
 40
0
 40
0
 40
0
 40
1
 40
1
 40
1
 40
1
 10
9.549971
 20
12.678013
 30
0.0
 10
9.532309
 20
12.688210
 30
0.0
 10
9.510547
 20
12.688210
 30
0.0
 10
9.492885
 20
12.678013
 30
0.0
  0
SPLINE
  5
191
100
AcDbEntity
  8
Layer_1
 62
7
100
AcDbSpline
 70
8
 71
3
 72
8
 73
4
 74
0
 40
0
 40
0
 40
0
 40
0
 40
1
 40
1
 40
1
 40
1
 10
9.492885
 20
12.678013
 30
0.0
 10
9.475222
 20
12.667815
 30
0.0
 10
9.464341
 20
12.648969
 30
0.0
 10
9.464341
 20
12.628574
 30
0.0
  0
LWPOLYLINE
  5
192
100
AcDbEntity
  8
Layer_1
 62
7
100
AcDbPolyline
 90
1
 70
1
 10
23.243852
 20
23.179743
 30
0.0
  0
SPLINE
  5
193
100
AcDbEntity
  8
Layer_1
 62
7
100
AcDbSpline
 70
8
 71
3
 72
8
 73
4
 74
0
 40
0
 40
0
 40
0
 40
0
 40
1
 40
1
 40
1
 40
1
 10
3.952537
 20
12.942924
 30
0.0
 10
3.952537
 20
12.922529
 30
0.0
 10
3.963417
 20
12.903683
 30
0.0
 10
3.981080
 20
12.893486
 30
0.0
  0
SPLINE
  5
194
100
AcDbEntity
  8
Layer_1
 62
7
100
AcDbSpline
 70
8
 71
3
 72
8
 73
4
 74
0
 40
0
 40
0
 40
0
 40
0
 40
1
 40
1
 40
1
 40
1
 10
3.981080
 20
12.893486
 30
0.0
 10
3.998743
 20
12.883288
 30
0.0
 10
4.020504
 20
12.883288
 30
0.0
 10
4.038167
 20
12.893486
 30
0.0
  0
SPLINE
  5
195
100
AcDbEntity
  8
Layer_1
 62
7
100
AcDbSpline
 70
8
 71
3
 72
8
 73
4
 74
0
 40
0
 40
0
 40
0
 40
0
 40
1
 40
1
 40
1
 40
1
 10
4.038167
 20
12.893486
 30
0.0
 10
4.055830
 20
12.903683
 30
0.0
 10
4.066711
 20
12.922529
 30
0.0
 10
4.066711
 20
12.942924
 30
0.0
  0
SPLINE
  5
196
100
AcDbEntity
  8
Layer_1
 62
7
100
AcDbSpline
 70
8
 71
3
 72
8
 73
4
 74
0
 40
0
 40
0
 40
0
 40
0
 40
1
 40
1
 40
1
 40
1
 10
4.066711
 20
12.942924
 30
0.0
 10
4.066711
 20
12.963319
 30
0.0
 10
4.055830
 20
12.982165
 30
0.0
 10
4.038167
 20
12.992363
 30
0.0
  0
SPLINE
  5
197
100
AcDbEntity
  8
Layer_1
 62
7
100
AcDbSpline
 70
8
 71
3
 72
8
 73
4
 74
0
 40
0
 40
0
 40
0
 40
0
 40
1
 40
1
 40
1
 40
1
 10
4.038167
 20
12.992363
 30
0.0
 10
4.020504
 20
13.002561
 30
0.0
 10
3.998743
 20
13.002561
 30
0.0
 10
3.981080
 20
12.992363
 30
0.0
  0
SPLINE
  5
198
100
AcDbEntity
  8
Layer_1
 62
7
100
AcDbSpline
 70
8
 71
3
 72
8
 73
4
 74
0
 40
0
 40
0
 40
0
 40
0
 40
1
 40
1
 40
1
 40
1
 10
3.981080
 20
12.992363
 30
0.0
 10
3.963417
 20
12.982165
 30
0.0
 10
3.952537
 20
12.963319
 30
0.0
 10
3.952537
 20
12.942924
 30
0.0
  0
LWPOLYLINE
  5
199
100
AcDbEntity
  8
Layer_1
 62
7
100
AcDbPolyline
 90
1
 70
1
 10
9.464341
 20
12.628574
 30
0.0
  0
SPLINE
  5
19a
100
AcDbEntity
  8
Layer_1
 62
7
100
AcDbSpline
 70
8
 71
3
 72
8
 73
4
 74
0
 40
0
 40
0
 40
0
 40
0
 40
1
 40
1
 40
1
 40
1
 10
20.487950
 20
12.628574
 30
0.0
 10
20.487950
 20
12.597046
 30
0.0
 10
20.513508
 20
12.571488
 30
0.0
 10
20.545036
 20
12.571488
 30
0.0
  0
SPLINE
  5
19b
100
AcDbEntity
  8
Layer_1
 62
7
100
AcDbSpline
 70
8
 71
3
 72
8
 73
4
 74
0
 40
0
 40
0
 40
0
 40
0
 40
1
 40
1
 40
1
 40
1
 10
20.545036
 20
12.571488
 30
0.0
 10
20.576564
 20
12.571488
 30
0.0
 10
20.602123
 20
12.597046
 30
0.0
 10
20.602123
 20
12.628574
 30
0.0
  0
SPLINE
  5
19c
100
AcDbEntity
  8
Layer_1
 62
7
100
AcDbSpline
 70
8
 71
3
 72
8
 73
4
 74
0
 40
0
 40
0
 40
0
 40
0
 40
1
 40
1
 40
1
 40
1
 10
20.602123
 20
12.628574
 30
0.0
 10
20.602123
 20
12.648969
 30
0.0
 10
20.591242
 20
12.667815
 30
0.0
 10
20.573579
 20
12.678013
 30
0.0
  0
SPLINE
  5
19d
100
AcDbEntity
  8
Layer_1
 62
7
100
AcDbSpline
 70
8
 71
3
 72
8
 73
4
 74
0
 40
0
 40
0
 40
0
 40
0
 40
1
 40
1
 40
1
 40
1
 10
20.573579
 20
12.678013
 30
0.0
 10
20.555917
 20
12.688210
 30
0.0
 10
20.534156
 20
12.688210
 30
0.0
 10
20.516493
 20
12.678013
 30
0.0
  0
SPLINE
  5
19e
100
AcDbEntity
  8
Layer_1
 62
7
100
AcDbSpline
 70
8
 71
3
 72
8
 73
4
 74
0
 40
0
 40
0
 40
0
 40
0
 40
1
 40
1
 40
1
 40
1
 10
20.516493
 20
12.678013
 30
0.0
 10
20.498830
 20
12.667815
 30
0.0
 10
20.487950
 20
12.648969
 30
0.0
 10
20.487950
 20
12.628574
 30
0.0
  0
LWPOLYLINE
  5
19f
100
AcDbEntity
  8
Layer_1
 62
7
100
AcDbPolyline
 90
1
 70
1
 10
3.952537
 20
12.942924
 30
0.0
  0
SPLINE
  5
1a0
100
AcDbEntity
  8
Layer_1
 62
7
100
AcDbSpline
 70
8
 71
3
 72
8
 73
4
 74
0
 40
0
 40
0
 40
0
 40
0
 40
1
 40
1
 40
1
 40
1
 10
12.220243
 20
23.179743
 30
0.0
 10
12.220243
 20
23.159348
 30
0.0
 10
12.231124
 20
23.140502
 30
0.0
 10
12.248787
 20
23.130304
 30
0.0
  0
SPLINE
  5
1a1
100
AcDbEntity
  8
Layer_1
 62
7
100
AcDbSpline
 70
8
 71
3
 72
8
 73
4
 74
0
 40
0
 40
0
 40
0
 40
0
 40
1
 40
1
 40
1
 40
1
 10
12.248787
 20
23.130304
 30
0.0
 10
12.266449
 20
23.120107
 30
0.0
 10
12.288211
 20
23.120107
 30
0.0
 10
12.305873
 20
23.130304
 30
0.0
  0
SPLINE
  5
1a2
100
AcDbEntity
  8
Layer_1
 62
7
100
AcDbSpline
 70
8
 71
3
 72
8
 73
4
 74
0
 40
0
 40
0
 40
0
 40
0
 40
1
 40
1
 40
1
 40
1
 10
12.305873
 20
23.130304
 30
0.0
 10
12.323536
 20
23.140502
 30
0.0
 10
12.334417
 20
23.159348
 30
0.0
 10
12.334417
 20
23.179743
 30
0.0
  0
SPLINE
  5
1a3
100
AcDbEntity
  8
Layer_1
 62
7
100
AcDbSpline
 70
8
 71
3
 72
8
 73
4
 74
0
 40
0
 40
0
 40
0
 40
0
 40
1
 40
1
 40
1
 40
1
 10
12.334417
 20
23.179743
 30
0.0
 10
12.334417
 20
23.200138
 30
0.0
 10
12.323536
 20
23.218983
 30
0.0
 10
12.305873
 20
23.229181
 30
0.0
  0
SPLINE
  5
1a4
100
AcDbEntity
  8
Layer_1
 62
7
100
AcDbSpline
 70
8
 71
3
 72
8
 73
4
 74
0
 40
0
 40
0
 40
0
 40
0
 40
1
 40
1
 40
1
 40
1
 10
12.305873
 20
23.229181
 30
0.0
 10
12.288211
 20
23.239379
 30
0.0
 10
12.266449
 20
23.239379
 30
0.0
 10
12.248787
 20
23.229181
 30
0.0
  0
SPLINE
  5
1a5
100
AcDbEntity
  8
Layer_1
 62
7
100
AcDbSpline
 70
8
 71
3
 72
8
 73
4
 74
0
 40
0
 40
0
 40
0
 40
0
 40
1
 40
1
 40
1
 40
1
 10
12.248787
 20
23.229181
 30
0.0
 10
12.231124
 20
23.218983
 30
0.0
 10
12.220243
 20
23.200138
 30
0.0
 10
12.220243
 20
23.179743
 30
0.0
  0
LWPOLYLINE
  5
1a6
100
AcDbEntity
  8
Layer_1
 62
7
100
AcDbPolyline
 90
1
 70
1
 10
20.487950
 20
12.628574
 30
0.0
  0
SPLINE
  5
1a7
100
AcDbEntity
  8
Layer_1
 62
7
100
AcDbSpline
 70
8
 71
3
 72
8
 73
4
 74
0
 40
0
 40
0
 40
0
 40
0
 40
1
 40
1
 40
1
 40
1
 10
17.732048
 20
23.179743
 30
0.0
 10
17.732048
 20
23.159348
 30
0.0
 10
17.742928
 20
23.140502
 30
0.0
 10
17.760591
 20
23.130304
 30
0.0
  0
SPLINE
  5
1a8
100
AcDbEntity
  8
Layer_1
 62
7
100
AcDbSpline
 70
8
 71
3
 72
8
 73
4
 74
0
 40
0
 40
0
 40
0
 40
0
 40
1
 40
1
 40
1
 40
1
 10
17.760591
 20
23.130304
 30
0.0
 10
17.778254
 20
23.120107
 30
0.0
 10
17.800015
 20
23.120107
 30
0.0
 10
17.817677
 20
23.130304
 30
0.0
  0
SPLINE
  5
1a9
100
AcDbEntity
  8
Layer_1
 62
7
100
AcDbSpline
 70
8
 71
3
 72
8
 73
4
 74
0
 40
0
 40
0
 40
0
 40
0
 40
1
 40
1
 40
1
 40
1
 10
17.817677
 20
23.130304
 30
0.0
 10
17.835340
 20
23.140502
 30
0.0
 10
17.846221
 20
23.159348
 30
0.0
 10
17.846221
 20
23.179743
 30
0.0
  0
SPLINE
  5
1aa
100
AcDbEntity
  8
Layer_1
 62
7
100
AcDbSpline
 70
8
 71
3
 72
8
 73
4
 74
0
 40
0
 40
0
 40
0
 40
0
 40
1
 40
1
 40
1
 40
1
 10
17.846221
 20
23.179743
 30
0.0
 10
17.846221
 20
23.200138
 30
0.0
 10
17.835340
 20
23.218983
 30
0.0
 10
17.817677
 20
23.229181
 30
0.0
  0
SPLINE
  5
1ab
100
AcDbEntity
  8
Layer_1
 62
7
100
AcDbSpline
 70
8
 71
3
 72
8
 73
4
 74
0
 40
0
 40
0
 40
0
 40
0
 40
1
 40
1
 40
1
 40
1
 10
17.817677
 20
23.229181
 30
0.0
 10
17.800015
 20
23.239379
 30
0.0
 10
17.778254
 20
23.239379
 30
0.0
 10
17.760591
 20
23.229181
 30
0.0
  0
SPLINE
  5
1ac
100
AcDbEntity
  8
Layer_1
 62
7
100
AcDbSpline
 70
8
 71
3
 72
8
 73
4
 74
0
 40
0
 40
0
 40
0
 40
0
 40
1
 40
1
 40
1
 40
1
 10
17.760591
 20
23.229181
 30
0.0
 10
17.742928
 20
23.218983
 30
0.0
 10
17.732048
 20
23.200138
 30
0.0
 10
17.732048
 20
23.179743
 30
0.0
  0
LWPOLYLINE
  5
1ad
100
AcDbEntity
  8
Layer_1
 62
7
100
AcDbPolyline
 90
1
 70
1
 10
12.220243
 20
23.179743
 30
0.0
  0
SPLINE
  5
1ae
100
AcDbEntity
  8
Layer_1
 62
7
100
AcDbSpline
 70
8
 71
3
 72
8
 73
4
 74
0
 40
0
 40
0
 40
0
 40
0
 40
1
 40
1
 40
1
 40
1
 10
6.708440
 20
23.179743
 30
0.0
 10
6.708513
 20
23.148267
 30
0.0
 10
6.734050
 20
23.122790
 30
0.0
 10
6.765526
 20
23.122790
 30
0.0
  0
SPLINE
  5
1af
100
AcDbEntity
  8
Layer_1
 62
7
100
AcDbSpline
 70
8
 71
3
 72
8
 73
4
 74
0
 40
0
 40
0
 40
0
 40
0
 40
1
 40
1
 40
1
 40
1
 10
6.765526
 20
23.122790
 30
0.0
 10
6.797002
 20
23.122790
 30
0.0
 10
6.822539
 20
23.148267
 30
0.0
 10
6.822612
 20
23.179743
 30
0.0
  0
SPLINE
  5
1b0
100
AcDbEntity
  8
Layer_1
 62
7
100
AcDbSpline
 70
8
 71
3
 72
8
 73
4
 74
0
 40
0
 40
0
 40
0
 40
0
 40
1
 40
1
 40
1
 40
1
 10
6.822612
 20
23.179743
 30
0.0
 10
6.822539
 20
23.211218
 30
0.0
 10
6.797002
 20
23.236696
 30
0.0
 10
6.765526
 20
23.236696
 30
0.0
  0
SPLINE
  5
1b1
100
AcDbEntity
  8
Layer_1
 62
7
100
AcDbSpline
 70
8
 71
3
 72
8
 73
4
 74
0
 40
0
 40
0
 40
0
 40
0
 40
1
 40
1
 40
1
 40
1
 10
6.765526
 20
23.236696
 30
0.0
 10
6.734050
 20
23.236696
 30
0.0
 10
6.708513
 20
23.211218
 30
0.0
 10
6.708440
 20
23.179743
 30
0.0
  0
LWPOLYLINE
  5
1b2
100
AcDbEntity
  8
Layer_1
 62
7
100
AcDbPolyline
 90
1
 70
1
 10
17.732048
 20
23.179743
 30
0.0
  0
SPLINE
  5
1b3
100
AcDbEntity
  8
Layer_1
 62
7
100
AcDbSpline
 70
8
 71
3
 72
8
 73
4
 74
0
 40
0
 40
0
 40
0
 40
0
 40
1
 40
1
 40
1
 40
1
 10
25.999754
 20
12.628574
 30
0.0
 10
25.999754
 20
12.608179
 30
0.0
 10
26.010634
 20
12.589334
 30
0.0
 10
26.028297
 20
12.579136
 30
0.0
  0
SPLINE
  5
1b4
100
AcDbEntity
  8
Layer_1
 62
7
100
AcDbSpline
 70
8
 71
3
 72
8
 73
4
 74
0
 40
0
 40
0
 40
0
 40
0
 40
1
 40
1
 40
1
 40
1
 10
26.028297
 20
12.579136
 30
0.0
 10
26.045960
 20
12.568938
 30
0.0
 10
26.067721
 20
12.568938
 30
0.0
 10
26.085384
 20
12.579136
 30
0.0
  0
SPLINE
  5
1b5
100
AcDbEntity
  8
Layer_1
 62
7
100
AcDbSpline
 70
8
 71
3
 72
8
 73
4
 74
0
 40
0
 40
0
 40
0
 40
0
 40
1
 40
1
 40
1
 40
1
 10
26.085384
 20
12.579136
 30
0.0
 10
26.103046
 20
12.589334
 30
0.0
 10
26.113927
 20
12.608179
 30
0.0
 10
26.113927
 20
12.628574
 30
0.0
  0
SPLINE
  5
1b6
100
AcDbEntity
  8
Layer_1
 62
7
100
AcDbSpline
 70
8
 71
3
 72
8
 73
4
 74
0
 40
0
 40
0
 40
0
 40
0
 40
1
 40
1
 40
1
 40
1
 10
26.113927
 20
12.628574
 30
0.0
 10
26.113927
 20
12.648969
 30
0.0
 10
26.103046
 20
12.667815
 30
0.0
 10
26.085384
 20
12.678013
 30
0.0
  0
SPLINE
  5
1b7
100
AcDbEntity
  8
Layer_1
 62
7
100
AcDbSpline
 70
8
 71
3
 72
8
 73
4
 74
0
 40
0
 40
0
 40
0
 40
0
 40
1
 40
1
 40
1
 40
1
 10
26.085384
 20
12.678013
 30
0.0
 10
26.067721
 20
12.688210
 30
0.0
 10
26.045960
 20
12.688210
 30
0.0
 10
26.028297
 20
12.678013
 30
0.0
  0
SPLINE
  5
1b8
100
AcDbEntity
  8
Layer_1
 62
7
100
AcDbSpline
 70
8
 71
3
 72
8
 73
4
 74
0
 40
0
 40
0
 40
0
 40
0
 40
1
 40
1
 40
1
 40
1
 10
26.028297
 20
12.678013
 30
0.0
 10
26.010634
 20
12.667815
 30
0.0
 10
25.999754
 20
12.648969
 30
0.0
 10
25.999754
 20
12.628574
 30
0.0
  0
LWPOLYLINE
  5
1b9
100
AcDbEntity
  8
Layer_1
 62
7
100
AcDbPolyline
 90
1
 70
1
 10
6.708440
 20
23.179743
 30
0.0
  0
SPLINE
  5
1ba
100
AcDbEntity
  8
Layer_1
 62
7
100
AcDbSpline
 70
8
 71
3
 72
8
 73
4
 74
0
 40
0
 40
0
 40
0
 40
0
 40
1
 40
1
 40
1
 40
1
 10
0.645454
 20
20.660060
 30
0.0
 10
0.645454
 20
20.639665
 30
0.0
 10
0.656335
 20
20.620819
 30
0.0
 10
0.673998
 20
20.610622
 30
0.0
  0
SPLINE
  5
1bb
100
AcDbEntity
  8
Layer_1
 62
7
100
AcDbSpline
 70
8
 71
3
 72
8
 73
4
 74
0
 40
0
 40
0
 40
0
 40
0
 40
1
 40
1
 40
1
 40
1
 10
0.673998
 20
20.610622
 30
0.0
 10
0.691661
 20
20.600424
 30
0.0
 10
0.713422
 20
20.600424
 30
0.0
 10
0.731085
 20
20.610622
 30
0.0
  0
SPLINE
  5
1bc
100
AcDbEntity
  8
Layer_1
 62
7
100
AcDbSpline
 70
8
 71
3
 72
8
 73
4
 74
0
 40
0
 40
0
 40
0
 40
0
 40
1
 40
1
 40
1
 40
1
 10
0.731085
 20
20.610622
 30
0.0
 10
0.748748
 20
20.620819
 30
0.0
 10
0.759628
 20
20.639665
 30
0.0
 10
0.759628
 20
20.660060
 30
0.0
  0
SPLINE
  5
1bd
100
AcDbEntity
  8
Layer_1
 62
7
100
AcDbSpline
 70
8
 71
3
 72
8
 73
4
 74
0
 40
0
 40
0
 40
0
 40
0
 40
1
 40
1
 40
1
 40
1
 10
0.759628
 20
20.660060
 30
0.0
 10
0.759628
 20
20.680456
 30
0.0
 10
0.748748
 20
20.699301
 30
0.0
 10
0.731085
 20
20.709499
 30
0.0
  0
SPLINE
  5
1be
100
AcDbEntity
  8
Layer_1
 62
7
100
AcDbSpline
 70
8
 71
3
 72
8
 73
4
 74
0
 40
0
 40
0
 40
0
 40
0
 40
1
 40
1
 40
1
 40
1
 10
0.731085
 20
20.709499
 30
0.0
 10
0.713422
 20
20.719697
 30
0.0
 10
0.691661
 20
20.719697
 30
0.0
 10
0.673998
 20
20.709499
 30
0.0
  0
SPLINE
  5
1bf
100
AcDbEntity
  8
Layer_1
 62
7
100
AcDbSpline
 70
8
 71
3
 72
8
 73
4
 74
0
 40
0
 40
0
 40
0
 40
0
 40
1
 40
1
 40
1
 40
1
 10
0.673998
 20
20.709499
 30
0.0
 10
0.656335
 20
20.699301
 30
0.0
 10
0.645454
 20
20.680456
 30
0.0
 10
0.645454
 20
20.660060
 30
0.0
  0
LWPOLYLINE
  5
1c0
100
AcDbEntity
  8
Layer_1
 62
7
100
AcDbPolyline
 90
1
 70
1
 10
25.999754
 20
12.628574
 30
0.0
  0
LWPOLYLINE
  5
1c1
100
AcDbEntity
  8
Layer_1
 62
7
100
AcDbPolyline
 90
1
 70
1
 10
0.645454
 20
20.660060
 30
0.0
  0
SPLINE
  5
1c2
100
AcDbEntity
  8
Layer_1
 62
7
100
AcDbSpline
 70
8
 71
3
 72
8
 73
4
 74
0
 40
0
 40
0
 40
0
 40
0
 40
1
 40
1
 40
1
 40
1
 10
4.816569
 20
14.204691
 30
0.0
 10
5.178309
 20
13.457508
 30
0.0
 10
5.935381
 20
12.982905
 30
0.0
 10
6.765526
 20
12.982905
 30
0.0
  0
LWPOLYLINE
  5
1c3
100
AcDbEntity
  8
Layer_1
 62
7
100
AcDbPolyline
 90
3
 70
0
 10
28.812766
 20
11.998659
 30
0.0
 10
28.812766
 20
12.982907
 30
0.0
 10
6.765502
 20
12.982907
 30
0.0
  0
SPLINE
  5
1c4
100
AcDbEntity
  8
Layer_1
 62
7
100
AcDbSpline
 70
8
 71
3
 72
8
 73
4
 74
0
 40
0
 40
0
 40
0
 40
0
 40
1
 40
1
 40
1
 40
1
 10
3.119536
 20
22.034181
 30
0.0
 10
2.664596
 20
22.000183
 30
0.0
 10
2.255973
 20
21.743221
 30
0.0
 10
2.028238
 20
21.347920
 30
0.0
  0
SPLINE
  5
1c5
100
AcDbEntity
  8
Layer_1
 62
7
100
AcDbSpline
 70
8
 71
3
 72
8
 73
4
 74
0
 40
0
 40
0
 40
0
 40
0
 40
1
 40
1
 40
1
 40
1
 10
2.028238
 20
21.347920
 30
0.0
 10
1.800504
 20
20.952619
 30
0.0
 10
1.783182
 20
20.470227
 30
0.0
 10
1.981978
 20
20.059610
 30
0.0
  0
LWPOLYLINE
  5
1c6
100
AcDbEntity
  8
Layer_1
 62
7
100
AcDbPolyline
 90
2
 70
0
 10
4.816546
 20
14.204687
 30
0.0
 10
1.981966
 20
20.059576
 30
0.0
  0
SPLINE
  5
1c7
100
AcDbEntity
  8
Layer_1
 62
7
100
AcDbSpline
 70
8
 71
3
 72
8
 73
4
 74
0
 40
0
 40
0
 40
0
 40
0
 40
1
 40
1
 40
1
 40
1
 10
9.521428
 20
22.825412
 30
0.0
 10
9.430731
 20
22.825412
 30
0.0
 10
9.340124
 20
22.819714
 30
0.0
 10
9.250142
 20
22.808351
 30
0.0
  0
LWPOLYLINE
  5
1c8
100
AcDbEntity
  8
Layer_1
 62
7
100
AcDbPolyline
 90
2
 70
0
 10
3.119569
 20
22.034157
 30
0.0
 10
9.250145
 20
22.808322
 30
0.0
  0
SPLINE
  5
1c9
100
AcDbEntity
  8
Layer_1
 62
7
100
AcDbSpline
 70
8
 71
3
 72
8
 73
4
 74
0
 40
0
 40
0
 40
0
 40
0
 40
1
 40
1
 40
1
 40
1
 10
26.328126
 20
22.808351
 30
0.0
 10
26.238144
 20
22.819714
 30
0.0
 10
26.147537
 20
22.825412
 30
0.0
 10
26.056840
 20
22.825412
 30
0.0
  0
LWPOLYLINE
  5
1ca
100
AcDbEntity
  8
Layer_1
 62
7
100
AcDbPolyline
 90
2
 70
0
 10
9.521426
 20
22.825406
 30
0.0
 10
26.056843
 20
22.825406
 30
0.0
  0
SPLINE
  5
1cb
100
AcDbEntity
  8
Layer_1
 62
7
100
AcDbSpline
 70
8
 71
3
 72
8
 73
4
 74
0
 40
0
 40
0
 40
0
 40
0
 40
1
 40
1
 40
1
 40
1
 10
3.222223
 20
23.809663
 30
0.0
 10
3.214428
 20
23.809663
 30
0.0
 10
3.206649
 20
23.809663
 30
0.0
 10
3.048414
 20
23.808457
 30
0.0
  0
SPLINE
  5
1cc
100
AcDbEntity
  8
Layer_1
 62
7
100
AcDbSpline
 70
8
 71
3
 72
8
 73
4
 74
0
 40
0
 40
0
 40
0
 40
0
 40
1
 40
1
 40
1
 40
1
 10
3.048414
 20
23.808457
 30
0.0
 10
3.048414
 20
23.808457
 30
0.0
 10
2.903192
 20
23.796595
 30
0.0
 10
2.356261
 20
23.715719
 30
0.0
  0
SPLINE
  5
1cd
100
AcDbEntity
  8
Layer_1
 62
7
100
AcDbSpline
 70
8
 71
3
 72
8
 73
4
 74
0
 40
0
 40
0
 40
0
 40
0
 40
1
 40
1
 40
1
 40
1
 10
2.356261
 20
23.715719
 30
0.0
 10
2.356261
 20
23.715719
 30
0.0
 10
1.978732
 20
23.578043
 30
0.0
 10
1.287174
 20
23.173153
 30
0.0
  0
SPLINE
  5
1ce
100
AcDbEntity
  8
Layer_1
 62
7
100
AcDbSpline
 70
8
 71
3
 72
8
 73
4
 74
0
 40
0
 40
0
 40
0
 40
0
 40
1
 40
1
 40
1
 40
1
 10
1.287174
 20
23.173153
 30
0.0
 10
1.287174
 20
23.173153
 30
0.0
 10
0.986718
 20
22.900991
 30
0.0
 10
0.493763
 20
22.256138
 30
0.0
  0
SPLINE
  5
1cf
100
AcDbEntity
  8
Layer_1
 62
7
100
AcDbSpline
 70
8
 71
3
 72
8
 73
4
 74
0
 40
0
 40
0
 40
0
 40
0
 40
1
 40
1
 40
1
 40
1
 10
0.493763
 20
22.256138
 30
0.0
 10
0.493763
 20
22.256138
 30
0.0
 10
0.317289
 20
21.883550
 30
0.0
 10
0.216215
 20
21.500750
 30
0.0
  0
SPLINE
  5
1d0
100
AcDbEntity
  8
Layer_1
 62
7
100
AcDbSpline
 70
8
 71
3
 72
8
 73
4
 74
0
 40
0
 40
0
 40
0
 40
0
 40
1
 40
1
 40
1
 40
1
 10
0.216215
 20
21.500750
 30
0.0
 10
0.162333
 20
21.296679
 30
0.0
 10
0.129380
 20
21.087693
 30
0.0
 10
0.117710
 20
20.876942
 30
0.0
  0
SPLINE
  5
1d1
100
AcDbEntity
  8
Layer_1
 62
7
100
AcDbSpline
 70
8
 71
3
 72
8
 73
4
 74
0
 40
0
 40
0
 40
0
 40
0
 40
1
 40
1
 40
1
 40
1
 10
0.117710
 20
20.876942
 30
0.0
 10
0.105884
 20
20.663360
 30
0.0
 10
0.116304
 20
20.456504
 30
0.0
 10
0.144600
 20
20.258428
 30
0.0
  0
SPLINE
  5
1d2
100
AcDbEntity
  8
Layer_1
 62
7
100
AcDbSpline
 70
8
 71
3
 72
8
 73
4
 74
0
 40
0
 40
0
 40
0
 40
0
 40
1
 40
1
 40
1
 40
1
 10
0.144600
 20
20.258428
 30
0.0
 10
0.146140
 20
20.247642
 30
0.0
 10
0.147551
 20
20.237632
 30
0.0
 10
0.151227
 20
20.214264
 30
0.0
  0
SPLINE
  5
1d3
100
AcDbEntity
  8
Layer_1
 62
7
100
AcDbSpline
 70
8
 71
3
 72
8
 73
4
 74
0
 40
0
 40
0
 40
0
 40
0
 40
1
 40
1
 40
1
 40
1
 10
0.151227
 20
20.214264
 30
0.0
 10
0.158236
 20
20.169701
 30
0.0
 10
0.172916
 20
20.076467
 30
0.0
 10
0.210642
 20
19.836345
 30
0.0
  0
SPLINE
  5
1d4
100
AcDbEntity
  8
Layer_1
 62
7
100
AcDbSpline
 70
8
 71
3
 72
8
 73
4
 74
0
 40
0
 40
0
 40
0
 40
0
 40
1
 40
1
 40
1
 40
1
 10
0.210642
 20
19.836345
 30
0.0
 10
0.304449
 20
19.239274
 30
0.0
 10
0.391989
 20
18.679488
 30
0.0
 10
0.476916
 20
18.129061
 30
0.0
  0
SPLINE
  5
1d5
100
AcDbEntity
  8
Layer_1
 62
7
100
AcDbSpline
 70
8
 71
3
 72
8
 73
4
 74
0
 40
0
 40
0
 40
0
 40
0
 40
1
 40
1
 40
1
 40
1
 10
0.476916
 20
18.129061
 30
0.0
 10
0.650041
 20
17.007003
 30
0.0
 10
0.832418
 20
15.791504
 30
0.0
 10
0.978114
 20
14.726762
 30
0.0
  0
SPLINE
  5
1d6
100
AcDbEntity
  8
Layer_1
 62
7
100
AcDbSpline
 70
8
 71
3
 72
8
 73
4
 74
0
 40
0
 40
0
 40
0
 40
0
 40
1
 40
1
 40
1
 40
1
 10
0.978114
 20
14.726762
 30
0.0
 10
0.979125
 20
14.719352
 30
0.0
 10
0.980238
 20
14.711241
 30
0.0
 10
0.981437
 20
14.702460
 30
0.0
  0
SPLINE
  5
1d7
100
AcDbEntity
  8
Layer_1
 62
7
100
AcDbSpline
 70
8
 71
3
 72
8
 73
4
 74
0
 40
0
 40
0
 40
0
 40
0
 40
1
 40
1
 40
1
 40
1
 10
0.981437
 20
14.702460
 30
0.0
 10
0.996182
 20
14.594535
 30
0.0
 10
1.030061
 20
14.386261
 30
0.0
 10
1.109948
 20
14.141234
 30
0.0
  0
SPLINE
  5
1d8
100
AcDbEntity
  8
Layer_1
 62
7
100
AcDbSpline
 70
8
 71
3
 72
8
 73
4
 74
0
 40
0
 40
0
 40
0
 40
0
 40
1
 40
1
 40
1
 40
1
 10
1.109948
 20
14.141234
 30
0.0
 10
1.235540
 20
13.756020
 30
0.0
 10
1.428696
 20
13.412655
 30
0.0
 10
1.669606
 20
13.120456
 30
0.0
  0
SPLINE
  5
1d9
100
AcDbEntity
  8
Layer_1
 62
7
100
AcDbSpline
 70
8
 71
3
 72
8
 73
4
 74
0
 40
0
 40
0
 40
0
 40
0
 40
1
 40
1
 40
1
 40
1
 10
1.669606
 20
13.120456
 30
0.0
 10
1.932529
 20
12.801559
 30
0.0
 10
2.246801
 20
12.549947
 30
0.0
 10
2.587187
 20
12.366848
 30
0.0
  0
SPLINE
  5
1da
100
AcDbEntity
  8
Layer_1
 62
7
100
AcDbSpline
 70
8
 71
3
 72
8
 73
4
 74
0
 40
0
 40
0
 40
0
 40
0
 40
1
 40
1
 40
1
 40
1
 10
2.587187
 20
12.366848
 30
0.0
 10
2.959526
 20
12.166561
 30
0.0
 10
3.355442
 20
12.052011
 30
0.0
 10
3.749081
 20
12.013462
 30
0.0
  0
SPLINE
  5
1db
100
AcDbEntity
  8
Layer_1
 62
7
100
AcDbSpline
 70
8
 71
3
 72
8
 73
4
 74
0
 40
0
 40
0
 40
0
 40
0
 40
1
 40
1
 40
1
 40
1
 10
3.749081
 20
12.013462
 30
0.0
 10
3.857230
 20
12.002870
 30
0.0
 10
3.922087
 20
11.998654
 30
0.0
 10
4.052434
 20
11.998654
 30
0.0
  0
LWPOLYLINE
  5
1dc
100
AcDbEntity
  8
Layer_1
 62
7
100
AcDbPolyline
 90
4
 70
0
 10
26.328124
 20
22.808322
 30
0.0
 10
32.356095
 20
22.047177
 30
0.0
 10
32.356095
 20
23.809675
 30
0.0
 10
3.222173
 20
23.809675
 30
0.0
  0
SPLINE
  5
1dd
100
AcDbEntity
  8
Layer_1
 62
7
100
AcDbSpline
 70
8
 71
3
 72
8
 73
4
 74
0
 40
0
 40
0
 40
0
 40
0
 40
1
 40
1
 40
1
 40
1
 10
27.937738
 20
12.487427
 30
0.0
 10
27.937839
 20
12.377422
 30
0.0
 10
28.027044
 20
12.288299
 30
0.0
 10
28.137049
 20
12.288299
 30
0.0
  0
SPLINE
  5
1de
100
AcDbEntity
  8
Layer_1
 62
7
100
AcDbSpline
 70
8
 71
3
 72
8
 73
4
 74
0
 40
0
 40
0
 40
0
 40
0
 40
1
 40
1
 40
1
 40
1
 10
28.137049
 20
12.288299
 30
0.0
 10
28.247054
 20
12.288299
 30
0.0
 10
28.336259
 20
12.377422
 30
0.0
 10
28.336360
 20
12.487427
 30
0.0
  0
SPLINE
  5
1df
100
AcDbEntity
  8
Layer_1
 62
7
100
AcDbSpline
 70
8
 71
3
 72
8
 73
4
 74
0
 40
0
 40
0
 40
0
 40
0
 40
1
 40
1
 40
1
 40
1
 10
28.336360
 20
12.487427
 30
0.0
 10
28.336259
 20
12.597432
 30
0.0
 10
28.247054
 20
12.686556
 30
0.0
 10
28.137049
 20
12.686556
 30
0.0
  0
SPLINE
  5
1e0
100
AcDbEntity
  8
Layer_1
 62
7
100
AcDbSpline
 70
8
 71
3
 72
8
 73
4
 74
0
 40
0
 40
0
 40
0
 40
0
 40
1
 40
1
 40
1
 40
1
 10
28.137049
 20
12.686556
 30
0.0
 10
28.027044
 20
12.686556
 30
0.0
 10
27.937839
 20
12.597432
 30
0.0
 10
27.937738
 20
12.487427
 30
0.0
  0
LWPOLYLINE
  5
1e1
100
AcDbEntity
  8
Layer_1
 62
7
100
AcDbPolyline
 90
2
 70
0
 10
4.052485
 20
11.998659
 30
0.0
 10
28.812766
 20
11.998659
 30
0.0
  0
SPLINE
  5
1e2
100
AcDbEntity
  8
Layer_1
 62
7
100
AcDbSpline
 70
8
 71
3
 72
8
 73
4
 74
0
 40
0
 40
0
 40
0
 40
0
 40
1
 40
1
 40
1
 40
1
 10
4.021874
 20
23.054994
 30
0.0
 10
4.021975
 20
22.944989
 30
0.0
 10
4.111180
 20
22.855865
 30
0.0
 10
4.221185
 20
22.855865
 30
0.0
  0
SPLINE
  5
1e3
100
AcDbEntity
  8
Layer_1
 62
7
100
AcDbSpline
 70
8
 71
3
 72
8
 73
4
 74
0
 40
0
 40
0
 40
0
 40
0
 40
1
 40
1
 40
1
 40
1
 10
4.221185
 20
22.855865
 30
0.0
 10
4.331190
 20
22.855865
 30
0.0
 10
4.420395
 20
22.944989
 30
0.0
 10
4.420496
 20
23.054994
 30
0.0
  0
SPLINE
  5
1e4
100
AcDbEntity
  8
Layer_1
 62
7
100
AcDbSpline
 70
8
 71
3
 72
8
 73
4
 74
0
 40
0
 40
0
 40
0
 40
0
 40
1
 40
1
 40
1
 40
1
 10
4.420496
 20
23.054994
 30
0.0
 10
4.420395
 20
23.164999
 30
0.0
 10
4.331190
 20
23.254122
 30
0.0
 10
4.221185
 20
23.254122
 30
0.0
  0
SPLINE
  5
1e5
100
AcDbEntity
  8
Layer_1
 62
7
100
AcDbSpline
 70
8
 71
3
 72
8
 73
4
 74
0
 40
0
 40
0
 40
0
 40
0
 40
1
 40
1
 40
1
 40
1
 10
4.221185
 20
23.254122
 30
0.0
 10
4.111180
 20
23.254122
 30
0.0
 10
4.021975
 20
23.164999
 30
0.0
 10
4.021874
 20
23.054994
 30
0.0
  0
LWPOLYLINE
  5
1e6
100
AcDbEntity
  8
Layer_1
 62
7
100
AcDbPolyline
 90
1
 70
1
 10
27.937738
 20
12.487427
 30
0.0
  0
SPLINE
  5
1e7
100
AcDbEntity
  8
Layer_1
 62
7
100
AcDbSpline
 70
8
 71
3
 72
8
 73
4
 74
0
 40
0
 40
0
 40
0
 40
0
 40
1
 40
1
 40
1
 40
1
 10
5.807529
 20
12.545973
 30
0.0
 10
5.807529
 20
12.474766
 30
0.0
 10
5.845518
 20
12.408968
 30
0.0
 10
5.907185
 20
12.373365
 30
0.0
  0
SPLINE
  5
1e8
100
AcDbEntity
  8
Layer_1
 62
7
100
AcDbSpline
 70
8
 71
3
 72
8
 73
4
 74
0
 40
0
 40
0
 40
0
 40
0
 40
1
 40
1
 40
1
 40
1
 10
5.907185
 20
12.373365
 30
0.0
 10
5.968852
 20
12.337761
 30
0.0
 10
6.044829
 20
12.337761
 30
0.0
 10
6.106496
 20
12.373365
 30
0.0
  0
SPLINE
  5
1e9
100
AcDbEntity
  8
Layer_1
 62
7
100
AcDbSpline
 70
8
 71
3
 72
8
 73
4
 74
0
 40
0
 40
0
 40
0
 40
0
 40
1
 40
1
 40
1
 40
1
 10
6.106496
 20
12.373365
 30
0.0
 10
6.168163
 20
12.408968
 30
0.0
 10
6.206152
 20
12.474766
 30
0.0
 10
6.206152
 20
12.545973
 30
0.0
  0
SPLINE
  5
1ea
100
AcDbEntity
  8
Layer_1
 62
7
100
AcDbSpline
 70
8
 71
3
 72
8
 73
4
 74
0
 40
0
 40
0
 40
0
 40
0
 40
1
 40
1
 40
1
 40
1
 10
6.206152
 20
12.545973
 30
0.0
 10
6.206152
 20
12.617180
 30
0.0
 10
6.168163
 20
12.682978
 30
0.0
 10
6.106496
 20
12.718582
 30
0.0
  0
SPLINE
  5
1eb
100
AcDbEntity
  8
Layer_1
 62
7
100
AcDbSpline
 70
8
 71
3
 72
8
 73
4
 74
0
 40
0
 40
0
 40
0
 40
0
 40
1
 40
1
 40
1
 40
1
 10
6.106496
 20
12.718582
 30
0.0
 10
6.044829
 20
12.754185
 30
0.0
 10
5.968852
 20
12.754185
 30
0.0
 10
5.907185
 20
12.718582
 30
0.0
  0
SPLINE
  5
1ec
100
AcDbEntity
  8
Layer_1
 62
7
100
AcDbSpline
 70
8
 71
3
 72
8
 73
4
 74
0
 40
0
 40
0
 40
0
 40
0
 40
1
 40
1
 40
1
 40
1
 10
5.907185
 20
12.718582
 30
0.0
 10
5.845518
 20
12.682978
 30
0.0
 10
5.807529
 20
12.617180
 30
0.0
 10
5.807529
 20
12.545973
 30
0.0
  0
LWPOLYLINE
  5
1ed
100
AcDbEntity
  8
Layer_1
 62
7
100
AcDbPolyline
 90
1
 70
1
 10
4.021874
 20
23.054994
 30
0.0
  0
SPLINE
  5
1ee
100
AcDbEntity
  8
Layer_1
 62
7
100
AcDbSpline
 70
8
 71
3
 72
8
 73
4
 74
0
 40
0
 40
0
 40
0
 40
0
 40
1
 40
1
 40
1
 40
1
 10
31.157773
 20
23.054994
 30
0.0
 10
31.157873
 20
22.944989
 30
0.0
 10
31.247078
 20
22.855865
 30
0.0
 10
31.357083
 20
22.855865
 30
0.0
  0
SPLINE
  5
1ef
100
AcDbEntity
  8
Layer_1
 62
7
100
AcDbSpline
 70
8
 71
3
 72
8
 73
4
 74
0
 40
0
 40
0
 40
0
 40
0
 40
1
 40
1
 40
1
 40
1
 10
31.357083
 20
22.855865
 30
0.0
 10
31.467089
 20
22.855865
 30
0.0
 10
31.556294
 20
22.944989
 30
0.0
 10
31.556394
 20
23.054994
 30
0.0
  0
SPLINE
  5
1f0
100
AcDbEntity
  8
Layer_1
 62
7
100
AcDbSpline
 70
8
 71
3
 72
8
 73
4
 74
0
 40
0
 40
0
 40
0
 40
0
 40
1
 40
1
 40
1
 40
1
 10
31.556394
 20
23.054994
 30
0.0
 10
31.556294
 20
23.164999
 30
0.0
 10
31.467089
 20
23.254122
 30
0.0
 10
31.357083
 20
23.254122
 30
0.0
  0
SPLINE
  5
1f1
100
AcDbEntity
  8
Layer_1
 62
7
100
AcDbSpline
 70
8
 71
3
 72
8
 73
4
 74
0
 40
0
 40
0
 40
0
 40
0
 40
1
 40
1
 40
1
 40
1
 10
31.357083
 20
23.254122
 30
0.0
 10
31.247078
 20
23.254122
 30
0.0
 10
31.157873
 20
23.164999
 30
0.0
 10
31.157773
 20
23.054994
 30
0.0
  0
LWPOLYLINE
  5
1f2
100
AcDbEntity
  8
Layer_1
 62
7
100
AcDbPolyline
 90
1
 70
1
 10
5.807529
 20
12.545973
 30
0.0
  0
SPLINE
  5
1f3
100
AcDbEntity
  8
Layer_1
 62
7
100
AcDbSpline
 70
8
 71
3
 72
8
 73
4
 74
0
 40
0
 40
0
 40
0
 40
0
 40
1
 40
1
 40
1
 40
1
 10
2.119127
 20
22.732990
 30
0.0
 10
2.119127
 20
22.661783
 30
0.0
 10
2.157115
 20
22.595985
 30
0.0
 10
2.218782
 20
22.560381
 30
0.0
  0
SPLINE
  5
1f4
100
AcDbEntity
  8
Layer_1
 62
7
100
AcDbSpline
 70
8
 71
3
 72
8
 73
4
 74
0
 40
0
 40
0
 40
0
 40
0
 40
1
 40
1
 40
1
 40
1
 10
2.218782
 20
22.560381
 30
0.0
 10
2.280449
 20
22.524778
 30
0.0
 10
2.356426
 20
22.524778
 30
0.0
 10
2.418093
 20
22.560381
 30
0.0
  0
SPLINE
  5
1f5
100
AcDbEntity
  8
Layer_1
 62
7
100
AcDbSpline
 70
8
 71
3
 72
8
 73
4
 74
0
 40
0
 40
0
 40
0
 40
0
 40
1
 40
1
 40
1
 40
1
 10
2.418093
 20
22.560381
 30
0.0
 10
2.479760
 20
22.595985
 30
0.0
 10
2.517749
 20
22.661783
 30
0.0
 10
2.517749
 20
22.732990
 30
0.0
  0
SPLINE
  5
1f6
100
AcDbEntity
  8
Layer_1
 62
7
100
AcDbSpline
 70
8
 71
3
 72
8
 73
4
 74
0
 40
0
 40
0
 40
0
 40
0
 40
1
 40
1
 40
1
 40
1
 10
2.517749
 20
22.732990
 30
0.0
 10
2.517749
 20
22.804197
 30
0.0
 10
2.479760
 20
22.869995
 30
0.0
 10
2.418093
 20
22.905599
 30
0.0
  0
SPLINE
  5
1f7
100
AcDbEntity
  8
Layer_1
 62
7
100
AcDbSpline
 70
8
 71
3
 72
8
 73
4
 74
0
 40
0
 40
0
 40
0
 40
0
 40
1
 40
1
 40
1
 40
1
 10
2.418093
 20
22.905599
 30
0.0
 10
2.356426
 20
22.941202
 30
0.0
 10
2.280449
 20
22.941202
 30
0.0
 10
2.218782
 20
22.905599
 30
0.0
  0
SPLINE
  5
1f8
100
AcDbEntity
  8
Layer_1
 62
7
100
AcDbSpline
 70
8
 71
3
 72
8
 73
4
 74
0
 40
0
 40
0
 40
0
 40
0
 40
1
 40
1
 40
1
 40
1
 10
2.218782
 20
22.905599
 30
0.0
 10
2.157115
 20
22.869995
 30
0.0
 10
2.119127
 20
22.804197
 30
0.0
 10
2.119127
 20
22.732990
 30
0.0
  0
LWPOLYLINE
  5
1f9
100
AcDbEntity
  8
Layer_1
 62
7
100
AcDbPolyline
 90
1
 70
1
 10
31.157773
 20
23.054994
 30
0.0
  0
SPLINE
  5
1fa
100
AcDbEntity
  8
Layer_1
 62
7
100
AcDbSpline
 70
8
 71
3
 72
8
 73
4
 74
0
 40
0
 40
0
 40
0
 40
0
 40
1
 40
1
 40
1
 40
1
 10
7.241909
 20
12.487427
 30
0.0
 10
7.242009
 20
12.377422
 30
0.0
 10
7.331214
 20
12.288299
 30
0.0
 10
7.441219
 20
12.288299
 30
0.0
  0
SPLINE
  5
1fb
100
AcDbEntity
  8
Layer_1
 62
7
100
AcDbSpline
 70
8
 71
3
 72
8
 73
4
 74
0
 40
0
 40
0
 40
0
 40
0
 40
1
 40
1
 40
1
 40
1
 10
7.441219
 20
12.288299
 30
0.0
 10
7.551225
 20
12.288299
 30
0.0
 10
7.640430
 20
12.377422
 30
0.0
 10
7.640530
 20
12.487427
 30
0.0
  0
SPLINE
  5
1fc
100
AcDbEntity
  8
Layer_1
 62
7
100
AcDbSpline
 70
8
 71
3
 72
8
 73
4
 74
0
 40
0
 40
0
 40
0
 40
0
 40
1
 40
1
 40
1
 40
1
 10
7.640530
 20
12.487427
 30
0.0
 10
7.640430
 20
12.597432
 30
0.0
 10
7.551225
 20
12.686556
 30
0.0
 10
7.441219
 20
12.686556
 30
0.0
  0
SPLINE
  5
1fd
100
AcDbEntity
  8
Layer_1
 62
7
100
AcDbSpline
 70
8
 71
3
 72
8
 73
4
 74
0
 40
0
 40
0
 40
0
 40
0
 40
1
 40
1
 40
1
 40
1
 10
7.441219
 20
12.686556
 30
0.0
 10
7.331214
 20
12.686556
 30
0.0
 10
7.242009
 20
12.597432
 30
0.0
 10
7.241909
 20
12.487427
 30
0.0
  0
LWPOLYLINE
  5
1fe
100
AcDbEntity
  8
Layer_1
 62
7
100
AcDbPolyline
 90
1
 70
1
 10
2.119127
 20
22.732990
 30
0.0
  0
SPLINE
  5
1ff
100
AcDbEntity
  8
Layer_1
 62
7
100
AcDbSpline
 70
8
 71
3
 72
8
 73
4
 74
0
 40
0
 40
0
 40
0
 40
0
 40
1
 40
1
 40
1
 40
1
 10
14.375699
 20
5.315563
 30
0.0
 10
14.371080
 20
5.284375
 30
0.0
 10
14.392618
 20
5.255348
 30
0.0
 10
14.423806
 20
5.250729
 30
0.0
  0
SPLINE
  5
200
100
AcDbEntity
  8
Layer_1
 62
7
100
AcDbSpline
 70
8
 71
3
 72
8
 73
4
 74
0
 40
0
 40
0
 40
0
 40
0
 40
1
 40
1
 40
1
 40
1
 10
14.423806
 20
5.250729
 30
0.0
 10
14.454994
 20
5.246110
 30
0.0
 10
14.484021
 20
5.267648
 30
0.0
 10
14.488640
 20
5.298835
 30
0.0
  0
SPLINE
  5
201
100
AcDbEntity
  8
Layer_1
 62
7
100
AcDbSpline
 70
8
 71
3
 72
8
 73
4
 74
0
 40
0
 40
0
 40
0
 40
0
 40
1
 40
1
 40
1
 40
1
 10
14.488640
 20
5.298835
 30
0.0
 10
14.493260
 20
5.330023
 30
0.0
 10
14.471722
 20
5.359051
 30
0.0
 10
14.440534
 20
5.363670
 30
0.0
  0
SPLINE
  5
202
100
AcDbEntity
  8
Layer_1
 62
7
100
AcDbSpline
 70
8
 71
3
 72
8
 73
4
 74
0
 40
0
 40
0
 40
0
 40
0
 40
1
 40
1
 40
1
 40
1
 10
14.440534
 20
5.363670
 30
0.0
 10
14.409346
 20
5.368289
 30
0.0
 10
14.380319
 20
5.346751
 30
0.0
 10
14.375699
 20
5.315563
 30
0.0
  0
LWPOLYLINE
  5
203
100
AcDbEntity
  8
Layer_1
 62
7
100
AcDbPolyline
 90
1
 70
1
 10
7.241909
 20
12.487427
 30
0.0
  0
SPLINE
  5
204
100
AcDbEntity
  8
Layer_1
 62
7
100
AcDbSpline
 70
8
 71
3
 72
8
 73
4
 74
0
 40
0
 40
0
 40
0
 40
0
 40
1
 40
1
 40
1
 40
1
 10
30.778742
 20
3.203859
 30
0.0
 10
30.775753
 20
3.183684
 30
0.0
 10
30.783756
 20
3.163447
 30
0.0
 10
30.799734
 20
3.150772
 30
0.0
  0
SPLINE
  5
205
100
AcDbEntity
  8
Layer_1
 62
7
100
AcDbSpline
 70
8
 71
3
 72
8
 73
4
 74
0
 40
0
 40
0
 40
0
 40
0
 40
1
 40
1
 40
1
 40
1
 10
30.799734
 20
3.150772
 30
0.0
 10
30.815712
 20
3.138096
 30
0.0
 10
30.837238
 20
3.134908
 30
0.0
 10
30.856205
 20
3.142408
 30
0.0
  0
SPLINE
  5
206
100
AcDbEntity
  8
Layer_1
 62
7
100
AcDbSpline
 70
8
 71
3
 72
8
 73
4
 74
0
 40
0
 40
0
 40
0
 40
0
 40
1
 40
1
 40
1
 40
1
 10
30.856205
 20
3.142408
 30
0.0
 10
30.875171
 20
3.149907
 30
0.0
 10
30.888695
 20
3.166956
 30
0.0
 10
30.891683
 20
3.187131
 30
0.0
  0
SPLINE
  5
207
100
AcDbEntity
  8
Layer_1
 62
7
100
AcDbSpline
 70
8
 71
3
 72
8
 73
4
 74
0
 40
0
 40
0
 40
0
 40
0
 40
1
 40
1
 40
1
 40
1
 10
30.891683
 20
3.187131
 30
0.0
 10
30.894672
 20
3.207306
 30
0.0
 10
30.886669
 20
3.227543
 30
0.0
 10
30.870691
 20
3.240218
 30
0.0
  0
SPLINE
  5
208
100
AcDbEntity
  8
Layer_1
 62
7
100
AcDbSpline
 70
8
 71
3
 72
8
 73
4
 74
0
 40
0
 40
0
 40
0
 40
0
 40
1
 40
1
 40
1
 40
1
 10
30.870691
 20
3.240218
 30
0.0
 10
30.854713
 20
3.252894
 30
0.0
 10
30.833187
 20
3.256082
 30
0.0
 10
30.814220
 20
3.248582
 30
0.0
  0
SPLINE
  5
209
100
AcDbEntity
  8
Layer_1
 62
7
100
AcDbSpline
 70
8
 71
3
 72
8
 73
4
 74
0
 40
0
 40
0
 40
0
 40
0
 40
1
 40
1
 40
1
 40
1
 10
30.814220
 20
3.248582
 30
0.0
 10
30.795254
 20
3.241082
 30
0.0
 10
30.781730
 20
3.224034
 30
0.0
 10
30.778742
 20
3.203859
 30
0.0
  0
LWPOLYLINE
  5
20a
100
AcDbEntity
  8
Layer_1
 62
7
100
AcDbPolyline
 90
1
 70
1
 10
14.375699
 20
5.315563
 30
0.0
  0
SPLINE
  5
20b
100
AcDbEntity
  8
Layer_1
 62
7
100
AcDbSpline
 70
8
 71
3
 72
8
 73
4
 74
0
 40
0
 40
0
 40
0
 40
0
 40
1
 40
1
 40
1
 40
1
 10
29.552410
 20
13.733993
 30
0.0
 10
29.547872
 20
13.702846
 30
0.0
 10
29.569400
 20
13.673902
 30
0.0
 10
29.600536
 20
13.669291
 30
0.0
  0
SPLINE
  5
20c
100
AcDbEntity
  8
Layer_1
 62
7
100
AcDbSpline
 70
8
 71
3
 72
8
 73
4
 74
0
 40
0
 40
0
 40
0
 40
0
 40
1
 40
1
 40
1
 40
1
 10
29.600536
 20
13.669291
 30
0.0
 10
29.631673
 20
13.664679
 30
0.0
 10
29.660667
 20
13.686140
 30
0.0
 10
29.665351
 20
13.717265
 30
0.0
  0
SPLINE
  5
20d
100
AcDbEntity
  8
Layer_1
 62
7
100
AcDbSpline
 70
8
 71
3
 72
8
 73
4
 74
0
 40
0
 40
0
 40
0
 40
0
 40
1
 40
1
 40
1
 40
1
 10
29.665351
 20
13.717265
 30
0.0
 10
29.669890
 20
13.748412
 30
0.0
 10
29.648361
 20
13.777356
 30
0.0
 10
29.617225
 20
13.781968
 30
0.0
  0
SPLINE
  5
20e
100
AcDbEntity
  8
Layer_1
 62
7
100
AcDbSpline
 70
8
 71
3
 72
8
 73
4
 74
0
 40
0
 40
0
 40
0
 40
0
 40
1
 40
1
 40
1
 40
1
 10
29.617225
 20
13.781968
 30
0.0
 10
29.586089
 20
13.786579
 30
0.0
 10
29.557095
 20
13.765119
 30
0.0
 10
29.552410
 20
13.733993
 30
0.0
  0
LWPOLYLINE
  5
20f
100
AcDbEntity
  8
Layer_1
 62
7
100
AcDbPolyline
 90
1
 70
1
 10
30.778742
 20
3.203859
 30
0.0
  0
SPLINE
  5
210
100
AcDbEntity
  8
Layer_1
 62
7
100
AcDbSpline
 70
8
 71
3
 72
8
 73
4
 74
0
 40
0
 40
0
 40
0
 40
0
 40
1
 40
1
 40
1
 40
1
 10
24.100082
 20
14.541547
 30
0.0
 10
24.097093
 20
14.521372
 30
0.0
 10
24.105096
 20
14.501136
 30
0.0
 10
24.121074
 20
14.488460
 30
0.0
  0
SPLINE
  5
211
100
AcDbEntity
  8
Layer_1
 62
7
100
AcDbSpline
 70
8
 71
3
 72
8
 73
4
 74
0
 40
0
 40
0
 40
0
 40
0
 40
1
 40
1
 40
1
 40
1
 10
24.121074
 20
14.488460
 30
0.0
 10
24.137051
 20
14.475785
 30
0.0
 10
24.158578
 20
14.472597
 30
0.0
 10
24.177544
 20
14.480096
 30
0.0
  0
SPLINE
  5
212
100
AcDbEntity
  8
Layer_1
 62
7
100
AcDbSpline
 70
8
 71
3
 72
8
 73
4
 74
0
 40
0
 40
0
 40
0
 40
0
 40
1
 40
1
 40
1
 40
1
 10
24.177544
 20
14.480096
 30
0.0
 10
24.196510
 20
14.487596
 30
0.0
 10
24.210035
 20
14.504644
 30
0.0
 10
24.213023
 20
14.524819
 30
0.0
  0
SPLINE
  5
213
100
AcDbEntity
  8
Layer_1
 62
7
100
AcDbSpline
 70
8
 71
3
 72
8
 73
4
 74
0
 40
0
 40
0
 40
0
 40
0
 40
1
 40
1
 40
1
 40
1
 10
24.213023
 20
14.524819
 30
0.0
 10
24.216011
 20
14.544994
 30
0.0
 10
24.208009
 20
14.565231
 30
0.0
 10
24.192031
 20
14.577906
 30
0.0
  0
SPLINE
  5
214
100
AcDbEntity
  8
Layer_1
 62
7
100
AcDbSpline
 70
8
 71
3
 72
8
 73
4
 74
0
 40
0
 40
0
 40
0
 40
0
 40
1
 40
1
 40
1
 40
1
 10
24.192031
 20
14.577906
 30
0.0
 10
24.176053
 20
14.590582
 30
0.0
 10
24.154526
 20
14.593770
 30
0.0
 10
24.135560
 20
14.586270
 30
0.0
  0
SPLINE
  5
215
100
AcDbEntity
  8
Layer_1
 62
7
100
AcDbSpline
 70
8
 71
3
 72
8
 73
4
 74
0
 40
0
 40
0
 40
0
 40
0
 40
1
 40
1
 40
1
 40
1
 10
24.135560
 20
14.586270
 30
0.0
 10
24.116594
 20
14.578771
 30
0.0
 10
24.103070
 20
14.561722
 30
0.0
 10
24.100082
 20
14.541547
 30
0.0
  0
LWPOLYLINE
  5
216
100
AcDbEntity
  8
Layer_1
 62
7
100
AcDbPolyline
 90
1
 70
1
 10
29.552410
 20
13.733993
 30
0.0
  0
SPLINE
  5
217
100
AcDbEntity
  8
Layer_1
 62
7
100
AcDbSpline
 70
8
 71
3
 72
8
 73
4
 74
0
 40
0
 40
0
 40
0
 40
0
 40
1
 40
1
 40
1
 40
1
 10
8.923371
 20
6.123117
 30
0.0
 10
8.920383
 20
6.102942
 30
0.0
 10
8.928385
 20
6.082706
 30
0.0
 10
8.944363
 20
6.070031
 30
0.0
  0
SPLINE
  5
218
100
AcDbEntity
  8
Layer_1
 62
7
100
AcDbSpline
 70
8
 71
3
 72
8
 73
4
 74
0
 40
0
 40
0
 40
0
 40
0
 40
1
 40
1
 40
1
 40
1
 10
8.944363
 20
6.070031
 30
0.0
 10
8.960341
 20
6.057355
 30
0.0
 10
8.981867
 20
6.054167
 30
0.0
 10
9.000833
 20
6.061667
 30
0.0
  0
SPLINE
  5
219
100
AcDbEntity
  8
Layer_1
 62
7
100
AcDbSpline
 70
8
 71
3
 72
8
 73
4
 74
0
 40
0
 40
0
 40
0
 40
0
 40
1
 40
1
 40
1
 40
1
 10
9.000833
 20
6.061667
 30
0.0
 10
9.019799
 20
6.069166
 30
0.0
 10
9.033324
 20
6.086215
 30
0.0
 10
9.036312
 20
6.106390
 30
0.0
  0
SPLINE
  5
21a
100
AcDbEntity
  8
Layer_1
 62
7
100
AcDbSpline
 70
8
 71
3
 72
8
 73
4
 74
0
 40
0
 40
0
 40
0
 40
0
 40
1
 40
1
 40
1
 40
1
 10
9.036312
 20
6.106390
 30
0.0
 10
9.039300
 20
6.126564
 30
0.0
 10
9.031298
 20
6.146801
 30
0.0
 10
9.015320
 20
6.159476
 30
0.0
  0
SPLINE
  5
21b
100
AcDbEntity
  8
Layer_1
 62
7
100
AcDbSpline
 70
8
 71
3
 72
8
 73
4
 74
0
 40
0
 40
0
 40
0
 40
0
 40
1
 40
1
 40
1
 40
1
 10
9.015320
 20
6.159476
 30
0.0
 10
8.999342
 20
6.172152
 30
0.0
 10
8.977815
 20
6.175340
 30
0.0
 10
8.958849
 20
6.167840
 30
0.0
  0
SPLINE
  5
21c
100
AcDbEntity
  8
Layer_1
 62
7
100
AcDbSpline
 70
8
 71
3
 72
8
 73
4
 74
0
 40
0
 40
0
 40
0
 40
0
 40
1
 40
1
 40
1
 40
1
 10
8.958849
 20
6.167840
 30
0.0
 10
8.939883
 20
6.160341
 30
0.0
 10
8.926359
 20
6.143292
 30
0.0
 10
8.923371
 20
6.123117
 30
0.0
  0
LWPOLYLINE
  5
21d
100
AcDbEntity
  8
Layer_1
 62
7
100
AcDbPolyline
 90
1
 70
1
 10
24.100082
 20
14.541547
 30
0.0
  0
SPLINE
  5
21e
100
AcDbEntity
  8
Layer_1
 62
7
100
AcDbSpline
 70
8
 71
3
 72
8
 73
4
 74
0
 40
0
 40
0
 40
0
 40
0
 40
1
 40
1
 40
1
 40
1
 10
19.828028
 20
4.508009
 30
0.0
 10
19.823409
 20
4.476821
 30
0.0
 10
19.844947
 20
4.447794
 30
0.0
 10
19.876135
 20
4.443175
 30
0.0
  0
SPLINE
  5
21f
100
AcDbEntity
  8
Layer_1
 62
7
100
AcDbSpline
 70
8
 71
3
 72
8
 73
4
 74
0
 40
0
 40
0
 40
0
 40
0
 40
1
 40
1
 40
1
 40
1
 10
19.876135
 20
4.443175
 30
0.0
 10
19.907322
 20
4.438555
 30
0.0
 10
19.936350
 20
4.460093
 30
0.0
 10
19.940969
 20
4.491281
 30
0.0
  0
SPLINE
  5
220
100
AcDbEntity
  8
Layer_1
 62
7
100
AcDbSpline
 70
8
 71
3
 72
8
 73
4
 74
0
 40
0
 40
0
 40
0
 40
0
 40
1
 40
1
 40
1
 40
1
 10
19.940969
 20
4.491281
 30
0.0
 10
19.943957
 20
4.511456
 30
0.0
 10
19.935955
 20
4.531693
 30
0.0
 10
19.919977
 20
4.544368
 30
0.0
  0
SPLINE
  5
221
100
AcDbEntity
  8
Layer_1
 62
7
100
AcDbSpline
 70
8
 71
3
 72
8
 73
4
 74
0
 40
0
 40
0
 40
0
 40
0
 40
1
 40
1
 40
1
 40
1
 10
19.919977
 20
4.544368
 30
0.0
 10
19.903999
 20
4.557044
 30
0.0
 10
19.882473
 20
4.560232
 30
0.0
 10
19.863507
 20
4.552732
 30
0.0
  0
SPLINE
  5
222
100
AcDbEntity
  8
Layer_1
 62
7
100
AcDbSpline
 70
8
 71
3
 72
8
 73
4
 74
0
 40
0
 40
0
 40
0
 40
0
 40
1
 40
1
 40
1
 40
1
 10
19.863507
 20
4.552732
 30
0.0
 10
19.844541
 20
4.545232
 30
0.0
 10
19.831016
 20
4.528184
 30
0.0
 10
19.828028
 20
4.508009
 30
0.0
  0
LWPOLYLINE
  5
223
100
AcDbEntity
  8
Layer_1
 62
7
100
AcDbPolyline
 90
1
 70
1
 10
8.923371
 20
6.123117
 30
0.0
  0
SPLINE
  5
224
100
AcDbEntity
  8
Layer_1
 62
7
100
AcDbSpline
 70
8
 71
3
 72
8
 73
4
 74
0
 40
0
 40
0
 40
0
 40
0
 40
1
 40
1
 40
1
 40
1
 10
13.195424
 20
16.156656
 30
0.0
 10
13.192436
 20
16.136481
 30
0.0
 10
13.200438
 20
16.116244
 30
0.0
 10
13.216416
 20
16.103569
 30
0.0
  0
SPLINE
  5
225
100
AcDbEntity
  8
Layer_1
 62
7
100
AcDbSpline
 70
8
 71
3
 72
8
 73
4
 74
0
 40
0
 40
0
 40
0
 40
0
 40
1
 40
1
 40
1
 40
1
 10
13.216416
 20
16.103569
 30
0.0
 10
13.232394
 20
16.090893
 30
0.0
 10
13.253921
 20
16.087705
 30
0.0
 10
13.272887
 20
16.095205
 30
0.0
  0
SPLINE
  5
226
100
AcDbEntity
  8
Layer_1
 62
7
100
AcDbSpline
 70
8
 71
3
 72
8
 73
4
 74
0
 40
0
 40
0
 40
0
 40
0
 40
1
 40
1
 40
1
 40
1
 10
13.272887
 20
16.095205
 30
0.0
 10
13.291853
 20
16.102704
 30
0.0
 10
13.305377
 20
16.119753
 30
0.0
 10
13.308365
 20
16.139928
 30
0.0
  0
SPLINE
  5
227
100
AcDbEntity
  8
Layer_1
 62
7
100
AcDbSpline
 70
8
 71
3
 72
8
 73
4
 74
0
 40
0
 40
0
 40
0
 40
0
 40
1
 40
1
 40
1
 40
1
 10
13.308365
 20
16.139928
 30
0.0
 10
13.311354
 20
16.160103
 30
0.0
 10
13.303352
 20
16.180339
 30
0.0
 10
13.287374
 20
16.193015
 30
0.0
  0
SPLINE
  5
228
100
AcDbEntity
  8
Layer_1
 62
7
100
AcDbSpline
 70
8
 71
3
 72
8
 73
4
 74
0
 40
0
 40
0
 40
0
 40
0
 40
1
 40
1
 40
1
 40
1
 10
13.287374
 20
16.193015
 30
0.0
 10
13.271396
 20
16.205690
 30
0.0
 10
13.249869
 20
16.208878
 30
0.0
 10
13.230903
 20
16.201378
 30
0.0
  0
SPLINE
  5
229
100
AcDbEntity
  8
Layer_1
 62
7
100
AcDbSpline
 70
8
 71
3
 72
8
 73
4
 74
0
 40
0
 40
0
 40
0
 40
0
 40
1
 40
1
 40
1
 40
1
 10
13.230903
 20
16.201378
 30
0.0
 10
13.211937
 20
16.193879
 30
0.0
 10
13.198412
 20
16.176831
 30
0.0
 10
13.195424
 20
16.156656
 30
0.0
  0
LWPOLYLINE
  5
22a
100
AcDbEntity
  8
Layer_1
 62
7
100
AcDbPolyline
 90
1
 70
1
 10
19.828028
 20
4.508009
 30
0.0
  0
SPLINE
  5
22b
100
AcDbEntity
  8
Layer_1
 62
7
100
AcDbSpline
 70
8
 71
3
 72
8
 73
4
 74
0
 40
0
 40
0
 40
0
 40
0
 40
1
 40
1
 40
1
 40
1
 10
18.647753
 20
15.349101
 30
0.0
 10
18.644765
 20
15.328926
 30
0.0
 10
18.652767
 20
15.308690
 30
0.0
 10
18.668745
 20
15.296015
 30
0.0
  0
SPLINE
  5
22c
100
AcDbEntity
  8
Layer_1
 62
7
100
AcDbSpline
 70
8
 71
3
 72
8
 73
4
 74
0
 40
0
 40
0
 40
0
 40
0
 40
1
 40
1
 40
1
 40
1
 10
18.668745
 20
15.296015
 30
0.0
 10
18.684723
 20
15.283339
 30
0.0
 10
18.706249
 20
15.280151
 30
0.0
 10
18.725215
 20
15.287651
 30
0.0
  0
SPLINE
  5
22d
100
AcDbEntity
  8
Layer_1
 62
7
100
AcDbSpline
 70
8
 71
3
 72
8
 73
4
 74
0
 40
0
 40
0
 40
0
 40
0
 40
1
 40
1
 40
1
 40
1
 10
18.725215
 20
15.287651
 30
0.0
 10
18.744182
 20
15.295150
 30
0.0
 10
18.757706
 20
15.312199
 30
0.0
 10
18.760694
 20
15.332374
 30
0.0
  0
SPLINE
  5
22e
100
AcDbEntity
  8
Layer_1
 62
7
100
AcDbSpline
 70
8
 71
3
 72
8
 73
4
 74
0
 40
0
 40
0
 40
0
 40
0
 40
1
 40
1
 40
1
 40
1
 10
18.760694
 20
15.332374
 30
0.0
 10
18.763682
 20
15.352548
 30
0.0
 10
18.755680
 20
15.372785
 30
0.0
 10
18.739702
 20
15.385460
 30
0.0
  0
SPLINE
  5
22f
100
AcDbEntity
  8
Layer_1
 62
7
100
AcDbSpline
 70
8
 71
3
 72
8
 73
4
 74
0
 40
0
 40
0
 40
0
 40
0
 40
1
 40
1
 40
1
 40
1
 10
18.739702
 20
15.385460
 30
0.0
 10
18.723724
 20
15.398136
 30
0.0
 10
18.702198
 20
15.401324
 30
0.0
 10
18.683232
 20
15.393824
 30
0.0
  0
SPLINE
  5
230
100
AcDbEntity
  8
Layer_1
 62
7
100
AcDbSpline
 70
8
 71
3
 72
8
 73
4
 74
0
 40
0
 40
0
 40
0
 40
0
 40
1
 40
1
 40
1
 40
1
 10
18.683232
 20
15.393824
 30
0.0
 10
18.664266
 20
15.386325
 30
0.0
 10
18.650741
 20
15.369276
 30
0.0
 10
18.647753
 20
15.349101
 30
0.0
  0
LWPOLYLINE
  5
231
100
AcDbEntity
  8
Layer_1
 62
7
100
AcDbPolyline
 90
1
 70
1
 10
13.195424
 20
16.156656
 30
0.0
  0
SPLINE
  5
232
100
AcDbEntity
  8
Layer_1
 62
7
100
AcDbSpline
 70
8
 71
3
 72
8
 73
4
 74
0
 40
0
 40
0
 40
0
 40
0
 40
1
 40
1
 40
1
 40
1
 10
7.743096
 20
16.964210
 30
0.0
 10
7.738557
 20
16.933063
 30
0.0
 10
7.760086
 20
16.904119
 30
0.0
 10
7.791222
 20
16.899507
 30
0.0
  0
SPLINE
  5
233
100
AcDbEntity
  8
Layer_1
 62
7
100
AcDbSpline
 70
8
 71
3
 72
8
 73
4
 74
0
 40
0
 40
0
 40
0
 40
0
 40
1
 40
1
 40
1
 40
1
 10
7.791222
 20
16.899507
 30
0.0
 10
7.822358
 20
16.894896
 30
0.0
 10
7.851352
 20
16.916356
 30
0.0
 10
7.856037
 20
16.947482
 30
0.0
  0
SPLINE
  5
234
100
AcDbEntity
  8
Layer_1
 62
7
100
AcDbSpline
 70
8
 71
3
 72
8
 73
4
 74
0
 40
0
 40
0
 40
0
 40
0
 40
1
 40
1
 40
1
 40
1
 10
7.856037
 20
16.947482
 30
0.0
 10
7.860576
 20
16.978629
 30
0.0
 10
7.839047
 20
17.007572
 30
0.0
 10
7.807911
 20
17.012184
 30
0.0
  0
SPLINE
  5
235
100
AcDbEntity
  8
Layer_1
 62
7
100
AcDbSpline
 70
8
 71
3
 72
8
 73
4
 74
0
 40
0
 40
0
 40
0
 40
0
 40
1
 40
1
 40
1
 40
1
 10
7.807911
 20
17.012184
 30
0.0
 10
7.776774
 20
17.016796
 30
0.0
 10
7.747780
 20
16.995335
 30
0.0
 10
7.743096
 20
16.964210
 30
0.0
  0
LWPOLYLINE
  5
236
100
AcDbEntity
  8
Layer_1
 62
7
100
AcDbPolyline
 90
1
 70
1
 10
18.647753
 20
15.349101
 30
0.0
  0
SPLINE
  5
237
100
AcDbEntity
  8
Layer_1
 62
7
100
AcDbSpline
 70
8
 71
3
 72
8
 73
4
 74
0
 40
0
 40
0
 40
0
 40
0
 40
1
 40
1
 40
1
 40
1
 10
25.280357
 20
3.700455
 30
0.0
 10
25.277369
 20
3.680280
 30
0.0
 10
25.285371
 20
3.660043
 30
0.0
 10
25.301349
 20
3.647368
 30
0.0
  0
SPLINE
  5
238
100
AcDbEntity
  8
Layer_1
 62
7
100
AcDbSpline
 70
8
 71
3
 72
8
 73
4
 74
0
 40
0
 40
0
 40
0
 40
0
 40
1
 40
1
 40
1
 40
1
 10
25.301349
 20
3.647368
 30
0.0
 10
25.317327
 20
3.634693
 30
0.0
 10
25.338853
 20
3.631505
 30
0.0
 10
25.357819
 20
3.639004
 30
0.0
  0
SPLINE
  5
239
100
AcDbEntity
  8
Layer_1
 62
7
100
AcDbSpline
 70
8
 71
3
 72
8
 73
4
 74
0
 40
0
 40
0
 40
0
 40
0
 40
1
 40
1
 40
1
 40
1
 10
25.357819
 20
3.639004
 30
0.0
 10
25.376785
 20
3.646504
 30
0.0
 10
25.390310
 20
3.663552
 30
0.0
 10
25.393298
 20
3.683727
 30
0.0
  0
SPLINE
  5
23a
100
AcDbEntity
  8
Layer_1
 62
7
100
AcDbSpline
 70
8
 71
3
 72
8
 73
4
 74
0
 40
0
 40
0
 40
0
 40
0
 40
1
 40
1
 40
1
 40
1
 10
25.393298
 20
3.683727
 30
0.0
 10
25.396286
 20
3.703902
 30
0.0
 10
25.388284
 20
3.724139
 30
0.0
 10
25.372306
 20
3.736814
 30
0.0
  0
SPLINE
  5
23b
100
AcDbEntity
  8
Layer_1
 62
7
100
AcDbSpline
 70
8
 71
3
 72
8
 73
4
 74
0
 40
0
 40
0
 40
0
 40
0
 40
1
 40
1
 40
1
 40
1
 10
25.372306
 20
3.736814
 30
0.0
 10
25.356328
 20
3.749489
 30
0.0
 10
25.334801
 20
3.752678
 30
0.0
 10
25.315835
 20
3.745178
 30
0.0
  0
SPLINE
  5
23c
100
AcDbEntity
  8
Layer_1
 62
7
100
AcDbSpline
 70
8
 71
3
 72
8
 73
4
 74
0
 40
0
 40
0
 40
0
 40
0
 40
1
 40
1
 40
1
 40
1
 10
25.315835
 20
3.745178
 30
0.0
 10
25.296869
 20
3.737678
 30
0.0
 10
25.283345
 20
3.720630
 30
0.0
 10
25.280357
 20
3.700455
 30
0.0
  0
LWPOLYLINE
  5
23d
100
AcDbEntity
  8
Layer_1
 62
7
100
AcDbPolyline
 90
1
 70
1
 10
7.743096
 20
16.964210
 30
0.0
  0
LWPOLYLINE
  5
23e
100
AcDbEntity
  8
Layer_1
 62
7
100
AcDbPolyline
 90
1
 70
1
 10
25.280357
 20
3.700455
 30
0.0
  0
SPLINE
  5
23f
100
AcDbEntity
  8
Layer_1
 62
7
100
AcDbSpline
 70
8
 71
3
 72
8
 73
4
 74
0
 40
0
 40
0
 40
0
 40
0
 40
1
 40
1
 40
1
 40
1
 10
10.473816
 20
16.201561
 30
0.0
 10
10.384098
 20
16.214850
 30
0.0
 10
10.293634
 20
16.222488
 30
0.0
 10
10.202959
 20
16.224432
 30
0.0
  0
LWPOLYLINE
  5
240
100
AcDbEntity
  8
Layer_1
 62
7
100
AcDbPolyline
 90
3
 70
0
 10
4.386742
 20
18.098130
 30
0.0
 10
4.128512
 20
16.354651
 30
0.0
 10
10.202957
 20
16.224403
 30
0.0
  0
SPLINE
  5
241
100
AcDbEntity
  8
Layer_1
 62
7
100
AcDbSpline
 70
8
 71
3
 72
8
 73
4
 74
0
 40
0
 40
0
 40
0
 40
0
 40
1
 40
1
 40
1
 40
1
 10
27.096661
 20
13.722276
 30
0.0
 10
27.009315
 20
13.746699
 30
0.0
 10
26.920520
 20
13.765611
 30
0.0
 10
26.830802
 20
13.778899
 30
0.0
  0
LWPOLYLINE
  5
242
100
AcDbEntity
  8
Layer_1
 62
7
100
AcDbPolyline
 90
2
 70
0
 10
10.473813
 20
16.201555
 30
0.0
 10
26.830804
 20
13.778892
 30
0.0
  0
SPLINE
  5
243
100
AcDbEntity
  8
Layer_1
 62
7
100
AcDbSpline
 70
8
 71
3
 72
8
 73
4
 74
0
 40
0
 40
0
 40
0
 40
0
 40
1
 40
1
 40
1
 40
1
 10
33.883670
 20
9.938310
 30
0.0
 10
34.140482
 20
10.315370
 30
0.0
 10
34.194024
 20
10.795095
 30
0.0
 10
34.026663
 20
11.219497
 30
0.0
  0
SPLINE
  5
244
100
AcDbEntity
  8
Layer_1
 62
7
100
AcDbSpline
 70
8
 71
3
 72
8
 73
4
 74
0
 40
0
 40
0
 40
0
 40
0
 40
1
 40
1
 40
1
 40
1
 10
34.026663
 20
11.219497
 30
0.0
 10
33.859303
 20
11.643899
 30
0.0
 10
33.492737
 20
11.957956
 30
0.0
 10
33.047687
 20
12.058242
 30
0.0
  0
LWPOLYLINE
  5
245
100
AcDbEntity
  8
Layer_1
 62
7
100
AcDbPolyline
 90
2
 70
0
 10
27.096654
 20
13.722247
 30
0.0
 10
33.047652
 20
12.058223
 30
0.0
  0
SPLINE
  5
246
100
AcDbEntity
  8
Layer_1
 62
7
100
AcDbSpline
 70
8
 71
3
 72
8
 73
4
 74
0
 40
0
 40
0
 40
0
 40
0
 40
1
 40
1
 40
1
 40
1
 10
28.114906
 20
3.638821
 30
0.0
 10
28.936092
 20
3.517194
 30
0.0
 10
29.754531
 20
3.875754
 30
0.0
 10
30.221841
 20
4.561875
 30
0.0
  0
LWPOLYLINE
  5
247
100
AcDbEntity
  8
Layer_1
 62
7
100
AcDbPolyline
 90
2
 70
0
 10
33.883676
 20
9.938274
 30
0.0
 10
30.221863
 20
4.561868
 30
0.0
  0
SPLINE
  5
248
100
AcDbEntity
  8
Layer_1
 62
7
100
AcDbSpline
 70
8
 71
3
 72
8
 73
4
 74
0
 40
0
 40
0
 40
0
 40
0
 40
1
 40
1
 40
1
 40
1
 10
30.786815
 20
2.248091
 30
0.0
 10
30.852988
 20
2.238290
 30
0.0
 10
30.876342
 20
2.235933
 30
0.0
 10
30.912991
 20
2.232024
 30
0.0
  0
SPLINE
  5
249
100
AcDbEntity
  8
Layer_1
 62
7
100
AcDbSpline
 70
8
 71
3
 72
8
 73
4
 74
0
 40
0
 40
0
 40
0
 40
0
 40
1
 40
1
 40
1
 40
1
 10
30.912991
 20
2.232024
 30
0.0
 10
31.066233
 20
2.215678
 30
0.0
 10
31.224751
 20
2.210236
 30
0.0
 10
31.387633
 20
2.217842
 30
0.0
  0
SPLINE
  5
24a
100
AcDbEntity
  8
Layer_1
 62
7
100
AcDbSpline
 70
8
 71
3
 72
8
 73
4
 74
0
 40
0
 40
0
 40
0
 40
0
 40
1
 40
1
 40
1
 40
1
 10
31.387633
 20
2.217842
 30
0.0
 10
31.773796
 20
2.235874
 30
0.0
 10
32.164173
 20
2.326412
 30
0.0
 10
32.535671
 20
2.497494
 30
0.0
  0
SPLINE
  5
24b
100
AcDbEntity
  8
Layer_1
 62
7
100
AcDbSpline
 70
8
 71
3
 72
8
 73
4
 74
0
 40
0
 40
0
 40
0
 40
0
 40
1
 40
1
 40
1
 40
1
 10
32.535671
 20
2.497494
 30
0.0
 10
32.899564
 20
2.665075
 30
0.0
 10
33.237606
 20
2.906633
 30
0.0
 10
33.523747
 20
3.219540
 30
0.0
  0
SPLINE
  5
24c
100
AcDbEntity
  8
Layer_1
 62
7
100
AcDbSpline
 70
8
 71
3
 72
8
 73
4
 74
0
 40
0
 40
0
 40
0
 40
0
 40
1
 40
1
 40
1
 40
1
 10
33.523747
 20
3.219540
 30
0.0
 10
33.796527
 20
3.517839
 30
0.0
 10
34.015948
 20
3.874476
 30
0.0
 10
34.161129
 20
4.277212
 30
0.0
  0
SPLINE
  5
24d
100
AcDbEntity
  8
Layer_1
 62
7
100
AcDbSpline
 70
8
 71
3
 72
8
 73
4
 74
0
 40
0
 40
0
 40
0
 40
0
 40
1
 40
1
 40
1
 40
1
 10
34.161129
 20
4.277212
 30
0.0
 10
34.196000
 20
4.373943
 30
0.0
 10
34.214592
 20
4.431910
 30
0.0
 10
34.243866
 20
4.541964
 30
0.0
  0
SPLINE
  5
24e
100
AcDbEntity
  8
Layer_1
 62
7
100
AcDbSpline
 70
8
 71
3
 72
8
 73
4
 74
0
 40
0
 40
0
 40
0
 40
0
 40
1
 40
1
 40
1
 40
1
 10
34.243866
 20
4.541964
 30
0.0
 10
34.259736
 20
4.601626
 30
0.0
 10
34.279647
 20
4.676354
 30
0.0
 10
34.307615
 20
4.780697
 30
0.0
  0
SPLINE
  5
24f
100
AcDbEntity
  8
Layer_1
 62
7
100
AcDbSpline
 70
8
 71
3
 72
8
 73
4
 74
0
 40
0
 40
0
 40
0
 40
0
 40
1
 40
1
 40
1
 40
1
 10
34.307615
 20
4.780697
 30
0.0
 10
34.422174
 20
5.208092
 30
0.0
 10
34.544215
 20
5.654919
 30
0.0
 10
34.668962
 20
6.105843
 30
0.0
  0
SPLINE
  5
250
100
AcDbEntity
  8
Layer_1
 62
7
100
AcDbSpline
 70
8
 71
3
 72
8
 73
4
 74
0
 40
0
 40
0
 40
0
 40
0
 40
1
 40
1
 40
1
 40
1
 10
34.668962
 20
6.105843
 30
0.0
 10
34.910665
 20
6.979524
 30
0.0
 10
35.172437
 20
7.904309
 30
0.0
 10
35.436200
 20
8.828621
 30
0.0
  0
SPLINE
  5
251
100
AcDbEntity
  8
Layer_1
 62
7
100
AcDbSpline
 70
8
 71
3
 72
8
 73
4
 74
0
 40
0
 40
0
 40
0
 40
0
 40
1
 40
1
 40
1
 40
1
 10
35.436200
 20
8.828621
 30
0.0
 10
35.625607
 20
9.492367
 30
0.0
 10
35.701700
 20
9.757199
 30
0.0
 10
35.740374
 20
9.892251
 30
0.0
  0
SPLINE
  5
252
100
AcDbEntity
  8
Layer_1
 62
7
100
AcDbSpline
 70
8
 71
3
 72
8
 73
4
 74
0
 40
0
 40
0
 40
0
 40
0
 40
1
 40
1
 40
1
 40
1
 10
35.740374
 20
9.892251
 30
0.0
 10
35.759925
 20
9.960528
 30
0.0
 10
35.768436
 20
9.996052
 30
0.0
 10
35.777236
 20
10.033169
 30
0.0
  0
SPLINE
  5
253
100
AcDbEntity
  8
Layer_1
 62
7
100
AcDbSpline
 70
8
 71
3
 72
8
 73
4
 74
0
 40
0
 40
0
 40
0
 40
0
 40
1
 40
1
 40
1
 40
1
 10
35.777236
 20
10.033169
 30
0.0
 10
35.866801
 20
10.410933
 30
0.0
 10
35.888530
 20
10.812694
 30
0.0
 10
35.827730
 20
11.218832
 30
0.0
  0
SPLINE
  5
254
100
AcDbEntity
  8
Layer_1
 62
7
100
AcDbSpline
 70
8
 71
3
 72
8
 73
4
 74
0
 40
0
 40
0
 40
0
 40
0
 40
1
 40
1
 40
1
 40
1
 10
35.827730
 20
11.218832
 30
0.0
 10
35.769985
 20
11.604570
 30
0.0
 10
35.638622
 20
11.987049
 30
0.0
 10
35.428072
 20
12.341929
 30
0.0
  0
SPLINE
  5
255
100
AcDbEntity
  8
Layer_1
 62
7
100
AcDbSpline
 70
8
 71
3
 72
8
 73
4
 74
0
 40
0
 40
0
 40
0
 40
0
 40
1
 40
1
 40
1
 40
1
 10
35.428072
 20
12.341929
 30
0.0
 10
35.226419
 20
12.681811
 30
0.0
 10
34.955781
 20
12.989748
 30
0.0
 10
34.621121
 20
13.240490
 30
0.0
  0
SPLINE
  5
256
100
AcDbEntity
  8
Layer_1
 62
7
100
AcDbSpline
 70
8
 71
3
 72
8
 73
4
 74
0
 40
0
 40
0
 40
0
 40
0
 40
1
 40
1
 40
1
 40
1
 10
34.621121
 20
13.240490
 30
0.0
 10
34.298382
 20
13.482301
 30
0.0
 10
33.922293
 20
13.665982
 30
0.0
 10
33.508308
 20
13.769596
 30
0.0
  0
SPLINE
  5
257
100
AcDbEntity
  8
Layer_1
 62
7
100
AcDbSpline
 70
8
 71
3
 72
8
 73
4
 74
0
 40
0
 40
0
 40
0
 40
0
 40
1
 40
1
 40
1
 40
1
 10
33.508308
 20
13.769596
 30
0.0
 10
33.404771
 20
13.795510
 30
0.0
 10
33.347246
 20
13.808726
 30
0.0
 10
33.206241
 20
13.829610
 30
0.0
  0
LWPOLYLINE
  5
258
100
AcDbEntity
  8
Layer_1
 62
7
100
AcDbPolyline
 90
4
 70
0
 10
28.114930
 20
3.638820
 30
0.0
 10
6.305568
 20
6.869044
 30
0.0
 10
6.161362
 20
5.895415
 30
0.0
 10
30.786773
 20
2.248102
 30
0.0
  0
SPLINE
  5
259
100
AcDbEntity
  8
Layer_1
 62
7
100
AcDbSpline
 70
8
 71
3
 72
8
 73
4
 74
0
 40
0
 40
0
 40
0
 40
0
 40
1
 40
1
 40
1
 40
1
 10
33.745367
 20
12.661340
 30
0.0
 10
33.734934
 20
12.590902
 30
0.0
 10
33.762872
 20
12.520248
 30
0.0
 10
33.818657
 20
12.475994
 30
0.0
  0
SPLINE
  5
25a
100
AcDbEntity
  8
Layer_1
 62
7
100
AcDbSpline
 70
8
 71
3
 72
8
 73
4
 74
0
 40
0
 40
0
 40
0
 40
0
 40
1
 40
1
 40
1
 40
1
 10
33.818657
 20
12.475994
 30
0.0
 10
33.874443
 20
12.431739
 30
0.0
 10
33.949600
 20
12.420607
 30
0.0
 10
34.015818
 20
12.446792
 30
0.0
  0
SPLINE
  5
25b
100
AcDbEntity
  8
Layer_1
 62
7
100
AcDbSpline
 70
8
 71
3
 72
8
 73
4
 74
0
 40
0
 40
0
 40
0
 40
0
 40
1
 40
1
 40
1
 40
1
 10
34.015818
 20
12.446792
 30
0.0
 10
34.082036
 20
12.472976
 30
0.0
 10
34.129255
 20
12.532498
 30
0.0
 10
34.139688
 20
12.602937
 30
0.0
  0
SPLINE
  5
25c
100
AcDbEntity
  8
Layer_1
 62
7
100
AcDbSpline
 70
8
 71
3
 72
8
 73
4
 74
0
 40
0
 40
0
 40
0
 40
0
 40
1
 40
1
 40
1
 40
1
 10
34.139688
 20
12.602937
 30
0.0
 10
34.150120
 20
12.673376
 30
0.0
 10
34.122182
 20
12.744029
 30
0.0
 10
34.066397
 20
12.788284
 30
0.0
  0
SPLINE
  5
25d
100
AcDbEntity
  8
Layer_1
 62
7
100
AcDbSpline
 70
8
 71
3
 72
8
 73
4
 74
0
 40
0
 40
0
 40
0
 40
0
 40
1
 40
1
 40
1
 40
1
 10
34.066397
 20
12.788284
 30
0.0
 10
34.010612
 20
12.832538
 30
0.0
 10
33.935454
 20
12.843670
 30
0.0
 10
33.869236
 20
12.817486
 30
0.0
  0
SPLINE
  5
25e
100
AcDbEntity
  8
Layer_1
 62
7
100
AcDbSpline
 70
8
 71
3
 72
8
 73
4
 74
0
 40
0
 40
0
 40
0
 40
0
 40
1
 40
1
 40
1
 40
1
 10
33.869236
 20
12.817486
 30
0.0
 10
33.803018
 20
12.791301
 30
0.0
 10
33.755799
 20
12.731779
 30
0.0
 10
33.745367
 20
12.661340
 30
0.0
  0
LWPOLYLINE
  5
25f
100
AcDbEntity
  8
Layer_1
 62
7
100
AcDbPolyline
 90
2
 70
0
 10
33.206293
 20
13.829615
 30
0.0
 10
4.386742
 20
18.098130
 30
0.0
  0
SPLINE
  5
260
100
AcDbEntity
  8
Layer_1
 62
7
100
AcDbSpline
 70
8
 71
3
 72
8
 73
4
 74
0
 40
0
 40
0
 40
0
 40
0
 40
1
 40
1
 40
1
 40
1
 10
6.704239
 20
6.309110
 30
0.0
 10
6.688222
 20
6.200277
 30
0.0
 10
6.763406
 20
6.099046
 30
0.0
 10
6.872224
 20
6.082928
 30
0.0
  0
SPLINE
  5
261
100
AcDbEntity
  8
Layer_1
 62
7
100
AcDbSpline
 70
8
 71
3
 72
8
 73
4
 74
0
 40
0
 40
0
 40
0
 40
0
 40
1
 40
1
 40
1
 40
1
 10
6.872224
 20
6.082928
 30
0.0
 10
6.981042
 20
6.066811
 30
0.0
 10
7.082343
 20
6.141903
 30
0.0
 10
7.098559
 20
6.250706
 30
0.0
  0
SPLINE
  5
262
100
AcDbEntity
  8
Layer_1
 62
7
100
AcDbSpline
 70
8
 71
3
 72
8
 73
4
 74
0
 40
0
 40
0
 40
0
 40
0
 40
1
 40
1
 40
1
 40
1
 10
7.098559
 20
6.250706
 30
0.0
 10
7.114577
 20
6.359539
 30
0.0
 10
7.039392
 20
6.460771
 30
0.0
 10
6.930574
 20
6.476888
 30
0.0
  0
SPLINE
  5
263
100
AcDbEntity
  8
Layer_1
 62
7
100
AcDbSpline
 70
8
 71
3
 72
8
 73
4
 74
0
 40
0
 40
0
 40
0
 40
0
 40
1
 40
1
 40
1
 40
1
 10
6.930574
 20
6.476888
 30
0.0
 10
6.821756
 20
6.493005
 30
0.0
 10
6.720456
 20
6.417913
 30
0.0
 10
6.704239
 20
6.309110
 30
0.0
  0
LWPOLYLINE
  5
264
100
AcDbEntity
  8
Layer_1
 62
7
100
AcDbPolyline
 90
1
 70
1
 10
33.745367
 20
12.661340
 30
0.0
  0
SPLINE
  5
265
100
AcDbEntity
  8
Layer_1
 62
7
100
AcDbSpline
 70
8
 71
3
 72
8
 73
4
 74
0
 40
0
 40
0
 40
0
 40
0
 40
1
 40
1
 40
1
 40
1
 10
28.604228
 20
3.124648
 30
0.0
 10
28.593795
 20
3.054210
 30
0.0
 10
28.621733
 20
2.983556
 30
0.0
 10
28.677518
 20
2.939302
 30
0.0
  0
SPLINE
  5
266
100
AcDbEntity
  8
Layer_1
 62
7
100
AcDbSpline
 70
8
 71
3
 72
8
 73
4
 74
0
 40
0
 40
0
 40
0
 40
0
 40
1
 40
1
 40
1
 40
1
 10
28.677518
 20
2.939302
 30
0.0
 10
28.733304
 20
2.895047
 30
0.0
 10
28.808461
 20
2.883915
 30
0.0
 10
28.874679
 20
2.910100
 30
0.0
  0
SPLINE
  5
267
100
AcDbEntity
  8
Layer_1
 62
7
100
AcDbSpline
 70
8
 71
3
 72
8
 73
4
 74
0
 40
0
 40
0
 40
0
 40
0
 40
1
 40
1
 40
1
 40
1
 10
28.874679
 20
2.910100
 30
0.0
 10
28.940897
 20
2.936284
 30
0.0
 10
28.988116
 20
2.995806
 30
0.0
 10
28.998549
 20
3.066245
 30
0.0
  0
SPLINE
  5
268
100
AcDbEntity
  8
Layer_1
 62
7
100
AcDbSpline
 70
8
 71
3
 72
8
 73
4
 74
0
 40
0
 40
0
 40
0
 40
0
 40
1
 40
1
 40
1
 40
1
 10
28.998549
 20
3.066245
 30
0.0
 10
29.008981
 20
3.136684
 30
0.0
 10
28.981043
 20
3.207337
 30
0.0
 10
28.925258
 20
3.251592
 30
0.0
  0
SPLINE
  5
269
100
AcDbEntity
  8
Layer_1
 62
7
100
AcDbSpline
 70
8
 71
3
 72
8
 73
4
 74
0
 40
0
 40
0
 40
0
 40
0
 40
1
 40
1
 40
1
 40
1
 10
28.925258
 20
3.251592
 30
0.0
 10
28.869473
 20
3.295846
 30
0.0
 10
28.794315
 20
3.306978
 30
0.0
 10
28.728097
 20
3.280794
 30
0.0
  0
SPLINE
  5
26a
100
AcDbEntity
  8
Layer_1
 62
7
100
AcDbSpline
 70
8
 71
3
 72
8
 73
4
 74
0
 40
0
 40
0
 40
0
 40
0
 40
1
 40
1
 40
1
 40
1
 10
28.728097
 20
3.280794
 30
0.0
 10
28.661879
 20
3.254609
 30
0.0
 10
28.614660
 20
3.195087
 30
0.0
 10
28.604228
 20
3.124648
 30
0.0
  0
LWPOLYLINE
  5
26b
100
AcDbEntity
  8
Layer_1
 62
7
100
AcDbPolyline
 90
1
 70
1
 10
6.704239
 20
6.309110
 30
0.0
  0
SPLINE
  5
26c
100
AcDbEntity
  8
Layer_1
 62
7
100
AcDbSpline
 70
8
 71
3
 72
8
 73
4
 74
0
 40
0
 40
0
 40
0
 40
0
 40
1
 40
1
 40
1
 40
1
 10
31.910330
 20
13.258648
 30
0.0
 10
31.894312
 20
13.149815
 30
0.0
 10
31.969496
 20
13.048584
 30
0.0
 10
32.078315
 20
13.032466
 30
0.0
  0
SPLINE
  5
26d
100
AcDbEntity
  8
Layer_1
 62
7
100
AcDbSpline
 70
8
 71
3
 72
8
 73
4
 74
0
 40
0
 40
0
 40
0
 40
0
 40
1
 40
1
 40
1
 40
1
 10
32.078315
 20
13.032466
 30
0.0
 10
32.187133
 20
13.016349
 30
0.0
 10
32.288433
 20
13.091441
 30
0.0
 10
32.304650
 20
13.200244
 30
0.0
  0
SPLINE
  5
26e
100
AcDbEntity
  8
Layer_1
 62
7
100
AcDbSpline
 70
8
 71
3
 72
8
 73
4
 74
0
 40
0
 40
0
 40
0
 40
0
 40
1
 40
1
 40
1
 40
1
 10
32.304650
 20
13.200244
 30
0.0
 10
32.320667
 20
13.309077
 30
0.0
 10
32.245483
 20
13.410309
 30
0.0
 10
32.136665
 20
13.426426
 30
0.0
  0
SPLINE
  5
26f
100
AcDbEntity
  8
Layer_1
 62
7
100
AcDbSpline
 70
8
 71
3
 72
8
 73
4
 74
0
 40
0
 40
0
 40
0
 40
0
 40
1
 40
1
 40
1
 40
1
 10
32.136665
 20
13.426426
 30
0.0
 10
32.027847
 20
13.442543
 30
0.0
 10
31.926546
 20
13.367451
 30
0.0
 10
31.910330
 20
13.258648
 30
0.0
  0
LWPOLYLINE
  5
270
100
AcDbEntity
  8
Layer_1
 62
7
100
AcDbPolyline
 90
1
 70
1
 10
28.604228
 20
3.124648
 30
0.0
  0
SPLINE
  5
271
100
AcDbEntity
  8
Layer_1
 62
7
100
AcDbSpline
 70
8
 71
3
 72
8
 73
4
 74
0
 40
0
 40
0
 40
0
 40
0
 40
1
 40
1
 40
1
 40
1
 10
5.067243
 20
17.234425
 30
0.0
 10
5.051225
 20
17.125592
 30
0.0
 10
5.126410
 20
17.024361
 30
0.0
 10
5.235228
 20
17.008244
 30
0.0
  0
SPLINE
  5
272
100
AcDbEntity
  8
Layer_1
 62
7
100
AcDbSpline
 70
8
 71
3
 72
8
 73
4
 74
0
 40
0
 40
0
 40
0
 40
0
 40
1
 40
1
 40
1
 40
1
 10
5.235228
 20
17.008244
 30
0.0
 10
5.344046
 20
16.992126
 30
0.0
 10
5.445346
 20
17.067218
 30
0.0
 10
5.461563
 20
17.176022
 30
0.0
  0
SPLINE
  5
273
100
AcDbEntity
  8
Layer_1
 62
7
100
AcDbSpline
 70
8
 71
3
 72
8
 73
4
 74
0
 40
0
 40
0
 40
0
 40
0
 40
1
 40
1
 40
1
 40
1
 10
5.461563
 20
17.176022
 30
0.0
 10
5.477580
 20
17.284855
 30
0.0
 10
5.402396
 20
17.386086
 30
0.0
 10
5.293578
 20
17.402203
 30
0.0
  0
SPLINE
  5
274
100
AcDbEntity
  8
Layer_1
 62
7
100
AcDbSpline
 70
8
 71
3
 72
8
 73
4
 74
0
 40
0
 40
0
 40
0
 40
0
 40
1
 40
1
 40
1
 40
1
 10
5.293578
 20
17.402203
 30
0.0
 10
5.184760
 20
17.418321
 30
0.0
 10
5.083459
 20
17.343229
 30
0.0
 10
5.067243
 20
17.234425
 30
0.0
  0
LWPOLYLINE
  5
275
100
AcDbEntity
  8
Layer_1
 62
7
100
AcDbPolyline
 90
1
 70
1
 10
31.910330
 20
13.258648
 30
0.0
  0
SPLINE
  5
276
100
AcDbEntity
  8
Layer_1
 62
7
100
AcDbSpline
 70
8
 71
3
 72
8
 73
4
 74
0
 40
0
 40
0
 40
0
 40
0
 40
1
 40
1
 40
1
 40
1
 10
27.176749
 20
3.276890
 30
0.0
 10
27.160731
 20
3.168057
 30
0.0
 10
27.235916
 20
3.066826
 30
0.0
 10
27.344734
 20
3.050708
 30
0.0
  0
SPLINE
  5
277
100
AcDbEntity
  8
Layer_1
 62
7
100
AcDbSpline
 70
8
 71
3
 72
8
 73
4
 74
0
 40
0
 40
0
 40
0
 40
0
 40
1
 40
1
 40
1
 40
1
 10
27.344734
 20
3.050708
 30
0.0
 10
27.453552
 20
3.034591
 30
0.0
 10
27.554852
 20
3.109683
 30
0.0
 10
27.571069
 20
3.218487
 30
0.0
  0
SPLINE
  5
278
100
AcDbEntity
  8
Layer_1
 62
7
100
AcDbSpline
 70
8
 71
3
 72
8
 73
4
 74
0
 40
0
 40
0
 40
0
 40
0
 40
1
 40
1
 40
1
 40
1
 10
27.571069
 20
3.218487
 30
0.0
 10
27.587087
 20
3.327319
 30
0.0
 10
27.511902
 20
3.428551
 30
0.0
 10
27.403084
 20
3.444668
 30
0.0
  0
SPLINE
  5
279
100
AcDbEntity
  8
Layer_1
 62
7
100
AcDbSpline
 70
8
 71
3
 72
8
 73
4
 74
0
 40
0
 40
0
 40
0
 40
0
 40
1
 40
1
 40
1
 40
1
 10
27.403084
 20
3.444668
 30
0.0
 10
27.294266
 20
3.460785
 30
0.0
 10
27.192966
 20
3.385693
 30
0.0
 10
27.176749
 20
3.276890
 30
0.0
  0
LWPOLYLINE
  5
27a
100
AcDbEntity
  8
Layer_1
 62
7
100
AcDbPolyline
 90
1
 70
1
 10
5.067243
 20
17.234425
 30
0.0
  0
SPLINE
  5
27b
100
AcDbEntity
  8
Layer_1
 62
7
100
AcDbSpline
 70
8
 71
3
 72
8
 73
4
 74
0
 40
0
 40
0
 40
0
 40
0
 40
1
 40
1
 40
1
 40
1
 10
19.485398
 20
7.723167
 30
0.0
 10
19.505567
 20
7.726195
 30
0.0
 10
19.522589
 20
7.739753
 30
0.0
 10
19.530051
 20
7.758735
 30
0.0
  0
SPLINE
  5
27c
100
AcDbEntity
  8
Layer_1
 62
7
100
AcDbSpline
 70
8
 71
3
 72
8
 73
4
 74
0
 40
0
 40
0
 40
0
 40
0
 40
1
 40
1
 40
1
 40
1
 10
19.530051
 20
7.758735
 30
0.0
 10
19.537513
 20
7.777716
 30
0.0
 10
19.534282
 20
7.799236
 30
0.0
 10
19.521574
 20
7.815189
 30
0.0
  0
SPLINE
  5
27d
100
AcDbEntity
  8
Layer_1
 62
7
100
AcDbSpline
 70
8
 71
3
 72
8
 73
4
 74
0
 40
0
 40
0
 40
0
 40
0
 40
1
 40
1
 40
1
 40
1
 10
19.521574
 20
7.815189
 30
0.0
 10
19.508867
 20
7.831142
 30
0.0
 10
19.488615
 20
7.839104
 30
0.0
 10
19.468446
 20
7.836075
 30
0.0
  0
SPLINE
  5
27e
100
AcDbEntity
  8
Layer_1
 62
7
100
AcDbSpline
 70
8
 71
3
 72
8
 73
4
 74
0
 40
0
 40
0
 40
0
 40
0
 40
1
 40
1
 40
1
 40
1
 10
19.468446
 20
7.836075
 30
0.0
 10
19.448276
 20
7.833047
 30
0.0
 10
19.431255
 20
7.819489
 30
0.0
 10
19.423793
 20
7.800508
 30
0.0
  0
SPLINE
  5
27f
100
AcDbEntity
  8
Layer_1
 62
7
100
AcDbSpline
 70
8
 71
3
 72
8
 73
4
 74
0
 40
0
 40
0
 40
0
 40
0
 40
1
 40
1
 40
1
 40
1
 10
19.423793
 20
7.800508
 30
0.0
 10
19.416331
 20
7.781526
 30
0.0
 10
19.419562
 20
7.760006
 30
0.0
 10
19.432269
 20
7.744053
 30
0.0
  0
SPLINE
  5
280
100
AcDbEntity
  8
Layer_1
 62
7
100
AcDbSpline
 70
8
 71
3
 72
8
 73
4
 74
0
 40
0
 40
0
 40
0
 40
0
 40
1
 40
1
 40
1
 40
1
 10
19.432269
 20
7.744053
 30
0.0
 10
19.444976
 20
7.728100
 30
0.0
 10
19.465229
 20
7.720138
 30
0.0
 10
19.485398
 20
7.723167
 30
0.0
  0
LWPOLYLINE
  5
281
100
AcDbEntity
  8
Layer_1
 62
7
100
AcDbPolyline
 90
1
 70
1
 10
27.176749
 20
3.276890
 30
0.0
  0
LWPOLYLINE
  5
282
100
AcDbEntity
  8
Layer_1
 62
7
100
AcDbPolyline
 90
1
 70
1
 10
19.485398
 20
7.723167
 30
0.0
  0
SPLINE
  5
283
100
AcDbEntity
  8
Layer_1
 62
7
100
AcDbSpline
 70
8
 71
3
 72
8
 73
4
 74
0
 40
0
 40
0
 40
0
 40
0
 40
1
 40
1
 40
1
 40
1
 10
20.377369
 20
8.142010
 30
0.0
 10
20.367024
 20
8.210906
 30
0.0
 10
20.361566
 20
8.238794
 30
0.0
 10
20.353487
 20
8.279944
 30
0.0
  0
SPLINE
  5
284
100
AcDbEntity
  8
Layer_1
 62
7
100
AcDbSpline
 70
8
 71
3
 72
8
 73
4
 74
0
 40
0
 40
0
 40
0
 40
0
 40
1
 40
1
 40
1
 40
1
 10
20.353487
 20
8.279944
 30
0.0
 10
20.317280
 20
8.464373
 30
0.0
 10
20.262723
 20
8.654933
 30
0.0
 10
20.184121
 20
8.848953
 30
0.0
  0
SPLINE
  5
285
100
AcDbEntity
  8
Layer_1
 62
7
100
AcDbSpline
 70
8
 71
3
 72
8
 73
4
 74
0
 40
0
 40
0
 40
0
 40
0
 40
1
 40
1
 40
1
 40
1
 10
20.184121
 20
8.848953
 30
0.0
 10
20.041983
 20
9.199801
 30
0.0
 10
19.829530
 20
9.540987
 30
0.0
 10
19.535810
 20
9.843443
 30
0.0
  0
SPLINE
  5
286
100
AcDbEntity
  8
Layer_1
 62
7
100
AcDbSpline
 70
8
 71
3
 72
8
 73
4
 74
0
 40
0
 40
0
 40
0
 40
0
 40
1
 40
1
 40
1
 40
1
 10
19.535810
 20
9.843443
 30
0.0
 10
19.262235
 20
10.125154
 30
0.0
 10
18.922954
 20
10.367809
 30
0.0
 10
18.520075
 20
10.538381
 30
0.0
  0
SPLINE
  5
287
100
AcDbEntity
  8
Layer_1
 62
7
100
AcDbSpline
 70
8
 71
3
 72
8
 73
4
 74
0
 40
0
 40
0
 40
0
 40
0
 40
1
 40
1
 40
1
 40
1
 10
18.520075
 20
10.538381
 30
0.0
 10
18.156997
 20
10.692101
 30
0.0
 10
17.748944
 20
10.784093
 30
0.0
 10
17.309395
 20
10.786710
 30
0.0
  0
SPLINE
  5
288
100
AcDbEntity
  8
Layer_1
 62
7
100
AcDbSpline
 70
8
 71
3
 72
8
 73
4
 74
0
 40
0
 40
0
 40
0
 40
0
 40
1
 40
1
 40
1
 40
1
 10
17.309395
 20
10.786710
 30
0.0
 10
17.239113
 20
10.787129
 30
0.0
 10
17.180912
 20
10.785879
 30
0.0
 10
17.101746
 20
10.781235
 30
0.0
  0
SPLINE
  5
289
100
AcDbEntity
  8
Layer_1
 62
7
100
AcDbSpline
 70
8
 71
3
 72
8
 73
4
 74
0
 40
0
 40
0
 40
0
 40
0
 40
1
 40
1
 40
1
 40
1
 10
17.101746
 20
10.781235
 30
0.0
 10
17.067695
 20
10.779237
 30
0.0
 10
17.029741
 20
10.777023
 30
0.0
 10
16.985256
 20
10.774449
 30
0.0
  0
SPLINE
  5
28a
100
AcDbEntity
  8
Layer_1
 62
7
100
AcDbSpline
 70
8
 71
3
 72
8
 73
4
 74
0
 40
0
 40
0
 40
0
 40
0
 40
1
 40
1
 40
1
 40
1
 10
16.985256
 20
10.774449
 30
0.0
 10
16.655281
 20
10.755359
 30
0.0
 10
16.304497
 20
10.736189
 30
0.0
 10
15.937400
 20
10.717141
 30
0.0
  0
SPLINE
  5
28b
100
AcDbEntity
  8
Layer_1
 62
7
100
AcDbSpline
 70
8
 71
3
 72
8
 73
4
 74
0
 40
0
 40
0
 40
0
 40
0
 40
1
 40
1
 40
1
 40
1
 10
15.937400
 20
10.717141
 30
0.0
 10
15.494908
 20
10.694181
 30
0.0
 10
15.023724
 20
10.671146
 30
0.0
 10
14.531540
 20
10.648239
 30
0.0
  0
SPLINE
  5
28c
100
AcDbEntity
  8
Layer_1
 62
7
100
AcDbSpline
 70
8
 71
3
 72
8
 73
4
 74
0
 40
0
 40
0
 40
0
 40
0
 40
1
 40
1
 40
1
 40
1
 10
14.531540
 20
10.648239
 30
0.0
 10
13.657232
 20
10.607544
 30
0.0
 10
12.785004
 20
10.570255
 30
0.0
 10
11.756042
 20
10.527218
 30
0.0
  0
SPLINE
  5
28d
100
AcDbEntity
  8
Layer_1
 62
7
100
AcDbSpline
 70
8
 71
3
 72
8
 73
4
 74
0
 40
0
 40
0
 40
0
 40
0
 40
1
 40
1
 40
1
 40
1
 10
11.756042
 20
10.527218
 30
0.0
 10
11.683357
 20
10.524177
 30
0.0
 10
11.622505
 20
10.521636
 30
0.0
 10
11.567468
 20
10.519336
 30
0.0
  0
SPLINE
  5
28e
100
AcDbEntity
  8
Layer_1
 62
7
100
AcDbSpline
 70
8
 71
3
 72
8
 73
4
 74
0
 40
0
 40
0
 40
0
 40
0
 40
1
 40
1
 40
1
 40
1
 10
11.567468
 20
10.519336
 30
0.0
 10
11.435756
 20
10.513836
 30
0.0
 10
11.337574
 20
10.504847
 30
0.0
 10
11.190797
 20
10.480885
 30
0.0
  0
SPLINE
  5
28f
100
AcDbEntity
  8
Layer_1
 62
7
100
AcDbSpline
 70
8
 71
3
 72
8
 73
4
 74
0
 40
0
 40
0
 40
0
 40
0
 40
1
 40
1
 40
1
 40
1
 10
11.190797
 20
10.480885
 30
0.0
 10
10.815280
 20
10.419578
 30
0.0
 10
10.434255
 20
10.287879
 30
0.0
 10
10.073466
 20
10.069066
 30
0.0
  0
SPLINE
  5
290
100
AcDbEntity
  8
Layer_1
 62
7
100
AcDbSpline
 70
8
 71
3
 72
8
 73
4
 74
0
 40
0
 40
0
 40
0
 40
0
 40
1
 40
1
 40
1
 40
1
 10
10.073466
 20
10.069066
 30
0.0
 10
9.746467
 20
9.870745
 30
0.0
 10
9.441466
 20
9.603721
 30
0.0
 10
9.189010
 20
9.262839
 30
0.0
  0
SPLINE
  5
291
100
AcDbEntity
  8
Layer_1
 62
7
100
AcDbSpline
 70
8
 71
3
 72
8
 73
4
 74
0
 40
0
 40
0
 40
0
 40
0
 40
1
 40
1
 40
1
 40
1
 10
9.189010
 20
9.262839
 30
0.0
 10
8.958371
 20
8.951414
 30
0.0
 10
8.775697
 20
8.583305
 30
0.0
 10
8.671648
 20
8.166190
 30
0.0
  0
SPLINE
  5
292
100
AcDbEntity
  8
Layer_1
 62
7
100
AcDbSpline
 70
8
 71
3
 72
8
 73
4
 74
0
 40
0
 40
0
 40
0
 40
0
 40
1
 40
1
 40
1
 40
1
 10
8.671648
 20
8.166190
 30
0.0
 10
8.525358
 20
7.579737
 30
0.0
 10
8.590543
 20
7.098989
 30
0.0
 10
8.613691
 20
6.944810
 30
0.0
  0
LWPOLYLINE
  5
293
100
AcDbEntity
  8
Layer_1
 62
7
100
AcDbPolyline
 90
3
 70
0
 10
19.846573
 20
5.048346
 30
0.0
 10
20.819914
 20
5.194486
 30
0.0
 10
20.377369
 20
8.141974
 30
0.0
  0
SPLINE
  5
294
100
AcDbEntity
  8
Layer_1
 62
7
100
AcDbSpline
 70
8
 71
3
 72
8
 73
4
 74
0
 40
0
 40
0
 40
0
 40
0
 40
1
 40
1
 40
1
 40
1
 10
12.138037
 20
8.728117
 30
0.0
 10
11.702453
 20
8.863741
 30
0.0
 10
11.227978
 20
8.774986
 30
0.0
 10
10.870871
 20
8.491081
 30
0.0
  0
SPLINE
  5
295
100
AcDbEntity
  8
Layer_1
 62
7
100
AcDbSpline
 70
8
 71
3
 72
8
 73
4
 74
0
 40
0
 40
0
 40
0
 40
0
 40
1
 40
1
 40
1
 40
1
 10
10.870871
 20
8.491081
 30
0.0
 10
10.513765
 20
8.207176
 30
0.0
 10
10.320323
 20
7.764927
 30
0.0
 10
10.354252
 20
7.309981
 30
0.0
  0
LWPOLYLINE
  5
296
100
AcDbEntity
  8
Layer_1
 62
7
100
AcDbPolyline
 90
3
 70
0
 10
8.613672
 20
6.944858
 30
0.0
 10
10.356638
 20
7.206552
 30
0.0
 10
10.354280
 20
7.309953
 30
0.0
  0
SPLINE
  5
297
100
AcDbEntity
  8
Layer_1
 62
7
100
AcDbSpline
 70
8
 71
3
 72
8
 73
4
 74
0
 40
0
 40
0
 40
0
 40
0
 40
1
 40
1
 40
1
 40
1
 10
19.846579
 20
5.048322
 30
0.0
 10
19.723320
 20
5.869267
 30
0.0
 10
19.141567
 20
6.547481
 30
0.0
 10
18.348952
 20
6.794272
 30
0.0
  0
SPLINE
  5
298
100
AcDbEntity
  8
Layer_1
 62
7
100
AcDbSpline
 70
8
 71
3
 72
8
 73
4
 74
0
 40
0
 40
0
 40
0
 40
0
 40
1
 40
1
 40
1
 40
1
 10
9.573833
 20
7.801341
 30
0.0
 10
9.644251
 20
7.811914
 30
0.0
 10
9.703679
 20
7.859251
 30
0.0
 10
9.729732
 20
7.925521
 30
0.0
  0
SPLINE
  5
299
100
AcDbEntity
  8
Layer_1
 62
7
100
AcDbSpline
 70
8
 71
3
 72
8
 73
4
 74
0
 40
0
 40
0
 40
0
 40
0
 40
1
 40
1
 40
1
 40
1
 10
9.729732
 20
7.925521
 30
0.0
 10
9.755785
 20
7.991791
 30
0.0
 10
9.744504
 20
8.066927
 30
0.0
 10
9.700138
 20
8.122624
 30
0.0
  0
SPLINE
  5
29a
100
AcDbEntity
  8
Layer_1
 62
7
100
AcDbSpline
 70
8
 71
3
 72
8
 73
4
 74
0
 40
0
 40
0
 40
0
 40
0
 40
1
 40
1
 40
1
 40
1
 10
9.700138
 20
8.122624
 30
0.0
 10
9.655773
 20
8.178321
 30
0.0
 10
9.585064
 20
8.206119
 30
0.0
 10
9.514646
 20
8.195546
 30
0.0
  0
SPLINE
  5
29b
100
AcDbEntity
  8
Layer_1
 62
7
100
AcDbSpline
 70
8
 71
3
 72
8
 73
4
 74
0
 40
0
 40
0
 40
0
 40
0
 40
1
 40
1
 40
1
 40
1
 10
9.514646
 20
8.195546
 30
0.0
 10
9.444228
 20
8.184974
 30
0.0
 10
9.384799
 20
8.137636
 30
0.0
 10
9.358747
 20
8.071366
 30
0.0
  0
SPLINE
  5
29c
100
AcDbEntity
  8
Layer_1
 62
7
100
AcDbSpline
 70
8
 71
3
 72
8
 73
4
 74
0
 40
0
 40
0
 40
0
 40
0
 40
1
 40
1
 40
1
 40
1
 10
9.358747
 20
8.071366
 30
0.0
 10
9.332694
 20
8.005096
 30
0.0
 10
9.343975
 20
7.929961
 30
0.0
 10
9.388340
 20
7.874264
 30
0.0
  0
SPLINE
  5
29d
100
AcDbEntity
  8
Layer_1
 62
7
100
AcDbSpline
 70
8
 71
3
 72
8
 73
4
 74
0
 40
0
 40
0
 40
0
 40
0
 40
1
 40
1
 40
1
 40
1
 10
9.388340
 20
7.874264
 30
0.0
 10
9.432706
 20
7.818566
 30
0.0
 10
9.503415
 20
7.790768
 30
0.0
 10
9.573833
 20
7.801341
 30
0.0
  0
LWPOLYLINE
  5
29e
100
AcDbEntity
  8
Layer_1
 62
7
100
AcDbPolyline
 90
2
 70
0
 10
12.138069
 20
8.728133
 30
0.0
 10
18.348953
 20
6.794295
 30
0.0
  0
SPLINE
  5
29f
100
AcDbEntity
  8
Layer_1
 62
7
100
AcDbSpline
 70
8
 71
3
 72
8
 73
4
 74
0
 40
0
 40
0
 40
0
 40
0
 40
1
 40
1
 40
1
 40
1
 10
20.195613
 20
5.666373
 30
0.0
 10
20.266031
 20
5.676946
 30
0.0
 10
20.325459
 20
5.724283
 30
0.0
 10
20.351512
 20
5.790553
 30
0.0
  0
SPLINE
  5
2a0
100
AcDbEntity
  8
Layer_1
 62
7
100
AcDbSpline
 70
8
 71
3
 72
8
 73
4
 74
0
 40
0
 40
0
 40
0
 40
0
 40
1
 40
1
 40
1
 40
1
 10
20.351512
 20
5.790553
 30
0.0
 10
20.377564
 20
5.856823
 30
0.0
 10
20.366283
 20
5.931958
 30
0.0
 10
20.321918
 20
5.987656
 30
0.0
  0
SPLINE
  5
2a1
100
AcDbEntity
  8
Layer_1
 62
7
100
AcDbSpline
 70
8
 71
3
 72
8
 73
4
 74
0
 40
0
 40
0
 40
0
 40
0
 40
1
 40
1
 40
1
 40
1
 10
20.321918
 20
5.987656
 30
0.0
 10
20.277553
 20
6.043353
 30
0.0
 10
20.206844
 20
6.071151
 30
0.0
 10
20.136426
 20
6.060578
 30
0.0
  0
SPLINE
  5
2a2
100
AcDbEntity
  8
Layer_1
 62
7
100
AcDbSpline
 70
8
 71
3
 72
8
 73
4
 74
0
 40
0
 40
0
 40
0
 40
0
 40
1
 40
1
 40
1
 40
1
 10
20.136426
 20
6.060578
 30
0.0
 10
20.066008
 20
6.050005
 30
0.0
 10
20.006579
 20
6.002668
 30
0.0
 10
19.980527
 20
5.936398
 30
0.0
  0
SPLINE
  5
2a3
100
AcDbEntity
  8
Layer_1
 62
7
100
AcDbSpline
 70
8
 71
3
 72
8
 73
4
 74
0
 40
0
 40
0
 40
0
 40
0
 40
1
 40
1
 40
1
 40
1
 10
19.980527
 20
5.936398
 30
0.0
 10
19.954474
 20
5.870128
 30
0.0
 10
19.965755
 20
5.794993
 30
0.0
 10
20.010120
 20
5.739296
 30
0.0
  0
SPLINE
  5
2a4
100
AcDbEntity
  8
Layer_1
 62
7
100
AcDbSpline
 70
8
 71
3
 72
8
 73
4
 74
0
 40
0
 40
0
 40
0
 40
0
 40
1
 40
1
 40
1
 40
1
 10
20.010120
 20
5.739296
 30
0.0
 10
20.054485
 20
5.683598
 30
0.0
 10
20.125195
 20
5.655800
 30
0.0
 10
20.195613
 20
5.666373
 30
0.0
  0
LWPOLYLINE
  5
2a5
100
AcDbEntity
  8
Layer_1
 62
7
100
AcDbPolyline
 90
1
 70
1
 10
9.573833
 20
7.801341
 30
0.0
  0
SPLINE
  5
2a6
100
AcDbEntity
  8
Layer_1
 62
7
100
AcDbSpline
 70
8
 71
3
 72
8
 73
4
 74
0
 40
0
 40
0
 40
0
 40
0
 40
1
 40
1
 40
1
 40
1
 10
31.342058
 20
9.342997
 30
0.0
 10
31.362401
 20
9.344442
 30
0.0
 10
31.380429
 20
9.356631
 30
0.0
 10
31.389349
 20
9.374972
 30
0.0
  0
SPLINE
  5
2a7
100
AcDbEntity
  8
Layer_1
 62
7
100
AcDbSpline
 70
8
 71
3
 72
8
 73
4
 74
0
 40
0
 40
0
 40
0
 40
0
 40
1
 40
1
 40
1
 40
1
 10
31.389349
 20
9.374972
 30
0.0
 10
31.398270
 20
9.393313
 30
0.0
 10
31.396728
 20
9.415020
 30
0.0
 10
31.385304
 20
9.431916
 30
0.0
  0
SPLINE
  5
2a8
100
AcDbEntity
  8
Layer_1
 62
7
100
AcDbSpline
 70
8
 71
3
 72
8
 73
4
 74
0
 40
0
 40
0
 40
0
 40
0
 40
1
 40
1
 40
1
 40
1
 10
31.385304
 20
9.431916
 30
0.0
 10
31.373881
 20
9.448811
 30
0.0
 10
31.354311
 20
9.458329
 30
0.0
 10
31.333967
 20
9.456884
 30
0.0
  0
SPLINE
  5
2a9
100
AcDbEntity
  8
Layer_1
 62
7
100
AcDbSpline
 70
8
 71
3
 72
8
 73
4
 74
0
 40
0
 40
0
 40
0
 40
0
 40
1
 40
1
 40
1
 40
1
 10
31.333967
 20
9.456884
 30
0.0
 10
31.313623
 20
9.455439
 30
0.0
 10
31.295596
 20
9.443250
 30
0.0
 10
31.286675
 20
9.424909
 30
0.0
  0
SPLINE
  5
2aa
100
AcDbEntity
  8
Layer_1
 62
7
100
AcDbSpline
 70
8
 71
3
 72
8
 73
4
 74
0
 40
0
 40
0
 40
0
 40
0
 40
1
 40
1
 40
1
 40
1
 10
31.286675
 20
9.424909
 30
0.0
 10
31.277755
 20
9.406568
 30
0.0
 10
31.279297
 20
9.384861
 30
0.0
 10
31.290721
 20
9.367966
 30
0.0
  0
SPLINE
  5
2ab
100
AcDbEntity
  8
Layer_1
 62
7
100
AcDbSpline
 70
8
 71
3
 72
8
 73
4
 74
0
 40
0
 40
0
 40
0
 40
0
 40
1
 40
1
 40
1
 40
1
 10
31.290721
 20
9.367966
 30
0.0
 10
31.302144
 20
9.351070
 30
0.0
 10
31.321714
 20
9.341552
 30
0.0
 10
31.342058
 20
9.342997
 30
0.0
  0
LWPOLYLINE
  5
2ac
100
AcDbEntity
  8
Layer_1
 62
7
100
AcDbPolyline
 90
1
 70
1
 10
20.195613
 20
5.666373
 30
0.0
  0
SPLINE
  5
2ad
100
AcDbEntity
  8
Layer_1
 62
7
100
AcDbSpline
 70
8
 71
3
 72
8
 73
4
 74
0
 40
0
 40
0
 40
0
 40
0
 40
1
 40
1
 40
1
 40
1
 10
23.878658
 20
5.497389
 30
0.0
 10
23.899002
 20
5.498834
 30
0.0
 10
23.917030
 20
5.511023
 30
0.0
 10
23.925950
 20
5.529364
 30
0.0
  0
SPLINE
  5
2ae
100
AcDbEntity
  8
Layer_1
 62
7
100
AcDbSpline
 70
8
 71
3
 72
8
 73
4
 74
0
 40
0
 40
0
 40
0
 40
0
 40
1
 40
1
 40
1
 40
1
 10
23.925950
 20
5.529364
 30
0.0
 10
23.934870
 20
5.547705
 30
0.0
 10
23.933328
 20
5.569412
 30
0.0
 10
23.921905
 20
5.586308
 30
0.0
  0
SPLINE
  5
2af
100
AcDbEntity
  8
Layer_1
 62
7
100
AcDbSpline
 70
8
 71
3
 72
8
 73
4
 74
0
 40
0
 40
0
 40
0
 40
0
 40
1
 40
1
 40
1
 40
1
 10
23.921905
 20
5.586308
 30
0.0
 10
23.910481
 20
5.603203
 30
0.0
 10
23.890912
 20
5.612721
 30
0.0
 10
23.870568
 20
5.611276
 30
0.0
  0
SPLINE
  5
2b0
100
AcDbEntity
  8
Layer_1
 62
7
100
AcDbSpline
 70
8
 71
3
 72
8
 73
4
 74
0
 40
0
 40
0
 40
0
 40
0
 40
1
 40
1
 40
1
 40
1
 10
23.870568
 20
5.611276
 30
0.0
 10
23.850224
 20
5.609831
 30
0.0
 10
23.832196
 20
5.597642
 30
0.0
 10
23.823276
 20
5.579301
 30
0.0
  0
SPLINE
  5
2b1
100
AcDbEntity
  8
Layer_1
 62
7
100
AcDbSpline
 70
8
 71
3
 72
8
 73
4
 74
0
 40
0
 40
0
 40
0
 40
0
 40
1
 40
1
 40
1
 40
1
 10
23.823276
 20
5.579301
 30
0.0
 10
23.814356
 20
5.560960
 30
0.0
 10
23.815898
 20
5.539253
 30
0.0
 10
23.827321
 20
5.522358
 30
0.0
  0
SPLINE
  5
2b2
100
AcDbEntity
  8
Layer_1
 62
7
100
AcDbSpline
 70
8
 71
3
 72
8
 73
4
 74
0
 40
0
 40
0
 40
0
 40
0
 40
1
 40
1
 40
1
 40
1
 10
23.827321
 20
5.522358
 30
0.0
 10
23.838745
 20
5.505462
 30
0.0
 10
23.858314
 20
5.495944
 30
0.0
 10
23.878658
 20
5.497389
 30
0.0
  0
LWPOLYLINE
  5
2b3
100
AcDbEntity
  8
Layer_1
 62
7
100
AcDbPolyline
 90
1
 70
1
 10
31.342058
 20
9.342997
 30
0.0
  0
LWPOLYLINE
  5
2b4
100
AcDbEntity
  8
Layer_1
 62
7
100
AcDbPolyline
 90
1
 70
1
 10
23.878658
 20
5.497389
 30
0.0
  0
SPLINE
  5
2b5
100
AcDbEntity
  8
Layer_1
 62
7
100
AcDbSpline
 70
8
 71
3
 72
8
 73
4
 74
0
 40
0
 40
0
 40
0
 40
0
 40
1
 40
1
 40
1
 40
1
 10
20.554382
 20
7.844500
 30
0.0
 10
20.563260
 20
7.719528
 30
0.0
 10
20.580222
 20
7.551270
 30
0.0
 10
20.730336
 20
6.935944
 30
0.0
  0
SPLINE
  5
2b6
100
AcDbEntity
  8
Layer_1
 62
7
100
AcDbSpline
 70
8
 71
3
 72
8
 73
4
 74
0
 40
0
 40
0
 40
0
 40
0
 40
1
 40
1
 40
1
 40
1
 10
20.730336
 20
6.935944
 30
0.0
 10
20.730336
 20
6.935944
 30
0.0
 10
20.898820
 20
6.566357
 30
0.0
 10
21.371326
 20
5.911461
 30
0.0
  0
SPLINE
  5
2b7
100
AcDbEntity
  8
Layer_1
 62
7
100
AcDbSpline
 70
8
 71
3
 72
8
 73
4
 74
0
 40
0
 40
0
 40
0
 40
0
 40
1
 40
1
 40
1
 40
1
 10
21.371326
 20
5.911461
 30
0.0
 10
21.371326
 20
5.911461
 30
0.0
 10
21.668946
 20
5.631445
 30
0.0
 10
22.361487
 20
5.200939
 30
0.0
  0
SPLINE
  5
2b8
100
AcDbEntity
  8
Layer_1
 62
7
100
AcDbSpline
 70
8
 71
3
 72
8
 73
4
 74
0
 40
0
 40
0
 40
0
 40
0
 40
1
 40
1
 40
1
 40
1
 10
22.361487
 20
5.200939
 30
0.0
 10
22.361487
 20
5.200939
 30
0.0
 10
22.748777
 20
5.054043
 30
0.0
 10
23.157979
 20
4.987029
 30
0.0
  0
SPLINE
  5
2b9
100
AcDbEntity
  8
Layer_1
 62
7
100
AcDbSpline
 70
8
 71
3
 72
8
 73
4
 74
0
 40
0
 40
0
 40
0
 40
0
 40
1
 40
1
 40
1
 40
1
 10
23.157979
 20
4.987029
 30
0.0
 10
23.407604
 20
4.946149
 30
0.0
 10
23.661220
 20
4.935701
 30
0.0
 10
23.913395
 20
4.955674
 30
0.0
  0
SPLINE
  5
2ba
100
AcDbEntity
  8
Layer_1
 62
7
100
AcDbSpline
 70
8
 71
3
 72
8
 73
4
 74
0
 40
0
 40
0
 40
0
 40
0
 40
1
 40
1
 40
1
 40
1
 10
23.913395
 20
4.955674
 30
0.0
 10
23.990022
 20
4.961744
 30
0.0
 10
24.031804
 20
4.965171
 30
0.0
 10
24.146143
 20
4.982832
 30
0.0
  0
SPLINE
  5
2bb
100
AcDbEntity
  8
Layer_1
 62
7
100
AcDbSpline
 70
8
 71
3
 72
8
 73
4
 74
0
 40
0
 40
0
 40
0
 40
0
 40
1
 40
1
 40
1
 40
1
 10
24.146143
 20
4.982832
 30
0.0
 10
24.243326
 20
4.997844
 30
0.0
 10
24.393247
 20
5.021015
 30
0.0
 10
24.661891
 20
5.062452
 30
0.0
  0
SPLINE
  5
2bc
100
AcDbEntity
  8
Layer_1
 62
7
100
AcDbSpline
 70
8
 71
3
 72
8
 73
4
 74
0
 40
0
 40
0
 40
0
 40
0
 40
1
 40
1
 40
1
 40
1
 10
24.661891
 20
5.062452
 30
0.0
 10
25.182363
 20
5.142735
 30
0.0
 10
25.697226
 20
5.221890
 30
0.0
 10
26.224161
 20
5.302107
 30
0.0
  0
SPLINE
  5
2bd
100
AcDbEntity
  8
Layer_1
 62
7
100
AcDbSpline
 70
8
 71
3
 72
8
 73
4
 74
0
 40
0
 40
0
 40
0
 40
0
 40
1
 40
1
 40
1
 40
1
 10
26.224161
 20
5.302107
 30
0.0
 10
27.245538
 20
5.457596
 30
0.0
 10
28.346701
 20
5.622319
 30
0.0
 10
29.397273
 20
5.770842
 30
0.0
  0
SPLINE
  5
2be
100
AcDbEntity
  8
Layer_1
 62
7
100
AcDbSpline
 70
8
 71
3
 72
8
 73
4
 74
0
 40
0
 40
0
 40
0
 40
0
 40
1
 40
1
 40
1
 40
1
 10
29.397273
 20
5.770842
 30
0.0
 10
29.483327
 20
5.783007
 30
0.0
 10
29.552696
 20
5.792757
 30
0.0
 10
29.613695
 20
5.801307
 30
0.0
  0
SPLINE
  5
2bf
100
AcDbEntity
  8
Layer_1
 62
7
100
AcDbSpline
 70
8
 71
3
 72
8
 73
4
 74
0
 40
0
 40
0
 40
0
 40
0
 40
1
 40
1
 40
1
 40
1
 10
29.613695
 20
5.801307
 30
0.0
 10
29.750670
 20
5.820502
 30
0.0
 10
29.844704
 20
5.838771
 30
0.0
 10
29.988920
 20
5.876994
 30
0.0
  0
SPLINE
  5
2c0
100
AcDbEntity
  8
Layer_1
 62
7
100
AcDbSpline
 70
8
 71
3
 72
8
 73
4
 74
0
 40
0
 40
0
 40
0
 40
0
 40
1
 40
1
 40
1
 40
1
 10
29.988920
 20
5.876994
 30
0.0
 10
30.207396
 20
5.934896
 30
0.0
 10
30.421395
 20
6.016545
 30
0.0
 10
30.626759
 20
6.122439
 30
0.0
  0
SPLINE
  5
2c1
100
AcDbEntity
  8
Layer_1
 62
7
100
AcDbSpline
 70
8
 71
3
 72
8
 73
4
 74
0
 40
0
 40
0
 40
0
 40
0
 40
1
 40
1
 40
1
 40
1
 10
30.626759
 20
6.122439
 30
0.0
 10
30.974918
 20
6.301965
 30
0.0
 10
31.290054
 20
6.547029
 30
0.0
 10
31.552550
 20
6.849367
 30
0.0
  0
SPLINE
  5
2c2
100
AcDbEntity
  8
Layer_1
 62
7
100
AcDbSpline
 70
8
 71
3
 72
8
 73
4
 74
0
 40
0
 40
0
 40
0
 40
0
 40
1
 40
1
 40
1
 40
1
 10
31.552550
 20
6.849367
 30
0.0
 10
31.816788
 20
7.153710
 30
0.0
 10
32.022191
 20
7.509958
 30
0.0
 10
32.152790
 20
7.900795
 30
0.0
  0
SPLINE
  5
2c3
100
AcDbEntity
  8
Layer_1
 62
7
100
AcDbSpline
 70
8
 71
3
 72
8
 73
4
 74
0
 40
0
 40
0
 40
0
 40
0
 40
1
 40
1
 40
1
 40
1
 10
32.152790
 20
7.900795
 30
0.0
 10
32.347400
 20
8.483192
 30
0.0
 10
32.314860
 20
8.974861
 30
0.0
 10
32.305307
 20
9.109337
 30
0.0
  0
LWPOLYLINE
  5
2c4
100
AcDbEntity
  8
Layer_1
 62
7
100
AcDbPolyline
 90
2
 70
0
 10
22.312441
 20
7.969340
 30
0.0
 10
20.554373
 20
7.844449
 30
0.0
  0
SPLINE
  5
2c5
100
AcDbEntity
  8
Layer_1
 62
7
100
AcDbSpline
 70
8
 71
3
 72
8
 73
4
 74
0
 40
0
 40
0
 40
0
 40
0
 40
1
 40
1
 40
1
 40
1
 10
30.022236
 20
10.115449
 30
0.0
 10
30.741909
 20
10.529226
 30
0.0
 10
31.161673
 20
11.318025
 30
0.0
 10
31.102849
 20
12.146083
 30
0.0
  0
LWPOLYLINE
  5
2c6
100
AcDbEntity
  8
Layer_1
 62
7
100
AcDbPolyline
 90
3
 70
0
 10
32.305300
 20
9.109364
 30
0.0
 10
32.084623
 20
12.215803
 30
0.0
 10
31.102848
 20
12.146059
 30
0.0
  0
SPLINE
  5
2c7
100
AcDbEntity
  8
Layer_1
 62
7
100
AcDbSpline
 70
8
 71
3
 72
8
 73
4
 74
0
 40
0
 40
0
 40
0
 40
0
 40
1
 40
1
 40
1
 40
1
 10
22.332678
 20
7.867882
 30
0.0
 10
22.398827
 20
7.416494
 30
0.0
 10
22.684098
 20
7.027107
 30
0.0
 10
23.094543
 20
6.827956
 30
0.0
  0
SPLINE
  5
2c8
100
AcDbEntity
  8
Layer_1
 62
7
100
AcDbSpline
 70
8
 71
3
 72
8
 73
4
 74
0
 40
0
 40
0
 40
0
 40
0
 40
1
 40
1
 40
1
 40
1
 10
23.094543
 20
6.827956
 30
0.0
 10
23.504988
 20
6.628805
 30
0.0
 10
23.987395
 20
6.645709
 30
0.0
 10
24.382893
 20
6.873101
 30
0.0
  0
LWPOLYLINE
  5
2c9
100
AcDbEntity
  8
Layer_1
 62
7
100
AcDbPolyline
 90
2
 70
0
 10
30.022242
 20
10.115426
 30
0.0
 10
24.382928
 20
6.873092
 30
0.0
  0
SPLINE
  5
2ca
100
AcDbEntity
  8
Layer_1
 62
7
100
AcDbSpline
 70
8
 71
3
 72
8
 73
4
 74
0
 40
0
 40
0
 40
0
 40
0
 40
1
 40
1
 40
1
 40
1
 10
31.606566
 20
11.221455
 30
0.0
 10
31.677594
 20
11.226501
 30
0.0
 10
31.740535
 20
11.269057
 30
0.0
 10
31.771679
 20
11.333092
 30
0.0
  0
SPLINE
  5
2cb
100
AcDbEntity
  8
Layer_1
 62
7
100
AcDbSpline
 70
8
 71
3
 72
8
 73
4
 74
0
 40
0
 40
0
 40
0
 40
0
 40
1
 40
1
 40
1
 40
1
 10
31.771679
 20
11.333092
 30
0.0
 10
31.802823
 20
11.397127
 30
0.0
 10
31.797439
 20
11.472913
 30
0.0
 10
31.757556
 20
11.531902
 30
0.0
  0
SPLINE
  5
2cc
100
AcDbEntity
  8
Layer_1
 62
7
100
AcDbSpline
 70
8
 71
3
 72
8
 73
4
 74
0
 40
0
 40
0
 40
0
 40
0
 40
1
 40
1
 40
1
 40
1
 10
31.757556
 20
11.531902
 30
0.0
 10
31.717672
 20
11.590891
 30
0.0
 10
31.649347
 20
11.624122
 30
0.0
 10
31.578319
 20
11.619076
 30
0.0
  0
SPLINE
  5
2cd
100
AcDbEntity
  8
Layer_1
 62
7
100
AcDbSpline
 70
8
 71
3
 72
8
 73
4
 74
0
 40
0
 40
0
 40
0
 40
0
 40
1
 40
1
 40
1
 40
1
 10
31.578319
 20
11.619076
 30
0.0
 10
31.507291
 20
11.614030
 30
0.0
 10
31.444350
 20
11.571475
 30
0.0
 10
31.413206
 20
11.507440
 30
0.0
  0
SPLINE
  5
2ce
100
AcDbEntity
  8
Layer_1
 62
7
100
AcDbSpline
 70
8
 71
3
 72
8
 73
4
 74
0
 40
0
 40
0
 40
0
 40
0
 40
1
 40
1
 40
1
 40
1
 10
31.413206
 20
11.507440
 30
0.0
 10
31.382062
 20
11.443405
 30
0.0
 10
31.387446
 20
11.367619
 30
0.0
 10
31.427329
 20
11.308629
 30
0.0
  0
SPLINE
  5
2cf
100
AcDbEntity
  8
Layer_1
 62
7
100
AcDbSpline
 70
8
 71
3
 72
8
 73
4
 74
0
 40
0
 40
0
 40
0
 40
0
 40
1
 40
1
 40
1
 40
1
 10
31.427329
 20
11.308629
 30
0.0
 10
31.467213
 20
11.249640
 30
0.0
 10
31.535538
 20
11.216410
 30
0.0
 10
31.606566
 20
11.221455
 30
0.0
  0
LWPOLYLINE
  5
2d0
100
AcDbEntity
  8
Layer_1
 62
7
100
AcDbPolyline
 90
2
 70
0
 10
22.332699
 20
7.867917
 30
0.0
 10
22.312441
 20
7.969340
 30
0.0
  0
SPLINE
  5
2d1
100
AcDbEntity
  8
Layer_1
 62
7
100
AcDbSpline
 70
8
 71
3
 72
8
 73
4
 74
0
 40
0
 40
0
 40
0
 40
0
 40
1
 40
1
 40
1
 40
1
 10
21.706514
 20
6.820469
 30
0.0
 10
21.777542
 20
6.825515
 30
0.0
 10
21.840483
 20
6.868070
 30
0.0
 10
21.871627
 20
6.932105
 30
0.0
  0
SPLINE
  5
2d2
100
AcDbEntity
  8
Layer_1
 62
7
100
AcDbSpline
 70
8
 71
3
 72
8
 73
4
 74
0
 40
0
 40
0
 40
0
 40
0
 40
1
 40
1
 40
1
 40
1
 10
21.871627
 20
6.932105
 30
0.0
 10
21.902771
 20
6.996140
 30
0.0
 10
21.897388
 20
7.071926
 30
0.0
 10
21.857504
 20
7.130916
 30
0.0
  0
SPLINE
  5
2d3
100
AcDbEntity
  8
Layer_1
 62
7
100
AcDbSpline
 70
8
 71
3
 72
8
 73
4
 74
0
 40
0
 40
0
 40
0
 40
0
 40
1
 40
1
 40
1
 40
1
 10
21.857504
 20
7.130916
 30
0.0
 10
21.817620
 20
7.189905
 30
0.0
 10
21.749295
 20
7.223135
 30
0.0
 10
21.678267
 20
7.218090
 30
0.0
  0
SPLINE
  5
2d4
100
AcDbEntity
  8
Layer_1
 62
7
100
AcDbSpline
 70
8
 71
3
 72
8
 73
4
 74
0
 40
0
 40
0
 40
0
 40
0
 40
1
 40
1
 40
1
 40
1
 10
21.678267
 20
7.218090
 30
0.0
 10
21.607239
 20
7.213044
 30
0.0
 10
21.544299
 20
7.170488
 30
0.0
 10
21.513154
 20
7.106453
 30
0.0
  0
SPLINE
  5
2d5
100
AcDbEntity
  8
Layer_1
 62
7
100
AcDbSpline
 70
8
 71
3
 72
8
 73
4
 74
0
 40
0
 40
0
 40
0
 40
0
 40
1
 40
1
 40
1
 40
1
 10
21.513154
 20
7.106453
 30
0.0
 10
21.482010
 20
7.042419
 30
0.0
 10
21.487394
 20
6.966632
 30
0.0
 10
21.527277
 20
6.907643
 30
0.0
  0
SPLINE
  5
2d6
100
AcDbEntity
  8
Layer_1
 62
7
100
AcDbSpline
 70
8
 71
3
 72
8
 73
4
 74
0
 40
0
 40
0
 40
0
 40
0
 40
1
 40
1
 40
1
 40
1
 10
21.527277
 20
6.907643
 30
0.0
 10
21.567161
 20
6.848654
 30
0.0
 10
21.635486
 20
6.815423
 30
0.0
 10
21.706514
 20
6.820469
 30
0.0
  0
LWPOLYLINE
  5
2d7
100
AcDbEntity
  8
Layer_1
 62
7
100
AcDbPolyline
 90
1
 70
1
 10
31.606566
 20
11.221455
 30
0.0
  0
SPLINE
  5
2d8
100
AcDbEntity
  8
Layer_1
 62
7
100
AcDbSpline
 70
8
 71
3
 72
8
 73
4
 74
0
 40
0
 40
0
 40
0
 40
0
 40
1
 40
1
 40
1
 40
1
 10
16.639999
 20
19.147204
 30
0.0
 10
16.660100
 20
19.150655
 30
0.0
 10
16.676833
 20
19.164568
 30
0.0
 10
16.683894
 20
19.183702
 30
0.0
  0
SPLINE
  5
2d9
100
AcDbEntity
  8
Layer_1
 62
7
100
AcDbSpline
 70
8
 71
3
 72
8
 73
4
 74
0
 40
0
 40
0
 40
0
 40
0
 40
1
 40
1
 40
1
 40
1
 10
16.683894
 20
19.183702
 30
0.0
 10
16.690956
 20
19.202836
 30
0.0
 10
16.687273
 20
19.224283
 30
0.0
 10
16.674234
 20
19.239966
 30
0.0
  0
SPLINE
  5
2da
100
AcDbEntity
  8
Layer_1
 62
7
100
AcDbSpline
 70
8
 71
3
 72
8
 73
4
 74
0
 40
0
 40
0
 40
0
 40
0
 40
1
 40
1
 40
1
 40
1
 10
16.674234
 20
19.239966
 30
0.0
 10
16.661194
 20
19.255648
 30
0.0
 10
16.640779
 20
19.263182
 30
0.0
 10
16.620678
 20
19.259731
 30
0.0
  0
SPLINE
  5
2db
100
AcDbEntity
  8
Layer_1
 62
7
100
AcDbSpline
 70
8
 71
3
 72
8
 73
4
 74
0
 40
0
 40
0
 40
0
 40
0
 40
1
 40
1
 40
1
 40
1
 10
16.620678
 20
19.259731
 30
0.0
 10
16.600577
 20
19.256279
 30
0.0
 10
16.583844
 20
19.242366
 30
0.0
 10
16.576782
 20
19.223233
 30
0.0
  0
SPLINE
  5
2dc
100
AcDbEntity
  8
Layer_1
 62
7
100
AcDbSpline
 70
8
 71
3
 72
8
 73
4
 74
0
 40
0
 40
0
 40
0
 40
0
 40
1
 40
1
 40
1
 40
1
 10
16.576782
 20
19.223233
 30
0.0
 10
16.569721
 20
19.204099
 30
0.0
 10
16.573403
 20
19.182651
 30
0.0
 10
16.586443
 20
19.166969
 30
0.0
  0
SPLINE
  5
2dd
100
AcDbEntity
  8
Layer_1
 62
7
100
AcDbSpline
 70
8
 71
3
 72
8
 73
4
 74
0
 40
0
 40
0
 40
0
 40
0
 40
1
 40
1
 40
1
 40
1
 10
16.586443
 20
19.166969
 30
0.0
 10
16.599483
 20
19.151287
 30
0.0
 10
16.619898
 20
19.143752
 30
0.0
 10
16.639999
 20
19.147204
 30
0.0
  0
LWPOLYLINE
  5
2de
100
AcDbEntity
  8
Layer_1
 62
7
100
AcDbPolyline
 90
1
 70
1
 10
21.706514
 20
6.820469
 30
0.0
  0
LWPOLYLINE
  5
2df
100
AcDbEntity
  8
Layer_1
 62
7
100
AcDbPolyline
 90
1
 70
1
 10
16.639999
 20
19.147204
 30
0.0
  0
SPLINE
  5
2e0
100
AcDbEntity
  8
Layer_1
 62
7
100
AcDbSpline
 70
8
 71
3
 72
8
 73
4
 74
0
 40
0
 40
0
 40
0
 40
0
 40
1
 40
1
 40
1
 40
1
 10
17.477702
 20
19.848325
 30
0.0
 10
17.469256
 20
19.897517
 30
0.0
 10
17.463410
 20
19.926562
 30
0.0
 10
17.456884
 20
19.957854
 30
0.0
  0
SPLINE
  5
2e1
100
AcDbEntity
  8
Layer_1
 62
7
100
AcDbSpline
 70
8
 71
3
 72
8
 73
4
 74
0
 40
0
 40
0
 40
0
 40
0
 40
1
 40
1
 40
1
 40
1
 10
17.456884
 20
19.957854
 30
0.0
 10
17.418970
 20
20.139638
 30
0.0
 10
17.362655
 20
20.330037
 30
0.0
 10
17.280276
 20
20.526870
 30
0.0
  0
SPLINE
  5
2e2
100
AcDbEntity
  8
Layer_1
 62
7
100
AcDbSpline
 70
8
 71
3
 72
8
 73
4
 74
0
 40
0
 40
0
 40
0
 40
0
 40
1
 40
1
 40
1
 40
1
 10
17.280276
 20
20.526870
 30
0.0
 10
17.135786
 20
20.872108
 30
0.0
 10
16.921023
 20
21.213125
 30
0.0
 10
16.618271
 20
21.518521
 30
0.0
  0
SPLINE
  5
2e3
100
AcDbEntity
  8
Layer_1
 62
7
100
AcDbSpline
 70
8
 71
3
 72
8
 73
4
 74
0
 40
0
 40
0
 40
0
 40
0
 40
1
 40
1
 40
1
 40
1
 10
16.618271
 20
21.518521
 30
0.0
 10
16.345799
 20
21.793373
 30
0.0
 10
16.005933
 20
22.034970
 30
0.0
 10
15.594919
 20
22.204941
 30
0.0
  0
SPLINE
  5
2e4
100
AcDbEntity
  8
Layer_1
 62
7
100
AcDbSpline
 70
8
 71
3
 72
8
 73
4
 74
0
 40
0
 40
0
 40
0
 40
0
 40
1
 40
1
 40
1
 40
1
 10
15.594919
 20
22.204941
 30
0.0
 10
15.236885
 20
22.353002
 30
0.0
 10
14.829845
 20
22.444281
 30
0.0
 10
14.384430
 20
22.443021
 30
0.0
  0
SPLINE
  5
2e5
100
AcDbEntity
  8
Layer_1
 62
7
100
AcDbSpline
 70
8
 71
3
 72
8
 73
4
 74
0
 40
0
 40
0
 40
0
 40
0
 40
1
 40
1
 40
1
 40
1
 10
14.384430
 20
22.443021
 30
0.0
 10
14.236087
 20
22.442602
 30
0.0
 10
14.139162
 20
22.435859
 30
0.0
 10
14.001500
 20
22.418775
 30
0.0
  0
SPLINE
  5
2e6
100
AcDbEntity
  8
Layer_1
 62
7
100
AcDbSpline
 70
8
 71
3
 72
8
 73
4
 74
0
 40
0
 40
0
 40
0
 40
0
 40
1
 40
1
 40
1
 40
1
 10
14.001500
 20
22.418775
 30
0.0
 10
13.945069
 20
22.411772
 30
0.0
 10
13.881684
 20
22.403924
 30
0.0
 10
13.805056
 20
22.394477
 30
0.0
  0
SPLINE
  5
2e7
100
AcDbEntity
  8
Layer_1
 62
7
100
AcDbSpline
 70
8
 71
3
 72
8
 73
4
 74
0
 40
0
 40
0
 40
0
 40
0
 40
1
 40
1
 40
1
 40
1
 10
13.805056
 20
22.394477
 30
0.0
 10
13.377908
 20
22.341814
 30
0.0
 10
12.917388
 20
22.286148
 30
0.0
 10
12.429446
 20
22.228176
 30
0.0
  0
SPLINE
  5
2e8
100
AcDbEntity
  8
Layer_1
 62
7
100
AcDbSpline
 70
8
 71
3
 72
8
 73
4
 74
0
 40
0
 40
0
 40
0
 40
0
 40
1
 40
1
 40
1
 40
1
 10
12.429446
 20
22.228176
 30
0.0
 10
11.569248
 20
22.125973
 30
0.0
 10
10.638148
 20
22.018344
 30
0.0
 10
9.649776
 20
21.905578
 30
0.0
  0
SPLINE
  5
2e9
100
AcDbEntity
  8
Layer_1
 62
7
100
AcDbSpline
 70
8
 71
3
 72
8
 73
4
 74
0
 40
0
 40
0
 40
0
 40
0
 40
1
 40
1
 40
1
 40
1
 10
9.649776
 20
21.905578
 30
0.0
 10
8.932040
 20
21.823690
 30
0.0
 10
8.654213
 20
21.792322
 30
0.0
 10
8.519227
 20
21.777000
 30
0.0
  0
SPLINE
  5
2ea
100
AcDbEntity
  8
Layer_1
 62
7
100
AcDbSpline
 70
8
 71
3
 72
8
 73
4
 74
0
 40
0
 40
0
 40
0
 40
0
 40
1
 40
1
 40
1
 40
1
 10
8.519227
 20
21.777000
 30
0.0
 10
8.459956
 20
21.770273
 30
0.0
 10
8.428358
 20
21.765489
 30
0.0
 10
8.399134
 20
21.761031
 30
0.0
  0
SPLINE
  5
2eb
100
AcDbEntity
  8
Layer_1
 62
7
100
AcDbSpline
 70
8
 71
3
 72
8
 73
4
 74
0
 40
0
 40
0
 40
0
 40
0
 40
1
 40
1
 40
1
 40
1
 10
8.399134
 20
21.761031
 30
0.0
 10
8.024998
 20
21.703956
 30
0.0
 10
7.638905
 20
21.576980
 30
0.0
 10
7.267417
 20
21.356079
 30
0.0
  0
SPLINE
  5
2ec
100
AcDbEntity
  8
Layer_1
 62
7
100
AcDbSpline
 70
8
 71
3
 72
8
 73
4
 74
0
 40
0
 40
0
 40
0
 40
0
 40
1
 40
1
 40
1
 40
1
 10
7.267417
 20
21.356079
 30
0.0
 10
6.941719
 20
21.162407
 30
0.0
 10
6.631657
 20
20.898770
 30
0.0
 10
6.371030
 20
20.553278
 30
0.0
  0
SPLINE
  5
2ed
100
AcDbEntity
  8
Layer_1
 62
7
100
AcDbSpline
 70
8
 71
3
 72
8
 73
4
 74
0
 40
0
 40
0
 40
0
 40
0
 40
1
 40
1
 40
1
 40
1
 10
6.371030
 20
20.553278
 30
0.0
 10
6.141099
 20
20.248473
 30
0.0
 10
5.953068
 20
19.883918
 30
0.0
 10
5.843010
 20
19.461936
 30
0.0
  0
SPLINE
  5
2ee
100
AcDbEntity
  8
Layer_1
 62
7
100
AcDbSpline
 70
8
 71
3
 72
8
 73
4
 74
0
 40
0
 40
0
 40
0
 40
0
 40
1
 40
1
 40
1
 40
1
 10
5.843010
 20
19.461936
 30
0.0
 10
5.745557
 20
19.088282
 30
0.0
 10
5.710941
 20
18.674709
 30
0.0
 10
5.771930
 20
18.237867
 30
0.0
  0
SPLINE
  5
2ef
100
AcDbEntity
  8
Layer_1
 62
7
100
AcDbSpline
 70
8
 71
3
 72
8
 73
4
 74
0
 40
0
 40
0
 40
0
 40
0
 40
1
 40
1
 40
1
 40
1
 10
5.771930
 20
18.237867
 30
0.0
 10
5.775307
 20
18.213643
 30
0.0
 10
5.777455
 20
18.196576
 30
0.0
 10
5.787076
 20
18.140541
 30
0.0
  0
LWPOLYLINE
  5
2f0
100
AcDbEntity
  8
Layer_1
 62
7
100
AcDbPolyline
 90
3
 70
0
 10
17.057307
 20
16.480570
 30
0.0
 10
18.027361
 20
16.647134
 30
0.0
 10
17.477701
 20
19.848305
 30
0.0
  0
SPLINE
  5
2f1
100
AcDbEntity
  8
Layer_1
 62
7
100
AcDbSpline
 70
8
 71
3
 72
8
 73
4
 74
0
 40
0
 40
0
 40
0
 40
0
 40
1
 40
1
 40
1
 40
1
 10
9.273157
 20
19.997517
 30
0.0
 10
8.834820
 20
20.123957
 30
0.0
 10
8.362317
 20
20.025250
 30
0.0
 10
8.011256
 20
19.733904
 30
0.0
  0
SPLINE
  5
2f2
100
AcDbEntity
  8
Layer_1
 62
7
100
AcDbSpline
 70
8
 71
3
 72
8
 73
4
 74
0
 40
0
 40
0
 40
0
 40
0
 40
1
 40
1
 40
1
 40
1
 10
8.011256
 20
19.733904
 30
0.0
 10
7.660196
 20
19.442557
 30
0.0
 10
7.476091
 20
18.996341
 30
0.0
 10
7.519574
 20
18.542210
 30
0.0
  0
LWPOLYLINE
  5
2f3
100
AcDbEntity
  8
Layer_1
 62
7
100
AcDbPolyline
 90
3
 70
0
 10
5.787056
 20
18.140588
 30
0.0
 10
7.524133
 20
18.438854
 30
0.0
 10
7.519603
 20
18.542182
 30
0.0
  0
SPLINE
  5
2f4
100
AcDbEntity
  8
Layer_1
 62
7
100
AcDbSpline
 70
8
 71
3
 72
8
 73
4
 74
0
 40
0
 40
0
 40
0
 40
0
 40
1
 40
1
 40
1
 40
1
 10
17.057314
 20
16.480547
 30
0.0
 10
16.916829
 20
17.298718
 30
0.0
 10
16.320953
 20
17.964554
 30
0.0
 10
15.523328
 20
18.194632
 30
0.0
  0
SPLINE
  5
2f5
100
AcDbEntity
  8
Layer_1
 62
7
100
AcDbSpline
 70
8
 71
3
 72
8
 73
4
 74
0
 40
0
 40
0
 40
0
 40
0
 40
1
 40
1
 40
1
 40
1
 10
6.729003
 20
19.017059
 30
0.0
 10
6.799183
 20
19.029109
 30
0.0
 10
6.857603
 20
19.077685
 30
0.0
 10
6.882257
 20
19.144488
 30
0.0
  0
SPLINE
  5
2f6
100
AcDbEntity
  8
Layer_1
 62
7
100
AcDbSpline
 70
8
 71
3
 72
8
 73
4
 74
0
 40
0
 40
0
 40
0
 40
0
 40
1
 40
1
 40
1
 40
1
 10
6.882257
 20
19.144488
 30
0.0
 10
6.906911
 20
19.211291
 30
0.0
 10
6.894054
 20
19.286172
 30
0.0
 10
6.848528
 20
19.340924
 30
0.0
  0
SPLINE
  5
2f7
100
AcDbEntity
  8
Layer_1
 62
7
100
AcDbSpline
 70
8
 71
3
 72
8
 73
4
 74
0
 40
0
 40
0
 40
0
 40
0
 40
1
 40
1
 40
1
 40
1
 10
6.848528
 20
19.340924
 30
0.0
 10
6.803002
 20
19.395677
 30
0.0
 10
6.731724
 20
19.421983
 30
0.0
 10
6.661544
 20
19.409932
 30
0.0
  0
SPLINE
  5
2f8
100
AcDbEntity
  8
Layer_1
 62
7
100
AcDbSpline
 70
8
 71
3
 72
8
 73
4
 74
0
 40
0
 40
0
 40
0
 40
0
 40
1
 40
1
 40
1
 40
1
 10
6.661544
 20
19.409932
 30
0.0
 10
6.591364
 20
19.397882
 30
0.0
 10
6.532944
 20
19.349306
 30
0.0
 10
6.508290
 20
19.282503
 30
0.0
  0
SPLINE
  5
2f9
100
AcDbEntity
  8
Layer_1
 62
7
100
AcDbSpline
 70
8
 71
3
 72
8
 73
4
 74
0
 40
0
 40
0
 40
0
 40
0
 40
1
 40
1
 40
1
 40
1
 10
6.508290
 20
19.282503
 30
0.0
 10
6.483636
 20
19.215701
 30
0.0
 10
6.496493
 20
19.140819
 30
0.0
 10
6.542019
 20
19.086067
 30
0.0
  0
SPLINE
  5
2fa
100
AcDbEntity
  8
Layer_1
 62
7
100
AcDbSpline
 70
8
 71
3
 72
8
 73
4
 74
0
 40
0
 40
0
 40
0
 40
0
 40
1
 40
1
 40
1
 40
1
 10
6.542019
 20
19.086067
 30
0.0
 10
6.587545
 20
19.031314
 30
0.0
 10
6.658823
 20
19.005009
 30
0.0
 10
6.729003
 20
19.017059
 30
0.0
  0
LWPOLYLINE
  5
2fb
100
AcDbEntity
  8
Layer_1
 62
7
100
AcDbPolyline
 90
2
 70
0
 10
9.273189
 20
19.997534
 30
0.0
 10
15.523328
 20
18.194656
 30
0.0
  0
SPLINE
  5
2fc
100
AcDbEntity
  8
Layer_1
 62
7
100
AcDbSpline
 70
8
 71
3
 72
8
 73
4
 74
0
 40
0
 40
0
 40
0
 40
0
 40
1
 40
1
 40
1
 40
1
 10
17.393281
 20
17.105795
 30
0.0
 10
17.463461
 20
17.117845
 30
0.0
 10
17.521881
 20
17.166421
 30
0.0
 10
17.546536
 20
17.233224
 30
0.0
  0
SPLINE
  5
2fd
100
AcDbEntity
  8
Layer_1
 62
7
100
AcDbSpline
 70
8
 71
3
 72
8
 73
4
 74
0
 40
0
 40
0
 40
0
 40
0
 40
1
 40
1
 40
1
 40
1
 10
17.546536
 20
17.233224
 30
0.0
 10
17.571190
 20
17.300026
 30
0.0
 10
17.558332
 20
17.374908
 30
0.0
 10
17.512806
 20
17.429660
 30
0.0
  0
SPLINE
  5
2fe
100
AcDbEntity
  8
Layer_1
 62
7
100
AcDbSpline
 70
8
 71
3
 72
8
 73
4
 74
0
 40
0
 40
0
 40
0
 40
0
 40
1
 40
1
 40
1
 40
1
 10
17.512806
 20
17.429660
 30
0.0
 10
17.467280
 20
17.484413
 30
0.0
 10
17.396003
 20
17.510718
 30
0.0
 10
17.325823
 20
17.498668
 30
0.0
  0
SPLINE
  5
2ff
100
AcDbEntity
  8
Layer_1
 62
7
100
AcDbSpline
 70
8
 71
3
 72
8
 73
4
 74
0
 40
0
 40
0
 40
0
 40
0
 40
1
 40
1
 40
1
 40
1
 10
17.325823
 20
17.498668
 30
0.0
 10
17.255642
 20
17.486618
 30
0.0
 10
17.197222
 20
17.438042
 30
0.0
 10
17.172568
 20
17.371239
 30
0.0
  0
SPLINE
  5
300
100
AcDbEntity
  8
Layer_1
 62
7
100
AcDbSpline
 70
8
 71
3
 72
8
 73
4
 74
0
 40
0
 40
0
 40
0
 40
0
 40
1
 40
1
 40
1
 40
1
 10
17.172568
 20
17.371239
 30
0.0
 10
17.147914
 20
17.304436
 30
0.0
 10
17.160771
 20
17.229555
 30
0.0
 10
17.206297
 20
17.174803
 30
0.0
  0
SPLINE
  5
301
100
AcDbEntity
  8
Layer_1
 62
7
100
AcDbSpline
 70
8
 71
3
 72
8
 73
4
 74
0
 40
0
 40
0
 40
0
 40
0
 40
1
 40
1
 40
1
 40
1
 10
17.206297
 20
17.174803
 30
0.0
 10
17.251823
 20
17.120050
 30
0.0
 10
17.323101
 20
17.093745
 30
0.0
 10
17.393281
 20
17.105795
 30
0.0
  0
LWPOLYLINE
  5
302
100
AcDbEntity
  8
Layer_1
 62
7
100
AcDbPolyline
 90
1
 70
1
 10
6.729003
 20
19.017059
 30
0.0
  0
SPLINE
  5
303
100
AcDbEntity
  8
Layer_1
 62
7
100
AcDbSpline
 70
8
 71
3
 72
8
 73
4
 74
0
 40
0
 40
0
 40
0
 40
0
 40
1
 40
1
 40
1
 40
1
 10
21.181112
 20
19.120838
 30
0.0
 10
21.163199
 20
19.130590
 30
0.0
 10
21.141445
 20
19.130045
 30
0.0
 10
21.124043
 20
19.119408
 30
0.0
  0
SPLINE
  5
304
100
AcDbEntity
  8
Layer_1
 62
7
100
AcDbSpline
 70
8
 71
3
 72
8
 73
4
 74
0
 40
0
 40
0
 40
0
 40
0
 40
1
 40
1
 40
1
 40
1
 10
21.124043
 20
19.119408
 30
0.0
 10
21.106641
 20
19.108771
 30
0.0
 10
21.096236
 20
19.089658
 30
0.0
 10
21.096747
 20
19.069269
 30
0.0
  0
SPLINE
  5
305
100
AcDbEntity
  8
Layer_1
 62
7
100
AcDbSpline
 70
8
 71
3
 72
8
 73
4
 74
0
 40
0
 40
0
 40
0
 40
0
 40
1
 40
1
 40
1
 40
1
 10
21.096747
 20
19.069269
 30
0.0
 10
21.097258
 20
19.048881
 30
0.0
 10
21.108607
 20
19.030313
 30
0.0
 10
21.126520
 20
19.020561
 30
0.0
  0
SPLINE
  5
306
100
AcDbEntity
  8
Layer_1
 62
7
100
AcDbSpline
 70
8
 71
3
 72
8
 73
4
 74
0
 40
0
 40
0
 40
0
 40
0
 40
1
 40
1
 40
1
 40
1
 10
21.126520
 20
19.020561
 30
0.0
 10
21.144433
 20
19.010809
 30
0.0
 10
21.166187
 20
19.011354
 30
0.0
 10
21.183589
 20
19.021991
 30
0.0
  0
SPLINE
  5
307
100
AcDbEntity
  8
Layer_1
 62
7
100
AcDbSpline
 70
8
 71
3
 72
8
 73
4
 74
0
 40
0
 40
0
 40
0
 40
0
 40
1
 40
1
 40
1
 40
1
 10
21.183589
 20
19.021991
 30
0.0
 10
21.200991
 20
19.032628
 30
0.0
 10
21.211396
 20
19.051741
 30
0.0
 10
21.210885
 20
19.072130
 30
0.0
  0
SPLINE
  5
308
100
AcDbEntity
  8
Layer_1
 62
7
100
AcDbSpline
 70
8
 71
3
 72
8
 73
4
 74
0
 40
0
 40
0
 40
0
 40
0
 40
1
 40
1
 40
1
 40
1
 10
21.210885
 20
19.072130
 30
0.0
 10
21.210374
 20
19.092518
 30
0.0
 10
21.199025
 20
19.111086
 30
0.0
 10
21.181112
 20
19.120838
 30
0.0
  0
LWPOLYLINE
  5
309
100
AcDbEntity
  8
Layer_1
 62
7
100
AcDbPolyline
 90
1
 70
1
 10
17.393281
 20
17.105795
 30
0.0
  0
SPLINE
  5
30a
100
AcDbEntity
  8
Layer_1
 62
7
100
AcDbSpline
 70
8
 71
3
 72
8
 73
4
 74
0
 40
0
 40
0
 40
0
 40
0
 40
1
 40
1
 40
1
 40
1
 10
29.540196
 20
18.335445
 30
0.0
 10
29.522284
 20
18.345197
 30
0.0
 10
29.500529
 20
18.344651
 30
0.0
 10
29.483127
 20
18.334014
 30
0.0
  0
SPLINE
  5
30b
100
AcDbEntity
  8
Layer_1
 62
7
100
AcDbSpline
 70
8
 71
3
 72
8
 73
4
 74
0
 40
0
 40
0
 40
0
 40
0
 40
1
 40
1
 40
1
 40
1
 10
29.483127
 20
18.334014
 30
0.0
 10
29.465725
 20
18.323378
 30
0.0
 10
29.455320
 20
18.304265
 30
0.0
 10
29.455831
 20
18.283876
 30
0.0
  0
SPLINE
  5
30c
100
AcDbEntity
  8
Layer_1
 62
7
100
AcDbSpline
 70
8
 71
3
 72
8
 73
4
 74
0
 40
0
 40
0
 40
0
 40
0
 40
1
 40
1
 40
1
 40
1
 10
29.455831
 20
18.283876
 30
0.0
 10
29.456342
 20
18.263487
 30
0.0
 10
29.467692
 20
18.244920
 30
0.0
 10
29.485604
 20
18.235168
 30
0.0
  0
SPLINE
  5
30d
100
AcDbEntity
  8
Layer_1
 62
7
100
AcDbSpline
 70
8
 71
3
 72
8
 73
4
 74
0
 40
0
 40
0
 40
0
 40
0
 40
1
 40
1
 40
1
 40
1
 10
29.485604
 20
18.235168
 30
0.0
 10
29.503517
 20
18.225416
 30
0.0
 10
29.525272
 20
18.225961
 30
0.0
 10
29.542673
 20
18.236598
 30
0.0
  0
SPLINE
  5
30e
100
AcDbEntity
  8
Layer_1
 62
7
100
AcDbSpline
 70
8
 71
3
 72
8
 73
4
 74
0
 40
0
 40
0
 40
0
 40
0
 40
1
 40
1
 40
1
 40
1
 10
29.542673
 20
18.236598
 30
0.0
 10
29.560075
 20
18.247235
 30
0.0
 10
29.570480
 20
18.266348
 30
0.0
 10
29.569969
 20
18.286736
 30
0.0
  0
SPLINE
  5
30f
100
AcDbEntity
  8
Layer_1
 62
7
100
AcDbSpline
 70
8
 71
3
 72
8
 73
4
 74
0
 40
0
 40
0
 40
0
 40
0
 40
1
 40
1
 40
1
 40
1
 10
29.569969
 20
18.286736
 30
0.0
 10
29.569458
 20
18.307125
 30
0.0
 10
29.558109
 20
18.325693
 30
0.0
 10
29.540196
 20
18.335445
 30
0.0
  0
LWPOLYLINE
  5
310
100
AcDbEntity
  8
Layer_1
 62
7
100
AcDbPolyline
 90
1
 70
1
 10
21.181112
 20
19.120838
 30
0.0
  0
LWPOLYLINE
  5
311
100
AcDbEntity
  8
Layer_1
 62
7
100
AcDbPolyline
 90
1
 70
1
 10
29.540196
 20
18.335445
 30
0.0
  0
SPLINE
  5
312
100
AcDbEntity
  8
Layer_1
 62
7
100
AcDbSpline
 70
8
 71
3
 72
8
 73
4
 74
0
 40
0
 40
0
 40
0
 40
0
 40
1
 40
1
 40
1
 40
1
 10
31.074351
 20
14.566342
 30
0.0
 10
31.140818
 20
14.688431
 30
0.0
 10
31.204995
 20
14.819766
 30
0.0
 10
31.410723
 20
15.394362
 30
0.0
  0
SPLINE
  5
313
100
AcDbEntity
  8
Layer_1
 62
7
100
AcDbSpline
 70
8
 71
3
 72
8
 73
4
 74
0
 40
0
 40
0
 40
0
 40
0
 40
1
 40
1
 40
1
 40
1
 10
31.410723
 20
15.394362
 30
0.0
 10
31.410723
 20
15.394362
 30
0.0
 10
31.471540
 20
15.800356
 30
0.0
 10
31.435693
 20
16.614194
 30
0.0
  0
SPLINE
  5
314
100
AcDbEntity
  8
Layer_1
 62
7
100
AcDbSpline
 70
8
 71
3
 72
8
 73
4
 74
0
 40
0
 40
0
 40
0
 40
0
 40
1
 40
1
 40
1
 40
1
 10
31.435693
 20
16.614194
 30
0.0
 10
31.435693
 20
16.614194
 30
0.0
 10
31.337703
 20
17.014025
 30
0.0
 10
30.993792
 20
17.756695
 30
0.0
  0
SPLINE
  5
315
100
AcDbEntity
  8
Layer_1
 62
7
100
AcDbSpline
 70
8
 71
3
 72
8
 73
4
 74
0
 40
0
 40
0
 40
0
 40
0
 40
1
 40
1
 40
1
 40
1
 10
30.993792
 20
17.756695
 30
0.0
 10
30.993792
 20
17.756695
 30
0.0
 10
30.749222
 20
18.091206
 30
0.0
 10
30.448783
 20
18.368627
 30
0.0
  0
SPLINE
  5
316
100
AcDbEntity
  8
Layer_1
 62
7
100
AcDbSpline
 70
8
 71
3
 72
8
 73
4
 74
0
 40
0
 40
0
 40
0
 40
0
 40
1
 40
1
 40
1
 40
1
 10
30.448783
 20
18.368627
 30
0.0
 10
30.293809
 20
18.511728
 30
0.0
 10
30.124825
 20
18.638854
 30
0.0
 10
29.944407
 20
18.748151
 30
0.0
  0
SPLINE
  5
317
100
AcDbEntity
  8
Layer_1
 62
7
100
AcDbSpline
 70
8
 71
3
 72
8
 73
4
 74
0
 40
0
 40
0
 40
0
 40
0
 40
1
 40
1
 40
1
 40
1
 10
29.944407
 20
18.748151
 30
0.0
 10
29.871562
 20
18.792280
 30
0.0
 10
29.829931
 20
18.816496
 30
0.0
 10
29.730621
 20
18.866588
 30
0.0
  0
SPLINE
  5
318
100
AcDbEntity
  8
Layer_1
 62
7
100
AcDbSpline
 70
8
 71
3
 72
8
 73
4
 74
0
 40
0
 40
0
 40
0
 40
0
 40
1
 40
1
 40
1
 40
1
 10
29.730621
 20
18.866588
 30
0.0
 10
29.657357
 20
18.903543
 30
0.0
 10
29.553409
 20
18.955973
 30
0.0
 10
29.382941
 20
19.041971
 30
0.0
  0
SPLINE
  5
319
100
AcDbEntity
  8
Layer_1
 62
7
100
AcDbSpline
 70
8
 71
3
 72
8
 73
4
 74
0
 40
0
 40
0
 40
0
 40
0
 40
1
 40
1
 40
1
 40
1
 10
29.382941
 20
19.041971
 30
0.0
 10
28.982556
 20
19.243960
 30
0.0
 10
28.595348
 20
19.439384
 30
0.0
 10
28.203022
 20
19.637620
 30
0.0
  0
SPLINE
  5
31a
100
AcDbEntity
  8
Layer_1
 62
7
100
AcDbSpline
 70
8
 71
3
 72
8
 73
4
 74
0
 40
0
 40
0
 40
0
 40
0
 40
1
 40
1
 40
1
 40
1
 10
28.203022
 20
19.637620
 30
0.0
 10
27.388929
 20
20.048969
 30
0.0
 10
26.560830
 20
20.468388
 30
0.0
 10
25.756131
 20
20.878297
 30
0.0
  0
SPLINE
  5
31b
100
AcDbEntity
  8
Layer_1
 62
7
100
AcDbSpline
 70
8
 71
3
 72
8
 73
4
 74
0
 40
0
 40
0
 40
0
 40
0
 40
1
 40
1
 40
1
 40
1
 10
25.756131
 20
20.878297
 30
0.0
 10
25.154570
 20
21.184728
 30
0.0
 10
24.927660
 20
21.301226
 30
0.0
 10
24.812491
 20
21.360207
 30
0.0
  0
SPLINE
  5
31c
100
AcDbEntity
  8
Layer_1
 62
7
100
AcDbSpline
 70
8
 71
3
 72
8
 73
4
 74
0
 40
0
 40
0
 40
0
 40
0
 40
1
 40
1
 40
1
 40
1
 10
24.812491
 20
21.360207
 30
0.0
 10
24.743550
 20
21.395515
 30
0.0
 10
24.714012
 20
21.408959
 30
0.0
 10
24.667875
 20
21.429713
 30
0.0
  0
SPLINE
  5
31d
100
AcDbEntity
  8
Layer_1
 62
7
100
AcDbSpline
 70
8
 71
3
 72
8
 73
4
 74
0
 40
0
 40
0
 40
0
 40
0
 40
1
 40
1
 40
1
 40
1
 10
24.667875
 20
21.429713
 30
0.0
 10
24.486778
 20
21.511180
 30
0.0
 10
24.299258
 20
21.575070
 30
0.0
 10
24.107813
 20
21.620928
 30
0.0
  0
SPLINE
  5
31e
100
AcDbEntity
  8
Layer_1
 62
7
100
AcDbSpline
 70
8
 71
3
 72
8
 73
4
 74
0
 40
0
 40
0
 40
0
 40
0
 40
1
 40
1
 40
1
 40
1
 10
24.107813
 20
21.620928
 30
0.0
 10
23.722023
 20
21.713336
 30
0.0
 10
23.324166
 20
21.731605
 30
0.0
 10
22.934844
 20
21.676332
 30
0.0
  0
SPLINE
  5
31f
100
AcDbEntity
  8
Layer_1
 62
7
100
AcDbSpline
 70
8
 71
3
 72
8
 73
4
 74
0
 40
0
 40
0
 40
0
 40
0
 40
1
 40
1
 40
1
 40
1
 10
22.934844
 20
21.676332
 30
0.0
 10
22.530165
 20
21.618879
 30
0.0
 10
22.142529
 20
21.483098
 30
0.0
 10
21.792847
 20
21.278363
 30
0.0
  0
SPLINE
  5
320
100
AcDbEntity
  8
Layer_1
 62
7
100
AcDbSpline
 70
8
 71
3
 72
8
 73
4
 74
0
 40
0
 40
0
 40
0
 40
0
 40
1
 40
1
 40
1
 40
1
 10
21.792847
 20
21.278363
 30
0.0
 10
21.433345
 20
21.067879
 30
0.0
 10
21.121128
 20
20.788761
 30
0.0
 10
20.872740
 20
20.458771
 30
0.0
  0
SPLINE
  5
321
100
AcDbEntity
  8
Layer_1
 62
7
100
AcDbSpline
 70
8
 71
3
 72
8
 73
4
 74
0
 40
0
 40
0
 40
0
 40
0
 40
1
 40
1
 40
1
 40
1
 10
20.872740
 20
20.458771
 30
0.0
 10
20.758798
 20
20.307396
 30
0.0
 10
20.689430
 20
20.192551
 30
0.0
 10
20.623756
 20
20.071917
 30
0.0
  0
LWPOLYLINE
  5
322
100
AcDbEntity
  8
Layer_1
 62
7
100
AcDbPolyline
 90
2
 70
0
 10
29.526419
 20
15.409116
 30
0.0
 10
31.074386
 20
14.566380
 30
0.0
  0
SPLINE
  5
323
100
AcDbEntity
  8
Layer_1
 62
7
100
AcDbSpline
 70
8
 71
3
 72
8
 73
4
 74
0
 40
0
 40
0
 40
0
 40
0
 40
1
 40
1
 40
1
 40
1
 10
21.876161
 20
17.758663
 30
0.0
 10
21.046959
 20
17.798219
 30
0.0
 10
20.268131
 20
17.360228
 30
0.0
 10
19.871199
 20
16.631129
 30
0.0
  0
LWPOLYLINE
  5
324
100
AcDbEntity
  8
Layer_1
 62
7
100
AcDbPolyline
 90
3
 70
0
 10
20.623754
 20
20.071904
 30
0.0
 10
19.006767
 20
17.101766
 30
0.0
 10
19.871213
 20
16.631148
 30
0.0
  0
SPLINE
  5
325
100
AcDbEntity
  8
Layer_1
 62
7
100
AcDbSpline
 70
8
 71
3
 72
8
 73
4
 74
0
 40
0
 40
0
 40
0
 40
0
 40
1
 40
1
 40
1
 40
1
 10
29.564080
 20
15.505474
 30
0.0
 10
29.751750
 20
15.921295
 30
0.0
 10
29.721448
 20
16.403046
 30
0.0
 10
29.483154
 20
16.792074
 30
0.0
  0
SPLINE
  5
326
100
AcDbEntity
  8
Layer_1
 62
7
100
AcDbSpline
 70
8
 71
3
 72
8
 73
4
 74
0
 40
0
 40
0
 40
0
 40
0
 40
1
 40
1
 40
1
 40
1
 10
29.483154
 20
16.792074
 30
0.0
 10
29.244860
 20
17.181101
 30
0.0
 10
28.829466
 20
17.426970
 30
0.0
 10
28.373776
 20
17.448707
 30
0.0
  0
LWPOLYLINE
  5
327
100
AcDbEntity
  8
Layer_1
 62
7
100
AcDbPolyline
 90
2
 70
0
 10
21.876168
 20
17.758685
 30
0.0
 10
28.373751
 20
17.448734
 30
0.0
  0
SPLINE
  5
328
100
AcDbEntity
  8
Layer_1
 62
7
100
AcDbSpline
 70
8
 71
3
 72
8
 73
4
 74
0
 40
0
 40
0
 40
0
 40
0
 40
1
 40
1
 40
1
 40
1
 10
19.945516
 20
17.681436
 30
0.0
 10
19.882976
 20
17.715484
 30
0.0
 10
19.807023
 20
17.713580
 30
0.0
 10
19.746267
 20
17.676443
 30
0.0
  0
SPLINE
  5
329
100
AcDbEntity
  8
Layer_1
 62
7
100
AcDbSpline
 70
8
 71
3
 72
8
 73
4
 74
0
 40
0
 40
0
 40
0
 40
0
 40
1
 40
1
 40
1
 40
1
 10
19.746267
 20
17.676443
 30
0.0
 10
19.685511
 20
17.639306
 30
0.0
 10
19.649183
 20
17.572577
 30
0.0
 10
19.650966
 20
17.501392
 30
0.0
  0
SPLINE
  5
32a
100
AcDbEntity
  8
Layer_1
 62
7
100
AcDbSpline
 70
8
 71
3
 72
8
 73
4
 74
0
 40
0
 40
0
 40
0
 40
0
 40
1
 40
1
 40
1
 40
1
 10
19.650966
 20
17.501392
 30
0.0
 10
19.652750
 20
17.430207
 30
0.0
 10
19.692375
 20
17.365382
 30
0.0
 10
19.754915
 20
17.331334
 30
0.0
  0
SPLINE
  5
32b
100
AcDbEntity
  8
Layer_1
 62
7
100
AcDbSpline
 70
8
 71
3
 72
8
 73
4
 74
0
 40
0
 40
0
 40
0
 40
0
 40
1
 40
1
 40
1
 40
1
 10
19.754915
 20
17.331334
 30
0.0
 10
19.817455
 20
17.297287
 30
0.0
 10
19.893408
 20
17.299190
 30
0.0
 10
19.954164
 20
17.336327
 30
0.0
  0
SPLINE
  5
32c
100
AcDbEntity
  8
Layer_1
 62
7
100
AcDbSpline
 70
8
 71
3
 72
8
 73
4
 74
0
 40
0
 40
0
 40
0
 40
0
 40
1
 40
1
 40
1
 40
1
 10
19.954164
 20
17.336327
 30
0.0
 10
20.014920
 20
17.373464
 30
0.0
 10
20.051248
 20
17.440193
 30
0.0
 10
20.049464
 20
17.511378
 30
0.0
  0
SPLINE
  5
32d
100
AcDbEntity
  8
Layer_1
 62
7
100
AcDbSpline
 70
8
 71
3
 72
8
 73
4
 74
0
 40
0
 40
0
 40
0
 40
0
 40
1
 40
1
 40
1
 40
1
 10
20.049464
 20
17.511378
 30
0.0
 10
20.047680
 20
17.582563
 30
0.0
 10
20.008055
 20
17.647389
 30
0.0
 10
19.945516
 20
17.681436
 30
0.0
  0
LWPOLYLINE
  5
32e
100
AcDbEntity
  8
Layer_1
 62
7
100
AcDbPolyline
 90
2
 70
0
 10
29.564043
 20
15.505457
 30
0.0
 10
29.526419
 20
15.409116
 30
0.0
  0
SPLINE
  5
32f
100
AcDbEntity
  8
Layer_1
 62
7
100
AcDbSpline
 70
8
 71
3
 72
8
 73
4
 74
0
 40
0
 40
0
 40
0
 40
0
 40
1
 40
1
 40
1
 40
1
 10
30.656175
 20
16.049979
 30
0.0
 10
30.593635
 20
16.084027
 30
0.0
 10
30.517682
 20
16.082123
 30
0.0
 10
30.456926
 20
16.044986
 30
0.0
  0
SPLINE
  5
330
100
AcDbEntity
  8
Layer_1
 62
7
100
AcDbSpline
 70
8
 71
3
 72
8
 73
4
 74
0
 40
0
 40
0
 40
0
 40
0
 40
1
 40
1
 40
1
 40
1
 10
30.456926
 20
16.044986
 30
0.0
 10
30.396170
 20
16.007849
 30
0.0
 10
30.359842
 20
15.941120
 30
0.0
 10
30.361626
 20
15.869935
 30
0.0
  0
SPLINE
  5
331
100
AcDbEntity
  8
Layer_1
 62
7
100
AcDbSpline
 70
8
 71
3
 72
8
 73
4
 74
0
 40
0
 40
0
 40
0
 40
0
 40
1
 40
1
 40
1
 40
1
 10
30.361626
 20
15.869935
 30
0.0
 10
30.363410
 20
15.798750
 30
0.0
 10
30.403035
 20
15.733924
 30
0.0
 10
30.465574
 20
15.699877
 30
0.0
  0
SPLINE
  5
332
100
AcDbEntity
  8
Layer_1
 62
7
100
AcDbSpline
 70
8
 71
3
 72
8
 73
4
 74
0
 40
0
 40
0
 40
0
 40
0
 40
1
 40
1
 40
1
 40
1
 10
30.465574
 20
15.699877
 30
0.0
 10
30.528114
 20
15.665829
 30
0.0
 10
30.604067
 20
15.667733
 30
0.0
 10
30.664823
 20
15.704870
 30
0.0
  0
SPLINE
  5
333
100
AcDbEntity
  8
Layer_1
 62
7
100
AcDbSpline
 70
8
 71
3
 72
8
 73
4
 74
0
 40
0
 40
0
 40
0
 40
0
 40
1
 40
1
 40
1
 40
1
 10
30.664823
 20
15.704870
 30
0.0
 10
30.725579
 20
15.742007
 30
0.0
 10
30.761907
 20
15.808736
 30
0.0
 10
30.760124
 20
15.879921
 30
0.0
  0
SPLINE
  5
334
100
AcDbEntity
  8
Layer_1
 62
7
100
AcDbSpline
 70
8
 71
3
 72
8
 73
4
 74
0
 40
0
 40
0
 40
0
 40
0
 40
1
 40
1
 40
1
 40
1
 10
30.760124
 20
15.879921
 30
0.0
 10
30.758340
 20
15.951106
 30
0.0
 10
30.718715
 20
16.015932
 30
0.0
 10
30.656175
 20
16.049979
 30
0.0
  0
LWPOLYLINE
  5
335
100
AcDbEntity
  8
Layer_1
 62
7
100
AcDbPolyline
 90
1
 70
1
 10
19.945516
 20
17.681436
 30
0.0
  0
LWPOLYLINE
  5
336
100
AcDbEntity
  8
Layer_1
 62
7
100
AcDbPolyline
 90
1
 70
1
 10
30.656175
 20
16.049979
 30
0.0
  0
ENDSEC
  0
SECTION
  2
OBJECTS
  0
DICTIONARY
  5
C
330
0
100
AcDbDictionary
  3
ACAD_GROUP
350
D
  3
ACAD_MLINESTYLE
350
17
  0
DICTIONARY
  5
D
330
C
100
AcDbDictionary
  0
DICTIONARY
  5
1A
330
C
100
AcDbDictionary
  0
DICTIONARY
  5
17
330
C
100
AcDbDictionary
  3
STANDARD
350
18
  0
DICTIONARY
  5
19
330
C
100
AcDbDictionary
  0
ENDSEC
  0
EOF
