  0
SECTION
  2
HEADER
  9
$ACADVER
  1
AC1014
  9
$HANDSEED
  5
FFFF
  9
$INSUNITS
 70
     4
  9
$MEASUREMENT
 70
     1
  0
ENDSEC
  0
SECTION
  2
TABLES
  0
TABLE
  2
VPORT
  5
8
330
0
100
AcDbSymbolTable
 70
     4
  0
VPORT
  5
2E
330
8
100
AcDbSymbolTableRecord
100
AcDbViewportTableRecord
  2
*ACTIVE
 70
     0
 10
0.0
 20
0.0
 11
1.0
 21
1.0
 12
210.0
 22
148.5
 13
0.0
 23
0.0
 14
10.0
 24
10.0
 15
10.0
 25
10.0
 16
0.0
 26
0.0
 36
1.0
 17
0.0
 27
0.0
 37
0.0
 40
341.0
 41
1.24
 42
50.0
 43
0.0
 44
0.0
 50
0.0
 51
0.0
 71
     0
 72
   100
 73
     1
 74
     3
 75
     0
 76
     0
 77
     0
 78
     0
  0
ENDTAB
  0
TABLE
  2
LTYPE
  5
5
330
0
100
AcDbSymbolTable
 70
     1
  0
LTYPE
  5
14
330
5
100
AcDbSymbolTableRecord
100
AcDbLinetypeTableRecord
  2
BYBLOCK
 70
     0
  3

 72
    65
 73
     0
 40
0.0
  0
LTYPE
  5
15
330
5
100
AcDbSymbolTableRecord
100
AcDbLinetypeTableRecord
  2
BYLAYER
 70
     0
  3

 72
    65
 73
     0
 40
0.0
  0
LTYPE
  5
16
330
5
100
AcDbSymbolTableRecord
100
AcDbLinetypeTableRecord
  2
CONTINUOUS
 70
     0
  3
Solid line
 72
    65
 73
     0
 40
0.0
  0
ENDTAB
  0
TABLE
  2
LAYER
  5
2
100
AcDbSymbolTable
 70
2
  0
LAYER
  5
50
100
AcDbSymbolTableRecord
100
AcDbLayerTableRecord
  2
0
 70
0
  6
CONTINUOUS
  0
LAYER
  5
51
100
AcDbSymbolTableRecord
100
AcDbLayerTableRecord
  2
Layer_1
 70
0
  6
CONTINUOUS
  0
ENDTAB
  0
TABLE
  2
STYLE
  5
3
330
0
100
AcDbSymbolTable
 70
     1
  0
STYLE
  5
11
330
3
100
AcDbSymbolTableRecord
100
AcDbTextStyleTableRecord
  2
STANDARD
 70
     0
 40
0.0
 41
1.0
 50
0.0
 71
     0
 42
2.5
  3
txt
  4

  0
ENDTAB
  0
TABLE
  2
VIEW
  5
6
330
0
100
AcDbSymbolTable
 70
     0
  0
ENDTAB
  0
TABLE
  2
UCS
  5
7
330
0
100
AcDbSymbolTable
 70
     0
  0
ENDTAB
  0
TABLE
  2
APPID
  5
9
330
0
100
AcDbSymbolTable
 70
     2
  0
APPID
  5
12
330
9
100
AcDbSymbolTableRecord
100
AcDbRegAppTableRecord
  2
ACAD
 70
     0
  0
ENDTAB
  0
TABLE
  2
DIMSTYLE
  5
A
330
0
100
AcDbSymbolTable
 70
     1
  0
DIMSTYLE
105
27
330
A
100
AcDbSymbolTableRecord
100
AcDbDimStyleTableRecord
  2
ISO-25
 70
     0
  3

  4

  5

  6

  7

 40
1.0
 41
2.5
 42
0.625
 43
3.75
 44
1.25
 45
0.0
 46
0.0
 47
0.0
 48
0.0
140
2.5
141
2.5
142
0.0
143
0.03937007874016
144
1.0
145
0.0
146
1.0
147
0.625
 71
     0
 72
     0
 73
     0
 74
     0
 75
     0
 76
     0
 77
     1
 78
     8
170
     0
171
     3
172
     1
173
     0
174
     0
175
     0
176
     0
177
     0
178
     0
270
     2
271
     2
272
     2
273
     2
274
     3
340
11
275
     0
280
     0
281
     0
282
     0
283
     0
284
     8
285
     0
286
     0
287
     3
288
     0
  0
ENDTAB
  0
TABLE
  2
BLOCK_RECORD
  5
1
330
0
100
AcDbSymbolTable
 70
     1
  0
BLOCK_RECORD
  5
1F
330
1
100
AcDbSymbolTableRecord
100
AcDbBlockTableRecord
  2
*MODEL_SPACE
  0
BLOCK_RECORD
  5
1B
330
1
100
AcDbSymbolTableRecord
100
AcDbBlockTableRecord
  2
*PAPER_SPACE
  0
ENDTAB
  0
ENDSEC
  0
SECTION
  2
BLOCKS
  0
BLOCK
  5
20
330
1F
100
AcDbEntity
  8
0
100
AcDbBlockBegin
  2
*MODEL_SPACE
 70
     0
 10
0.0
 20
0.0
 30
0.0
  3
*MODEL_SPACE
  1

  0
ENDBLK
  5
21
330
1F
100
AcDbEntity
  8
0
100
AcDbBlockEnd
  0
BLOCK
  5
1C
330
1B
100
AcDbEntity
 67
     1
  8
0
100
AcDbBlockBegin
  2
*PAPER_SPACE
  1

  0
ENDBLK
  5
1D
330
1B
100
AcDbEntity
 67
     1
  8
0
100
AcDbBlockEnd
  0
ENDSEC
  0
SECTION
  2
ENTITIES
  0
SPLINE
  5
100
100
AcDbEntity
  8
Layer_1
 62
7
100
AcDbSpline
 70
8
 71
3
 72
8
 73
4
 74
0
 40
0
 40
0
 40
0
 40
0
 40
1
 40
1
 40
1
 40
1
 10
26.101447
 20
12.987974
 30
0.0
 10
26.192143
 20
12.987974
 30
0.0
 10
26.282750
 20
12.993672
 30
0.0
 10
26.372732
 20
13.005034
 30
0.0
  0
LWPOLYLINE
  5
101
100
AcDbEntity
  8
Layer_1
 62
7
100
AcDbPolyline
 90
5
 70
0
 10
18.569161
 20
12.399022
 30
0.0
 10
18.569161
 20
12.003710
 30
0.0
 10
32.400702
 20
12.003710
 30
0.0
 10
32.400702
 20
13.766208
 30
0.0
 10
26.372730
 20
13.005063
 30
0.0
  0
SPLINE
  5
102
100
AcDbEntity
  8
Layer_1
 62
7
100
AcDbSpline
 70
8
 71
3
 72
8
 73
4
 74
0
 40
0
 40
0
 40
0
 40
0
 40
1
 40
1
 40
1
 40
1
 10
9.294749
 20
13.005034
 30
0.0
 10
9.384731
 20
12.993672
 30
0.0
 10
9.475338
 20
12.987974
 30
0.0
 10
9.566034
 20
12.987974
 30
0.0
  0
LWPOLYLINE
  5
103
100
AcDbEntity
  8
Layer_1
 62
7
100
AcDbPolyline
 90
2
 70
0
 10
26.101449
 20
12.987980
 30
0.0
 10
9.566032
 20
12.987980
 30
0.0
  0
SPLINE
  5
104
100
AcDbEntity
  8
Layer_1
 62
7
100
AcDbSpline
 70
8
 71
3
 72
8
 73
4
 74
0
 40
0
 40
0
 40
0
 40
0
 40
1
 40
1
 40
1
 40
1
 10
2.026584
 20
15.753776
 30
0.0
 10
1.827788
 20
15.343159
 30
0.0
 10
1.845110
 20
14.860766
 30
0.0
 10
2.072845
 20
14.465465
 30
0.0
  0
SPLINE
  5
105
100
AcDbEntity
  8
Layer_1
 62
7
100
AcDbSpline
 70
8
 71
3
 72
8
 73
4
 74
0
 40
0
 40
0
 40
0
 40
0
 40
1
 40
1
 40
1
 40
1
 10
2.072845
 20
14.465465
 30
0.0
 10
2.300580
 20
14.070164
 30
0.0
 10
2.709203
 20
13.813202
 30
0.0
 10
3.164143
 20
13.779205
 30
0.0
  0
LWPOLYLINE
  5
106
100
AcDbEntity
  8
Layer_1
 62
7
100
AcDbPolyline
 90
2
 70
0
 10
9.294751
 20
13.005063
 30
0.0
 10
3.164175
 20
13.779229
 30
0.0
  0
SPLINE
  5
107
100
AcDbEntity
  8
Layer_1
 62
7
100
AcDbSpline
 70
8
 71
3
 72
8
 73
4
 74
0
 40
0
 40
0
 40
0
 40
0
 40
1
 40
1
 40
1
 40
1
 10
6.810132
 20
22.830481
 30
0.0
 10
5.979988
 20
22.830481
 30
0.0
 10
5.222916
 20
22.355878
 30
0.0
 10
4.861175
 20
21.608694
 30
0.0
  0
LWPOLYLINE
  5
108
100
AcDbEntity
  8
Layer_1
 62
7
100
AcDbPolyline
 90
2
 70
0
 10
2.026573
 20
15.753810
 30
0.0
 10
4.861152
 20
21.608699
 30
0.0
  0
SPLINE
  5
109
100
AcDbEntity
  8
Layer_1
 62
7
100
AcDbSpline
 70
8
 71
3
 72
8
 73
4
 74
0
 40
0
 40
0
 40
0
 40
0
 40
1
 40
1
 40
1
 40
1
 10
3.695814
 20
23.814732
 30
0.0
 10
3.685542
 20
23.814732
 30
0.0
 10
3.675261
 20
23.814680
 30
0.0
 10
3.664971
 20
23.814580
 30
0.0
  0
SPLINE
  5
10a
100
AcDbEntity
  8
Layer_1
 62
7
100
AcDbSpline
 70
8
 71
3
 72
8
 73
4
 74
0
 40
0
 40
0
 40
0
 40
0
 40
1
 40
1
 40
1
 40
1
 10
3.664971
 20
23.814580
 30
0.0
 10
3.474501
 20
23.812702
 30
0.0
 10
3.282681
 20
23.793424
 30
0.0
 10
3.091979
 20
23.755834
 30
0.0
  0
SPLINE
  5
10b
100
AcDbEntity
  8
Layer_1
 62
7
100
AcDbSpline
 70
8
 71
3
 72
8
 73
4
 74
0
 40
0
 40
0
 40
0
 40
0
 40
1
 40
1
 40
1
 40
1
 10
3.091979
 20
23.755834
 30
0.0
 10
2.704328
 20
23.679425
 30
0.0
 10
2.330835
 20
23.529183
 30
0.0
 10
1.993309
 20
23.308693
 30
0.0
  0
SPLINE
  5
10c
100
AcDbEntity
  8
Layer_1
 62
7
100
AcDbSpline
 70
8
 71
3
 72
8
 73
4
 74
0
 40
0
 40
0
 40
0
 40
0
 40
1
 40
1
 40
1
 40
1
 10
1.993309
 20
23.308693
 30
0.0
 10
1.651222
 20
23.085224
 30
0.0
 10
1.353227
 20
22.794157
 30
0.0
 10
1.119466
 20
22.448798
 30
0.0
  0
SPLINE
  5
10d
100
AcDbEntity
  8
Layer_1
 62
7
100
AcDbSpline
 70
8
 71
3
 72
8
 73
4
 74
0
 40
0
 40
0
 40
0
 40
0
 40
1
 40
1
 40
1
 40
1
 10
1.119466
 20
22.448798
 30
0.0
 10
0.889215
 20
22.108621
 30
0.0
 10
0.726340
 20
21.723172
 30
0.0
 10
0.643003
 20
21.312093
 30
0.0
  0
SPLINE
  5
10e
100
AcDbEntity
  8
Layer_1
 62
7
100
AcDbSpline
 70
8
 71
3
 72
8
 73
4
 74
0
 40
0
 40
0
 40
0
 40
0
 40
1
 40
1
 40
1
 40
1
 10
0.643003
 20
21.312093
 30
0.0
 10
0.610011
 20
21.149349
 30
0.0
 10
0.596597
 20
21.038249
 30
0.0
 10
0.586829
 20
20.895480
 30
0.0
  0
SPLINE
  5
10f
100
AcDbEntity
  8
Layer_1
 62
7
100
AcDbSpline
 70
8
 71
3
 72
8
 73
4
 74
0
 40
0
 40
0
 40
0
 40
0
 40
1
 40
1
 40
1
 40
1
 10
0.586829
 20
20.895480
 30
0.0
 10
0.583332
 20
20.844380
 30
0.0
 10
0.579541
 20
20.789278
 30
0.0
 10
0.575173
 20
20.726322
 30
0.0
  0
SPLINE
  5
110
100
AcDbEntity
  8
Layer_1
 62
7
100
AcDbSpline
 70
8
 71
3
 72
8
 73
4
 74
0
 40
0
 40
0
 40
0
 40
0
 40
1
 40
1
 40
1
 40
1
 10
0.575173
 20
20.726322
 30
0.0
 10
0.543833
 20
20.274543
 30
0.0
 10
0.510042
 20
19.811607
 30
0.0
 10
0.475317
 20
19.351126
 30
0.0
  0
SPLINE
  5
111
100
AcDbEntity
  8
Layer_1
 62
7
100
AcDbSpline
 70
8
 71
3
 72
8
 73
4
 74
0
 40
0
 40
0
 40
0
 40
0
 40
1
 40
1
 40
1
 40
1
 10
0.475317
 20
19.351126
 30
0.0
 10
0.406266
 20
18.435450
 30
0.0
 10
0.330518
 20
17.489552
 30
0.0
 10
0.253925
 20
16.552301
 30
0.0
  0
SPLINE
  5
112
100
AcDbEntity
  8
Layer_1
 62
7
100
AcDbSpline
 70
8
 71
3
 72
8
 73
4
 74
0
 40
0
 40
0
 40
0
 40
0
 40
1
 40
1
 40
1
 40
1
 10
0.253925
 20
16.552301
 30
0.0
 10
0.188432
 20
15.750885
 30
0.0
 10
0.167423
 20
15.499754
 30
0.0
 10
0.157844
 20
15.383676
 30
0.0
  0
SPLINE
  5
113
100
AcDbEntity
  8
Layer_1
 62
7
100
AcDbSpline
 70
8
 71
3
 72
8
 73
4
 74
0
 40
0
 40
0
 40
0
 40
0
 40
1
 40
1
 40
1
 40
1
 10
0.157844
 20
15.383676
 30
0.0
 10
0.154575
 20
15.344057
 30
0.0
 10
0.153147
 20
15.320131
 30
0.0
 10
0.151803
 20
15.295422
 30
0.0
  0
SPLINE
  5
114
100
AcDbEntity
  8
Layer_1
 62
7
100
AcDbSpline
 70
8
 71
3
 72
8
 73
4
 74
0
 40
0
 40
0
 40
0
 40
0
 40
1
 40
1
 40
1
 40
1
 10
0.151803
 20
15.295422
 30
0.0
 10
0.130157
 20
14.897535
 30
0.0
 10
0.183782
 20
14.495193
 30
0.0
 10
0.315153
 20
14.110567
 30
0.0
  0
SPLINE
  5
115
100
AcDbEntity
  8
Layer_1
 62
7
100
AcDbSpline
 70
8
 71
3
 72
8
 73
4
 74
0
 40
0
 40
0
 40
0
 40
0
 40
1
 40
1
 40
1
 40
1
 10
0.315153
 20
14.110567
 30
0.0
 10
0.444194
 20
13.732755
 30
0.0
 10
0.645828
 20
13.379464
 30
0.0
 10
0.913324
 20
13.072356
 30
0.0
  0
SPLINE
  5
116
100
AcDbEntity
  8
Layer_1
 62
7
100
AcDbSpline
 70
8
 71
3
 72
8
 73
4
 74
0
 40
0
 40
0
 40
0
 40
0
 40
1
 40
1
 40
1
 40
1
 10
0.913324
 20
13.072356
 30
0.0
 10
1.178086
 20
12.768385
 30
0.0
 10
1.502156
 20
12.515797
 30
0.0
 10
1.870181
 20
12.332216
 30
0.0
  0
SPLINE
  5
117
100
AcDbEntity
  8
Layer_1
 62
7
100
AcDbSpline
 70
8
 71
3
 72
8
 73
4
 74
0
 40
0
 40
0
 40
0
 40
0
 40
1
 40
1
 40
1
 40
1
 10
1.870181
 20
12.332216
 30
0.0
 10
2.236344
 20
12.149565
 30
0.0
 10
2.638682
 20
12.038981
 30
0.0
 10
3.055232
 20
12.010856
 30
0.0
  0
SPLINE
  5
118
100
AcDbEntity
  8
Layer_1
 62
7
100
AcDbSpline
 70
8
 71
3
 72
8
 73
4
 74
0
 40
0
 40
0
 40
0
 40
0
 40
1
 40
1
 40
1
 40
1
 10
3.055232
 20
12.010856
 30
0.0
 10
3.124430
 20
12.006184
 30
0.0
 10
3.162213
 20
12.003723
 30
0.0
 10
3.266829
 20
12.003723
 30
0.0
  0
LWPOLYLINE
  5
119
100
AcDbEntity
  8
Layer_1
 62
7
100
AcDbPolyline
 90
4
 70
0
 10
6.810108
 20
22.830478
 30
0.0
 10
28.857373
 20
22.830478
 30
0.0
 10
28.857373
 20
23.814727
 30
0.0
 10
3.695841
 20
23.814727
 30
0.0
  0
SPLINE
  5
11a
100
AcDbEntity
  8
Layer_1
 62
7
100
AcDbSpline
 70
8
 71
3
 72
8
 73
4
 74
0
 40
0
 40
0
 40
0
 40
0
 40
1
 40
1
 40
1
 40
1
 10
20.646729
 20
23.184811
 30
0.0
 10
20.646729
 20
23.216339
 30
0.0
 10
20.621171
 20
23.241898
 30
0.0
 10
20.589642
 20
23.241898
 30
0.0
  0
SPLINE
  5
11b
100
AcDbEntity
  8
Layer_1
 62
7
100
AcDbSpline
 70
8
 71
3
 72
8
 73
4
 74
0
 40
0
 40
0
 40
0
 40
0
 40
1
 40
1
 40
1
 40
1
 10
20.589642
 20
23.241898
 30
0.0
 10
20.558114
 20
23.241898
 30
0.0
 10
20.532556
 20
23.216339
 30
0.0
 10
20.532556
 20
23.184811
 30
0.0
  0
SPLINE
  5
11c
100
AcDbEntity
  8
Layer_1
 62
7
100
AcDbSpline
 70
8
 71
3
 72
8
 73
4
 74
0
 40
0
 40
0
 40
0
 40
0
 40
1
 40
1
 40
1
 40
1
 10
20.532556
 20
23.184811
 30
0.0
 10
20.532556
 20
23.153283
 30
0.0
 10
20.558114
 20
23.127725
 30
0.0
 10
20.589642
 20
23.127725
 30
0.0
  0
SPLINE
  5
11d
100
AcDbEntity
  8
Layer_1
 62
7
100
AcDbSpline
 70
8
 71
3
 72
8
 73
4
 74
0
 40
0
 40
0
 40
0
 40
0
 40
1
 40
1
 40
1
 40
1
 10
20.589642
 20
23.127725
 30
0.0
 10
20.621171
 20
23.127725
 30
0.0
 10
20.646729
 20
23.153283
 30
0.0
 10
20.646729
 20
23.184811
 30
0.0
  0
LWPOLYLINE
  5
11e
100
AcDbEntity
  8
Layer_1
 62
7
100
AcDbPolyline
 90
6
 70
0
 10
3.266779
 20
12.003710
 30
0.0
 10
17.097727
 20
12.003710
 30
0.0
 10
17.097727
 20
12.668605
 30
0.0
 10
17.580030
 20
12.668605
 30
0.0
 10
17.580030
 20
12.399022
 30
0.0
 10
18.569161
 20
12.399022
 30
0.0
  0
SPLINE
  5
11f
100
AcDbEntity
  8
Layer_1
 62
7
100
AcDbSpline
 70
8
 71
3
 72
8
 73
4
 74
0
 40
0
 40
0
 40
0
 40
0
 40
1
 40
1
 40
1
 40
1
 10
4.111317
 20
22.870461
 30
0.0
 10
4.111317
 20
22.890857
 30
0.0
 10
4.100436
 20
22.909702
 30
0.0
 10
4.082773
 20
22.919900
 30
0.0
  0
SPLINE
  5
120
100
AcDbEntity
  8
Layer_1
 62
7
100
AcDbSpline
 70
8
 71
3
 72
8
 73
4
 74
0
 40
0
 40
0
 40
0
 40
0
 40
1
 40
1
 40
1
 40
1
 10
4.082773
 20
22.919900
 30
0.0
 10
4.065111
 20
22.930098
 30
0.0
 10
4.043349
 20
22.930098
 30
0.0
 10
4.025687
 20
22.919900
 30
0.0
  0
SPLINE
  5
121
100
AcDbEntity
  8
Layer_1
 62
7
100
AcDbSpline
 70
8
 71
3
 72
8
 73
4
 74
0
 40
0
 40
0
 40
0
 40
0
 40
1
 40
1
 40
1
 40
1
 10
4.025687
 20
22.919900
 30
0.0
 10
4.008024
 20
22.909702
 30
0.0
 10
3.997143
 20
22.890857
 30
0.0
 10
3.997143
 20
22.870461
 30
0.0
  0
SPLINE
  5
122
100
AcDbEntity
  8
Layer_1
 62
7
100
AcDbSpline
 70
8
 71
3
 72
8
 73
4
 74
0
 40
0
 40
0
 40
0
 40
0
 40
1
 40
1
 40
1
 40
1
 10
3.997143
 20
22.870461
 30
0.0
 10
3.997143
 20
22.850066
 30
0.0
 10
4.008024
 20
22.831220
 30
0.0
 10
4.025687
 20
22.821023
 30
0.0
  0
SPLINE
  5
123
100
AcDbEntity
  8
Layer_1
 62
7
100
AcDbSpline
 70
8
 71
3
 72
8
 73
4
 74
0
 40
0
 40
0
 40
0
 40
0
 40
1
 40
1
 40
1
 40
1
 10
4.025687
 20
22.821023
 30
0.0
 10
4.043349
 20
22.810825
 30
0.0
 10
4.065111
 20
22.810825
 30
0.0
 10
4.082773
 20
22.821023
 30
0.0
  0
SPLINE
  5
124
100
AcDbEntity
  8
Layer_1
 62
7
100
AcDbSpline
 70
8
 71
3
 72
8
 73
4
 74
0
 40
0
 40
0
 40
0
 40
0
 40
1
 40
1
 40
1
 40
1
 10
4.082773
 20
22.821023
 30
0.0
 10
4.100436
 20
22.831220
 30
0.0
 10
4.111317
 20
22.850066
 30
0.0
 10
4.111317
 20
22.870461
 30
0.0
  0
LWPOLYLINE
  5
125
100
AcDbEntity
  8
Layer_1
 62
7
100
AcDbPolyline
 90
1
 70
1
 10
20.646729
 20
23.184811
 30
0.0
  0
SPLINE
  5
126
100
AcDbEntity
  8
Layer_1
 62
7
100
AcDbSpline
 70
8
 71
3
 72
8
 73
4
 74
0
 40
0
 40
0
 40
0
 40
0
 40
1
 40
1
 40
1
 40
1
 10
6.867219
 20
12.633643
 30
0.0
 10
6.867145
 20
12.665119
 30
0.0
 10
6.841608
 20
12.690596
 30
0.0
 10
6.810132
 20
12.690596
 30
0.0
  0
SPLINE
  5
127
100
AcDbEntity
  8
Layer_1
 62
7
100
AcDbSpline
 70
8
 71
3
 72
8
 73
4
 74
0
 40
0
 40
0
 40
0
 40
0
 40
1
 40
1
 40
1
 40
1
 10
6.810132
 20
12.690596
 30
0.0
 10
6.778656
 20
12.690596
 30
0.0
 10
6.753120
 20
12.665119
 30
0.0
 10
6.753046
 20
12.633643
 30
0.0
  0
SPLINE
  5
128
100
AcDbEntity
  8
Layer_1
 62
7
100
AcDbSpline
 70
8
 71
3
 72
8
 73
4
 74
0
 40
0
 40
0
 40
0
 40
0
 40
1
 40
1
 40
1
 40
1
 10
6.753046
 20
12.633643
 30
0.0
 10
6.753120
 20
12.602167
 30
0.0
 10
6.778656
 20
12.576690
 30
0.0
 10
6.810132
 20
12.576690
 30
0.0
  0
SPLINE
  5
129
100
AcDbEntity
  8
Layer_1
 62
7
100
AcDbSpline
 70
8
 71
3
 72
8
 73
4
 74
0
 40
0
 40
0
 40
0
 40
0
 40
1
 40
1
 40
1
 40
1
 10
6.810132
 20
12.576690
 30
0.0
 10
6.841608
 20
12.576690
 30
0.0
 10
6.867145
 20
12.602167
 30
0.0
 10
6.867219
 20
12.633643
 30
0.0
  0
LWPOLYLINE
  5
12a
100
AcDbEntity
  8
Layer_1
 62
7
100
AcDbPolyline
 90
1
 70
1
 10
4.111317
 20
22.870461
 30
0.0
  0
SPLINE
  5
12b
100
AcDbEntity
  8
Layer_1
 62
7
100
AcDbSpline
 70
8
 71
3
 72
8
 73
4
 74
0
 40
0
 40
0
 40
0
 40
0
 40
1
 40
1
 40
1
 40
1
 10
12.379023
 20
12.633643
 30
0.0
 10
12.379023
 20
12.654038
 30
0.0
 10
12.368142
 20
12.672884
 30
0.0
 10
12.350480
 20
12.683081
 30
0.0
  0
SPLINE
  5
12c
100
AcDbEntity
  8
Layer_1
 62
7
100
AcDbSpline
 70
8
 71
3
 72
8
 73
4
 74
0
 40
0
 40
0
 40
0
 40
0
 40
1
 40
1
 40
1
 40
1
 10
12.350480
 20
12.683081
 30
0.0
 10
12.332817
 20
12.693279
 30
0.0
 10
12.311056
 20
12.693279
 30
0.0
 10
12.293393
 20
12.683081
 30
0.0
  0
SPLINE
  5
12d
100
AcDbEntity
  8
Layer_1
 62
7
100
AcDbSpline
 70
8
 71
3
 72
8
 73
4
 74
0
 40
0
 40
0
 40
0
 40
0
 40
1
 40
1
 40
1
 40
1
 10
12.293393
 20
12.683081
 30
0.0
 10
12.275730
 20
12.672884
 30
0.0
 10
12.264850
 20
12.654038
 30
0.0
 10
12.264850
 20
12.633643
 30
0.0
  0
SPLINE
  5
12e
100
AcDbEntity
  8
Layer_1
 62
7
100
AcDbSpline
 70
8
 71
3
 72
8
 73
4
 74
0
 40
0
 40
0
 40
0
 40
0
 40
1
 40
1
 40
1
 40
1
 10
12.264850
 20
12.633643
 30
0.0
 10
12.264850
 20
12.613248
 30
0.0
 10
12.275730
 20
12.594402
 30
0.0
 10
12.293393
 20
12.584205
 30
0.0
  0
SPLINE
  5
12f
100
AcDbEntity
  8
Layer_1
 62
7
100
AcDbSpline
 70
8
 71
3
 72
8
 73
4
 74
0
 40
0
 40
0
 40
0
 40
0
 40
1
 40
1
 40
1
 40
1
 10
12.293393
 20
12.584205
 30
0.0
 10
12.311056
 20
12.574007
 30
0.0
 10
12.332817
 20
12.574007
 30
0.0
 10
12.350480
 20
12.584205
 30
0.0
  0
SPLINE
  5
130
100
AcDbEntity
  8
Layer_1
 62
7
100
AcDbSpline
 70
8
 71
3
 72
8
 73
4
 74
0
 40
0
 40
0
 40
0
 40
0
 40
1
 40
1
 40
1
 40
1
 10
12.350480
 20
12.584205
 30
0.0
 10
12.368142
 20
12.594402
 30
0.0
 10
12.379023
 20
12.613248
 30
0.0
 10
12.379023
 20
12.633643
 30
0.0
  0
LWPOLYLINE
  5
131
100
AcDbEntity
  8
Layer_1
 62
7
100
AcDbPolyline
 90
1
 70
1
 10
6.867219
 20
12.633643
 30
0.0
  0
SPLINE
  5
132
100
AcDbEntity
  8
Layer_1
 62
7
100
AcDbSpline
 70
8
 71
3
 72
8
 73
4
 74
0
 40
0
 40
0
 40
0
 40
0
 40
1
 40
1
 40
1
 40
1
 10
26.158533
 20
23.184811
 30
0.0
 10
26.158533
 20
23.205206
 30
0.0
 10
26.147653
 20
23.224052
 30
0.0
 10
26.129990
 20
23.234250
 30
0.0
  0
SPLINE
  5
133
100
AcDbEntity
  8
Layer_1
 62
7
100
AcDbSpline
 70
8
 71
3
 72
8
 73
4
 74
0
 40
0
 40
0
 40
0
 40
0
 40
1
 40
1
 40
1
 40
1
 10
26.129990
 20
23.234250
 30
0.0
 10
26.112327
 20
23.244447
 30
0.0
 10
26.090566
 20
23.244447
 30
0.0
 10
26.072903
 20
23.234250
 30
0.0
  0
SPLINE
  5
134
100
AcDbEntity
  8
Layer_1
 62
7
100
AcDbSpline
 70
8
 71
3
 72
8
 73
4
 74
0
 40
0
 40
0
 40
0
 40
0
 40
1
 40
1
 40
1
 40
1
 10
26.072903
 20
23.234250
 30
0.0
 10
26.055241
 20
23.224052
 30
0.0
 10
26.044360
 20
23.205206
 30
0.0
 10
26.044360
 20
23.184811
 30
0.0
  0
SPLINE
  5
135
100
AcDbEntity
  8
Layer_1
 62
7
100
AcDbSpline
 70
8
 71
3
 72
8
 73
4
 74
0
 40
0
 40
0
 40
0
 40
0
 40
1
 40
1
 40
1
 40
1
 10
26.044360
 20
23.184811
 30
0.0
 10
26.044360
 20
23.164416
 30
0.0
 10
26.055241
 20
23.145570
 30
0.0
 10
26.072903
 20
23.135373
 30
0.0
  0
SPLINE
  5
136
100
AcDbEntity
  8
Layer_1
 62
7
100
AcDbSpline
 70
8
 71
3
 72
8
 73
4
 74
0
 40
0
 40
0
 40
0
 40
0
 40
1
 40
1
 40
1
 40
1
 10
26.072903
 20
23.135373
 30
0.0
 10
26.090566
 20
23.125175
 30
0.0
 10
26.112327
 20
23.125175
 30
0.0
 10
26.129990
 20
23.135373
 30
0.0
  0
SPLINE
  5
137
100
AcDbEntity
  8
Layer_1
 62
7
100
AcDbSpline
 70
8
 71
3
 72
8
 73
4
 74
0
 40
0
 40
0
 40
0
 40
0
 40
1
 40
1
 40
1
 40
1
 10
26.129990
 20
23.135373
 30
0.0
 10
26.147653
 20
23.145570
 30
0.0
 10
26.158533
 20
23.164416
 30
0.0
 10
26.158533
 20
23.184811
 30
0.0
  0
LWPOLYLINE
  5
138
100
AcDbEntity
  8
Layer_1
 62
7
100
AcDbPolyline
 90
1
 70
1
 10
12.379023
 20
12.633643
 30
0.0
  0
SPLINE
  5
139
100
AcDbEntity
  8
Layer_1
 62
7
100
AcDbSpline
 70
8
 71
3
 72
8
 73
4
 74
0
 40
0
 40
0
 40
0
 40
0
 40
1
 40
1
 40
1
 40
1
 10
15.134925
 20
23.184811
 30
0.0
 10
15.134925
 20
23.216339
 30
0.0
 10
15.109366
 20
23.241898
 30
0.0
 10
15.077838
 20
23.241898
 30
0.0
  0
SPLINE
  5
13a
100
AcDbEntity
  8
Layer_1
 62
7
100
AcDbSpline
 70
8
 71
3
 72
8
 73
4
 74
0
 40
0
 40
0
 40
0
 40
0
 40
1
 40
1
 40
1
 40
1
 10
15.077838
 20
23.241898
 30
0.0
 10
15.046310
 20
23.241898
 30
0.0
 10
15.020752
 20
23.216339
 30
0.0
 10
15.020752
 20
23.184811
 30
0.0
  0
SPLINE
  5
13b
100
AcDbEntity
  8
Layer_1
 62
7
100
AcDbSpline
 70
8
 71
3
 72
8
 73
4
 74
0
 40
0
 40
0
 40
0
 40
0
 40
1
 40
1
 40
1
 40
1
 10
15.020752
 20
23.184811
 30
0.0
 10
15.020752
 20
23.164416
 30
0.0
 10
15.031632
 20
23.145570
 30
0.0
 10
15.049295
 20
23.135373
 30
0.0
  0
SPLINE
  5
13c
100
AcDbEntity
  8
Layer_1
 62
7
100
AcDbSpline
 70
8
 71
3
 72
8
 73
4
 74
0
 40
0
 40
0
 40
0
 40
0
 40
1
 40
1
 40
1
 40
1
 10
15.049295
 20
23.135373
 30
0.0
 10
15.066958
 20
23.125175
 30
0.0
 10
15.088719
 20
23.125175
 30
0.0
 10
15.106382
 20
23.135373
 30
0.0
  0
SPLINE
  5
13d
100
AcDbEntity
  8
Layer_1
 62
7
100
AcDbSpline
 70
8
 71
3
 72
8
 73
4
 74
0
 40
0
 40
0
 40
0
 40
0
 40
1
 40
1
 40
1
 40
1
 10
15.106382
 20
23.135373
 30
0.0
 10
15.124044
 20
23.145570
 30
0.0
 10
15.134925
 20
23.164416
 30
0.0
 10
15.134925
 20
23.184811
 30
0.0
  0
LWPOLYLINE
  5
13e
100
AcDbEntity
  8
Layer_1
 62
7
100
AcDbPolyline
 90
1
 70
1
 10
26.158533
 20
23.184811
 30
0.0
  0
SPLINE
  5
13f
100
AcDbEntity
  8
Layer_1
 62
7
100
AcDbSpline
 70
8
 71
3
 72
8
 73
4
 74
0
 40
0
 40
0
 40
0
 40
0
 40
1
 40
1
 40
1
 40
1
 10
23.402631
 20
12.633643
 30
0.0
 10
23.402631
 20
12.654038
 30
0.0
 10
23.391750
 20
12.672884
 30
0.0
 10
23.374088
 20
12.683081
 30
0.0
  0
SPLINE
  5
140
100
AcDbEntity
  8
Layer_1
 62
7
100
AcDbSpline
 70
8
 71
3
 72
8
 73
4
 74
0
 40
0
 40
0
 40
0
 40
0
 40
1
 40
1
 40
1
 40
1
 10
23.374088
 20
12.683081
 30
0.0
 10
23.356425
 20
12.693279
 30
0.0
 10
23.334664
 20
12.693279
 30
0.0
 10
23.317001
 20
12.683081
 30
0.0
  0
SPLINE
  5
141
100
AcDbEntity
  8
Layer_1
 62
7
100
AcDbSpline
 70
8
 71
3
 72
8
 73
4
 74
0
 40
0
 40
0
 40
0
 40
0
 40
1
 40
1
 40
1
 40
1
 10
23.317001
 20
12.683081
 30
0.0
 10
23.299339
 20
12.672884
 30
0.0
 10
23.288458
 20
12.654038
 30
0.0
 10
23.288458
 20
12.633643
 30
0.0
  0
SPLINE
  5
142
100
AcDbEntity
  8
Layer_1
 62
7
100
AcDbSpline
 70
8
 71
3
 72
8
 73
4
 74
0
 40
0
 40
0
 40
0
 40
0
 40
1
 40
1
 40
1
 40
1
 10
23.288458
 20
12.633643
 30
0.0
 10
23.288458
 20
12.613248
 30
0.0
 10
23.299339
 20
12.594402
 30
0.0
 10
23.317001
 20
12.584205
 30
0.0
  0
SPLINE
  5
143
100
AcDbEntity
  8
Layer_1
 62
7
100
AcDbSpline
 70
8
 71
3
 72
8
 73
4
 74
0
 40
0
 40
0
 40
0
 40
0
 40
1
 40
1
 40
1
 40
1
 10
23.317001
 20
12.584205
 30
0.0
 10
23.334664
 20
12.574007
 30
0.0
 10
23.356425
 20
12.574007
 30
0.0
 10
23.374088
 20
12.584205
 30
0.0
  0
SPLINE
  5
144
100
AcDbEntity
  8
Layer_1
 62
7
100
AcDbSpline
 70
8
 71
3
 72
8
 73
4
 74
0
 40
0
 40
0
 40
0
 40
0
 40
1
 40
1
 40
1
 40
1
 10
23.374088
 20
12.584205
 30
0.0
 10
23.391750
 20
12.594402
 30
0.0
 10
23.402631
 20
12.613248
 30
0.0
 10
23.402631
 20
12.633643
 30
0.0
  0
LWPOLYLINE
  5
145
100
AcDbEntity
  8
Layer_1
 62
7
100
AcDbPolyline
 90
1
 70
1
 10
15.134925
 20
23.184811
 30
0.0
  0
SPLINE
  5
146
100
AcDbEntity
  8
Layer_1
 62
7
100
AcDbSpline
 70
8
 71
3
 72
8
 73
4
 74
0
 40
0
 40
0
 40
0
 40
0
 40
1
 40
1
 40
1
 40
1
 10
17.890827
 20
12.633643
 30
0.0
 10
17.890827
 20
12.654038
 30
0.0
 10
17.879946
 20
12.672884
 30
0.0
 10
17.862284
 20
12.683081
 30
0.0
  0
SPLINE
  5
147
100
AcDbEntity
  8
Layer_1
 62
7
100
AcDbSpline
 70
8
 71
3
 72
8
 73
4
 74
0
 40
0
 40
0
 40
0
 40
0
 40
1
 40
1
 40
1
 40
1
 10
17.862284
 20
12.683081
 30
0.0
 10
17.844621
 20
12.693279
 30
0.0
 10
17.822860
 20
12.693279
 30
0.0
 10
17.805197
 20
12.683081
 30
0.0
  0
SPLINE
  5
148
100
AcDbEntity
  8
Layer_1
 62
7
100
AcDbSpline
 70
8
 71
3
 72
8
 73
4
 74
0
 40
0
 40
0
 40
0
 40
0
 40
1
 40
1
 40
1
 40
1
 10
17.805197
 20
12.683081
 30
0.0
 10
17.787535
 20
12.672884
 30
0.0
 10
17.776654
 20
12.654038
 30
0.0
 10
17.776654
 20
12.633643
 30
0.0
  0
SPLINE
  5
149
100
AcDbEntity
  8
Layer_1
 62
7
100
AcDbSpline
 70
8
 71
3
 72
8
 73
4
 74
0
 40
0
 40
0
 40
0
 40
0
 40
1
 40
1
 40
1
 40
1
 10
17.776654
 20
12.633643
 30
0.0
 10
17.776654
 20
12.613248
 30
0.0
 10
17.787535
 20
12.594402
 30
0.0
 10
17.805197
 20
12.584205
 30
0.0
  0
SPLINE
  5
14a
100
AcDbEntity
  8
Layer_1
 62
7
100
AcDbSpline
 70
8
 71
3
 72
8
 73
4
 74
0
 40
0
 40
0
 40
0
 40
0
 40
1
 40
1
 40
1
 40
1
 10
17.805197
 20
12.584205
 30
0.0
 10
17.822860
 20
12.574007
 30
0.0
 10
17.844621
 20
12.574007
 30
0.0
 10
17.862284
 20
12.584205
 30
0.0
  0
SPLINE
  5
14b
100
AcDbEntity
  8
Layer_1
 62
7
100
AcDbSpline
 70
8
 71
3
 72
8
 73
4
 74
0
 40
0
 40
0
 40
0
 40
0
 40
1
 40
1
 40
1
 40
1
 10
17.862284
 20
12.584205
 30
0.0
 10
17.879946
 20
12.594402
 30
0.0
 10
17.890827
 20
12.613248
 30
0.0
 10
17.890827
 20
12.633643
 30
0.0
  0
LWPOLYLINE
  5
14c
100
AcDbEntity
  8
Layer_1
 62
7
100
AcDbPolyline
 90
1
 70
1
 10
23.402631
 20
12.633643
 30
0.0
  0
SPLINE
  5
14d
100
AcDbEntity
  8
Layer_1
 62
7
100
AcDbSpline
 70
8
 71
3
 72
8
 73
4
 74
0
 40
0
 40
0
 40
0
 40
0
 40
1
 40
1
 40
1
 40
1
 10
28.914435
 20
12.633643
 30
0.0
 10
28.914361
 20
12.665119
 30
0.0
 10
28.888824
 20
12.690596
 30
0.0
 10
28.857349
 20
12.690596
 30
0.0
  0
SPLINE
  5
14e
100
AcDbEntity
  8
Layer_1
 62
7
100
AcDbSpline
 70
8
 71
3
 72
8
 73
4
 74
0
 40
0
 40
0
 40
0
 40
0
 40
1
 40
1
 40
1
 40
1
 10
28.857349
 20
12.690596
 30
0.0
 10
28.825873
 20
12.690596
 30
0.0
 10
28.800336
 20
12.665119
 30
0.0
 10
28.800262
 20
12.633643
 30
0.0
  0
SPLINE
  5
14f
100
AcDbEntity
  8
Layer_1
 62
7
100
AcDbSpline
 70
8
 71
3
 72
8
 73
4
 74
0
 40
0
 40
0
 40
0
 40
0
 40
1
 40
1
 40
1
 40
1
 10
28.800262
 20
12.633643
 30
0.0
 10
28.800336
 20
12.602167
 30
0.0
 10
28.825873
 20
12.576690
 30
0.0
 10
28.857349
 20
12.576690
 30
0.0
  0
SPLINE
  5
150
100
AcDbEntity
  8
Layer_1
 62
7
100
AcDbSpline
 70
8
 71
3
 72
8
 73
4
 74
0
 40
0
 40
0
 40
0
 40
0
 40
1
 40
1
 40
1
 40
1
 10
28.857349
 20
12.576690
 30
0.0
 10
28.888824
 20
12.576690
 30
0.0
 10
28.914361
 20
12.602167
 30
0.0
 10
28.914435
 20
12.633643
 30
0.0
  0
LWPOLYLINE
  5
151
100
AcDbEntity
  8
Layer_1
 62
7
100
AcDbPolyline
 90
1
 70
1
 10
17.890827
 20
12.633643
 30
0.0
  0
SPLINE
  5
152
100
AcDbEntity
  8
Layer_1
 62
7
100
AcDbSpline
 70
8
 71
3
 72
8
 73
4
 74
0
 40
0
 40
0
 40
0
 40
0
 40
1
 40
1
 40
1
 40
1
 10
9.623121
 20
23.184811
 30
0.0
 10
9.623121
 20
23.205206
 30
0.0
 10
9.612240
 20
23.224052
 30
0.0
 10
9.594577
 20
23.234250
 30
0.0
  0
SPLINE
  5
153
100
AcDbEntity
  8
Layer_1
 62
7
100
AcDbSpline
 70
8
 71
3
 72
8
 73
4
 74
0
 40
0
 40
0
 40
0
 40
0
 40
1
 40
1
 40
1
 40
1
 10
9.594577
 20
23.234250
 30
0.0
 10
9.576915
 20
23.244447
 30
0.0
 10
9.555154
 20
23.244447
 30
0.0
 10
9.537491
 20
23.234250
 30
0.0
  0
SPLINE
  5
154
100
AcDbEntity
  8
Layer_1
 62
7
100
AcDbSpline
 70
8
 71
3
 72
8
 73
4
 74
0
 40
0
 40
0
 40
0
 40
0
 40
1
 40
1
 40
1
 40
1
 10
9.537491
 20
23.234250
 30
0.0
 10
9.519828
 20
23.224052
 30
0.0
 10
9.508948
 20
23.205206
 30
0.0
 10
9.508948
 20
23.184811
 30
0.0
  0
SPLINE
  5
155
100
AcDbEntity
  8
Layer_1
 62
7
100
AcDbSpline
 70
8
 71
3
 72
8
 73
4
 74
0
 40
0
 40
0
 40
0
 40
0
 40
1
 40
1
 40
1
 40
1
 10
9.508948
 20
23.184811
 30
0.0
 10
9.508948
 20
23.164416
 30
0.0
 10
9.519828
 20
23.145570
 30
0.0
 10
9.537491
 20
23.135373
 30
0.0
  0
SPLINE
  5
156
100
AcDbEntity
  8
Layer_1
 62
7
100
AcDbSpline
 70
8
 71
3
 72
8
 73
4
 74
0
 40
0
 40
0
 40
0
 40
0
 40
1
 40
1
 40
1
 40
1
 10
9.537491
 20
23.135373
 30
0.0
 10
9.555154
 20
23.125175
 30
0.0
 10
9.576915
 20
23.125175
 30
0.0
 10
9.594577
 20
23.135373
 30
0.0
  0
SPLINE
  5
157
100
AcDbEntity
  8
Layer_1
 62
7
100
AcDbSpline
 70
8
 71
3
 72
8
 73
4
 74
0
 40
0
 40
0
 40
0
 40
0
 40
1
 40
1
 40
1
 40
1
 10
9.594577
 20
23.135373
 30
0.0
 10
9.612240
 20
23.145570
 30
0.0
 10
9.623121
 20
23.164416
 30
0.0
 10
9.623121
 20
23.184811
 30
0.0
  0
LWPOLYLINE
  5
158
100
AcDbEntity
  8
Layer_1
 62
7
100
AcDbPolyline
 90
1
 70
1
 10
28.914435
 20
12.633643
 30
0.0
  0
SPLINE
  5
159
100
AcDbEntity
  8
Layer_1
 62
7
100
AcDbSpline
 70
8
 71
3
 72
8
 73
4
 74
0
 40
0
 40
0
 40
0
 40
0
 40
1
 40
1
 40
1
 40
1
 10
2.562355
 20
13.080396
 30
0.0
 10
2.562355
 20
13.151603
 30
0.0
 10
2.524367
 20
13.217401
 30
0.0
 10
2.462700
 20
13.253004
 30
0.0
  0
SPLINE
  5
15a
100
AcDbEntity
  8
Layer_1
 62
7
100
AcDbSpline
 70
8
 71
3
 72
8
 73
4
 74
0
 40
0
 40
0
 40
0
 40
0
 40
1
 40
1
 40
1
 40
1
 10
2.462700
 20
13.253004
 30
0.0
 10
2.401033
 20
13.288608
 30
0.0
 10
2.325056
 20
13.288608
 30
0.0
 10
2.263388
 20
13.253004
 30
0.0
  0
SPLINE
  5
15b
100
AcDbEntity
  8
Layer_1
 62
7
100
AcDbSpline
 70
8
 71
3
 72
8
 73
4
 74
0
 40
0
 40
0
 40
0
 40
0
 40
1
 40
1
 40
1
 40
1
 10
2.263388
 20
13.253004
 30
0.0
 10
2.201721
 20
13.217401
 30
0.0
 10
2.163733
 20
13.151603
 30
0.0
 10
2.163733
 20
13.080396
 30
0.0
  0
SPLINE
  5
15c
100
AcDbEntity
  8
Layer_1
 62
7
100
AcDbSpline
 70
8
 71
3
 72
8
 73
4
 74
0
 40
0
 40
0
 40
0
 40
0
 40
1
 40
1
 40
1
 40
1
 10
2.163733
 20
13.080396
 30
0.0
 10
2.163733
 20
13.009189
 30
0.0
 10
2.201721
 20
12.943391
 30
0.0
 10
2.263388
 20
12.907787
 30
0.0
  0
SPLINE
  5
15d
100
AcDbEntity
  8
Layer_1
 62
7
100
AcDbSpline
 70
8
 71
3
 72
8
 73
4
 74
0
 40
0
 40
0
 40
0
 40
0
 40
1
 40
1
 40
1
 40
1
 10
2.263388
 20
12.907787
 30
0.0
 10
2.325056
 20
12.872183
 30
0.0
 10
2.401033
 20
12.872183
 30
0.0
 10
2.462700
 20
12.907787
 30
0.0
  0
SPLINE
  5
15e
100
AcDbEntity
  8
Layer_1
 62
7
100
AcDbSpline
 70
8
 71
3
 72
8
 73
4
 74
0
 40
0
 40
0
 40
0
 40
0
 40
1
 40
1
 40
1
 40
1
 10
2.462700
 20
12.907787
 30
0.0
 10
2.524367
 20
12.943391
 30
0.0
 10
2.562355
 20
13.009189
 30
0.0
 10
2.562355
 20
13.080396
 30
0.0
  0
LWPOLYLINE
  5
15f
100
AcDbEntity
  8
Layer_1
 62
7
100
AcDbPolyline
 90
1
 70
1
 10
9.623121
 20
23.184811
 30
0.0
  0
SPLINE
  5
160
100
AcDbEntity
  8
Layer_1
 62
7
100
AcDbSpline
 70
8
 71
3
 72
8
 73
4
 74
0
 40
0
 40
0
 40
0
 40
0
 40
1
 40
1
 40
1
 40
1
 10
28.380966
 20
23.325958
 30
0.0
 10
28.380865
 20
23.435963
 30
0.0
 10
28.291660
 20
23.525087
 30
0.0
 10
28.181655
 20
23.525087
 30
0.0
  0
SPLINE
  5
161
100
AcDbEntity
  8
Layer_1
 62
7
100
AcDbSpline
 70
8
 71
3
 72
8
 73
4
 74
0
 40
0
 40
0
 40
0
 40
0
 40
1
 40
1
 40
1
 40
1
 10
28.181655
 20
23.525087
 30
0.0
 10
28.071650
 20
23.525087
 30
0.0
 10
27.982445
 20
23.435963
 30
0.0
 10
27.982344
 20
23.325958
 30
0.0
  0
SPLINE
  5
162
100
AcDbEntity
  8
Layer_1
 62
7
100
AcDbSpline
 70
8
 71
3
 72
8
 73
4
 74
0
 40
0
 40
0
 40
0
 40
0
 40
1
 40
1
 40
1
 40
1
 10
27.982344
 20
23.325958
 30
0.0
 10
27.982445
 20
23.215953
 30
0.0
 10
28.071650
 20
23.126830
 30
0.0
 10
28.181655
 20
23.126830
 30
0.0
  0
SPLINE
  5
163
100
AcDbEntity
  8
Layer_1
 62
7
100
AcDbSpline
 70
8
 71
3
 72
8
 73
4
 74
0
 40
0
 40
0
 40
0
 40
0
 40
1
 40
1
 40
1
 40
1
 10
28.181655
 20
23.126830
 30
0.0
 10
28.291660
 20
23.126830
 30
0.0
 10
28.380865
 20
23.215953
 30
0.0
 10
28.380966
 20
23.325958
 30
0.0
  0
LWPOLYLINE
  5
164
100
AcDbEntity
  8
Layer_1
 62
7
100
AcDbPolyline
 90
1
 70
1
 10
2.562355
 20
13.080396
 30
0.0
  0
SPLINE
  5
165
100
AcDbEntity
  8
Layer_1
 62
7
100
AcDbSpline
 70
8
 71
3
 72
8
 73
4
 74
0
 40
0
 40
0
 40
0
 40
0
 40
1
 40
1
 40
1
 40
1
 10
6.250758
 20
23.267412
 30
0.0
 10
6.250758
 20
23.338619
 30
0.0
 10
6.212769
 20
23.404417
 30
0.0
 10
6.151102
 20
23.440021
 30
0.0
  0
SPLINE
  5
166
100
AcDbEntity
  8
Layer_1
 62
7
100
AcDbSpline
 70
8
 71
3
 72
8
 73
4
 74
0
 40
0
 40
0
 40
0
 40
0
 40
1
 40
1
 40
1
 40
1
 10
6.151102
 20
23.440021
 30
0.0
 10
6.089435
 20
23.475624
 30
0.0
 10
6.013458
 20
23.475624
 30
0.0
 10
5.951791
 20
23.440021
 30
0.0
  0
SPLINE
  5
167
100
AcDbEntity
  8
Layer_1
 62
7
100
AcDbSpline
 70
8
 71
3
 72
8
 73
4
 74
0
 40
0
 40
0
 40
0
 40
0
 40
1
 40
1
 40
1
 40
1
 10
5.951791
 20
23.440021
 30
0.0
 10
5.890124
 20
23.404417
 30
0.0
 10
5.852136
 20
23.338619
 30
0.0
 10
5.852136
 20
23.267412
 30
0.0
  0
SPLINE
  5
168
100
AcDbEntity
  8
Layer_1
 62
7
100
AcDbSpline
 70
8
 71
3
 72
8
 73
4
 74
0
 40
0
 40
0
 40
0
 40
0
 40
1
 40
1
 40
1
 40
1
 10
5.852136
 20
23.267412
 30
0.0
 10
5.852136
 20
23.196205
 30
0.0
 10
5.890124
 20
23.130407
 30
0.0
 10
5.951791
 20
23.094804
 30
0.0
  0
SPLINE
  5
169
100
AcDbEntity
  8
Layer_1
 62
7
100
AcDbSpline
 70
8
 71
3
 72
8
 73
4
 74
0
 40
0
 40
0
 40
0
 40
0
 40
1
 40
1
 40
1
 40
1
 10
5.951791
 20
23.094804
 30
0.0
 10
6.013458
 20
23.059200
 30
0.0
 10
6.089435
 20
23.059200
 30
0.0
 10
6.151102
 20
23.094804
 30
0.0
  0
SPLINE
  5
16a
100
AcDbEntity
  8
Layer_1
 62
7
100
AcDbSpline
 70
8
 71
3
 72
8
 73
4
 74
0
 40
0
 40
0
 40
0
 40
0
 40
1
 40
1
 40
1
 40
1
 10
6.151102
 20
23.094804
 30
0.0
 10
6.212769
 20
23.130407
 30
0.0
 10
6.250758
 20
23.196205
 30
0.0
 10
6.250758
 20
23.267412
 30
0.0
  0
LWPOLYLINE
  5
16b
100
AcDbEntity
  8
Layer_1
 62
7
100
AcDbPolyline
 90
1
 70
1
 10
28.380966
 20
23.325958
 30
0.0
  0
SPLINE
  5
16c
100
AcDbEntity
  8
Layer_1
 62
7
100
AcDbSpline
 70
8
 71
3
 72
8
 73
4
 74
0
 40
0
 40
0
 40
0
 40
0
 40
1
 40
1
 40
1
 40
1
 10
4.465102
 20
12.758392
 30
0.0
 10
4.465001
 20
12.868397
 30
0.0
 10
4.375796
 20
12.957520
 30
0.0
 10
4.265791
 20
12.957520
 30
0.0
  0
SPLINE
  5
16d
100
AcDbEntity
  8
Layer_1
 62
7
100
AcDbSpline
 70
8
 71
3
 72
8
 73
4
 74
0
 40
0
 40
0
 40
0
 40
0
 40
1
 40
1
 40
1
 40
1
 10
4.265791
 20
12.957520
 30
0.0
 10
4.155786
 20
12.957520
 30
0.0
 10
4.066581
 20
12.868397
 30
0.0
 10
4.066480
 20
12.758392
 30
0.0
  0
SPLINE
  5
16e
100
AcDbEntity
  8
Layer_1
 62
7
100
AcDbSpline
 70
8
 71
3
 72
8
 73
4
 74
0
 40
0
 40
0
 40
0
 40
0
 40
1
 40
1
 40
1
 40
1
 10
4.066480
 20
12.758392
 30
0.0
 10
4.066581
 20
12.648387
 30
0.0
 10
4.155786
 20
12.559263
 30
0.0
 10
4.265791
 20
12.559263
 30
0.0
  0
SPLINE
  5
16f
100
AcDbEntity
  8
Layer_1
 62
7
100
AcDbSpline
 70
8
 71
3
 72
8
 73
4
 74
0
 40
0
 40
0
 40
0
 40
0
 40
1
 40
1
 40
1
 40
1
 10
4.265791
 20
12.559263
 30
0.0
 10
4.375796
 20
12.559263
 30
0.0
 10
4.465001
 20
12.648387
 30
0.0
 10
4.465102
 20
12.758392
 30
0.0
  0
LWPOLYLINE
  5
170
100
AcDbEntity
  8
Layer_1
 62
7
100
AcDbPolyline
 90
1
 70
1
 10
6.250758
 20
23.267412
 30
0.0
  0
SPLINE
  5
171
100
AcDbEntity
  8
Layer_1
 62
7
100
AcDbSpline
 70
8
 71
3
 72
8
 73
4
 74
0
 40
0
 40
0
 40
0
 40
0
 40
1
 40
1
 40
1
 40
1
 10
31.601000
 20
12.758392
 30
0.0
 10
31.600900
 20
12.868397
 30
0.0
 10
31.511695
 20
12.957520
 30
0.0
 10
31.401690
 20
12.957520
 30
0.0
  0
SPLINE
  5
172
100
AcDbEntity
  8
Layer_1
 62
7
100
AcDbSpline
 70
8
 71
3
 72
8
 73
4
 74
0
 40
0
 40
0
 40
0
 40
0
 40
1
 40
1
 40
1
 40
1
 10
31.401690
 20
12.957520
 30
0.0
 10
31.291685
 20
12.957520
 30
0.0
 10
31.202480
 20
12.868397
 30
0.0
 10
31.202379
 20
12.758392
 30
0.0
  0
SPLINE
  5
173
100
AcDbEntity
  8
Layer_1
 62
7
100
AcDbSpline
 70
8
 71
3
 72
8
 73
4
 74
0
 40
0
 40
0
 40
0
 40
0
 40
1
 40
1
 40
1
 40
1
 10
31.202379
 20
12.758392
 30
0.0
 10
31.202480
 20
12.648387
 30
0.0
 10
31.291685
 20
12.559263
 30
0.0
 10
31.401690
 20
12.559263
 30
0.0
  0
SPLINE
  5
174
100
AcDbEntity
  8
Layer_1
 62
7
100
AcDbSpline
 70
8
 71
3
 72
8
 73
4
 74
0
 40
0
 40
0
 40
0
 40
0
 40
1
 40
1
 40
1
 40
1
 10
31.401690
 20
12.559263
 30
0.0
 10
31.511695
 20
12.559263
 30
0.0
 10
31.600900
 20
12.648387
 30
0.0
 10
31.601000
 20
12.758392
 30
0.0
  0
LWPOLYLINE
  5
175
100
AcDbEntity
  8
Layer_1
 62
7
100
AcDbPolyline
 90
1
 70
1
 10
4.465102
 20
12.758392
 30
0.0
  0
SPLINE
  5
176
100
AcDbEntity
  8
Layer_1
 62
7
100
AcDbSpline
 70
8
 71
3
 72
8
 73
4
 74
0
 40
0
 40
0
 40
0
 40
0
 40
1
 40
1
 40
1
 40
1
 10
7.685136
 20
23.325958
 30
0.0
 10
7.685036
 20
23.435963
 30
0.0
 10
7.595831
 20
23.525087
 30
0.0
 10
7.485826
 20
23.525087
 30
0.0
  0
SPLINE
  5
177
100
AcDbEntity
  8
Layer_1
 62
7
100
AcDbSpline
 70
8
 71
3
 72
8
 73
4
 74
0
 40
0
 40
0
 40
0
 40
0
 40
1
 40
1
 40
1
 40
1
 10
7.485826
 20
23.525087
 30
0.0
 10
7.375821
 20
23.525087
 30
0.0
 10
7.286616
 20
23.435963
 30
0.0
 10
7.286515
 20
23.325958
 30
0.0
  0
SPLINE
  5
178
100
AcDbEntity
  8
Layer_1
 62
7
100
AcDbSpline
 70
8
 71
3
 72
8
 73
4
 74
0
 40
0
 40
0
 40
0
 40
0
 40
1
 40
1
 40
1
 40
1
 10
7.286515
 20
23.325958
 30
0.0
 10
7.286616
 20
23.215953
 30
0.0
 10
7.375821
 20
23.126830
 30
0.0
 10
7.485826
 20
23.126830
 30
0.0
  0
SPLINE
  5
179
100
AcDbEntity
  8
Layer_1
 62
7
100
AcDbSpline
 70
8
 71
3
 72
8
 73
4
 74
0
 40
0
 40
0
 40
0
 40
0
 40
1
 40
1
 40
1
 40
1
 10
7.485826
 20
23.126830
 30
0.0
 10
7.595831
 20
23.126830
 30
0.0
 10
7.685036
 20
23.215953
 30
0.0
 10
7.685136
 20
23.325958
 30
0.0
  0
LWPOLYLINE
  5
17a
100
AcDbEntity
  8
Layer_1
 62
7
100
AcDbPolyline
 90
1
 70
1
 10
31.601000
 20
12.758392
 30
0.0
  0
LWPOLYLINE
  5
17b
100
AcDbEntity
  8
Layer_1
 62
7
100
AcDbPolyline
 90
1
 70
1
 10
7.685136
 20
23.325958
 30
0.0
  0
SPLINE
  5
17c
100
AcDbEntity
  8
Layer_1
 62
7
100
AcDbSpline
 70
8
 71
3
 72
8
 73
4
 74
0
 40
0
 40
0
 40
0
 40
0
 40
1
 40
1
 40
1
 40
1
 10
3.255176
 20
11.894584
 30
0.0
 10
3.163835
 20
11.894584
 30
0.0
 10
3.117401
 20
11.892352
 30
0.0
 10
2.669665
 20
11.862657
 30
0.0
  0
SPLINE
  5
17d
100
AcDbEntity
  8
Layer_1
 62
7
100
AcDbSpline
 70
8
 71
3
 72
8
 73
4
 74
0
 40
0
 40
0
 40
0
 40
0
 40
1
 40
1
 40
1
 40
1
 10
2.669665
 20
11.862657
 30
0.0
 10
2.669665
 20
11.862657
 30
0.0
 10
2.274249
 20
11.768686
 30
0.0
 10
1.544226
 20
11.413975
 30
0.0
  0
SPLINE
  5
17e
100
AcDbEntity
  8
Layer_1
 62
7
100
AcDbSpline
 70
8
 71
3
 72
8
 73
4
 74
0
 40
0
 40
0
 40
0
 40
0
 40
1
 40
1
 40
1
 40
1
 10
1.544226
 20
11.413975
 30
0.0
 10
1.544226
 20
11.413975
 30
0.0
 10
1.212628
 20
11.176755
 30
0.0
 10
0.668398
 20
10.568120
 30
0.0
  0
SPLINE
  5
17f
100
AcDbEntity
  8
Layer_1
 62
7
100
AcDbSpline
 70
8
 71
3
 72
8
 73
4
 74
0
 40
0
 40
0
 40
0
 40
0
 40
1
 40
1
 40
1
 40
1
 10
0.668398
 20
10.568120
 30
0.0
 10
0.668398
 20
10.568120
 30
0.0
 10
0.450210
 20
10.219305
 30
0.0
 10
0.305352
 20
9.806526
 30
0.0
  0
SPLINE
  5
180
100
AcDbEntity
  8
Layer_1
 62
7
100
AcDbSpline
 70
8
 71
3
 72
8
 73
4
 74
0
 40
0
 40
0
 40
0
 40
0
 40
1
 40
1
 40
1
 40
1
 10
0.305352
 20
9.806526
 30
0.0
 10
0.237151
 20
9.612183
 30
0.0
 10
0.182805
 20
9.397051
 30
0.0
 10
0.152864
 20
9.158357
 30
0.0
  0
SPLINE
  5
181
100
AcDbEntity
  8
Layer_1
 62
7
100
AcDbSpline
 70
8
 71
3
 72
8
 73
4
 74
0
 40
0
 40
0
 40
0
 40
0
 40
1
 40
1
 40
1
 40
1
 10
0.152864
 20
9.158357
 30
0.0
 10
0.122484
 20
8.916145
 30
0.0
 10
0.125006
 20
8.735718
 30
0.0
 10
0.133528
 20
8.586446
 30
0.0
  0
SPLINE
  5
182
100
AcDbEntity
  8
Layer_1
 62
7
100
AcDbSpline
 70
8
 71
3
 72
8
 73
4
 74
0
 40
0
 40
0
 40
0
 40
0
 40
1
 40
1
 40
1
 40
1
 10
0.133528
 20
8.586446
 30
0.0
 10
0.135277
 20
8.555811
 30
0.0
 10
0.136952
 20
8.526469
 30
0.0
 10
0.138566
 20
8.498171
 30
0.0
  0
SPLINE
  5
183
100
AcDbEntity
  8
Layer_1
 62
7
100
AcDbSpline
 70
8
 71
3
 72
8
 73
4
 74
0
 40
0
 40
0
 40
0
 40
0
 40
1
 40
1
 40
1
 40
1
 10
0.138566
 20
8.498171
 30
0.0
 10
0.163531
 20
8.060752
 30
0.0
 10
0.188252
 20
7.627020
 30
0.0
 10
0.215991
 20
7.133481
 30
0.0
  0
SPLINE
  5
184
100
AcDbEntity
  8
Layer_1
 62
7
100
AcDbSpline
 70
8
 71
3
 72
8
 73
4
 74
0
 40
0
 40
0
 40
0
 40
0
 40
1
 40
1
 40
1
 40
1
 10
0.215991
 20
7.133481
 30
0.0
 10
0.265007
 20
6.261389
 30
0.0
 10
0.317993
 20
5.301291
 30
0.0
 10
0.369675
 20
4.284390
 30
0.0
  0
SPLINE
  5
185
100
AcDbEntity
  8
Layer_1
 62
7
100
AcDbSpline
 70
8
 71
3
 72
8
 73
4
 74
0
 40
0
 40
0
 40
0
 40
0
 40
1
 40
1
 40
1
 40
1
 10
0.369675
 20
4.284390
 30
0.0
 10
0.408139
 20
3.527574
 30
0.0
 10
0.422103
 20
3.217655
 30
0.0
 10
0.428770
 20
3.074642
 30
0.0
  0
SPLINE
  5
186
100
AcDbEntity
  8
Layer_1
 62
7
100
AcDbSpline
 70
8
 71
3
 72
8
 73
4
 74
0
 40
0
 40
0
 40
0
 40
0
 40
1
 40
1
 40
1
 40
1
 10
0.428770
 20
3.074642
 30
0.0
 10
0.429603
 20
3.056677
 30
0.0
 10
0.430468
 20
3.041352
 30
0.0
 10
0.431279
 20
3.028108
 30
0.0
  0
SPLINE
  5
187
100
AcDbEntity
  8
Layer_1
 62
7
100
AcDbSpline
 70
8
 71
3
 72
8
 73
4
 74
0
 40
0
 40
0
 40
0
 40
0
 40
1
 40
1
 40
1
 40
1
 10
0.431279
 20
3.028108
 30
0.0
 10
0.436950
 20
2.935497
 30
0.0
 10
0.446969
 20
2.836979
 30
0.0
 10
0.463419
 20
2.731640
 30
0.0
  0
SPLINE
  5
188
100
AcDbEntity
  8
Layer_1
 62
7
100
AcDbSpline
 70
8
 71
3
 72
8
 73
4
 74
0
 40
0
 40
0
 40
0
 40
0
 40
1
 40
1
 40
1
 40
1
 10
0.463419
 20
2.731640
 30
0.0
 10
0.491980
 20
2.548751
 30
0.0
 10
0.538164
 20
2.356358
 30
0.0
 10
0.609755
 20
2.156082
 30
0.0
  0
SPLINE
  5
189
100
AcDbEntity
  8
Layer_1
 62
7
100
AcDbSpline
 70
8
 71
3
 72
8
 73
4
 74
0
 40
0
 40
0
 40
0
 40
0
 40
1
 40
1
 40
1
 40
1
 10
0.609755
 20
2.156082
 30
0.0
 10
0.734066
 20
1.808323
 30
0.0
 10
0.926566
 20
1.460686
 30
0.0
 10
1.206814
 20
1.142156
 30
0.0
  0
SPLINE
  5
18a
100
AcDbEntity
  8
Layer_1
 62
7
100
AcDbSpline
 70
8
 71
3
 72
8
 73
4
 74
0
 40
0
 40
0
 40
0
 40
0
 40
1
 40
1
 40
1
 40
1
 10
1.206814
 20
1.142156
 30
0.0
 10
1.457875
 20
0.856799
 30
0.0
 10
1.776009
 20
0.599131
 30
0.0
 10
2.167645
 20
0.405866
 30
0.0
  0
SPLINE
  5
18b
100
AcDbEntity
  8
Layer_1
 62
7
100
AcDbSpline
 70
8
 71
3
 72
8
 73
4
 74
0
 40
0
 40
0
 40
0
 40
0
 40
1
 40
1
 40
1
 40
1
 10
2.167645
 20
0.405866
 30
0.0
 10
2.513451
 20
0.235218
 30
0.0
 10
2.911901
 20
0.117476
 30
0.0
 10
3.354188
 20
0.089724
 30
0.0
  0
SPLINE
  5
18c
100
AcDbEntity
  8
Layer_1
 62
7
100
AcDbSpline
 70
8
 71
3
 72
8
 73
4
 74
0
 40
0
 40
0
 40
0
 40
0
 40
1
 40
1
 40
1
 40
1
 10
3.354188
 20
0.089724
 30
0.0
 10
3.423968
 20
0.085346
 30
0.0
 10
3.457735
 20
0.083575
 30
0.0
 10
3.550418
 20
0.083575
 30
0.0
  0
LWPOLYLINE
  5
18d
100
AcDbEntity
  8
Layer_1
 62
7
100
AcDbPolyline
 90
3
 70
0
 10
16.640984
 20
10.910327
 30
0.0
 10
16.640984
 20
11.894596
 30
0.0
 10
3.255126
 20
11.894596
 30
0.0
  0
SPLINE
  5
18e
100
AcDbEntity
  8
Layer_1
 62
7
100
AcDbSpline
 70
8
 71
3
 72
8
 73
4
 74
0
 40
0
 40
0
 40
0
 40
0
 40
1
 40
1
 40
1
 40
1
 10
4.849522
 20
2.289612
 30
0.0
 10
5.211262
 20
1.542429
 30
0.0
 10
5.968334
 20
1.067826
 30
0.0
 10
6.798479
 20
1.067826
 30
0.0
  0
LWPOLYLINE
  5
18f
100
AcDbEntity
  8
Layer_1
 62
7
100
AcDbPolyline
 90
4
 70
0
 10
3.550438
 20
0.083580
 30
0.0
 10
28.845719
 20
0.083580
 30
0.0
 10
28.845719
 20
1.067828
 30
0.0
 10
6.798455
 20
1.067828
 30
0.0
  0
SPLINE
  5
190
100
AcDbEntity
  8
Layer_1
 62
7
100
AcDbSpline
 70
8
 71
3
 72
8
 73
4
 74
0
 40
0
 40
0
 40
0
 40
0
 40
1
 40
1
 40
1
 40
1
 10
3.152488
 20
10.119102
 30
0.0
 10
2.697549
 20
10.085104
 30
0.0
 10
2.288926
 20
9.828142
 30
0.0
 10
2.061191
 20
9.432841
 30
0.0
  0
SPLINE
  5
191
100
AcDbEntity
  8
Layer_1
 62
7
100
AcDbSpline
 70
8
 71
3
 72
8
 73
4
 74
0
 40
0
 40
0
 40
0
 40
0
 40
1
 40
1
 40
1
 40
1
 10
2.061191
 20
9.432841
 30
0.0
 10
1.833457
 20
9.037540
 30
0.0
 10
1.816135
 20
8.555148
 30
0.0
 10
2.014931
 20
8.144531
 30
0.0
  0
LWPOLYLINE
  5
192
100
AcDbEntity
  8
Layer_1
 62
7
100
AcDbPolyline
 90
2
 70
0
 10
4.849499
 20
2.289608
 30
0.0
 10
2.014919
 20
8.144497
 30
0.0
  0
SPLINE
  5
193
100
AcDbEntity
  8
Layer_1
 62
7
100
AcDbSpline
 70
8
 71
3
 72
8
 73
4
 74
0
 40
0
 40
0
 40
0
 40
0
 40
1
 40
1
 40
1
 40
1
 10
9.554381
 20
10.910333
 30
0.0
 10
9.463684
 20
10.910333
 30
0.0
 10
9.373077
 20
10.904635
 30
0.0
 10
9.283095
 20
10.893272
 30
0.0
  0
LWPOLYLINE
  5
194
100
AcDbEntity
  8
Layer_1
 62
7
100
AcDbPolyline
 90
2
 70
0
 10
3.152522
 20
10.119078
 30
0.0
 10
9.283098
 20
10.893243
 30
0.0
  0
SPLINE
  5
195
100
AcDbEntity
  8
Layer_1
 62
7
100
AcDbSpline
 70
8
 71
3
 72
8
 73
4
 74
0
 40
0
 40
0
 40
0
 40
0
 40
1
 40
1
 40
1
 40
1
 10
15.009098
 20
0.713495
 30
0.0
 10
15.009098
 20
0.681967
 30
0.0
 10
15.034657
 20
0.656409
 30
0.0
 10
15.066185
 20
0.656409
 30
0.0
  0
SPLINE
  5
196
100
AcDbEntity
  8
Layer_1
 62
7
100
AcDbSpline
 70
8
 71
3
 72
8
 73
4
 74
0
 40
0
 40
0
 40
0
 40
0
 40
1
 40
1
 40
1
 40
1
 10
15.066185
 20
0.656409
 30
0.0
 10
15.097713
 20
0.656409
 30
0.0
 10
15.123271
 20
0.681967
 30
0.0
 10
15.123271
 20
0.713495
 30
0.0
  0
SPLINE
  5
197
100
AcDbEntity
  8
Layer_1
 62
7
100
AcDbSpline
 70
8
 71
3
 72
8
 73
4
 74
0
 40
0
 40
0
 40
0
 40
0
 40
1
 40
1
 40
1
 40
1
 10
15.123271
 20
0.713495
 30
0.0
 10
15.123271
 20
0.745023
 30
0.0
 10
15.097713
 20
0.770582
 30
0.0
 10
15.066185
 20
0.770582
 30
0.0
  0
SPLINE
  5
198
100
AcDbEntity
  8
Layer_1
 62
7
100
AcDbSpline
 70
8
 71
3
 72
8
 73
4
 74
0
 40
0
 40
0
 40
0
 40
0
 40
1
 40
1
 40
1
 40
1
 10
15.066185
 20
0.770582
 30
0.0
 10
15.034657
 20
0.770582
 30
0.0
 10
15.009098
 20
0.745023
 30
0.0
 10
15.009098
 20
0.713495
 30
0.0
  0
LWPOLYLINE
  5
199
100
AcDbEntity
  8
Layer_1
 62
7
100
AcDbPolyline
 90
2
 70
0
 10
9.554378
 20
10.910327
 30
0.0
 10
16.640984
 20
10.910327
 30
0.0
  0
SPLINE
  5
19a
100
AcDbEntity
  8
Layer_1
 62
7
100
AcDbSpline
 70
8
 71
3
 72
8
 73
4
 74
0
 40
0
 40
0
 40
0
 40
0
 40
1
 40
1
 40
1
 40
1
 10
9.497294
 20
0.713495
 30
0.0
 10
9.497294
 20
0.693100
 30
0.0
 10
9.508175
 20
0.674255
 30
0.0
 10
9.525837
 20
0.664057
 30
0.0
  0
SPLINE
  5
19b
100
AcDbEntity
  8
Layer_1
 62
7
100
AcDbSpline
 70
8
 71
3
 72
8
 73
4
 74
0
 40
0
 40
0
 40
0
 40
0
 40
1
 40
1
 40
1
 40
1
 10
9.525837
 20
0.664057
 30
0.0
 10
9.543500
 20
0.653860
 30
0.0
 10
9.565261
 20
0.653860
 30
0.0
 10
9.582924
 20
0.664057
 30
0.0
  0
SPLINE
  5
19c
100
AcDbEntity
  8
Layer_1
 62
7
100
AcDbSpline
 70
8
 71
3
 72
8
 73
4
 74
0
 40
0
 40
0
 40
0
 40
0
 40
1
 40
1
 40
1
 40
1
 10
9.582924
 20
0.664057
 30
0.0
 10
9.600587
 20
0.674255
 30
0.0
 10
9.611467
 20
0.693100
 30
0.0
 10
9.611467
 20
0.713495
 30
0.0
  0
SPLINE
  5
19d
100
AcDbEntity
  8
Layer_1
 62
7
100
AcDbSpline
 70
8
 71
3
 72
8
 73
4
 74
0
 40
0
 40
0
 40
0
 40
0
 40
1
 40
1
 40
1
 40
1
 10
9.611467
 20
0.713495
 30
0.0
 10
9.611467
 20
0.733891
 30
0.0
 10
9.600587
 20
0.752736
 30
0.0
 10
9.582924
 20
0.762934
 30
0.0
  0
SPLINE
  5
19e
100
AcDbEntity
  8
Layer_1
 62
7
100
AcDbSpline
 70
8
 71
3
 72
8
 73
4
 74
0
 40
0
 40
0
 40
0
 40
0
 40
1
 40
1
 40
1
 40
1
 10
9.582924
 20
0.762934
 30
0.0
 10
9.565261
 20
0.773131
 30
0.0
 10
9.543500
 20
0.773131
 30
0.0
 10
9.525837
 20
0.762934
 30
0.0
  0
SPLINE
  5
19f
100
AcDbEntity
  8
Layer_1
 62
7
100
AcDbSpline
 70
8
 71
3
 72
8
 73
4
 74
0
 40
0
 40
0
 40
0
 40
0
 40
1
 40
1
 40
1
 40
1
 10
9.525837
 20
0.762934
 30
0.0
 10
9.508175
 20
0.752736
 30
0.0
 10
9.497294
 20
0.733891
 30
0.0
 10
9.497294
 20
0.713495
 30
0.0
  0
LWPOLYLINE
  5
1a0
100
AcDbEntity
  8
Layer_1
 62
7
100
AcDbPolyline
 90
1
 70
1
 10
15.009098
 20
0.713495
 30
0.0
  0
SPLINE
  5
1a1
100
AcDbEntity
  8
Layer_1
 62
7
100
AcDbSpline
 70
8
 71
3
 72
8
 73
4
 74
0
 40
0
 40
0
 40
0
 40
0
 40
1
 40
1
 40
1
 40
1
 10
3.985490
 20
1.027845
 30
0.0
 10
3.985490
 20
1.007450
 30
0.0
 10
3.996370
 20
0.988604
 30
0.0
 10
4.014033
 20
0.978407
 30
0.0
  0
SPLINE
  5
1a2
100
AcDbEntity
  8
Layer_1
 62
7
100
AcDbSpline
 70
8
 71
3
 72
8
 73
4
 74
0
 40
0
 40
0
 40
0
 40
0
 40
1
 40
1
 40
1
 40
1
 10
4.014033
 20
0.978407
 30
0.0
 10
4.031696
 20
0.968209
 30
0.0
 10
4.053457
 20
0.968209
 30
0.0
 10
4.071120
 20
0.978407
 30
0.0
  0
SPLINE
  5
1a3
100
AcDbEntity
  8
Layer_1
 62
7
100
AcDbSpline
 70
8
 71
3
 72
8
 73
4
 74
0
 40
0
 40
0
 40
0
 40
0
 40
1
 40
1
 40
1
 40
1
 10
4.071120
 20
0.978407
 30
0.0
 10
4.088783
 20
0.988604
 30
0.0
 10
4.099663
 20
1.007450
 30
0.0
 10
4.099663
 20
1.027845
 30
0.0
  0
SPLINE
  5
1a4
100
AcDbEntity
  8
Layer_1
 62
7
100
AcDbSpline
 70
8
 71
3
 72
8
 73
4
 74
0
 40
0
 40
0
 40
0
 40
0
 40
1
 40
1
 40
1
 40
1
 10
4.099663
 20
1.027845
 30
0.0
 10
4.099663
 20
1.048241
 30
0.0
 10
4.088783
 20
1.067086
 30
0.0
 10
4.071120
 20
1.077284
 30
0.0
  0
SPLINE
  5
1a5
100
AcDbEntity
  8
Layer_1
 62
7
100
AcDbSpline
 70
8
 71
3
 72
8
 73
4
 74
0
 40
0
 40
0
 40
0
 40
0
 40
1
 40
1
 40
1
 40
1
 10
4.071120
 20
1.077284
 30
0.0
 10
4.053457
 20
1.087482
 30
0.0
 10
4.031696
 20
1.087482
 30
0.0
 10
4.014033
 20
1.077284
 30
0.0
  0
SPLINE
  5
1a6
100
AcDbEntity
  8
Layer_1
 62
7
100
AcDbSpline
 70
8
 71
3
 72
8
 73
4
 74
0
 40
0
 40
0
 40
0
 40
0
 40
1
 40
1
 40
1
 40
1
 10
4.014033
 20
1.077284
 30
0.0
 10
3.996370
 20
1.067086
 30
0.0
 10
3.985490
 20
1.048241
 30
0.0
 10
3.985490
 20
1.027845
 30
0.0
  0
LWPOLYLINE
  5
1a7
100
AcDbEntity
  8
Layer_1
 62
7
100
AcDbPolyline
 90
1
 70
1
 10
9.497294
 20
0.713495
 30
0.0
  0
SPLINE
  5
1a8
100
AcDbEntity
  8
Layer_1
 62
7
100
AcDbSpline
 70
8
 71
3
 72
8
 73
4
 74
0
 40
0
 40
0
 40
0
 40
0
 40
1
 40
1
 40
1
 40
1
 10
20.520902
 20
0.713495
 30
0.0
 10
20.520902
 20
0.681967
 30
0.0
 10
20.546461
 20
0.656409
 30
0.0
 10
20.577989
 20
0.656409
 30
0.0
  0
SPLINE
  5
1a9
100
AcDbEntity
  8
Layer_1
 62
7
100
AcDbSpline
 70
8
 71
3
 72
8
 73
4
 74
0
 40
0
 40
0
 40
0
 40
0
 40
1
 40
1
 40
1
 40
1
 10
20.577989
 20
0.656409
 30
0.0
 10
20.609517
 20
0.656409
 30
0.0
 10
20.635075
 20
0.681967
 30
0.0
 10
20.635075
 20
0.713495
 30
0.0
  0
SPLINE
  5
1aa
100
AcDbEntity
  8
Layer_1
 62
7
100
AcDbSpline
 70
8
 71
3
 72
8
 73
4
 74
0
 40
0
 40
0
 40
0
 40
0
 40
1
 40
1
 40
1
 40
1
 10
20.635075
 20
0.713495
 30
0.0
 10
20.635075
 20
0.733891
 30
0.0
 10
20.624195
 20
0.752736
 30
0.0
 10
20.606532
 20
0.762934
 30
0.0
  0
SPLINE
  5
1ab
100
AcDbEntity
  8
Layer_1
 62
7
100
AcDbSpline
 70
8
 71
3
 72
8
 73
4
 74
0
 40
0
 40
0
 40
0
 40
0
 40
1
 40
1
 40
1
 40
1
 10
20.606532
 20
0.762934
 30
0.0
 10
20.588870
 20
0.773131
 30
0.0
 10
20.567108
 20
0.773131
 30
0.0
 10
20.549446
 20
0.762934
 30
0.0
  0
SPLINE
  5
1ac
100
AcDbEntity
  8
Layer_1
 62
7
100
AcDbSpline
 70
8
 71
3
 72
8
 73
4
 74
0
 40
0
 40
0
 40
0
 40
0
 40
1
 40
1
 40
1
 40
1
 10
20.549446
 20
0.762934
 30
0.0
 10
20.531783
 20
0.752736
 30
0.0
 10
20.520902
 20
0.733891
 30
0.0
 10
20.520902
 20
0.713495
 30
0.0
  0
LWPOLYLINE
  5
1ad
100
AcDbEntity
  8
Layer_1
 62
7
100
AcDbPolyline
 90
1
 70
1
 10
3.985490
 20
1.027845
 30
0.0
  0
SPLINE
  5
1ae
100
AcDbEntity
  8
Layer_1
 62
7
100
AcDbSpline
 70
8
 71
3
 72
8
 73
4
 74
0
 40
0
 40
0
 40
0
 40
0
 40
1
 40
1
 40
1
 40
1
 10
12.253196
 20
11.264664
 30
0.0
 10
12.253196
 20
11.244269
 30
0.0
 10
12.264077
 20
11.225423
 30
0.0
 10
12.281739
 20
11.215225
 30
0.0
  0
SPLINE
  5
1af
100
AcDbEntity
  8
Layer_1
 62
7
100
AcDbSpline
 70
8
 71
3
 72
8
 73
4
 74
0
 40
0
 40
0
 40
0
 40
0
 40
1
 40
1
 40
1
 40
1
 10
12.281739
 20
11.215225
 30
0.0
 10
12.299402
 20
11.205028
 30
0.0
 10
12.321163
 20
11.205028
 30
0.0
 10
12.338826
 20
11.215225
 30
0.0
  0
SPLINE
  5
1b0
100
AcDbEntity
  8
Layer_1
 62
7
100
AcDbSpline
 70
8
 71
3
 72
8
 73
4
 74
0
 40
0
 40
0
 40
0
 40
0
 40
1
 40
1
 40
1
 40
1
 10
12.338826
 20
11.215225
 30
0.0
 10
12.356489
 20
11.225423
 30
0.0
 10
12.367369
 20
11.244269
 30
0.0
 10
12.367369
 20
11.264664
 30
0.0
  0
SPLINE
  5
1b1
100
AcDbEntity
  8
Layer_1
 62
7
100
AcDbSpline
 70
8
 71
3
 72
8
 73
4
 74
0
 40
0
 40
0
 40
0
 40
0
 40
1
 40
1
 40
1
 40
1
 10
12.367369
 20
11.264664
 30
0.0
 10
12.367369
 20
11.285059
 30
0.0
 10
12.356489
 20
11.303905
 30
0.0
 10
12.338826
 20
11.314102
 30
0.0
  0
SPLINE
  5
1b2
100
AcDbEntity
  8
Layer_1
 62
7
100
AcDbSpline
 70
8
 71
3
 72
8
 73
4
 74
0
 40
0
 40
0
 40
0
 40
0
 40
1
 40
1
 40
1
 40
1
 10
12.338826
 20
11.314102
 30
0.0
 10
12.321163
 20
11.324300
 30
0.0
 10
12.299402
 20
11.324300
 30
0.0
 10
12.281739
 20
11.314102
 30
0.0
  0
SPLINE
  5
1b3
100
AcDbEntity
  8
Layer_1
 62
7
100
AcDbSpline
 70
8
 71
3
 72
8
 73
4
 74
0
 40
0
 40
0
 40
0
 40
0
 40
1
 40
1
 40
1
 40
1
 10
12.281739
 20
11.314102
 30
0.0
 10
12.264077
 20
11.303905
 30
0.0
 10
12.253196
 20
11.285059
 30
0.0
 10
12.253196
 20
11.264664
 30
0.0
  0
LWPOLYLINE
  5
1b4
100
AcDbEntity
  8
Layer_1
 62
7
100
AcDbPolyline
 90
1
 70
1
 10
20.520902
 20
0.713495
 30
0.0
  0
SPLINE
  5
1b5
100
AcDbEntity
  8
Layer_1
 62
7
100
AcDbSpline
 70
8
 71
3
 72
8
 73
4
 74
0
 40
0
 40
0
 40
0
 40
0
 40
1
 40
1
 40
1
 40
1
 10
6.741392
 20
11.264664
 30
0.0
 10
6.741466
 20
11.233188
 30
0.0
 10
6.767003
 20
11.207711
 30
0.0
 10
6.798479
 20
11.207711
 30
0.0
  0
SPLINE
  5
1b6
100
AcDbEntity
  8
Layer_1
 62
7
100
AcDbSpline
 70
8
 71
3
 72
8
 73
4
 74
0
 40
0
 40
0
 40
0
 40
0
 40
1
 40
1
 40
1
 40
1
 10
6.798479
 20
11.207711
 30
0.0
 10
6.829955
 20
11.207711
 30
0.0
 10
6.855491
 20
11.233188
 30
0.0
 10
6.855565
 20
11.264664
 30
0.0
  0
SPLINE
  5
1b7
100
AcDbEntity
  8
Layer_1
 62
7
100
AcDbSpline
 70
8
 71
3
 72
8
 73
4
 74
0
 40
0
 40
0
 40
0
 40
0
 40
1
 40
1
 40
1
 40
1
 10
6.855565
 20
11.264664
 30
0.0
 10
6.855491
 20
11.296139
 30
0.0
 10
6.829955
 20
11.321617
 30
0.0
 10
6.798479
 20
11.321617
 30
0.0
  0
SPLINE
  5
1b8
100
AcDbEntity
  8
Layer_1
 62
7
100
AcDbSpline
 70
8
 71
3
 72
8
 73
4
 74
0
 40
0
 40
0
 40
0
 40
0
 40
1
 40
1
 40
1
 40
1
 10
6.798479
 20
11.321617
 30
0.0
 10
6.767003
 20
11.321617
 30
0.0
 10
6.741466
 20
11.296139
 30
0.0
 10
6.741392
 20
11.264664
 30
0.0
  0
LWPOLYLINE
  5
1b9
100
AcDbEntity
  8
Layer_1
 62
7
100
AcDbPolyline
 90
1
 70
1
 10
12.253196
 20
11.264664
 30
0.0
  0
SPLINE
  5
1ba
100
AcDbEntity
  8
Layer_1
 62
7
100
AcDbSpline
 70
8
 71
3
 72
8
 73
4
 74
0
 40
0
 40
0
 40
0
 40
0
 40
1
 40
1
 40
1
 40
1
 10
26.032707
 20
0.713495
 30
0.0
 10
26.032707
 20
0.693100
 30
0.0
 10
26.043587
 20
0.674255
 30
0.0
 10
26.061250
 20
0.664057
 30
0.0
  0
SPLINE
  5
1bb
100
AcDbEntity
  8
Layer_1
 62
7
100
AcDbSpline
 70
8
 71
3
 72
8
 73
4
 74
0
 40
0
 40
0
 40
0
 40
0
 40
1
 40
1
 40
1
 40
1
 10
26.061250
 20
0.664057
 30
0.0
 10
26.078913
 20
0.653860
 30
0.0
 10
26.100674
 20
0.653860
 30
0.0
 10
26.118336
 20
0.664057
 30
0.0
  0
SPLINE
  5
1bc
100
AcDbEntity
  8
Layer_1
 62
7
100
AcDbSpline
 70
8
 71
3
 72
8
 73
4
 74
0
 40
0
 40
0
 40
0
 40
0
 40
1
 40
1
 40
1
 40
1
 10
26.118336
 20
0.664057
 30
0.0
 10
26.135999
 20
0.674255
 30
0.0
 10
26.146880
 20
0.693100
 30
0.0
 10
26.146880
 20
0.713495
 30
0.0
  0
SPLINE
  5
1bd
100
AcDbEntity
  8
Layer_1
 62
7
100
AcDbSpline
 70
8
 71
3
 72
8
 73
4
 74
0
 40
0
 40
0
 40
0
 40
0
 40
1
 40
1
 40
1
 40
1
 10
26.146880
 20
0.713495
 30
0.0
 10
26.146880
 20
0.733891
 30
0.0
 10
26.135999
 20
0.752736
 30
0.0
 10
26.118336
 20
0.762934
 30
0.0
  0
SPLINE
  5
1be
100
AcDbEntity
  8
Layer_1
 62
7
100
AcDbSpline
 70
8
 71
3
 72
8
 73
4
 74
0
 40
0
 40
0
 40
0
 40
0
 40
1
 40
1
 40
1
 40
1
 10
26.118336
 20
0.762934
 30
0.0
 10
26.100674
 20
0.773131
 30
0.0
 10
26.078913
 20
0.773131
 30
0.0
 10
26.061250
 20
0.762934
 30
0.0
  0
SPLINE
  5
1bf
100
AcDbEntity
  8
Layer_1
 62
7
100
AcDbSpline
 70
8
 71
3
 72
8
 73
4
 74
0
 40
0
 40
0
 40
0
 40
0
 40
1
 40
1
 40
1
 40
1
 10
26.061250
 20
0.762934
 30
0.0
 10
26.043587
 20
0.752736
 30
0.0
 10
26.032707
 20
0.733891
 30
0.0
 10
26.032707
 20
0.713495
 30
0.0
  0
LWPOLYLINE
  5
1c0
100
AcDbEntity
  8
Layer_1
 62
7
100
AcDbPolyline
 90
1
 70
1
 10
6.741392
 20
11.264664
 30
0.0
  0
SPLINE
  5
1c1
100
AcDbEntity
  8
Layer_1
 62
7
100
AcDbSpline
 70
8
 71
3
 72
8
 73
4
 74
0
 40
0
 40
0
 40
0
 40
0
 40
1
 40
1
 40
1
 40
1
 10
0.678407
 20
8.744981
 30
0.0
 10
0.678407
 20
8.724586
 30
0.0
 10
0.689288
 20
8.705740
 30
0.0
 10
0.706951
 20
8.695543
 30
0.0
  0
SPLINE
  5
1c2
100
AcDbEntity
  8
Layer_1
 62
7
100
AcDbSpline
 70
8
 71
3
 72
8
 73
4
 74
0
 40
0
 40
0
 40
0
 40
0
 40
1
 40
1
 40
1
 40
1
 10
0.706951
 20
8.695543
 30
0.0
 10
0.724613
 20
8.685345
 30
0.0
 10
0.746375
 20
8.685345
 30
0.0
 10
0.764038
 20
8.695543
 30
0.0
  0
SPLINE
  5
1c3
100
AcDbEntity
  8
Layer_1
 62
7
100
AcDbSpline
 70
8
 71
3
 72
8
 73
4
 74
0
 40
0
 40
0
 40
0
 40
0
 40
1
 40
1
 40
1
 40
1
 10
0.764038
 20
8.695543
 30
0.0
 10
0.781700
 20
8.705740
 30
0.0
 10
0.792581
 20
8.724586
 30
0.0
 10
0.792581
 20
8.744981
 30
0.0
  0
SPLINE
  5
1c4
100
AcDbEntity
  8
Layer_1
 62
7
100
AcDbSpline
 70
8
 71
3
 72
8
 73
4
 74
0
 40
0
 40
0
 40
0
 40
0
 40
1
 40
1
 40
1
 40
1
 10
0.792581
 20
8.744981
 30
0.0
 10
0.792581
 20
8.765377
 30
0.0
 10
0.781700
 20
8.784223
 30
0.0
 10
0.764038
 20
8.794420
 30
0.0
  0
SPLINE
  5
1c5
100
AcDbEntity
  8
Layer_1
 62
7
100
AcDbSpline
 70
8
 71
3
 72
8
 73
4
 74
0
 40
0
 40
0
 40
0
 40
0
 40
1
 40
1
 40
1
 40
1
 10
0.764038
 20
8.794420
 30
0.0
 10
0.746375
 20
8.804618
 30
0.0
 10
0.724613
 20
8.804618
 30
0.0
 10
0.706951
 20
8.794420
 30
0.0
  0
SPLINE
  5
1c6
100
AcDbEntity
  8
Layer_1
 62
7
100
AcDbSpline
 70
8
 71
3
 72
8
 73
4
 74
0
 40
0
 40
0
 40
0
 40
0
 40
1
 40
1
 40
1
 40
1
 10
0.706951
 20
8.794420
 30
0.0
 10
0.689288
 20
8.784223
 30
0.0
 10
0.678407
 20
8.765377
 30
0.0
 10
0.678407
 20
8.744981
 30
0.0
  0
LWPOLYLINE
  5
1c7
100
AcDbEntity
  8
Layer_1
 62
7
100
AcDbPolyline
 90
1
 70
1
 10
26.032707
 20
0.713495
 30
0.0
  0
SPLINE
  5
1c8
100
AcDbEntity
  8
Layer_1
 62
7
100
AcDbSpline
 70
8
 71
3
 72
8
 73
4
 74
0
 40
0
 40
0
 40
0
 40
0
 40
1
 40
1
 40
1
 40
1
 10
27.970691
 20
0.572348
 30
0.0
 10
27.970792
 20
0.462343
 30
0.0
 10
28.059997
 20
0.373220
 30
0.0
 10
28.170002
 20
0.373220
 30
0.0
  0
SPLINE
  5
1c9
100
AcDbEntity
  8
Layer_1
 62
7
100
AcDbSpline
 70
8
 71
3
 72
8
 73
4
 74
0
 40
0
 40
0
 40
0
 40
0
 40
1
 40
1
 40
1
 40
1
 10
28.170002
 20
0.373220
 30
0.0
 10
28.280007
 20
0.373220
 30
0.0
 10
28.369212
 20
0.462343
 30
0.0
 10
28.369312
 20
0.572348
 30
0.0
  0
SPLINE
  5
1ca
100
AcDbEntity
  8
Layer_1
 62
7
100
AcDbSpline
 70
8
 71
3
 72
8
 73
4
 74
0
 40
0
 40
0
 40
0
 40
0
 40
1
 40
1
 40
1
 40
1
 10
28.369312
 20
0.572348
 30
0.0
 10
28.369212
 20
0.682353
 30
0.0
 10
28.280007
 20
0.771477
 30
0.0
 10
28.170002
 20
0.771477
 30
0.0
  0
SPLINE
  5
1cb
100
AcDbEntity
  8
Layer_1
 62
7
100
AcDbSpline
 70
8
 71
3
 72
8
 73
4
 74
0
 40
0
 40
0
 40
0
 40
0
 40
1
 40
1
 40
1
 40
1
 10
28.170002
 20
0.771477
 30
0.0
 10
28.059997
 20
0.771477
 30
0.0
 10
27.970792
 20
0.682353
 30
0.0
 10
27.970691
 20
0.572348
 30
0.0
  0
LWPOLYLINE
  5
1cc
100
AcDbEntity
  8
Layer_1
 62
7
100
AcDbPolyline
 90
1
 70
1
 10
0.678407
 20
8.744981
 30
0.0
  0
SPLINE
  5
1cd
100
AcDbEntity
  8
Layer_1
 62
7
100
AcDbSpline
 70
8
 71
3
 72
8
 73
4
 74
0
 40
0
 40
0
 40
0
 40
0
 40
1
 40
1
 40
1
 40
1
 10
4.054827
 20
11.139915
 30
0.0
 10
4.054928
 20
11.029910
 30
0.0
 10
4.144133
 20
10.940786
 30
0.0
 10
4.254138
 20
10.940786
 30
0.0
  0
SPLINE
  5
1ce
100
AcDbEntity
  8
Layer_1
 62
7
100
AcDbSpline
 70
8
 71
3
 72
8
 73
4
 74
0
 40
0
 40
0
 40
0
 40
0
 40
1
 40
1
 40
1
 40
1
 10
4.254138
 20
10.940786
 30
0.0
 10
4.364143
 20
10.940786
 30
0.0
 10
4.453348
 20
11.029910
 30
0.0
 10
4.453448
 20
11.139915
 30
0.0
  0
SPLINE
  5
1cf
100
AcDbEntity
  8
Layer_1
 62
7
100
AcDbSpline
 70
8
 71
3
 72
8
 73
4
 74
0
 40
0
 40
0
 40
0
 40
0
 40
1
 40
1
 40
1
 40
1
 10
4.453448
 20
11.139915
 30
0.0
 10
4.453348
 20
11.249920
 30
0.0
 10
4.364143
 20
11.339043
 30
0.0
 10
4.254138
 20
11.339043
 30
0.0
  0
SPLINE
  5
1d0
100
AcDbEntity
  8
Layer_1
 62
7
100
AcDbSpline
 70
8
 71
3
 72
8
 73
4
 74
0
 40
0
 40
0
 40
0
 40
0
 40
1
 40
1
 40
1
 40
1
 10
4.254138
 20
11.339043
 30
0.0
 10
4.144133
 20
11.339043
 30
0.0
 10
4.054928
 20
11.249920
 30
0.0
 10
4.054827
 20
11.139915
 30
0.0
  0
LWPOLYLINE
  5
1d1
100
AcDbEntity
  8
Layer_1
 62
7
100
AcDbPolyline
 90
1
 70
1
 10
27.970691
 20
0.572348
 30
0.0
  0
SPLINE
  5
1d2
100
AcDbEntity
  8
Layer_1
 62
7
100
AcDbSpline
 70
8
 71
3
 72
8
 73
4
 74
0
 40
0
 40
0
 40
0
 40
0
 40
1
 40
1
 40
1
 40
1
 10
5.840482
 20
0.630894
 30
0.0
 10
5.840482
 20
0.559687
 30
0.0
 10
5.878471
 20
0.493889
 30
0.0
 10
5.940138
 20
0.458286
 30
0.0
  0
SPLINE
  5
1d3
100
AcDbEntity
  8
Layer_1
 62
7
100
AcDbSpline
 70
8
 71
3
 72
8
 73
4
 74
0
 40
0
 40
0
 40
0
 40
0
 40
1
 40
1
 40
1
 40
1
 10
5.940138
 20
0.458286
 30
0.0
 10
6.001805
 20
0.422682
 30
0.0
 10
6.077782
 20
0.422682
 30
0.0
 10
6.139449
 20
0.458286
 30
0.0
  0
SPLINE
  5
1d4
100
AcDbEntity
  8
Layer_1
 62
7
100
AcDbSpline
 70
8
 71
3
 72
8
 73
4
 74
0
 40
0
 40
0
 40
0
 40
0
 40
1
 40
1
 40
1
 40
1
 10
6.139449
 20
0.458286
 30
0.0
 10
6.201116
 20
0.493889
 30
0.0
 10
6.239104
 20
0.559687
 30
0.0
 10
6.239104
 20
0.630894
 30
0.0
  0
SPLINE
  5
1d5
100
AcDbEntity
  8
Layer_1
 62
7
100
AcDbSpline
 70
8
 71
3
 72
8
 73
4
 74
0
 40
0
 40
0
 40
0
 40
0
 40
1
 40
1
 40
1
 40
1
 10
6.239104
 20
0.630894
 30
0.0
 10
6.239104
 20
0.702101
 30
0.0
 10
6.201116
 20
0.767899
 30
0.0
 10
6.139449
 20
0.803503
 30
0.0
  0
SPLINE
  5
1d6
100
AcDbEntity
  8
Layer_1
 62
7
100
AcDbSpline
 70
8
 71
3
 72
8
 73
4
 74
0
 40
0
 40
0
 40
0
 40
0
 40
1
 40
1
 40
1
 40
1
 10
6.139449
 20
0.803503
 30
0.0
 10
6.077782
 20
0.839106
 30
0.0
 10
6.001805
 20
0.839106
 30
0.0
 10
5.940138
 20
0.803503
 30
0.0
  0
SPLINE
  5
1d7
100
AcDbEntity
  8
Layer_1
 62
7
100
AcDbSpline
 70
8
 71
3
 72
8
 73
4
 74
0
 40
0
 40
0
 40
0
 40
0
 40
1
 40
1
 40
1
 40
1
 10
5.940138
 20
0.803503
 30
0.0
 10
5.878471
 20
0.767899
 30
0.0
 10
5.840482
 20
0.702101
 30
0.0
 10
5.840482
 20
0.630894
 30
0.0
  0
LWPOLYLINE
  5
1d8
100
AcDbEntity
  8
Layer_1
 62
7
100
AcDbPolyline
 90
1
 70
1
 10
4.054827
 20
11.139915
 30
0.0
  0
SPLINE
  5
1d9
100
AcDbEntity
  8
Layer_1
 62
7
100
AcDbSpline
 70
8
 71
3
 72
8
 73
4
 74
0
 40
0
 40
0
 40
0
 40
0
 40
1
 40
1
 40
1
 40
1
 10
2.152079
 20
10.817911
 30
0.0
 10
2.152079
 20
10.746704
 30
0.0
 10
2.190068
 20
10.680906
 30
0.0
 10
2.251735
 20
10.645303
 30
0.0
  0
SPLINE
  5
1da
100
AcDbEntity
  8
Layer_1
 62
7
100
AcDbSpline
 70
8
 71
3
 72
8
 73
4
 74
0
 40
0
 40
0
 40
0
 40
0
 40
1
 40
1
 40
1
 40
1
 10
2.251735
 20
10.645303
 30
0.0
 10
2.313402
 20
10.609699
 30
0.0
 10
2.389379
 20
10.609699
 30
0.0
 10
2.451046
 20
10.645303
 30
0.0
  0
SPLINE
  5
1db
100
AcDbEntity
  8
Layer_1
 62
7
100
AcDbSpline
 70
8
 71
3
 72
8
 73
4
 74
0
 40
0
 40
0
 40
0
 40
0
 40
1
 40
1
 40
1
 40
1
 10
2.451046
 20
10.645303
 30
0.0
 10
2.512713
 20
10.680906
 30
0.0
 10
2.550702
 20
10.746704
 30
0.0
 10
2.550702
 20
10.817911
 30
0.0
  0
SPLINE
  5
1dc
100
AcDbEntity
  8
Layer_1
 62
7
100
AcDbSpline
 70
8
 71
3
 72
8
 73
4
 74
0
 40
0
 40
0
 40
0
 40
0
 40
1
 40
1
 40
1
 40
1
 10
2.550702
 20
10.817911
 30
0.0
 10
2.550702
 20
10.889118
 30
0.0
 10
2.512713
 20
10.954916
 30
0.0
 10
2.451046
 20
10.990520
 30
0.0
  0
SPLINE
  5
1dd
100
AcDbEntity
  8
Layer_1
 62
7
100
AcDbSpline
 70
8
 71
3
 72
8
 73
4
 74
0
 40
0
 40
0
 40
0
 40
0
 40
1
 40
1
 40
1
 40
1
 10
2.451046
 20
10.990520
 30
0.0
 10
2.389379
 20
11.026123
 30
0.0
 10
2.313402
 20
11.026123
 30
0.0
 10
2.251735
 20
10.990520
 30
0.0
  0
SPLINE
  5
1de
100
AcDbEntity
  8
Layer_1
 62
7
100
AcDbSpline
 70
8
 71
3
 72
8
 73
4
 74
0
 40
0
 40
0
 40
0
 40
0
 40
1
 40
1
 40
1
 40
1
 10
2.251735
 20
10.990520
 30
0.0
 10
2.190068
 20
10.954916
 30
0.0
 10
2.152079
 20
10.889118
 30
0.0
 10
2.152079
 20
10.817911
 30
0.0
  0
LWPOLYLINE
  5
1df
100
AcDbEntity
  8
Layer_1
 62
7
100
AcDbPolyline
 90
1
 70
1
 10
5.840482
 20
0.630894
 30
0.0
  0
SPLINE
  5
1e0
100
AcDbEntity
  8
Layer_1
 62
7
100
AcDbSpline
 70
8
 71
3
 72
8
 73
4
 74
0
 40
0
 40
0
 40
0
 40
0
 40
1
 40
1
 40
1
 40
1
 10
7.274861
 20
0.572348
 30
0.0
 10
7.274962
 20
0.462343
 30
0.0
 10
7.364167
 20
0.373220
 30
0.0
 10
7.474172
 20
0.373220
 30
0.0
  0
SPLINE
  5
1e1
100
AcDbEntity
  8
Layer_1
 62
7
100
AcDbSpline
 70
8
 71
3
 72
8
 73
4
 74
0
 40
0
 40
0
 40
0
 40
0
 40
1
 40
1
 40
1
 40
1
 10
7.474172
 20
0.373220
 30
0.0
 10
7.584177
 20
0.373220
 30
0.0
 10
7.673382
 20
0.462343
 30
0.0
 10
7.673483
 20
0.572348
 30
0.0
  0
SPLINE
  5
1e2
100
AcDbEntity
  8
Layer_1
 62
7
100
AcDbSpline
 70
8
 71
3
 72
8
 73
4
 74
0
 40
0
 40
0
 40
0
 40
0
 40
1
 40
1
 40
1
 40
1
 10
7.673483
 20
0.572348
 30
0.0
 10
7.673382
 20
0.682353
 30
0.0
 10
7.584177
 20
0.771477
 30
0.0
 10
7.474172
 20
0.771477
 30
0.0
  0
SPLINE
  5
1e3
100
AcDbEntity
  8
Layer_1
 62
7
100
AcDbSpline
 70
8
 71
3
 72
8
 73
4
 74
0
 40
0
 40
0
 40
0
 40
0
 40
1
 40
1
 40
1
 40
1
 10
7.474172
 20
0.771477
 30
0.0
 10
7.364167
 20
0.771477
 30
0.0
 10
7.274962
 20
0.682353
 30
0.0
 10
7.274861
 20
0.572348
 30
0.0
  0
LWPOLYLINE
  5
1e4
100
AcDbEntity
  8
Layer_1
 62
7
100
AcDbPolyline
 90
1
 70
1
 10
2.152079
 20
10.817911
 30
0.0
  0
LWPOLYLINE
  5
1e5
100
AcDbEntity
  8
Layer_1
 62
7
100
AcDbPolyline
 90
1
 70
1
 10
7.274861
 20
0.572348
 30
0.0
  0
SPLINE
  5
1e6
100
AcDbEntity
  8
Layer_1
 62
7
100
AcDbSpline
 70
8
 71
3
 72
8
 73
4
 74
0
 40
0
 40
0
 40
0
 40
0
 40
1
 40
1
 40
1
 40
1
 10
26.138834
 20
15.021383
 30
0.0
 10
26.048853
 20
15.032745
 30
0.0
 10
25.958246
 20
15.038443
 30
0.0
 10
25.867549
 20
15.038443
 30
0.0
  0
LWPOLYLINE
  5
1e7
100
AcDbEntity
  8
Layer_1
 62
7
100
AcDbPolyline
 90
3
 70
0
 10
18.780946
 20
16.022707
 30
0.0
 10
18.780946
 20
15.038437
 30
0.0
 10
25.867551
 20
15.038437
 30
0.0
  0
SPLINE
  5
1e8
100
AcDbEntity
  8
Layer_1
 62
7
100
AcDbSpline
 70
8
 71
3
 72
8
 73
4
 74
0
 40
0
 40
0
 40
0
 40
0
 40
1
 40
1
 40
1
 40
1
 10
33.406999
 20
12.272641
 30
0.0
 10
33.605795
 20
12.683258
 30
0.0
 10
33.588473
 20
13.165651
 30
0.0
 10
33.360738
 20
13.560952
 30
0.0
  0
SPLINE
  5
1e9
100
AcDbEntity
  8
Layer_1
 62
7
100
AcDbSpline
 70
8
 71
3
 72
8
 73
4
 74
0
 40
0
 40
0
 40
0
 40
0
 40
1
 40
1
 40
1
 40
1
 10
33.360738
 20
13.560952
 30
0.0
 10
33.133004
 20
13.956253
 30
0.0
 10
32.724380
 20
14.213215
 30
0.0
 10
32.269440
 20
14.247212
 30
0.0
  0
LWPOLYLINE
  5
1ea
100
AcDbEntity
  8
Layer_1
 62
7
100
AcDbPolyline
 90
2
 70
0
 10
26.138832
 20
15.021354
 30
0.0
 10
32.269408
 20
14.247188
 30
0.0
  0
SPLINE
  5
1eb
100
AcDbEntity
  8
Layer_1
 62
7
100
AcDbSpline
 70
8
 71
3
 72
8
 73
4
 74
0
 40
0
 40
0
 40
0
 40
0
 40
1
 40
1
 40
1
 40
1
 10
28.623451
 20
5.195936
 30
0.0
 10
29.453595
 20
5.195936
 30
0.0
 10
30.210667
 20
5.670539
 30
0.0
 10
30.572408
 20
6.417723
 30
0.0
  0
LWPOLYLINE
  5
1ec
100
AcDbEntity
  8
Layer_1
 62
7
100
AcDbPolyline
 90
2
 70
0
 10
33.407011
 20
12.272607
 30
0.0
 10
30.572431
 20
6.417718
 30
0.0
  0
SPLINE
  5
1ed
100
AcDbEntity
  8
Layer_1
 62
7
100
AcDbSpline
 70
8
 71
3
 72
8
 73
4
 74
0
 40
0
 40
0
 40
0
 40
0
 40
1
 40
1
 40
1
 40
1
 10
32.005254
 20
4.211685
 30
0.0
 10
32.109642
 20
4.211685
 30
0.0
 10
32.151836
 20
4.214182
 30
0.0
 10
32.227845
 20
4.219583
 30
0.0
  0
SPLINE
  5
1ee
100
AcDbEntity
  8
Layer_1
 62
7
100
AcDbSpline
 70
8
 71
3
 72
8
 73
4
 74
0
 40
0
 40
0
 40
0
 40
0
 40
1
 40
1
 40
1
 40
1
 10
32.227845
 20
4.219583
 30
0.0
 10
32.427998
 20
4.233807
 30
0.0
 10
32.625502
 20
4.267129
 30
0.0
 10
32.817761
 20
4.318677
 30
0.0
  0
SPLINE
  5
1ef
100
AcDbEntity
  8
Layer_1
 62
7
100
AcDbSpline
 70
8
 71
3
 72
8
 73
4
 74
0
 40
0
 40
0
 40
0
 40
0
 40
1
 40
1
 40
1
 40
1
 10
32.817761
 20
4.318677
 30
0.0
 10
33.209180
 20
4.423623
 30
0.0
 10
33.574841
 20
4.603017
 30
0.0
 10
33.895490
 20
4.845461
 30
0.0
  0
SPLINE
  5
1f0
100
AcDbEntity
  8
Layer_1
 62
7
100
AcDbSpline
 70
8
 71
3
 72
8
 73
4
 74
0
 40
0
 40
0
 40
0
 40
0
 40
1
 40
1
 40
1
 40
1
 10
33.895490
 20
4.845461
 30
0.0
 10
34.229647
 20
5.098118
 30
0.0
 10
34.508236
 20
5.414141
 30
0.0
 10
34.716599
 20
5.773736
 30
0.0
  0
SPLINE
  5
1f1
100
AcDbEntity
  8
Layer_1
 62
7
100
AcDbSpline
 70
8
 71
3
 72
8
 73
4
 74
0
 40
0
 40
0
 40
0
 40
0
 40
1
 40
1
 40
1
 40
1
 10
34.716599
 20
5.773736
 30
0.0
 10
34.925822
 20
6.134817
 30
0.0
 10
35.059939
 20
6.532269
 30
0.0
 10
35.113734
 20
6.942859
 30
0.0
  0
SPLINE
  5
1f2
100
AcDbEntity
  8
Layer_1
 62
7
100
AcDbSpline
 70
8
 71
3
 72
8
 73
4
 74
0
 40
0
 40
0
 40
0
 40
0
 40
1
 40
1
 40
1
 40
1
 10
35.113734
 20
6.942859
 30
0.0
 10
35.131009
 20
7.074709
 30
0.0
 10
35.137197
 20
7.180740
 30
0.0
 10
35.139565
 20
7.274568
 30
0.0
  0
SPLINE
  5
1f3
100
AcDbEntity
  8
Layer_1
 62
7
100
AcDbSpline
 70
8
 71
3
 72
8
 73
4
 74
0
 40
0
 40
0
 40
0
 40
0
 40
1
 40
1
 40
1
 40
1
 10
35.139565
 20
7.274568
 30
0.0
 10
35.140179
 20
7.298739
 30
0.0
 10
35.140767
 20
7.322093
 30
0.0
 10
35.141345
 20
7.344867
 30
0.0
  0
SPLINE
  5
1f4
100
AcDbEntity
  8
Layer_1
 62
7
100
AcDbSpline
 70
8
 71
3
 72
8
 73
4
 74
0
 40
0
 40
0
 40
0
 40
0
 40
1
 40
1
 40
1
 40
1
 10
35.141345
 20
7.344867
 30
0.0
 10
35.163849
 20
8.230565
 30
0.0
 10
35.189825
 20
9.144451
 30
0.0
 10
35.215922
 20
10.021436
 30
0.0
  0
SPLINE
  5
1f5
100
AcDbEntity
  8
Layer_1
 62
7
100
AcDbSpline
 70
8
 71
3
 72
8
 73
4
 74
0
 40
0
 40
0
 40
0
 40
0
 40
1
 40
1
 40
1
 40
1
 10
35.215922
 20
10.021436
 30
0.0
 10
35.243085
 20
10.934268
 30
0.0
 10
35.267709
 20
11.723548
 30
0.0
 10
35.299725
 20
12.743666
 30
0.0
  0
SPLINE
  5
1f6
100
AcDbEntity
  8
Layer_1
 62
7
100
AcDbSpline
 70
8
 71
3
 72
8
 73
4
 74
0
 40
0
 40
0
 40
0
 40
0
 40
1
 40
1
 40
1
 40
1
 10
35.299725
 20
12.743666
 30
0.0
 10
35.300121
 20
12.756421
 30
0.0
 10
35.300569
 20
12.770681
 30
0.0
 10
35.301066
 20
12.786372
 30
0.0
  0
SPLINE
  5
1f7
100
AcDbEntity
  8
Layer_1
 62
7
100
AcDbSpline
 70
8
 71
3
 72
8
 73
4
 74
0
 40
0
 40
0
 40
0
 40
0
 40
1
 40
1
 40
1
 40
1
 10
35.301066
 20
12.786372
 30
0.0
 10
35.307370
 20
12.987220
 30
0.0
 10
35.304723
 20
13.422817
 30
0.0
 10
35.120824
 20
13.939778
 30
0.0
  0
SPLINE
  5
1f8
100
AcDbEntity
  8
Layer_1
 62
7
100
AcDbSpline
 70
8
 71
3
 72
8
 73
4
 74
0
 40
0
 40
0
 40
0
 40
0
 40
1
 40
1
 40
1
 40
1
 10
35.120824
 20
13.939778
 30
0.0
 10
34.983905
 20
14.324672
 30
0.0
 10
34.773766
 20
14.677451
 30
0.0
 10
34.503470
 20
14.979407
 30
0.0
  0
SPLINE
  5
1f9
100
AcDbEntity
  8
Layer_1
 62
7
100
AcDbSpline
 70
8
 71
3
 72
8
 73
4
 74
0
 40
0
 40
0
 40
0
 40
0
 40
1
 40
1
 40
1
 40
1
 10
34.503470
 20
14.979407
 30
0.0
 10
34.229866
 20
15.285056
 30
0.0
 10
33.900043
 20
15.532624
 30
0.0
 10
33.533658
 20
15.709788
 30
0.0
  0
SPLINE
  5
1fa
100
AcDbEntity
  8
Layer_1
 62
7
100
AcDbSpline
 70
8
 71
3
 72
8
 73
4
 74
0
 40
0
 40
0
 40
0
 40
0
 40
1
 40
1
 40
1
 40
1
 10
33.533658
 20
15.709788
 30
0.0
 10
33.161881
 20
15.889561
 30
0.0
 10
32.759804
 20
15.993336
 30
0.0
 10
32.350808
 20
16.017306
 30
0.0
  0
SPLINE
  5
1fb
100
AcDbEntity
  8
Layer_1
 62
7
100
AcDbSpline
 70
8
 71
3
 72
8
 73
4
 74
0
 40
0
 40
0
 40
0
 40
0
 40
1
 40
1
 40
1
 40
1
 10
32.350808
 20
16.017306
 30
0.0
 10
32.290523
 20
16.020839
 30
0.0
 10
32.256034
 20
16.022694
 30
0.0
 10
32.166754
 20
16.022694
 30
0.0
  0
LWPOLYLINE
  5
1fc
100
AcDbEntity
  8
Layer_1
 62
7
100
AcDbPolyline
 90
4
 70
0
 10
28.623475
 20
5.195939
 30
0.0
 10
6.576211
 20
5.195939
 30
0.0
 10
6.576211
 20
4.211690
 30
0.0
 10
32.005242
 20
4.211690
 30
0.0
  0
SPLINE
  5
1fd
100
AcDbEntity
  8
Layer_1
 62
7
100
AcDbSpline
 70
8
 71
3
 72
8
 73
4
 74
0
 40
0
 40
0
 40
0
 40
0
 40
1
 40
1
 40
1
 40
1
 10
14.786854
 20
4.841606
 30
0.0
 10
14.786854
 20
4.810078
 30
0.0
 10
14.812413
 20
4.784519
 30
0.0
 10
14.843941
 20
4.784519
 30
0.0
  0
SPLINE
  5
1fe
100
AcDbEntity
  8
Layer_1
 62
7
100
AcDbSpline
 70
8
 71
3
 72
8
 73
4
 74
0
 40
0
 40
0
 40
0
 40
0
 40
1
 40
1
 40
1
 40
1
 10
14.843941
 20
4.784519
 30
0.0
 10
14.875469
 20
4.784519
 30
0.0
 10
14.901027
 20
4.810078
 30
0.0
 10
14.901027
 20
4.841606
 30
0.0
  0
SPLINE
  5
1ff
100
AcDbEntity
  8
Layer_1
 62
7
100
AcDbSpline
 70
8
 71
3
 72
8
 73
4
 74
0
 40
0
 40
0
 40
0
 40
0
 40
1
 40
1
 40
1
 40
1
 10
14.901027
 20
4.841606
 30
0.0
 10
14.901027
 20
4.873134
 30
0.0
 10
14.875469
 20
4.898692
 30
0.0
 10
14.843941
 20
4.898692
 30
0.0
  0
SPLINE
  5
200
100
AcDbEntity
  8
Layer_1
 62
7
100
AcDbSpline
 70
8
 71
3
 72
8
 73
4
 74
0
 40
0
 40
0
 40
0
 40
0
 40
1
 40
1
 40
1
 40
1
 10
14.843941
 20
4.898692
 30
0.0
 10
14.812413
 20
4.898692
 30
0.0
 10
14.786854
 20
4.873134
 30
0.0
 10
14.786854
 20
4.841606
 30
0.0
  0
LWPOLYLINE
  5
201
100
AcDbEntity
  8
Layer_1
 62
7
100
AcDbPolyline
 90
2
 70
0
 10
32.166804
 20
16.022707
 30
0.0
 10
18.780946
 20
16.022707
 30
0.0
  0
SPLINE
  5
202
100
AcDbEntity
  8
Layer_1
 62
7
100
AcDbSpline
 70
8
 71
3
 72
8
 73
4
 74
0
 40
0
 40
0
 40
0
 40
0
 40
1
 40
1
 40
1
 40
1
 10
31.322266
 20
5.155956
 30
0.0
 10
31.322266
 20
5.135560
 30
0.0
 10
31.333147
 20
5.116715
 30
0.0
 10
31.350810
 20
5.106517
 30
0.0
  0
SPLINE
  5
203
100
AcDbEntity
  8
Layer_1
 62
7
100
AcDbSpline
 70
8
 71
3
 72
8
 73
4
 74
0
 40
0
 40
0
 40
0
 40
0
 40
1
 40
1
 40
1
 40
1
 10
31.350810
 20
5.106517
 30
0.0
 10
31.368473
 20
5.096319
 30
0.0
 10
31.390234
 20
5.096319
 30
0.0
 10
31.407897
 20
5.106517
 30
0.0
  0
SPLINE
  5
204
100
AcDbEntity
  8
Layer_1
 62
7
100
AcDbSpline
 70
8
 71
3
 72
8
 73
4
 74
0
 40
0
 40
0
 40
0
 40
0
 40
1
 40
1
 40
1
 40
1
 10
31.407897
 20
5.106517
 30
0.0
 10
31.425559
 20
5.116715
 30
0.0
 10
31.436440
 20
5.135560
 30
0.0
 10
31.436440
 20
5.155956
 30
0.0
  0
SPLINE
  5
205
100
AcDbEntity
  8
Layer_1
 62
7
100
AcDbSpline
 70
8
 71
3
 72
8
 73
4
 74
0
 40
0
 40
0
 40
0
 40
0
 40
1
 40
1
 40
1
 40
1
 10
31.436440
 20
5.155956
 30
0.0
 10
31.436440
 20
5.176351
 30
0.0
 10
31.425559
 20
5.195197
 30
0.0
 10
31.407897
 20
5.205394
 30
0.0
  0
SPLINE
  5
206
100
AcDbEntity
  8
Layer_1
 62
7
100
AcDbSpline
 70
8
 71
3
 72
8
 73
4
 74
0
 40
0
 40
0
 40
0
 40
0
 40
1
 40
1
 40
1
 40
1
 10
31.407897
 20
5.205394
 30
0.0
 10
31.390234
 20
5.215592
 30
0.0
 10
31.368473
 20
5.215592
 30
0.0
 10
31.350810
 20
5.205394
 30
0.0
  0
SPLINE
  5
207
100
AcDbEntity
  8
Layer_1
 62
7
100
AcDbSpline
 70
8
 71
3
 72
8
 73
4
 74
0
 40
0
 40
0
 40
0
 40
0
 40
1
 40
1
 40
1
 40
1
 10
31.350810
 20
5.205394
 30
0.0
 10
31.333147
 20
5.195197
 30
0.0
 10
31.322266
 20
5.176351
 30
0.0
 10
31.322266
 20
5.155956
 30
0.0
  0
LWPOLYLINE
  5
208
100
AcDbEntity
  8
Layer_1
 62
7
100
AcDbPolyline
 90
1
 70
1
 10
14.786854
 20
4.841606
 30
0.0
  0
SPLINE
  5
209
100
AcDbEntity
  8
Layer_1
 62
7
100
AcDbSpline
 70
8
 71
3
 72
8
 73
4
 74
0
 40
0
 40
0
 40
0
 40
0
 40
1
 40
1
 40
1
 40
1
 10
28.566365
 20
15.392774
 30
0.0
 10
28.566438
 20
15.361298
 30
0.0
 10
28.591975
 20
15.335821
 30
0.0
 10
28.623451
 20
15.335821
 30
0.0
  0
SPLINE
  5
20a
100
AcDbEntity
  8
Layer_1
 62
7
100
AcDbSpline
 70
8
 71
3
 72
8
 73
4
 74
0
 40
0
 40
0
 40
0
 40
0
 40
1
 40
1
 40
1
 40
1
 10
28.623451
 20
15.335821
 30
0.0
 10
28.654927
 20
15.335821
 30
0.0
 10
28.680464
 20
15.361298
 30
0.0
 10
28.680537
 20
15.392774
 30
0.0
  0
SPLINE
  5
20b
100
AcDbEntity
  8
Layer_1
 62
7
100
AcDbSpline
 70
8
 71
3
 72
8
 73
4
 74
0
 40
0
 40
0
 40
0
 40
0
 40
1
 40
1
 40
1
 40
1
 10
28.680537
 20
15.392774
 30
0.0
 10
28.680464
 20
15.424250
 30
0.0
 10
28.654927
 20
15.449727
 30
0.0
 10
28.623451
 20
15.449727
 30
0.0
  0
SPLINE
  5
20c
100
AcDbEntity
  8
Layer_1
 62
7
100
AcDbSpline
 70
8
 71
3
 72
8
 73
4
 74
0
 40
0
 40
0
 40
0
 40
0
 40
1
 40
1
 40
1
 40
1
 10
28.623451
 20
15.449727
 30
0.0
 10
28.591975
 20
15.449727
 30
0.0
 10
28.566438
 20
15.424250
 30
0.0
 10
28.566365
 20
15.392774
 30
0.0
  0
LWPOLYLINE
  5
20d
100
AcDbEntity
  8
Layer_1
 62
7
100
AcDbPolyline
 90
1
 70
1
 10
31.322266
 20
5.155956
 30
0.0
  0
SPLINE
  5
20e
100
AcDbEntity
  8
Layer_1
 62
7
100
AcDbSpline
 70
8
 71
3
 72
8
 73
4
 74
0
 40
0
 40
0
 40
0
 40
0
 40
1
 40
1
 40
1
 40
1
 10
23.054560
 20
15.392774
 30
0.0
 10
23.054560
 20
15.372379
 30
0.0
 10
23.065441
 20
15.353533
 30
0.0
 10
23.083104
 20
15.343336
 30
0.0
  0
SPLINE
  5
20f
100
AcDbEntity
  8
Layer_1
 62
7
100
AcDbSpline
 70
8
 71
3
 72
8
 73
4
 74
0
 40
0
 40
0
 40
0
 40
0
 40
1
 40
1
 40
1
 40
1
 10
23.083104
 20
15.343336
 30
0.0
 10
23.100766
 20
15.333138
 30
0.0
 10
23.122528
 20
15.333138
 30
0.0
 10
23.140190
 20
15.343336
 30
0.0
  0
SPLINE
  5
210
100
AcDbEntity
  8
Layer_1
 62
7
100
AcDbSpline
 70
8
 71
3
 72
8
 73
4
 74
0
 40
0
 40
0
 40
0
 40
0
 40
1
 40
1
 40
1
 40
1
 10
23.140190
 20
15.343336
 30
0.0
 10
23.157853
 20
15.353533
 30
0.0
 10
23.168733
 20
15.372379
 30
0.0
 10
23.168733
 20
15.392774
 30
0.0
  0
SPLINE
  5
211
100
AcDbEntity
  8
Layer_1
 62
7
100
AcDbSpline
 70
8
 71
3
 72
8
 73
4
 74
0
 40
0
 40
0
 40
0
 40
0
 40
1
 40
1
 40
1
 40
1
 10
23.168733
 20
15.392774
 30
0.0
 10
23.168733
 20
15.413169
 30
0.0
 10
23.157853
 20
15.432015
 30
0.0
 10
23.140190
 20
15.442212
 30
0.0
  0
SPLINE
  5
212
100
AcDbEntity
  8
Layer_1
 62
7
100
AcDbSpline
 70
8
 71
3
 72
8
 73
4
 74
0
 40
0
 40
0
 40
0
 40
0
 40
1
 40
1
 40
1
 40
1
 10
23.140190
 20
15.442212
 30
0.0
 10
23.122528
 20
15.452410
 30
0.0
 10
23.100766
 20
15.452410
 30
0.0
 10
23.083104
 20
15.442212
 30
0.0
  0
SPLINE
  5
213
100
AcDbEntity
  8
Layer_1
 62
7
100
AcDbSpline
 70
8
 71
3
 72
8
 73
4
 74
0
 40
0
 40
0
 40
0
 40
0
 40
1
 40
1
 40
1
 40
1
 10
23.083104
 20
15.442212
 30
0.0
 10
23.065441
 20
15.432015
 30
0.0
 10
23.054560
 20
15.413169
 30
0.0
 10
23.054560
 20
15.392774
 30
0.0
  0
LWPOLYLINE
  5
214
100
AcDbEntity
  8
Layer_1
 62
7
100
AcDbPolyline
 90
1
 70
1
 10
28.566365
 20
15.392774
 30
0.0
  0
SPLINE
  5
215
100
AcDbEntity
  8
Layer_1
 62
7
100
AcDbSpline
 70
8
 71
3
 72
8
 73
4
 74
0
 40
0
 40
0
 40
0
 40
0
 40
1
 40
1
 40
1
 40
1
 10
9.275050
 20
4.841606
 30
0.0
 10
9.275050
 20
4.821211
 30
0.0
 10
9.285931
 20
4.802365
 30
0.0
 10
9.303593
 20
4.792167
 30
0.0
  0
SPLINE
  5
216
100
AcDbEntity
  8
Layer_1
 62
7
100
AcDbSpline
 70
8
 71
3
 72
8
 73
4
 74
0
 40
0
 40
0
 40
0
 40
0
 40
1
 40
1
 40
1
 40
1
 10
9.303593
 20
4.792167
 30
0.0
 10
9.321256
 20
4.781970
 30
0.0
 10
9.343017
 20
4.781970
 30
0.0
 10
9.360680
 20
4.792167
 30
0.0
  0
SPLINE
  5
217
100
AcDbEntity
  8
Layer_1
 62
7
100
AcDbSpline
 70
8
 71
3
 72
8
 73
4
 74
0
 40
0
 40
0
 40
0
 40
0
 40
1
 40
1
 40
1
 40
1
 10
9.360680
 20
4.792167
 30
0.0
 10
9.378342
 20
4.802365
 30
0.0
 10
9.389223
 20
4.821211
 30
0.0
 10
9.389223
 20
4.841606
 30
0.0
  0
SPLINE
  5
218
100
AcDbEntity
  8
Layer_1
 62
7
100
AcDbSpline
 70
8
 71
3
 72
8
 73
4
 74
0
 40
0
 40
0
 40
0
 40
0
 40
1
 40
1
 40
1
 40
1
 10
9.389223
 20
4.841606
 30
0.0
 10
9.389223
 20
4.862001
 30
0.0
 10
9.378342
 20
4.880847
 30
0.0
 10
9.360680
 20
4.891044
 30
0.0
  0
SPLINE
  5
219
100
AcDbEntity
  8
Layer_1
 62
7
100
AcDbSpline
 70
8
 71
3
 72
8
 73
4
 74
0
 40
0
 40
0
 40
0
 40
0
 40
1
 40
1
 40
1
 40
1
 10
9.360680
 20
4.891044
 30
0.0
 10
9.343017
 20
4.901242
 30
0.0
 10
9.321256
 20
4.901242
 30
0.0
 10
9.303593
 20
4.891044
 30
0.0
  0
SPLINE
  5
21a
100
AcDbEntity
  8
Layer_1
 62
7
100
AcDbSpline
 70
8
 71
3
 72
8
 73
4
 74
0
 40
0
 40
0
 40
0
 40
0
 40
1
 40
1
 40
1
 40
1
 10
9.303593
 20
4.891044
 30
0.0
 10
9.285931
 20
4.880847
 30
0.0
 10
9.275050
 20
4.862001
 30
0.0
 10
9.275050
 20
4.841606
 30
0.0
  0
LWPOLYLINE
  5
21b
100
AcDbEntity
  8
Layer_1
 62
7
100
AcDbPolyline
 90
1
 70
1
 10
23.054560
 20
15.392774
 30
0.0
  0
SPLINE
  5
21c
100
AcDbEntity
  8
Layer_1
 62
7
100
AcDbSpline
 70
8
 71
3
 72
8
 73
4
 74
0
 40
0
 40
0
 40
0
 40
0
 40
1
 40
1
 40
1
 40
1
 10
20.298658
 20
4.841606
 30
0.0
 10
20.298658
 20
4.810078
 30
0.0
 10
20.324217
 20
4.784519
 30
0.0
 10
20.355745
 20
4.784519
 30
0.0
  0
SPLINE
  5
21d
100
AcDbEntity
  8
Layer_1
 62
7
100
AcDbSpline
 70
8
 71
3
 72
8
 73
4
 74
0
 40
0
 40
0
 40
0
 40
0
 40
1
 40
1
 40
1
 40
1
 10
20.355745
 20
4.784519
 30
0.0
 10
20.387273
 20
4.784519
 30
0.0
 10
20.412831
 20
4.810078
 30
0.0
 10
20.412831
 20
4.841606
 30
0.0
  0
SPLINE
  5
21e
100
AcDbEntity
  8
Layer_1
 62
7
100
AcDbSpline
 70
8
 71
3
 72
8
 73
4
 74
0
 40
0
 40
0
 40
0
 40
0
 40
1
 40
1
 40
1
 40
1
 10
20.412831
 20
4.841606
 30
0.0
 10
20.412831
 20
4.862001
 30
0.0
 10
20.401951
 20
4.880847
 30
0.0
 10
20.384288
 20
4.891044
 30
0.0
  0
SPLINE
  5
21f
100
AcDbEntity
  8
Layer_1
 62
7
100
AcDbSpline
 70
8
 71
3
 72
8
 73
4
 74
0
 40
0
 40
0
 40
0
 40
0
 40
1
 40
1
 40
1
 40
1
 10
20.384288
 20
4.891044
 30
0.0
 10
20.366625
 20
4.901242
 30
0.0
 10
20.344864
 20
4.901242
 30
0.0
 10
20.327202
 20
4.891044
 30
0.0
  0
SPLINE
  5
220
100
AcDbEntity
  8
Layer_1
 62
7
100
AcDbSpline
 70
8
 71
3
 72
8
 73
4
 74
0
 40
0
 40
0
 40
0
 40
0
 40
1
 40
1
 40
1
 40
1
 10
20.327202
 20
4.891044
 30
0.0
 10
20.309539
 20
4.880847
 30
0.0
 10
20.298658
 20
4.862001
 30
0.0
 10
20.298658
 20
4.841606
 30
0.0
  0
LWPOLYLINE
  5
221
100
AcDbEntity
  8
Layer_1
 62
7
100
AcDbPolyline
 90
1
 70
1
 10
9.275050
 20
4.841606
 30
0.0
  0
SPLINE
  5
222
100
AcDbEntity
  8
Layer_1
 62
7
100
AcDbSpline
 70
8
 71
3
 72
8
 73
4
 74
0
 40
0
 40
0
 40
0
 40
0
 40
1
 40
1
 40
1
 40
1
 10
25.810462
 20
4.841606
 30
0.0
 10
25.810462
 20
4.821211
 30
0.0
 10
25.821343
 20
4.802365
 30
0.0
 10
25.839006
 20
4.792167
 30
0.0
  0
SPLINE
  5
223
100
AcDbEntity
  8
Layer_1
 62
7
100
AcDbSpline
 70
8
 71
3
 72
8
 73
4
 74
0
 40
0
 40
0
 40
0
 40
0
 40
1
 40
1
 40
1
 40
1
 10
25.839006
 20
4.792167
 30
0.0
 10
25.856668
 20
4.781970
 30
0.0
 10
25.878430
 20
4.781970
 30
0.0
 10
25.896092
 20
4.792167
 30
0.0
  0
SPLINE
  5
224
100
AcDbEntity
  8
Layer_1
 62
7
100
AcDbSpline
 70
8
 71
3
 72
8
 73
4
 74
0
 40
0
 40
0
 40
0
 40
0
 40
1
 40
1
 40
1
 40
1
 10
25.896092
 20
4.792167
 30
0.0
 10
25.913755
 20
4.802365
 30
0.0
 10
25.924636
 20
4.821211
 30
0.0
 10
25.924636
 20
4.841606
 30
0.0
  0
SPLINE
  5
225
100
AcDbEntity
  8
Layer_1
 62
7
100
AcDbSpline
 70
8
 71
3
 72
8
 73
4
 74
0
 40
0
 40
0
 40
0
 40
0
 40
1
 40
1
 40
1
 40
1
 10
25.924636
 20
4.841606
 30
0.0
 10
25.924636
 20
4.862001
 30
0.0
 10
25.913755
 20
4.880847
 30
0.0
 10
25.896092
 20
4.891044
 30
0.0
  0
SPLINE
  5
226
100
AcDbEntity
  8
Layer_1
 62
7
100
AcDbSpline
 70
8
 71
3
 72
8
 73
4
 74
0
 40
0
 40
0
 40
0
 40
0
 40
1
 40
1
 40
1
 40
1
 10
25.896092
 20
4.891044
 30
0.0
 10
25.878430
 20
4.901242
 30
0.0
 10
25.856668
 20
4.901242
 30
0.0
 10
25.839006
 20
4.891044
 30
0.0
  0
SPLINE
  5
227
100
AcDbEntity
  8
Layer_1
 62
7
100
AcDbSpline
 70
8
 71
3
 72
8
 73
4
 74
0
 40
0
 40
0
 40
0
 40
0
 40
1
 40
1
 40
1
 40
1
 10
25.839006
 20
4.891044
 30
0.0
 10
25.821343
 20
4.880847
 30
0.0
 10
25.810462
 20
4.862001
 30
0.0
 10
25.810462
 20
4.841606
 30
0.0
  0
LWPOLYLINE
  5
228
100
AcDbEntity
  8
Layer_1
 62
7
100
AcDbPolyline
 90
1
 70
1
 10
20.298658
 20
4.841606
 30
0.0
  0
SPLINE
  5
229
100
AcDbEntity
  8
Layer_1
 62
7
100
AcDbSpline
 70
8
 71
3
 72
8
 73
4
 74
0
 40
0
 40
0
 40
0
 40
0
 40
1
 40
1
 40
1
 40
1
 10
32.871228
 20
14.946021
 30
0.0
 10
32.871228
 20
14.874814
 30
0.0
 10
32.909216
 20
14.809016
 30
0.0
 10
32.970884
 20
14.773413
 30
0.0
  0
SPLINE
  5
22a
100
AcDbEntity
  8
Layer_1
 62
7
100
AcDbSpline
 70
8
 71
3
 72
8
 73
4
 74
0
 40
0
 40
0
 40
0
 40
0
 40
1
 40
1
 40
1
 40
1
 10
32.970884
 20
14.773413
 30
0.0
 10
33.032551
 20
14.737809
 30
0.0
 10
33.108528
 20
14.737809
 30
0.0
 10
33.170195
 20
14.773413
 30
0.0
  0
SPLINE
  5
22b
100
AcDbEntity
  8
Layer_1
 62
7
100
AcDbSpline
 70
8
 71
3
 72
8
 73
4
 74
0
 40
0
 40
0
 40
0
 40
0
 40
1
 40
1
 40
1
 40
1
 10
33.170195
 20
14.773413
 30
0.0
 10
33.231862
 20
14.809016
 30
0.0
 10
33.269850
 20
14.874814
 30
0.0
 10
33.269850
 20
14.946021
 30
0.0
  0
SPLINE
  5
22c
100
AcDbEntity
  8
Layer_1
 62
7
100
AcDbSpline
 70
8
 71
3
 72
8
 73
4
 74
0
 40
0
 40
0
 40
0
 40
0
 40
1
 40
1
 40
1
 40
1
 10
33.269850
 20
14.946021
 30
0.0
 10
33.269850
 20
15.017228
 30
0.0
 10
33.231862
 20
15.083026
 30
0.0
 10
33.170195
 20
15.118630
 30
0.0
  0
SPLINE
  5
22d
100
AcDbEntity
  8
Layer_1
 62
7
100
AcDbSpline
 70
8
 71
3
 72
8
 73
4
 74
0
 40
0
 40
0
 40
0
 40
0
 40
1
 40
1
 40
1
 40
1
 10
33.170195
 20
15.118630
 30
0.0
 10
33.108528
 20
15.154234
 30
0.0
 10
33.032551
 20
15.154234
 30
0.0
 10
32.970884
 20
15.118630
 30
0.0
  0
SPLINE
  5
22e
100
AcDbEntity
  8
Layer_1
 62
7
100
AcDbSpline
 70
8
 71
3
 72
8
 73
4
 74
0
 40
0
 40
0
 40
0
 40
0
 40
1
 40
1
 40
1
 40
1
 10
32.970884
 20
15.118630
 30
0.0
 10
32.909216
 20
15.083026
 30
0.0
 10
32.871228
 20
15.017228
 30
0.0
 10
32.871228
 20
14.946021
 30
0.0
  0
LWPOLYLINE
  5
22f
100
AcDbEntity
  8
Layer_1
 62
7
100
AcDbPolyline
 90
1
 70
1
 10
25.810462
 20
4.841606
 30
0.0
  0
SPLINE
  5
230
100
AcDbEntity
  8
Layer_1
 62
7
100
AcDbSpline
 70
8
 71
3
 72
8
 73
4
 74
0
 40
0
 40
0
 40
0
 40
0
 40
1
 40
1
 40
1
 40
1
 10
7.052617
 20
4.700459
 30
0.0
 10
7.052718
 20
4.590454
 30
0.0
 10
7.141923
 20
4.501330
 30
0.0
 10
7.251928
 20
4.501330
 30
0.0
  0
SPLINE
  5
231
100
AcDbEntity
  8
Layer_1
 62
7
100
AcDbSpline
 70
8
 71
3
 72
8
 73
4
 74
0
 40
0
 40
0
 40
0
 40
0
 40
1
 40
1
 40
1
 40
1
 10
7.251928
 20
4.501330
 30
0.0
 10
7.361933
 20
4.501330
 30
0.0
 10
7.451138
 20
4.590454
 30
0.0
 10
7.451239
 20
4.700459
 30
0.0
  0
SPLINE
  5
232
100
AcDbEntity
  8
Layer_1
 62
7
100
AcDbSpline
 70
8
 71
3
 72
8
 73
4
 74
0
 40
0
 40
0
 40
0
 40
0
 40
1
 40
1
 40
1
 40
1
 10
7.451239
 20
4.700459
 30
0.0
 10
7.451138
 20
4.810464
 30
0.0
 10
7.361933
 20
4.899587
 30
0.0
 10
7.251928
 20
4.899587
 30
0.0
  0
SPLINE
  5
233
100
AcDbEntity
  8
Layer_1
 62
7
100
AcDbSpline
 70
8
 71
3
 72
8
 73
4
 74
0
 40
0
 40
0
 40
0
 40
0
 40
1
 40
1
 40
1
 40
1
 10
7.251928
 20
4.899587
 30
0.0
 10
7.141923
 20
4.899587
 30
0.0
 10
7.052718
 20
4.810464
 30
0.0
 10
7.052617
 20
4.700459
 30
0.0
  0
LWPOLYLINE
  5
234
100
AcDbEntity
  8
Layer_1
 62
7
100
AcDbPolyline
 90
1
 70
1
 10
32.871228
 20
14.946021
 30
0.0
  0
SPLINE
  5
235
100
AcDbEntity
  8
Layer_1
 62
7
100
AcDbSpline
 70
8
 71
3
 72
8
 73
4
 74
0
 40
0
 40
0
 40
0
 40
0
 40
1
 40
1
 40
1
 40
1
 10
29.182825
 20
4.759005
 30
0.0
 10
29.182825
 20
4.687798
 30
0.0
 10
29.220814
 20
4.622000
 30
0.0
 10
29.282481
 20
4.586396
 30
0.0
  0
SPLINE
  5
236
100
AcDbEntity
  8
Layer_1
 62
7
100
AcDbSpline
 70
8
 71
3
 72
8
 73
4
 74
0
 40
0
 40
0
 40
0
 40
0
 40
1
 40
1
 40
1
 40
1
 10
29.282481
 20
4.586396
 30
0.0
 10
29.344148
 20
4.550793
 30
0.0
 10
29.420125
 20
4.550793
 30
0.0
 10
29.481792
 20
4.586396
 30
0.0
  0
SPLINE
  5
237
100
AcDbEntity
  8
Layer_1
 62
7
100
AcDbSpline
 70
8
 71
3
 72
8
 73
4
 74
0
 40
0
 40
0
 40
0
 40
0
 40
1
 40
1
 40
1
 40
1
 10
29.481792
 20
4.586396
 30
0.0
 10
29.543459
 20
4.622000
 30
0.0
 10
29.581448
 20
4.687798
 30
0.0
 10
29.581448
 20
4.759005
 30
0.0
  0
SPLINE
  5
238
100
AcDbEntity
  8
Layer_1
 62
7
100
AcDbSpline
 70
8
 71
3
 72
8
 73
4
 74
0
 40
0
 40
0
 40
0
 40
0
 40
1
 40
1
 40
1
 40
1
 10
29.581448
 20
4.759005
 30
0.0
 10
29.581448
 20
4.830212
 30
0.0
 10
29.543459
 20
4.896010
 30
0.0
 10
29.481792
 20
4.931613
 30
0.0
  0
SPLINE
  5
239
100
AcDbEntity
  8
Layer_1
 62
7
100
AcDbSpline
 70
8
 71
3
 72
8
 73
4
 74
0
 40
0
 40
0
 40
0
 40
0
 40
1
 40
1
 40
1
 40
1
 10
29.481792
 20
4.931613
 30
0.0
 10
29.420125
 20
4.967217
 30
0.0
 10
29.344148
 20
4.967217
 30
0.0
 10
29.282481
 20
4.931613
 30
0.0
  0
SPLINE
  5
23a
100
AcDbEntity
  8
Layer_1
 62
7
100
AcDbSpline
 70
8
 71
3
 72
8
 73
4
 74
0
 40
0
 40
0
 40
0
 40
0
 40
1
 40
1
 40
1
 40
1
 10
29.282481
 20
4.931613
 30
0.0
 10
29.220814
 20
4.896010
 30
0.0
 10
29.182825
 20
4.830212
 30
0.0
 10
29.182825
 20
4.759005
 30
0.0
  0
LWPOLYLINE
  5
23b
100
AcDbEntity
  8
Layer_1
 62
7
100
AcDbPolyline
 90
1
 70
1
 10
7.052617
 20
4.700459
 30
0.0
  0
SPLINE
  5
23c
100
AcDbEntity
  8
Layer_1
 62
7
100
AcDbSpline
 70
8
 71
3
 72
8
 73
4
 74
0
 40
0
 40
0
 40
0
 40
0
 40
1
 40
1
 40
1
 40
1
 10
30.968481
 20
15.268025
 30
0.0
 10
30.968582
 20
15.158020
 30
0.0
 10
31.057787
 20
15.068897
 30
0.0
 10
31.167792
 20
15.068897
 30
0.0
  0
SPLINE
  5
23d
100
AcDbEntity
  8
Layer_1
 62
7
100
AcDbSpline
 70
8
 71
3
 72
8
 73
4
 74
0
 40
0
 40
0
 40
0
 40
0
 40
1
 40
1
 40
1
 40
1
 10
31.167792
 20
15.068897
 30
0.0
 10
31.277797
 20
15.068897
 30
0.0
 10
31.367002
 20
15.158020
 30
0.0
 10
31.367103
 20
15.268025
 30
0.0
  0
SPLINE
  5
23e
100
AcDbEntity
  8
Layer_1
 62
7
100
AcDbSpline
 70
8
 71
3
 72
8
 73
4
 74
0
 40
0
 40
0
 40
0
 40
0
 40
1
 40
1
 40
1
 40
1
 10
31.367103
 20
15.268025
 30
0.0
 10
31.367002
 20
15.378030
 30
0.0
 10
31.277797
 20
15.467154
 30
0.0
 10
31.167792
 20
15.467154
 30
0.0
  0
SPLINE
  5
23f
100
AcDbEntity
  8
Layer_1
 62
7
100
AcDbSpline
 70
8
 71
3
 72
8
 73
4
 74
0
 40
0
 40
0
 40
0
 40
0
 40
1
 40
1
 40
1
 40
1
 10
31.167792
 20
15.467154
 30
0.0
 10
31.057787
 20
15.467154
 30
0.0
 10
30.968582
 20
15.378030
 30
0.0
 10
30.968481
 20
15.268025
 30
0.0
  0
LWPOLYLINE
  5
240
100
AcDbEntity
  8
Layer_1
 62
7
100
AcDbPolyline
 90
1
 70
1
 10
29.182825
 20
4.759005
 30
0.0
  0
SPLINE
  5
241
100
AcDbEntity
  8
Layer_1
 62
7
100
AcDbSpline
 70
8
 71
3
 72
8
 73
4
 74
0
 40
0
 40
0
 40
0
 40
0
 40
1
 40
1
 40
1
 40
1
 10
27.748447
 20
4.700459
 30
0.0
 10
27.748547
 20
4.590454
 30
0.0
 10
27.837752
 20
4.501330
 30
0.0
 10
27.947758
 20
4.501330
 30
0.0
  0
SPLINE
  5
242
100
AcDbEntity
  8
Layer_1
 62
7
100
AcDbSpline
 70
8
 71
3
 72
8
 73
4
 74
0
 40
0
 40
0
 40
0
 40
0
 40
1
 40
1
 40
1
 40
1
 10
27.947758
 20
4.501330
 30
0.0
 10
28.057763
 20
4.501330
 30
0.0
 10
28.146968
 20
4.590454
 30
0.0
 10
28.147068
 20
4.700459
 30
0.0
  0
SPLINE
  5
243
100
AcDbEntity
  8
Layer_1
 62
7
100
AcDbSpline
 70
8
 71
3
 72
8
 73
4
 74
0
 40
0
 40
0
 40
0
 40
0
 40
1
 40
1
 40
1
 40
1
 10
28.147068
 20
4.700459
 30
0.0
 10
28.146968
 20
4.810464
 30
0.0
 10
28.057763
 20
4.899587
 30
0.0
 10
27.947758
 20
4.899587
 30
0.0
  0
SPLINE
  5
244
100
AcDbEntity
  8
Layer_1
 62
7
100
AcDbSpline
 70
8
 71
3
 72
8
 73
4
 74
0
 40
0
 40
0
 40
0
 40
0
 40
1
 40
1
 40
1
 40
1
 10
27.947758
 20
4.899587
 30
0.0
 10
27.837752
 20
4.899587
 30
0.0
 10
27.748547
 20
4.810464
 30
0.0
 10
27.748447
 20
4.700459
 30
0.0
  0
LWPOLYLINE
  5
245
100
AcDbEntity
  8
Layer_1
 62
7
100
AcDbPolyline
 90
1
 70
1
 10
30.968481
 20
15.268025
 30
0.0
  0
LWPOLYLINE
  5
246
100
AcDbEntity
  8
Layer_1
 62
7
100
AcDbPolyline
 90
1
 70
1
 10
27.748447
 20
4.700459
 30
0.0
  0
ENDSEC
  0
SECTION
  2
OBJECTS
  0
DICTIONARY
  5
C
330
0
100
AcDbDictionary
  3
ACAD_GROUP
350
D
  3
ACAD_MLINESTYLE
350
17
  0
DICTIONARY
  5
D
330
C
100
AcDbDictionary
  0
DICTIONARY
  5
1A
330
C
100
AcDbDictionary
  0
DICTIONARY
  5
17
330
C
100
AcDbDictionary
  3
STANDARD
350
18
  0
DICTIONARY
  5
19
330
C
100
AcDbDictionary
  0
ENDSEC
  0
EOF
